<svg xmlns="http://www.w3.org/2000/svg" xmlns:xlink="http://www.w3.org/1999/xlink" width="100%" height="100%" viewBox="0 0 287 108" fill-rule="evenodd" stroke-linecap="round" stroke-linejoin="round" stroke-miterlimit="1.5" xmlns:v="https://vecta.io/nano"><style><![CDATA[.B{stroke:#000}.C{fill:none}.D{stroke-width:5.729}.E{stroke-width:7.11}.F{stroke-width:1.398}.G{stroke-width:4.826}]]></style><g transform="matrix(.999996 0 0 1.16526 -114.886713 -77.224931)"><use xlink:href="#C" fill="#fff"/><clipPath id="A"><use xlink:href="#C"/></clipPath><g clip-path="url(#A)"><g transform="matrix(.442138 0 0 .255597 -203.528 -350.678)"><g class="B C"><g class="D"><path d="M731.046 2025l19.926-79"/><path d="M750.972 1946s-10.286-13.48 0-15 15.278 10.66 0 15z"/></g><path d="M750.234 1930.87s-10.641-22.5 2.167-20.87c12.803 1.63 17.606 30.17 6.044 20.87" stroke-width="5.897"/><path d="M757.23 1909.92s25.753-2.44 24.284-24.92c-1.462-22.48 8.562-27.53 14.719-29s18.929 2.75 28.966 1c1.906-.33 26.979 35.46 30.987 45s1.347 19.32 1.347 19.32h-10.778l-.674-11.4s-13.277-18.93-18.862-19.92c3.806 15.98 3.631 44.89 7.41 48.43 3.779 3.55-21.354 20.95-28.966 0 1.172-15.56.108-25.95-6.736-39.43s-4.042-23-4.042-23c-.445 23.32-6.945 47.41-26.514 45.32" class="D"/><path d="M851.498 1919.321s-17.033 7.741-3.849 21.166c13.184 13.433 13.97-20.421 3.849-21.166z" stroke-width="5.671"/></g><path d="M806.001 1815c9.067 1.28 16.504 11.43 16.504 25.5s-7.396 25.5-16.504 25.5-11.943-13.16-16.504-25.5c-6.096-16.48 2.358-27.49 16.504-25.5z" fill="#fff" class="B D"/><circle cx="1188" cy="1836" r="2" transform="matrix(1.51758 0 0 2.25285 -1002.27 -2298.72)"/><circle cx="1188" cy="1836" r="2" transform="matrix(1.51758 0 0 2.25285 -990.928 -2299.67)"/><g class="C D"><path d="M804.317 1938.43s-17.905 70.01-4.042 99.57c14.22 2.35 18.862 0 18.862 0s-11.916-80.7 7.41-74 17.905 51.82 20.209 70c17.932-2.53 18.188-3 18.188-3s-10.057-86.39-30.313-92.57" class="B"/><path d="M800.618 1852s4.21-9.08 8.306-5 3.921 3.3 6.069 1" stroke="#020200"/></g></g><path d="M368.132 132.477s-77.292 22.785-142 25.024" class="B C F"/><g transform="matrix(-.249316 0 0 .144128 478.353 -171.492)"><g class="E"><path d="M242.517 2131.95l-43.704-20.71-1.437-88.24c-.191-9.41-2.716-48.23-4.715-63.27-7.802-4.47-41.256-19.03-10.778-47.73 17.191-5.72 47.729-11.03 54.296-18.18s.027-6.58 0-15.82c11.31-9.78 21.29-24.49 62.242-25.63s128.117 13.05 154.935 30.74c26.817 17.7 38.149 19.76 41.37 26.56-9.035 1.68-9.71 0-9.71 0l1.347 38.33s35.47 16.45 35.386 47c-2.387 9.62-6.426 19.13-11.135 22 .626 10.97 1.138 126.2 0 134s.546 39.96-33.681 61c-8.062 6.86-23.711 14.84-37.05 19-10.941-.03-43.449-4.42-74.625-35-5.465 4.37-20.287 7.38-15.673-8-5.429 8.95-20.647 9.18-20.178-8 .361-13.23-2.484-12.82 0-21-7.536-.9-11.287 15.12-23.048-7.02-19.294-2.03-18.296-13.46-23.432-24.98 6.619 23.05-4.06 33.08-10.951 31.5-7.333-1.68-17.516-.5-21.608-4.58-10.265-10.22-7.159-28.25-7.851-21.97z" fill="#fff" stroke="#fff"/><g class="B C"><path d="M194.009 1962l6.063 148c2.341 7.36 34.811 20.22 43.112 24s1.902-39.6 20.209-32 100.441 58.16 102.392 61-1.774 26.87 4.715 35 53.749 30.68 61.3 33 70.543-65.92 76.12-75 2.206-121.96.674-133m-272.82-133s-136.884 50.65-16.841 75c59.067 19.61 112.823 41.61 133.577 45s97.058 32.31 144.632 17 20.317-70.19-2.021-77c-27.931 4.67-51.845 13.68-61.974 15s-178.612-51.91-191.311-59c-.113-8.41-6.063-16-6.063-16z"/><path d="M224.996 1883s148.074 19.42 195.352 51c15.304-11.44 18.413-21.23 74.099-19-14.289-18.74-66.463-62.3-207.478-62-19.783 0-48.473 12.16-61.974 30zm196.699 51v28"/><path d="M485.69 1915v34.5M369.826 1915v32.5M284.949 2052l24.251 8s3.999-42.58-6.736-42-17.514 15.9-17.514 34zm43.112 14l24.251 6s5.448-40.56-10.104-40.56-14.146 19.79-14.146 34.56zm50.522 123l41.091 17 1.347-163-43.112-11.56.674 157.56z"/><path d="M399.466 2039v158"/></g></g><path d="M384.646 2060h6.736v43h-6.736z" class="B C G"/><g class="E B C"><path d="M446.62 2118l62.647-37m-38.558-29s24.408-49.75 23.739 37m-2.695-45s9.466-19.97 17.514-3m-61.3 145s-13.094 7.99-2.878 20c7.893 9.28 12.164-26.35 2.878-20zm51.869-49s-8.66 11.21 0 13 3.503-19.78 0-13zm-66.689 94c4.038.96 79.214-19.48 74.773-73.71m-224.12-15.87s13.332 21.68 15.295 1.14.701 38.97 18.188-9.56c-.553 15.01-1.473 38.49 25.134 15"/></g><g fill="#fff" class="B"><g stroke-width="18.73"><ellipse cx="422.5" cy="2150.62" rx="33.5" ry="34.618" transform="matrix(.26891 .14593 -.107339 .435892 456.28 1174.27)"/><ellipse cx="422.5" cy="2150.62" rx="33.5" ry="34.618" transform="matrix(.26891 .14593 -.107339 .435892 474.349 1184.97)"/></g></g><g class="C E B"><path d="M465.481 2180l22.903-24v-40l-24.251 14.53 1.347 49.47zm-26.945-150l-6.063 201.06M445.946 2118s-6.082-74 14.146-74c16.86-1 10.104 47.4 10.104 59"/></g><path d="M405.528 2060h8.757l-1.347 47-7.41-1v-46z" class="B C G"/></g><g transform="matrix(.349429 0 0 .376897 23.818 -531.72)" fill-rule="nonzero"><path d="M490.566 1700.29a11.17 11.17 0 0 0 1.022-.07c.487-.04 1.038-.2 1.655-.47.811-.32 1.339-.78 1.582-1.39.243-.6.365-1.67.365-3.2 0-1.27.065-2.48.195-3.62.519-5.14.779-10.74.779-16.83 0-1.66-.09-3.58-.268-5.78-.179-2.19-.738-4.42-1.679-6.69-2.142-4.99-6.556-7.48-13.241-7.48-1.72 0-3.416.21-5.087.62s-3.286 1.22-4.843 2.4c-2.304 1.78-4.219 4.26-5.744 7.41-.649 1.43-1.266 3.44-1.85 6.03-.584 2.6-.957 4.83-1.12 6.7l-.048.64c-.033.57-.073.99-.122 1.25-.049.27-.162.45-.341.55-.178.09-.543.18-1.095.26-2.953.66-4.43 1.68-4.43 3.06 0 1.21.779 2.11 2.337 2.7.324.15.633.25.925.29a10.01 10.01 0 0 0 1.265.06l.682-.03.341.07c.259.06.421.36.486.89l1.023 6.68c.194 1.61.438 2.55.73 2.83l.048.06c1.006 1 2.321 1.5 3.943 1.5h.195c2.531-.11 3.797-1.22 3.797-3.34 0-1.17-.179-3.27-.535-6.3l-.244-2.04-.195-1.72a.56.56 0 0 1 .195-.43c.13-.11.357-.24.682-.36.649-.19 2.953-.57 6.912-1.15 1.103-.15 2.353-.26 3.748-.35 1.785-.1 3.116-.16 3.992-.16.227 0 .365.03.413.08.049.06.074.16.074.31l-.049.19c0 .93-.13 2.79-.39 5.56-.324 3.08-.486 5.42-.486 7.04 0 1.44.129 2.3.389 2.57.26.28.6.55 1.022.83s.877.48 1.363.6a5.44 5.44 0 0 0 1.607.23zm-18.693-21.92c-.422 0-.633-.11-.633-.32 0-.11.025-.22.073-.35s.073-.35.073-.67l.049-.32c.357-2.44.957-4.93 1.801-7.47.844-2.55 1.785-4.5 2.824-5.86 1.72-1.97 3.261-2.96 4.624-2.96.26 0 .836.14 1.728.42.893.27 1.817 1.43 2.775 3.46.957 2.04 1.614 4.23 1.971 6.56.26 1.46.39 2.75.39 3.85 0 1.27-.114 1.98-.341 2.13-.097.06-.292.09-.584.09l-2.775.19-5.768.5c-1.477.16-3.351.4-5.623.71l-.584.04zm34.367 20.9c1.071 0 2.077-.3 3.018-.89l.925-.61 2.385.38a13.8 13.8 0 0 0 1.899.13c2.109 0 4.275-.39 6.498-1.17 2.223-.79 4.032-1.85 5.428-3.19 2.661-2.82 3.991-6.1 3.991-9.86 0-2.48-.649-4.79-1.947-6.94-1.46-1.84-3.342-3.23-5.646-4.16-1.753-.7-3.521-1.05-5.306-1.05a17.15 17.15 0 0 0-1.753.09c-1.655.24-3.099.64-4.332 1.21-.292.13-.503.19-.633.19-.065 0-.146-.02-.243-.08-.098-.05-.146-.26-.146-.62.032-.48.276-2.13.73-4.93.292-1.99.762-4.09 1.411-6.3.325-1.04.487-1.78.487-2.22 0-.41-.146-.8-.438-1.18-.908-.94-2.142-1.4-3.699-1.4-.098 0-.593.01-1.485.05-.892.03-1.777.59-2.653 1.67-.195.31-.487 1.12-.876 2.4s-.763 2.68-1.12 4.18c-.422 1.72-.925 5.1-1.509 10.15-.259 2.1-.43 3.75-.511 4.95s-.122 2.67-.122 4.41c0 1.78.041 3.2.122 4.26s.235 2.44.462 4.13c.39 2.76.682 4.28.877 4.55.454.72 1.168 1.23 2.142 1.53.713.21 1.395.32 2.044.32zm8.519-6.71c-.422 0-.885-.07-1.388-.21s-.835-.31-.998-.51-.308-.71-.438-1.51c-.227-1.15-.34-2.42-.34-3.82 0-.38.016-.72.048-1.02.682-3.54 1.931-5.87 3.749-7 .811-.51 1.59-.76 2.336-.76.876 0 1.671.37 2.385 1.11.876 1.59 1.315 3.21 1.315 4.84 0 .64-.155 1.68-.463 3.12s-1.192 2.85-2.653 4.23c-1.071 1.02-2.255 1.53-3.553 1.53zm33.393 6.42c1.363 0 2.71-.09 4.04-.28 7.205-1.09 10.855-3.65 10.953-7.7-.033-2.29-1.233-4.21-3.602-5.76-.812-.55-1.793-1.03-2.945-1.43-1.153-.41-2.686-.81-4.601-1.21-2.076-.45-3.521-.83-4.332-1.15-1.298-.49-1.947-1.2-1.947-2.13 0-.4.17-.91.511-1.53.341-.61.982-1.12 1.923-1.52.681-.26 1.184-.39 1.509-.39.292 0 .503.07.633.2.13.12.324.24.584.35.876.4 1.801.6 2.775.6 1.038 0 1.995-.28 2.872-.83.811-.59 1.216-1.26 1.216-2 0-.21-.097-.63-.292-1.26-.194-.62-1.038-1.27-2.531-1.92-1.525-.6-3.164-.89-4.916-.89-1.688 0-3.456.27-5.306.82-4.349 1.4-6.945 3.8-7.789 7.19-.065.41-.097.81-.097 1.21 0 2.06 1.071 3.89 3.213 5.51.941.68 2.036 1.24 3.285 1.7 1.25.45 3.075.95 5.477 1.48 1.785.4 3.042.74 3.772 1 .73.27 1.177.57 1.339.91s.243.64.243.92c0 .7-.486 1.24-1.46 1.62-1.136.47-2.434.7-3.894.7-.325 0-1.039-.04-2.142-.11s-2.093-.59-2.97-1.54c-.324-.41-.624-.7-.9-.88s-.69-.36-1.241-.54-1.039-.27-1.461-.27c-1.428 0-2.547.29-3.358.86-.942.66-1.412 1.39-1.412 2.19 0 .54.195 1.09.584 1.66 2.304 2.95 6.393 4.42 12.267 4.42zm29.986-.63l1.338-.04c.633-.02 1.347-.12 2.142-.3s1.647-.47 2.556-.87c.908-.41 1.687-.85 2.336-1.34.584-.4.958-.6 1.12-.6l.049.03c.064.1.259.3.584.57.746.68 1.314 1.15 1.703 1.4.909.47 1.931.7 3.067.7.584 0 1.136-.06 1.655-.19 1.753-.59 2.629-1.45 2.629-2.58 0-.38-.114-.75-.341-1.09-.227-.36-.617-.79-1.168-1.32-1.169-1.4-1.785-3.42-1.85-6.05v-.86c0-2.23.114-4.04.341-5.44 0-.19.178-1.57.535-4.13l.146-1.79c0-.61-.048-1.04-.146-1.27-.389-.68-1.071-1.2-2.044-1.56-.714-.25-1.428-.38-2.142-.38-1.98 0-3.408.67-4.284 2-.649 1.49-1.006 3.64-1.071 6.46a47.5 47.5 0 0 1-.438 4.84c-.227 1.59-.649 2.97-1.265 4.13-1.526 2.46-3.1 3.7-4.722 3.7-1.493 0-2.369-1.33-2.629-3.98v-.38c0-.96.098-2.21.292-3.76.325-2.18.844-4.18 1.558-5.98.195-.53.519-1.01.973-1.43.682-.62 1.023-1.32 1.023-2.1 0-.15-.057-.51-.171-1.1-.113-.58-.689-1.14-1.728-1.67-.746-.36-1.574-.54-2.482-.54-.163 0-.576.03-1.242.1-.665.06-1.371.36-2.117.9s-1.485 1.63-2.215 3.26c-.73 1.64-1.55 4.42-2.458 8.34-.292 1.29-.438 2.52-.438 3.69 0 2.2.641 4.36 1.922 6.47s3.659 3.46 7.132 4.03a13.6 13.6 0 0 0 1.85.13zm29.937 1.52c1.038 0 2.004-.27 2.896-.82.892-.56 1.339-1.28 1.339-2.17 0-.61-.146-1.47-.438-2.57a12.85 12.85 0 0 1-.146-1.88v-.41l-.049-1.25c-.13-.59-.195-1.19-.195-1.81 0-1.17.292-2.59.876-4.26.584-1.68 1.72-3.22 3.408-4.62 1.395-1.14 3.099-1.71 5.111-1.71a10.63 10.63 0 0 1 1.825.16 12.96 12.96 0 0 0 2.021.15c.584 0 1.152-.14 1.703-.44 1.039-.6 1.558-1.35 1.558-2.26 0-1.53-.763-2.58-2.288-3.15-1.33-.57-2.888-.86-4.673-.86l-2.41.11c-1.281.08-2.782.62-4.502 1.64l-1.071.61c-.033 0-.065-.05-.098-.15l-.146-.36c-.486-1.68-1.963-2.52-4.429-2.52-1.428 0-2.564.43-3.408 1.28-.357.29-.641.7-.852 1.21-.211.5-.413 1.3-.608 2.38-.746 3.16-1.12 6.4-1.12 9.7 0 2.06.146 4.14.438 6.24l.098.54c.357 2.91.665 4.66.925 5.25.454.74 1.168 1.28 2.141 1.62a6.53 6.53 0 0 0 2.094.35zm36.07-.54l2.191-.09c2.596-.17 5.16-1.09 7.691-2.74.584-.38.941-.57 1.071-.57l.048.03c.13.19.357.4.682.64.616.46 1.282.76 1.996.89.292.06.714.09 1.265.09 1.428 0 2.532-.35 3.31-1.05.39-.27.658-.57.804-.89s.219-.86.219-1.62l-.146-3.5-.049-1.21c-.26-4.45-.389-8.25-.389-11.39 0-3.48.259-7.37.778-11.67.228-2.15.422-3.54.585-4.19s.243-1.22.243-1.73c0-1.27-.536-2.16-1.606-2.64-.714-.38-1.542-.58-2.483-.58-1.46 0-2.645.37-3.554 1.09-.843.68-1.281 1.51-1.314 2.51a22.46 22.46 0 0 0-.122 1.08 19.48 19.48 0 0 1-.219 1.59c-.551 3.33-.941 6.76-1.168 10.28l-.584-.23a18.64 18.64 0 0 0-6.572-1.2c-2.726 0-5.111.64-7.155 1.94-1.72 1.1-3.294 2.63-4.722 4.58-1.785 2.54-2.677 5.1-2.677 7.66v2.04c0 1.34.584 2.98 1.752 4.93 2.045 3.31 4.884 5.26 8.519 5.86a12.45 12.45 0 0 0 1.606.09zm1.363-6.17c-.162 0-.803-.05-1.923-.14-1.119-.1-1.825-1.52-2.117-4.28v-.77c0-2.33.43-4.39 1.29-6.18.86-1.8 2.036-2.96 3.529-3.49.292-.08.584-.13.876-.13 1.266 0 2.434.66 3.505 1.98 1.006 1.38 1.509 3.2 1.509 5.47 0 1.85-.406 3.33-1.217 4.45-1.687 2.06-3.505 3.09-5.452 3.09zm64.45 4.49c1.752 0 3.05-.63 3.894-1.88.162-.28.244-.57.244-.89 0-.38-.171-1.06-.512-2.04l-.778-2.54c-.179-.72-.292-1.56-.341-2.52l-.073-5.5c0-3.56.227-8.07.681-13.52.357-3.88.666-5.87.925-5.95.098-.04.26-.06.487-.06h.633a1.17 1.17 0 0 1 .341-.04l2.58-.03 4.162-.01c.243-.02.494-.02.754-.02 1.59-.13 2.726-.6 3.407-1.43.357-.43.536-.87.536-1.34 0-.42-.162-.87-.487-1.33-.552-.72-1.412-1.2-2.58-1.44-1.298-.17-2.937-.25-4.916-.25-1.428 0-3.651.07-6.669.22a131.77 131.77 0 0 0-8.762.73c-3.018.36-5.347.69-6.986.97-1.638.29-2.823.59-3.553.91s-1.249.72-1.558 1.19c-.308.48-.462.92-.462 1.32 0 .68.405 1.3 1.217 1.85s1.817.83 3.018.83a9.23 9.23 0 0 0 1.752-.19c1.98-.39 3.505-.64 4.576-.77 1.59-.19 2.499-.28 2.726-.28.324 0 .487.11.487.35v.11c0 .03-.017.06-.049.08-.032.55-.114 1.33-.243 2.35-.714 5.85-1.071 11.17-1.071 15.94 0 3.69.194 6.45.584 8.27a13.43 13.43 0 0 0 .487 1.78c.519 1.72.876 2.74 1.071 3.06.941 1.38 2.433 2.07 4.478 2.07zm18.546 2.22c1.039 0 2.004-.27 2.897-.82.892-.56 1.338-1.28 1.338-2.17 0-.61-.146-1.47-.438-2.57-.097-.66-.146-1.29-.146-1.88v-.41l-.049-1.25c-.129-.59-.194-1.19-.194-1.81 0-1.17.292-2.59.876-4.26.584-1.68 1.72-3.22 3.407-4.62 1.396-1.14 3.1-1.71 5.112-1.71a10.64 10.64 0 0 1 1.825.16c.633.1 1.306.15 2.02.15.584 0 1.152-.14 1.704-.44 1.038-.6 1.558-1.35 1.558-2.26 0-1.53-.763-2.58-2.288-3.15-1.331-.57-2.888-.86-4.673-.86l-2.41.11c-1.282.08-2.783.62-4.503 1.64l-1.071.61c-.032 0-.064-.05-.097-.15l-.146-.36c-.487-1.68-1.963-2.52-4.43-2.52-1.428 0-2.563.43-3.407 1.28-.357.29-.641.7-.852 1.21-.211.5-.414 1.3-.608 2.38-.747 3.16-1.12 6.4-1.12 9.7 0 2.06.146 4.14.438 6.24l.097.54c.357 2.91.666 4.66.925 5.25.455.74 1.169 1.28 2.142 1.62a6.53 6.53 0 0 0 2.093.35zm37.929-.79c3.473 0 6.45-.68 8.933-2.02 2.482-1.35 4.454-3.06 5.914-5.14 1.947-2.84 2.921-5.73 2.921-8.65 0-1.28-.211-2.43-.633-3.47-.876-2.04-2.223-3.75-4.04-5.12-2.986-2.19-6.604-3.28-10.856-3.28-3.375 0-6.587.76-9.638 2.29-.746.36-1.347.7-1.801 1.02-2.921 2.06-4.787 4.64-5.598 7.76-.292 1.15-.438 2.28-.438 3.4 0 1.38.3 3.04.901 4.98s2.093 3.77 4.478 5.48c2.385 1.7 5.622 2.62 9.711 2.75h.146zm.682-5.06l-.828-.03c-2.563-.38-4.316-1.5-5.257-3.34a8.93 8.93 0 0 1-.974-4.11c0-.68.138-1.76.414-3.24.276-1.49 1.209-3.04 2.799-4.65 1.493-1.5 3.391-2.26 5.696-2.26h.438c2.206.28 3.748 1.35 4.624 3.22.682 1.38 1.022 2.88 1.022 4.51 0 .58-.105 1.6-.316 3.06s-1.047 3.01-2.507 4.64c-1.298 1.47-3.002 2.2-5.111 2.2zm28.038 4.29c1.298 0 2.386-.34 3.262-1.01.552-.43.876-.88.973-1.37.065-.21.098-.45.098-.7 0-.38-.065-.82-.195-1.31-.909-4.01-1.363-8.35-1.363-13.04 0-4.9.406-10.59 1.217-17.08.065-.58.097-1.01.097-1.31-.065-.97-.519-1.77-1.363-2.38-.584-.43-1.314-.72-2.19-.86l-.487-.04c-.422 0-.86.06-1.314.16-.649.13-1.193.34-1.631.62-.438.29-.771.6-.998.93s-.438.9-.633 1.73c-1.071 4.96-1.606 10.62-1.606 16.96v.57c.097 6.58.681 11.69 1.752 15.33.26.77.649 1.34 1.169 1.72a5.94 5.94 0 0 0 1.849.89 4.93 4.93 0 0 0 1.363.19zm14.993 0c1.298 0 2.385-.34 3.262-1.01.551-.43.876-.88.973-1.37.065-.21.098-.45.098-.7 0-.38-.065-.82-.195-1.31-.909-4.01-1.363-8.35-1.363-13.04 0-4.9.406-10.59 1.217-17.08.065-.58.097-1.01.097-1.31-.065-.97-.519-1.77-1.363-2.38-.584-.43-1.314-.72-2.19-.86l-.487-.04c-.422 0-.86.06-1.314.16-.649.13-1.193.34-1.631.62-.438.29-.771.6-.998.93s-.438.9-.633 1.73c-1.071 4.96-1.606 10.62-1.606 16.96v.57c.097 6.58.681 11.69 1.752 15.33.26.77.649 1.34 1.168 1.72s1.136.68 1.85.89a4.93 4.93 0 0 0 1.363.19zm26.578.55c2.954 0 6.037-.68 9.249-2.04 3.83-1.72 5.744-3.4 5.744-5.03l-.048-.44c-.552-1.34-1.72-2.12-3.505-2.36a7.58 7.58 0 0 0-.925-.06c-1.395 0-2.596.45-3.602 1.37-.39.4-.941.8-1.655 1.21a11.76 11.76 0 0 1-2.288.98c-.584.19-1.055.32-1.412.37s-.876.08-1.558.08c-.746 0-1.281-.03-1.606-.08s-.771-.17-1.339-.35a10.65 10.65 0 0 1-1.436-.56c-.843-.42-1.687-1.06-2.531-1.91-.714-.7-1.071-1.14-1.071-1.33 0-.17.179-.29.536-.34s1.59-.09 3.699-.11c4.901-.04 9.087-.69 12.559-1.94 4.154-1.48 6.231-3.74 6.231-6.78 0-1.67-.779-3.13-2.337-4.37s-3.504-2.17-5.841-2.79c-1.947-.5-3.943-.76-5.987-.76a27.79 27.79 0 0 0-1.315.03c-4.381.3-8.015 1.39-10.904 3.26-2.888 1.88-4.835 4.18-5.841 6.89-.422 1.17-.633 2.35-.633 3.53 0 1.57.374 3.17 1.12 4.81 1.395 2.65 3.764 4.84 7.107 6.58 1.038.49 2.28.93 3.724 1.31a26.25 26.25 0 0 0 4.308.76 20.27 20.27 0 0 0 1.557.07zm-6.084-16.13c-.844 0-1.282-.07-1.315-.2.065-.76.796-1.71 2.191-2.86 1.395-1.14 3.229-1.94 5.501-2.38.486-.09.989-.13 1.509-.13 1.882 0 3.261.35 4.137 1.05.292.23.438.51.438.82 0 .34-.162.73-.486 1.15-1.006 1.19-3.749 1.97-8.227 2.35-1.493.13-2.742.2-3.748.2zm35.437 27.45c.422 0 1.071-.05 1.948-.16 2.271-.27 4.332-.75 6.182-1.43.973-.36 2.052-.92 3.237-1.67s2.052-1.43 2.604-2.02c1.59-1.82 2.645-4.06 3.164-6.71.13-.75.243-2.22.341-4.43l.195-9.89-.049-4.58-.146-4.04c-.065-.49-.195-.85-.39-1.08-.908-1.08-2.206-1.64-3.894-1.66-1.59.02-2.799.36-3.626 1.02s-1.29 1.44-1.388 2.35l-.048.42-.852 6.09c-.373 2.15-.933 4.01-1.68 5.58-.486.9-1.168 1.7-2.044 2.42-.779.64-1.525.96-2.239.96-.13 0-.422-.03-.876-.1-.455-.06-.844-.89-1.169-2.48-.162-1.38-.243-2.92-.243-4.61 0-1.87.081-3.4.243-4.58.162-1.19.455-2.55.876-4.08.195-.65.293-1.21.293-1.65 0-.23-.049-.53-.147-.88s-.503-.72-1.216-1.13c-.909-.5-1.866-.76-2.872-.76-.228 0-.739.05-1.534.14-.795.1-1.549.57-2.263 1.42-.455.62-.909 1.85-1.363 3.69-.747 3.05-1.12 5.66-1.12 7.83 0 1.82.227 3.63.682 5.44 1.298 4.54 3.942 7.24 7.934 8.11.649.11 1.379.16 2.191.16 1.103 0 2.077-.12 2.92-.35 1.331-.38 2.596-1.06 3.797-2.04l.195-.16c.389-.34.649-.51.779-.51.097 0 .146.1.146.29 0 .28-.049.73-.146 1.37l-.098.41c-.422 4.12-2.596 6.51-6.523 7.19-.649.11-1.087.16-1.314.16-.162 0-.324-.02-.487-.06-.681-.13-1.298-.19-1.849-.19-1.655 0-2.905.52-3.749 1.56-.324.4-.486.8-.486 1.21 0 .44.194.9.584 1.36.779 1.02 2.077 1.66 3.894 1.91.617.11 1.152.16 1.606.16zm-317.949 50.137c1.557 0 2.758-.52 3.602-1.56.227-.3.34-.67.34-1.11 0-.53-.162-1.18-.486-1.95-.455-1.56-.682-3.28-.682-5.15l.098-2.13c.032-.34.162-.55.389-.64.227-.08.552-.12.974-.12.032-.02.081-.04.146-.04 1.979-.12 4.356-.64 7.131-1.55 2.775-.92 5.249-1.99 7.423-3.22 4.965-3.05 7.448-6.88 7.448-11.48l-.049-1.02c-.421-3.2-2.304-5.89-5.646-8.05-2.856-2.14-6.767-3.53-11.732-4.17-1.103-.15-2.385-.22-3.845-.22s-2.694.07-3.7.22c-3.342.53-5.419 1.08-6.231 1.66-1.363.61-2.58 1.3-3.65 2.07-1.753 1.27-2.629 2.4-2.629 3.4 0 .25.081.62.243 1.1.163.47.649.94 1.461 1.38.519.62 1.298.92 2.336.92.812 0 1.647-.16 2.507-.47.86-.32 1.501-.8 1.923-1.44 1.038-1.8 3.683-2.79 7.934-2.95h.633c3.732 0 6.702.86 8.908 2.57 1.006.79 1.737 1.65 2.191 2.58.26.66.389 1.35.389 2.07 0 2.06-.827 3.95-2.482 5.69-.974.91-2.386 1.81-4.235 2.69a30.27 30.27 0 0 1-5.744 2.05c-.552.13-.941.19-1.169.19-.259 0-.389-.08-.389-.25 0-.19.178-1.32.535-3.37.422-2.36.714-3.83.877-4.41s.243-1.22.243-1.92c-.26-1.24-1.136-2.1-2.629-2.61-.649-.21-1.281-.32-1.898-.32-.876 0-1.736.19-2.58.57-.227.13-.47.33-.73.59a5.21 5.21 0 0 0-.633.76c-.162.25-.243.45-.243.62v.07l-.487 2.16c-1.006 4.16-1.623 7.83-1.85 11.01l-.146 1.91a33.93 33.93 0 0 0-.243 4.1 79.12 79.12 0 0 0 .097 3.22c.065 1.44.714 3.04 1.947 4.8 1.006 1.16 2.45 1.75 4.333 1.75zm34.707 2.48a5.42 5.42 0 0 0 2.896-.83c.893-.55 1.339-1.27 1.339-2.16 0-.62-.146-1.47-.438-2.58a12.75 12.75 0 0 1-.146-1.87v-.42l-.049-1.24a8.43 8.43 0 0 1-.194-1.81c0-1.17.292-2.59.876-4.27.584-1.67 1.72-3.21 3.407-4.61 1.396-1.14 3.099-1.72 5.111-1.72.585 0 1.193.06 1.826.16.633.11 1.306.16 2.02.16.584 0 1.152-.15 1.704-.44 1.038-.6 1.557-1.35 1.557-2.26 0-1.53-.762-2.58-2.287-3.15-1.331-.58-2.889-.86-4.674-.86l-2.409.11c-1.282.07-2.783.62-4.503 1.64l-1.071.6c-.032 0-.065-.05-.097-.14-.033-.1-.081-.22-.146-.37-.487-1.67-1.964-2.51-4.43-2.51-1.428 0-2.564.43-3.407 1.27-.357.3-.641.7-.852 1.21s-.414 1.31-.609 2.39c-.746 3.16-1.119 6.39-1.119 9.7 0 2.06.146 4.14.438 6.24l.097.54c.357 2.9.665 4.65.925 5.25.454.74 1.168 1.28 2.142 1.62.714.23 1.412.35 2.093.35zm37.929-.79c3.472 0 6.45-.68 8.932-2.03 2.483-1.34 4.454-3.06 5.915-5.13 1.947-2.85 2.921-5.73 2.921-8.66 0-1.27-.211-2.43-.633-3.47-.876-2.03-2.223-3.74-4.041-5.12-2.985-2.18-6.604-3.27-10.855-3.27a21.21 21.21 0 0 0-9.638 2.29c-.746.36-1.347.7-1.801 1.02-2.921 2.05-4.787 4.64-5.598 7.76-.292 1.14-.438 2.28-.438 3.4 0 1.38.3 3.04.9 4.98s2.093 3.77 4.479 5.47c2.385 1.71 5.622 2.63 9.711 2.76h.146zm.682-5.06l-.828-.04c-2.564-.38-4.316-1.49-5.257-3.34a8.89 8.89 0 0 1-.974-4.1c0-.68.138-1.76.414-3.25.276-1.48 1.209-3.03 2.799-4.64 1.493-1.51 3.391-2.26 5.695-2.26h.438c2.207.28 3.749 1.35 4.625 3.21.681 1.38 1.022 2.89 1.022 4.52 0 .57-.105 1.59-.316 3.06-.211 1.46-1.047 3.01-2.507 4.64-1.298 1.46-3.002 2.2-5.111 2.2zm27.211 5.24a5.58 5.58 0 0 0 3.018-.88l.925-.61 2.385.38c.649.09 1.282.13 1.898.13 2.11 0 4.276-.39 6.499-1.18 2.223-.78 4.032-1.84 5.427-3.18 2.661-2.82 3.992-6.11 3.992-9.86a13.16 13.16 0 0 0-1.947-6.94c-1.461-1.84-3.343-3.23-5.647-4.16-1.752-.71-3.521-1.05-5.306-1.05a17.13 17.13 0 0 0-1.752.09c-1.655.23-3.099.64-4.333 1.21-.292.13-.503.19-.632.19-.065 0-.146-.03-.244-.08s-.146-.26-.146-.62c.033-.49.276-2.13.73-4.93.292-1.99.763-4.09 1.412-6.3.325-1.04.487-1.78.487-2.23 0-.4-.146-.79-.438-1.17-.909-.94-2.142-1.4-3.7-1.4a71.89 71.89 0 0 0-1.484.04c-.893.04-1.777.59-2.653 1.67-.195.32-.487 1.12-.877 2.41-.389 1.28-.762 2.67-1.119 4.18-.422 1.72-.925 5.1-1.509 10.15-.26 2.1-.43 3.75-.511 4.95-.082 1.19-.122 2.66-.122 4.4 0 1.78.04 3.2.122 4.26s.235 2.44.462 4.14c.389 2.76.682 4.28.876 4.55.455.72 1.169 1.23 2.142 1.53.714.21 1.396.31 2.045.31zm8.518-6.71c-.422 0-.884-.07-1.387-.2-.503-.14-.836-.31-.998-.51s-.308-.71-.438-1.51c-.227-1.15-.341-2.42-.341-3.82a9.42 9.42 0 0 1 .049-1.02c.681-3.54 1.931-5.87 3.748-7 .811-.51 1.59-.76 2.337-.76.876 0 1.671.37 2.385 1.11.876 1.59 1.314 3.2 1.314 4.84 0 .63-.154 1.67-.462 3.11-.309 1.45-1.193 2.86-2.653 4.24-1.071 1.01-2.256 1.52-3.554 1.52zm26.627 5.76c1.298 0 2.385-.34 3.262-1.02.551-.42.876-.88.973-1.36a2.44 2.44 0 0 0 .098-.7c0-.39-.065-.82-.195-1.31-.909-4.01-1.363-8.36-1.363-13.04 0-4.9.405-10.6 1.217-17.09.065-.57.097-1.01.097-1.3-.065-.98-.519-1.77-1.363-2.39-.584-.42-1.314-.71-2.19-.86l-.487-.03a5.56 5.56 0 0 0-1.314.16c-.649.13-1.193.33-1.631.62s-.771.6-.998.92c-.227.33-.438.91-.633 1.74-1.071 4.96-1.606 10.61-1.606 16.95v.58c.097 6.57.681 11.68 1.752 15.33.26.76.649 1.34 1.168 1.72s1.136.68 1.85.89a4.93 4.93 0 0 0 1.363.19zm26.578.54c2.954 0 6.037-.68 9.249-2.03 3.83-1.72 5.744-3.4 5.744-5.03l-.048-.45c-.552-1.33-1.72-2.12-3.505-2.35a7.58 7.58 0 0 0-.925-.06c-1.396 0-2.596.45-3.602 1.36-.39.41-.941.81-1.655 1.21a11.79 11.79 0 0 1-2.288.99c-.584.19-1.055.31-1.412.37-.357.05-.876.07-1.558.07-.746 0-1.281-.02-1.606-.07-.324-.06-.771-.17-1.339-.36a9.53 9.53 0 0 1-1.436-.55c-.843-.43-1.687-1.06-2.531-1.91-.714-.7-1.071-1.15-1.071-1.34 0-.17.179-.28.536-.33s1.59-.09 3.699-.11c4.9-.04 9.087-.69 12.559-1.94 4.154-1.49 6.231-3.75 6.231-6.78 0-1.67-.779-3.13-2.337-4.37s-3.504-2.17-5.841-2.79c-1.947-.51-3.943-.76-5.987-.76a27.79 27.79 0 0 0-1.315.03c-4.381.3-8.015 1.38-10.904 3.26s-4.835 4.18-5.841 6.89c-.422 1.17-.633 2.34-.633 3.53 0 1.57.373 3.17 1.12 4.81 1.395 2.65 3.764 4.84 7.107 6.58 1.038.49 2.28.92 3.724 1.3 1.444.39 2.88.64 4.308.77.519.04 1.038.06 1.557.06zm-6.084-16.13c-.844 0-1.282-.06-1.315-.19.065-.76.795-1.72 2.191-2.86 1.395-1.15 3.229-1.94 5.501-2.39a9.27 9.27 0 0 1 1.509-.13c1.882 0 3.261.35 4.137 1.05.292.24.438.51.438.83 0 .34-.162.72-.487 1.15-1.006 1.19-3.748 1.97-8.226 2.35-1.493.13-2.742.19-3.748.19zm61.918 15.69c1.363 0 2.499-.33 3.408-.99.486-.32.803-.64.949-.97s.219-.81.219-1.45l.049-2.8.486-6.01c.13-1.1.195-2.73.195-4.87l-.049-1.49c-.032-1.76-.616-3.39-1.752-4.89-1.136-1.49-3.067-2.47-5.793-2.94-.584-.08-1.2-.13-1.849-.13-1.006 0-2.207.14-3.603.42-1.395.27-2.726.78-3.991 1.52-.455.26-.73.39-.828.39h-.048c-.065 0-.114-.04-.146-.1-.52-.55-1.266-1.07-2.24-1.56-1.525-.76-3.131-1.14-4.819-1.14-2.206 0-4.413.65-6.62 1.97l-1.12.6c-.032-.02-.089-.09-.17-.2a6.39 6.39 0 0 0-.316-.42c-.13-.16-.301-.32-.511-.47l-.56-.4a6.68 6.68 0 0 0-1.607-.42c-.389-.06-.762-.09-1.119-.09l-.487.03c-1.655.3-2.823.97-3.505 2-.324.81-.487 2.61-.487 5.41 0 3.74.13 7.25.39 10.53.259 3.29.568 5.42.925 6.4.454.89 1.298 1.49 2.531 1.81.487.13.99.19 1.509.19.746 0 1.509-.13 2.288-.41.908-.34 1.549-.78 1.923-1.32s.608-1.38.705-2.53l.146-2.16c.293-5.12.633-8.66 1.023-10.63.162-.76.511-1.5 1.046-2.19.536-.7 1.112-1.16 1.728-1.37.13-.04.26-.07.39-.07 1.298 0 1.947 1.74 1.947 5.22l-.097 6.68c-.065 1.13-.098 2.08-.098 2.87 0 1.14.065 1.89.195 2.25.065.13.17.29.316.48s.317.36.511.51c.877.7 1.931 1.05 3.165 1.05.259 0 .868-.06 1.825-.18.957-.11 1.809-.7 2.556-1.76.227-.32.389-1.1.486-2.35.098-1.26.309-3.08.633-5.48.325-2.39.698-4.33 1.12-5.82.357-1.04.973-1.8 1.85-2.29.584-.32 1.152-.48 1.703-.48.26 0 .666.09 1.217.27s.909.89 1.071 2.12c0 1.4-.081 2.51-.243 3.34-.13.62-.227 1.3-.292 2.07-.26 2.73-.39 5.06-.39 6.97 0 1.97.211 3.23.633 3.78s1.087.97 1.996 1.24c.519.17 1.055.26 1.606.26zm22.441.57c1.363 0 2.71-.1 4.04-.29 7.205-1.08 10.855-3.65 10.953-7.7-.033-2.29-1.233-4.21-3.602-5.76-.812-.55-1.793-1.02-2.945-1.43-1.153-.4-2.686-.8-4.601-1.2-2.077-.45-3.521-.83-4.332-1.15-1.298-.49-1.947-1.2-1.947-2.13 0-.4.17-.91.511-1.53.341-.61.982-1.12 1.923-1.53.681-.25 1.184-.38 1.509-.38.292 0 .503.07.633.19.13.13.324.25.584.35.876.41 1.801.61 2.774.61a5.3 5.3 0 0 0 2.872-.83c.812-.59 1.217-1.26 1.217-2 0-.22-.097-.63-.292-1.26s-1.038-1.27-2.531-1.93c-1.525-.59-3.164-.89-4.916-.89-1.688 0-3.457.28-5.306.83-4.349 1.4-6.945 3.8-7.789 7.19-.065.4-.097.81-.097 1.21 0 2.06 1.071 3.89 3.213 5.5.941.68 2.036 1.25 3.285 1.71 1.25.45 3.075.94 5.477 1.47 1.785.41 3.042.74 3.772 1.01.73.26 1.177.57 1.339.9.162.34.243.65.243.93 0 .7-.487 1.24-1.46 1.62-1.136.47-2.434.7-3.894.7-.325 0-1.039-.04-2.142-.11-1.104-.08-2.093-.59-2.97-1.55-.324-.4-.624-.69-.9-.87s-.69-.36-1.241-.54-1.039-.27-1.461-.27c-1.428 0-2.547.29-3.359.86-.941.66-1.411 1.39-1.411 2.19 0 .53.195 1.08.584 1.66 2.304 2.94 6.393 4.42 12.267 4.42z"/></g><path d="M406.132 141.059s-30.542 19.446-109 21.454" class="B C F"/></g><use xlink:href="#C" stroke-width="1.84" class="B C"/></g><defs ><path id="C" d="M400 75.792c0-4.779-4.521-8.659-10.09-8.659H125.976c-5.569 0-10.09 3.88-10.09 8.659v73.044c0 4.779 4.521 8.659 10.09 8.659H389.91c5.569 0 10.09-3.88 10.09-8.659V75.792z"/></defs></svg>