<svg xmlns="http://www.w3.org/2000/svg" xmlns:xlink="http://www.w3.org/1999/xlink" width="100%" height="100%" viewBox="0 0 285 107" fill-rule="evenodd" stroke-linecap="round" stroke-linejoin="round" stroke-miterlimit="1.5" xmlns:v="https://vecta.io/nano"><style><![CDATA[.B{stroke-opacity:.17}.C{fill-rule:nonzero}.D{stroke-width:1.864}]]></style><g transform="matrix(.999996 0 0 1.16526 -115.28244 -77.38267)"><use xlink:href="#D" fill="#2642b8"/><clipPath id="A"><use xlink:href="#D"/></clipPath><g clip-path="url(#A)"><g transform="matrix(.079912 0 0 .068579 257.943 112.314)"><g transform="translate(-884 -429.5)"><clipPath id="B"><path d="M0 0h1768v859H0z"/></clipPath><g clip-path="url(#B)" class="C"><g fill="#ff9979"><path d="M98.018 596.709c0 11.728.978 28.065 2.933 49.009s5.864 41.609 11.728 61.994 14.242 37.979 25.133 52.78 24.994 22.2 42.307 22.2c17.873 0 33.511-4.887 46.915-14.661s24.435-20.525 33.092-32.254 15.219-22.48 19.687-32.253l6.703-14.661c1.675-5.027 4.747-9.076 9.215-12.148s9.215-4.608 14.242-4.608c6.702 0 12.566 2.374 17.593 7.121s7.54 10.752 7.54 18.012c0 3.91-1.396 9.355-4.189 16.337s-6.144 13.962-10.053 20.944-7.959 13.544-12.148 19.687-7.4 10.612-9.634 13.405c-16.197 21.223-34.209 37.42-54.036 48.59s-41.469 16.755-64.927 16.755c-32.393 0-60.039-7.679-82.938-23.038s-41.47-35.047-55.712-59.063-24.714-50.545-31.416-79.587S0 613.743 0 585.818c0-29.043 3.491-59.342 10.472-90.898s18.152-60.598 33.511-87.127 35.186-48.451 59.481-65.765 53.757-25.971 88.384-25.971c6.144 0 14.103 1.117 23.876 3.351s19.548 5.585 29.322 10.054 18.152 9.773 25.133 15.917 10.472 13.125 10.472 20.944c0 6.702-2.513 12.567-7.54 17.593s-10.891 7.54-17.593 7.54c-5.585 0-10.611-1.675-15.08-5.026-18.43-14.522-35.186-21.224-50.265-20.107-12.288 0-23.039 4.608-32.254 13.823s-17.175 21.084-23.877 35.605-12.426 30.579-17.174 48.172-8.517 34.767-11.31 51.522-4.747 32.394-5.864 46.915-1.676 25.971-1.676 34.349zm498.47-29.322l-1.256-35.186-.419-34.349.419-40.212c.279-15.639 1.117-31.696 2.513-48.172s3.351-32.114 5.864-46.915 6.284-26.389 11.31-34.767c4.468-8.936 9.774-14.521 15.918-16.755s11.17-3.351 15.08-3.351c7.819 0 14.8 3.071 20.944 9.215 2.792 2.793 5.585 7.121 8.377 12.985s5.306 15.639 7.54 29.322 4.189 32.813 5.865 57.387 2.792 56.968 3.351 97.181c.558 14.521.837 29.461.837 44.82v45.658l-.418 89.641-1.257 73.724v45.239c0 8.377-1.955 15.498-5.864 21.363s-10.612 8.796-20.107 8.796c-3.909 0-8.657-1.117-14.242-3.351s-10.891-7.26-15.917-15.079c-5.585-9.495-10.472-23.179-14.661-41.051s-7.819-37.001-10.891-57.387-5.306-40.352-6.702-59.9l-3.77-47.753a1023.97 1023.97 0 0 1-70.791 14.242l-71.629 12.567-2.514 74.561c-1.117 24.574-3.071 45.239-5.864 61.995-.558 5.026-1.536 10.611-2.932 16.755s-3.491 11.729-6.283 16.755-6.284 9.216-10.472 12.567-9.635 5.026-16.337 5.026c-3.351 0-7.679-.838-12.985-2.513s-10.472-6.144-15.499-13.404c-6.143-10.054-11.03-25.692-14.661-46.915s-6.283-43.843-7.958-67.859-2.793-47.194-3.351-69.535l-.838-50.266.419-54.035c.279-20.944 1.256-42.447 2.932-64.508s3.909-43.424 6.702-64.089 6.702-38.258 11.729-52.779c2.792-9.495 7.4-18.431 13.823-26.809s15.219-12.566 26.389-12.566c10.612 0 17.733 4.049 21.363 12.147s6.004 16.616 7.121 25.552c1.117 5.027 1.816 11.031 2.095 18.012s.977 15.219 2.094 24.714a2500.26 2500.26 0 0 1 4.608 102.626l1.257 103.464 69.534-12.147c22.899-4.189 46.077-9.076 69.534-14.661zm410.502 267.247c-.56 6.702-3.21 12.287-7.959 16.755s-10.472 6.702-17.174 6.702c-10.053 0-18.431-3.351-25.133-10.053s-12.147-14.801-16.336-24.295-7.261-19.548-9.216-30.16l-4.607-26.808c-2.234-17.873-3.77-37.281-4.608-58.225l-2.094-66.602-35.186 5.445-38.957 5.865c-13.124 1.954-25.831 3.63-38.118 5.026l-32.673 3.77c-3.351 33.511-5.026 65.067-5.026 94.668 0 17.313.838 33.231 2.513 47.752 0 7.819-2.234 14.382-6.702 19.688s-10.612 7.958-18.431 7.958c-6.143 0-11.589-2.094-16.336-6.283s-7.68-9.634-8.797-16.336c-1.675-15.08-2.513-32.673-2.513-52.779 0-15.08.977-36.443 2.932-64.089s5.166-57.806 9.634-90.479 10.612-66.044 18.431-100.113 17.873-65.066 30.16-92.992 26.669-50.685 43.145-68.278 35.884-26.389 58.224-26.389c21.782 0 40.073 7.26 54.874 21.782s26.948 33.231 36.443 56.13 16.895 48.451 22.2 76.655 9.22 56.27 11.73 84.196 3.91 53.756 4.19 77.493l.42 57.387c0 20.106-.28 38.956-.84 56.549l-1.68 45.658-1.67 31.416-.84 12.986zM780.794 610.951l31.416-3.77 35.605-4.608a763.09 763.09 0 0 0 36.443-5.864l33.929-5.865-2.932-84.614c-1.396-27.367-3.77-52.221-7.121-74.561-.559-2.234-1.536-6.982-2.932-14.242s-3.212-14.801-5.446-22.62-4.887-14.8-7.958-20.944-6.284-9.215-9.635-9.215c-9.494 0-18.431 5.026-26.808 15.079s-16.197 23.039-23.458 38.956-13.823 33.511-19.687 52.78-10.891 38.118-15.08 56.549-7.679 35.046-10.472 49.847l-5.864 33.092zm255.526-30.998c0-30.159 3.91-60.877 11.73-92.154s19.97-59.76 36.44-85.452c16.48-25.691 37.28-46.635 62.41-62.832 25.14-16.197 55.3-24.295 90.48-24.295 32.4 0 59.9 7.679 82.52 23.038s40.91 34.767 54.88 58.225c13.96 23.457 24.01 49.428 30.16 77.912 6.14 28.484 9.21 56.409 9.21 83.776s-3.35 57.108-10.05 89.222-17.46 61.855-32.25 89.222c-14.81 27.367-34.07 50.266-57.81 68.697s-52.36 27.646-85.87 27.646-62.41-7.819-86.71-23.457-44.12-35.605-59.48-59.9-26.81-51.383-34.35-81.264-11.31-59.341-11.31-88.384zm201.9-214.468c-21.78 0-39.51 8.378-53.2 25.133-13.68 16.756-24.57 36.722-32.67 59.901s-13.68 46.914-16.75 71.21c-3.08 24.295-4.61 44.261-4.61 59.9 0 13.962 1.39 32.254 4.19 54.873 2.79 22.62 7.68 44.681 14.66 66.184s16.89 40.212 29.74 56.13c12.84 15.918 29.32 23.876 49.43 23.876 25.13 0 46.35-8.098 63.67-24.295 17.31-16.197 31.13-35.884 41.46-59.062 10.34-23.178 17.88-47.613 22.63-73.305 4.74-25.691 7.12-48.311 7.12-67.859s-1.96-40.492-5.87-62.832-10.75-43.145-20.52-62.414c-9.78-19.268-22.62-35.325-38.54-48.171s-36.16-19.269-60.74-19.269zm469.14 15.918c-5.03 0-9.77-1.396-14.24-4.189-12.29-7.819-27.93-11.729-46.92-11.729-18.43 0-33.79 4.469-46.07 13.405-12.29 8.936-18.43 25.133-18.43 48.59 0 26.25 7.68 47.473 23.03 63.67 15.36 16.197 33.38 30.997 54.04 44.402l38.54 26.808c12.84 8.936 24.57 19.269 35.18 30.997 10.62 11.729 19.13 24.994 25.56 39.794 6.42 14.801 9.63 32.533 9.63 53.198 0 25.692-5.17 47.753-15.5 66.184s-23.6 33.65-39.79 45.658c-16.2 12.008-34.35 20.804-54.46 26.39-20.1 5.585-40.21 8.377-60.32 8.377-29.6 0-58.5-5.445-86.71-16.336-28.2-10.891-51.52-25.831-69.95-44.821-5.03-5.026-7.54-10.891-7.54-17.593 0-7.26 2.51-13.264 7.54-18.012s10.89-7.121 17.59-7.121c6.71 0 12.57 2.514 17.6 7.54 14.52 13.963 32.67 25.133 54.45 33.511s43.84 12.566 66.19 12.566c27.92 0 47.33-6.981 58.22-20.944s16.34-32.114 16.34-54.455c0-15.079-1.96-28.763-5.87-41.05s-9.07-23.178-15.5-32.673c-6.42-9.495-13.82-18.151-22.2-25.971a253.11 253.11 0 0 0-26.81-21.781 929.96 929.96 0 0 0-40.63-27.228c-13.68-8.657-26.11-18.151-37.28-28.484s-20.24-22.061-27.22-35.186c-6.99-13.125-10.48-28.903-10.48-47.334 0-22.899 5.31-42.586 15.92-59.062s23.88-30.16 39.79-41.051c15.92-10.89 32.96-18.989 51.11-24.295s34.76-7.958 49.85-7.958c7.26 0 16.05.698 26.38 2.094 10.34 1.396 20.25 3.63 29.74 6.702 9.5 3.072 17.6 7.261 24.3 12.567s10.05 11.868 10.05 19.687c0 6.702-2.51 12.566-7.54 17.593-5.02 5.027-10.89 7.54-17.59 7.54z"/></g><g fill="#fff"><path d="M309.221.657l66.753 244.402-71.164-.348-14.225-52.997-73.489-.359-15.815 52.85-27.715-.136L246.997.353l62.224.304zm-85.032 166.235l59.9.293L255.83 58.867l-31.641 108.025zm398.836-164.7l-1.193 244.069-68.304-.334.83-169.865-48.392 169.633-39.516-.194-47.998-167.242-.816 167.004-23.781-.116 1.193-244.07 71.88.352 41.12 147.54L550.43 1.837l72.595.355zm40.826 244.275l1.193-244.07 108.535.531c55.907.273 83.762 20.377 83.567 60.31-.139 28.37-17.095 46.466-50.869 54.288 40.609 8.305 60.828 29.98 60.657 65.026-.212 43.271-27.675 64.772-82.39 64.505l-120.693-.59zm70.906-19.859l20.205.099c26.463.129 39.768-14.945 39.916-45.223.17-34.688-13.394-52.099-40.692-52.232l-18.953-.093-.476 97.449zm.575-117.654l21.814.107c20.146.098 30.291-14.753 30.437-44.554.134-27.536-10.467-41.356-31.804-41.461l-20.027-.097-.42 86.005zM966.153 3.87l-1.194 244.069-70.807-.346 1.194-244.07 70.807.347zm200.437.98l-.12 24.496-87.43-.427-.37 73.846 73.49.36-.12 24.496-73.49-.359-.47 96.733 102.28.5-.12 24.497-173.09-.847 1.2-244.069 158.24.774zm215.46 1.053l-1.19 244.07-54.18-.265-101.16-154.986-.76 154.487-23.78-.116 1.19-244.069 44.88.219 110.4 167.369.82-166.825 23.78.116zm212.07 1.037l-.12 24.497-59.9-.293-1.07 219.573-75.1-.368L1459 30.776l-60.25-.294.12-24.497 195.25.955z"/></g><g fill="#fd9a7b"><path d="M1220.18 629.058l41.3-.598c.09 5.798-9.06 13.004-20.46 13.17-11.41.164-20.76-6.774-20.84-12.572zm73.66-18.506v-.019c-7.08-6.352-11.59-15.522-11.74-25.779l-.38-26.637c-.26-17.699-11.45-32.676-27.05-38.592l-.14-9.361c-.12-8.499-7.14-15.314-15.64-15.191s-15.31 7.138-15.19 15.637l.14 9.362c-15.43 6.365-26.18 21.659-25.93 39.358l.39 26.638c.15 10.257-4.09 19.553-10.98 26.107v.02c-1.45 1.201-2.37 3.022-2.34 5.05a6.54 6.54 0 0 0 .77 2.958c1.11 2.043 3.28 3.42 5.76 3.384l98.47-1.426c2.48-.036 4.61-1.476 5.65-3.549a6.24 6.24 0 0 0 .69-2.979c-.03-2.029-1-3.822-2.48-4.981zm-54.64-94.329c-3.84.056-7-3.015-7.06-6.858-.05-3.843 3.02-7.004 6.86-7.059s7 3.014 7.06 6.858a6.97 6.97 0 0 1-6.86 7.059z"/></g></g></g></g><g fill="none" stroke="#fff" class="B"><g class="D"><path d="M151.18 78.006v27.462m237-27.462V99.46"/></g><path d="M358.18 132.5v17.164" stroke-width="1.902"/><g class="D"><path d="M344.18 147.518v17.164m40-23.171v23.171"/></g><g stroke-width="1.82"><path d="M353.18 79.294v19.738m17.249 2.498v19.738"/></g><path d="M165.18 117.483v24.029" stroke-width="1.832"/><g class="D"><path d="M133.18 103.322v25.316m14 .858v19.738m221-84.959v19.738m-200-19.738V80.58m-42-16.305v24.458m53 62.647v9.869m210-47.2v15.447m-263 12.015v19.738"/></g></g></g></g><defs ><path id="D" d="M400 75.792c0-4.779-4.521-8.659-10.09-8.659H125.976c-5.569 0-10.09 3.88-10.09 8.659v73.044c0 4.779 4.521 8.659 10.09 8.659H389.91c5.569 0 10.09-3.88 10.09-8.659V75.792z"/></defs></svg>