<svg xmlns="http://www.w3.org/2000/svg" xmlns:xlink="http://www.w3.org/1999/xlink" width="100%" height="100%" viewBox="0 0 287 108" fill-rule="evenodd" stroke-linecap="round" stroke-linejoin="round" stroke-miterlimit="1.5" xmlns:v="https://vecta.io/nano"><g transform="matrix(.999996 0 0 1.165257 -114.885266 -77.232275)"><use xlink:href="#C" fill="#fff"/><clipPath id="A"><use xlink:href="#C"/></clipPath><g clip-path="url(#A)"><g fill-rule="nonzero"><path d="M242.223 101.786l-2.752 5.894h-1.362l8.04-17.113h.748l8.067 17.113h-1.443l-2.751-5.894h-8.548zm4.22-9.32c-.018.015-.053.114-.106.289l-.721 1.732-2.938 6.327h7.64l-2.938-6.304-.936-2.043zm15.655.456c-.962 0-1.745.205-2.351.615a1.97 1.97 0 0 0-.908 1.732c0 .858.4 1.625 1.202 2.309.57.494 1.305 1.01 2.204 1.557l1.856 1.177c.339.235.748.562 1.229.972.873.782 1.309 1.671 1.309 2.689 0 1.314-.495 2.309-1.483 2.985-.988.668-2.368 1.01-4.14 1.01s-3.254-.418-4.447-1.238l.641-.836c1.212.729 2.493 1.094 3.847 1.094s2.408-.251 3.165-.76a2.42 2.42 0 0 0 1.136-2.134c0-.798-.383-1.527-1.149-2.187-.535-.479-1.251-.995-2.151-1.549l-1.883-1.2a14.01 14.01 0 0 1-1.256-.987c-.908-.805-1.362-1.739-1.362-2.803a2.88 2.88 0 0 1 1.268-2.491c.846-.608 2.017-.904 3.513-.904s2.841.258 4.034.782l-.454.881c-1.105-.479-2.377-.714-3.82-.714zm12.554.304h-5.877v-.972h12.956v.972h-5.877v14.454h-1.202V93.226zm10.712 14.454V92.253h8.094v.949h-6.865v5.613h6.197v.927h-6.197v6.942h7.133v.995h-8.361zm13.276 0V92.33l3.9-.167c1.638 0 2.992.372 4.06 1.124s1.603 1.831 1.603 3.22c0 .934-.303 1.8-.908 2.59-.605.798-1.291 1.436-2.057 1.929l3.927 4.489c1.015.934 2.119 1.466 3.312 1.595l-.027.737c-.997-.015-1.807-.144-2.43-.395-.624-.243-1.243-.661-1.857-1.246s-1.963-2.165-4.047-4.732a77.75 77.75 0 0 1-4.247-.114v6.319h-1.229zm4.809-7.109c.695 0 1.443-.41 2.244-1.23.802-.828 1.202-1.785 1.202-2.879s-.419-1.929-1.255-2.499-1.923-.851-3.259-.851l-2.511.091v7.254l3.579.114zm18.435 7.344c-2.476 0-4.55-.767-6.225-2.301-1.674-1.542-2.511-3.418-2.511-5.643 0-2.233.837-4.109 2.511-5.651 1.675-1.534 3.749-2.301 6.225-2.301s4.55.767 6.224 2.301c1.674 1.542 2.511 3.418 2.511 5.651 0 2.225-.837 4.102-2.511 5.643-1.674 1.534-3.748 2.301-6.224 2.301zm0-14.925c-2.137 0-3.914.676-5.33 2.02a6.57 6.57 0 0 0-2.123 4.96c0 1.952.708 3.6 2.123 4.937 1.416 1.344 3.197 2.013 5.343 2.013s3.922-.668 5.329-2.013a6.54 6.54 0 0 0 2.11-4.937 6.59 6.59 0 0 0-2.11-4.96c-1.407-1.344-3.188-2.02-5.342-2.02zm14.077-.737h1.228v15.426h-1.228zm13.196 14.622c2.28 0 4.109-.547 5.489-1.641s2.071-2.742 2.071-4.945-.78-3.957-2.337-5.256-3.477-1.944-5.756-1.944l-3.74.091v13.528c1.068.106 2.493.167 4.274.167zm-.534-14.766c2.671 0 4.902.737 6.691 2.203s2.684 3.456 2.684 5.978-.823 4.413-2.471 5.681-3.77 1.899-6.371 1.899c-1.798 0-3.651-.076-5.556-.235V92.253l5.023-.144zm-116.064 41.714v-16.991h1.282v15.95h8.789v1.041h-10.071zm14.719-5.347l-2.484 5.347h-1.255l7.266-15.518h.721l7.32 15.518h-1.362l-2.511-5.347h-7.694zm3.82-8.416l-.721 1.785-2.671 5.704h6.839l-2.645-5.681-.802-1.808zm23.337 12.176c-1.175 1.215-2.965 1.831-5.37 1.831s-4.193-.615-5.369-1.831c-1.175-1.223-1.763-2.909-1.763-5.066v-8.773h1.228v8.773c0 3.942 1.968 5.917 5.903 5.917s5.903-1.975 5.903-5.917v-8.773h1.229v8.773c0 2.157-.588 3.843-1.763 5.066zm8.014 1.587v-15.518h.588l11.38 11.644 1.135 1.223.548.63c-.035-.38-.053-1.124-.053-2.233v-11.173h1.228v15.525h-.588l-11.594-11.841-1.469-1.587c.036.311.054 1.056.054 2.233v11.097h-1.229zm34.726-.759c-1.336.668-3.192 1.003-5.569 1.003a9.47 9.47 0 0 1-6.278-2.286c-1.807-1.519-2.712-3.41-2.712-5.666s.789-4.147 2.365-5.674c1.575-1.519 3.61-2.279 6.103-2.279a21.2 21.2 0 0 1 5.903.828l-.32.904c-1.852-.501-3.767-.76-5.743-.76s-3.638.668-4.982 2.013c-1.344 1.337-2.017 2.977-2.017 4.914 0 1.944.78 3.593 2.337 4.96a7.98 7.98 0 0 0 5.41 2.043c2.049 0 3.748-.251 5.102-.76l.4.76zm17.657.759v-7.793h-12.047v7.793h-1.229v-15.426h1.229v6.661h12.047v-6.661h1.229v15.426h-1.229zm7.64 0v-15.426h8.094v.957h-6.865v5.605h6.197v.927h-6.197v6.942h7.132v.995h-8.361zm13.277 0v-15.35l3.9-.167c1.638 0 2.992.372 4.061 1.124 1.068.76 1.603 1.831 1.603 3.22 0 .934-.303 1.8-.908 2.59-.606.798-1.291 1.436-2.057 1.929l3.926 4.489c1.015.942 2.12 1.466 3.313 1.595l-.027.737c-.997-.015-1.808-.144-2.431-.395-.623-.243-1.242-.661-1.857-1.246s-1.963-2.165-4.047-4.732c-1.443 0-2.859-.038-4.247-.114v6.319h-1.228zm4.808-7.102c.695 0 1.443-.418 2.245-1.238.801-.828 1.202-1.785 1.202-2.879s-.419-1.922-1.256-2.491-1.923-.858-3.259-.858l-2.511.099v7.246l3.579.122z"/></g><g transform="matrix(1.40541 0 0 1.20609 71.9377 98.1776)" fill-rule="nonzero"><path d="M78 40c0 20.598-16.782 37-37 37S4 60.598 4 40 20.402 3 41 3s37 16.402 37 37z" fill="#3db8ff"/><path d="M62.318 69.536l-.479-1.549-1.009-3.617-.013-.065-.03-.06c-.822-1.644-1.239-3.321-1.644-4.943-.124-.376-.209-.803-.299-1.255-.226-1.138-.505-2.549-1.46-3.548-.392-.713-1.036-.938-1.607-1.138l-.683-.271c-1.254-.539-2.581-.587-3.865-.635-1.951-.071-3.636-.133-4.78-1.733-.515-.773-.456-1.591-.383-2.627l.058-1.135c.396-.614.701-1.226.997-1.818l1.02-1.839.029-.043.019-.049c.308-.769.682-1.495 1.042-2.196.625-1.214 1.216-2.363 1.497-3.715.232-.51.232-1.08.232-1.631 0-.445 0-.866.125-1.176.38-.342 1.133-.72 1.861-1.087l.071-.036.107-.082c.119-.118.244-.196.366-.271.248-.153.622-.384.622-.925 0-.417-.232-.649-.357-.774l-.069-.074c.006-.23.33-.95.7-1.32l3.128-2.917 3.058-2.846a.89.89 0 0 0 .665-.685c.204-.278.254-.606.13-.905-.142-.343-.499-.594-.896-.639-.403-.194-.716-.298-1.018-.399-.31-.103-.602-.2-.992-.396l-.106-.053h-.118c-.098 0-.243 0-.341-.011v-.11l-.146-.152c-.103-.102.067-.623.421-.975l2.585-3.86c.228-.214.503-.577.795-.96.551-.726 1.176-1.548 1.892-1.788.431-.189.839-.276 1.257-.276.334 0 .685.055 1.046.164C73.326 20.077 77.5 29.623 77.5 40c0 11.664-5.421 22.355-14.873 29.332l-.309.204z" fill="#56ca5d"/><path d="M64.699 13.444c.252 0 .518.038.794.112C72.916 20.422 77 29.804 77 40c0 11.407-5.258 21.872-14.402 28.732l-.284-.899c-.371-1.161-.754-2.363-.993-3.561l-.026-.131-.06-.12c-.799-1.599-1.209-3.246-1.606-4.84l-.01-.038-.013-.038c-.103-.308-.185-.721-.272-1.157-.235-1.185-.526-2.65-1.544-3.748-.484-.835-1.237-1.098-1.849-1.312-.221-.077-.43-.15-.624-.247l-.025-.013-.026-.011c-1.314-.564-2.689-.615-4.019-.663-2.102-.077-3.438-.192-4.372-1.497-.411-.616-.389-1.222-.31-2.329.022-.311.046-.654.056-1.019.373-.594.665-1.178.948-1.745.31-.621.602-1.207.988-1.785l.058-.087.039-.097c.299-.747.666-1.462 1.022-2.153.605-1.177 1.23-2.392 1.531-3.791.254-.594.254-1.224.254-1.786 0-.325 0-.659.056-.885.362-.282 1.046-.625 1.659-.933l.047-.023.143-.072.113-.113c.078-.078.165-.131.276-.2.279-.172.859-.53.859-1.35 0-.465-.196-.78-.372-.987.091-.242.294-.623.5-.828 1.032-1.031 2.09-1.984 3.114-2.905.975-.877 1.981-1.782 2.982-2.77a1.4 1.4 0 0 0 .859-.913c.259-.402.313-.879.135-1.311-.202-.49-.671-.843-1.214-.933-.4-.187-.72-.293-1.006-.389-.304-.101-.567-.189-.925-.369l-.212-.106h-.215a1.33 1.33 0 0 1 .263-.394l.071-.071.056-.083.984-1.477 1.487-2.23c.286-.299.55-.647.829-1.013.507-.668 1.082-1.425 1.652-1.616l.045-.015.044-.019c.326-.145.656-.216 1.008-.216m0-1a3.45 3.45 0 0 0-1.416.302c-1.261.422-2.102 2.104-2.943 2.945l-2.523 3.784c-.422.421-.841 1.261-.422 1.682 0 .421.422.421.841.421.841.422 1.263.422 2.104.841.421 0 .841.422.421.841 0 0 0 .422-.421.422-2.104 2.102-4.204 3.784-6.307 5.884-.421.42-.841 1.261-.841 1.682s.42.42.42.841-.42.422-.841.841c-.841.422-1.682.841-2.102 1.263-.42.841 0 2.102-.42 2.943-.421 2.102-1.684 3.784-2.525 5.886-.841 1.259-1.259 2.523-2.1 3.784 0 1.682-.422 2.943.419 4.204 2.104 2.943 5.886 1.261 8.829 2.525.841.418 1.682.418 2.104 1.259 1.259 1.263 1.259 3.366 1.682 4.627.418 1.682.841 3.364 1.682 5.045.421 2.104 1.261 4.206 1.682 5.886.274-.213.597-.414.902-.619C72.016 63.023 78 52.273 78 40c0-10.9-4.622-20.594-11.999-27.335-.43-.141-.865-.221-1.302-.221z"/><path d="M41.23 20.235c-.571-.802-.571-2.67-.571-3.704 0-.846.222-1.541.457-2.275.313-.975.635-1.983.374-3.289.01-.332-.344-3.182-.415-3.749l-.043-.34-.332-.082c-.415-.104-.827-.16-1.191-.208-.598-.081-1.161-.156-1.339-.406-.145-.203-.104-.604-.043-.905.121-.353.47-1.026.897-1.712L41 3.5a36.84 36.84 0 0 1 12.715 2.249l.051.117c.279.846-.789 2.887-1.245 3.759l-.193.375c-.226.662-.98 2.678-2.353 3.594-.898.885-2.143 2.128-3.366 2.942-.65.435-1.301.977-1.93 1.5l-1.854 1.443c-.282.137-.555.305-.787.448-.257.159-.5.309-.618.309h-.19v-.001z" fill="#56ca5d"/><path d="M41 4a36.35 36.35 0 0 1 12.297 2.129c.037.548-.372 1.644-1.221 3.265l-.197.381-.032.064-.023.068c-.496 1.489-1.292 2.712-2.129 3.27l-.082.055-.07.07c-.809.809-2.032 2.032-3.214 2.819-.673.449-1.333 1-1.972 1.532l-1.762 1.378-.823.472-.284.171c-.33-.806-.33-2.397-.33-3.143 0-.768.211-1.426.434-2.122.31-.969.661-2.065.403-3.46-.036-.646-.304-2.832-.424-3.792l-.085-.68-.665-.166c-.442-.11-.869-.168-1.247-.219-.355-.048-.891-.12-.989-.185 0-.001-.044-.117.019-.469.106-.29.351-.792.709-1.388L41 4m0-1l-2.261.08c-.526.817-.944 1.621-1.103 2.098-.42 2.102 1.261 1.682 2.943 2.102l.42 3.784c.421 2.104-.841 3.364-.841 5.466 0 1.261 0 3.364.841 4.204h.421c.42 0 .841-.42 1.682-.841 1.261-.841 2.525-2.102 3.784-2.943s2.525-2.102 3.365-2.943c1.261-.841 2.102-2.523 2.523-3.786.42-.841 1.862-3.318 1.44-4.579-.033-.067-.077-.183-.118-.286A37.39 37.39 0 0 0 41 3z"/><path d="M30.397 74.89c-2.382-.726-4.656-1.673-6.767-2.819-.06-.099-.134-.204-.227-.297l-.199-1.497L23 68.666v-.081l-.025-.077-.626-2.088-.635-2.118c-.277-.695-.629-1.367-.969-2.017-.751-1.437-1.528-2.923-1.528-4.551l.033-1.247c.068-1.697.14-3.452-.975-4.939-1.105-1.381-2.817-1.925-4.327-2.404-.971-.308-1.887-.599-2.5-1.059-2.675-1.783-5.026-4.287-6.159-6.551l-.776-1.175-.003-.096L4.5 40c0-10.092 3.962-19.451 11.158-26.363 3.585-1.199 7.492-1.942 10.223-1.942.967 0 1.762.091 2.362.272a8.62 8.62 0 0 1 3.153 1.975c.779.779 1.956 1.956 1.956 3.012 0 .087 0 .186-.006.213-.017.022-.139.145-.269.274-.262.262-.491.274-.907.274-1.146 0-2.33 0-3.071-.335l-1.705-1.704-.111-.037a2.24 2.24 0 0 0-.71-.113c-2.852 0-6.264 5.185-6.66 6.771-.274.819-.445 2.661.309 3.96.397.686 1.006 1.127 1.76 1.278h.017c1.077 0 2.344-.979 4.022-2.359.525-.431 1.021-.838 1.382-1.079.395-.194.729-.417 1.051-.631.291-.194.566-.377.922-.562.166-.018.33-.026.491-.026 2.844 0 4.9 2.666 5.608 5.143a1.99 1.99 0 0 1-.073 1.647c-1.092 2.29-5.767 3.997-7.173 4.466-.189.089-.275.097-.328.097-.121 0-.255-.044-.408-.096-.207-.069-.441-.147-.726-.147-.241 0-.472.056-.705.172-2.338.932-4.902 3.629-4.902 6.334-.205.975-.313 2.055-.417 3.1-.074.74-.15 1.5-.265 2.252v-.307c0-1.49-.504-3.247-1.907-3.797-.425-.418-.563-.488-1.115-.488-.383 0-.801-.157-1.244-.323-.506-.19-1.03-.387-1.594-.387a2.17 2.17 0 0 0-1.224.373c-.626.612-1.904 2.075-1.904 3.781 0 .442 0 1.049.568 1.614l.057.056.071.036c.235.118.483.176.76.176.305 0 .594-.072.85-.136.219-.055.426-.106.606-.106.117 0 .215.021.309.068l.105.052h.117c.183 0 .341 0 .341.764v.151l.084.126c.148.222.296.458.446.696.727 1.154 1.549 2.462 2.755 2.864l.077.026h8.409c.285.093.608.186.947.284 1.048.302 2.344.675 2.928 1.198.161.347.251.705.345 1.082.11.44.224.895.459 1.365l.036.072.058.058c1.621 1.623 3.493 2.074 5.304 2.511.67.162 1.363.329 2.039.554.59.301.687.591.944 1.366.382 1.144-.038 2.692-.393 3.4-.097.274-.166.494-.237.719-.344 1.086-.733 2.318-1.351 2.935-.784.786-1.565 1.176-2.393 1.59-.866.573-1.483 1.386-2.137 2.247-.424.559-.862 1.136-1.357 1.631l-.146.146v.207c-.087.349-1.26 2.105-1.694 2.44z" fill="#56ca5d"/><path d="M25.881 12.194c.918 0 1.664.084 2.191.242 1.027.341 2.166 1.053 2.971 1.858.677.677 1.809 1.809 1.809 2.658v.007l-.127.126c-.116.116-.168.128-.554.128-1.051 0-2.134 0-2.786-.257l-1.719-1.719-.224-.075a2.74 2.74 0 0 0-.868-.139c-3.171 0-6.65 5.291-7.135 7.111-.318.988-.481 2.938.351 4.372.472.812 1.196 1.337 2.094 1.516l.097.019h.099c1.149 0 2.489-1.028 4.257-2.481.492-.405.959-.788 1.296-1.019.445-.228.777-.449 1.098-.663.254-.17.497-.331.79-.489a4.04 4.04 0 0 1 .346-.015c2.585 0 4.469 2.478 5.127 4.78l.011.039.014.038a1.47 1.47 0 0 1-.068 1.218c-.8 1.678-4.079 3.273-6.88 4.207l-.106.039-.065.035a1.4 1.4 0 0 1-.25-.07c-.219-.073-.518-.173-.883-.173-.302 0-.6.069-.888.205-2.487 1.009-5.156 3.832-5.219 6.698-.153.784-.25 1.566-.332 2.333-.337-.613-.818-1.121-1.478-1.407-.439-.422-.702-.563-1.395-.563-.292 0-.669-.141-1.068-.291-.523-.196-1.116-.418-1.77-.418-.541 0-1.046.154-1.501.457l-.082.055-.07.07c-.594.594-1.975 2.179-1.975 4.073 0 .47 0 1.257.715 1.968l.113.113.143.072c.302.152.633.229.984.229.366 0 .687-.08.971-.151.188-.047.366-.092.486-.092a.17.17 0 0 1 .086.016l.224.105h.055c.007.095.007.203.007.263v.303l.168.252a29.56 29.56 0 0 1 .439.686l.543.844c-.609-.252-1.232-.45-1.825-.638-.928-.295-1.805-.573-2.351-.982l-.022-.017-.023-.016c-2.585-1.721-4.871-4.151-5.967-6.342l-.017-.034-.02-.033c-.205-.345-.448-.705-.692-1.053C5.003 40.128 5 40.065 5 40c0-9.917 3.878-19.115 10.923-25.925 3.509-1.162 7.306-1.881 9.958-1.881m1.086 39.391c.271.086.572.173.888.264.903.26 2.116.609 2.655 1.026.116.275.189.567.271.896.111.444.237.947.496 1.466l.073.145.115.115c1.721 1.723 3.663 2.191 5.54 2.644.636.154 1.294.312 1.928.519.414.217.465.37.699 1.072.313.937-.034 2.355-.366 3.018l-.032.064-.023.068-.211.656c-.311.982-.697 2.205-1.23 2.738-.726.728-1.472 1.101-2.262 1.496l-.056.028-.052.034c-.883.589-1.555 1.474-2.204 2.33-.414.545-.841 1.109-1.312 1.579l-.293.293v.289c-.174.411-.909 1.519-1.334 1.999-2.203-.69-4.311-1.574-6.276-2.632a2.19 2.19 0 0 0-.097-.13c-.034-.3-.095-.73-.184-1.355l-.2-1.541v-.162l-.051-.154c-.204-.612-.415-1.351-.619-2.066l-.642-2.14-.009-.028-.011-.028c-.276-.69-.634-1.374-.979-2.035-.757-1.447-1.472-2.815-1.472-4.319 0-.41.017-.821.033-1.228.067-1.655.136-3.363-.845-4.922h8.062m-1.086-40.39c-2.948 0-7.013.831-10.488 2.004C8.361 19.913 4 29.393 4 40c0 .177.017.35.019.527.301.425.589.841.823 1.23 1.261 2.523 3.784 5.047 6.307 6.727 1.682 1.261 5.045 1.261 6.727 3.363 1.261 1.684.841 3.784.841 5.886 0 2.523 1.682 4.625 2.523 6.725.42 1.263.841 2.945 1.261 4.206 0 .421.421 2.943.421 3.364.135.068.245.223.345.412a36.86 36.86 0 0 0 7.121 2.968h.004c.026 0 .059-.017.085-.017.433.002 2.115-2.523 2.115-2.943 1.261-1.261 2.102-2.943 3.364-3.784.841-.42 1.682-.841 2.523-1.684s1.261-2.523 1.682-3.784c.421-.839.841-2.521.421-3.782-.266-.798-.421-1.261-1.261-1.682-2.523-.841-5.045-.841-7.148-2.945-.42-.841-.42-1.682-.841-2.523-.841-.841-2.943-1.261-4.204-1.682h-8.409c-1.261-.421-2.102-2.102-2.943-3.364 0-.421 0-1.263-.841-1.263-.177-.088-.354-.12-.531-.12-.485 0-.971.243-1.456.243a1.17 1.17 0 0 1-.535-.122c-.421-.418-.421-.841-.421-1.259 0-1.263.841-2.525 1.682-3.366a1.66 1.66 0 0 1 .946-.289c.946 0 1.892.709 2.838.709.42 0 .42 0 .841.421 1.261.42 1.682 2.102 1.682 3.366v.841c0 .42.42.42.841.42.421-2.102.421-4.206.841-6.307 0-2.523 2.523-5.047 4.625-5.886a1.06 1.06 0 0 1 .483-.12c.405 0 .728.243 1.133.243.149 0 .308-.033.486-.122 2.523-.841 8.829-3.363 7.568-6.725-.787-2.756-3.046-5.506-6.088-5.506a5.17 5.17 0 0 0-.639.04c-.841.422-1.261.841-2.102 1.263-1.261.841-3.784 3.364-5.045 3.364-2.102-.421-2.102-3.364-1.682-4.627.391-1.563 3.686-6.392 6.175-6.392.189 0 .374.028.552.087l1.682 1.682c.841.421 2.102.421 3.364.421.421 0 .841 0 1.261-.421s.42-.42.42-.841c0-1.261-1.261-2.525-2.102-3.366s-2.102-1.682-3.364-2.1c-.674-.2-1.53-.292-2.509-.292z"/><path d="M41 4c9.695 0 18.757 3.723 25.517 10.483S77 30.305 77 40c0 19.85-16.15 36-36 36S5 59.85 5 40c0-9.695 3.723-18.757 10.483-25.517S31.305 4 41 4m0-1C20.402 3 4 19.402 4 40s16.784 37 37 37 37-16.402 37-37S61.598 3 41 3z"/></g><g fill-rule="nonzero"><path d="M202.159 90.64l11.4-15.447-16 9.097 3.8-6.007s-18.8 8.753-24.2 13.559c-4.8 4.119-4.8 10.641 0 14.761s12.4 4.119 17.2 0c5.6-4.806 14-17.85 14-17.85l-6.2 1.888z" fill="#ff5722"/><path d="M196.259 94.416l6.3-9.526-11.4 6.093 1.8-4.806s-9 4.892-13 8.239c-1.5 1.287-2.4 3.004-2.4 4.977 0 3.862 3.5 6.865 8 6.865 2.3 0 4.3-.858 5.8-2.06 3-2.575 10.9-11.242 10.9-11.242l-6 1.459z" fill="#ff9800"/><path d="M185.559 95.102c-2.8 0-5 1.888-5 4.291s2.2 4.291 5 4.291 5-1.888 5-4.291-2.2-4.291-5-4.291z" fill="#ffc107"/><path d="M185.559 97.248c-1.4 0-2.5.944-2.5 2.145s1.1 2.145 2.5 2.145 2.5-.944 2.5-2.145-1.1-2.145-2.5-2.145z" fill="#fff9c4"/></g></g><use xlink:href="#C" fill="none" stroke="#000" stroke-width="1.84"/></g><defs ><path id="C" d="M400 75.792c0-4.779-4.521-8.659-10.09-8.659H125.976c-5.569 0-10.09 3.88-10.09 8.659v73.044c0 4.779 4.521 8.659 10.09 8.659H389.91c5.569 0 10.09-3.88 10.09-8.659V75.792z"/></defs></svg>