<svg xmlns="http://www.w3.org/2000/svg" xmlns:xlink="http://www.w3.org/1999/xlink" width="100%" height="100%" viewBox="0 0 287 108" fill-rule="evenodd" stroke-linecap="round" stroke-linejoin="round" stroke-miterlimit="1.5" xmlns:v="https://vecta.io/nano"><g transform="matrix(.999996 0 0 1.165257 -114.886792 -77.226174)"><use xlink:href="#C" fill="#fff"/><clipPath id="A"><use xlink:href="#C"/></clipPath><g clip-path="url(#A)"><g fill-rule="nonzero"><path d="M197.999 107.326h-7.263v-.644l1.15-.311 1.254-.222V92.953h-3.955l-1.37 3.172h-.646l-.129-1.009-.09-1.153-.064-1.153-.026-1.009h15.017l-.026.998-.065 1.142-.077 1.153-.116 1.032h-.672l-1.344-3.172h-3.955v13.198l1.254.222a7.14 7.14 0 0 1 1.124.311v.644zm19.101 0h-5.583v-.555c.413-.192.93-.369 1.551-.532v-5.19c0-1.153-.19-2.059-.568-2.717s-1.068-.987-2.068-.987c-.448 0-.853.07-1.215.21s-.689.322-.982.543a3.55 3.55 0 0 0-.75.765c-.207.288-.361.588-.465.898v6.477l.788.2c.25.074.495.185.737.333v.555h-5.557v-.555a7.96 7.96 0 0 1 1.706-.532V92.198l-1.965-.177v-.577c.5-.177 1.081-.333 1.745-.466l1.899-.333h.646v7.83h.026c.362-.695.883-1.286 1.564-1.774s1.504-.732 2.468-.732a7.42 7.42 0 0 1 1.848.21c.543.14.995.388 1.357.743s.638.832.827 1.431.284 1.356.284 2.274v5.612l.879.2a3.27 3.27 0 0 1 .827.333v.555zm11.966-1.553c-.137.251-.353.488-.646.71a4.8 4.8 0 0 1-1.008.577 6.71 6.71 0 0 1-1.24.388 6.5 6.5 0 0 1-1.37.145c-1.016 0-1.912-.137-2.688-.411s-1.421-.665-1.938-1.175-.909-1.12-1.176-1.83-.401-1.508-.401-2.395c0-1.893.508-3.335 1.525-4.325s2.455-1.486 4.316-1.486a7.63 7.63 0 0 1 1.783.21c.586.14 1.107.373 1.564.699a3.64 3.64 0 0 1 1.111 1.297c.284.54.427 1.209.427 2.007a7.76 7.76 0 0 1-.039.765c-.026.259-.074.536-.142.832h-8.065c0 .621.09 1.201.271 1.741a3.93 3.93 0 0 0 .814 1.409 3.77 3.77 0 0 0 1.37.942c.551.229 1.197.344 1.939.344.603 0 1.214-.074 1.835-.222s1.085-.34 1.396-.577l.361.355zm-4.73-8.828c-.982 0-1.732.285-2.249.854s-.827 1.571-.93 3.006h5.686l.039-.388.013-.366c0-.947-.207-1.701-.62-2.263s-1.06-.843-1.939-.843zm18.223 10.381h-5.738v-.644a10.91 10.91 0 0 1 1.861-.532l6.539-14.617h.75l6.539 14.617 1.021.2c.336.074.651.185.943.333v.644h-6.616v-.644l1.059-.311 1.059-.222-1.757-4.059h-6.178l-1.706 4.059a10.62 10.62 0 0 1 2.223.532v.644zm0-6.388h5.221l-2.042-4.702-.491-1.908h-.052l-.646 1.952-1.99 4.658zm13.905 1.996l.077-2.739.077-2.673-1.706-.177v-.577l1.693-.466 1.693-.333h.646l-.078 3.305-.077 3.26c0 .577.039 1.094.116 1.553s.216.843.414 1.153a1.99 1.99 0 0 0 .814.721c.344.17.784.255 1.318.255.775 0 1.426-.24 1.951-.721s.935-1.105 1.228-1.874v-6.1l-1.68-.177v-.577l1.667-.466 1.693-.333h.646v10.092l1.706.178v.466l-1.512.51a10.79 10.79 0 0 1-1.59.333h-.646l-.181-2.64h-.103c-.086.311-.237.625-.452.943s-.495.606-.84.865a4.61 4.61 0 0 1-1.176.632 4.1 4.1 0 0 1-1.434.244c-.689 0-1.297-.07-1.823-.211s-.969-.388-1.331-.743-.638-.832-.827-1.43-.284-1.357-.284-2.274zm23.882 2.839c-.311.517-.814.95-1.512 1.297s-1.512.522-2.442.522c-1.017 0-1.9-.137-2.649-.411s-1.375-.665-1.874-1.175-.875-1.124-1.124-1.841-.375-1.512-.375-2.384c0-1.878.534-3.316 1.602-4.314s2.524-1.497 4.368-1.497c.844 0 1.598.063 2.261.188s1.228.292 1.693.499a14.27 14.27 0 0 1-.284 1.641c-.138.606-.31 1.109-.517 1.508h-.698l-1.086-2.64a1.41 1.41 0 0 0-.413-.166c-.155-.037-.414-.056-.776-.056-1.172 0-2.076.366-2.714 1.098s-.956 1.97-.956 3.715a5.07 5.07 0 0 0 .271 1.642 4.18 4.18 0 0 0 .827 1.43 4.02 4.02 0 0 0 1.396 1.009c.56.252 1.21.377 1.952.377.603 0 1.128-.074 1.576-.222s.827-.325 1.137-.532l.336.311zm1.396-9.005c.655-.355 1.344-.606 2.068-.754v-1.885a6.15 6.15 0 0 1 .789-.432l.892-.366h.646v2.906h3.877v1.109h-3.877v6.432c0 .887.164 1.515.491 1.885s.818.554 1.473.554l1.163-.055c.465-.037.862-.107 1.189-.211l.181.333a3.11 3.11 0 0 1-.582.421c-.251.147-.534.288-.853.421a6.72 6.72 0 0 1-1.046.333 5.08 5.08 0 0 1-1.163.133c-1.034 0-1.823-.252-2.365-.754s-.814-1.316-.814-2.44v-7.054h-2.068v-.577zm15.999 10.558h-5.738v-.555c.258-.118.525-.218.801-.299l.905-.233v-8.717l-1.706-.177v-.577a14.34 14.34 0 0 1 1.628-.466l1.758-.333h.646v10.27l.93.233a4.94 4.94 0 0 1 .776.299v.555zm-4.523-14.861c0-.399.15-.717.452-.954s.702-.355 1.202-.355.896.118 1.189.355.44.555.44.954a1.13 1.13 0 0 1-.44.942c-.293.229-.689.344-1.189.344s-.9-.115-1.202-.344-.452-.543-.452-.942zm6.565 9.316c0-.932.142-1.756.427-2.473s.693-1.324 1.227-1.819a5.37 5.37 0 0 1 1.926-1.131c.75-.259 1.581-.388 2.494-.388 1.068 0 1.99.14 2.765.421s1.409.676 1.9 1.187.853 1.12 1.086 1.83.349 1.501.349 2.374c0 1.863-.552 3.297-1.654 4.303s-2.584 1.508-4.446 1.508c-1.034 0-1.93-.137-2.688-.411s-1.387-.665-1.887-1.175-.875-1.124-1.124-1.841-.375-1.512-.375-2.384zm2.481 0a7.79 7.79 0 0 0 .22 1.885c.147.591.379 1.105.698 1.542s.736.78 1.254 1.031 1.137.377 1.861.377c.93 0 1.693-.392 2.287-1.175s.892-2.004.892-3.66c0-.681-.073-1.312-.22-1.897a4.49 4.49 0 0 0-.685-1.53 3.34 3.34 0 0 0-1.189-1.032c-.482-.252-1.059-.377-1.731-.377-1.017 0-1.836.392-2.456 1.176s-.93 2.004-.93 3.66zm25.666 5.545h-5.557v-.555c.465-.207.973-.384 1.525-.532v-5.257c0-1.123-.19-2.011-.568-2.662s-1.069-.976-2.068-.976c-.431 0-.832.066-1.202.2a3.35 3.35 0 0 0-.982.543 3.96 3.96 0 0 0-.736.776 4.05 4.05 0 0 0-.491.898v6.477c.534.089 1.051.266 1.551.532v.555h-5.583v-.555c.431-.192.999-.369 1.706-.532v-8.717l-1.706-.177v-.577c.448-.163.965-.311 1.551-.444l1.835-.355h.646v2.484h.026a5.09 5.09 0 0 1 1.564-1.752c.681-.488 1.504-.732 2.468-.732a7.42 7.42 0 0 1 1.848.21c.543.14.995.388 1.357.743s.638.832.827 1.431.284 1.356.284 2.274v5.612c.689.103 1.258.281 1.706.532v.555zm-87.891 24.68c-.328.163-.711.322-1.15.477l-1.396.421-1.474.311c-.491.081-.952.122-1.383.122-1.378 0-2.619-.159-3.722-.477s-2.042-.806-2.817-1.464-1.374-1.49-1.796-2.495-.633-2.203-.633-3.593c0-1.449.246-2.684.737-3.704s1.146-1.852 1.964-2.495 1.749-1.109 2.792-1.398a11.93 11.93 0 0 1 3.192-.432c1.137 0 2.098.063 2.881.188s1.469.314 2.055.565l-.026.821-.077 1.02-.129 1.054-.155.92h-.672l-1.344-3.194c-.19-.089-.508-.148-.956-.177l-1.318-.044a7.32 7.32 0 0 0-2.455.41 5.42 5.42 0 0 0-2.029 1.264c-.577.569-1.038 1.287-1.383 2.151s-.517 1.882-.517 3.05c0 1.05.168 1.996.504 2.839s.801 1.564 1.396 2.163 1.292 1.061 2.093 1.386 1.667.488 2.598.488a5.68 5.68 0 0 0 1.008-.089 8.67 8.67 0 0 0 .905-.211c.276-.081.504-.166.685-.255s.306-.163.375-.222v-4.481a6.93 6.93 0 0 1-1.279-.2l-1.202-.333v-.643h6.332v.643c-.172.103-.379.2-.62.288a6.09 6.09 0 0 1-.982.244v5.079zm12.638-1.84l.026.843.051.754 1.784.222v.466a10.52 10.52 0 0 1-1.434.51c-.526.148-1.03.259-1.512.333h-.646c-.172-.34-.276-.714-.31-1.12l-.078-1.342h-.129a2.8 2.8 0 0 1-.401.898c-.199.303-.457.573-.775.81s-.694.429-1.124.577-.922.222-1.474.222c-1.051 0-1.908-.274-2.571-.821s-.995-1.264-.995-2.151c0-.681.159-1.239.478-1.675s.789-.78 1.409-1.031 1.387-.433 2.3-.543l3.179-.255c.069-.636.09-1.209.064-1.719s-.12-.946-.284-1.309a1.88 1.88 0 0 0-.724-.843c-.319-.2-.737-.299-1.254-.299l-.814.033a3.44 3.44 0 0 0-.892.188l-1.215 2.662h-.672a13.91 13.91 0 0 1-.452-1.375 7.45 7.45 0 0 1-.246-1.398 9.57 9.57 0 0 1 2.184-.798c.801-.192 1.693-.289 2.675-.289.879 0 1.581.108 2.106.322s.926.492 1.202.832a2.62 2.62 0 0 1 .543 1.131 6.09 6.09 0 0 1 .129 1.242l-.064 2.562-.065 2.362zm-4.988 1.796a2.74 2.74 0 0 0 1.137-.222 3.07 3.07 0 0 0 .827-.532c.224-.207.405-.418.543-.632s.232-.395.284-.543v-2.329c-1 0-1.818.044-2.455.133s-1.137.229-1.499.421-.612.433-.749.721a2.26 2.26 0 0 0-.207.987c0 .636.189 1.128.568 1.475s.896.521 1.551.521zm21.608 1.109h-5.531v-.554a6.55 6.55 0 0 1 .633-.277 6.05 6.05 0 0 1 .892-.255v-5.124a12.78 12.78 0 0 0-.09-1.597c-.06-.473-.172-.869-.336-1.187a1.71 1.71 0 0 0-.711-.732c-.31-.17-.715-.255-1.214-.255-.379 0-.728.066-1.047.2a3.05 3.05 0 0 0-.853.532 3.62 3.62 0 0 0-.646.754 3.91 3.91 0 0 0-.426.887v6.521l.788.233a5.66 5.66 0 0 1 .737.299v.554h-5.557v-.554a7.7 7.7 0 0 1 .801-.289l.905-.244v-8.717l-1.706-.177v-.577a12.1 12.1 0 0 1 1.693-.499l1.693-.3h.646v2.506h.026c.276-.695.746-1.286 1.409-1.775s1.486-.732 2.468-.732a6.16 6.16 0 0 1 1.189.111 3.19 3.19 0 0 1 1.06.41c.327.2.603.477.827.832s.388.813.491 1.376c.31-.813.81-1.471 1.499-1.974s1.551-.754 2.584-.754c.638 0 1.194.071 1.667.211a2.45 2.45 0 0 1 1.176.743c.31.355.538.835.685 1.442s.22 1.375.22 2.307v5.568a5.95 5.95 0 0 1 1.706.532v.554h-5.557v-.554a8.16 8.16 0 0 1 1.525-.532v-5.523a9.99 9.99 0 0 0-.09-1.42 2.84 2.84 0 0 0-.349-1.054 1.72 1.72 0 0 0-.723-.665c-.311-.155-.724-.233-1.241-.233-.827 0-1.469.244-1.926.732s-.788 1.109-.995 1.863v6.3a12.54 12.54 0 0 1 1.68.532v.554zm19.669-1.552c-.137.251-.353.488-.646.71a4.76 4.76 0 0 1-1.008.577c-.379.163-.792.292-1.24.388a6.5 6.5 0 0 1-1.37.145c-1.016 0-1.912-.137-2.688-.411s-1.421-.666-1.938-1.175-.909-1.12-1.176-1.83-.401-1.508-.401-2.396c0-1.892.508-3.334 1.525-4.325s2.455-1.486 4.316-1.486a7.63 7.63 0 0 1 1.783.211c.586.14 1.107.373 1.564.699a3.64 3.64 0 0 1 1.111 1.297c.284.54.427 1.209.427 2.007a7.64 7.64 0 0 1-.039.765 6.65 6.65 0 0 1-.142.832h-8.065c0 .621.09 1.202.271 1.741a3.93 3.93 0 0 0 .814 1.409 3.77 3.77 0 0 0 1.37.942c.551.229 1.197.344 1.939.344.603 0 1.214-.074 1.835-.222s1.085-.34 1.396-.577l.361.355zm-4.73-8.828c-.982 0-1.732.285-2.249.854s-.827 1.571-.93 3.006h5.686l.039-.388.013-.366c0-.946-.207-1.7-.62-2.262s-1.06-.843-1.939-.843zm-134.218 20.506c-.256.22-.592.329-.928.329s-.671-.11-.928-.33l-5.266-4.519c-.387-.332-.481-.819-.284-1.227l-1.079-.926-1.49 1.279c.298.408.235.961-.19 1.325-.491.421-1.277.43-1.754.021l-3.386-2.904c-.478-.41-.467-1.084.025-1.505a1.41 1.41 0 0 1 1.544-.163l3.91-3.356c-.3-.408-.235-.96.189-1.324.491-.421 1.276-.43 1.754-.021l3.385 2.905c.478.41.467 1.084-.024 1.505a1.41 1.41 0 0 1-1.543.163l-1.492 1.28 1.212 1.04c.384-.038.784.064 1.079.318l5.265 4.519c.512.439.512 1.152 0 1.592z"/></g><path d="M400.003 89.724c0-12.468-11.795-22.591-26.324-22.591H142.212c-14.528 0-26.324 10.123-26.324 22.591v45.181c0 12.468 11.795 22.59 26.324 22.59h231.467c14.528 0 26.324-10.122 26.324-22.59V89.724z" fill="none" stroke="#e6c27f" stroke-width="15.765"/><g transform="matrix(1.75354 .702716 -.818845 1.50485 -282.419 -1233.88)" fill="#e0282a" fill-rule="nonzero"><path d="M633.975 582.704c.054.053.122.099.207.137s.211.056.38.056c.142 0 .275-.018.4-.056a.96.96 0 0 0 .323-.167c.091-.073.163-.162.217-.267s.08-.223.08-.356a.64.64 0 0 0-.164-.447 1.64 1.64 0 0 0-.406-.32l-.53-.273a2.95 2.95 0 0 1-.53-.317c-.162-.122-.298-.269-.407-.44s-.163-.385-.163-.643a1.19 1.19 0 0 1 .1-.5 1.04 1.04 0 0 1 .283-.373c.122-.103.268-.181.437-.237s.358-.083.566-.083c.272 0 .519.021.744.063s.401.094.53.157a2.46 2.46 0 0 1-.017.263l-.04.31-.05.31-.053.263h-.174l-.266-.913c-.08-.036-.181-.062-.304-.08s-.252-.027-.39-.027c-.226 0-.408.064-.546.19s-.207.304-.207.53c0 .182.055.336.164.46a1.7 1.7 0 0 0 .409.334l.53.283c.189.091.366.197.53.317s.302.262.41.426.164.369.164.613c0 .2-.037.383-.11.547a1.15 1.15 0 0 1-.317.42c-.138.116-.307.204-.507.267a2.29 2.29 0 0 1-.68.093c-.28 0-.531-.033-.753-.1s-.38-.138-.473-.213l.023-.274.04-.33.05-.33.054-.273h.173l.273.98zm2.927-1.873c0-.347.047-.668.143-.963a2.27 2.27 0 0 1 .413-.767 1.85 1.85 0 0 1 .664-.503c.262-.12.56-.18.893-.18s.631.06.893.18.483.287.663.503.318.471.414.767a3.1 3.1 0 0 1 .143.963 3.13 3.13 0 0 1-.143.963c-.096.296-.234.551-.414.767s-.401.383-.663.503-.56.18-.893.18-.631-.06-.893-.18a1.86 1.86 0 0 1-.664-.503 2.28 2.28 0 0 1-.413-.767 3.1 3.1 0 0 1-.143-.963zm.713 0c0 .284.03.552.09.803a2.12 2.12 0 0 0 .27.657 1.38 1.38 0 0 0 .453.443c.182.109.398.163.647.163.227 0 .424-.054.593-.163s.308-.257.417-.443.191-.406.246-.657.084-.519.084-.803a3.56 3.56 0 0 0-.087-.803 2.06 2.06 0 0 0-.267-.657 1.37 1.37 0 0 0-.453-.443c-.182-.109-.398-.164-.646-.164a1.13 1.13 0 0 0-.624.164 1.24 1.24 0 0 0-.416.443 2.13 2.13 0 0 0-.234.657c-.049.251-.073.518-.073.803zm4.06-2.333h1.826v.193l-.32.103c-.106.029-.213.05-.32.064v3.959h1.534l.393-1.073h.173l.037.323.027.38.01.384-.007.333h-3.353v-.193a1.66 1.66 0 0 1 .293-.107l.253-.053v-3.953c-.102-.018-.2-.041-.293-.07s-.178-.061-.253-.097v-.193zm3.66 4.666v-.193c.155-.071.337-.125.546-.16v-3.953l-.293-.077-.253-.09v-.193h.679l.267-.007.317-.017.313-.02.25-.01c.756 0 1.337.203 1.743.607s.61.978.61 1.72c0 .351-.05.676-.15.976s-.252.559-.456.777a2.11 2.11 0 0 1-.777.513c-.313.124-.683.187-1.11.187-.067 0-.142-.003-.227-.01l-.266-.02-.284-.02-.27-.01h-.639zm1.733-4.373l-.334.003c-.106.003-.191.01-.253.024v4.039a.77.77 0 0 0 .12.01l.187.007.19.003h.13c.306 0 .566-.057.78-.173s.387-.27.523-.463a1.99 1.99 0 0 0 .297-.67 3.36 3.36 0 0 0 .093-.8 2.72 2.72 0 0 0-.09-.677 1.97 1.97 0 0 0-.293-.64 1.6 1.6 0 0 0-.537-.476c-.222-.125-.493-.187-.813-.187z"/></g><g fill="#823e0e"><circle cx="425.31" cy="564.645" r="2.53" transform="matrix(1 0 0 .858179 -300.717 -409.813)"/><circle cx="425.31" cy="564.645" r="2.53" transform="matrix(1 0 0 .858179 -300.717 -333.502)"/><circle cx="425.31" cy="564.645" r="2.53" transform="matrix(1 0 0 .858179 -32.6491 -333.502)"/><circle cx="425.31" cy="564.645" r="2.53" transform="matrix(1 0 0 .858179 -32.6491 -409.96)"/></g></g><use xlink:href="#C" fill="none" stroke="#823e0e" stroke-width="1.84"/></g><defs ><path id="C" d="M400 73.049c0-3.265-3.089-5.916-6.894-5.916H122.779c-3.804 0-6.893 2.651-6.893 5.916v78.53c0 3.265 3.089 5.916 6.893 5.916h270.327c3.805 0 6.894-2.651 6.894-5.916v-78.53z"/></defs></svg>