<svg xmlns="http://www.w3.org/2000/svg" xmlns:xlink="http://www.w3.org/1999/xlink" width="100%" height="100%" viewBox="0 0 287 109" fill-rule="evenodd" stroke-linecap="round" stroke-linejoin="round" stroke-miterlimit="1.5" xmlns:v="https://vecta.io/nano"><style><![CDATA[.B{fill-rule:nonzero}.C{fill:#fff}]]></style><g transform="matrix(.999996 0 0 1.16526 -114.132352 -76.365416)"><use xlink:href="#H"/><clipPath id="A"><use xlink:href="#H"/></clipPath><g clip-path="url(#A)"><g transform="matrix(.055292 -.011555 .013465 .04745 349.344317 78.671025)" class="C"><use xlink:href="#I" class="B"/><circle cx="186.9" cy="186.888" r="37.4"/></g><g transform="matrix(.046183 .01062 -.012375 .039633 251.624285 131.180714)" class="C"><use xlink:href="#I" class="B"/><circle cx="186.9" cy="186.888" r="37.4"/></g><g transform="matrix(.032151 -.01593 .018563 .027592 308.994553 137.780372)" class="C"><use xlink:href="#I" class="B"/><circle cx="186.9" cy="186.888" r="37.4"/></g><g transform="matrix(.032151 -.01593 .018563 .027592 189.947553 139.651372)" class="C"><use xlink:href="#I" class="B"/><circle cx="186.9" cy="186.888" r="37.4"/></g><g transform="matrix(.045986 0 0 .039464 272.708217 76.767078)" class="C"><use xlink:href="#I" class="B"/><circle cx="186.9" cy="186.888" r="37.4"/></g><g transform="matrix(.043423 -.021515 .02507 .037265 135.491658 83.151625)" class="C"><use xlink:href="#I" class="B"/><circle cx="186.9" cy="186.888" r="37.4"/></g><g transform="matrix(.0291 -.009919 .011559 .024973 365.473 140.096)"><g transform="translate(-255.5 -255.5)"><clipPath id="B"><path d="M0 0h511v511H0z"/></clipPath><g clip-path="url(#B)" class="B C"><use xlink:href="#J"/></g></g></g><g transform="matrix(-.014711 -.011528 .013434 -.012624 216.284 84.1429)"><g transform="translate(-255.5 -255.5)"><clipPath id="C"><path d="M0 0h511v511H0z"/></clipPath><g clip-path="url(#C)" class="B C"><use xlink:href="#J"/></g></g></g><g transform="matrix(-.017253 .008548 -.009961 -.014806 138.983 114.283)"><g transform="translate(-255.5 -255.5)"><clipPath id="D"><path d="M0 0h511v511H0z"/></clipPath><g clip-path="url(#D)" class="B C"><use xlink:href="#J"/></g></g></g><g transform="matrix(.000959 -.017076 .019898 .000823 365.473 110.615)"><g transform="translate(-255.5 -255.5)"><clipPath id="E"><path d="M0 0h511v511H0z"/></clipPath><g clip-path="url(#E)" class="B C"><use xlink:href="#J"/></g></g></g><g transform="matrix(.008104 .025955 -.030244 .006955 149.892 142.41)"><g transform="translate(-255.5 -255.5)"><clipPath id="F"><path d="M0 0h511v511H0z"/></clipPath><g clip-path="url(#F)" class="B C"><use xlink:href="#J"/></g></g></g><g fill="#ff6b81" class="B"><path d="M183.241 120.512v-17.396h4.831c2.367 0 4.205.635 5.514 1.905s1.963 3.058 1.963 5.362v2.914c0 2.298-.664 4.079-1.99 5.336-1.327 1.251-3.254 1.879-5.778 1.879h-4.539zm2.548-15.511v13.631h2.046c1.791 0 3.101-.439 3.926-1.316.826-.884 1.249-2.187 1.267-3.915v-3.084c0-1.827-.41-3.175-1.232-4.027-.822-.858-2.063-1.29-3.725-1.29h-2.283zm21.134 15.511c-.148-.282-.255-.746-.32-1.408-.873 1.1-1.987 1.65-3.342 1.65-1.364 0-2.429-.334-3.195-.989s-1.149-1.584-1.149-2.776c0-1.316.52-2.357 1.559-3.13 1.04-.779 2.464-1.172 4.275-1.185h1.81V111.3c0-.773-.2-1.323-.599-1.65s-1.007-.491-1.823-.491c-.743 0-1.346.19-1.81.57a1.78 1.78 0 0 0-.696 1.44h-2.464c0-.661.227-1.29.682-1.892s1.067-1.074 1.838-1.421c.771-.34 1.629-.511 2.576-.511 1.54 0 2.712.327 3.516.982.803.661 1.213 1.617 1.232 2.874v6.528c.009.995.167 1.859.473 2.593v.19h-2.562zm-3.285-1.683a3.66 3.66 0 0 0 1.727-.432c.547-.288.946-.642 1.197-1.074v-3.084h-1.392c-1.17.013-2.093.242-2.77.674s-1.017 1.041-1.017 1.82c0 .733.172 1.264.516 1.598.343.327.923.498 1.74.498zm15.412-9.264a7.4 7.4 0 0 0-1.114-.079c-1.262 0-2.144.589-2.645 1.781v9.245h-2.464v-12.924h2.395l.042 1.309c.658-1.034 1.591-1.552 2.798-1.552.39 0 .714.059.974.164l.014 2.056zm6.238 5.035l-1.309 1.29v4.622h-2.464V102.16h2.464v10.98l4.692-5.552h2.952l-4.79 5.395 5.416 7.529h-2.868l-4.093-5.912zm18.488-.897v6.809h-2.547v-17.396h6.46c1.884 0 3.365.484 4.442 1.453 1.076.962 1.614 2.252 1.614 3.863 0 1.676-.513 2.959-1.538 3.863-1.025.91-2.471 1.375-4.337 1.408h-4.093zm0-1.879h3.912c1.132 0 2-.288 2.604-.871s.905-1.414.905-2.495c0-1.048-.311-1.879-.933-2.508-.622-.635-1.476-.949-2.562-.949h-3.926v6.822zm20.509 8.688c-.149-.282-.256-.746-.32-1.408-.872 1.1-1.986 1.65-3.342 1.65-1.364 0-2.429-.334-3.195-.989s-1.148-1.584-1.148-2.776a3.69 3.69 0 0 1 1.559-3.13c1.039-.779 2.464-1.172 4.274-1.185h1.81V111.3c0-.773-.199-1.323-.598-1.65s-1.007-.491-1.824-.491c-.742 0-1.346.19-1.81.57a1.78 1.78 0 0 0-.697 1.44h-2.464c0-.661.227-1.29.682-1.892s1.068-1.074 1.838-1.421c.771-.34 1.629-.511 2.576-.511 1.541 0 2.713.327 3.516.982.803.661 1.214 1.617 1.232 2.874v6.528c.009.995.167 1.859.474 2.593v.19h-2.562zm-3.286-1.683a3.66 3.66 0 0 0 1.727-.432c.548-.288.947-.642 1.197-1.074v-3.084h-1.392c-1.17.013-2.093.242-2.771.674s-1.016 1.041-1.016 1.82c0 .733.172 1.264.515 1.598.343.327.924.498 1.74.498zm12.419-14.377v3.136h2.27v1.702h-2.27v8.02c0 .511.098.897.292 1.159s.529.393 1.002.393a3.49 3.49 0 0 0 .989-.144l-.028 1.794c-.556.157-1.128.242-1.712.242-.975 0-1.717-.301-2.228-.897-.51-.602-.766-1.447-.766-2.534v-8.034h-2.297v-1.702h2.297v-3.136h2.451zm8.423 0v3.136h2.269v1.702h-2.269v8.02c0 .511.097.897.292 1.159s.529.393 1.002.393a3.49 3.49 0 0 0 .989-.144l-.028 1.794a6.28 6.28 0 0 1-1.713.242c-.974 0-1.717-.301-2.227-.897-.51-.602-.766-1.447-.766-2.534v-8.034h-2.297v-1.702h2.297v-3.136h2.451zm10.581 16.302c-1.875 0-3.313-.484-4.316-1.44-1.002-.962-1.513-2.37-1.532-4.23v-1.565c0-1.925.49-3.437 1.469-4.531s2.346-1.643 4.1-1.643c1.763 0 3.081.484 3.954 1.447s1.318 2.462 1.337 4.505v1.388h-8.41v.295c0 1.388.304 2.396.912 3.025s1.483.943 2.624.943c.724 0 1.363-.118 1.915-.354s1.07-.609 1.552-1.113l1.281 1.336c-1.067 1.29-2.696 1.938-4.887 1.938zm-.278-11.595c-1.021 0-1.778.301-2.27.904s-.77 1.539-.835 2.802h5.931v-.288c-.065-1.224-.322-2.102-.772-2.625s-1.135-.792-2.054-.792zm14.466.406a7.41 7.41 0 0 0-1.114-.079c-1.263 0-2.145.589-2.646 1.781v9.245h-2.464v-12.924h2.395l.042 1.309c.659-1.034 1.591-1.552 2.798-1.552.39 0 .715.059.974.164l.014 2.056zm4.775-1.977l.069 1.395c.956-1.093 2.177-1.637 3.662-1.637 2.663 0 4.014 1.526 4.051 4.577v8.59h-2.451v-8.492c0-1.015-.197-1.735-.591-2.161s-.986-.635-1.775-.635a2.73 2.73 0 0 0-1.65.524c-.487.347-.879.805-1.176 1.375v9.389h-2.464v-12.924h2.325zm18.795 9.611c0-.452-.2-.845-.599-1.165-.399-.327-1.17-.714-2.311-1.152-1.327-.465-2.263-.871-2.805-1.205s-.949-.714-1.218-1.139-.404-.936-.404-1.526c0-1.048.448-1.925 1.344-2.619.896-.701 2.039-1.048 3.432-1.048 1.466 0 2.645.367 3.536 1.1s1.337 1.67 1.337 2.822h-2.451c0-.583-.227-1.08-.682-1.493-.455-.406-1.035-.615-1.74-.615-.724 0-1.292.164-1.705.484a1.56 1.56 0 0 0-.619 1.296c0 .432.15.779.452 1.041s1.028.609 2.179 1.041c1.828.615 3.072 1.211 3.731 1.794.659.589.989 1.329.989 2.233 0 1.12-.45 2.023-1.35 2.691-.9.674-2.107 1.015-3.62 1.015-1.569 0-2.84-.386-3.815-1.159-.975-.779-1.462-1.755-1.462-2.94h2.478c.028.714.283 1.277.766 1.683s1.16.609 2.032.609c.817 0 1.439-.157 1.865-.471a1.5 1.5 0 0 0 .641-1.277z"/></g></g><use xlink:href="#H" fill="none" stroke="#000" stroke-width="1.84"/></g><defs ><path id="H" d="M400 75.792c0-4.779-4.521-8.659-10.09-8.659H125.976c-5.569 0-10.09 3.88-10.09 8.659v73.044c0 4.779 4.521 8.659 10.09 8.659H389.91c5.569 0 10.09-3.88 10.09-8.659V75.792z"/><path id="I" d="M186.9 74.788c-67.7 0-135.3 37.4-186.9 112.1 103.2 149.5 270.6 149.5 373.8 0-51.6-74.7-119.2-112.1-186.9-112.1zm0 186.899c-41.3 0-74.9-33.5-74.9-74.8s33.6-74.9 74.9-74.9 74.8 33.6 74.8 74.9-33.5 74.8-74.8 74.8z"/><path id="J" d="M410.517 291.884L121.984 3.453c-10.569-8.392-26.463-.383-26.463 12.168v394.174a15.99 15.99 0 0 0 15.98 15.98c4.155 0 8.138-1.599 10.42-3.901l79.939-69.651 65.2 152.321c1.108 2.598 3.195 4.646 5.817 5.711 1.279.488 2.621.745 3.963.745 1.428 0 2.856-.3 4.198-.873l68.606-29.405c5.411-2.298 7.927-8.564 5.606-13.975l-63.112-147.506H399.14a15.99 15.99 0 0 0 15.98-15.98c0-2.579-.659-6.457-4.603-11.377z"/></defs></svg>