<svg xmlns="http://www.w3.org/2000/svg" xmlns:xlink="http://www.w3.org/1999/xlink" width="100%" height="100%" viewBox="0 0 285 106" fill-rule="evenodd" stroke-linecap="round" stroke-linejoin="round" stroke-miterlimit="1.5" xmlns:v="https://vecta.io/nano"><style><![CDATA[.B{fill:#ffc21c}.C{fill-rule:nonzero}.D{stroke-width:8.44}]]></style><g transform="matrix(.999996 0 0 1.16526 -115.886506 -78.226468)"><use xlink:href="#E" class="B"/><clipPath id="A"><use xlink:href="#E"/></clipPath><g clip-path="url(#A)"><g transform="matrix(1.0324 -.029419 .033987 .878373 -377.433 -1457.23)"><path d="M648.936 1770.29c0-4.55-3.663-8.24-8.175-8.24H471.239c-4.512 0-8.175 3.69-8.175 8.24v70.42c0 4.55 3.663 8.24 8.175 8.24h169.522c4.512 0 8.175-3.69 8.175-8.24v-70.42zm-1.936 0c0-3.47-2.795-6.29-6.239-6.29H471.239c-3.444 0-6.239 2.82-6.239 6.29v70.42c0 3.47 2.795 6.29 6.239 6.29h169.522c3.444 0 6.239-2.82 6.239-6.29v-70.42z"/><path d="M647 1770.29c0-3.47-2.795-6.29-6.239-6.29H471.239c-3.444 0-6.239 2.82-6.239 6.29v70.42c0 3.47 2.795 6.29 6.239 6.29h169.522c3.444 0 6.239-2.82 6.239-6.29v-70.42z" fill="#fff"/></g><g transform="matrix(-.315232 0 0 -.097499 496.482 334.807)"><path d="M268 1809h73v946h-73z"/><clipPath id="B"><path d="M268 1809h73v946h-73z"/></clipPath><g clip-path="url(#B)" class="B"><g transform="matrix(.5 -2.40291 .93938 1.50483 -670.899 1798.18)"><use xlink:href="#F"/></g><g transform="matrix(.5 -2.40291 .93938 1.50483 -670.899 1482.85)"><use xlink:href="#F"/></g><g transform="matrix(.5 -2.40291 1.00116 1.6038 -723.809 1082.75)"><use xlink:href="#F"/></g></g><path d="M268 1809h73v946h-73z" fill="none" stroke="#000" class="D"/></g><g transform="matrix(-.315232 0 0 -.097499 212.38 333.871)"><path d="M268 1809h73v946h-73z"/><clipPath id="C"><path d="M268 1809h73v946h-73z"/></clipPath><g clip-path="url(#C)" class="B"><g transform="matrix(.5 -2.40291 .93938 1.50483 -670.899 1798.18)"><use xlink:href="#F"/></g><g transform="matrix(.5 -2.40291 .93938 1.50483 -670.899 1482.85)"><use xlink:href="#F"/></g><g transform="matrix(.5 -2.40291 1.00116 1.6038 -723.809 1082.75)"><use xlink:href="#F"/></g></g><path d="M268 1809h73v946h-73z" fill="none" stroke="#000" class="D"/></g><g transform="matrix(.89898 -.023824 .04564 1.26836 -275.366 -1223.61)" class="C"><g transform="matrix(.336754 0 0 .212371 -282.201 248.053)"><path d="M2233 3810l10.042-61h11.453c1.909 0 3.818.166 5.727.498 1.826.415 3.569.996 5.146 1.826 1.577.913 2.905 1.992 4.067 3.403 1.079 1.411 1.909 2.988 2.49 4.731s.83 3.569.913 5.478c0 1.909-.166 3.818-.498 5.727l-3.569 21.744c-.249 1.66-.747 3.32-1.328 4.897s-1.411 3.154-2.49 4.565-2.324 2.656-3.735 3.735a21.11 21.11 0 0 1-4.565 2.656c-1.577.664-3.237 1.079-4.897 1.328s-3.32.415-4.98.415H2233zm13.777-9.461c.83 0 1.66-.083 2.573-.249.83-.166 1.66-.415 2.49-.83s1.577-.913 2.241-1.577c.664-.581 1.245-1.328 1.743-2.075.415-.747.83-1.577 1.079-2.407l.664-2.573 3.569-21.744c.166-.83.249-1.66.332-2.573 0-.83-.083-1.66-.166-2.49-.166-.747-.415-1.577-.747-2.324a6.53 6.53 0 0 0-1.494-1.826c-.581-.498-1.328-.83-2.158-1.079s-1.66-.332-2.49-.332h-1.411l-6.971 42.078h.747zm38.678 10.125c-1.411 0-2.739-.249-3.984-.913-1.245-.581-2.241-1.411-2.905-2.49-.747-1.079-1.328-2.241-1.66-3.569-.332-1.245-.498-2.573-.581-3.984-.083-1.328-.083-2.739.083-4.15a36.76 36.76 0 0 1 .498-4.233l1.66-9.959c.166-1.245.415-2.407.83-3.652.332-1.162.83-2.324 1.411-3.486s1.245-2.241 2.158-3.32c.83-.996 1.826-1.826 2.905-2.573s2.241-1.245 3.486-1.66c1.245-.332 2.407-.498 3.652-.498 1.079 0 2.158.166 3.154.498s1.826.83 2.573 1.577c.664.747 1.162 1.577 1.577 2.49s.664 1.909.913 2.905l1.162-6.805h11.453l-5.478 32.865c-.083.415.083.747.332.996.249.332.498.498.913.498h1.411v9.461h-2.988c-1.245 0-2.49-.083-3.735-.332-1.328-.249-2.407-.664-3.486-1.245s-1.909-1.328-2.656-2.324-1.162-2.075-1.328-3.32c-.581 1.079-1.328 1.992-2.075 2.905-.83.913-1.743 1.743-2.739 2.407a12.16 12.16 0 0 1-3.154 1.494c-1.162.249-2.324.415-3.403.415zm6.307-9.461c.747 0 1.494-.166 2.241-.498.747-.249 1.328-.747 1.909-1.328.498-.581.913-1.245 1.162-1.992s.498-1.411.581-2.158l1.66-9.959.332-1.992c.083-.664.083-1.328.083-1.992l-.083-1.909c-.083-.581-.249-1.245-.498-1.826s-.581-.996-1.079-1.411c-.498-.332-1.079-.498-1.743-.498-.83 0-1.66.249-2.49.664s-1.494.996-2.075 1.743-1.079 1.494-1.328 2.324c-.332.913-.581 1.743-.664 2.573l-1.66 9.959-.249 1.826a6.13 6.13 0 0 0 0 1.743l.332 1.743c.083.581.332 1.162.664 1.577.249.415.664.747 1.245.996.498.249 1.079.415 1.66.415zm38.254 27.304a32.43 32.43 0 0 1-4.067-.249c-1.411-.249-2.656-.581-3.901-1.079s-2.324-1.162-3.32-1.909c-.996-.83-1.826-1.826-2.407-2.988s-.996-2.407-1.245-3.735c-.249-1.411-.249-2.739 0-4.067h11.37a6.13 6.13 0 0 0 0 1.743c.083.581.249 1.162.581 1.577a3.3 3.3 0 0 0 1.328.996 5.75 5.75 0 0 0 1.66.249c.913 0 1.743-.249 2.573-.664.747-.415 1.411-.996 1.992-1.743s.996-1.494 1.245-2.324c.249-.913.498-1.743.581-2.573l.996-5.976c-.415.747-.913 1.411-1.494 1.992-.581.664-1.162 1.245-1.909 1.66-.747.498-1.494.83-2.241.996-.83.166-1.66.249-2.407.249-1.411 0-2.822-.249-4.15-.83a8.41 8.41 0 0 1-3.32-2.241c-.996-.996-1.66-2.158-2.158-3.486-.498-1.245-.83-2.573-.996-4.067-.249-1.328-.249-2.822-.166-4.316a42 42 0 0 1 .498-4.399l4.067-24.483h11.453l-4.316 26.06-.249 1.743c-.083.581-.083 1.162-.083 1.743s.083 1.162.166 1.743.249 1.079.581 1.494c.249.498.581.913 1.079 1.162s.996.415 1.577.415c.747 0 1.494-.166 2.241-.498s1.328-.83 1.826-1.411.913-1.162 1.162-1.909.498-1.411.581-2.158l4.731-28.384h11.453l-7.718 46.476c-.249 1.328-.581 2.656-.996 4.067-.415 1.328-1.079 2.573-1.826 3.818-.83 1.245-1.826 2.324-2.905 3.32-1.162.913-2.407 1.743-3.652 2.324-1.328.581-2.656 1.079-4.067 1.328s-2.739.332-4.15.332zm44.571-17.843c-1.328 0-2.656-.083-3.984-.166-1.328-.166-2.573-.498-3.735-.913-1.245-.415-2.324-.913-3.403-1.66-1.079-.664-1.909-1.494-2.656-2.573-.747-.996-1.245-2.158-1.494-3.486-.249-1.245-.332-2.573-.083-3.818.083-.083.083-.249.083-.332s0-.249.083-.332h10.706l-.083.166c-.083.581-.083 1.245.166 1.826s.581 1.079.996 1.411c.415.415.996.664 1.577.747.581.166 1.245.249 1.826.249s1.245 0 1.909-.166c.581 0 1.162-.166 1.826-.498.581-.249 1.079-.581 1.577-1.079.498-.415.83-.996.913-1.577.083-.913-.083-1.66-.498-2.407-.498-.747-1.079-1.328-1.743-1.826a17.83 17.83 0 0 0-2.158-1.162l-2.407-.913c-.83-.249-1.577-.581-2.324-.996-.747-.332-1.494-.747-2.158-1.245-.664-.415-1.328-.996-1.909-1.577s-1.162-1.162-1.577-1.826c-.498-.664-.913-1.411-1.245-2.158-.415-.747-.664-1.494-.913-2.324s-.332-1.66-.415-2.573c-.083-.83 0-1.66.166-2.573a9.74 9.74 0 0 1 1.079-3.32c.498-1.079 1.162-1.992 2.075-2.905.83-.913 1.743-1.66 2.905-2.241l3.237-1.328c1.079-.332 2.241-.581 3.403-.747l3.32-.166 3.901.166c1.245.166 2.49.415 3.735.83 1.162.498 2.241.996 3.237 1.743s1.826 1.577 2.49 2.573c.664 1.079 1.079 2.241 1.328 3.486a9.85 9.85 0 0 1 0 3.818v.332c-.083.083-.083.249-.083.332h-10.706v-.249c.083-.581.083-1.079 0-1.66-.166-.581-.415-.996-.747-1.411-.415-.415-.83-.664-1.411-.83a6.32 6.32 0 0 0-1.743-.249l-1.66.083c-.581.083-1.079.249-1.577.498-.581.249-.996.664-1.411 1.079-.415.498-.747.996-.83 1.577a3.07 3.07 0 0 0 .498 2.407 4.46 4.46 0 0 0 1.66 1.826c.664.498 1.411.913 2.241 1.162.747.332 1.577.664 2.407.913l2.324.996c.747.332 1.411.747 2.158 1.162l1.909 1.577c.581.581 1.079 1.245 1.577 1.909l1.328 2.158c.332.747.581 1.494.83 2.324.249.913.332 1.743.415 2.573 0 .913-.083 1.743-.166 2.656-.249 1.743-.996 3.403-2.158 4.897s-2.573 2.656-4.233 3.569-3.403 1.494-5.146 1.826c-1.743.249-3.486.415-5.229.415zm82.99 0a35.16 35.16 0 0 1-4.233-.249c-1.494-.249-2.822-.581-4.067-1.079a11.83 11.83 0 0 1-3.569-2.075c-1.079-.83-1.909-1.826-2.49-3.071-.664-1.162-1.079-2.407-1.328-3.901-.249-1.411-.249-2.822 0-4.233.083-.083.083-.249.083-.332s0-.249.083-.415h11.37v.166l-.083.083a9.38 9.38 0 0 0 0 2.158c.083.747.249 1.328.664 1.909s.913.913 1.577 1.162c.581.249 1.245.415 1.992.415a6.66 6.66 0 0 0 2.49-.498c.747-.249 1.494-.747 2.158-1.328a7.07 7.07 0 0 0 1.411-2.075c.332-.747.581-1.577.747-2.407.166-1.079.166-2.241-.083-3.32s-.581-1.992-1.162-2.905-1.162-1.743-1.909-2.49l-2.241-2.075-2.324-2.075a26.47 26.47 0 0 1-2.158-2.158c-.747-.747-1.411-1.577-1.992-2.407-.664-.747-1.245-1.66-1.743-2.573-.581-.913-.996-1.826-1.411-2.822-.415-.913-.664-1.992-.913-3.071s-.332-2.158-.332-3.237c-.083-1.079 0-2.158.166-3.237.249-1.328.581-2.656 1.162-3.901.498-1.245 1.162-2.407 1.992-3.569.747-1.079 1.743-2.158 2.822-3.071a19.45 19.45 0 0 1 3.569-2.158c1.245-.581 2.573-.913 3.901-1.162 1.245-.249 2.573-.332 3.901-.332a34.8 34.8 0 0 1 4.15.249c1.411.249 2.739.581 3.984 1.079a12.18 12.18 0 0 1 3.32 1.992c.996.913 1.826 1.909 2.49 3.071a11.39 11.39 0 0 1 1.162 3.818c.166 1.411.166 2.739-.083 4.15v.415c-.083.083-.083.249-.083.332h-11.37v-.249c.083-.664.166-1.328.083-1.992a6.89 6.89 0 0 0-.498-1.743c-.332-.581-.747-.996-1.328-1.245s-1.162-.415-1.826-.415c-.747 0-1.577.166-2.241.498-.747.332-1.411.83-1.909 1.411-.581.664-.996 1.328-1.245 2.075-.332.747-.581 1.577-.747 2.324-.166 1.079-.166 2.158.083 3.237s.581 1.992 1.162 2.905c.498.913 1.079 1.743 1.826 2.49l2.324 2.158 2.324 1.992 2.158 2.158c.747.747 1.411 1.577 2.075 2.407l1.743 2.573c.498.913.913 1.826 1.328 2.822s.664 1.992.913 3.071.332 2.075.415 3.154a22.35 22.35 0 0 1-.249 3.32c-.249 1.411-.581 2.739-1.162 3.984-.581 1.328-1.245 2.573-2.075 3.652a17.92 17.92 0 0 1-3.071 3.071c-1.162.913-2.407 1.577-3.652 2.158-1.328.581-2.656.913-3.984 1.162-1.411.166-2.739.249-4.067.249z"/><use xlink:href="#G"/><use xlink:href="#H"/><path d="M2582.98 3810.664a28.23 28.23 0 0 1-3.735-.249c-1.245-.166-2.49-.415-3.652-.913-1.162-.415-2.241-.913-3.154-1.66-.996-.664-1.826-1.494-2.573-2.407a10.17 10.17 0 0 1-1.743-3.071c-.498-1.079-.83-2.241-.996-3.486-.249-1.245-.249-2.49-.166-3.735l.415-3.818 1.66-9.959a26.92 26.92 0 0 1 1.079-4.067c.415-1.328 1.079-2.573 1.909-3.818.747-1.245 1.743-2.324 2.905-3.32a18.55 18.55 0 0 1 3.652-2.407c1.328-.581 2.739-.996 4.15-1.245s2.739-.332 4.067-.332a37.62 37.62 0 0 1 4.316.249c1.411.249 2.739.581 3.984 1.079 1.245.581 2.407 1.245 3.486 2.075.996.913 1.826 1.909 2.407 3.071.581 1.245.996 2.49 1.245 3.901.166 1.411.166 2.822-.083 4.233v.332c-.083.083-.083.249-.083.332h-11.37v-.249c.083-.664.166-1.328.083-2.075-.083-.664-.249-1.245-.581-1.826a2.93 2.93 0 0 0-1.411-1.245c-.581-.249-1.245-.415-1.992-.415-.83 0-1.66.166-2.49.581-.913.415-1.577.996-2.158 1.743a7.41 7.41 0 0 0-1.245 2.407c-.332.83-.581 1.66-.664 2.573l-1.66 9.959a16.21 16.21 0 0 0-.249 2.822c0 .996.166 1.909.498 2.739.249.83.83 1.494 1.577 1.992s1.66.747 2.573.747c.83 0 1.66-.166 2.49-.581.747-.332 1.494-.83 2.075-1.494.581-.581 1.079-1.328 1.494-2.075s.747-1.577.996-2.324l10.623 3.403c-.747 1.743-1.66 3.486-2.822 5.063-1.162 1.66-2.573 3.071-4.15 4.15-1.577 1.162-3.32 1.992-5.146 2.49a18.83 18.83 0 0 1-5.561.83z"/><use xlink:href="#I"/></g><g transform="matrix(.444294 0 0 .270244 -523.404 52.4934)"><g transform="matrix(.9645 0 0 1 79.2719 0)"><path d="M2235.49 3810v-9.461h9.461l6.888-42.078h-8.133V3749h29.048v9.461h-9.378l-6.971 42.078h8.133V3810h-29.048zm39.01 0l7.137-43.156h11.453l-.747 4.233c.415-.747.996-1.411 1.577-2.075.581-.581 1.162-1.162 1.909-1.66.664-.415 1.411-.747 2.241-.913.747-.166 1.577-.249 2.324-.249 1.411 0 2.822.249 4.15.747 1.328.581 2.49 1.328 3.403 2.324s1.66 2.158 2.158 3.403a17.14 17.14 0 0 1 .996 4.067c.166 1.411.249 2.905.166 4.316a41.12 41.12 0 0 1-.498 4.482l-4.067 24.483h-11.453l4.316-26.06.249-1.826c.083-.581.083-1.079.083-1.743l-.166-1.66c-.083-.581-.332-1.079-.581-1.577a3.35 3.35 0 0 0-1.079-1.079c-.498-.249-1.079-.415-1.66-.415-.747 0-1.411.166-2.158.498s-1.328.747-1.826 1.328c-.581.581-.913 1.245-1.162 1.992l-.664 2.158-4.648 28.384H2274.5z"/></g><path d="M2330.42 3810.664c-1.201 0-2.401-.083-3.602-.249s-2.401-.415-3.522-.913c-1.121-.415-2.161-.913-3.042-1.66-.961-.664-1.761-1.494-2.481-2.407s-1.281-1.909-1.681-3.071c-.48-1.079-.8-2.241-.961-3.486-.24-1.245-.24-2.49-.16-3.735l.4-3.818 1.601-9.959c.24-1.328.56-2.656 1.041-4.067.4-1.328 1.041-2.573 1.841-3.818.72-1.245 1.681-2.324 2.802-3.32a17.85 17.85 0 0 1 3.522-2.407 17.25 17.25 0 0 1 4.002-1.245c1.361-.249 2.642-.332 3.922-.332a35.01 35.01 0 0 1 4.162.249c1.361.249 2.642.581 3.842 1.079 1.201.581 2.321 1.245 3.362 2.075.961.913 1.761 1.909 2.321 3.071a15.71 15.71 0 0 1 1.201 3.901c.16 1.411.16 2.822-.08 4.233v.332c-.08.083-.08.249-.08.332h-10.966v-.249c.08-.664.16-1.328.08-2.075-.08-.664-.24-1.245-.56-1.826a2.86 2.86 0 0 0-1.361-1.245 4.69 4.69 0 0 0-1.921-.415c-.8 0-1.601.166-2.401.581-.881.415-1.521.996-2.081 1.743a7.51 7.51 0 0 0-1.201 2.407c-.32.83-.56 1.66-.64 2.573l-1.601 9.959a16.79 16.79 0 0 0-.24 2.822c0 .996.16 1.909.48 2.739.24.83.8 1.494 1.521 1.992s1.601.747 2.481.747c.8 0 1.601-.166 2.401-.581.72-.332 1.441-.83 2.001-1.494.56-.581 1.041-1.328 1.441-2.075s.72-1.577.961-2.324l10.246 3.403c-.72 1.743-1.601 3.486-2.722 5.063-1.121 1.66-2.481 3.071-4.002 4.15-1.521 1.162-3.202 1.992-4.963 2.49a17.57 17.57 0 0 1-5.363.83z"/><g transform="matrix(.9645 0 0 1 83.4662 0)"><path d="M2375.384 3810.664c-1.411 0-2.739-.083-4.067-.332a10.8 10.8 0 0 1-3.652-1.411c-1.079-.581-2.075-1.411-2.822-2.49-.83-.996-1.411-2.075-1.826-3.32s-.581-2.49-.581-3.901.083-2.739.332-4.15l3.071-18.756h-8.133v-9.461h21.163l-4.897 29.795c-.083.415-.083.913-.166 1.328-.083.498 0 .996.083 1.411s.249.83.498 1.245a1.08 1.08 0 0 0 .996.581c.581 0 1.245-.083 1.909-.332s1.245-.581 1.743-1.079c.498-.415.913-.996 1.245-1.577s.581-1.162.747-1.826l9.046 1.577c-.415 1.66-1.079 3.237-1.909 4.814a15.96 15.96 0 0 1-3.237 4.233 12.57 12.57 0 0 1-4.482 2.739 13.92 13.92 0 0 1-5.063.913zm-.249-48.8c-1.245 0-2.324-.249-3.403-.664-1.079-.332-1.992-.996-2.656-1.992a6.02 6.02 0 0 1-1.328-3.071c-.166-1.162-.166-2.324 0-3.569.166-.83.498-1.66.913-2.407.415-.664.913-1.328 1.66-1.909a8.44 8.44 0 0 1 2.324-1.079 12.67 12.67 0 0 1 2.49-.249c1.162 0 2.324.249 3.403.581 1.079.415 1.992 1.079 2.656 1.992a8.82 8.82 0 0 1 1.328 3.154 10.36 10.36 0 0 1-.083 3.569c-.166.83-.415 1.66-.83 2.324a5.47 5.47 0 0 1-1.743 1.909c-.747.581-1.494.913-2.324 1.079-.83.249-1.66.332-2.407.332zm28.47 48.8c-1.411 0-2.739-.249-3.984-.913-1.245-.581-2.241-1.411-2.905-2.49-.747-1.079-1.328-2.241-1.66-3.569-.332-1.245-.498-2.573-.581-3.984-.083-1.328-.083-2.739.083-4.15a36.76 36.76 0 0 1 .498-4.233l1.66-9.959c.166-1.245.415-2.407.83-3.652.332-1.162.83-2.324 1.411-3.486s1.245-2.241 2.158-3.32c.83-.996 1.826-1.826 2.905-2.573s2.241-1.245 3.486-1.66c1.245-.332 2.407-.498 3.652-.498 1.079 0 2.158.166 3.154.498s1.826.83 2.573 1.577c.664.747 1.162 1.577 1.577 2.49s.664 1.909.913 2.905l4.067-24.649h11.453l-8.382 50.709c-.083.415.083.747.332.996.249.332.498.498.913.498h1.411v9.461h-2.988c-1.245 0-2.49-.083-3.735-.332-1.328-.249-2.407-.664-3.486-1.245s-1.909-1.328-2.656-2.324-1.162-2.075-1.328-3.32c-.581 1.079-1.328 1.992-2.075 2.905-.83.913-1.743 1.743-2.739 2.407a12.16 12.16 0 0 1-3.154 1.494c-1.162.249-2.324.415-3.403.415zm6.307-9.461c.747 0 1.494-.166 2.241-.498.747-.249 1.328-.747 1.909-1.328.498-.581.913-1.245 1.162-1.992s.498-1.411.581-2.158l1.66-9.959.332-1.992c.083-.664.083-1.328.083-1.992l-.083-1.909c-.083-.581-.249-1.245-.498-1.826s-.581-.996-1.079-1.411c-.498-.332-1.079-.498-1.743-.498-.83 0-1.66.249-2.49.664s-1.494.996-2.075 1.743-1.079 1.494-1.328 2.324c-.332.913-.581 1.743-.664 2.573l-1.66 9.959-.249 1.826a6.13 6.13 0 0 0 0 1.743l.332 1.743c.083.581.332 1.162.664 1.577.249.415.664.747 1.245.996.498.249 1.079.415 1.66.415zm42.652 9.461a29.49 29.49 0 0 1-3.818-.249c-1.245-.166-2.49-.415-3.652-.83s-2.241-.913-3.237-1.66a12.24 12.24 0 0 1-2.656-2.407c-.747-.913-1.411-1.909-1.826-2.988-.498-1.079-.83-2.324-1.079-3.569s-.249-2.49-.166-3.735l.415-3.901 1.66-9.959c.249-1.411.581-2.739 1.079-4.15a13.37 13.37 0 0 1 1.992-3.901c.83-1.162 1.826-2.324 3.071-3.32 1.162-.913 2.407-1.743 3.818-2.324 1.328-.581 2.739-.913 4.15-1.162s2.739-.332 4.15-.332c1.494 0 2.988.083 4.399.332s2.739.581 3.984 1.162 2.407 1.411 3.403 2.324 1.743 2.075 2.407 3.32c.581 1.245.913 2.573 1.162 3.984.166 1.411.166 2.905-.083 4.399-.249 1.245-.664 2.49-1.245 3.735-.664 1.245-1.494 2.407-2.49 3.403s-2.075 1.826-3.32 2.407a18.17 18.17 0 0 1-3.818 1.494c-1.328.332-2.656.581-3.984.664l-3.901.166c-.996 0-1.992 0-2.988-.083-.996 0-1.992-.083-2.988-.166-.166.996-.166 1.992-.083 2.988.083 1.079.332 1.992.83 2.822.415.913 1.079 1.577 1.992 1.992s1.826.664 2.822.664c.747 0 1.494-.083 2.241-.332a9.55 9.55 0 0 0 2.075-.996c.581-.332 1.162-.913 1.66-1.494a8.08 8.08 0 0 0 1.245-1.992l9.544 4.067a18.08 18.08 0 0 1-3.071 4.067c-1.245 1.245-2.573 2.324-4.067 3.154-1.577.913-3.154 1.494-4.731 1.909a25.14 25.14 0 0 1-4.897.498zm1.66-25.977c.747 0 1.494-.083 2.241-.166s1.411-.332 2.075-.747c.664-.332 1.245-.83 1.743-1.494s.83-1.328.913-2.075.083-1.411-.083-2.158c-.166-.664-.498-1.245-.913-1.66a5.97 5.97 0 0 0-1.743-.996c-.664-.249-1.328-.332-2.075-.332-.913 0-1.909.166-2.822.581-.996.415-1.826.996-2.49 1.743s-1.162 1.66-1.494 2.573c-.415.996-.664 1.992-.83 2.905l-.249 1.577 2.822.166c.913.083 1.909.083 2.905.083zM2475.64 3810l7.137-43.156h11.453l-.747 4.233c.415-.747.996-1.411 1.577-2.075.581-.581 1.162-1.162 1.909-1.66.664-.415 1.411-.747 2.241-.913.747-.166 1.577-.249 2.324-.249 1.411 0 2.822.249 4.15.747 1.328.581 2.49 1.328 3.403 2.324s1.66 2.158 2.158 3.403a17.14 17.14 0 0 1 .996 4.067c.166 1.411.249 2.905.166 4.316a41.12 41.12 0 0 1-.498 4.482l-4.067 24.483h-11.453l4.316-26.06.249-1.826c.083-.581.083-1.079.083-1.743l-.166-1.66c-.083-.581-.332-1.079-.581-1.577a3.35 3.35 0 0 0-1.079-1.079c-.498-.249-1.079-.415-1.66-.415-.747 0-1.411.166-2.158.498s-1.328.747-1.826 1.328c-.581.581-.913 1.245-1.162 1.992l-.664 2.158-4.648 28.384h-11.453zm63.742.664a19.32 19.32 0 0 1-4.399-.498c-1.494-.332-2.822-.913-3.901-1.826-1.162-.83-2.158-1.826-2.822-3.071-.747-1.245-1.328-2.573-1.577-3.984a15.25 15.25 0 0 1-.415-4.399c0-1.577.166-3.071.415-4.565l2.656-16.018h-4.731v-9.461h6.307l2.905-17.844h11.453l-2.905 17.844h11.287v9.461h-12.864l-2.905 17.595c-.083.415-.083.913-.166 1.328l-.166 1.411v1.411c0 .498.083.913.166 1.328s.332.83.581 1.245.664.581 1.079.581.83-.166 1.245-.498a2.86 2.86 0 0 0 .996-.996l.747-1.245c.249-.332.415-.83.581-1.245s.332-.913.415-1.328l.332-1.328 10.623 3.569c-.581 1.577-1.328 3.154-2.158 4.731-.913 1.577-2.075 2.905-3.32 4.15a12.57 12.57 0 0 1-4.482 2.739c-1.66.581-3.32.913-4.98.913z"/></g></g></g><circle cx="469.904" cy="1771.9" r="1.904" transform="matrix(1 0 0 .858179 -298.634 -1436.4)"/><circle cx="469.904" cy="1771.9" r="1.904" transform="matrix(1 0 0 .858179 -296.985 -1374.42)"/><circle cx="469.904" cy="1771.9" r="1.904" transform="matrix(1 0 0 .858179 -123.634 -1380.2)"/><circle cx="469.904" cy="1771.9" r="1.904" transform="matrix(1 0 0 .858179 -125.538 -1442.4)"/></g></g><defs ><path id="E" d="M400 75.792c0-4.779-4.521-8.659-10.09-8.659H125.976c-5.569 0-10.09 3.88-10.09 8.659v73.044c0 4.779 4.521 8.659 10.09 8.659H389.91c5.569 0 10.09-3.88 10.09-8.659V75.792z"/><path id="F" d="M222.332 856.399h47.027v109.365h-47.027z"/><path id="G" d="M2506.214 3810.664c-1.411 0-2.739-.083-4.067-.332a10.8 10.8 0 0 1-3.652-1.411c-1.079-.581-2.075-1.411-2.822-2.49-.83-.996-1.411-2.075-1.826-3.32s-.581-2.49-.581-3.901.083-2.739.332-4.15l3.071-18.756h-8.133v-9.461h21.163l-4.897 29.795c-.083.415-.083.913-.166 1.328-.083.498 0 .996.083 1.411s.249.83.498 1.245a1.08 1.08 0 0 0 .996.581c.581 0 1.245-.083 1.909-.332s1.245-.581 1.743-1.079c.498-.415.913-.996 1.245-1.577s.581-1.162.747-1.826l9.046 1.577c-.415 1.66-1.079 3.237-1.909 4.814s-1.909 2.988-3.237 4.233-2.822 2.158-4.482 2.739c-1.743.664-3.403.913-5.063.913zm-.249-48.8c-1.245 0-2.324-.249-3.403-.664-1.079-.332-1.992-.996-2.656-1.992a6.02 6.02 0 0 1-1.328-3.071c-.166-1.162-.166-2.324 0-3.569.166-.83.498-1.66.913-2.407.415-.664.913-1.328 1.66-1.909.747-.498 1.494-.83 2.324-1.079.83-.166 1.66-.249 2.49-.249 1.162 0 2.324.249 3.403.581 1.079.415 1.992 1.079 2.656 1.992.664.996 1.079 1.992 1.328 3.154a10.36 10.36 0 0 1-.083 3.569c-.166.83-.415 1.66-.83 2.324-.415.747-.996 1.411-1.743 1.909-.747.581-1.494.913-2.324 1.079-.83.249-1.66.332-2.407.332z"/><path id="H" d="M2523.48 3810l7.137-43.156h11.453l-.747 4.233c.415-.747.996-1.411 1.577-2.075.581-.581 1.162-1.162 1.909-1.66.664-.415 1.411-.747 2.241-.913.747-.166 1.577-.249 2.324-.249 1.411 0 2.822.249 4.15.747 1.328.581 2.49 1.328 3.403 2.324s1.66 2.158 2.158 3.403a17.14 17.14 0 0 1 .996 4.067c.166 1.411.249 2.905.166 4.316-.083 1.494-.249 2.988-.498 4.482l-4.067 24.483h-11.453l4.316-26.06.249-1.826c.083-.581.083-1.079.083-1.743l-.166-1.66c-.083-.581-.332-1.079-.581-1.577a3.35 3.35 0 0 0-1.079-1.079c-.498-.249-1.079-.415-1.66-.415-.747 0-1.411.166-2.158.498s-1.328.747-1.826 1.328c-.581.581-.913 1.245-1.162 1.992l-.664 2.158-4.648 28.384h-11.453z"/><path id="I" d="M2624.894 3810.664c-1.245 0-2.573-.083-3.818-.249s-2.49-.415-3.652-.83-2.241-.913-3.237-1.66a12.24 12.24 0 0 1-2.656-2.407c-.747-.913-1.411-1.909-1.826-2.988-.498-1.079-.83-2.324-1.079-3.569s-.249-2.49-.166-3.735l.415-3.901 1.66-9.959c.249-1.411.581-2.739 1.079-4.15.415-1.328 1.079-2.656 1.992-3.901.83-1.162 1.826-2.324 3.071-3.32 1.162-.913 2.407-1.743 3.818-2.324 1.328-.581 2.739-.913 4.15-1.162s2.739-.332 4.15-.332c1.494 0 2.988.083 4.399.332s2.739.581 3.984 1.162 2.407 1.411 3.403 2.324 1.743 2.075 2.407 3.32c.581 1.245.913 2.573 1.162 3.984.166 1.411.166 2.905-.083 4.399-.249 1.245-.664 2.49-1.245 3.735-.664 1.245-1.494 2.407-2.49 3.403s-2.075 1.826-3.32 2.407a18.17 18.17 0 0 1-3.818 1.494c-1.328.332-2.656.581-3.984.664l-3.901.166c-.996 0-1.992 0-2.988-.083-.996 0-1.992-.083-2.988-.166-.166.996-.166 1.992-.083 2.988.083 1.079.332 1.992.83 2.822.415.913 1.079 1.577 1.992 1.992s1.826.664 2.822.664c.747 0 1.494-.083 2.241-.332a9.55 9.55 0 0 0 2.075-.996c.581-.332 1.162-.913 1.66-1.494a8.08 8.08 0 0 0 1.245-1.992l9.544 4.067c-.83 1.494-1.826 2.822-3.071 4.067s-2.573 2.324-4.067 3.154c-1.577.913-3.154 1.494-4.731 1.909a25.14 25.14 0 0 1-4.897.498zm1.66-25.977c.747 0 1.494-.083 2.241-.166s1.411-.332 2.075-.747c.664-.332 1.245-.83 1.743-1.494s.83-1.328.913-2.075.083-1.411-.083-2.158c-.166-.664-.498-1.245-.913-1.66a5.97 5.97 0 0 0-1.743-.996c-.664-.249-1.328-.332-2.075-.332-.913 0-1.909.166-2.822.581-.996.415-1.826.996-2.49 1.743s-1.162 1.66-1.494 2.573c-.415.996-.664 1.992-.83 2.905l-.249 1.577 2.822.166c.913.083 1.909.083 2.905.083z"/></defs></svg>