<svg xmlns="http://www.w3.org/2000/svg" xmlns:xlink="http://www.w3.org/1999/xlink" width="100%" height="100%" viewBox="0 0 285 106" fill-rule="evenodd" stroke-linecap="round" stroke-linejoin="round" stroke-miterlimit="1.5" xmlns:v="https://vecta.io/nano"><g transform="matrix(.999996 0 0 1.16526 -115.133143 -78.084751)"><use xlink:href="#C" fill="url(#B)"/><clipPath id="A"><use xlink:href="#C"/></clipPath><g clip-path="url(#A)"><g fill="#2c2c54" fill-rule="nonzero"><path d="M180.447 104.645h-6.762v14.245h-4.549v-14.245h-6.671v-2.854h17.982v2.854zm6.581 2.924c1.163-1.08 2.623-1.621 4.382-1.621 3.558 0 5.362 1.601 5.413 4.803v8.138h-4.382v-8.044c0-.728-.202-1.267-.607-1.615s-1.076-.522-2.016-.522c-1.284 0-2.214.384-2.79 1.151v9.031h-4.382v-18.038h4.382v6.717zm20.651 11.556c-2.406 0-4.364-.571-5.876-1.714s-2.267-2.666-2.267-4.568v-.329c0-1.276.318-2.417.955-3.423s1.539-1.782 2.706-2.326 2.499-.816 3.995-.816c2.244 0 4.011.548 5.3 1.644s1.933 2.65 1.933 4.662v1.386h-10.447c.142.83.569 1.496 1.281 1.996s1.615.752 2.707.752c1.688 0 3.007-.474 3.957-1.421l2.153 1.867c-.657.721-1.547 1.282-2.669 1.685s-2.365.605-3.73.605zm-.5-10.428c-.869 0-1.574.227-2.115.681s-.887 1.104-1.038 1.95h6.095v-.27c-.02-.752-.283-1.333-.789-1.744s-1.223-.617-2.153-.617zm17.755 10.193v-17.099h6.793c1.941 0 3.677.338 5.208 1.016s2.727 1.64 3.586 2.889 1.289 2.668 1.289 4.257v.787c0 1.589-.422 3.002-1.266 4.239s-2.034 2.196-3.571 2.878-3.27 1.025-5.201 1.033h-6.838zm4.549-14.245v11.415h2.198c1.779 0 3.139-.45 4.079-1.351s1.42-2.188 1.44-3.864v-.904c0-1.738-.465-3.055-1.395-3.952s-2.29-1.345-4.079-1.345h-2.244z"/><use xlink:href="#D"/><path d="M269.163 119.125c-2.406 0-4.364-.571-5.876-1.714s-2.267-2.666-2.267-4.568v-.329c0-1.276.318-2.417.955-3.423s1.539-1.782 2.707-2.326 2.499-.816 3.995-.816c2.244 0 4.011.548 5.299 1.644s1.933 2.65 1.933 4.662v1.386h-10.447c.142.83.569 1.496 1.281 1.996s1.615.752 2.706.752c1.688 0 3.008-.474 3.957-1.421l2.153 1.867c-.657.721-1.547 1.282-2.669 1.685s-2.365.605-3.73.605zm-.5-10.428c-.869 0-1.574.227-2.115.681s-.887 1.104-1.038 1.95h6.095v-.27c-.02-.752-.283-1.333-.789-1.744s-1.223-.617-2.153-.617zm24.502 3.958c0 1.957-.574 3.525-1.721 4.703s-2.696 1.767-4.648 1.767c-1.658 0-2.997-.446-4.018-1.339v5.989h-4.382v-17.592h4.064l.152 1.245c1.061-.987 2.446-1.48 4.155-1.48 2.022 0 3.593.579 4.716 1.738s1.683 2.756 1.683 4.791v.176zm-4.382-.247c0-1.182-.27-2.094-.811-2.736s-1.327-.963-2.358-.963c-1.375 0-2.32.407-2.835 1.221v5.202c.536.838 1.491 1.257 2.866 1.257 2.092 0 3.138-1.327 3.138-3.981zm26.564 1.997c0-.665-.303-1.177-.91-1.533s-1.698-.732-3.275-1.127-2.825-.785-3.745-1.169c-2.507-1.049-3.76-2.462-3.76-4.239 0-.924.336-1.748 1.008-2.472s1.637-1.29 2.896-1.697 2.671-.611 4.238-.611c1.577 0 2.982.221 4.215.664s2.191 1.067 2.873 1.873 1.024 1.722 1.024 2.748h-4.549c0-.783-.318-1.392-.955-1.826s-1.531-.652-2.683-.652c-1.112 0-1.976.182-2.593.546s-.925.844-.925 1.439c0 .556.361 1.022 1.084 1.397s1.787.728 3.191 1.057c2.588.603 4.473 1.351 5.656 2.243s1.774 2.004 1.774 3.335c0 1.48-.723 2.64-2.168 3.482s-3.391 1.262-5.838 1.262c-1.698 0-3.245-.241-4.64-.722s-2.459-1.141-3.192-1.979-1.099-1.808-1.099-2.912h4.564c0 1.887 1.456 2.83 4.367 2.83 1.081 0 1.926-.17 2.532-.511s.91-.816.91-1.427zm14.905 4.72c-2.406 0-4.364-.571-5.876-1.714s-2.267-2.666-2.267-4.568v-.329c0-1.276.318-2.417.955-3.423s1.539-1.782 2.706-2.326 2.499-.816 3.995-.816c2.244 0 4.011.548 5.299 1.644s1.933 2.65 1.933 4.662v1.386H326.55c.142.83.569 1.496 1.281 1.996s1.615.752 2.706.752c1.688 0 3.008-.474 3.957-1.421l2.153 1.867c-.657.721-1.547 1.282-2.669 1.685s-2.365.605-3.73.605zm-.5-10.428c-.869 0-1.574.227-2.115.681s-.887 1.104-1.038 1.95h6.095v-.27c-.02-.752-.283-1.333-.789-1.744s-1.223-.617-2.153-.617zm19.241 10.193c-.202-.305-.349-.685-.439-1.139-1.061.916-2.441 1.374-4.14 1.374-1.607 0-2.939-.36-3.995-1.08s-1.584-1.629-1.584-2.725c0-1.347.644-2.38 1.933-3.101s3.151-1.084 5.587-1.092h2.017v-.728c0-.587-.195-1.057-.584-1.409s-1.003-.529-1.843-.529c-.738 0-1.317.137-1.736.411s-.629.65-.629 1.127h-4.382c0-.736.293-1.417.879-2.043s1.415-1.118 2.487-1.474 2.274-.534 3.609-.534c2.022 0 3.626.393 4.814 1.18s1.782 1.892 1.782 3.317v5.508c.01 1.206.227 2.118.652 2.737v.199h-4.427zm-3.624-2.36c.647 0 1.243-.112 1.789-.335s.95-.523 1.213-.899v-2.184h-1.637c-2.193 0-3.361.587-3.503 1.761l-.015.2c0 .423.192.771.576 1.045s.91.411 1.577.411z"/></g><path d="M110.132 138.415s24.371-15.96 58-.997 72.605 9.252 89.81 4.986c14.815-3.674 70.521-12.937 101.19-1.994 29.537 10.539 33.6 5.606 46 3.989 10.965-1.429 0 17.389 0 17.389h-295v-23.372z" fill="#00869a" stroke="#fff" stroke-width="1.837"/></g></g><defs><linearGradient id="B" x1="0" y1="0" x2="1" y2="0" gradientUnits="userSpaceOnUse" gradientTransform="matrix(6.44747e-15,90.3621,-105.295,5.53308e-15,260.065,67.1328)"><stop offset="0" stop-color="#bee4e3"/><stop offset="1" stop-color="#e0e9c7"/></linearGradient><path id="C" d="M400 75.792c0-4.779-4.521-8.659-10.09-8.659H125.976c-5.569 0-10.09 3.88-10.09 8.659v73.044c0 4.779 4.521 8.659 10.09 8.659H389.91c5.569 0 10.09-3.88 10.09-8.659V75.792z"/><path id="D" d="M252.378 119.125c-2.406 0-4.364-.571-5.876-1.714s-2.267-2.666-2.267-4.568v-.329c0-1.276.318-2.417.955-3.423s1.539-1.782 2.707-2.326 2.499-.816 3.995-.816c2.244 0 4.011.548 5.299 1.644s1.933 2.65 1.933 4.662v1.386h-10.447c.142.83.569 1.496 1.281 1.996s1.615.752 2.706.752c1.688 0 3.008-.474 3.957-1.421l2.153 1.867c-.657.721-1.547 1.282-2.669 1.685s-2.365.605-3.73.605zm-.5-10.428c-.869 0-1.574.227-2.115.681s-.887 1.104-1.038 1.95h6.095v-.27c-.02-.752-.283-1.333-.789-1.744s-1.223-.617-2.153-.617z"/></defs></svg>