<svg xmlns="http://www.w3.org/2000/svg" xmlns:xlink="http://www.w3.org/1999/xlink" width="100%" height="100%" viewBox="0 0 287 108" fill-rule="evenodd" stroke-linejoin="round" stroke-miterlimit="1.5" xmlns:v="https://vecta.io/nano"><style><![CDATA[.B{stroke:#1d1d1f}.C{stroke-width:4.59}.D{fill:#1d1d1f}.E{stroke-width:16.09}]]></style><g transform="matrix(.999996 0 0 1.16526 -114.885266 -77.226468)"><use xlink:href="#H" fill="url(#B)"/><clipPath id="A"><use xlink:href="#H"/></clipPath><g clip-path="url(#A)"><g transform="matrix(1.09103 0 0 1.09103 -19.2746 -10.2245)"><g transform="matrix(.662848 .148087 -.209473 .690526 462.684 -1190.89)"><use xlink:href="#I" fill="none" stroke="#000" stroke-width="1.8"/><use xlink:href="#I" fill="url(#C)"/></g><g transform="matrix(.096501 .02165 -.025228 .082815 156.017 74.2554)"><use xlink:href="#J" fill="url(#D)"/><g class="D"><use xlink:href="#K"/><g class="B C"><circle cx="112.904" cy="102.185" r="42.34"/><circle cx="112.904" cy="207.186" r="42.34"/></g></g><g fill="#fff" class="E B"><circle cx="121.039" cy="121.324" r="42.34" transform="matrix(.285639 0 0 .285639 78.3306 67.5293)"/><circle cx="121.039" cy="121.324" r="42.34" transform="matrix(.285639 0 0 .285639 78.3306 172.531)"/></g><circle cx="220.937" cy="154.429" r="42.34" class="B C D"/><g fill="#fff" class="B"><circle cx="121.039" cy="121.324" r="42.34" transform="matrix(.285639 0 0 .285639 186.364 119.774)" class="E"/><g class="C"><circle cx="220.937" cy="76.124" r="15.123"/></g></g><circle cx="216.512" cy="231.257" r="15.123" class="B C D"/></g><g transform="matrix(.095876 .023608 -.027509 .082279 158.646 117.419)"><use xlink:href="#J" fill="url(#D)"/><g class="D"><use xlink:href="#K"/><g class="B C"><circle cx="112.904" cy="102.185" r="42.34"/><circle cx="112.904" cy="207.186" r="42.34"/></g></g><g fill="#fff" class="E B"><circle cx="121.039" cy="121.324" r="42.34" transform="matrix(.285639 0 0 .285639 78.3306 67.5293)"/><circle cx="121.039" cy="121.324" r="42.34" transform="matrix(.285639 0 0 .285639 78.3306 172.531)"/></g><circle cx="220.937" cy="154.429" r="42.34" class="B C D"/><g fill="#fff" class="B"><circle cx="121.039" cy="121.324" r="42.34" transform="matrix(.285639 0 0 .285639 186.364 119.774)" class="E"/><g class="C"><circle cx="220.937" cy="76.124" r="15.123"/></g></g><circle cx="216.512" cy="231.257" r="15.123" class="B C D"/></g></g><g transform="matrix(3.91363 .872708 -1.28443 4.24205 154.252 89.8933)"><g transform="matrix(0 -.05632 .043653 0 -32.4804 14.1936)"><path d="M229.266 582.808c0-3.403-1.695-6.167-3.784-6.167H68.225c-2.088 0-3.784 2.764-3.784 6.167v12.335c0 3.404 1.696 6.167 3.784 6.167h157.257c2.089 0 3.784-2.763 3.784-6.167v-12.335z" fill="url(#E)"/><path d="M231.179 582.808c0-5.123-2.553-9.283-5.697-9.283H68.225c-3.144 0-5.696 4.16-5.696 9.283v12.335c0 5.123 2.552 9.283 5.696 9.283h157.257c3.144 0 5.697-4.16 5.697-9.283v-12.335zm-1.913 0c0-3.403-1.695-6.167-3.784-6.167H68.225c-2.088 0-3.784 2.764-3.784 6.167v12.335c0 3.404 1.696 6.167 3.784 6.167h157.257c2.089 0 3.784-2.763 3.784-6.167v-12.335z"/></g><g transform="matrix(.031841 -.0128 .012228 .019067 -15.2097 -4.31079)"><path d="M235.647 461.704c0-15.555-9.55-28.183-21.315-28.183h-83.916c-11.764 0-21.315 12.628-21.315 28.183s9.551 28.182 21.315 28.182h83.916c11.765 0 21.315-12.628 21.315-28.182z" fill="url(#F)"/><path d="M239.456 461.703c0-18.333-11.257-33.218-25.124-33.218h-83.916c-13.867 0-25.124 14.885-25.124 33.219s11.257 33.218 25.124 33.218h83.916c13.867 0 25.124-14.884 25.124-33.218v-.001zm-3.809.001c0-15.555-9.55-28.183-21.315-28.183h-83.916c-11.764 0-21.315 12.628-21.315 28.183s9.551 28.182 21.315 28.182h83.916c11.765 0 21.315-12.628 21.315-28.182z"/></g><g transform="matrix(.067191 0 0 .043677 -16.6374 -16.756)"><path d="M227.467 396.993c0-2.762-1.841-5.004-4.108-5.004s-4.108 2.242-4.108 5.004v47.577c0 2.762 1.84 5.004 4.108 5.004s4.108-2.242 4.108-5.004v-47.577z" fill="url(#G)"/><path d="M229.491 396.993c0-4.123-2.748-7.47-6.132-7.47s-6.133 3.347-6.133 7.47v47.577c0 4.123 2.748 7.47 6.133 7.47s6.132-3.347 6.132-7.47v-47.577zm-2.024 0c0-2.762-1.841-5.004-4.108-5.004s-4.108 2.242-4.108 5.004v47.577c0 2.762 1.84 5.004 4.108 5.004s4.108-2.242 4.108-5.004v-47.577z"/></g><g transform="matrix(.067191 0 0 .053198 -16.6893 -20.5679)"><circle cx="167.193" cy="440.362" r="3.898"/><use xlink:href="#L"/></g><g transform="matrix(.067191 0 0 .053198 -13.9628 -21.6763)"><circle cx="167.193" cy="440.362" r="3.898"/><use xlink:href="#L"/></g></g><g transform="matrix(.910482 0 0 .781356 49.0521 -1290.18)"><g fill="none" stroke="#000" stroke-width=".22" stroke-miterlimit="2"><path d="M191.308 1766.94h6.47c1.769 0 3.239.27 4.41.83 1.17.55 2.106 1.29 2.806 2.21s1.194 1.97 1.479 3.15a15.46 15.46 0 0 1 .429 3.65c0 1.4-.18 2.71-.539 3.91-.36 1.21-.917 2.26-1.673 3.14-.756.89-1.71 1.58-2.862 2.09-1.152.5-2.52.76-4.106.76h-6.414v-19.74zm6.525 18.69c.922 0 1.848-.14 2.779-.43s1.774-.77 2.53-1.44 1.368-1.58 1.838-2.71.705-2.56.705-4.27c0-1.35-.133-2.5-.401-3.46-.267-.95-.617-1.76-1.05-2.42-.433-.65-.931-1.17-1.493-1.54-.562-.38-1.143-.67-1.742-.87a8.32 8.32 0 0 0-1.797-.41l-1.618-.09h-5.06v17.64h5.309zm12.138-5.92v.17c0 .83.111 1.62.332 2.38.221.75.548 1.41.981 1.99a4.64 4.64 0 0 0 1.632 1.35c.654.33 1.414.5 2.281.5 1.419 0 2.543-.38 3.373-1.12.829-.75 1.401-1.79 1.714-3.11h1.051c-.314 1.66-.991 2.93-2.032 3.81-1.042.89-2.42 1.33-4.134 1.33-1.051 0-1.968-.19-2.751-.57-.783-.37-1.438-.89-1.963-1.55-.526-.65-.917-1.42-1.175-2.32-.258-.89-.387-1.85-.387-2.89 0-.99.133-1.95.401-2.86s.668-1.71 1.202-2.4 1.203-1.25 2.005-1.66c.802-.42 1.746-.63 2.834-.63.995 0 1.875.19 2.64.56s1.406.87 1.922 1.5c.516.64.908 1.38 1.175 2.22s.401 1.73.401 2.69l-.014.32-.014.29h-11.474zm10.424-.91c-.037-.78-.166-1.51-.387-2.2s-.549-1.3-.982-1.82c-.433-.53-.958-.95-1.576-1.26-.617-.32-1.322-.47-2.115-.47-.848 0-1.595.16-2.24.48s-1.189.75-1.631 1.27c-.442.53-.783 1.14-1.023 1.84s-.387 1.42-.442 2.16h10.396zm4.009 3.15c.037.66.184 1.25.442 1.76.258.5.595.94 1.009 1.3s.899.63 1.452.81c.553.19 1.152.28 1.797.28.461 0 .954-.04 1.479-.13.526-.08 1.014-.23 1.466-.45a3.01 3.01 0 0 0 1.12-.93c.295-.4.442-.9.442-1.51 0-.79-.24-1.39-.719-1.79-.479-.41-1.083-.72-1.811-.94s-1.511-.4-2.35-.54a12.06 12.06 0 0 1-2.35-.63c-.728-.27-1.332-.66-1.811-1.17s-.719-1.25-.719-2.22c0-.71.157-1.29.47-1.76s.714-.84 1.203-1.12a5.11 5.11 0 0 1 1.645-.59c.608-.13 1.216-.19 1.825-.19a8.58 8.58 0 0 1 2.073.25c.645.17 1.203.44 1.673.81.47.36.839.83 1.106 1.41.267.57.401 1.26.401 2.07h-1.051c0-.65-.106-1.2-.318-1.66s-.507-.83-.884-1.12c-.378-.28-.825-.5-1.341-.63-.517-.14-1.07-.21-1.659-.21a7.2 7.2 0 0 0-1.452.14c-.488.09-.926.24-1.313.47-.387.22-.705.5-.954.85s-.373.78-.373 1.28c0 .57.138 1.03.414 1.38s.641.63 1.092.84a7.75 7.75 0 0 0 1.521.51l1.701.39 1.976.46c.618.17 1.152.41 1.604.71.452.31.807.7 1.065 1.18s.387 1.09.387 1.82c0 .78-.175 1.41-.526 1.91s-.792.9-1.327 1.2c-.534.31-1.129.52-1.783.64a10.65 10.65 0 0 1-1.922.18c-.811 0-1.562-.11-2.253-.32s-1.295-.53-1.811-.97c-.516-.43-.922-.96-1.217-1.59-.295-.62-.451-1.35-.47-2.18h1.051zm13.05-12.16v-2.85h1.051v2.85h-1.051zm0 16.89v-14.21h1.051v14.21h-1.051zm16.147-14.21v13.46a9.66 9.66 0 0 1-.276 2.31c-.184.75-.502 1.41-.954 1.98s-1.074 1.03-1.866 1.37-1.798.51-3.014.51c-.756 0-1.466-.08-2.129-.24a5.02 5.02 0 0 1-1.742-.74c-.498-.34-.899-.8-1.203-1.36s-.474-1.26-.511-2.09h1.05c.056.63.212 1.17.47 1.61a3.44 3.44 0 0 0 1.01 1.09 4.39 4.39 0 0 0 1.396.62c.516.13 1.069.19 1.659.19.977 0 1.792-.14 2.447-.44.654-.29 1.175-.67 1.562-1.14.387-.48.659-1.01.816-1.61s.235-1.2.235-1.81v-3.26h-.056c-.497 1.05-1.175 1.85-2.032 2.4-.857.56-1.894.83-3.11.83-1.051 0-1.959-.18-2.724-.54s-1.401-.85-1.908-1.49c-.507-.63-.884-1.38-1.133-2.23-.249-.84-.373-1.76-.373-2.76 0-.94.133-1.83.4-2.68s.659-1.59 1.176-2.23a5.77 5.77 0 0 1 1.921-1.52c.765-.38 1.645-.57 2.641-.57 1.124 0 2.161.29 3.11.86s1.627 1.39 2.032 2.43h.056v-2.95h1.05zm-6.248.58c-.867 0-1.618.17-2.254.52a4.76 4.76 0 0 0-1.576 1.38c-.415.58-.728 1.23-.94 1.95a7.94 7.94 0 0 0-.318 2.23c0 .83.106 1.62.318 2.36.212.75.535 1.4.968 1.95.433.56.968.99 1.604 1.32.635.32 1.368.48 2.198.48.866 0 1.622-.16 2.267-.5a4.68 4.68 0 0 0 1.617-1.35 5.92 5.92 0 0 0 .968-1.95c.212-.73.318-1.5.318-2.31 0-.79-.106-1.56-.318-2.29-.212-.74-.535-1.39-.968-1.95-.433-.57-.972-1.01-1.617-1.34-.645-.34-1.401-.5-2.267-.5zm9.345-.58h1.051v3.04h.055c.184-.54.447-1.01.788-1.43a5.45 5.45 0 0 1 1.189-1.06c.452-.29.945-.52 1.479-.66.535-.15 1.078-.23 1.631-.23.83 0 1.535.11 2.116.31s1.055.47 1.424.8.659.71.87 1.12c.212.42.365.83.457 1.26a7.38 7.38 0 0 1 .166 1.23l.027 1.04v8.79h-1.05v-8.99a13.24 13.24 0 0 0-.083-1.32c-.056-.54-.217-1.05-.484-1.54s-.673-.91-1.217-1.26-1.295-.52-2.253-.52c-.811 0-1.53.14-2.157.44s-1.161.7-1.603 1.23a5.46 5.46 0 0 0-1.01 1.88c-.231.73-.345 1.53-.345 2.39v7.69h-1.051v-14.21zm27.262.91h-3.097v9.93c0 .57.065 1.02.194 1.35s.327.59.594.76c.268.18.59.28.968.32s.816.04 1.313.03v.91a9.02 9.02 0 0 1-1.562-.02c-.507-.04-.954-.18-1.341-.41s-.696-.58-.926-1.04-.327-1.09-.29-1.9v-9.93h-2.627v-.91h2.627v-4.43h1.05v4.43h3.097v.91zm2.986-6.44v8.57h.056c.184-.54.447-1.01.788-1.43a5.47 5.47 0 0 1 1.188-1.06c.452-.29.945-.52 1.48-.66a6.01 6.01 0 0 1 1.631-.23c.829 0 1.534.11 2.115.31s1.055.47 1.424.8a3.91 3.91 0 0 1 .871 1.12 5.17 5.17 0 0 1 .456 1.26c.092.42.148.83.166 1.23l.028 1.04v8.79h-1.051v-8.99a13.24 13.24 0 0 0-.083-1.32 4.02 4.02 0 0 0-.484-1.54c-.267-.49-.673-.91-1.216-1.26s-1.295-.52-2.254-.52c-.811 0-1.53.14-2.156.44a4.67 4.67 0 0 0-1.604 1.23c-.442.53-.779 1.15-1.009 1.88s-.346 1.53-.346 2.39v7.69h-1.05v-19.74h1.05zm13.714 12.77v.17c0 .83.111 1.62.332 2.38.221.75.548 1.41.982 1.99a4.64 4.64 0 0 0 1.631 1.35c.654.33 1.415.5 2.281.5 1.419 0 2.544-.38 3.373-1.12.83-.75 1.401-1.79 1.714-3.11h1.051c-.313 1.66-.991 2.93-2.032 3.81-1.042.89-2.42 1.33-4.134 1.33-1.05 0-1.967-.19-2.751-.57-.783-.37-1.438-.89-1.963-1.55-.525-.65-.917-1.42-1.175-2.32-.258-.89-.387-1.85-.387-2.89a10.14 10.14 0 0 1 .401-2.86c.267-.91.668-1.71 1.203-2.4a5.91 5.91 0 0 1 2.004-1.66c.802-.42 1.747-.63 2.834-.63.995 0 1.876.19 2.641.56s1.405.87 1.921 1.5c.516.64.908 1.38 1.175 2.22s.401 1.73.401 2.69l-.014.32-.013.29H300.66zm10.424-.91c-.037-.78-.166-1.51-.387-2.2s-.549-1.3-.982-1.82c-.433-.53-.958-.95-1.576-1.26-.617-.32-1.322-.47-2.115-.47-.848 0-1.594.16-2.239.48a5.11 5.11 0 0 0-1.632 1.27c-.442.53-.783 1.14-1.023 1.84a8.64 8.64 0 0 0-.442 2.16h10.396zm-119.776 24.08h1.52l12.47 18.11h.056v-18.11h1.216v19.74h-1.438l-12.552-18.25h-.056v18.25h-1.216v-19.74z"/><use xlink:href="#M"/><path d="M227.749 1815.16l-5.198-6.75h1.466l4.451 5.95 4.479-5.95h1.355l-5.143 6.75 5.613 7.46h-1.437l-4.867-6.66-4.977 6.66h-1.327l5.585-7.46zm14.737-5.84h-3.096v9.93c0 .57.064 1.02.193 1.35.129.34.327.59.595.76.267.18.59.28.967.32a9.15 9.15 0 0 0 1.314.03v.91c-.535.04-1.056.03-1.562-.01-.507-.05-.954-.19-1.341-.42s-.696-.57-.927-1.03-.327-1.1-.29-1.91v-9.93h-2.627v-.91h2.627v-4.42h1.051v4.42h3.096v.91zm10.977-3.59v-2.85h1.051v2.85h-1.051zm0 16.89v-14.21h1.051v14.21h-1.051zm4.59-19.74h8.405c.553 0 1.166.06 1.839.19s1.299.4 1.88.79c.581.4 1.064.96 1.452 1.69s.58 1.68.58 2.86c0 1.73-.534 3.07-1.603 4.01s-2.599 1.41-4.59 1.41h-6.747v8.79h-1.216v-19.74zm1.216 9.9h6.94c.885 0 1.636-.13 2.254-.4s1.11-.61 1.479-1.04c.369-.42.636-.89.802-1.41s.249-1.03.249-1.55c0-.37-.056-.8-.166-1.31s-.332-1-.664-1.47-.797-.86-1.396-1.19c-.599-.32-1.396-.48-2.392-.48h-7.106v8.85zm15.982-9.9v8.57h.055c.184-.53.447-1.01.788-1.42a5.25 5.25 0 0 1 1.189-1.07 5.44 5.44 0 0 1 1.479-.66c.535-.15 1.078-.22 1.631-.22.83 0 1.535.1 2.116.3.58.21 1.055.47 1.423.8a3.95 3.95 0 0 1 .871 1.13c.212.41.364.83.457 1.25a7.67 7.67 0 0 1 .166 1.23l.027 1.04v8.79h-1.051v-8.98c0-.35-.027-.8-.082-1.33a4.01 4.01 0 0 0-.484-1.53c-.268-.49-.673-.91-1.217-1.26s-1.295-.53-2.253-.53c-.811 0-1.53.15-2.157.44-.627.3-1.161.71-1.604 1.23-.442.53-.778 1.16-1.009 1.88-.23.73-.345 1.53-.345 2.4v7.68H274.2v-19.74h1.051zm12.635 12.64a9.39 9.39 0 0 1 .429-2.87 7.19 7.19 0 0 1 1.258-2.36 6.05 6.05 0 0 1 2.046-1.62c.811-.39 1.742-.59 2.792-.59s1.982.2 2.793.59a6.05 6.05 0 0 1 2.046 1.62 7.19 7.19 0 0 1 1.258 2.36 9.39 9.39 0 0 1 .429 2.87c0 1.01-.143 1.97-.429 2.87-.286.91-.705 1.69-1.258 2.37a6.12 6.12 0 0 1-2.046 1.6c-.811.4-1.742.59-2.793.59s-1.981-.19-2.792-.59a6.12 6.12 0 0 1-2.046-1.6c-.553-.68-.972-1.46-1.258-2.37-.286-.9-.429-1.86-.429-2.87zm1.051 0c0 .84.12 1.66.359 2.44.24.79.59 1.48 1.051 2.09a5.1 5.1 0 0 0 1.714 1.45c.682.36 1.466.54 2.35.54s1.669-.18 2.351-.54a5.1 5.1 0 0 0 1.714-1.45c.461-.61.811-1.3 1.051-2.09.239-.78.359-1.6.359-2.44 0-.85-.12-1.67-.359-2.45a6.69 6.69 0 0 0-1.051-2.09 5.1 5.1 0 0 0-1.714-1.45c-.682-.36-1.466-.54-2.351-.54s-1.668.18-2.35.54a5.1 5.1 0 0 0-1.714 1.45c-.461.61-.811 1.31-1.051 2.09a8.3 8.3 0 0 0-.359 2.45zm14.46-7.11h1.051v3.04h.055c.185-.53.447-1.01.788-1.42a5.27 5.27 0 0 1 1.189-1.07c.452-.29.945-.51 1.48-.66a6 6 0 0 1 1.631-.22c.829 0 1.534.1 2.115.3.581.21 1.055.47 1.424.8a3.95 3.95 0 0 1 .871 1.13 5.1 5.1 0 0 1 .456 1.25 7.56 7.56 0 0 1 .166 1.23l.028 1.04v8.79H313.6v-8.98c0-.35-.028-.8-.083-1.33s-.217-1.05-.484-1.53c-.267-.49-.673-.91-1.216-1.26s-1.295-.53-2.254-.53c-.811 0-1.53.15-2.156.44-.627.3-1.162.71-1.604 1.23-.442.53-.779 1.16-1.009 1.88-.231.73-.346 1.53-.346 2.4v7.68h-1.051v-14.21zm14.765 7.24v.17c0 .83.111 1.62.332 2.38a6.13 6.13 0 0 0 .981 1.99 4.65 4.65 0 0 0 1.632 1.35c.654.34 1.414.5 2.281.5 1.419 0 2.544-.37 3.373-1.12s1.401-1.78 1.714-3.11h1.051c-.313 1.66-.991 2.93-2.032 3.82-1.042.88-2.42 1.32-4.134 1.32-1.051 0-1.968-.18-2.751-.56s-1.438-.9-1.963-1.55c-.525-.66-.917-1.43-1.175-2.32-.258-.9-.387-1.86-.387-2.89 0-1 .133-1.95.401-2.86.267-.92.668-1.72 1.202-2.41a6.04 6.04 0 0 1 2.005-1.66c.802-.41 1.747-.62 2.834-.62.995 0 1.876.18 2.641.55s1.405.87 1.921 1.51.908 1.37 1.175 2.21.401 1.74.401 2.7l-.014.31-.013.29h-11.475zm10.424-.91c-.037-.77-.166-1.5-.387-2.2-.221-.69-.549-1.29-.982-1.82s-.958-.94-1.576-1.26c-.617-.31-1.322-.47-2.115-.47-.848 0-1.594.16-2.24.49-.645.32-1.188.74-1.631 1.27-.442.52-.783 1.13-1.023 1.84-.239.7-.387 1.42-.442 2.15h10.396z"/></g><g fill-rule="nonzero"><path d="M191.308 1766.938h6.47c1.77 0 3.235.276 4.424.829 1.161.553 2.101 1.3 2.793 2.212s1.189 1.963 1.493 3.152a16.06 16.06 0 0 1 .415 3.65c0 1.41-.194 2.71-.525 3.899-.359 1.217-.94 2.267-1.687 3.152s-1.714 1.576-2.848 2.074c-1.161.525-2.544.774-4.12.774h-6.415v-19.742zm6.525 18.691a9.05 9.05 0 0 0 2.793-.442 6.41 6.41 0 0 0 2.516-1.438c.747-.664 1.382-1.576 1.852-2.71s.691-2.544.691-4.258c0-1.355-.138-2.488-.387-3.456-.276-.968-.636-1.77-1.051-2.433-.442-.636-.94-1.161-1.493-1.548-.581-.359-1.161-.664-1.742-.857a11.18 11.18 0 0 0-1.797-.415l-1.631-.083h-5.06v17.64h5.309z"/><use xlink:href="#N"/><path d="M224.404 1781.952c.028.664.194 1.244.442 1.742.249.525.608.94 1.023 1.3.387.359.885.636 1.438.829s1.161.276 1.797.276c.47 0 .968-.055 1.493-.138.525-.055.995-.221 1.465-.442.442-.221.802-.525 1.106-.94.304-.387.442-.885.442-1.493 0-.802-.249-1.382-.719-1.797s-1.078-.719-1.797-.94c-.747-.221-1.521-.387-2.35-.553-.857-.138-1.631-.332-2.35-.608-.747-.276-1.355-.664-1.825-1.189-.47-.498-.719-1.244-.719-2.212 0-.691.166-1.272.47-1.77a3.61 3.61 0 0 1 1.217-1.106c.47-.276 1.023-.47 1.631-.608a10.18 10.18 0 0 1 1.825-.166c.747 0 1.438.083 2.074.249s1.217.442 1.687.802.829.829 1.106 1.41c.249.581.387 1.272.387 2.074h-1.051c0-.636-.111-1.189-.304-1.659-.221-.47-.525-.829-.885-1.134a4.09 4.09 0 0 0-1.355-.636c-.525-.138-1.078-.194-1.659-.194-.47 0-.968.055-1.438.138a3.98 3.98 0 0 0-1.327.47 2.8 2.8 0 0 0-.94.857c-.276.359-.387.774-.387 1.272 0 .581.138 1.023.415 1.382s.636.636 1.106.829c.442.221.94.387 1.521.525l1.687.387 1.991.442c.608.194 1.134.415 1.604.719a3.34 3.34 0 0 1 1.051 1.189c.249.47.387 1.078.387 1.825 0 .774-.166 1.41-.525 1.908a4.2 4.2 0 0 1-1.327 1.189c-.525.304-1.134.525-1.77.664-.664.111-1.3.166-1.935.166a8.27 8.27 0 0 1-2.24-.304 5.07 5.07 0 0 1-1.825-.995c-.525-.415-.912-.94-1.217-1.576s-.442-1.355-.47-2.184h1.051zm13.05-12.166v-2.848h1.051v2.848h-1.051zm0 16.894v-14.212h1.051v14.212h-1.051zm16.147-14.212v13.465a9.4 9.4 0 0 1-.276 2.323 5.4 5.4 0 0 1-.94 1.963c-.47.581-1.078 1.023-1.88 1.382-.802.332-1.797.498-3.014.498-.747 0-1.465-.083-2.129-.221a5.53 5.53 0 0 1-1.742-.747c-.498-.359-.885-.802-1.189-1.355-.304-.581-.498-1.272-.525-2.101h1.051c.055.636.221 1.161.47 1.604a3.25 3.25 0 0 0 1.023 1.106c.415.276.857.47 1.382.608s1.078.194 1.659.194c.968 0 1.797-.138 2.461-.442.636-.304 1.161-.664 1.548-1.134a4.44 4.44 0 0 0 .829-1.604c.138-.608.221-1.217.221-1.825v-3.263h-.055c-.498 1.051-1.161 1.852-2.018 2.405s-1.908.829-3.124.829c-1.051 0-1.963-.166-2.71-.553-.774-.332-1.41-.857-1.908-1.493a5.61 5.61 0 0 1-1.134-2.212 9.82 9.82 0 0 1-.387-2.765 8.64 8.64 0 0 1 .415-2.682c.249-.857.636-1.604 1.161-2.24a5.84 5.84 0 0 1 1.935-1.521c.747-.359 1.631-.553 2.627-.553a5.9 5.9 0 0 1 3.124.857 4.86 4.86 0 0 1 2.018 2.433h.055v-2.958h1.051zm-6.249.581c-.857 0-1.604.166-2.24.525s-1.161.802-1.576 1.382c-.442.581-.747 1.217-.94 1.935a7.85 7.85 0 0 0-.332 2.24 8.19 8.19 0 0 0 .332 2.35 5.22 5.22 0 0 0 .968 1.963c.415.553.968.995 1.604 1.3.636.332 1.355.498 2.184.498.857 0 1.631-.166 2.267-.498a4.81 4.81 0 0 0 1.631-1.355 6.51 6.51 0 0 0 .968-1.963c.194-.719.304-1.493.304-2.295s-.111-1.548-.304-2.295a6.51 6.51 0 0 0-.968-1.963 5.07 5.07 0 0 0-1.631-1.327c-.636-.332-1.41-.498-2.267-.498zm9.346-.581h1.051v3.041h.055a4.91 4.91 0 0 1 .802-1.438 4.84 4.84 0 0 1 1.189-1.051 4.69 4.69 0 0 1 1.465-.664c.525-.138 1.078-.221 1.631-.221.829 0 1.521.111 2.129.304.581.194 1.051.47 1.41.802a4.73 4.73 0 0 1 .885 1.106c.194.415.359.857.442 1.272a9.85 9.85 0 0 1 .166 1.217l.028 1.051v8.792H266.9v-8.986a13.12 13.12 0 0 0-.083-1.327c-.055-.525-.221-1.051-.47-1.548-.276-.47-.691-.885-1.217-1.244-.553-.359-1.3-.525-2.267-.525-.802 0-1.521.138-2.157.442a4.66 4.66 0 0 0-1.604 1.217c-.442.553-.774 1.161-.995 1.88-.249.747-.359 1.548-.359 2.405v7.686h-1.051v-14.212z"/><use xlink:href="#O"/><path d="M286.946 1766.938v8.571h.055a4.91 4.91 0 0 1 .802-1.438 4.84 4.84 0 0 1 1.189-1.051 4.69 4.69 0 0 1 1.465-.664c.525-.138 1.078-.221 1.631-.221.829 0 1.521.111 2.129.304.581.194 1.051.47 1.41.802a4.73 4.73 0 0 1 .885 1.106c.194.415.359.857.442 1.272a9.85 9.85 0 0 1 .166 1.217l.028 1.051v8.792h-1.051v-8.986a13.12 13.12 0 0 0-.083-1.327c-.055-.525-.221-1.051-.47-1.548-.276-.47-.691-.885-1.217-1.244-.553-.359-1.3-.525-2.267-.525-.802 0-1.521.138-2.157.442a4.66 4.66 0 0 0-1.604 1.217c-.442.553-.774 1.161-.995 1.88-.249.747-.359 1.548-.359 2.405v7.686h-1.051v-19.742h1.051zm13.714 12.774v.166c0 .829.111 1.631.332 2.378a6.12 6.12 0 0 0 .995 1.991c.415.581.968 1.023 1.631 1.355.636.332 1.41.498 2.267.498 1.41 0 2.544-.387 3.373-1.134s1.41-1.77 1.714-3.097h1.051c-.304 1.659-.995 2.931-2.018 3.816-1.051.885-2.433 1.327-4.147 1.327-1.051 0-1.963-.194-2.737-.581-.802-.359-1.438-.885-1.963-1.548-.553-.636-.94-1.41-1.189-2.323a10.63 10.63 0 0 1-.387-2.876 10.04 10.04 0 0 1 .415-2.876 7 7 0 0 1 1.189-2.405c.525-.664 1.217-1.244 2.018-1.659s1.742-.608 2.82-.608c.995 0 1.88.194 2.654.553.747.359 1.382.885 1.908 1.493.525.664.912 1.382 1.189 2.212a9.57 9.57 0 0 1 .387 2.71l-.028.608H300.66zm10.424-.912c-.028-.774-.166-1.493-.387-2.212-.221-.691-.553-1.3-.968-1.825-.442-.525-.968-.94-1.576-1.244a4.82 4.82 0 0 0-2.129-.47c-.857 0-1.604.166-2.24.47-.636.332-1.189.774-1.631 1.272-.442.525-.774 1.161-1.023 1.852s-.387 1.41-.442 2.157h10.396zm-119.776 24.078h1.521l12.47 18.11h.055v-18.11h1.217v19.742h-1.438l-12.553-18.248h-.055v18.248h-1.217v-19.742zm18.967 12.774v.166c0 .829.111 1.631.332 2.378a6.12 6.12 0 0 0 .995 1.991c.415.581.968 1.023 1.631 1.355.636.332 1.41.498 2.267.498 1.41 0 2.544-.387 3.373-1.134s1.41-1.77 1.714-3.097h1.051c-.304 1.659-.995 2.931-2.018 3.816-1.051.885-2.433 1.327-4.147 1.327-1.051 0-1.963-.194-2.737-.581-.802-.359-1.438-.885-1.963-1.548-.553-.636-.94-1.41-1.189-2.323a10.63 10.63 0 0 1-.387-2.876 10.04 10.04 0 0 1 .415-2.876 7 7 0 0 1 1.189-2.405c.525-.664 1.217-1.244 2.018-1.659s1.742-.608 2.82-.608c.995 0 1.88.194 2.654.553.747.359 1.382.885 1.908 1.493.525.664.912 1.382 1.189 2.212a9.57 9.57 0 0 1 .387 2.71l-.028.608h-11.474zm10.424-.912c-.028-.774-.166-1.493-.387-2.212-.221-.691-.553-1.3-.968-1.825-.442-.525-.968-.94-1.576-1.244a4.82 4.82 0 0 0-2.129-.47c-.857 0-1.604.166-2.24.47-.636.332-1.189.774-1.631 1.272-.442.525-.774 1.161-1.023 1.852s-.387 1.41-.442 2.157h10.396zm7.05.415l-5.198-6.746h1.465l4.452 5.945 4.479-5.945h1.355l-5.143 6.746 5.613 7.465h-1.438l-4.866-6.663-4.977 6.663h-1.327l5.585-7.465zm14.737-5.834h-3.097v9.926c0 .581.055 1.023.194 1.355s.332.581.608.747c.249.194.581.304.968.332a9.67 9.67 0 0 0 1.3.028v.912c-.525.028-1.051.028-1.548-.028-.525-.028-.968-.166-1.355-.415-.387-.221-.691-.553-.912-1.023-.249-.47-.332-1.106-.304-1.908v-9.926h-2.627v-.912h2.627v-4.424h1.051v4.424h3.097v.912zm10.977-3.595v-2.848h1.051v2.848h-1.051zm0 16.894v-14.212h1.051v14.212h-1.051zm4.59-19.742h8.405a9.38 9.38 0 0 1 1.852.194c.664.138 1.3.387 1.88.774.581.415 1.051.968 1.438 1.687.387.747.581 1.687.581 2.876 0 1.742-.525 3.069-1.604 4.009s-2.599 1.41-4.59 1.41h-6.746v8.792h-1.217v-19.742zm1.217 9.898h6.94c.885 0 1.631-.138 2.267-.415.608-.249 1.106-.608 1.465-1.023a3.99 3.99 0 0 0 .802-1.41 5.03 5.03 0 0 0 .249-1.548c0-.359-.055-.802-.166-1.327-.111-.498-.332-.995-.664-1.465-.332-.442-.802-.857-1.382-1.189-.608-.304-1.41-.47-2.405-.47h-7.106v8.848zm15.981-9.898v8.571h.055a4.91 4.91 0 0 1 .802-1.438 4.84 4.84 0 0 1 1.189-1.051 4.69 4.69 0 0 1 1.465-.664c.525-.138 1.078-.221 1.631-.221.829 0 1.521.111 2.129.304.581.194 1.051.47 1.41.802a4.73 4.73 0 0 1 .885 1.106c.194.415.359.857.442 1.272a9.85 9.85 0 0 1 .166 1.217l.028 1.051v8.792h-1.051v-8.986a13.12 13.12 0 0 0-.083-1.327c-.055-.525-.221-1.051-.47-1.548-.276-.47-.691-.885-1.217-1.244-.553-.359-1.3-.525-2.267-.525-.802 0-1.521.138-2.157.442a4.66 4.66 0 0 0-1.604 1.217c-.442.553-.774 1.161-.995 1.88-.249.747-.359 1.548-.359 2.405v7.686h-1.05v-19.742h1.051zm12.636 12.636c0-1.023.138-1.963.442-2.876a7.1 7.1 0 0 1 1.244-2.35c.553-.691 1.244-1.217 2.046-1.631.802-.387 1.742-.581 2.793-.581s1.991.194 2.793.581c.802.415 1.493.94 2.046 1.631s.968 1.465 1.272 2.35a9.77 9.77 0 0 1 .415 2.876 9.77 9.77 0 0 1-.415 2.876c-.304.912-.719 1.687-1.272 2.35-.553.691-1.244 1.217-2.046 1.604-.802.415-1.742.608-2.793.608s-1.991-.194-2.793-.608c-.802-.387-1.493-.912-2.046-1.604-.553-.664-.968-1.438-1.244-2.35-.304-.912-.442-1.852-.442-2.876zm1.051 0c0 .857.111 1.659.359 2.433.249.802.581 1.493 1.051 2.101s1.023 1.078 1.714 1.438 1.465.553 2.35.553a5 5 0 0 0 2.35-.553c.691-.359 1.244-.829 1.714-1.438s.802-1.3 1.051-2.101c.249-.774.359-1.576.359-2.433s-.111-1.659-.359-2.461c-.249-.774-.581-1.465-1.051-2.074s-1.023-1.078-1.714-1.465c-.691-.359-1.465-.525-2.35-.525s-1.659.166-2.35.525c-.691.387-1.244.857-1.714 1.465s-.802 1.3-1.051 2.074c-.249.802-.359 1.604-.359 2.461zm14.459-7.106h1.051v3.041h.055a4.91 4.91 0 0 1 .802-1.438 4.84 4.84 0 0 1 1.189-1.051 4.69 4.69 0 0 1 1.465-.664c.525-.138 1.078-.221 1.631-.221.829 0 1.521.111 2.129.304.581.194 1.051.47 1.41.802a4.73 4.73 0 0 1 .885 1.106c.194.415.359.857.442 1.272a9.85 9.85 0 0 1 .166 1.217l.028 1.051v8.792h-1.05v-8.986a13.12 13.12 0 0 0-.083-1.327c-.055-.525-.221-1.051-.47-1.548-.276-.47-.691-.885-1.217-1.244-.553-.359-1.3-.525-2.267-.525-.802 0-1.521.138-2.157.442a4.66 4.66 0 0 0-1.604 1.217c-.442.553-.774 1.161-.995 1.88-.249.747-.359 1.548-.359 2.405v7.686h-1.051v-14.212zm14.765 7.244v.166c0 .829.111 1.631.332 2.378a6.12 6.12 0 0 0 .995 1.991c.415.581.968 1.023 1.631 1.355.636.332 1.41.498 2.267.498 1.41 0 2.544-.387 3.373-1.134s1.41-1.77 1.714-3.097h1.051c-.304 1.659-.995 2.931-2.018 3.816-1.051.885-2.433 1.327-4.147 1.327-1.051 0-1.963-.194-2.737-.581-.802-.359-1.438-.885-1.963-1.548-.553-.636-.94-1.41-1.189-2.323a10.63 10.63 0 0 1-.387-2.876 10.04 10.04 0 0 1 .415-2.876 7 7 0 0 1 1.189-2.405c.525-.664 1.217-1.244 2.018-1.659s1.742-.608 2.82-.608c.995 0 1.88.194 2.654.553.747.359 1.382.885 1.908 1.493.525.664.912 1.382 1.189 2.212a9.57 9.57 0 0 1 .387 2.71l-.028.608h-11.474zm10.424-.912c-.028-.774-.166-1.493-.387-2.212-.221-.691-.553-1.3-.968-1.825-.442-.525-.968-.94-1.576-1.244a4.82 4.82 0 0 0-2.129-.47c-.857 0-1.604.166-2.24.47-.636.332-1.189.774-1.631 1.272-.442.525-.774 1.161-1.023 1.852s-.387 1.41-.442 2.157h10.396z"/></g></g></g><use xlink:href="#H" fill="none" stroke="#3d505d" stroke-width="1.84"/></g><defs><linearGradient id="B" x1="0" y1="0" x2="1" y2="0" gradientTransform="matrix(1.19557e-15,16.7561,-19.5252,1.02602e-15,261.408,140.739)" xlink:href="#P"><stop offset="0" stop-color="#fff"/><stop offset="1" stop-color="#e9edf0"/></linearGradient><linearGradient id="C" x1="0" y1="0" x2="1" y2="0" gradientTransform="matrix(49.0902,78.9532,-95.8425,40.4396,122.798,1825.33)" xlink:href="#P"><stop offset="0" stop-color="#fff"/><stop offset="1" stop-color="#c7d2da"/></linearGradient><linearGradient id="D" x1="73.183" y1="63.262" x2="243.398" y2="245.595" xlink:href="#P"><stop offset="0" stop-color="#fff"/><stop offset="1" stop-color="#b3c2cd"/></linearGradient><linearGradient id="E" x1="0" y1="0" x2="1" y2="0" gradientTransform="matrix(-108.406,9.56891,-5.87208,-176.654,177.868,591.741)" xlink:href="#P"><stop offset="0" stop-color="#fff"/><stop offset="1" stop-color="#dce3e8"/></linearGradient><linearGradient id="F" x1="0" y1="0" x2="1" y2="0" gradientTransform="matrix(85.8846,15.8154,-11.9616,113.555,136.134,457.791)" xlink:href="#P"><stop offset="0" stop-color="#fff"/><stop offset="1" stop-color="#dce3e8"/></linearGradient><linearGradient id="G" x1="0" y1="0" x2="1" y2="0" gradientTransform="matrix(-0.719534,34.8726,-28.6314,-0.876382,223.259,409.881)" xlink:href="#P"><stop offset="0" stop-color="#fff"/><stop offset="1" stop-color="#dce3e8"/></linearGradient><path id="H" d="M400 75.792c0-4.779-4.521-8.659-10.09-8.659H125.976c-5.569 0-10.09 3.88-10.09 8.659v73.044c0 4.779 4.521 8.659 10.09 8.659H389.91c5.569 0 10.09-3.88 10.09-8.659V75.792z"/><path id="I" d="M172.914 1820.33c0-4.6-4.528-8.33-10.105-8.33h-38.704c-5.577 0-10.105 3.73-10.105 8.33v72.34c0 4.6 4.528 8.33 10.105 8.33h38.704c5.577 0 10.105-3.73 10.105-8.33v-72.34z"/><path id="J" d="M276.909 97.664c0-31.33-25.435-56.765-56.765-56.765H106.615c-31.33 0-56.765 25.435-56.765 56.765v113.53c0 31.329 25.435 56.764 56.765 56.764h113.529c31.33 0 56.765-25.435 56.765-56.764V97.664z"/><path id="K" d="M276.909 97.664c0-31.33-25.435-56.765-56.765-56.765H106.615c-31.33 0-56.765 25.435-56.765 56.765v113.53c0 31.329 25.435 56.764 56.765 56.764h113.529c31.33 0 56.765-25.435 56.765-56.764V97.664zm-4.594 0v113.53c0 28.793-23.377 52.17-52.171 52.17H106.615c-28.794 0-52.171-23.377-52.171-52.17V97.664c0-28.794 23.377-52.171 52.171-52.171h113.529c28.794 0 52.171 23.377 52.171 52.171z"/><path id="L" d="M167.193 434.439a5.93 5.93 0 0 0-5.923 5.923c0 3.268 2.654 5.922 5.923 5.922s5.922-2.654 5.922-5.922-2.654-5.923-5.922-5.923zm0 2.025a3.9 3.9 0 0 1 3.898 3.898 3.9 3.9 0 0 1-3.898 3.898 3.9 3.9 0 0 1-3.898-3.898 3.9 3.9 0 0 1 3.898-3.898z"/><path id="M" d="M210.275 1815.65v.17c0 .83.111 1.62.332 2.38a6.13 6.13 0 0 0 .981 1.99 4.65 4.65 0 0 0 1.632 1.35c.654.34 1.414.5 2.281.5 1.419 0 2.544-.37 3.373-1.12s1.401-1.78 1.714-3.11h1.051c-.313 1.66-.991 2.93-2.032 3.82-1.042.88-2.42 1.32-4.134 1.32-1.051 0-1.968-.18-2.751-.56s-1.438-.9-1.963-1.55c-.525-.66-.917-1.43-1.175-2.32-.258-.9-.387-1.86-.387-2.89 0-1 .133-1.95.401-2.86.267-.92.668-1.72 1.202-2.41a6.04 6.04 0 0 1 2.005-1.66c.802-.41 1.747-.62 2.834-.62.995 0 1.876.18 2.641.55s1.405.87 1.921 1.51.908 1.37 1.175 2.21.401 1.74.401 2.7l-.014.31-.013.29h-11.475zm10.424-.91c-.037-.77-.166-1.5-.387-2.2-.221-.69-.549-1.29-.982-1.82s-.958-.94-1.576-1.26c-.617-.31-1.322-.47-2.115-.47-.848 0-1.594.16-2.24.49-.645.32-1.188.74-1.631 1.27-.442.52-.783 1.13-1.023 1.84-.239.7-.387 1.42-.442 2.15h10.396z"/><path id="N" d="M209.971 1779.712v.166c0 .829.111 1.631.332 2.378a6.12 6.12 0 0 0 .995 1.991c.415.581.968 1.023 1.631 1.355.636.332 1.41.498 2.267.498 1.41 0 2.544-.387 3.373-1.134s1.41-1.77 1.714-3.097h1.051c-.304 1.659-.995 2.931-2.018 3.816-1.051.885-2.433 1.327-4.147 1.327-1.051 0-1.963-.194-2.737-.581-.802-.359-1.438-.885-1.963-1.548-.553-.636-.94-1.41-1.189-2.323a10.63 10.63 0 0 1-.387-2.876c0-.995.138-1.935.415-2.876a7 7 0 0 1 1.189-2.405c.525-.664 1.217-1.244 2.018-1.659s1.742-.608 2.82-.608c.995 0 1.88.194 2.654.553.747.359 1.382.885 1.908 1.493.525.664.912 1.382 1.189 2.212.249.857.387 1.742.387 2.71l-.028.608h-11.474zm10.424-.912c-.028-.774-.166-1.493-.387-2.212-.221-.691-.553-1.3-.968-1.825-.442-.525-.968-.94-1.576-1.244-.636-.304-1.327-.47-2.129-.47-.857 0-1.604.166-2.24.47-.636.332-1.189.774-1.631 1.272-.442.525-.774 1.161-1.023 1.852s-.387 1.41-.442 2.157h10.396z"/><path id="O" d="M283.96 1773.381h-3.097v9.926c0 .581.055 1.023.194 1.355s.332.581.608.747c.249.194.581.304.968.332.359.028.802.055 1.3.028v.912c-.525.028-1.051.028-1.548-.028-.525-.028-.968-.166-1.355-.415-.387-.221-.691-.553-.912-1.023-.249-.47-.332-1.106-.304-1.908v-9.926h-2.627v-.912h2.627v-4.424h1.051v4.424h3.097v.912z"/><linearGradient id="P" gradientUnits="userSpaceOnUse"/></defs></svg>