<svg xmlns="http://www.w3.org/2000/svg" xmlns:xlink="http://www.w3.org/1999/xlink" width="100%" height="100%" viewBox="0 0 287 109" fill-rule="evenodd" stroke-linecap="round" stroke-linejoin="round" stroke-miterlimit="1.5" xmlns:v="https://vecta.io/nano"><g transform="matrix(.999996 0 0 1.16526 -114.032614 -76.272499)"><use xlink:href="#C"/><clipPath id="A"><use xlink:href="#C"/></clipPath><g clip-path="url(#A)"><g transform="matrix(.542163 0 0 .465273 -70.156698 -56.845742)"><g fill="#ffae00" stroke="#ffae00" stroke-width="1.034"><use xlink:href="#D"/><path d="M443.301 369.656l2.861 8.802h9.256l-7.489 5.441 2.861 8.803-7.489-5.441-7.488 5.441 2.86-8.803-7.488-5.441h9.256l2.86-8.802z"/></g><g transform="matrix(.399884 0 0 .492233 -37.595 -25.33)" fill="#fff" fill-rule="nonzero"><path d="M1371.825 705.433h-62.666v21.684h60.281v33.176h-60.281v24.069h62.666l4.337 35.562H1264.49V671.172h111.672l-4.337 34.261zm170.228 114.491h-47.271l-8.89-26.454h-47.271l-8.674 26.454h-43.801l49.656-148.752h56.595l49.656 148.752zm-80.23-102.999l-12.794 45.103h26.454l-12.577-45.103h-1.084zm174.4-45.753c7.156 0 13.661 1.518 20.166 4.554 6.288 3.253 11.276 7.589 15.179 13.01 3.903 5.638 5.855 12.143 5.855 19.299 0 5.204-1.084 10.408-3.469 15.396-2.602 4.987-5.638 9.324-9.758 13.01s-8.457 5.855-13.444 6.722v1.084c8.023 2.385 13.878 6.939 17.998 13.661 3.903 6.722 5.855 14.962 5.855 24.503 0 6.722.651 12.577 1.952 17.347 1.301 4.987 4.337 8.023 9.107 9.324v8.89c-6.722 2.819-15.396 4.12-26.021 4.12-10.191 0-17.998-2.168-22.985-6.505-4.987-4.12-7.589-11.276-7.589-21.467 0-9.541-1.084-17.347-3.469-23.202s-7.806-8.674-15.829-8.674h-12.577v57.679h-44.452V671.172h83.483zm-39.031 57.896h22.985c3.036 0 5.638-1.084 7.806-3.253 1.952-1.952 3.036-4.554 3.036-7.589v-2.168c0-3.036-1.084-5.638-3.036-7.806-2.168-1.952-4.77-3.036-7.806-3.036h-22.985v23.852zm214.163-22.117h-37.73v112.973h-45.103V706.951h-37.73v-35.778h120.562v35.778zm137.912 112.973h-45.536v-57.896h-35.128v57.896h-45.753V671.172h45.536v54.86h35.128v-54.86h45.753v148.752z"/></g><g transform="matrix(.466301 0 0 .347704 .797 72.239)" fill="#fff"><g fill-rule="nonzero"><path d="M1026.11 971.599h-17.992v32.081h-6.069v-77.06h21.135c7.045 0 12.464 2.059 16.257 5.961 3.902 4.01 5.853 9.646 5.853 16.799 0 4.877-1.192 9.321-3.577 13.006-2.384 3.793-5.636 6.395-9.754 7.804l16.041 32.84v.65h-6.395l-15.499-32.081zm-17.992-5.636h16.149c4.552 0 8.129-1.517 10.838-4.66s4.119-7.153 4.119-11.922c0-5.419-1.409-9.646-4.227-12.572-2.818-3.035-6.828-4.444-11.922-4.444h-14.957v33.599z"/><use xlink:href="#E"/><path d="M1205.035 994.034l.108.867.217-.867 20.159-67.414h6.611l-24.061 77.06h-5.744l-24.061-77.06h6.611l20.159 67.414z"/></g><path d="M1279.338 926.62h6.069v77.06h-6.069z"/><g fill-rule="nonzero"><path d="M1375.377 966.83h-29.914v31.214h34.357v5.636h-40.427v-77.06h40.21v5.744h-34.141v28.83h29.914v5.636zm64.933 15.932l1.843 11.38 2.276-10.838 13.873-56.684h5.419l13.548 56.684 2.276 10.947 2.059-11.489 11.38-56.142h6.069l-16.366 77.06h-5.744l-14.415-60.044-1.517-7.153-1.517 7.153-14.74 60.044h-5.744l-16.366-77.06h6.178l11.489 56.142zm142.084 1.951c0-4.335-1.192-7.695-3.685-10.188-2.493-2.384-7.045-4.769-13.765-7.045s-11.597-4.769-14.74-7.587c-4.119-3.577-6.178-8.454-6.178-14.415 0-5.853 2.059-10.622 6.069-14.307 4.119-3.793 9.321-5.636 15.716-5.636 6.611 0 11.922 2.168 16.149 6.503 4.119 4.335 6.178 9.863 6.178 16.583h-6.069c0-5.202-1.409-9.321-4.335-12.572-2.926-3.143-6.937-4.769-11.922-4.769-4.877 0-8.671 1.301-11.489 3.902-2.818 2.71-4.227 6.069-4.227 10.188 0 3.902 1.301 7.153 4.01 9.538 2.601 2.493 6.828 4.66 12.572 6.611 5.853 1.951 10.188 3.902 13.223 5.961 2.926 2.059 5.094 4.552 6.503 7.262 1.409 2.818 2.168 6.069 2.168 9.863 0 6.069-2.059 10.947-6.178 14.632-4.01 3.685-9.429 5.528-16.149 5.528-4.552 0-8.671-.975-12.356-2.818s-6.611-4.552-8.779-8.02c-2.059-3.468-3.143-7.587-3.143-12.247h6.069c0 5.419 1.626 9.646 4.877 12.789 3.36 3.143 7.804 4.66 13.331 4.66 4.877 0 8.779-1.301 11.705-3.902s4.444-6.069 4.444-10.513z"/></g><path d="M1048.04 1002.99v.69h-6.46l-15.45-32.075h-17.99v32.075h-6.09v-77.058h21.12c7.02 0 12.46 2.002 16.32 6.006 3.87 4.005 5.8 9.57 5.8 16.697 0 4.975-1.2 9.341-3.6 13.098s-5.63 6.36-9.69 7.806l16.04 32.761zm-42.05-73.492v71.302h-1.8v-71.302h1.8zm19.76.1c4.4.47 7.9 2.152 10.54 4.92 3.34 3.506 5.06 8.422 5.06 14.807 0 5.757-1.62 10.479-4.83 14.171-2.58 2.962-5.87 4.74-9.9 5.233h.68l15.45 32.071h1.65l-15.82-32.326 2.87-1.024c3.6-1.284 6.48-3.563 8.61-6.897 2.06-3.221 3.08-6.964 3.08-11.228 0-6.146-1.63-10.968-4.96-14.421-3.06-3.171-7.21-4.893-12.43-5.306zm-17.61 36.397h16.08c4.56 0 8.19-1.561 10.91-4.683 2.71-3.122 4.07-7.118 4.07-11.987 0-5.398-1.41-9.579-4.23-12.542-2.83-2.964-6.78-4.446-11.86-4.446h-14.97v33.658zm124.22.794h-29.9v31.277h34.4v5.614h-40.43v-77.058h40.17v5.715h-34.14v28.843h29.9v5.609zm-32.04-37.291v71.302h-1.75v-71.302h1.75zm104.67 64.546l.16.847.21-.847 20.11-67.422h6.67l-24.08 77.058h-5.72l-24.08-77.058h6.62l20.11 67.422zm2.38.992l19.55-65.538h1.99l-22.28 71.302h-2.86l-22.28-71.302h1.94l19.51 65.435.12.64c.42 2.223 2.09 2.194 2.09 2.194s1.52.084 2.04-1.982l.18-.749zm78.03 8.644h-6.04v-77.058h6.04v77.058zm-2.15-2.88h-1.74v-71.302h1.74v71.302zm92.08-34.011h-29.9v31.277h34.4v5.614h-40.44v-77.058h40.17v5.715h-34.13v28.843h29.9v5.609zm-32.05-37.291v71.302h-1.74v-71.302h1.74zm97 53.221l1.85 11.431 2.33-10.902 13.82-56.626h5.39l13.6 56.626 2.28 11.008 2.01-11.537 11.38-56.097h6.14l-16.41 77.058h-5.71l-14.45-60.07-1.53-7.145-1.49 7.145-14.76 60.07h-5.77l-16.35-77.058h6.19l11.48 56.097zm-2.08.686l1.84 11.355 4.16.182 2.31-10.851 13.32-54.593h2.28l13.11 54.575 2.26 10.951 4.16-.114 2-11.486 10.94-53.926h1.66l-15.18 71.302h-2.54l-13.96-58.03-1.52-7.101-4.13.025-1.47 7.08-14.26 58.026h-2.6l-15.13-71.302h1.71l11.04 53.907zm144.2 1.325c0-4.305-1.23-7.692-3.68-10.161s-7.03-4.834-13.73-7.092c-6.71-2.258-11.63-4.78-14.77-7.568-4.13-3.633-6.19-8.432-6.19-14.394 0-5.892 2.03-10.69 6.08-14.395 4.06-3.704 9.3-5.557 15.72-5.557 6.56 0 11.93 2.153 16.09 6.457s6.24 9.843 6.24 16.617h-6.08c0-5.186-1.46-9.376-4.37-12.569s-6.87-4.789-11.88-4.789c-4.87 0-8.7 1.314-11.51 3.943-2.8 2.628-4.21 6.024-4.21 10.187 0 3.881 1.33 7.056 3.97 9.526 2.65 2.469 6.86 4.666 12.65 6.589s10.16 3.916 13.13 5.98c2.96 2.064 5.15 4.489 6.56 7.276s2.12 6.069 2.12 9.844c0 6.033-2.04 10.893-6.12 14.58-4.07 3.686-9.46 5.526-16.16 5.526-4.52 0-8.64-.92-12.36-2.77-3.73-1.86-6.63-4.52-8.74-7.996-2.09-3.475-3.14-7.576-3.14-12.304h6.03c0 5.433 1.64 9.702 4.92 12.807s7.71 4.657 13.29 4.657c4.86 0 8.77-1.305 11.72-3.916 2.94-2.611 4.42-6.103 4.42-10.478zm-20.4-56.039c-3.61.572-6.58 1.989-8.91 4.173-3.44 3.228-5.12 7.432-5.12 12.545 0 4.828 1.6 8.814 4.89 11.886 2.79 2.612 7.24 4.987 13.36 7.02 5.57 1.853 9.79 3.752 12.65 5.741 2.6 1.809 4.54 3.897 5.77 6.34 1.18 2.327 1.75 5.075 1.75 8.228 0 5.059-1.75 9.104-5.17 12.196-2.48 2.25-5.51 3.72-9.06 4.47 2.72-.71 5.05-1.953 7-3.682 3.61-3.202 5.38-7.514 5.38-12.878 0-5.284-1.52-9.429-4.53-12.461-2.6-2.612-7.41-5.193-14.5-7.581-6.4-2.155-11.11-4.517-14.11-7.177v-.003c-3.45-3.04-5.23-7.011-5.23-11.993 0-4.935 1.75-8.915 5.15-12.018 2.9-2.648 6.47-4.23 10.68-4.806zm-4.84 71.649a26.2 26.2 0 0 1-2.52-1.081c-3.32-1.654-5.93-4.002-7.81-7.105-1.35-2.234-2.18-4.775-2.51-7.618h1.72c.51 5.08 2.41 9.173 5.7 12.281 1.57 1.486 3.37 2.663 5.42 3.523zm12.26-71.654c4.42.628 8.16 2.476 11.19 5.612 2.99 3.088 4.75 6.905 5.25 11.463h-1.77c-.47-4.797-2.15-8.768-5.02-11.919-2.52-2.763-5.73-4.511-9.65-5.156z"/></g></g><g fill="#f7f9ff"><g stroke="#000"><g stroke-width="2"><g transform="matrix(1 0 0 .858179 33.6358 13.6437)"><circle cx="98.937" cy="89.43" r="1.991"/><circle cx="119.308" cy="146.592" r="2.901"/><circle cx="343.481" cy="72.701" r="2.252"/><circle cx="348.042" cy="156.501" r="2.309"/><circle cx="312.663" cy="98.582" r="2.231"/><circle cx="228.882" cy="72.701" r="2.252"/><circle cx="231.33" cy="158.95" r="2.449"/></g></g></g></g></g><use xlink:href="#C" fill="none" stroke="#000" stroke-width="1.84"/></g><defs ><path id="C" d="M400 75.792c0-4.779-4.521-8.659-10.09-8.659H125.976c-5.569 0-10.09 3.88-10.09 8.659v73.044c0 4.779 4.521 8.659 10.09 8.659H389.91c5.569 0 10.09-3.88 10.09-8.659V75.792z"/><path id="D" d="M766.287 369.656l2.861 8.802h9.256l-7.489 5.441 2.861 8.803-7.489-5.441-7.488 5.441 2.86-8.803-7.488-5.441h9.256l2.86-8.802z"/><path id="E" d="M1132.417 966.83h-29.914v31.214h34.357v5.636h-40.427v-77.06h40.21v5.744h-34.141v28.83h29.914v5.636z"/></defs></svg>