<svg xmlns="http://www.w3.org/2000/svg" xmlns:xlink="http://www.w3.org/1999/xlink" width="100%" height="100%" viewBox="0 0 287 109" fill-rule="evenodd" stroke-linecap="round" stroke-linejoin="round" stroke-miterlimit="1.5" xmlns:v="https://vecta.io/nano"><g transform="matrix(.999996 0 0 1.16526 -114.854238 -76.272499)"><use xlink:href="#D" fill="#f7f9ff"/><clipPath id="A"><use xlink:href="#D"/></clipPath><g clip-path="url(#A)"><g fill="#e5ecff"><circle cx="428.729" cy="81.748" r="3.318" transform="matrix(1 0 0 .858179 -294.111 14.8097)"/><circle cx="428.729" cy="81.748" r="3.318" transform="matrix(1 0 0 .858179 -294.111 33.0433)"/><circle cx="428.729" cy="81.748" r="3.318" transform="matrix(1 0 0 .858179 -294.111 51.2769)"/><circle cx="428.729" cy="81.748" r="3.318" transform="matrix(1 0 0 .858179 -294.111 69.5104)"/><circle cx="428.729" cy="81.748" r="3.318" transform="matrix(1 0 0 .858179 -269.446 14.8097)"/><circle cx="428.729" cy="81.748" r="3.318" transform="matrix(1 0 0 .858179 -269.446 33.0433)"/><circle cx="428.729" cy="81.748" r="3.318" transform="matrix(1 0 0 .858179 -269.446 51.2769)"/><circle cx="428.729" cy="81.748" r="3.318" transform="matrix(1 0 0 .858179 -269.446 69.5104)"/><circle cx="428.729" cy="81.748" r="3.318" transform="matrix(1 0 0 .858179 -244.781 14.8097)"/><circle cx="428.729" cy="81.748" r="3.318" transform="matrix(1 0 0 .858179 -244.781 33.0433)"/><circle cx="428.729" cy="81.748" r="3.318" transform="matrix(1 0 0 .858179 -244.781 51.2769)"/><circle cx="428.729" cy="81.748" r="3.318" transform="matrix(1 0 0 .858179 -244.781 69.5104)"/><circle cx="428.729" cy="81.748" r="3.318" transform="matrix(1 0 0 .858179 -220.116 14.8097)"/><circle cx="428.729" cy="81.748" r="3.318" transform="matrix(1 0 0 .858179 -220.116 33.0433)"/><circle cx="428.729" cy="81.748" r="3.318" transform="matrix(1 0 0 .858179 -220.116 51.2769)"/><circle cx="428.729" cy="81.748" r="3.318" transform="matrix(1 0 0 .858179 -220.116 69.5104)"/><circle cx="428.729" cy="81.748" r="3.318" transform="matrix(1 0 0 .858179 -195.451 14.8097)"/><circle cx="428.729" cy="81.748" r="3.318" transform="matrix(1 0 0 .858179 -195.451 33.0433)"/><circle cx="428.729" cy="81.748" r="3.318" transform="matrix(1 0 0 .858179 -195.451 51.2769)"/><circle cx="428.729" cy="81.748" r="3.318" transform="matrix(1 0 0 .858179 -195.451 69.5104)"/><circle cx="428.729" cy="81.748" r="3.318" transform="matrix(1 0 0 .858179 -170.786 14.8097)"/><circle cx="428.729" cy="81.748" r="3.318" transform="matrix(1 0 0 .858179 -170.786 33.0433)"/><circle cx="428.729" cy="81.748" r="3.318" transform="matrix(1 0 0 .858179 -170.786 51.2769)"/><circle cx="428.729" cy="81.748" r="3.318" transform="matrix(1 0 0 .858179 -170.786 69.5104)"/><circle cx="428.729" cy="81.748" r="3.318" transform="matrix(1 0 0 .858179 -146.121 14.8097)"/><circle cx="428.729" cy="81.748" r="3.318" transform="matrix(1 0 0 .858179 -146.121 33.0433)"/><circle cx="428.729" cy="81.748" r="3.318" transform="matrix(1 0 0 .858179 -146.121 51.2769)"/><circle cx="428.729" cy="81.748" r="3.318" transform="matrix(1 0 0 .858179 -146.121 69.5104)"/><circle cx="428.729" cy="81.748" r="3.318" transform="matrix(1 0 0 .858179 -121.456 14.8097)"/><circle cx="428.729" cy="81.748" r="3.318" transform="matrix(1 0 0 .858179 -121.456 33.0433)"/><circle cx="428.729" cy="81.748" r="3.318" transform="matrix(1 0 0 .858179 -121.456 51.2769)"/><circle cx="428.729" cy="81.748" r="3.318" transform="matrix(1 0 0 .858179 -121.456 69.5104)"/><circle cx="428.729" cy="81.748" r="3.318" transform="matrix(1 0 0 .858179 -96.791 14.8097)"/><circle cx="428.729" cy="81.748" r="3.318" transform="matrix(1 0 0 .858179 -96.791 33.0433)"/><circle cx="428.729" cy="81.748" r="3.318" transform="matrix(1 0 0 .858179 -96.791 51.2769)"/><circle cx="428.729" cy="81.748" r="3.318" transform="matrix(1 0 0 .858179 -96.791 69.5104)"/><circle cx="428.729" cy="81.748" r="3.318" transform="matrix(1 0 0 .858179 -72.126 14.8097)"/><circle cx="428.729" cy="81.748" r="3.318" transform="matrix(1 0 0 .858179 -72.126 33.0433)"/><circle cx="428.729" cy="81.748" r="3.318" transform="matrix(1 0 0 .858179 -72.126 51.2769)"/><circle cx="428.729" cy="81.748" r="3.318" transform="matrix(1 0 0 .858179 -72.126 69.5104)"/><circle cx="428.729" cy="81.748" r="3.318" transform="matrix(1 0 0 .858179 -47.461 14.8097)"/><circle cx="428.729" cy="81.748" r="3.318" transform="matrix(1 0 0 .858179 -47.461 33.0433)"/><circle cx="428.729" cy="81.748" r="3.318" transform="matrix(1 0 0 .858179 -47.461 51.2769)"/><circle cx="428.729" cy="81.748" r="3.318" transform="matrix(1 0 0 .858179 -47.461 69.5104)"/></g><g transform="matrix(.451087 0 0 .387113 257.943 112.301)"><g transform="translate(-231 -43)"><clipPath id="B"><path d="M0 0h462v86H0z"/></clipPath><g clip-path="url(#B)"><g transform="matrix(.852597 0 0 .947329 -112.421 -336.68)" fill="#284f61" fill-rule="nonzero"><path d="M143.069 436.326c1.854.327 5.78-1.745 8.616-3.49l3.926-2.399 4.144-2.508c3.054-2.181 5.89-4.69 6.762-5.671l.763-.763c0-3.163-2.29-.436-4.581.436l-6.871 2.727-4.581 1.963c-4.363 1.745-7.635 2.618-9.925 2.618-.982 0-1.636-.327-2.072-1.091-.545-1.091-.109-3.926 1.309-8.616 1.636-5.562 4.035-13.088 7.198-22.576 3.272-9.489 5.562-16.796 6.98-21.704 1.527-4.799 2.072-8.071 1.745-9.816-.436-1.636-1.309-3.054-2.618-4.254-1.2-1.2-2.618-1.309-4.035-.218-2.618 1.091-1.636 9.052-2.072 10.797-.545 2.072-2.072 6.871-4.69 14.288l-7.635 23.667c-.109.327-.327 1.309-.873 2.945-.436 1.527-.763 2.618-.873 3.272l-.873 3.163c-.763 2.945-.545 3.708-.873 6.326-.327 2.508.327 3.708.873 5.453.545 1.854 1.745 3.054 3.49 3.926 2.072.982 4.254 1.527 6.762 1.527z"/><use xlink:href="#E"/><path d="M197.602 431.309c1.527.109 2.399-.327 2.618-1.418 0-.436-.327-2.072-.218-2.945 0-.109.654-3.163 1.854-9.052 2.072-6.871 3.708-11.234 4.69-12.979l4.472-.763 4.363-.654c.109 0 .218 0 .327-.109 3.272-.654 6.108-2.072 8.398-4.254 1.636-1.418 1.636-2.181 0-2.181-2.181 0-6.762.436-8.616.436-1.2 0-4.581.436-6.217.436 1.963-5.017 3.381-8.398 4.254-10.252l5.78-13.633c.327-.763-.109-1.745-1.2-2.945s-2.29-1.745-3.49-1.745c-.218 0-.545.109-.982.218-.982.436-2.399 3.054-4.254 7.853l-4.908 11.561-3.708 9.271c-3.054.654-5.562.545-6.435 1.309-.873.545-.982 1.418-.982 3.163s.763 2.618 2.399 2.618c.436 0 2.181-.218 2.618-.109-2.945 7.416-4.69 13.96-5.017 19.523-.109 1.854 0 3.163.545 3.926.763 1.636 2.072 2.618 3.708 2.727zm41.663-45.153c2.727 0 6.217-5.126 8.071-11.997.218-.436 3.817-7.416 3.817-11.016 0-2.399-1.309-4.035-3.817-4.908-.327-.109-.763-.218-1.309-.218-1.745 0-2.508 1.963-3.49 5.78-.545 2.181-1.854 6.653-3.49 10.47-1.091 3.49-1.636 6.326-1.636 8.507 0 2.29.654 3.381 1.854 3.381zm12.979 59.004c2.836-.109 4.908-1.418 6.108-3.708 2.072-4.035 2.181-9.925 1.418-17.669l17.341-13.415c1.309-.982 1.963-2.072 1.963-3.163 0-.545-.218-.654-.763-.545-1.2.327-3.817 1.527-8.071 3.49-1.418.654-6.98 3.49-10.797 5.671 0-.109-.109-.982-.436-2.618-1.309-8.943-1.091-13.524.545-13.633.654 3.49 1.091 5.344 1.309 5.453.982.545 3.272.763 4.472 0 .545-.327.763-1.418.763-3.054 0-3.817-.982-6.326-2.836-7.525-.982-.763-2.836-1.091-5.78-.763-2.836.218-4.69 1.2-5.562 2.836-1.527 2.508-.763 6.435-.545 9.271.109 1.091.218 3.054.545 5.89s.545 5.453.763 7.962c-1.527 1.2-4.144 2.836-7.744 5.126-.327.109-2.072 1.309-2.945 1.854-.763.436-2.399 1.527-3.163 2.29-1.418 1.2-2.836 2.508-2.836 3.708-.327 2.836 1.854 5.89 6.544 9.052 3.599 2.399 6.762 3.599 9.707 3.49zm-.873-6.108c-.545 1.091-2.072 1.091-4.363 0-2.29-.982-3.381-2.181-3.163-3.599.109-1.309 3.272-3.817 9.271-7.635 0 5.344-.545 9.161-1.745 11.234zm69.365-5.235c6.544 0 12.215-3.381 13.96-8.943.436-.763.654-1.854.654-3.054 0-3.054-1.309-7.962-3.926-14.615l-7.744-20.177c-2.508-6.762-3.599-11.779-3.49-14.942.109-3.817.109-4.144.982-5.999.545-.982 1.2-1.854 2.181-2.618 2.072-1.418 3.817-2.072 5.126-2.072 1.636 0 3.163.873 4.363 2.727 1.527 2.508 2.29 5.78 2.29 9.598 0 2.29-.218 4.799-.545 7.525-.327.873.218 1.854 1.636 2.836s2.836 1.527 4.035 1.527c.873 0 1.418-.327 1.636-.873 1.091-2.945 1.636-6.217 1.636-9.816 0-5.126-1.2-9.38-3.708-12.979s-6.435-5.453-11.779-5.453-9.271.982-11.67 2.836c-3.381 2.508-5.017 6.544-5.017 11.888 0 3.708.763 8.289 2.29 13.633 1.636 5.344 3.381 10.361 5.235 14.833 1.963 4.472 3.708 8.943 5.235 13.524 1.636 4.581 2.399 7.962 2.399 10.252 0 4.799-5.89 6.762-8.18 4.69-4.799-1.636-8.398-6.762-9.707-10.797-1.309-4.254-2.29-8.616-2.836-8.943-1.527-1.091-3.163-.436-4.035-.436-2.181 0-2.945 1.091-2.945 3.817 0 3.817.763 6.762 2.399 9.052 4.254 8.616 11.997 12.979 19.523 12.979zm35.229-2.181c5.671 0 12.87-3.708 16.687-8.18l.436-.545c1.854-2.29 2.618-4.363 2.399-5.999-.109-.327-.218-.436-.327-.327-6.435 6.435-13.197 9.598-20.286 9.598-2.181 0-3.708-.436-4.581-1.418-1.636-1.745-1.854-4.581-.654-8.398 1.854 1.2 4.035 1.854 6.435 1.854.654 0 1.091 0 1.418-.109 5.344-1.2 9.271-5.78 10.907-10.688.545-1.636.873-3.381.873-5.126 0-.763 0-1.418-.109-1.854-.327-1.854-1.2-3.163-2.727-4.035a6.77 6.77 0 0 0-3.49-.982c-4.254 0-8.725 2.508-13.524 7.416-4.69 4.908-7.089 10.143-7.089 15.814 0 4.035.545 6.653 3.926 9.38 2.945 2.399 6.108 3.599 9.707 3.599zm-3.817-19.85c2.618-5.235 11.67-12.324 11.997-10.579.327.654-.436 2.072-2.399 4.363-1.854 2.29-3.272 3.708-4.254 4.363-2.072 1.963-3.926 2.618-5.344 1.854zm78.09-16.469c-.873 0-6.544.436-11.343.654l6.544-18.214c.327-.873-.109-1.745-1.418-2.508-1.309-.873-2.399-1.2-3.163-1.091s-1.418.654-1.963 1.418c-.873 1.418-1.854 4.799-2.29 5.671-2.508 4.581-5.78 9.707-9.816 15.378l-16.142.873c5.344-14.506 9.052-23.558 11.234-27.266 1.636-2.836-5.126-6.435-6.435-3.817-4.363 9.161-8.616 19.632-12.652 31.52-5.999.327-7.307-.436-7.635 3.817-.109 2.508.218 3.272 2.29 3.272.763 0 1.745 0 2.945-.109-3.708 11.125-5.562 18.214-5.562 21.159 0 4.035 1.636 7.416 5.126 7.416 2.29 0 6.435-3.49 12.324-10.361 5.999-6.871 11.016-13.633 15.269-20.068.545 0 .873 0 1.2-.109-3.163 10.143-5.017 17.014-5.453 23.449-.436 6.217 1.527 9.489 5.999 9.489l1.636-.327c1.854-.763 2.399-1.418 1.636-1.963-2.181-1.636-1.854-6.653-.436-13.96.763-3.599 2.072-8.616 3.926-15.051.109-.654.436-1.418.763-2.29 2.508-.218 5.235-.873 7.962-1.963 3.926-1.527 6.217-2.945 6.871-4.254.327-.545-.218-.873-1.418-.763zm-47.989 29.12c-.545-.436 1.527-7.089 5.999-20.068 2.618-.109 7.089-.436 13.524-.873-4.69 6.217-8.834 11.452-12.652 15.596s-6.108 5.89-6.871 5.344z"/><path d="M439.617 432.399c3.817 0 7.853-2.072 11.997-6.217 1.854-1.854 3.708-5.89 3.381-7.198l-.218-.436c-.218-.327-.873.109-2.072 1.2-.982.982-1.745 1.745-2.508 2.29-4.035 3.599-8.071 5.344-11.888 5.344-4.035 0-5.999-2.508-5.999-7.525 4.144-2.945 9.271-8.943 15.269-18.214 4.035-5.89 7.525-12.542 10.688-20.068a38.56 38.56 0 0 0 3.163-16.251c-.109-3.926-4.472-6.435-8.507-6.435-.873 0-1.527.109-1.854.218-2.399.763-4.69 2.836-6.871 6.108-3.272 4.799-6.108 9.925-8.616 15.269-2.618 5.78-4.69 11.234-6.326 16.36-2.727 8.616-4.035 15.269-4.035 19.959 0 6.544.873 10.797 5.126 13.306 2.508 1.527 5.671 2.29 9.271 2.29zm-6.98-20.068c1.2-5.344 2.945-10.688 5.235-16.033 2.836-6.871 6.108-13.851 9.816-20.831 3.817-7.089 6.326-10.579 7.525-10.579.436 0 .654.436.654 1.418 0 .545 0 .873-.109 1.2-.327 4.363-2.508 10.579-4.254 14.178l-2.181 4.581-1.854 4.035c-1.854 4.144-4.472 8.398-7.635 12.87-2.181 3.163-4.581 6.217-7.198 9.161z"/><path d="M467.429 431.636c5.671 0 12.87-3.708 16.687-8.18l.436-.545c1.854-2.29 2.618-4.363 2.399-5.999-.109-.327-.218-.436-.327-.327-6.435 6.435-13.197 9.598-20.286 9.598-2.181 0-3.708-.436-4.581-1.418-1.636-1.745-1.854-4.581-.654-8.398 1.854 1.2 4.035 1.854 6.435 1.854.654 0 1.091 0 1.418-.109 5.344-1.2 9.271-5.78 10.906-10.688.545-1.636.873-3.381.873-5.126 0-.763 0-1.418-.109-1.854-.327-1.854-1.2-3.163-2.727-4.035a6.77 6.77 0 0 0-3.49-.982c-4.254 0-8.725 2.508-13.524 7.416-4.69 4.908-7.089 10.143-7.089 15.814 0 4.035.545 6.653 3.926 9.38 2.945 2.399 6.108 3.599 9.707 3.599zm-3.817-19.85c2.618-5.235 11.67-12.324 11.997-10.579.327.654-.436 2.072-2.399 4.363-1.854 2.29-3.272 3.708-4.254 4.363-2.072 1.963-3.926 2.618-5.344 1.854zm104.921-51.479c-6.544-.763-15.487-.982-26.939-.436-11.343.545-18.432 1.418-21.268 2.836-2.508 1.091-2.727 8.18.545 7.744l23.013-2.727c-.654 1.745-1.527 4.363-2.618 7.744l-2.945 9.38-2.618 8.507-1.309 4.472c-4.144 12.106-6.98 22.795-8.616 32.174v.218c0 1.309.873 2.399 2.727 3.163s2.945.545 3.272-.873c1.309-6.871 6.217-23.231 14.724-49.079 2.072-6.217 4.144-11.779 6.326-16.687l21.704-2.399h.327c3.381-.327 4.69-.873 3.708-1.636-1.309-.982-4.69-1.854-10.034-2.399z"/><path d="M588.927 431.309c.982 0 1.745-.109 2.181-.218 2.181-.545 4.363-1.963 6.653-4.472s3.926-4.908 5.017-7.198 1.418-3.381.873-3.381c-.109 0-.436.218-.873.654-.327.109-2.618 2.618-4.472 4.363s-5.017 3.817-7.307 4.363c-.327.109-.654.109-1.2.109-1.745 0-2.618-1.309-2.618-3.926 0-1.854.436-4.908 1.309-8.943.873-4.144 1.2-6.98 1.091-8.398-.109-1.527-1.091-3.272-2.727-5.126s-3.163-2.836-4.581-2.836c-2.508 0-5.562 1.854-9.161 5.453s-6.98 7.962-10.143 13.088c0-3.054 2.399-10.906 7.198-23.449 4.908-12.652 8.616-21.377 11.343-26.067 1.527-2.836 2.29-5.017 2.29-6.435 0-1.745-2.072-3.49-4.581-3.49-.763 0-1.854.982-3.163 3.054-2.836 4.363-7.962 16.36-15.378 35.882-5.344 14.288-8.071 24.431-8.071 30.647 0 2.618 2.399 5.017 5.999 5.017.545 0 .873 0 1.091-.109 2.072-.545 3.708-2.618 5.235-5.671 3.272-5.344 5.89-9.161 7.744-11.452s4.69-5.344 8.507-8.943c-1.527 9.161-2.29 14.833-2.29 17.014 0 6.435 4.799 10.47 10.034 10.47z"/><path d="M614.122 390.628c1.309 0 2.727-1.2 4.144-3.49s2.181-4.254 2.181-5.671c0-1.527-.327-2.618-.982-3.272-1.2-1.2-2.399-1.854-3.381-1.854-1.418 0-2.508 1.091-3.381 3.163-.763 2.072-1.2 3.926-1.2 5.562 0 1.854.218 3.272.654 4.035.545.982 1.2 1.527 1.963 1.527zm-2.399 40.681c2.836-.218 5.999-2.181 9.489-5.89 2.836-2.945 4.363-5.017 4.472-6.217.109-.436-.218-.436-.763-.109l-2.618 1.636c-1.418.982-2.945 1.963-4.363 2.727-2.727 1.636-7.307 3.381-9.38 1.745-.982-.545-1.527-1.745-1.527-3.599 0-4.908 1.963-11.561 5.89-19.741.982-1.854-.109-3.054-3.272-3.817-2.181-.873-3.381-.327-4.69 3.054-2.181 5.453-3.708 10.143-4.472 14.178-1.2 5.671-.545 9.816 1.963 12.542 2.508 2.618 5.671 3.817 9.271 3.49z"/><path d="M628.082 431.091c9.052 1.854 14.724.982 16.905-2.399 1.091-1.745.982-3.599.327-5.453-.109-.982-1.091-3.708-1.418-4.581 1.2-.545 3.599-1.309 7.198-2.29 4.799-1.309 9.489-2.181 14.178-2.508 1.636 0 4.581.436 5.999-.327 1.636-.873 2.836-3.381 1.854-3.926-1.636-.982-4.363-1.418-8.18-1.2-.982.109-4.799.654-11.234 1.745-4.144.763-7.962 1.636-11.343 2.618-.545-1.418-1.091-3.272-1.636-5.78-.109-.218-.218-1.091-.218-2.727s.327-2.508.873-2.618c.982 1.745 2.508 5.671 3.599 5.235 1.309 0 3.599-1.2 3.926-2.399.327-1.418-.545-3.817-2.508-7.089-2.072-3.599-3.599-5.235-6.653-5.235-2.618 0-4.363 2.072-5.126 6.326-.436 2.508 0 7.962 1.418 16.142l-9.707 4.035-3.054 1.2-1.527.763c-1.854.982-2.945 1.745-3.49 3.054-.763 2.29.545 4.254 3.272 5.453s3.926 1.418 6.544 1.963zm5.671-4.363c-2.945 0-4.472-.545-4.472-1.745 0-.763 4.799-3.163 9.161-4.799 2.399 6.217-2.836 6.435-4.69 6.544zm29.339 4.363c1.418 0 2.945-.873 4.581-2.508s2.508-3.381 2.508-5.017c0-2.727-1.309-4.144-3.817-4.144-3.817 0-6.871 3.817-6.871 6.871 0 2.727 1.418 4.799 3.599 4.799z"/></g></g></g></g></g><use xlink:href="#D" fill="none" stroke="#284f61" stroke-width="1.84"/></g><defs ><path id="D" d="M400 75.792c0-4.779-4.521-8.659-10.09-8.659H125.976c-5.569 0-10.09 3.88-10.09 8.659v73.044c0 4.779 4.521 8.659 10.09 8.659H389.91c5.569 0 10.09-3.88 10.09-8.659V75.792z"/><path id="E" d="M177.207 431.636c5.671 0 12.87-3.708 16.687-8.18l.436-.545c1.854-2.29 2.618-4.363 2.399-5.999-.109-.327-.218-.436-.327-.327-6.435 6.435-13.197 9.598-20.286 9.598-2.181 0-3.708-.436-4.581-1.418-1.636-1.745-1.854-4.581-.654-8.398 1.854 1.2 4.035 1.854 6.435 1.854.654 0 1.091 0 1.418-.109 5.344-1.2 9.271-5.78 10.906-10.688.545-1.636.873-3.381.873-5.126 0-.763 0-1.418-.109-1.854-.327-1.854-1.2-3.163-2.727-4.035-1.091-.654-2.29-.982-3.49-.982-4.254 0-8.725 2.508-13.524 7.416-4.69 4.908-7.089 10.143-7.089 15.814 0 4.035.545 6.653 3.926 9.38 2.945 2.399 6.108 3.599 9.707 3.599zm-3.817-19.85c2.618-5.235 11.67-12.324 11.997-10.579.327.654-.436 2.072-2.399 4.363-1.854 2.29-3.272 3.708-4.254 4.363-2.072 1.963-3.926 2.618-5.344 1.854z"/></defs></svg>