<svg xmlns="http://www.w3.org/2000/svg" xmlns:xlink="http://www.w3.org/1999/xlink" width="100%" height="100%" viewBox="0 0 285 106" fill-rule="evenodd" stroke-linejoin="round" stroke-miterlimit="2" xmlns:v="https://vecta.io/nano"><style><![CDATA[.B{fill:#cbf3dc}.C{fill:#2fcc71}.D{fill-rule:nonzero}]]></style><g transform="matrix(.999996 0 0 1.16526 -115.179645 -78.084751)"><use xlink:href="#C" fill="#a7eac3"/><clipPath id="A"><use xlink:href="#C"/></clipPath><g clip-path="url(#A)"><g transform="matrix(1.03258 0 0 .85672 13.1797 -642.702)"><use xlink:href="#D" class="B"/><path d="M126.445 828.547h26.98v27.906h-26.98z" class="C"/><g class="B"><path d="M153.424 828.547h26.98v27.906h-26.98z"/><path d="M180.404 828.547h26.98v27.906h-26.98z"/></g><path d="M207.383 828.547h26.98v27.906h-26.98z" class="C"/><g class="B"><path d="M234.363 828.547h26.98v27.906h-26.98z"/><path d="M261.343 828.547h26.98v27.906h-26.98z"/><path d="M288.322 828.547h26.98v27.906h-26.98z"/><path d="M315.302 828.547h26.98v27.906h-26.98z"/></g><path d="M342.281 828.547h26.98v27.906h-26.98z" class="C"/><path d="M369.261 828.547h26.98v27.906h-26.98z" class="B"/></g><g transform="matrix(1.03258 0 0 .85672 13.1797 -618.794)"><g class="B"><use xlink:href="#D"/><path d="M126.445 828.547h26.98v27.906h-26.98z"/><path d="M153.424 828.547h26.98v27.906h-26.98z"/></g><path d="M180.404 828.547h26.98v27.906h-26.98z" class="C"/><g class="B"><path d="M207.383 828.547h26.98v27.906h-26.98z"/><path d="M234.363 828.547h26.98v27.906h-26.98z"/><path d="M261.343 828.547h26.98v27.906h-26.98z"/><path d="M288.322 828.547h26.98v27.906h-26.98z"/><path d="M315.302 828.547h26.98v27.906h-26.98z"/><path d="M342.281 828.547h26.98v27.906h-26.98z"/><path d="M369.261 828.547h26.98v27.906h-26.98z"/></g></g><g transform="matrix(1.03258 0 0 .85672 13.1797 -594.887)"><use xlink:href="#D" fill="#9ee9bd"/><path d="M126.445 828.547h26.98v27.906h-26.98z" class="C"/><g class="B"><path d="M153.424 828.547h26.98v27.906h-26.98z"/><path d="M180.404 828.547h26.98v27.906h-26.98z"/><path d="M207.383 828.547h26.98v27.906h-26.98z"/><path d="M234.363 828.547h26.98v27.906h-26.98z"/><path d="M261.343 828.547h26.98v27.906h-26.98z"/><path d="M288.322 828.547h26.98v27.906h-26.98z"/></g><path d="M315.302 828.547h26.98v27.906h-26.98z" class="C"/><g class="B"><path d="M342.281 828.547h26.98v27.906h-26.98z"/><path d="M369.261 828.547h26.98v27.906h-26.98z"/></g></g><g transform="matrix(1.03258 0 0 .85672 13.1797 -570.979)"><g class="B"><use xlink:href="#D"/><path d="M126.445 828.547h26.98v27.906h-26.98z"/><path d="M153.424 828.547h26.98v27.906h-26.98z"/><path d="M180.404 828.547h26.98v27.906h-26.98z"/></g><path d="M207.383 828.547h26.98v27.906h-26.98z" class="C"/><g class="B"><path d="M234.363 828.547h26.98v27.906h-26.98z"/><path d="M261.343 828.547h26.98v27.906h-26.98z"/><path d="M288.322 828.547h26.98v27.906h-26.98z"/><path d="M315.302 828.547h26.98v27.906h-26.98z"/></g><path d="M342.281 828.547h26.98v27.906h-26.98z" class="C"/><path d="M369.261 828.547h26.98v27.906h-26.98z" class="B"/></g><g transform="matrix(.338681 0 0 .290649 149.693 120.261)"><g fill="#fff"><g class="D"><path d="M20.687 38.332a5.31 5.31 0 0 1-7.505 0L1.554 26.704a5.31 5.31 0 0 1 0-7.504 5.31 5.31 0 0 1 7.505 0l6.928 6.927c.523.522 1.372.522 1.896 0L36.642 7.368a5.31 5.31 0 0 1 7.505 0c.995.995 1.554 2.345 1.554 3.752s-.559 2.757-1.554 3.752l-23.46 23.46zm0-167.078a5.31 5.31 0 0 1-7.505 0L1.554-140.374a5.31 5.31 0 0 1 0-7.504 5.31 5.31 0 0 1 7.505 0l6.928 6.927c.523.522 1.372.522 1.896 0l18.759-18.759a5.31 5.31 0 0 1 7.505 0c.995.995 1.554 2.345 1.554 3.752s-.559 2.757-1.554 3.752l-23.46 23.46z"/><use xlink:href="#E"/><path d="M679.452 120.589a5.31 5.31 0 0 1-7.505 0l-11.628-11.628a5.31 5.31 0 0 1 0-7.504 5.31 5.31 0 0 1 7.505 0l6.928 6.927c.523.522 1.372.522 1.896 0l18.759-18.759a5.31 5.31 0 0 1 7.505 0c.995.995 1.554 2.345 1.554 3.752s-.559 2.757-1.554 3.752l-23.46 23.46zm-412.13 0a5.31 5.31 0 0 1-7.505 0l-11.628-11.628a5.31 5.31 0 0 1 0-7.504 5.31 5.31 0 0 1 7.505 0l6.928 6.927c.523.522 1.372.522 1.896 0l18.759-18.759a5.31 5.31 0 0 1 7.505 0c.995.995 1.554 2.345 1.554 3.752s-.559 2.757-1.554 3.752l-23.46 23.46zM186.034-43.924a5.31 5.31 0 0 1-7.505 0l-11.628-11.628a5.31 5.31 0 0 1 0-7.504 5.31 5.31 0 0 1 7.505 0l6.928 6.927c.523.522 1.372.522 1.896 0l18.759-18.759a5.31 5.31 0 0 1 7.505 0c.995.995 1.554 2.345 1.554 3.752s-.559 2.757-1.554 3.752l-23.46 23.46zm411.161 80.345a5.31 5.31 0 0 1-7.505 0l-11.628-11.628a5.31 5.31 0 0 1 0-7.504 5.31 5.31 0 0 1 7.505 0l6.928 6.927c.523.522 1.372.522 1.896 0L613.15 5.457a5.31 5.31 0 0 1 7.505 0c.995.995 1.554 2.345 1.554 3.752s-.559 2.757-1.554 3.752l-23.46 23.46zm82.674-162.395a5.31 5.31 0 0 1-7.505 0l-11.628-11.628a5.31 5.31 0 0 1 0-7.504 5.31 5.31 0 0 1 7.505 0l6.928 6.927c.523.522 1.372.522 1.896 0l18.759-18.759a5.31 5.31 0 0 1 7.505 0c.995.995 1.554 2.345 1.554 3.752s-.559 2.757-1.554 3.752l-23.46 23.46z"/></g><path d="M73.077-72.899h493.09v91.115H73.077z"/></g><g stroke="#000" stroke-width="2.957" class="D"><path d="M131.33-8.396h21.38v4.864h-27.36v-45.113h5.98v40.249zm33.495 4.864h-5.732v-33.525h5.732v33.525zm-6.197-42.418c0-.929.284-1.714.852-2.355s1.409-.959 2.525-.959 1.962.32 2.541.959.867 1.426.867 2.355-.289 1.705-.867 2.324-1.425.93-2.541.93-1.958-.31-2.525-.93-.852-1.394-.852-2.324zm18.189 42.418v-29.095h-5.299v-4.43h5.299v-3.439c0-3.594.959-6.373 2.881-8.335s4.638-2.944 8.149-2.944a15.01 15.01 0 0 1 3.935.527l-.31 4.647c-.97-.186-2.003-.278-3.098-.278-1.86 0-3.294.542-4.307 1.626s-1.519 2.639-1.519 4.663v3.533h7.159v4.43h-7.159v29.095h-5.731zm32.378.619c-4.544 0-8.243-1.492-11.093-4.477s-4.276-6.977-4.276-11.976v-1.053c0-3.325.636-6.296 1.905-8.908s3.047-4.659 5.33-6.135 4.757-2.216 7.421-2.216c4.359 0 7.746 1.436 10.163 4.307s3.626 6.982 3.626 12.332v2.386h-22.712c.083 3.305 1.049 5.974 2.897 8.01s4.199 3.052 7.049 3.052c2.024 0 3.74-.413 5.144-1.24s2.635-1.92 3.688-3.284l3.502 2.727c-2.81 4.317-7.024 6.475-12.642 6.475zm-.713-30.054a7.64 7.64 0 0 0-5.825 2.525c-1.57 1.683-2.541 4.044-2.913 7.08h16.794v-.434c-.166-2.913-.95-5.169-2.355-6.771s-3.305-2.4-5.702-2.4zm70.211 15.12c-.558 4.772-2.319 8.454-5.283 11.046s-6.904 3.888-11.821 3.888c-5.33 0-9.601-1.911-12.812-5.732s-4.818-8.933-4.818-15.337v-4.338c0-4.194.749-7.88 2.247-11.062s3.619-5.624 6.368-7.327 5.928-2.556 9.543-2.556c4.792 0 8.635 1.337 11.526 4.012s4.575 6.379 5.05 11.109h-5.98c-.516-3.594-1.636-6.197-3.361-7.809s-4.137-2.417-7.235-2.417c-3.801 0-6.781 1.405-8.94 4.214s-3.238 6.807-3.238 11.992v4.369c0 4.896 1.022 8.79 3.068 11.681s4.905 4.338 8.582 4.338c3.305 0 5.841-.749 7.607-2.247s2.938-4.105 3.516-7.824h5.98zm12.953-15.151c2.54-3.12 5.845-4.679 9.915-4.679 7.085 0 10.658 3.997 10.721 11.99v22.154h-5.732v-22.185c-.021-2.417-.574-4.203-1.658-5.36s-2.774-1.735-5.066-1.735c-1.86 0-3.491.496-4.896 1.488s-2.5 2.293-3.284 3.904v23.889h-5.732v-47.592h5.732v18.127zm43.13 30.085c-4.544 0-8.243-1.492-11.093-4.477s-4.275-6.977-4.275-11.976v-1.053c0-3.325.634-6.296 1.905-8.908s3.047-4.659 5.33-6.135 4.756-2.216 7.42-2.216c4.359 0 7.746 1.436 10.164 4.307s3.625 6.982 3.625 12.332v2.386H325.14c.083 3.305 1.049 5.974 2.898 8.01s4.198 3.052 7.049 3.052c2.023 0 3.739-.413 5.144-1.24s2.633-1.92 3.686-3.284l3.502 2.727c-2.81 4.317-7.024 6.475-12.642 6.475zm-.713-30.054a7.64 7.64 0 0 0-5.825 2.525c-1.57 1.683-2.541 4.044-2.913 7.08h16.794v-.434c-.165-2.913-.95-5.169-2.355-6.771s-3.305-2.4-5.702-2.4zm33.866 25.376c2.045 0 3.832-.62 5.36-1.86s2.376-2.789 2.541-4.647h5.422c-.103 1.921-.764 3.749-1.983 5.483s-2.845 3.12-4.88 4.152a14.09 14.09 0 0 1-6.46 1.549c-4.565 0-8.196-1.523-10.891-4.57s-4.044-7.215-4.044-12.503v-.961c0-3.264.599-6.166 1.797-8.707s2.917-4.513 5.158-5.917 4.891-2.107 7.948-2.107c3.76 0 6.884 1.125 9.373 3.377s3.816 5.174 3.981 8.768h-5.422c-.165-2.169-.986-3.95-2.463-5.344s-3.3-2.091-5.469-2.091c-2.913 0-5.169 1.048-6.771 3.144s-2.4 5.127-2.4 9.094v1.085c0 3.863.795 6.838 2.386 8.924s3.863 3.13 6.816 3.13zm29.126-11.464l-3.594 3.749v11.774h-5.732v-47.592h5.732v28.785l3.067-3.686 10.442-11.031h6.971L400.896-23.05 415.46-3.53h-6.724l-11.681-15.523zm23.301-32.07h5.732v47.592h-5.732zm21.131 47.593h-5.732v-33.525h5.732v33.525zM435.29-45.95c0-.929.284-1.714.852-2.355s1.409-.959 2.525-.959 1.962.32 2.541.959.867 1.426.867 2.355-.289 1.705-.867 2.324-1.426.93-2.541.93-1.958-.31-2.525-.93-.852-1.394-.852-2.324zm34.889 33.525c0-1.549-.583-2.752-1.752-3.609s-3.201-1.596-6.103-2.216-5.206-1.363-6.91-2.231-2.965-1.901-3.78-3.099-1.224-2.624-1.224-4.276c0-2.747 1.161-5.07 3.486-6.971s5.293-2.85 8.909-2.85c3.8 0 6.883.981 9.249 2.944s3.547 4.472 3.547 7.529h-5.763c0-1.57-.666-2.924-1.999-4.06s-3.011-1.703-5.034-1.703c-2.087 0-3.718.454-4.896 1.363s-1.766 2.095-1.766 3.563c0 1.384.547 2.426 1.642 3.128s3.074 1.374 5.934 2.014 5.18 1.405 6.955 2.293 3.094 1.958 3.951 3.207 1.286 2.772 1.286 4.57c0 2.996-1.199 5.396-3.595 7.204s-5.505 2.711-9.326 2.711c-2.684 0-5.061-.475-7.125-1.425s-3.682-2.277-4.849-3.982-1.752-3.547-1.752-5.53h5.732c.103 1.921.872 3.444 2.308 4.571s3.332 1.689 5.685 1.689c2.169 0 3.91-.439 5.221-1.318s1.968-2.05 1.968-3.516zm20.976-32.751v8.118h6.259v4.43h-6.259v20.791c0 1.343.28 2.35.838 3.021s1.508 1.008 2.85 1.008c.661 0 1.57-.124 2.727-.372v4.647c-1.508.413-2.975.62-4.4.62-2.562 0-4.493-.775-5.795-2.323s-1.951-3.749-1.951-6.601v-20.791h-6.104v-4.43h6.104v-8.118h5.731z"/></g></g></g></g><defs ><path id="C" d="M400 75.792c0-4.779-4.521-8.659-10.09-8.659H125.976c-5.569 0-10.09 3.88-10.09 8.659v73.044c0 4.779 4.521 8.659 10.09 8.659H389.91c5.569 0 10.09-3.88 10.09-8.659V75.792z"/><path id="D" d="M99.465 828.547h26.98v27.906h-26.98z"/><path id="E" d="M268.039-128.746a5.31 5.31 0 0 1-7.505 0l-11.628-11.628a5.31 5.31 0 0 1 0-7.504 5.31 5.31 0 0 1 7.505 0l6.928 6.927c.523.522 1.372.522 1.896 0l18.759-18.759a5.31 5.31 0 0 1 7.505 0c.995.995 1.554 2.345 1.554 3.752s-.559 2.757-1.554 3.752l-23.46 23.46z"/></defs></svg>