<svg xmlns="http://www.w3.org/2000/svg" xmlns:xlink="http://www.w3.org/1999/xlink" width="100%" height="100%" viewBox="0 0 287 108" fill-rule="evenodd" stroke-linecap="round" stroke-linejoin="round" stroke-miterlimit="1.5" xmlns:v="https://vecta.io/nano"><style><![CDATA[.B{fill-rule:nonzero}.C{fill:#c65454}.D{fill:#ff5f5f}.E{fill:#03aa6f}.F{fill:#86daf1}.G{fill:#b9ecc2}]]></style><g transform="matrix(.999996 0 0 1.16526 -114.132352 -76.667248)"><use xlink:href="#C" fill="#fff"/><clipPath id="A"><use xlink:href="#C"/></clipPath><g clip-path="url(#A)" class="B"><path d="M208.824 119.617h7.95v1.879h-10.512V104.1h2.562v15.517zm13.296 1.879h-2.464v-12.924h2.464v12.924zm.195-16.355a1.24 1.24 0 0 1-.348.897c-.232.236-.585.354-1.058.354-.464 0-.813-.118-1.044-.354a1.24 1.24 0 0 1-.348-.897 1.28 1.28 0 0 1 .348-.91c.232-.249.581-.367 1.044-.367s.814.124 1.051.373a1.26 1.26 0 0 1 .355.904zm4.761 16.355v-11.222h-1.963v-1.702h1.963v-1.499c.028-1.309.416-2.337 1.163-3.077.747-.733 1.803-1.1 3.168-1.1.491 0 .988.065 1.489.203l-.125 1.787a6.16 6.16 0 0 0-1.128-.105c-1.401 0-2.103.858-2.103 2.567v1.224h2.576v1.702h-2.576v11.222h-2.464zm12.99.242c-1.875 0-3.313-.484-4.316-1.44-1.002-.962-1.513-2.37-1.531-4.23v-1.565c0-1.925.49-3.437 1.469-4.531s2.346-1.643 4.1-1.643c1.764 0 3.082.484 3.954 1.447s1.318 2.462 1.337 4.505v1.388h-8.409v.295c0 1.388.304 2.396.912 3.025s1.482.943 2.624.943c.724 0 1.362-.118 1.914-.354s1.07-.609 1.553-1.113l1.281 1.336c-1.067 1.29-2.696 1.938-4.887 1.938zm-.278-11.595c-1.021 0-1.777.301-2.269.904s-.771 1.539-.835 2.802h5.931v-.288c-.065-1.224-.323-2.102-.773-2.625s-1.134-.792-2.054-.792zm23.975 6.953c0-.864-.274-1.532-.822-1.99-.547-.465-1.536-.917-2.966-1.355-1.429-.432-2.522-.897-3.278-1.375-.757-.484-1.323-1.034-1.699-1.65s-.564-1.323-.564-2.121c0-1.381.536-2.514 1.608-3.405s2.476-1.336 4.211-1.336c1.189 0 2.246.223 3.175.681s1.643 1.093 2.144 1.912a4.99 4.99 0 0 1 .752 2.671h-2.562c0-1.074-.301-1.905-.905-2.495s-1.471-.884-2.604-.884c-1.03 0-1.828.249-2.395.74s-.849 1.185-.849 2.082c0 .727.307 1.342.919 1.84.613.491 1.559.936 2.84 1.323 1.995.563 3.422 1.264 4.281 2.089.858.832 1.288 1.912 1.288 3.254 0 1.408-.533 2.54-1.601 3.385-1.067.851-2.52 1.277-4.357 1.277-1.179 0-2.267-.223-3.265-.668-.998-.439-1.782-1.061-2.353-1.859a4.64 4.64 0 0 1-.856-2.756h2.562c0 1.074.35 1.912 1.051 2.508s1.655.897 2.862.897c1.123 0 1.968-.249 2.534-.74.566-.498.849-1.165.849-2.023zm8.798-11.66v3.136h2.27v1.702h-2.27v8.02c0 .511.098.897.293 1.159s.529.393 1.002.393a3.49 3.49 0 0 0 .989-.144l-.027 1.794a6.29 6.29 0 0 1-1.713.242c-.974 0-1.717-.301-2.228-.897-.51-.602-.765-1.447-.765-2.534v-8.034h-2.298v-1.702h2.298v-3.136h2.45zm12.949 16.06c-.149-.282-.256-.746-.32-1.408-.873 1.1-1.986 1.65-3.342 1.65-1.364 0-2.429-.334-3.195-.989s-1.148-1.584-1.148-2.776a3.69 3.69 0 0 1 1.559-3.13c1.039-.779 2.464-1.172 4.274-1.185h1.81v-1.375c0-.773-.199-1.323-.598-1.65s-1.007-.491-1.824-.491c-.742 0-1.346.19-1.81.57a1.78 1.78 0 0 0-.697 1.44h-2.464c0-.661.227-1.29.682-1.892s1.067-1.074 1.838-1.421c.771-.34 1.629-.511 2.576-.511 1.541 0 2.713.327 3.516.982.803.661 1.214 1.617 1.232 2.874v6.528c.009.995.167 1.859.474 2.593v.19h-2.562zm-3.286-1.683a3.66 3.66 0 0 0 1.727-.432c.548-.288.947-.642 1.197-1.074v-3.084h-1.392c-1.169.013-2.093.242-2.77.674s-1.016 1.041-1.016 1.82c0 .733.172 1.264.515 1.598.343.327.923.498 1.74.498zm12.419-14.377v3.136h2.27v1.702h-2.27v8.02c0 .511.098.897.292 1.159s.529.393 1.002.393a3.49 3.49 0 0 0 .989-.144l-.028 1.794a6.28 6.28 0 0 1-1.712.242c-.975 0-1.717-.301-2.228-.897-.51-.602-.766-1.447-.766-2.534v-8.034h-2.297v-1.702h2.297v-3.136h2.451zm12.516 12.747c0-.452-.2-.845-.599-1.165-.399-.327-1.17-.714-2.311-1.152-1.327-.465-2.263-.871-2.805-1.205s-.949-.714-1.218-1.139-.404-.936-.404-1.526c0-1.048.448-1.925 1.344-2.619.896-.701 2.039-1.048 3.432-1.048 1.466 0 2.645.367 3.536 1.1s1.337 1.67 1.337 2.822h-2.451c0-.583-.227-1.08-.682-1.493-.455-.406-1.035-.615-1.74-.615-.724 0-1.292.164-1.705.484s-.62.759-.62 1.296c0 .432.151.779.453 1.041s1.028.609 2.178 1.041c1.829.615 3.072 1.211 3.731 1.794.659.589.989 1.329.989 2.233 0 1.12-.45 2.023-1.35 2.691-.9.674-2.107 1.015-3.62 1.015-1.569 0-2.84-.386-3.815-1.159-.975-.779-1.462-1.755-1.462-2.94h2.478c.027.714.283 1.277.766 1.683s1.16.609 2.032.609c.817 0 1.439-.157 1.865-.471a1.5 1.5 0 0 0 .641-1.277z"/><g transform="matrix(1.03258 0 0 1.23236 13.1324 -1215.47)"><use xlink:href="#D" class="G"/><g class="C"><use xlink:href="#E"/><use xlink:href="#F"/></g><g class="D"><use xlink:href="#G"/><use xlink:href="#H"/></g><g class="C"><path d="M220.254 1057.626l-.457-.239-.027-.014.027-.015c2.904-1.646 5.012-3.394 6.094-5.054.591-.909.64-1.953.134-2.889-.447-.848-1.364-1.525-2.531-1.869l-.363-.092.004-.036.449-.022c.491.003.977.075 1.431.21 1.117.329 1.996.978 2.424 1.79.482.894.436 1.893-.129 2.761-.825 1.263-2.713 3.237-7.025 5.468l-.015.008-.015-.008z"/><path d="M227.285 1052.151c-.951 1.457-2.975 3.37-7.017 5.461l-.456-.239c3.408-1.931 5.205-3.685 6.102-5.06 1.173-1.8.152-4.033-2.41-4.782l-.366-.093a4.94 4.94 0 0 1 1.866.187c2.426.71 3.392 2.821 2.281 4.526z"/></g><g class="D"><path d="M219.797 1057.387c-3.986-2.129-5.765-4.022-6.556-5.234-.565-.869-.612-1.868-.129-2.762.428-.811 1.305-1.459 2.422-1.788.232-.068.473-.121.718-.158a4.94 4.94 0 0 1 .715-.053c.877.015 1.722.24 2.4.64a4.59 4.59 0 0 1 .902.651 5.06 5.06 0 0 1 2.866-1.264l.379.094c1.179.348 2.107 1.032 2.559 1.889.511.945.462 2-.135 2.918-1.086 1.665-3.199 3.417-6.109 5.067l-.015.009-.016-.009z"/><path d="M225.914 1052.312c-.897 1.375-2.694 3.129-6.102 5.06-3.74-1.998-5.633-3.824-6.548-5.227-1.111-1.703-.144-3.817 2.279-4.525.231-.068.47-.121.714-.158 1.1-.149 2.237.065 3.093.584.347.191.656.416.918.667s1.093-1.112 2.869-1.277l.366.093c2.562.749 3.583 2.982 2.41 4.782z"/></g><g class="E"><use xlink:href="#I"/><use xlink:href="#J"/><use xlink:href="#K"/><use xlink:href="#L"/></g><use xlink:href="#M" class="F"/><use xlink:href="#N" fill="#c0e7ff"/><g transform="matrix(0 .124351 -.172936 0 125.961 1046.56)" class="G"><path d="M87.874 52.438a4.33 4.33 0 0 1 0-5.225 9.78 9.78 0 0 0 1.968-5.884 9.83 9.83 0 0 0-9.779-9.779c-.003 0-7.642-.563-19.111 7.053 7.615-11.469 7.053-19.109 7.053-19.109 0-5.367-4.415-9.782-9.78-9.782-2.122 0-4.188.691-5.884 1.968-1.539 1.171-3.686 1.171-5.225 0a9.78 9.78 0 0 0-5.883-1.968c-5.365 0-9.78 4.415-9.78 9.78 0 .002-.562 7.642 7.054 19.111-11.469-7.616-19.11-7.053-19.11-7.053-5.366 0-9.781 4.414-9.781 9.779a9.78 9.78 0 0 0 1.968 5.884c1.171 1.539 1.171 3.685 0 5.225a9.78 9.78 0 0 0-1.968 5.883c0 5.365 4.415 9.78 9.78 9.78.002 0 7.642.563 19.111-7.053-7.616 11.469-7.054 19.109-7.054 19.109 0 5.367 4.415 9.781 9.78 9.781 2.122 0 4.188-.691 5.883-1.967 1.539-1.171 3.686-1.171 5.225 0a9.79 9.79 0 0 0 5.884 1.967c5.365 0 9.78-4.414 9.78-9.78 0-.001.562-7.641-7.053-19.11 11.468 7.616 19.109 7.053 19.109 7.053 5.366 0 9.781-4.415 9.781-9.78a9.78 9.78 0 0 0-1.968-5.883h0z"/></g><g class="G"><path d="M259.76 1052.771a.42.42 0 0 1 0-.65c.221-.211.34-.468.34-.732 0-.667-.763-1.216-1.691-1.216-.001 0-1.322-.07-3.305.877 1.317-1.426 1.22-2.376 1.22-2.376 0-.667-.764-1.216-1.691-1.216a2.16 2.16 0 0 0-1.018.245.99.99 0 0 1-.904 0c-.293-.159-.65-.245-1.017-.245-.928 0-1.691.549-1.691 1.216 0 0-.097.95 1.22 2.376-1.983-.947-3.305-.877-3.305-.877-.928 0-1.691.549-1.691 1.216 0 .264.119.521.34.732a.42.42 0 0 1 0 .65c-.221.211-.34.468-.34.732 0 .667.764 1.216 1.691 1.216 0 0 1.322.07 3.305-.877-1.317 1.426-1.22 2.376-1.22 2.376 0 .667.764 1.216 1.691 1.216.367 0 .724-.086 1.017-.245a.99.99 0 0 1 .904 0 2.16 2.16 0 0 0 1.018.245c.928 0 1.691-.549 1.691-1.216 0 0 .097-.95-1.22-2.376 1.983.947 3.305.877 3.305.877.928 0 1.691-.549 1.691-1.216 0-.264-.119-.521-.34-.732h0zm103.488 50.97a.42.42 0 0 1 0-.65c.221-.211.34-.468.34-.732 0-.667-.763-1.216-1.691-1.216-.001 0-1.322-.07-3.305.877 1.317-1.426 1.22-2.376 1.22-2.376 0-.667-.764-1.216-1.691-1.216a2.16 2.16 0 0 0-1.018.245.99.99 0 0 1-.904 0c-.293-.159-.65-.245-1.017-.245-.928 0-1.691.549-1.691 1.216 0 0-.097.95 1.22 2.376-1.983-.947-3.305-.877-3.305-.877-.928 0-1.691.549-1.691 1.216 0 .264.119.521.34.732a.42.42 0 0 1 0 .65c-.221.211-.34.468-.34.732 0 .667.764 1.216 1.691 1.216 0 0 1.322.07 3.305-.877-1.317 1.426-1.22 2.376-1.22 2.376 0 .667.764 1.216 1.691 1.216.367 0 .724-.086 1.017-.245a.99.99 0 0 1 .904 0 2.16 2.16 0 0 0 1.018.245c.928 0 1.691-.549 1.691-1.216 0 0 .097-.95-1.22-2.376 1.983.947 3.305.877 3.305.877.928 0 1.691-.549 1.691-1.216 0-.264-.119-.521-.34-.732h0zm-135.639 0a.42.42 0 0 1 0-.65c.221-.211.34-.468.34-.732 0-.667-.763-1.216-1.691-1.216-.001 0-1.322-.07-3.305.877 1.317-1.426 1.22-2.376 1.22-2.376 0-.667-.764-1.216-1.691-1.216a2.16 2.16 0 0 0-1.018.245.99.99 0 0 1-.904 0c-.293-.159-.65-.245-1.017-.245-.928 0-1.691.549-1.691 1.216 0 0-.097.95 1.22 2.376-1.983-.947-3.305-.877-3.305-.877-.928 0-1.691.549-1.691 1.216 0 .264.119.521.34.732a.42.42 0 0 1 0 .65c-.221.211-.34.468-.34.732 0 .667.764 1.216 1.691 1.216 0 0 1.322.07 3.305-.877-1.317 1.426-1.22 2.376-1.22 2.376 0 .667.764 1.216 1.691 1.216.367 0 .724-.086 1.017-.245a.99.99 0 0 1 .904 0 2.16 2.16 0 0 0 1.018.245c.928 0 1.691-.549 1.691-1.216 0 0 .097-.95-1.22-2.376 1.983.947 3.305.877 3.305.877.928 0 1.691-.549 1.691-1.216 0-.264-.119-.521-.34-.732h0z"/></g><g class="C"><path d="M356.073 1057.996l-.457-.239-.027-.014.027-.015c2.904-1.646 5.012-3.394 6.094-5.054.591-.909.64-1.953.134-2.889-.447-.848-1.364-1.525-2.531-1.869l-.363-.092.004-.036.449-.022c.491.003.977.075 1.431.21 1.117.329 1.996.978 2.424 1.79.482.894.436 1.893-.129 2.761-.825 1.263-2.713 3.237-7.025 5.468l-.015.008-.015-.008z"/><path d="M363.104 1052.521c-.951 1.457-2.975 3.37-7.017 5.461l-.456-.239c3.408-1.931 5.205-3.685 6.102-5.06 1.173-1.8.152-4.033-2.41-4.782l-.366-.093a4.94 4.94 0 0 1 1.866.187c2.426.71 3.392 2.821 2.281 4.526z"/></g><g class="D"><path d="M355.616 1057.757c-3.986-2.129-5.765-4.022-6.556-5.234-.565-.869-.612-1.868-.129-2.762.428-.811 1.305-1.459 2.422-1.788.232-.068.473-.121.718-.158a4.94 4.94 0 0 1 .715-.053c.877.015 1.722.24 2.4.64a4.59 4.59 0 0 1 .902.651 5.06 5.06 0 0 1 2.866-1.264l.379.094c1.179.348 2.107 1.032 2.559 1.889.511.945.462 2-.135 2.918-1.086 1.665-3.199 3.417-6.109 5.067l-.015.009-.016-.009z"/><path d="M361.733 1052.682c-.897 1.375-2.694 3.129-6.102 5.06-3.74-1.998-5.633-3.824-6.548-5.227-1.111-1.703-.144-3.817 2.279-4.525.231-.068.47-.121.714-.158 1.1-.149 2.237.065 3.093.584.347.191.656.416.918.667s1.093-1.112 2.869-1.277l.366.093c2.562.749 3.583 2.982 2.41 4.782z"/></g><g class="C"><path d="M323.787 1108.526l-.457-.239-.027-.014.027-.015c2.904-1.646 5.012-3.394 6.094-5.054.591-.909.64-1.953.134-2.889-.447-.848-1.364-1.525-2.531-1.869l-.363-.092.004-.036.449-.022c.491.003.977.075 1.431.21 1.117.329 1.996.978 2.424 1.79.482.894.436 1.893-.129 2.761-.825 1.263-2.713 3.237-7.025 5.468l-.015.008-.015-.008z"/><path d="M330.818 1103.051c-.951 1.457-2.975 3.37-7.017 5.461l-.456-.239c3.408-1.931 5.205-3.685 6.102-5.06 1.173-1.8.152-4.033-2.41-4.782l-.366-.093a4.94 4.94 0 0 1 1.866.187c2.426.71 3.392 2.821 2.281 4.526z"/></g><g class="D"><path d="M323.33 1108.287c-3.986-2.129-5.765-4.022-6.556-5.234-.565-.869-.612-1.868-.129-2.762.428-.811 1.305-1.459 2.422-1.788.232-.068.473-.121.718-.158a4.94 4.94 0 0 1 .715-.053c.877.015 1.722.24 2.4.64a4.59 4.59 0 0 1 .902.651 5.06 5.06 0 0 1 2.866-1.264l.379.094c1.179.348 2.107 1.032 2.559 1.889.511.945.462 2-.135 2.918-1.086 1.665-3.199 3.417-6.109 5.067l-.015.009-.016-.009z"/><path d="M329.447 1103.212c-.897 1.375-2.694 3.129-6.102 5.06-3.74-1.998-5.633-3.824-6.548-5.227-1.111-1.703-.144-3.817 2.279-4.525.231-.068.47-.121.714-.158 1.1-.149 2.237.065 3.093.584.347.191.656.416.918.667s1.093-1.112 2.869-1.277l.366.093c2.562.749 3.583 2.982 2.41 4.782z"/></g><g class="C"><path d="M188.147 1108.526l-.457-.239-.027-.014.027-.015c2.904-1.646 5.012-3.394 6.094-5.054.591-.909.64-1.953.134-2.889-.447-.848-1.364-1.525-2.531-1.869l-.363-.092.004-.036.449-.022c.491.003.977.075 1.431.21 1.117.329 1.996.978 2.424 1.79.482.894.436 1.893-.129 2.761-.825 1.263-2.713 3.237-7.025 5.468l-.015.008-.015-.008z"/><path d="M195.178 1103.051c-.951 1.457-2.975 3.37-7.017 5.461l-.456-.239c3.408-1.931 5.205-3.685 6.102-5.06 1.173-1.8.152-4.033-2.41-4.782l-.366-.093a4.94 4.94 0 0 1 1.866.187c2.426.71 3.392 2.821 2.281 4.526z"/></g><g class="D"><path d="M187.69 1108.287c-3.986-2.129-5.765-4.022-6.556-5.234-.565-.869-.612-1.868-.129-2.762.428-.811 1.305-1.459 2.422-1.788.232-.068.473-.121.718-.158a4.94 4.94 0 0 1 .715-.053c.877.015 1.722.24 2.4.64a4.59 4.59 0 0 1 .902.651 5.06 5.06 0 0 1 2.866-1.264l.379.094c1.179.348 2.107 1.032 2.559 1.889.511.945.462 2-.135 2.918-1.086 1.665-3.199 3.417-6.109 5.067l-.015.009-.016-.009z"/><path d="M193.807 1103.212c-.897 1.375-2.694 3.129-6.102 5.06-3.74-1.998-5.633-3.824-6.548-5.227-1.111-1.703-.144-3.817 2.279-4.525.231-.068.47-.121.714-.158 1.1-.149 2.237.065 3.093.584.347.191.656.416.918.667s1.093-1.112 2.869-1.277l.366.093c2.562.749 3.583 2.982 2.41 4.782z"/></g><g class="E"><path d="M290.765 1049.034l-.732.351-1.221-.176-.732-.176-.977.176-.733-.176.488-.702h.977l.957-.344c.738.263 1.406.617 1.973 1.047zm-5.616-.703l-.244.527-.733.176-.733.878-1.221.527-1.709.176v.527l.488.351v.702l-.733-.351-.732-.351-.425-.918c.731-1.253 2.13-2.244 3.882-2.751l.694.334 1.465.176z"/><path d="M285.637 1053.247l-.244.878-.977.702v.527l-.977.527v.878l-.732-.176-.488-.878v-1.756l-1.221-.176-.488-.702v-.527l1.221-.878.488.702h1.709l.732.878h.977zm6.178-3.19c1.331 1.707 1.179 3.821-.391 5.42l-.659-.474v-.702l-.488-.702-.488-.702v-.702l-.732-.351-.977.176-1.709-.527-.244-1.229.733-.527h1.465l.488.527 1.465.176 1.465-.351.073-.03z"/></g><path d="M287.102 1049.209l.977-.176.733.176 1.221.176.732-.351c.409.308.762.652 1.05 1.024l-.073.03-1.465.351-1.465-.176-.488-.527h-1.465l-.733.527.244 1.229 1.709.527.977-.176.733.351v.702l.488.702.488.702v.702l.659.474c-1.326 1.351-3.486 2.156-5.786 2.156-3.885 0-7.081-2.298-7.081-5.092 0-.676.187-1.345.55-1.968l.425.918.732.351.733.351-.488.351v.527l.488.702 1.221.176v1.756l.488.878.732.176v-.878l.977-.527v-.527l.977-.702.244-.878h-.977l-.733-.878h-1.709l-.488-.702-.733.527v-.702l-.488-.351v-.527l1.709-.176 1.221-.527.733-.878.733-.176.244-.527-1.465-.176-.693-.333c1.877-.544 3.99-.483 5.802.165l-.957.344h-.977l-.488.702.733.176z" class="F"/><g class="E"><path d="M361.922 1074.704l-.732.351-1.221-.176-.732-.176-.977.176-.733-.176.488-.702h.977l.957-.344c.738.263 1.406.617 1.973 1.047zm-5.616-.703l-.244.527-.733.176-.733.878-1.221.527-1.709.176v.527l.488.351v.702l-.733-.351-.732-.351-.425-.918c.731-1.253 2.13-2.244 3.882-2.751l.694.334 1.465.176z"/><path d="M356.794 1078.917l-.244.878-.977.702v.527l-.977.527v.878l-.732-.176-.488-.878v-1.756l-1.221-.176-.488-.702v-.527l1.221-.878.488.702h1.709l.732.878h.977zm6.178-3.19c1.331 1.707 1.179 3.821-.391 5.42l-.659-.474v-.702l-.488-.702-.488-.702v-.702l-.732-.351-.977.176-1.709-.527-.244-1.229.733-.527h1.465l.488.527 1.465.176 1.465-.351.073-.03z"/></g><path d="M358.259 1074.879l.977-.176.733.176 1.221.176.732-.351c.409.308.762.652 1.05 1.024l-.073.03-1.465.351-1.465-.176-.488-.527h-1.465l-.733.527.244 1.229 1.709.527.977-.176.733.351v.702l.488.702.488.702v.702l.659.474c-1.326 1.351-3.486 2.156-5.786 2.156-3.885 0-7.081-2.298-7.081-5.092 0-.676.187-1.345.55-1.968l.425.918.732.351.733.351-.488.351v.527l.488.702 1.221.176v1.756l.488.878.732.176v-.878l.977-.527v-.527l.977-.702.244-.878h-.977l-.733-.878h-1.709l-.488-.702-.733.527v-.702l-.488-.351v-.527l1.709-.176 1.221-.527.733-.878.733-.176.244-.527-1.465-.176-.693-.333c1.877-.544 3.99-.483 5.802.165l-.957.344h-.977l-.488.702.733.176z" class="F"/><g class="E"><path d="M258.568 1099.904l-.732.351-1.221-.176-.732-.176-.977.176-.733-.176.488-.702h.977l.957-.344c.738.263 1.406.617 1.973 1.047zm-5.616-.703l-.244.527-.733.176-.733.878-1.221.527-1.709.176v.527l.488.351v.702l-.733-.351-.732-.351-.425-.918c.731-1.253 2.13-2.244 3.882-2.751l.694.334 1.465.176z"/><path d="M253.44 1104.117l-.244.878-.977.702v.527l-.977.527v.878l-.732-.176-.488-.878v-1.756l-1.221-.176-.488-.702v-.527l1.221-.878.488.702h1.709l.732.878h.977zm6.178-3.19c1.331 1.707 1.179 3.821-.391 5.42l-.659-.474v-.702l-.488-.702-.488-.702v-.702l-.732-.351-.977.176-1.709-.527-.244-1.229.733-.527h1.465l.488.527 1.465.176 1.465-.351.073-.03z"/></g><path d="M254.905 1100.079l.977-.176.733.176 1.221.176.732-.351c.409.308.762.652 1.05 1.024l-.073.03-1.465.351-1.465-.176-.488-.527h-1.465l-.733.527.244 1.229 1.709.527.977-.176.733.351v.702l.488.702.488.702v.702l.659.474c-1.326 1.351-3.486 2.156-5.786 2.156-3.885 0-7.081-2.298-7.081-5.092 0-.676.187-1.345.55-1.968l.425.918.732.351.733.351-.488.351v.527l.488.702 1.221.176v1.756l.488.878.732.176v-.878l.977-.527v-.527l.977-.702.244-.878h-.977l-.733-.878h-1.709l-.488-.702-.733.527v-.702l-.488-.351v-.527l1.709-.176 1.221-.527.733-.878.733-.176.244-.527-1.465-.176-.693-.333c1.877-.544 3.99-.483 5.802.165l-.957.344h-.977l-.488.702.733.176z" class="F"/><g class="E"><path d="M122.929 1099.904l-.732.351-1.221-.176-.732-.176-.977.176-.733-.176.488-.702h.977l.957-.344c.738.263 1.406.617 1.973 1.047zm-5.616-.703l-.244.527-.733.176-.733.878-1.221.527-1.709.176v.527l.488.351v.702l-.733-.351-.732-.351-.425-.918c.731-1.253 2.13-2.244 3.882-2.751l.694.334 1.465.176z"/><path d="M117.801 1104.117l-.244.878-.977.702v.527l-.977.527v.878l-.732-.176-.488-.878v-1.756l-1.221-.176-.488-.702v-.527l1.221-.878.488.702h1.709l.732.878h.977zm6.177-3.19c1.331 1.707 1.179 3.821-.391 5.42l-.659-.474v-.702l-.488-.702-.488-.702v-.702l-.732-.351-.977.176-1.709-.527-.244-1.229.733-.527h1.465l.488.527 1.465.176 1.465-.351.073-.03z"/></g><path d="M119.266 1100.079l.977-.176.733.176 1.221.176.732-.351c.409.308.762.652 1.05 1.024l-.073.03-1.465.351-1.465-.176-.488-.527h-1.465l-.733.527.244 1.229 1.709.527.977-.176.733.351v.702l.488.702.488.702v.702l.659.474c-1.326 1.351-3.486 2.156-5.786 2.156-3.885 0-7.081-2.298-7.081-5.092 0-.676.187-1.345.55-1.968l.425.918.732.351.733.351-.488.351v.527l.488.702 1.221.176v1.756l.488.878.732.176v-.878l.977-.527v-.527l.977-.702.244-.878h-.977l-.733-.878h-1.709l-.488-.702-.733.527v-.702l-.488-.351v-.527l1.709-.176 1.221-.527.733-.878.733-.176.244-.527-1.465-.176-.693-.333c1.877-.544 3.99-.483 5.802.165l-.957.344h-.977l-.488.702.733.176z" class="F"/><g fill="#c0e7ff"><path d="M326.546 1052.156a4.96 4.96 0 0 0-.713.051c-.274-.984-1.487-1.698-2.882-1.698a3.93 3.93 0 0 0-1.235.196c-.562-1.113-2.041-1.859-3.688-1.859-2.152 0-3.924 1.274-3.924 2.821a2.13 2.13 0 0 0 .236.963c-1.754.04-3.167 1.088-3.167 2.351 0 1.289 1.473 2.35 3.266 2.352h12.107c1.974-.001 3.597-1.169 3.597-2.588s-1.623-2.587-3.596-2.588h-.001 0zm-32.242 50.32a4.96 4.96 0 0 0-.713.051c-.274-.984-1.487-1.698-2.882-1.698a3.93 3.93 0 0 0-1.235.196c-.562-1.113-2.041-1.859-3.688-1.859-2.152 0-3.924 1.274-3.924 2.821a2.13 2.13 0 0 0 .236.963c-1.754.04-3.167 1.088-3.167 2.351 0 1.289 1.473 2.35 3.266 2.352h12.107c1.974-.001 3.597-1.169 3.597-2.588s-1.623-2.587-3.596-2.588h-.001 0zm-135.639 0a4.96 4.96 0 0 0-.713.051c-.274-.984-1.487-1.698-2.882-1.698a3.93 3.93 0 0 0-1.235.196c-.562-1.113-2.041-1.859-3.688-1.859-2.152 0-3.924 1.274-3.924 2.821a2.13 2.13 0 0 0 .236.963c-1.754.04-3.167 1.088-3.167 2.351 0 1.289 1.473 2.35 3.266 2.352h12.107c1.974-.001 3.597-1.169 3.597-2.588s-1.623-2.587-3.596-2.588h-.001 0z"/></g></g></g><use xlink:href="#C" fill="none" stroke="#000" stroke-width="1.84"/></g><defs ><path id="C" d="M400 75.792c0-4.779-4.521-8.659-10.09-8.659H125.976c-5.569 0-10.09 3.88-10.09 8.659v73.044c0 4.779 4.521 8.659 10.09 8.659H389.91c5.569 0 10.09-3.88 10.09-8.659V75.792z"/><path id="D" d="M123.565 1053.071a.42.42 0 0 1 0-.65c.221-.211.34-.468.34-.732 0-.667-.763-1.216-1.691-1.216-.001 0-1.322-.07-3.305.877 1.317-1.426 1.22-2.376 1.22-2.376 0-.667-.764-1.216-1.691-1.216-.367 0-.724.086-1.018.245a.99.99 0 0 1-.904 0c-.293-.159-.65-.245-1.017-.245-.928 0-1.691.549-1.691 1.216 0 0-.097.95 1.22 2.376-1.983-.947-3.305-.877-3.305-.877-.928 0-1.691.549-1.691 1.216 0 .264.119.521.34.732a.42.42 0 0 1 0 .65c-.221.211-.34.468-.34.732 0 .667.764 1.216 1.691 1.216 0 0 1.322.07 3.305-.877-1.317 1.426-1.22 2.376-1.22 2.376 0 .667.764 1.216 1.691 1.216.367 0 .724-.086 1.017-.245a.99.99 0 0 1 .904 0 2.16 2.16 0 0 0 1.018.245c.928 0 1.691-.549 1.691-1.216 0 0 .097-.95-1.22-2.376 1.983.947 3.305.877 3.305.877.928 0 1.691-.549 1.691-1.216 0-.264-.119-.521-.34-.732h0z"/><path id="E" d="M116.453 1083.136l-.457-.239-.027-.014.027-.015c2.904-1.646 5.012-3.394 6.094-5.054.591-.909.64-1.953.134-2.889-.447-.848-1.364-1.525-2.531-1.869l-.363-.092.004-.036.449-.022c.491.003.977.075 1.431.21 1.117.329 1.996.978 2.424 1.79.482.894.436 1.893-.129 2.761-.825 1.263-2.713 3.237-7.025 5.468l-.015.008-.015-.008z"/><path id="F" d="M123.484 1077.661c-.951 1.457-2.975 3.37-7.017 5.461l-.456-.239c3.408-1.931 5.205-3.685 6.102-5.06 1.173-1.8.152-4.033-2.41-4.782l-.366-.093a4.94 4.94 0 0 1 1.866.187c2.426.71 3.392 2.821 2.281 4.526z"/><path id="G" d="M115.996 1082.897c-3.986-2.129-5.765-4.022-6.556-5.234-.565-.869-.612-1.868-.129-2.762.428-.811 1.305-1.459 2.422-1.788.232-.068.473-.121.718-.158a4.94 4.94 0 0 1 .715-.053c.877.015 1.722.24 2.4.64a4.59 4.59 0 0 1 .902.651 5.06 5.06 0 0 1 2.866-1.264l.379.094c1.179.348 2.107 1.032 2.559 1.889.511.945.462 2-.135 2.918-1.086 1.665-3.199 3.417-6.109 5.067l-.015.009-.016-.009z"/><path id="H" d="M122.113 1077.822c-.897 1.375-2.694 3.129-6.102 5.06-3.74-1.998-5.633-3.824-6.548-5.227-1.111-1.703-.144-3.817 2.279-4.525.231-.068.47-.121.714-.158 1.1-.149 2.237.065 3.093.584.347.191.656.416.918.667s1.093-1.112 2.869-1.277l.366.093c2.562.749 3.583 2.982 2.41 4.782z"/><path id="I" d="M154.946 1049.334l-.732.351-1.221-.176-.732-.176-.977.176-.733-.176.488-.702h.977l.957-.344c.738.263 1.406.617 1.973 1.047z"/><path id="J" d="M149.33 1048.631l-.244.527-.733.176-.733.878-1.221.527-1.709.176v.527l.488.351v.702l-.733-.351-.732-.351-.425-.918c.731-1.253 2.13-2.244 3.882-2.751l.694.334 1.465.176z"/><path id="K" d="M149.818 1053.547l-.244.878-.977.702v.527l-.977.527v.878l-.732-.176-.488-.878v-1.756l-1.221-.176-.488-.702v-.527l1.221-.878.488.702h1.709l.732.878h.977z"/><path id="L" d="M155.996 1050.357c1.331 1.707 1.179 3.821-.391 5.42l-.659-.474v-.702l-.488-.702-.488-.702v-.702l-.732-.351-.977.176-1.709-.527-.244-1.229.733-.527h1.465l.488.527 1.465.176 1.465-.351.073-.03z"/><path id="M" d="M151.283 1049.509l.977-.176.733.176 1.221.176.732-.351c.409.308.762.652 1.05 1.024l-.073.03-1.465.351-1.465-.176-.488-.527h-1.465l-.733.527.244 1.229 1.709.527.977-.176.733.351v.702l.488.702.488.702v.702l.659.474c-1.326 1.351-3.486 2.156-5.786 2.156-3.885 0-7.081-2.298-7.081-5.092 0-.676.187-1.345.55-1.968l.425.918.732.351.733.351-.488.351v.527l.488.702 1.221.176v1.756l.488.878.732.176v-.878l.977-.527v-.527l.977-.702.244-.878h-.977l-.733-.878h-1.709l-.488-.702-.733.527v-.702l-.488-.351v-.527l1.709-.176 1.221-.527.733-.878.733-.176.244-.527-1.465-.176-.693-.333c1.877-.544 3.99-.483 5.802.165l-.957.344h-.977l-.488.702.733.176z"/><path id="N" d="M190.727 1052.456a4.96 4.96 0 0 0-.713.051c-.274-.984-1.487-1.698-2.882-1.698a3.93 3.93 0 0 0-1.235.196c-.562-1.113-2.041-1.859-3.688-1.859-2.152 0-3.924 1.274-3.924 2.821 0 .328.08.654.236.963-1.754.04-3.167 1.088-3.167 2.351 0 1.289 1.473 2.35 3.266 2.352h12.107c1.974-.001 3.597-1.169 3.597-2.588s-1.623-2.587-3.596-2.588h-.001 0z"/></defs></svg>