<svg xmlns="http://www.w3.org/2000/svg" xmlns:xlink="http://www.w3.org/1999/xlink" width="100%" height="100%" viewBox="0 0 287 108" fill-rule="evenodd" stroke-linecap="round" stroke-linejoin="round" stroke-miterlimit="1.5" xmlns:v="https://vecta.io/nano"><g transform="matrix(.999996 0 0 1.16526 -114.180641 -77.084587)"><use xlink:href="#C" fill="#f1f2f6"/><clipPath id="A"><use xlink:href="#C"/></clipPath><g clip-path="url(#A)"><g fill-rule="nonzero"><path d="M197.328 83.732c1.204 0 2.275.378 3.212 1.134s1.723 1.751 2.358 2.986 1.121 2.636 1.455 4.205.502 3.177.502 4.823a23.09 23.09 0 0 1-.502 4.823c-.334 1.569-.82 2.971-1.455 4.205s-1.421 2.229-2.358 2.986a4.97 4.97 0 0 1-3.212 1.134c-.357 0-.669-.087-.937-.258a2.05 2.05 0 0 1-.652-.675c-.168-.277-.296-.579-.385-.904a3.58 3.58 0 0 1-.133-.947v-5.698l.016-3.99.017-4.12v-6.803c0-.823.15-1.512.451-2.067s.842-.832 1.622-.832zm-.703 23.541c0 .172.011.354.034.545a1.59 1.59 0 0 0 .167.545 1.3 1.3 0 0 0 .351.43c.145.115.351.173.619.173.87 0 1.645-.344 2.325-1.033s1.255-1.603 1.723-2.742.831-2.431 1.088-3.876a25.37 25.37 0 0 0 .384-4.435c0-1.512-.128-2.99-.384-4.435s-.619-2.732-1.088-3.861-1.043-2.043-1.723-2.742-1.455-1.048-2.325-1.048c-.312 0-.563.071-.753.216s-.307.473-.351.99v2.971l-.017 3.933-.016 4.306-.017 4.076-.017 3.244v2.742zm16.827 2.44c-.447-.67-.825-1.445-1.138-2.325a27.71 27.71 0 0 1-.82-2.785l-.602-2.999-.502-3-.518-2.771c-.178-.87-.39-1.641-.636-2.311l-.334.014c-.111.01-.324.015-.636.015v1.493l.033 1.493c0 .058-.006.134-.016.23l-.051.516-.066 1.077-.067 1.923-.05 3.029-.017 4.421v1.636c-.044.172-.14.306-.284.402a.92.92 0 0 1-.518.143c-.111-.019-.207-.072-.284-.158s-.117-.216-.117-.387l-.101-1.593-.033-1.766.017-1.349.016-2.081.017-2.613.017-2.971.1-5.498.1-5.497v-1.636c.045-.173.14-.306.284-.402s.318-.144.518-.144l.134.058a6.32 6.32 0 0 1 1.071-.086l.87.015.987.043c.323.019.624.058.903.115a3.57 3.57 0 0 1 .686.201c.982.498 1.689 1.177 2.125 2.038s.652 1.751.652 2.67a4.66 4.66 0 0 1-.201 1.335c-.134.45-.379.876-.736 1.278s-.831.765-1.422 1.091-1.332.574-2.224.746a33.67 33.67 0 0 1 .87 4.048l.652 4.019c.234 1.34.535 2.66.904 3.961a19.68 19.68 0 0 0 1.555 3.847c.111.134.167.239.167.316a.4.4 0 0 1-.217.359c-.145.086-.307.129-.485.129a.74.74 0 0 1-.602-.287zm-5.118-24.746v7.78c1.137-.096 2.074-.263 2.81-.502s1.311-.526 1.723-.861.697-.708.853-1.12.234-.847.234-1.306a6.3 6.3 0 0 0-.134-1.22c-.089-.45-.245-.876-.468-1.278a3.07 3.07 0 0 0-.92-1.019c-.39-.278-.875-.435-1.455-.474h-2.642zm13.079-.574a.59.59 0 0 1 .602-.516c.156 0 .301.067.435.201.78 2.086 1.421 4.196 1.923 6.33l1.305 6.431 1.054 6.488 1.171 6.474c0 .211-.073.378-.218.502s-.306.186-.485.186c-.29 0-.468-.162-.535-.488a27.69 27.69 0 0 1-.602-2.555l-.502-2.798-.418-2.67-.317-2.167-2.292.129-2.325.1-.502 2.44-.636 2.412-.602 2.426c-.178.814-.301 1.631-.368 2.455a.62.62 0 0 1-.267.359c-.134.086-.267.129-.401.129-.312 0-.502-.163-.569-.488.937-4.211 1.767-8.426 2.492-12.646l2.057-12.732zm.87 2.211l-.936 6.172-1.004 6.172a55.41 55.41 0 0 0 2.191-.1l2.158-.13-2.409-12.114zm22.078 20.669l1.021-5.914.92-5.942 2.241-10.823a.62.62 0 0 1 .268-.359c.133-.086.267-.129.401-.129.312 0 .502.162.569.488a346.85 346.85 0 0 0-2.475 12.416l-2.075 12.473c-.022.153-.089.278-.2.373s-.245.143-.401.143-.301-.067-.435-.201l-1.154-3.201-.853-2.569-.669-2.254-.602-2.268-.669-2.613-.87-3.287c-.245 1.206-.485 2.263-.719 3.172l-.686 2.527-.652 2.196c-.212.689-.418 1.421-.619 2.196s-.401 1.627-.602 2.555-.391 2.005-.569 3.229c-.022.153-.089.278-.2.373s-.245.143-.401.143-.301-.067-.435-.201a53.83 53.83 0 0 1-1.924-6.258 102.75 102.75 0 0 1-1.304-6.273l-1.054-6.316c-.334-2.114-.725-4.244-1.171-6.388a.63.63 0 0 1 .217-.502c.144-.124.307-.187.485-.187.29 0 .468.163.535.489.223.765.424 1.617.602 2.555l.502 2.799a74.5 74.5 0 0 1 .401 2.67 40.46 40.46 0 0 0 .334 2.167c0 .058.006.134.017.229s.044.283.1.56l.234 1.206.435 2.182.702 3.474 1.054 5.067.837-3.402.853-3.503.786-3.345.686-2.956.552-2.326.368-1.435a.99.99 0 0 1 .251-.502.61.61 0 0 1 .451-.186c.29 0 .468.163.535.488l.1.23c0 .019-.006.033-.017.043s-.016.024-.016.043a65.21 65.21 0 0 0 .585 2.627l.736 3 .82 3.129.836 3.058.753 2.77.585 2.268zm19.938-3.015l.017 1.464.033.832.017.402v1.335a4.09 4.09 0 0 1-.034.531h5.252c.023 0 .123.053.301.158s.29.215.334.33c0 .172-.056.32-.167.445s-.268.206-.468.244h-5.687c-.245 0-.441-.038-.585-.115s-.217-.344-.217-.803v-1.263l-.017-2.096-.05-2.153v-.143l-.1-3.33-.034-3.272-.017-2.972-.016-2.612-.017-2.082-.017-1.349v-1.751l.067-1.637c0-.229.067-.387.201-.473a.79.79 0 0 1 .435-.13c.178 0 .329.044.451.13s.184.244.184.473l.134 19.837zm18.565-7.377a45.56 45.56 0 0 1-.234 4.665c-.156 1.521-.44 2.89-.853 4.105s-.976 2.216-1.689 3-1.639 1.234-2.776 1.349c-1.138-.115-2.069-.565-2.793-1.349s-1.305-1.785-1.739-3-.736-2.584-.904-4.105-.25-3.077-.25-4.665a43.09 43.09 0 0 1 .25-4.679c.168-1.531.468-2.904.904-4.119s1.014-2.22 1.739-3.015 1.656-1.249 2.793-1.363c1.137.038 2.063.445 2.776 1.22s1.277 1.785 1.689 3.029.697 2.645.853 4.205l.234 4.722zm-5.553 12.086a2.44 2.44 0 0 0 2.074-1.048c.513-.699.914-1.613 1.204-2.742s.48-2.417.569-3.861l.133-4.435-.133-4.421c-.09-1.455-.279-2.746-.569-3.875s-.691-2.043-1.204-2.742a2.44 2.44 0 0 0-2.074-1.048 2.48 2.48 0 0 0-2.091 1.048c-.524.699-.925 1.612-1.204 2.742s-.468 2.421-.569 3.875l-.15 4.421.15 4.435c.101 1.445.29 2.733.569 3.861s.68 2.043 1.204 2.742a2.48 2.48 0 0 0 2.091 1.048zm14.82-25.235c.58 0 1.064.191 1.455.574s.619 1.043.686 1.981c-.023.268-.111.483-.268.646s-.323.244-.502.244a.59.59 0 0 1-.451-.201c-.123-.134-.207-.364-.251-.689-.067-.651-.184-1.062-.351-1.234s-.429-.258-.786-.258c-.87 0-1.639.349-2.309 1.048s-1.237 1.612-1.706 2.742-.825 2.416-1.071 3.861-.368 2.924-.368 4.435a26.51 26.51 0 0 0 .368 4.435c.245 1.445.602 2.737 1.071 3.876s1.037 2.052 1.706 2.742 1.439 1.033 2.309 1.033c.357 0 .619-.086.786-.258s.284-.584.351-1.234l.05-2.641.05-2.986v-.617l-.033-.674c-.023-.211-.061-.393-.117-.545s-.128-.23-.217-.23h-1.305l-1.237.029c-.224 0-.385-.048-.485-.144a.46.46 0 0 1-.151-.344c0-.134.056-.258.168-.373a.86.86 0 0 1 .468-.23l1.287-.028h1.255a8.3 8.3 0 0 1 .803.058c.357.038.591.163.703.373l.1 1.278.034 1.277.066 1.522.067 2.067-.083 1.723a6.66 6.66 0 0 1-.318 1.536c-.156.45-.373.813-.652 1.091s-.652.416-1.12.416a4.97 4.97 0 0 1-3.212-1.134c-.937-.756-1.723-1.751-2.358-2.986s-1.121-2.636-1.455-4.205a23.04 23.04 0 0 1-.502-4.823c0-1.646.167-3.253.502-4.823s.82-2.971 1.455-4.205 1.421-2.23 2.358-2.986a4.97 4.97 0 0 1 3.212-1.134zm14.919 13.149c0 1.588-.078 3.144-.234 4.665s-.441 2.89-.854 4.105-.976 2.216-1.689 3-1.639 1.234-2.777 1.349c-1.137-.115-2.068-.565-2.793-1.349s-1.304-1.785-1.739-3-.736-2.584-.903-4.105a42.7 42.7 0 0 1-.251-4.665 43.09 43.09 0 0 1 .251-4.679c.167-1.531.468-2.904.903-4.119s1.015-2.22 1.739-3.015 1.656-1.249 2.793-1.363c1.138.038 2.063.445 2.777 1.22s1.277 1.785 1.689 3.029.697 2.645.854 4.205l.234 4.722zm-5.553 12.086a2.44 2.44 0 0 0 2.075-1.048c.513-.699.914-1.613 1.204-2.742s.48-2.417.569-3.861l.134-4.435-.134-4.421c-.089-1.455-.279-2.746-.569-3.875s-.691-2.043-1.204-2.742a2.44 2.44 0 0 0-2.075-1.048 2.48 2.48 0 0 0-2.091 1.048c-.524.699-.925 1.612-1.204 2.742s-.468 2.421-.569 3.875l-.15 4.421.15 4.435c.1 1.445.29 2.733.569 3.861s.68 2.043 1.204 2.742a2.48 2.48 0 0 0 2.091 1.048zm13.214 1.062c-.29 0-.664-.048-1.121-.144a6.24 6.24 0 0 1-1.338-.445c-.435-.201-.82-.464-1.154-.789s-.513-.717-.535-1.177c.023-.268.111-.484.268-.646s.323-.244.502-.244.329.067.451.201.207.363.251.689c.023.325.167.584.435.775a3.15 3.15 0 0 0 .921.445c.346.105.686.177 1.02.216l.77.058a3.39 3.39 0 0 0 1.087-.186c.368-.125.697-.306.987-.545a2.78 2.78 0 0 0 .703-.876c.179-.345.267-.727.267-1.148 0-.651-.234-1.148-.703-1.493s-1.047-.646-1.739-.904l-2.274-.775a8.37 8.37 0 0 1-2.275-1.105c-.691-.478-1.271-1.11-1.739-1.895s-.703-1.837-.703-3.158c0-1.646.167-3.253.502-4.823s.82-2.971 1.455-4.205 1.422-2.23 2.358-2.986a4.97 4.97 0 0 1 3.212-1.134c.647 0 1.188.139 1.622.416s.781.646 1.037 1.105.441.995.552 1.607a10.6 10.6 0 0 1 .167 1.895c0 .153-.1.278-.301.373s-.39.143-.569.143c-.29 0-.435-.086-.435-.258a9.22 9.22 0 0 0-.133-1.593 4.77 4.77 0 0 0-.435-1.349 2.53 2.53 0 0 0-.786-.933c-.324-.229-.719-.344-1.188-.344-.87 0-1.634.344-2.291 1.033s-1.21 1.598-1.656 2.727-.786 2.412-1.02 3.847-.351 2.9-.351 4.392c0 1.168.229 2.096.686 2.785s1.026 1.244 1.706 1.665a9.62 9.62 0 0 0 2.224 1.005c.803.249 1.545.521 2.225.818s1.249.675 1.706 1.134.686 1.091.686 1.895c0 .594-.156 1.13-.468 1.608a4.62 4.62 0 0 1-1.188 1.234 5.71 5.71 0 0 1-1.622.804c-.602.191-1.193.288-1.773.288zm-122.919 11.574v18.688c0 .23-.061.388-.184.474a.77.77 0 0 1-.452.129.79.79 0 0 1-.435-.129c-.134-.086-.201-.244-.201-.474-.044-.44-.066-.985-.066-1.636v-1.751l.016-1.349.017-2.082.017-2.612.016-2.972.051-3.272.05-3.33v-3.618l.033-.775.067-1.263c0-.459.073-.727.217-.804s.34-.114.585-.114h5.687c.201.038.357.119.468.244s.167.272.167.445c-.044.115-.156.225-.334.33l-.301.158h-5.252c.022.173.033.349.033.531v1.335l-.017.402-.033.832-.017 1.464h2.877c.423.057.636.258.636.602-.023.096-.084.216-.184.359s-.251.216-.451.216l-3.011-.028zm14.35 19.004c-.446-.67-.825-1.445-1.137-2.325a27.56 27.56 0 0 1-.82-2.785l-.602-3-.502-3-.518-2.77c-.178-.871-.39-1.641-.636-2.311l-.334.015c-.111.01-.324.014-.636.014v1.493l.033 1.493a2.12 2.12 0 0 1-.017.229l-.05.517-.067 1.076-.066 1.923-.051 3.029-.016 4.421v1.636c-.044.173-.14.306-.284.402a.92.92 0 0 1-.518.143.48.48 0 0 1-.285-.158c-.078-.086-.117-.215-.117-.387l-.1-1.593-.033-1.766.016-1.349.017-2.082.017-2.612.017-2.972.1-5.497.1-5.498v-1.636c.044-.173.14-.306.284-.402a.92.92 0 0 1 .518-.143l.134.058a6.26 6.26 0 0 1 1.071-.087l.87.015.987.043c.323.019.624.058.903.115s.507.124.686.201c.981.498 1.689 1.177 2.125 2.038s.652 1.751.652 2.67a4.65 4.65 0 0 1-.2 1.335c-.134.449-.379.875-.736 1.277s-.831.766-1.422 1.091-1.332.574-2.225.746c.379 1.359.669 2.708.87 4.048l.652 4.019c.234 1.34.535 2.66.904 3.962a19.56 19.56 0 0 0 1.555 3.847c.111.134.167.239.167.315a.4.4 0 0 1-.217.359.93.93 0 0 1-.485.129.74.74 0 0 1-.602-.287zm-5.118-24.746v7.78c1.137-.096 2.074-.263 2.81-.502s1.311-.527 1.723-.861.697-.708.853-1.12.234-.847.234-1.306a6.3 6.3 0 0 0-.134-1.22 4.36 4.36 0 0 0-.468-1.277 3.07 3.07 0 0 0-.92-1.019c-.39-.277-.875-.435-1.455-.473h-2.642zm19.837 11.914a45.74 45.74 0 0 1-.234 4.665c-.156 1.522-.44 2.89-.853 4.105s-.976 2.215-1.689 2.999-1.639 1.235-2.776 1.349c-1.138-.114-2.069-.564-2.793-1.349s-1.305-1.785-1.739-2.999-.736-2.584-.904-4.105-.25-3.076-.25-4.665.083-3.148.25-4.679.468-2.904.904-4.12 1.014-2.22 1.739-3.014 1.656-1.249 2.793-1.364c1.137.038 2.063.445 2.776 1.22s1.277 1.785 1.689 3.029.697 2.646.853 4.205l.234 4.723zm-5.553 12.086a2.44 2.44 0 0 0 2.074-1.048c.513-.699.914-1.612 1.204-2.742s.48-2.416.569-3.861l.134-4.435-.134-4.421c-.089-1.454-.279-2.746-.569-3.875s-.691-2.043-1.204-2.742a2.44 2.44 0 0 0-2.074-1.048 2.48 2.48 0 0 0-2.091 1.048c-.524.699-.925 1.613-1.205 2.742s-.468 2.421-.569 3.875l-.15 4.421.15 4.435c.1 1.445.29 2.732.569 3.861s.681 2.043 1.205 2.742a2.48 2.48 0 0 0 2.091 1.048zm19.402-12.43l-.016-2.512-.017-2.297-.017-1.952-.016-1.45-1.238 4.364-1.271 4.306-.987 3.273-.82 2.813c-.044.211-.134.364-.267.459s-.279.143-.435.143c-.178 0-.329-.058-.451-.172a.87.87 0 0 1-.251-.431l-1.806-6.086-1.271-4.306-1.238-4.364-.016 1.45-.034 1.952-.016 2.297v3.661l-.117 5.038-.084 5.01v1.636c-.044.173-.14.306-.284.402a.92.92 0 0 1-.518.143.48.48 0 0 1-.284-.158c-.078-.086-.117-.215-.117-.387l-.1-1.593-.034-1.766.017-1.349.017-2.082.016-2.612.017-2.972.1-5.497.1-5.498v-1.636c.023-.191.134-.335.335-.431l.167-.057a.75.75 0 0 1 .301-.058l.2.086c.157.096.268.249.334.459.224.498.43 1.028.619 1.593l.552 1.765.435 1.306.669 2.053.786 2.569.82 2.886 1.07 3.99 1.271-3.99.854-2.857.769-2.584.619-2.067.401-1.306.552-1.765.619-1.593c.066-.23.167-.383.3-.459.045-.038.09-.058.134-.058a1.09 1.09 0 0 0 .201-.028c.044 0 .111.019.2.058l.134.057c.223.096.346.24.368.431v1.636l.1 5.498.1 5.497.017 2.972.017 2.612.016 2.082.017 1.349-.033 1.766-.101 1.593c0 .173-.039.301-.117.387a.48.48 0 0 1-.284.158.92.92 0 0 1-.518-.143.66.66 0 0 1-.284-.402v-1.636l-.084-5.01-.117-5.038v-1.148zm26.929 0l-.017-2.512-.017-2.297-.016-1.952-.017-1.45-1.238 4.364-1.271 4.306-.987 3.273-.82 2.813c-.044.211-.133.364-.267.459s-.279.143-.435.143c-.178 0-.329-.058-.451-.172a.88.88 0 0 1-.251-.431l-1.806-6.086-1.272-4.306-1.237-4.364-.017 1.45-.033 1.952-.017 2.297v3.661l-.117 5.038-.084 5.01v1.636a.66.66 0 0 1-.284.402c-.145.096-.317.143-.518.143a.48.48 0 0 1-.284-.158c-.078-.086-.117-.215-.117-.387l-.1-1.593-.034-1.766.017-1.349.017-2.082.017-2.612.016-2.972.1-5.497.101-5.498v-1.636c.022-.191.133-.335.334-.431l.167-.057a.75.75 0 0 1 .301-.058l.2.086c.157.096.268.249.335.459.223.498.429 1.028.619 1.593l.552 1.765.435 1.306.669 2.053.786 2.569.82 2.886 1.07 3.99 1.272-3.99.853-2.857.77-2.584.619-2.067.401-1.306.552-1.765.619-1.593c.067-.23.167-.383.301-.459.044-.038.089-.058.133-.058a1.08 1.08 0 0 0 .201-.028.57.57 0 0 1 .201.058l.133.057c.223.096.346.24.368.431v1.636l.1 5.498.1 5.497.017 2.972.017 2.612.017 2.082.016 1.349-.033 1.766-.1 1.593c0 .173-.04.301-.117.387a.48.48 0 0 1-.285.158.92.92 0 0 1-.518-.143c-.145-.096-.239-.229-.284-.402v-1.636l-.083-5.01-.117-5.038v-1.148zm10.571-12.804c.647 0 1.187.139 1.622.416s.78.646 1.037 1.105.44.995.552 1.608a10.56 10.56 0 0 1 .168 1.895 16.16 16.16 0 0 1-.535 4.091 12.86 12.86 0 0 1-1.639 3.76 10.48 10.48 0 0 1-2.793 2.9c-1.126.794-2.459 1.287-3.997 1.478a19.65 19.65 0 0 0 .686 3.115c.301.966.669 1.808 1.104 2.526s.931 1.287 1.488 1.708 1.171.631 1.84.631c.357 0 .619-.086.786-.258s.284-.584.351-1.234c.044-.325.128-.555.251-.689a.59.59 0 0 1 .451-.201c.178 0 .346.081.502.244s.245.378.268.646c-.067.938-.296 1.598-.686 1.981s-.875.574-1.455.574a4.97 4.97 0 0 1-3.212-1.134c-.937-.756-1.723-1.751-2.358-2.986s-1.121-2.636-1.455-4.205-.502-3.177-.502-4.823a23.04 23.04 0 0 1 .502-4.823c.334-1.569.82-2.971 1.455-4.205s1.421-2.229 2.358-2.986a4.97 4.97 0 0 1 3.212-1.134zm-5.921 13.149l.05 1.378.117 1.349c1.271-.134 2.392-.545 3.362-1.234a9.64 9.64 0 0 0 2.459-2.541 11.53 11.53 0 0 0 1.505-3.302 13.03 13.03 0 0 0 .502-3.517c0-.554-.044-1.086-.134-1.593a4.76 4.76 0 0 0-.435-1.349c-.201-.393-.463-.703-.786-.933s-.719-.344-1.187-.344c-.87 0-1.639.349-2.308 1.048s-1.238 1.613-1.706 2.742-.825 2.417-1.071 3.861a26.51 26.51 0 0 0-.368 4.435zm22.747-.345l-.017-2.512-.016-2.297-.017-1.952-.017-1.45-1.238 4.364-1.271 4.306-.987 3.273-.82 2.813c-.044.211-.133.364-.267.459s-.279.143-.435.143a.64.64 0 0 1-.452-.172c-.123-.115-.206-.258-.25-.431l-1.806-6.086-1.271-4.306-1.238-4.364-.017 1.45-.033 1.952-.017 2.297v3.661l-.117 5.038-.083 5.01v1.636c-.045.173-.14.306-.285.402s-.317.143-.518.143a.48.48 0 0 1-.284-.158c-.078-.086-.117-.215-.117-.387l-.1-1.593-.033-1.766.016-1.349.017-2.082.017-2.612.016-2.972.101-5.497.1-5.498v-1.636c.023-.191.134-.335.334-.431l.167-.057a.75.75 0 0 1 .301-.058l.201.086c.156.096.267.249.334.459a17.4 17.4 0 0 1 .619 1.593l.552 1.765.435 1.306.669 2.053.786 2.569.82 2.886 1.071 3.99 1.271-3.99.853-2.857.77-2.584.619-2.067.401-1.306.552-1.765.619-1.593c.067-.23.167-.383.301-.459.044-.038.089-.058.134-.058s.111-.01.2-.028a.57.57 0 0 1 .201.058l.133.057c.224.096.346.24.368.431v1.636l.1 5.498.101 5.497.016 2.972.017 2.612.017 2.082.016 1.349-.033 1.766-.1 1.593c0 .173-.04.301-.117.387a.48.48 0 0 1-.284.158.92.92 0 0 1-.518-.143.66.66 0 0 1-.284-.402v-1.636l-.084-5.01-.117-5.038v-1.148zm14.653.344a45.74 45.74 0 0 1-.234 4.665c-.157 1.522-.441 2.89-.854 4.105s-.976 2.215-1.689 2.999-1.639 1.235-2.776 1.349c-1.137-.114-2.068-.564-2.793-1.349s-1.304-1.785-1.739-2.999-.736-2.584-.903-4.105a42.68 42.68 0 0 1-.251-4.665 43.08 43.08 0 0 1 .251-4.679c.167-1.532.468-2.904.903-4.12s1.015-2.22 1.739-3.014 1.656-1.249 2.793-1.364c1.138.038 2.063.445 2.776 1.22s1.277 1.785 1.689 3.029.697 2.646.854 4.205l.234 4.723zm-5.553 12.086a2.44 2.44 0 0 0 2.075-1.048c.513-.699.914-1.612 1.204-2.742s.48-2.416.569-3.861l.134-4.435-.134-4.421c-.089-1.454-.279-2.746-.569-3.875s-.691-2.043-1.204-2.742a2.44 2.44 0 0 0-2.075-1.048 2.48 2.48 0 0 0-2.091 1.048c-.524.699-.925 1.613-1.204 2.742s-.468 2.421-.569 3.875l-.151 4.421.151 4.435c.1 1.445.29 2.732.569 3.861s.68 2.043 1.204 2.742a2.48 2.48 0 0 0 2.091 1.048zm14.45.746c-.446-.67-.825-1.445-1.137-2.325a27.56 27.56 0 0 1-.82-2.785l-.602-3-.502-3-.518-2.77c-.178-.871-.39-1.641-.636-2.311l-.334.015c-.111.01-.324.014-.636.014v1.493l.033 1.493a2.12 2.12 0 0 1-.017.229l-.05.517-.067 1.076-.066 1.923-.051 3.029-.016 4.421v1.636c-.044.173-.14.306-.284.402a.92.92 0 0 1-.518.143.48.48 0 0 1-.285-.158c-.078-.086-.117-.215-.117-.387l-.1-1.593-.033-1.766.016-1.349.017-2.082.017-2.612.017-2.972.1-5.497.1-5.498v-1.636c.044-.173.14-.306.284-.402a.92.92 0 0 1 .518-.143l.134.058a6.26 6.26 0 0 1 1.071-.087l.87.015.987.043c.323.019.624.058.903.115s.507.124.686.201c.981.498 1.689 1.177 2.125 2.038s.652 1.751.652 2.67a4.65 4.65 0 0 1-.2 1.335c-.134.449-.379.875-.736 1.277s-.831.766-1.422 1.091-1.332.574-2.225.746c.379 1.359.669 2.708.87 4.048l.652 4.019c.234 1.34.535 2.66.904 3.962a19.56 19.56 0 0 0 1.555 3.847c.111.134.167.239.167.315a.4.4 0 0 1-.217.359.93.93 0 0 1-.485.129.74.74 0 0 1-.602-.287zm-5.118-24.746v7.78c1.137-.096 2.074-.263 2.81-.502s1.311-.527 1.723-.861.696-.708.853-1.12.234-.847.234-1.306a6.3 6.3 0 0 0-.134-1.22 4.36 4.36 0 0 0-.468-1.277 3.07 3.07 0 0 0-.92-1.019c-.39-.277-.875-.435-1.455-.473h-2.642zm16.358 14.44c-.647 1.455-1.466 2.627-2.459 3.516a5.07 5.07 0 0 1-3.496 1.335c-.513 0-.909-.168-1.187-.502s-.485-.766-.619-1.292-.212-1.115-.234-1.766l-.034-1.895.017-.66c.011-.134.017-.33.017-.588l.016-1.134.017-2.297.033-2.254.067-1.794.067-1.78.034-2.268v-1.636c.044-.172.139-.306.284-.402s.317-.143.518-.143a.49.49 0 0 1 .284.158c.078.086.117.216.117.387l.1 1.579.033 1.751-.016.861-.017 1.077-.017 1.593-.016 2.411v1.148l-.017 1.364-.05.89-.05.631-.034.617-.033.861-.017 1.349c0 1.78.401 2.67 1.204 2.67.825 0 1.578-.326 2.258-.976s1.266-1.522 1.756-2.613.87-2.359 1.138-3.804.401-2.961.401-4.55l.016-1.378.034-.775.05-.474a4.09 4.09 0 0 0 .05-.473l.034-.775.016-1.378v-1.636c.044-.173.14-.306.284-.402a.92.92 0 0 1 .518-.143.48.48 0 0 1 .285.158c.078.086.117.215.117.387l.1 1.593.033 1.765-.016.861-.017 1.077-.017 1.593-.017 2.411-.016 1.809-.05 1.45-.067 1.335-.067 1.493-.017.861-.033 1.292-.067 1.292-.084.861c-.067.746-.223 1.478-.468 2.196a6.22 6.22 0 0 1-1.037 1.909 5.01 5.01 0 0 1-1.656 1.335c-.658.335-1.444.502-2.359.502-.959 0-1.79-.272-2.492-.818s-1.054-1.402-1.054-2.57v-.689l.017-.473a2.21 2.21 0 0 1 .084-.474.61.61 0 0 1 .334-.359 1.05 1.05 0 0 1 .401-.1c.044 0 .078.005.1.015a.16.16 0 0 0 .067.015c.178.038.29.124.334.258a1.47 1.47 0 0 1 .067.459 4.57 4.57 0 0 1-.033.517c-.022.191-.034.364-.034.517v.172c0 .479.078.881.234 1.206a2.23 2.23 0 0 0 .585.775 2.07 2.07 0 0 0 .77.401 3.07 3.07 0 0 0 .82.115c.468 0 .953-.129 1.455-.387s.959-.67 1.371-1.234.753-1.287 1.021-2.168.401-1.943.401-3.187v-.918l-.017-.517-.05-.804v-.344z"/></g><path d="M364.933 93.632s2.074 16.038 16-6.865" fill="none" stroke="#000" stroke-width="2.329"/><g transform="matrix(.761291 -.556452 .755566 .761291 -47.9235 150.877)"><path d="M159.05 87.337s-11.877 8.14.734 9.911 5.831-13.589-.734-9.911z" fill="none" stroke="#00704a" stroke-width="1.396"/><g transform="matrix(.707947 .167157 -.194781 .607545 -18.7599 -420.186)"><path d="M441 734.361s-3.066-22.563 11.863-23.816c9.958-.836 6.152 12.08 10.137 23.816" fill="none" stroke="#00704a" stroke-width="2.04"/></g></g><path d="M150.983 105.751s3.159-29.4 10-7.763c4.204 13.295-6.519-33.115 12 2.575" fill="none" stroke="#ffc72c" stroke-width="1.864"/><g transform="matrix(1.03258 0 0 .85672 -294.82 -531.905)"><g transform="matrix(.559963 -.282933 .279229 .59124 49.4139 510.876)"><path d="M641 769s6.58-20.712 20-2-25.089 14.097-20 2z" fill="none" stroke="#1da1f2" stroke-width="2.31"/><path d="M659.984 765.641L677 764l-13.144 11" fill="none" stroke="#1da1f2" stroke-width="2.31"/></g></g></g><use xlink:href="#C" fill="none" stroke="#000" stroke-width="1.84"/></g><defs ><path id="C" d="M400 75.792c0-4.779-4.521-8.659-10.09-8.659H125.976c-5.569 0-10.09 3.88-10.09 8.659v73.044c0 4.779 4.521 8.659 10.09 8.659H389.91c5.569 0 10.09-3.88 10.09-8.659V75.792z"/></defs></svg>