<svg xmlns="http://www.w3.org/2000/svg" xmlns:xlink="http://www.w3.org/1999/xlink" width="100%" height="100%" viewBox="0 0 287 109" fill-rule="evenodd" stroke-linecap="round" stroke-linejoin="round" stroke-miterlimit="1.5" xmlns:v="https://vecta.io/nano"><style><![CDATA[.B{opacity:.71}.C{fill:#d3d6e3}.D{fill:#b4b9cf}]]></style><g transform="matrix(.999996 0 0 1.16526 -114.133713 -76.365416)"><use xlink:href="#C" fill="#f1f2f6"/><clipPath id="A"><use xlink:href="#C"/></clipPath><g clip-path="url(#A)"><g class="B"><g transform="matrix(1 0 0 .336348 -297.868 -337.326)" class="C"><path d="M413.753 1458H455v13.156h-41.247z"/></g><g transform="matrix(1 0 0 .336348 -297.868 -341.751)" class="D"><path d="M413.753 1458H455v13.156h-41.247z"/></g></g><g class="B"><use xlink:href="#D" class="C"/><path d="M157.132 148.644h41.247v4.425h-41.247z" class="D"/></g><g class="B"><path d="M157.132 144.219h41.247v4.425h-41.247z" class="C"/><path d="M198.379 139.794h-38.461c-.739 0-1.447.252-1.97.7s-.816 1.056-.816 1.692v2.035h41.247v-4.426z" class="D"/></g><g class="B"><path d="M198.378 135.368h41.247v4.425h-41.247z" class="C"/><path d="M239.625 130.943h-39.249c-1.103 0-1.998.767-1.998 1.715v2.711h41.247v-4.426z" class="D"/></g><g class="B"><path d="M198.378 144.219h41.247v4.425h-41.247z" class="C"/><path d="M198.378 139.794h41.247v4.425h-41.247z" class="D"/></g><g class="B"><path d="M198.378 153.069h41.247v4.425h-41.247z" class="C"/><path d="M198.378 148.644h41.247v4.425h-41.247z" class="D"/></g><g class="B"><path d="M239.625 126.518h41.247v4.425h-41.247z" class="C"/><path d="M280.872 122.093h-38.937c-.613 0-1.2.209-1.633.582s-.677.875-.677 1.399v2.445h41.247v-4.426z" class="D"/></g><g class="B"><path d="M280.872 117.668h41.247v4.425h-41.247z" class="C"/><path d="M322.119 113.243h-38.764c-1.371 0-2.483.955-2.483 2.132v2.294h41.247v-4.426z" class="D"/></g><g class="B"><path d="M322.118 108.818h41.247v4.425h-41.247z" class="C"/><path d="M363.365 104.393h-38.646c-.69 0-1.351.235-1.839.653s-.762.989-.762 1.577v2.196h41.247v-4.426z" class="D"/></g><g class="B"><path d="M363.365 99.967h41.247v4.425h-41.247z" class="C"/><path d="M404.612 95.542h-38.458c-1.54 0-2.789 1.073-2.789 2.395v2.032h41.247v-4.426z" class="D"/></g><g class="B"><path d="M239.625 135.368h41.247v4.425h-41.247z" class="C"/><path d="M239.625 130.943h41.247v4.425h-41.247z" class="D"/></g><g class="B"><path d="M239.625 144.219h41.247v4.425h-41.247z" class="C"/><path d="M239.625 139.794h41.247v4.425h-41.247z" class="D"/></g><g class="B"><path d="M239.625 153.069h41.247v4.425h-41.247z" class="C"/><path d="M239.625 148.644h41.247v4.425h-41.247z" class="D"/></g><g class="B"><path d="M280.872 126.518h41.247v4.425h-41.247z" class="C"/><path d="M280.872 122.093h41.247v4.425h-41.247z" class="D"/></g><g class="B"><path d="M280.872 135.368h41.247v4.425h-41.247z" class="C"/><path d="M280.872 130.943h41.247v4.425h-41.247z" class="D"/></g><g class="B"><path d="M280.872 144.219h41.247v4.425h-41.247z" class="C"/><path d="M280.872 139.794h41.247v4.425h-41.247z" class="D"/></g><g class="B"><path d="M280.872 153.069h41.247v4.425h-41.247z" class="C"/><path d="M280.872 148.644h41.247v4.425h-41.247z" class="D"/></g><g class="B"><path d="M322.118 117.668h41.247v4.425h-41.247z" class="C"/><path d="M322.118 113.243h41.247v4.425h-41.247z" class="D"/></g><g class="B"><path d="M322.118 126.518h41.247v4.425h-41.247z" class="C"/><path d="M322.118 122.093h41.247v4.425h-41.247z" class="D"/></g><g class="B"><path d="M322.118 135.368h41.247v4.425h-41.247z" class="C"/><path d="M322.118 130.943h41.247v4.425h-41.247z" class="D"/></g><g class="B"><path d="M322.118 144.219h41.247v4.425h-41.247z" class="C"/><path d="M322.118 139.794h41.247v4.425h-41.247z" class="D"/></g><g class="B"><path d="M322.118 153.069h41.247v4.425h-41.247z" class="C"/><path d="M322.118 148.644h41.247v4.425h-41.247z" class="D"/></g><g class="B"><path d="M363.365 108.818h41.247v4.425h-41.247z" class="C"/><path d="M363.365 104.393h41.247v4.425h-41.247z" class="D"/></g><g class="B"><path d="M363.365 117.668h41.247v4.425h-41.247z" class="C"/><path d="M363.365 113.243h41.247v4.425h-41.247z" class="D"/></g><g class="B"><path d="M363.365 126.518h41.247v4.425h-41.247z" class="C"/><path d="M363.365 122.093h41.247v4.425h-41.247z" class="D"/></g><g class="B"><path d="M363.365 135.368h41.247v4.425h-41.247z" class="C"/><path d="M363.365 130.943h41.247v4.425h-41.247z" class="D"/></g><g class="B"><path d="M363.365 144.219h41.247v4.425h-41.247z" class="C"/><path d="M363.365 139.794h41.247v4.425h-41.247z" class="D"/></g><g class="B"><path d="M363.365 153.069h41.247v4.425h-41.247z" class="C"/><path d="M363.365 148.644h41.247v4.425h-41.247z" class="D"/></g><g fill-rule="nonzero"><path d="M227.798 112.392v5.682h-3.881v-16.13h7.347c1.414 0 2.658.225 3.732.668 1.073.437 1.899 1.068 2.477 1.888.578.813.867 1.742.867 2.786 0 1.578-.632 2.823-1.895 3.734-1.263.917-3.012 1.372-5.245 1.372h-3.402zm0-2.695h3.467c1.026 0 1.809-.206 2.348-.619s.808-1.002.808-1.773c0-.789-.271-1.427-.814-1.912-.544-.492-1.294-.741-2.251-.759h-3.557v5.063zm20.929 8.378c-.173-.285-.298-.65-.375-1.075-.906.862-2.083 1.299-3.531 1.299-1.372 0-2.508-.34-3.409-1.02s-1.352-1.536-1.352-2.574c0-1.269.55-2.246 1.649-2.926 1.099-.674 2.688-1.02 4.766-1.026h1.721v-.686c0-.559-.167-1.002-.498-1.329-.332-.334-.856-.498-1.571-.498-.629 0-1.123.127-1.481.382-.358.261-.537.613-.537 1.068h-3.738c0-.698.25-1.342.75-1.931s1.208-1.056 2.121-1.39 1.941-.504 3.078-.504c1.725 0 3.094.37 4.107 1.111 1.014.747 1.52 1.785 1.52 3.133v5.197c.009 1.135.194 1.997.556 2.58v.188h-3.776zm-3.092-2.228c.552 0 1.061-.103 1.527-.316s.81-.492 1.035-.844v-2.064H246.8c-1.871 0-2.868.552-2.988 1.663l-.013.188a1.19 1.19 0 0 0 .491.983c.328.261.776.389 1.345.389zm21.782-3.655c0 1.846-.489 3.327-1.468 4.438s-2.3 1.669-3.964 1.669c-1.414 0-2.557-.425-3.428-1.263v5.646h-3.738v-16.591h3.467l.129 1.172c.906-.929 2.087-1.396 3.544-1.396 1.725 0 3.066.546 4.023 1.639s1.435 2.598 1.435 4.523v.164zm-3.738-.231c0-1.117-.23-1.979-.692-2.586-.461-.601-1.132-.905-2.012-.905-1.172 0-1.979.382-2.418 1.153v4.905c.457.789 1.272 1.184 2.445 1.184 1.785 0 2.677-1.251 2.677-3.752zm12.495 6.338c-2.053 0-3.723-.54-5.013-1.621s-1.934-2.513-1.934-4.31v-.31c0-1.202.271-2.277.815-3.23a5.49 5.49 0 0 1 2.309-2.192c.997-.516 2.132-.771 3.409-.771 1.914 0 3.421.516 4.521 1.548 1.099 1.038 1.649 2.501 1.649 4.401v1.305h-8.912c.12.783.485 1.414 1.093 1.882.608.474 1.378.71 2.309.71 1.44 0 2.565-.443 3.376-1.342l1.836 1.767c-.561.68-1.319 1.208-2.277 1.584-.957.382-2.018.577-3.182.577zm-.427-9.841c-.742 0-1.343.212-1.805.644-.461.425-.757 1.038-.886 1.839h5.2v-.255c-.017-.71-.242-1.257-.673-1.645s-1.043-.583-1.836-.583zm16.169.632c-.509-.061-.958-.091-1.345-.091-1.414 0-2.341.413-2.781 1.232v7.843h-3.738V106.09h3.531l.103 1.427c.751-1.099 1.79-1.651 3.117-1.651.414 0 .802.049 1.165.146l-.052 3.078z"/></g></g><use xlink:href="#C" fill="none" stroke="#000" stroke-width="1.84"/></g><defs ><path id="C" d="M400 75.792c0-4.779-4.521-8.659-10.09-8.659H125.976c-5.569 0-10.09 3.88-10.09 8.659v73.044c0 4.779 4.521 8.659 10.09 8.659H389.91c5.569 0 10.09-3.88 10.09-8.659V75.792z"/><path id="D" d="M157.132 153.069h41.247v4.425h-41.247z"/></defs></svg>