<?xml version="1.0" encoding="UTF-8" standalone="no"?>
<!DOCTYPE svg PUBLIC "-//W3C//DTD SVG 1.1//EN" "http://www.w3.org/Graphics/SVG/1.1/DTD/svg11.dtd">
<svg width="100%" height="100%" viewBox="0 0 287 108" version="1.1" xmlns="http://www.w3.org/2000/svg" xmlns:xlink="http://www.w3.org/1999/xlink" xml:space="preserve" xmlns:serif="http://www.serif.com/" style="fill-rule:evenodd;clip-rule:evenodd;stroke-linecap:round;stroke-linejoin:round;stroke-miterlimit:1.5;">
    <g transform="matrix(1,0,0,1,-413.267,-2001)">
        <g transform="matrix(1.03258,0,0,1.93219,0,0)">
            <g id="password-game" transform="matrix(0.968444,0,0,0.603076,288.966,995.643)">
                <path d="M400,75.792C400,71.013 395.479,67.133 389.91,67.133L125.976,67.133C120.407,67.133 115.886,71.013 115.886,75.792L115.886,148.836C115.886,153.615 120.407,157.495 125.976,157.495L389.91,157.495C395.479,157.495 400,153.615 400,148.836L400,75.792Z" style="fill:rgb(255,250,233);"/>
                <clipPath id="_clip1">
                    <path d="M400,75.792C400,71.013 395.479,67.133 389.91,67.133L125.976,67.133C120.407,67.133 115.886,71.013 115.886,75.792L115.886,148.836C115.886,153.615 120.407,157.495 125.976,157.495L389.91,157.495C395.479,157.495 400,153.615 400,148.836L400,75.792Z"/>
                </clipPath>
                <g clip-path="url(#_clip1)">
                    <g transform="matrix(1.02807,0,0,0.894083,-315.597,-1726.81)">
                        <path d="M681.475,2043.53C681.475,2039.39 678.076,2036.04 673.89,2036.04C673.89,2036.04 441.873,2036.04 441.873,2036.04C437.687,2036.04 434.288,2039.39 434.288,2043.53L434.288,2070.47C434.288,2074.61 437.687,2077.96 441.873,2077.96C441.873,2077.96 673.89,2077.96 673.89,2077.96C678.076,2077.96 681.475,2074.61 681.475,2070.47L681.475,2043.53ZM680.502,2043.53C680.502,2039.92 677.539,2037 673.89,2037L441.873,2037C438.224,2037 435.261,2039.92 435.261,2043.53L435.261,2070.47C435.261,2074.08 438.224,2077 441.873,2077L673.89,2077C677.539,2077 680.502,2074.08 680.502,2070.47L680.502,2043.53Z" style="fill:rgb(234,51,35);"/>
                        <path d="M680.502,2043.53C680.502,2039.92 677.539,2037 673.89,2037L441.873,2037C438.224,2037 435.261,2039.92 435.261,2043.53L435.261,2070.47C435.261,2074.08 438.224,2077 441.873,2077L673.89,2077C677.539,2077 680.502,2074.08 680.502,2070.47L680.502,2043.53Z" style="fill:rgb(255,236,236);"/>
                    </g>
                    <g transform="matrix(0.456167,0,0,0.391473,-19.0512,-74.7237)">
                        <path d="M429.513,462.185C437.806,462.277 439.096,463.337 440.294,470.846L441.768,470.754L440.939,461.079L413.85,461.079L413.02,470.754L414.495,470.846C415.646,463.337 416.982,462.277 425.229,462.185L425.229,488.629C425.229,491.209 425.091,492.13 424.492,492.637C424.031,493.098 422.925,493.328 420.944,493.328L420.944,494.48L433.844,494.48L433.844,493.328C432.001,493.328 430.803,493.144 430.343,492.729C429.698,492.222 429.513,491.347 429.513,488.629L429.513,462.185Z" style="fill-rule:nonzero;"/>
                        <path d="M450.797,469.925C450.797,465.917 450.843,464.212 451.028,460.711L443.657,461.079L443.657,462.093C446.835,462.139 447.02,462.369 447.02,466.285L447.02,488.721C447.02,493.052 446.789,493.374 443.657,493.466L443.657,494.48L454.114,494.48L454.114,493.466C451.028,493.374 450.797,493.052 450.797,488.721L450.797,481.304C450.797,479.784 450.936,478.862 451.258,477.849C451.719,476.42 452.502,475.038 453.423,474.071C454.529,472.919 456.141,472.274 457.984,472.274C459.965,472.274 461.301,473.011 462.038,474.486C462.545,475.407 462.775,477.111 462.775,479.461L462.775,488.721C462.775,493.052 462.545,493.374 459.412,493.466L459.412,494.48L469.87,494.48L469.87,493.466C466.784,493.374 466.553,493.005 466.553,488.721L466.553,479.507C466.553,476.973 466.277,475.038 465.724,473.887C464.618,471.721 462.361,470.57 458.998,470.57C455.22,470.57 452.963,471.952 450.797,475.499L450.797,469.925Z" style="fill-rule:nonzero;"/>
                        <path d="M493.734,481.488C493.642,478.77 493.458,477.664 492.997,476.42C491.569,472.689 488.39,470.57 484.198,470.57C477.702,470.57 473.279,475.683 473.279,483.147C473.279,490.195 477.794,495.079 484.382,495.079C488.897,495.079 492.03,493.098 494.103,488.859L493.043,488.26C491.2,491.762 488.713,493.466 485.442,493.466C482.125,493.466 479.867,491.808 478.531,488.399C477.794,486.51 477.518,484.667 477.472,481.488L493.734,481.488ZM477.564,480.244C477.84,477.849 478.117,476.651 478.808,475.315C480.052,472.965 481.894,471.721 484.106,471.721C486.271,471.721 487.837,472.873 488.851,475.131C489.45,476.467 489.68,477.803 489.726,480.244L477.564,480.244Z" style="fill-rule:nonzero;"/>
                        <path d="M520.408,480.014L523.403,480.014C526.95,480.014 530.313,479.599 532.202,478.908C535.98,477.572 537.777,474.762 537.777,470.339C537.777,466.423 536.256,463.751 533.216,462.323C531.511,461.54 528.747,461.079 525.43,461.079L512.761,461.079L512.761,462.185C516.078,462.323 516.308,462.646 516.308,466.93L516.308,488.629C516.308,492.913 516.032,493.236 512.761,493.328L512.761,494.48L524.278,494.48L524.278,493.328C520.685,493.236 520.408,492.867 520.408,488.629L520.408,480.014ZM520.408,478.632L520.408,462.461L524.555,462.461C530.406,462.461 533.308,465.133 533.308,470.524C533.308,473.242 532.525,475.453 531.189,476.697C529.761,477.987 527.273,478.632 523.679,478.632L520.408,478.632Z" style="fill-rule:nonzero;"/>
                        <path d="M563.115,493.42C561.364,493.42 560.811,493.282 560.535,492.913C560.259,492.545 560.028,490.886 560.028,488.951L560.074,486.832L560.12,482.456C560.213,477.941 560.213,477.941 560.213,477.803C560.213,475.269 559.798,473.748 558.877,472.597C557.771,471.261 555.652,470.57 552.703,470.57C549.985,470.57 547.728,471.076 545.977,472.044C544.042,473.15 542.844,474.808 542.844,476.467C542.844,477.434 543.535,477.849 545.102,477.849C545.793,477.849 546.392,477.71 546.714,477.48C547.083,477.204 547.175,476.881 547.221,475.914C547.405,473.057 548.972,471.675 552.012,471.675C553.901,471.675 555.191,472.274 555.79,473.472C556.251,474.439 556.435,475.545 556.435,477.664L556.435,480.567C553.072,480.797 550.63,481.12 548.234,481.672C543.766,482.686 541.462,485.035 541.462,488.675C541.462,490.61 542.245,492.453 543.489,493.558C544.641,494.526 546.161,494.986 548.188,494.986C550.538,494.986 552.15,494.48 554.177,493.005C555.099,492.361 555.698,491.854 556.435,491.024C556.619,494.111 556.988,494.848 558.37,494.848C559.291,494.848 561.318,494.664 563.115,494.388L563.115,493.42ZM556.435,483.792C556.435,486.832 556.112,488.767 555.375,490.057C554.223,492.038 551.828,493.42 549.478,493.42C547.175,493.42 545.608,491.439 545.608,488.537C545.608,486.095 546.668,484.252 548.695,483.285C550.538,482.363 552.335,481.995 556.435,481.626L556.435,483.792Z" style="fill-rule:nonzero;"/>
                        <path d="M567.031,494.572C567.952,494.434 568.597,494.388 569.104,494.388C569.611,494.388 570.164,494.434 570.809,494.526C573.527,494.986 574.126,495.079 575.415,495.079C579.746,495.079 582.556,492.361 582.556,488.122C582.556,486.325 582.003,484.805 581.036,483.746C579.976,482.594 578.825,481.903 575.738,480.613C572.697,479.323 571.822,478.862 570.947,478.217C570.117,477.618 569.703,476.789 569.703,475.729C569.703,473.242 571.546,471.629 574.402,471.629C577.765,471.629 579.792,474.071 579.884,478.171L581.405,478.171L581.635,470.892C580.713,471.122 579.976,471.215 579.424,471.215C579.147,471.215 578.825,471.169 578.456,471.122C575.968,470.662 575.369,470.57 574.172,470.57C571.868,470.57 569.703,471.537 568.459,473.196C567.676,474.255 567.215,475.822 567.215,477.434C567.215,480.567 568.735,482.225 573.711,484.39C577.903,486.233 578.041,486.279 578.871,486.97C579.562,487.569 579.976,488.583 579.976,489.642C579.976,492.361 578.088,493.973 574.955,493.973C572.836,493.973 571.131,493.144 569.933,491.485C569.15,490.472 568.828,489.366 568.643,487.201L567.215,487.201L567.031,494.572Z" style="fill-rule:nonzero;"/>
                        <path d="M587.532,494.572C588.453,494.434 589.098,494.388 589.605,494.388C590.112,494.388 590.664,494.434 591.309,494.526C594.028,494.986 594.626,495.079 595.916,495.079C600.247,495.079 603.057,492.361 603.057,488.122C603.057,486.325 602.504,484.805 601.537,483.746C600.477,482.594 599.326,481.903 596.239,480.613C593.198,479.323 592.323,478.862 591.448,478.217C590.618,477.618 590.204,476.789 590.204,475.729C590.204,473.242 592.047,471.629 594.903,471.629C598.266,471.629 600.293,474.071 600.385,478.171L601.905,478.171L602.136,470.892C601.214,471.122 600.477,471.215 599.924,471.215C599.648,471.215 599.326,471.169 598.957,471.122C596.469,470.662 595.87,470.57 594.673,470.57C592.369,470.57 590.204,471.537 588.96,473.196C588.177,474.255 587.716,475.822 587.716,477.434C587.716,480.567 589.236,482.225 594.212,484.39C598.404,486.233 598.542,486.279 599.372,486.97C600.063,487.569 600.477,488.583 600.477,489.642C600.477,492.361 598.588,493.973 595.456,493.973C593.337,493.973 591.632,493.144 590.434,491.485C589.651,490.472 589.328,489.366 589.144,487.201L587.716,487.201L587.532,494.572Z" style="fill-rule:nonzero;"/>
                        <path d="M623.558,476.973L629.317,494.664L631.666,494.664L637.241,476.789C638.346,473.242 639.222,472.366 641.756,472.228L641.756,471.215L632.726,471.215L632.726,472.228C633.924,472.32 634.246,472.366 634.799,472.551C635.628,472.827 636.089,473.426 636.089,474.209C636.089,474.854 635.905,475.729 635.536,476.881L631.528,490.426L625.677,471.813L623.788,471.813L617.707,490.426L613.561,475.96C613.285,474.992 613.146,474.301 613.146,473.933C613.146,472.781 614.022,472.32 616.233,472.228L616.233,471.215L606.006,471.215L606.006,472.228C608.263,472.366 608.816,472.919 609.599,475.545L615.312,494.664L617.707,494.664L623.558,476.973Z" style="fill-rule:nonzero;"/>
                        <path d="M644.289,483.193C644.289,490.333 648.712,495.079 655.392,495.079C662.395,495.079 666.817,490.241 666.817,482.548C666.817,475.315 662.395,470.57 655.669,470.57C652.49,470.57 649.587,471.675 647.652,473.656C645.533,475.822 644.289,479.369 644.289,483.193ZM648.574,482.594C648.574,475.545 651.016,471.629 655.438,471.629C659.953,471.629 662.533,475.775 662.533,482.962C662.533,490.057 660.045,493.973 655.53,493.973C651.108,493.973 648.574,489.827 648.574,482.594Z" style="fill-rule:nonzero;"/>
                        <path d="M670.687,471.215L670.687,472.228C673.313,472.228 673.866,472.919 673.866,476.374L673.866,488.721C673.866,493.005 673.59,493.374 670.503,493.466L670.503,494.48L681.053,494.48L681.053,493.466C677.966,493.374 677.736,493.052 677.736,488.721L677.736,481.488C677.736,479.046 678.151,477.158 678.98,475.637C679.947,473.887 681.237,472.873 682.435,472.873C683.172,472.873 683.449,473.15 683.725,474.163C684.001,475.038 684.416,475.315 685.43,475.315C686.904,475.315 687.871,474.578 687.871,473.426C687.871,471.813 686.351,470.57 684.37,470.57C681.652,470.57 679.164,472.551 677.644,476.052L677.644,474.578C677.644,473.61 677.598,473.011 677.506,470.708L670.687,471.215Z" style="fill-rule:nonzero;"/>
                        <path d="M704.134,461.079L704.134,462.093C707.497,462.139 707.543,462.231 707.543,466.7L707.543,473.656C705.608,471.491 703.673,470.57 700.863,470.57C694.689,470.57 690.451,475.775 690.451,483.377C690.451,486.878 691.372,489.827 693.077,491.946C694.736,493.927 697.269,495.125 699.849,495.125C703.212,495.125 705.792,493.743 707.681,490.84L707.865,494.848L714.315,494.48L714.315,493.466L713.808,493.466C712.472,493.466 711.919,493.236 711.643,492.637C711.413,492.084 711.413,492.038 711.321,487.707L711.321,469.879C711.321,466.331 711.413,463.659 711.597,460.711L704.134,461.079ZM707.681,482.824C707.681,489.735 705.101,493.789 700.725,493.789C696.809,493.789 694.736,490.011 694.736,482.87C694.736,475.637 696.993,471.721 701.139,471.721C705.332,471.721 707.681,475.683 707.681,482.824Z" style="fill-rule:nonzero;"/>
                        <path d="M753.566,479.231L753.566,480.336C757.16,480.521 757.482,480.889 757.482,484.805L757.482,491.716C755.547,493.005 752.507,493.835 749.65,493.835C745.873,493.835 743.109,492.176 741.128,488.767C739.515,485.957 738.64,481.995 738.64,477.572C738.64,473.15 739.423,469.51 740.989,466.654C742.786,463.383 745.919,461.678 750.019,461.678C753.29,461.678 755.824,462.738 757.344,464.765C758.358,466.193 758.956,467.898 759.371,470.524L760.799,470.524L760.799,460.849C759.786,461.356 758.956,461.54 758.035,461.54C757.436,461.54 756.423,461.402 755.686,461.218C752.875,460.573 751.724,460.434 749.604,460.434C740.206,460.434 734.033,467.529 734.033,478.309C734.033,488.767 739.745,495.079 749.236,495.079C751.263,495.079 753.382,494.802 756.1,494.157C758.818,493.466 759.095,493.42 761.582,493.098C761.49,491.577 761.444,490.564 761.444,488.214L761.444,484.805C761.444,480.751 761.629,480.521 764.807,480.336L764.807,479.231L753.566,479.231Z" style="fill-rule:nonzero;"/>
                        <path d="M789.869,493.42C788.118,493.42 787.566,493.282 787.289,492.913C787.013,492.545 786.782,490.886 786.782,488.951L786.829,486.832L786.875,482.456C786.967,477.941 786.967,477.941 786.967,477.803C786.967,475.269 786.552,473.748 785.631,472.597C784.525,471.261 782.406,470.57 779.457,470.57C776.739,470.57 774.482,471.076 772.731,472.044C770.796,473.15 769.599,474.808 769.599,476.467C769.599,477.434 770.29,477.849 771.856,477.849C772.547,477.849 773.146,477.71 773.468,477.48C773.837,477.204 773.929,476.881 773.975,475.914C774.159,473.057 775.726,471.675 778.766,471.675C780.655,471.675 781.945,472.274 782.544,473.472C783.005,474.439 783.189,475.545 783.189,477.664L783.189,480.567C779.826,480.797 777.384,481.12 774.989,481.672C770.52,482.686 768.216,485.035 768.216,488.675C768.216,490.61 769,492.453 770.244,493.558C771.395,494.526 772.916,494.986 774.943,494.986C777.292,494.986 778.905,494.48 780.932,493.005C781.853,492.361 782.452,491.854 783.189,491.024C783.373,494.111 783.742,494.848 785.124,494.848C786.045,494.848 788.072,494.664 789.869,494.388L789.869,493.42ZM783.189,483.792C783.189,486.832 782.867,488.767 782.129,490.057C780.978,492.038 778.582,493.42 776.233,493.42C773.929,493.42 772.363,491.439 772.363,488.537C772.363,486.095 773.422,484.252 775.449,483.285C777.292,482.363 779.089,481.995 783.189,481.626L783.189,483.792Z" style="fill-rule:nonzero;"/>
                        <path d="M799.866,470.708L792.956,471.215L792.956,472.228C795.628,472.228 796.135,472.919 796.135,476.374L796.135,488.721C796.135,493.052 795.904,493.374 792.772,493.466L792.772,494.48L803.229,494.48L803.229,493.466C800.143,493.374 799.912,493.052 799.912,488.721L799.912,479.876C799.912,477.895 800.373,476.42 801.525,474.9C802.815,473.15 804.381,472.274 806.132,472.274C808.896,472.274 810.278,474.486 810.278,478.954L810.278,488.721C810.278,493.005 810.048,493.374 806.961,493.466L806.961,494.48L817.419,494.48L817.419,493.466C814.286,493.374 814.056,493.005 814.056,488.721L814.056,480.567C814.056,478.355 814.562,476.697 815.806,474.992C817.05,473.15 818.478,472.274 820.091,472.274C821.887,472.274 822.947,472.781 823.592,473.979C824.283,475.177 824.467,476.467 824.467,479.553L824.467,488.721C824.467,493.005 824.237,493.374 821.104,493.466L821.104,494.48L831.608,494.48L831.608,493.466C828.475,493.374 828.245,493.005 828.245,488.721L828.245,478.77C828.245,475.637 827.83,473.979 826.817,472.689C825.665,471.307 823.868,470.57 821.611,470.57C818.064,470.57 815.668,472.182 813.733,475.914C813.088,472.412 810.923,470.57 807.514,470.57C804.151,470.57 801.571,472.274 799.866,475.545L799.866,470.708Z" style="fill-rule:nonzero;"/>
                        <path d="M855.472,481.488C855.38,478.77 855.196,477.664 854.735,476.42C853.307,472.689 850.128,470.57 845.936,470.57C839.44,470.57 835.017,475.683 835.017,483.147C835.017,490.195 839.532,495.079 846.12,495.079C850.635,495.079 853.768,493.098 855.841,488.859L854.781,488.26C852.938,491.762 850.451,493.466 847.18,493.466C843.863,493.466 841.605,491.808 840.269,488.399C839.532,486.51 839.256,484.667 839.21,481.488L855.472,481.488ZM839.302,480.244C839.578,477.849 839.855,476.651 840.546,475.315C841.789,472.965 843.632,471.721 845.844,471.721C848.009,471.721 849.575,472.873 850.589,475.131C851.188,476.467 851.418,477.803 851.464,480.244L839.302,480.244Z" style="fill-rule:nonzero;"/>
                    </g>
                    <g transform="matrix(0.611486,0,0,0.524764,1.50744,4.70657)">
                        <g transform="matrix(77.5988,0,0,77.5988,232,251)">
                            <path d="M0.231,-0.759L0.219,-0.611L0.355,-0.668L0.375,-0.608L0.231,-0.574L0.328,-0.462L0.276,-0.425L0.2,-0.551L0.123,-0.425L0.072,-0.462L0.168,-0.574L0.024,-0.608L0.044,-0.668L0.18,-0.611L0.168,-0.759L0.231,-0.759Z" style="fill-rule:nonzero;"/>
                        </g>
                    </g>
                </g>
                <path d="M400,75.792C400,71.013 395.479,67.133 389.91,67.133L125.976,67.133C120.407,67.133 115.886,71.013 115.886,75.792L115.886,148.836C115.886,153.615 120.407,157.495 125.976,157.495L389.91,157.495C395.479,157.495 400,153.615 400,148.836L400,75.792Z" style="fill:none;stroke:black;stroke-width:1.84px;"/>
            </g>
        </g>
    </g>
</svg>
