<svg xmlns="http://www.w3.org/2000/svg" xmlns:xlink="http://www.w3.org/1999/xlink" width="100%" height="100%" viewBox="0 0 287 108" fill-rule="evenodd" stroke-linecap="round" stroke-linejoin="round" stroke-miterlimit="1.5" xmlns:v="https://vecta.io/nano"><style><![CDATA[.B{fill-rule:nonzero}.C{fill-opacity:.09}.D{fill:#efe3aa}.E{fill:#ecd99b}.F{fill:#efeeaa}]]></style><g transform="matrix(.999996 0 0 1.16526 -114.179649 -77.084587)"><use xlink:href="#C" fill="#f8f3da"/><clipPath id="A"><use xlink:href="#C"/></clipPath><g clip-path="url(#A)"><g class="B"><path d="M165.849 117.231c.505.048.983.125 1.432.229l1.264.35v.699h-7.696v-.699a5.95 5.95 0 0 1 1.151-.362l1.152-.217v-14.293a9.84 9.84 0 0 1-1.208-.253l-1.096-.349v-.699h2.528l2.444-.096 2.528-.097a14.29 14.29 0 0 1 2.696.253c.88.169 1.662.454 2.345.855a4.83 4.83 0 0 1 1.657 1.603c.421.667.632 1.498.632 2.495 0 .948-.216 1.759-.646 2.434s-1.006 1.229-1.727 1.663-1.54.751-2.458.952a13.22 13.22 0 0 1-2.837.301h-.435a17.52 17.52 0 0 1-.632-.012l-.646-.036-.449-.048v5.327zm1.909-14.534l-1.095.024a6.59 6.59 0 0 0-.814.097v7.809a1.52 1.52 0 0 0 .407.06l.562.036.576.024h.45a7.3 7.3 0 0 0 1.854-.229 4.24 4.24 0 0 0 1.53-.735 3.71 3.71 0 0 0 1.054-1.278c.262-.514.393-1.133.393-1.856 0-1.318-.436-2.306-1.306-2.965s-2.073-.988-3.609-.988zm15.869 5.568c-.206.097-.464.293-.772.591s-.585.735-.829 1.313v7.159c.374.033.749.093 1.123.181s.749.221 1.123.398v.602h-6.628v-.602a5.55 5.55 0 0 1 .955-.362l.899-.217v-9.472l-1.854-.193v-.627a13.1 13.1 0 0 1 1.854-.542l1.825-.325h.702v2.555h.112a4.28 4.28 0 0 1 .717-.964 5.8 5.8 0 0 1 1.067-.868 4.99 4.99 0 0 1 1.32-.591c.477-.137.969-.181 1.474-.133a4.56 4.56 0 0 1 .351.687l.295.783v.627h-3.735zm11.319 10.243h-6.235v-.602a6.52 6.52 0 0 1 .871-.326l.983-.253v-9.472l-1.854-.193v-.627a15.61 15.61 0 0 1 1.769-.506l1.91-.361h.702v11.159l1.011.253c.3.088.58.197.843.326v.602zm-4.915-16.149c0-.434.163-.779.491-1.036s.763-.386 1.306-.386.974.129 1.292.386a1.26 1.26 0 0 1 .477 1.036c0 .434-.159.776-.477 1.025s-.749.374-1.292.374-.978-.125-1.306-.374-.491-.591-.491-1.025zm22.188 16.149h-6.038v-.602a11.22 11.22 0 0 1 1.657-.579v-5.712c0-1.221-.206-2.185-.618-2.892s-1.161-1.061-2.247-1.061c-.468 0-.903.073-1.306.217a3.65 3.65 0 0 0-1.067.591 4.29 4.29 0 0 0-.801.844 4.43 4.43 0 0 0-.534.976v7.038a5.47 5.47 0 0 1 1.686.579v.602h-6.067v-.602c.468-.209 1.086-.402 1.854-.579v-9.472l-1.854-.193v-.627c.487-.176 1.048-.337 1.685-.482l1.994-.386h.702v2.7h.028c.393-.739.959-1.374 1.699-1.904s1.633-.795 2.682-.795c.749 0 1.418.076 2.008.229s1.081.421 1.475.807.693.904.899 1.555.309 1.474.309 2.471v6.098c.749.113 1.367.305 1.854.579v.602zm.899-11.473c.711-.385 1.46-.659 2.247-.819v-2.049a6.57 6.57 0 0 1 .856-.47l.969-.397h.702v3.157h4.213v1.205h-4.213v6.99c0 .964.178 1.647.534 2.049s.89.603 1.601.603l1.264-.06c.506-.04.936-.116 1.292-.229l.197.361c-.15.145-.361.297-.632.458a7.28 7.28 0 0 1-.927.458 7.21 7.21 0 0 1-1.138.362 5.55 5.55 0 0 1-1.264.144c-1.123 0-1.98-.273-2.57-.819s-.885-1.43-.885-2.652v-7.665h-2.247v-.627zm17.385 11.473h-6.235v-.602a6.58 6.58 0 0 1 .871-.326l.983-.253v-9.472l-1.854-.193v-.627a15.69 15.69 0 0 1 1.77-.506l1.91-.361h.702v11.159l1.012.253a5.24 5.24 0 0 1 .842.326v.602zm-4.915-16.149c0-.434.164-.779.492-1.036s.763-.386 1.306-.386.974.129 1.292.386.477.602.477 1.036-.159.776-.477 1.025-.749.374-1.292.374-.978-.125-1.306-.374-.492-.591-.492-1.025zm22.188 16.149h-6.038v-.602a11.28 11.28 0 0 1 1.657-.579v-5.712c0-1.221-.206-2.185-.618-2.892s-1.161-1.061-2.247-1.061c-.468 0-.904.073-1.306.217a3.66 3.66 0 0 0-1.068.591c-.309.249-.576.53-.8.844a4.39 4.39 0 0 0-.534.976v7.038c.58.097 1.142.289 1.685.579v.602h-6.066v-.602c.468-.209 1.086-.402 1.854-.579v-9.472l-1.854-.193v-.627c.487-.176 1.048-.337 1.685-.482l1.994-.386h.702v2.7h.028c.393-.739.96-1.374 1.699-1.904s1.634-.795 2.682-.795c.749 0 1.418.076 2.008.229s1.081.421 1.475.807.693.904.899 1.555.309 1.474.309 2.471v6.098c.749.113 1.367.305 1.854.579v.602zm7.414-12.34c1.011 0 1.863.084 2.556.253s1.273.43 1.741.783c1.105-.642 2.256-1.108 3.455-1.398.15.176.258.393.323.651s.098.498.098.723l-.365.578h-2.949c.468.578.702 1.342.702 2.29 0 1.157-.473 2.097-1.418 2.82s-2.326 1.085-4.143 1.085a12.9 12.9 0 0 1-.871-.024l-.759-.073-.323.482c-.121.177-.182.361-.182.554 0 .321.215.574.646.759s.969.35 1.614.495l2.107.446a11.79 11.79 0 0 1 2.121.627c.656.266 1.203.61 1.643 1.036s.669.976.688 1.651c.019.578-.136 1.1-.464 1.566s-.781.856-1.362 1.169-1.277.554-2.092.723-1.709.253-2.682.253c-2.041 0-3.581-.297-4.62-.892s-1.559-1.342-1.559-2.241c0-.434.079-.812.239-1.133s.389-.603.688-.844.674-.454 1.123-.639a13.74 13.74 0 0 1 1.545-.518 2.84 2.84 0 0 1-1.025-.663 1.42 1.42 0 0 1-.407-1.025c0-.369.182-.735.547-1.097s.735-.646 1.11-.855c-1.067-.241-1.887-.699-2.458-1.374a3.45 3.45 0 0 1-.856-2.29 3.3 3.3 0 0 1 .365-1.53 3.63 3.63 0 0 1 1.067-1.241c.468-.354 1.049-.627 1.742-.82s1.498-.289 2.415-.289zm4.157 14.293a1.46 1.46 0 0 0-.604-1.229c-.403-.306-.903-.554-1.503-.747s-1.245-.354-1.938-.482l-1.938-.434c-.712.369-1.18.759-1.405 1.169s-.337.831-.337 1.265c0 .852.356 1.491 1.067 1.917s1.742.638 3.09.638c.693 0 1.269-.056 1.728-.169s.824-.261 1.095-.446.464-.406.576-.663a2.02 2.02 0 0 0 .169-.82zm-7.218-10.412a3.82 3.82 0 0 0 .155 1.097c.103.346.271.647.505.904s.548.462.941.615.88.229 1.46.229c1.086 0 1.863-.273 2.331-.819s.702-1.221.702-2.025c0-.868-.229-1.555-.688-2.06s-1.241-.759-2.345-.759c-1.142 0-1.938.245-2.387.735s-.674 1.185-.674 2.085zm41.23 8.459h-6.965v-.699l1.123-.325 1.151-.253v-10.846l.113-2.82h-.224l-.927 2.579-5.758 12.365h-.73l-5.477-12.365-1.011-2.82h-.253l.028 3.061v10.846l1.068.241 1.067.337v.699h-5.87v-.699l1.109-.35a11.52 11.52 0 0 1 1.166-.253v-14.269c-.393-.064-.782-.148-1.166-.253l-1.137-.349v-.699h5.758l4.887 11.015.955 2.483h.028l.955-2.531 5.055-10.967h5.084v.699l-1.039.349c-.356.105-.721.189-1.096.253v14.317l1.11.229c.346.088.679.197.997.325v.699zm1.995-6.026c0-1.012.155-1.908.464-2.688s.753-1.438 1.334-1.976 1.278-.948 2.093-1.229 1.717-.422 2.71-.422c1.161 0 2.163.152 3.005.458s1.531.735 2.065 1.289.927 1.217 1.18 1.989.379 1.631.379 2.579c0 2.025-.599 3.583-1.797 4.676s-2.809 1.639-4.831 1.639c-1.123 0-2.097-.148-2.921-.446s-1.507-.723-2.05-1.278-.951-1.221-1.222-2-.407-1.643-.407-2.591zm2.696 0a8.49 8.49 0 0 0 .239 2.049c.159.643.412 1.201.759 1.675s.8.848 1.362 1.121 1.235.41 2.022.41c1.011 0 1.839-.426 2.486-1.278s.969-2.177.969-3.977a8.42 8.42 0 0 0-.239-2.061c-.16-.635-.407-1.189-.744-1.663a3.6 3.6 0 0 0-1.292-1.121c-.524-.273-1.151-.41-1.882-.41-1.105 0-1.995.426-2.669 1.277s-1.011 2.177-1.011 3.977zm27.889 6.026h-6.038v-.602a11.24 11.24 0 0 1 1.657-.579v-5.712c0-1.221-.206-2.185-.618-2.892s-1.161-1.061-2.247-1.061c-.468 0-.904.073-1.306.217s-.758.342-1.067.591-.576.53-.8.844a4.39 4.39 0 0 0-.534.976v7.038c.58.097 1.142.289 1.685.579v.602h-6.066v-.602c.468-.209 1.086-.402 1.853-.579v-9.472l-1.853-.193v-.627c.487-.176 1.048-.337 1.685-.482l1.994-.386h.702v2.7h.028c.393-.739.959-1.374 1.699-1.904s1.634-.795 2.682-.795c.749 0 1.418.076 2.008.229s1.081.421 1.475.807.693.904.898 1.555.309 1.474.309 2.471v6.098c.749.113 1.367.305 1.854.579v.602zm13.004-1.687c-.15.273-.384.531-.702.772a5.22 5.22 0 0 1-1.096.627 7.31 7.31 0 0 1-1.348.422 7.04 7.04 0 0 1-1.489.157c-1.105 0-2.078-.148-2.921-.446s-1.545-.723-2.107-1.278a5.45 5.45 0 0 1-1.277-1.988c-.29-.771-.435-1.639-.435-2.603 0-2.057.552-3.623 1.657-4.7s2.668-1.615 4.69-1.615c.656 0 1.302.076 1.938.229s1.203.406 1.699.759.898.824 1.208 1.41.464 1.313.464 2.181a8.27 8.27 0 0 1-.043.831 7.11 7.11 0 0 1-.154.904h-8.763c0 .675.098 1.306.295 1.892s.492 1.097.885 1.53.89.776 1.489 1.025 1.301.374 2.106.374a8.58 8.58 0 0 0 1.994-.241c.675-.161 1.18-.369 1.517-.627l.393.385zm-5.139-9.593c-1.067 0-1.882.309-2.444.928s-.899 1.707-1.011 3.265h6.179l.042-.421.014-.398c0-1.028-.225-1.848-.675-2.458s-1.151-.916-2.106-.916zm7.92.434c-.281-.064-.538-.144-.772-.241l-.716-.337v-.627h5.87v.603c-.393.225-.927.426-1.601.602l3.595 7.135.534 1.494h.056l.422-1.519 2.668-7.11a4.29 4.29 0 0 1-1.545-.578v-.627h4.802v.627c-.393.225-.927.418-1.601.578l-4.381 10.846c-.45 1.029-.875 1.86-1.278 2.494s-.805 1.137-1.208 1.506-.814.639-1.236.808a6.53 6.53 0 0 1-1.362.374 6.12 6.12 0 0 1-.548-1.012l-.407-1.06.365-.578h2.921a4.37 4.37 0 0 0 .295-.374c.085-.121.174-.269.267-.446a7.76 7.76 0 0 0 .309-.675l.393-1.036-5.842-10.846z"/></g><path d="M115.886 123.69h44.963v16.972h-44.963z" fill="#f8f3da"/><g transform="matrix(1 0 0 .822294 -.429188 33.995)"><use xlink:href="#D" class="D"/><path d="M153.886 123.691h37.945v16.972h-37.945z" class="E"/><path d="M191.886 123.691h37.945v16.972h-37.945z" class="D"/><path d="M229.886 123.691h37.945v16.972h-37.945z" class="E"/><path d="M267.886 123.691h37.945v16.972h-37.945z" class="D"/><path d="M305.886 123.691h37.945v16.972h-37.945z" class="E"/><path d="M343.886 123.691h37.945v16.972h-37.945z" class="D"/><path d="M381.886 123.691h37.945v16.972h-37.945z" class="E"/><path d="M96.913 140.523h37.945v16.972H96.913z" class="F"/><path d="M134.858 140.523h37.945v16.972h-37.945z" class="D"/><path d="M172.804 140.523h37.945v16.972h-37.945z" class="F"/><path d="M210.749 140.523h37.945v16.972h-37.945z" class="D"/><path d="M248.694 140.523h37.945v16.972h-37.945z" class="F"/><path d="M286.639 140.523h37.945v16.972h-37.945z" class="D"/><path d="M324.584 140.523h37.945v16.972h-37.945z" class="F"/><path d="M362.53 140.523h37.945v16.972H362.53z" class="D"/></g><g transform="matrix(.017571 0 0 .015079 243.931 138.823)" class="B C"><use xlink:href="#E"/></g><g transform="matrix(.017571 0 0 .015079 319.931 138.823)" class="B C"><use xlink:href="#E"/></g><g transform="matrix(.017571 0 0 .015079 167.931 138.823)" class="B C"><use xlink:href="#E"/></g><g transform="matrix(.017571 0 0 .015079 129.931 138.823)" class="B C"><use xlink:href="#E"/></g><g transform="matrix(.017571 0 0 .015079 205.931 138.823)" class="B C"><use xlink:href="#E"/></g><g transform="matrix(.017571 0 0 .015079 281.931 138.823)" class="B C"><use xlink:href="#E"/></g><g transform="matrix(.017571 0 0 .015079 357.931 138.823)" class="B C"><use xlink:href="#E"/></g><g transform="matrix(.017571 0 0 .015079 186.958 152.664)" class="B C"><use xlink:href="#E"/></g><g transform="matrix(.017571 0 0 .015079 262.739 152.664)" class="B C"><use xlink:href="#E"/></g><g transform="matrix(.017571 0 0 .015079 338.63 152.664)" class="B C"><use xlink:href="#E"/></g><g transform="matrix(.017571 0 0 .015079 395.931 138.823)" class="B C"><use xlink:href="#E"/></g><g transform="matrix(.017571 0 0 .015079 224.794 152.664)" class="B C"><use xlink:href="#E"/></g><g transform="matrix(.017571 0 0 .015079 300.685 152.664)" class="B C"><use xlink:href="#E"/></g><g transform="matrix(.017571 0 0 .015079 148.958 152.664)" class="B C"><use xlink:href="#E"/></g><g transform="matrix(.017571 0 0 .015079 376.575 152.664)" class="B C"><use xlink:href="#E"/></g></g><use xlink:href="#C" fill="none" stroke="#ecd99b" stroke-width="1.84"/></g><defs ><path id="C" d="M400 75.792c0-4.779-4.521-8.659-10.09-8.659H125.976c-5.569 0-10.09 3.88-10.09 8.659v73.044c0 4.779 4.521 8.659 10.09 8.659H389.91c5.569 0 10.09-3.88 10.09-8.659V75.792z"/><path id="D" d="M115.886 123.691h37.945v16.972h-37.945z"/><path id="E" d="M278.622 224.006V110.243c24.336 4.105 47.283 14.091 66.901 29.087 3.911 2.682 8.5 4.137 13.251 4.201 15.222 0 27.633-12.249 27.794-27.471.032-6.528-2.521-12.798-7.11-17.452-28.344-24.272-63.895-38.589-101.159-40.722V19.749c0-10.892-8.823-19.715-19.715-19.715-.226-.032-.453-.032-.679-.032a20.04 20.04 0 0 0-20.329 19.747v36.844c-72.718 5.171-122.166 50.095-122.166 109.885 0 73.364 62.376 93.726 122.166 109.885V405.64c-31.544-4.234-61.277-17.323-85.646-37.813-4.589-3.652-10.278-5.688-16.16-5.817-14.899 1.034-26.372 13.509-26.179 28.441-.032 6.528 2.521 12.798 7.11 17.452 33.386 30.057 76.306 47.348 121.197 48.802v35.551c0 .226.032.453.032.679.517 11.053 9.922 19.585 20.975 19.036 10.892 0 19.715-8.823 19.715-19.715v-36.197c88.231-5.817 123.782-59.467 123.782-116.349.002-76.274-63.989-99.544-123.78-115.704zM237.9 213.664c-35.228-10.342-62.699-21.007-62.699-51.064s24.886-51.711 62.699-54.619v105.683zm40.722 192.622V288.645c36.521 10.342 64.961 24.239 64.638 58.174 0 24.563-16.806 53.65-64.638 59.467z"/></defs></svg>