<svg xmlns="http://www.w3.org/2000/svg" xmlns:xlink="http://www.w3.org/1999/xlink" width="100%" height="100%" viewBox="0 0 287 108" fill-rule="evenodd" stroke-linecap="round" stroke-linejoin="round" stroke-miterlimit="1.5" xmlns:v="https://vecta.io/nano"><g transform="matrix(.999996 0 0 1.16526 -114.132348 -77.085386)"><use xlink:href="#C" fill="#fff"/><clipPath id="A"><use xlink:href="#C"/></clipPath><g clip-path="url(#A)"><g fill-rule="nonzero"><path d="M212.753 111.474v4.788h-3.615v-13.588h6.845c1.317 0 2.476.187 3.476.56s1.769.904 2.308 1.591a3.7 3.7 0 0 1 .807 2.347c0 1.332-.589 2.38-1.766 3.15s-2.805 1.152-4.886 1.152h-3.169zm0-2.264h3.23c.956 0 1.685-.175 2.187-.524s.753-.848.753-1.495c0-.666-.253-1.204-.759-1.614s-1.206-.622-2.097-.635h-3.314v4.268zm19.401-.519l-1.253-.071c-1.318 0-2.181.343-2.59 1.035v6.606h-3.483v-10.098h3.29l.097 1.201c.699-.925 1.667-1.388 2.904-1.388a4.64 4.64 0 0 1 1.084.121l-.048 2.593zm.741 2.427c0-1.003.25-1.896.747-2.679s1.215-1.388 2.151-1.818 2.023-.644 3.26-.644c1.759 0 3.195.417 4.307 1.252s1.733 1.967 1.862 3.397l.024.692c0 1.546-.559 2.789-1.675 3.727s-2.615 1.404-4.494 1.404-3.381-.466-4.501-1.397c-1.121-.938-1.681-2.206-1.681-3.811v-.123zm3.482.201c0 .958.233 1.689.699 2.193.466.511 1.133.763 2.001.763.843 0 1.502-.252 1.976-.751.473-.505.711-1.307.711-2.407 0-.938-.237-1.663-.711-2.18s-1.141-.776-2-.776c-.852 0-1.511.259-1.977.77s-.699 1.307-.699 2.387zm10.508-.182c0-1.546.476-2.795 1.428-3.74s2.235-1.42 3.849-1.42c1.43 0 2.543.38 3.338 1.139l.145-.952h3.157v9.761c0 .886-.259 1.656-.777 2.31s-1.247 1.145-2.187 1.488-2.041.518-3.301.518a8.94 8.94 0 0 1-2.796-.446c-.908-.297-1.595-.673-2.061-1.145l1.543-1.637c.868.751 1.92 1.126 3.157 1.126.924 0 1.643-.194 2.157-.576s.771-.925.771-1.624v-.543c-.804.705-1.86 1.055-3.169 1.055-1.567 0-2.834-.472-3.802-1.423s-1.451-2.206-1.451-3.778v-.11zm3.482.201c0 .912.237 1.63.711 2.148s1.124.776 1.952.776c1.06 0 1.819-.304 2.278-.919v-4.251c-.466-.615-1.218-.925-2.253-.925-.835 0-1.492.265-1.97.796s-.717 1.32-.717 2.374zm18.437-2.647l-1.254-.071c-1.317 0-2.18.343-2.59 1.035v6.606h-3.482v-10.098h3.289l.097 1.201c.699-.925 1.667-1.388 2.904-1.388.386 0 .747.04 1.085.121l-.048 2.593zm7.469 7.758c-1.912 0-3.469-.453-4.67-1.365-1.201-.906-1.801-2.116-1.801-3.63v-.259c0-1.016.253-1.922.759-2.724.506-.796 1.223-1.413 2.151-1.846s1.986-.648 3.175-.648c1.784 0 3.188.435 4.211 1.304s1.536 2.109 1.536 3.707v1.1h-8.302c.112.66.452 1.19 1.019 1.592.566.395 1.283.595 2.151.595 1.341 0 2.39-.375 3.145-1.132l1.711 1.488c-.522.569-1.23 1.016-2.121 1.339-.892.317-1.88.479-2.964.479zm-.398-8.288c-.691 0-1.251.181-1.68.543-.43.356-.705.873-.826 1.546h4.844v-.214c-.016-.595-.225-1.061-.627-1.385-.402-.33-.972-.492-1.711-.492zm14.797 5.312c0-.33-.211-.589-.633-.783-.422-.188-1.099-.356-2.031-.505-3.101-.505-4.651-1.527-4.651-3.06 0-.899.48-1.643 1.44-2.247s2.215-.901 3.766-.901c1.655 0 2.978.301 3.97.905s1.488 1.388 1.488 2.352h-3.482c0-.388-.161-.705-.483-.958s-.823-.375-1.506-.375c-.587 0-1.04.097-1.362.304s-.483.466-.483.783c0 .304.183.543.548.725.366.188.982.343 1.85.479l2.193.453c1.84.518 2.759 1.423 2.759 2.717 0 .919-.51 1.663-1.53 2.232s-2.338.854-3.952.854c-1.093 0-2.063-.149-2.91-.453s-1.512-.718-1.995-1.242-.723-1.093-.723-1.702h3.302c.032.479.261.848.687 1.1.426.259.996.382 1.711.382.667 0 1.171-.097 1.512-.291s.513-.453.513-.77zm12.689 0c0-.33-.211-.589-.633-.783-.422-.188-1.098-.356-2.03-.505-3.101-.505-4.652-1.527-4.652-3.06 0-.899.48-1.643 1.44-2.247s2.215-.901 3.766-.901c1.655 0 2.978.301 3.97.905s1.488 1.388 1.488 2.352h-3.482c0-.388-.161-.705-.482-.958s-.824-.375-1.506-.375c-.587 0-1.04.097-1.362.304s-.483.466-.483.783c0 .304.183.543.549.725.365.188.982.343 1.849.479l2.193.453c1.84.518 2.759 1.423 2.759 2.717 0 .919-.51 1.663-1.53 2.232s-2.338.854-3.952.854c-1.092 0-2.063-.149-2.91-.453s-1.512-.718-1.994-1.242-.723-1.093-.723-1.702h3.301c.032.479.261.848.687 1.1.426.259.996.382 1.711.382.666 0 1.171-.097 1.512-.291s.513-.453.513-.77z"/></g><path d="M115.885 67.132h95.925v15.326h-95.925z" fill="#2ecc71"/><path d="M115.885 82.452h60.925v15.326h-60.925z" fill="#cbf3dc"/><path d="M115.886 97.782h82.925v15.326h-82.925z" fill="#2ecc71"/><path d="M115.886 113.102h30.462v15.326h-30.462z" fill="#cbf3dc"/><path d="M115.885 128.432h223.464v15.326H115.885z" fill="#2ecc71"/><path d="M115.885 143.762h150.463v15.326H115.885z" fill="#cbf3dc"/></g><use xlink:href="#C" fill="none" stroke="#000" stroke-width="1.84"/></g><defs ><path id="C" d="M400 75.792c0-4.779-4.521-8.659-10.09-8.659H125.976c-5.569 0-10.09 3.88-10.09 8.659v73.044c0 4.779 4.521 8.659 10.09 8.659H389.91c5.569 0 10.09-3.88 10.09-8.659V75.792z"/></defs></svg>