<svg xmlns="http://www.w3.org/2000/svg" xmlns:xlink="http://www.w3.org/1999/xlink" width="100%" height="100%" viewBox="0 0 287 108" fill-rule="evenodd" stroke-linecap="round" stroke-linejoin="round" stroke-miterlimit="1.5" xmlns:v="https://vecta.io/nano"><g transform="matrix(.999996 0 0 1.16526 -114.179649 -76.59025)"><use xlink:href="#C" fill="#f9e1cc"/><clipPath id="A"><use xlink:href="#C"/></clipPath><g clip-path="url(#A)"><g fill-rule="nonzero"><path d="M234.519 124.873c-.168 0-.369-.025-.6-.074s-.367-.099-.41-.148c-.084-.172-.126-.405-.126-.7l.317-3.646c0-1.989-.422-3.781-1.263-5.377-.547-.884-1.22-1.535-2.02-1.952-1.177-.614-2.417-.921-3.722-.921a13.18 13.18 0 0 0-1.199.074l-.251.589-.253 6.224a30.77 30.77 0 0 0 .315 4.346c.043.123.064.295.064.516 0 .295-.021.516-.064.663-.041.074-.157.141-.347.203a1.91 1.91 0 0 1-.599.092 2.39 2.39 0 0 1-.6-.092c-.231-.061-.367-.129-.41-.203-.294-.81-.463-1.522-.504-2.137l-.126-2.578.063-1.915.506-16.538v-.294c.041-.614.157-1.044.346-1.289s.536-.393 1.042-.442 1.409-.074 2.713-.074c1.683 0 3.071.086 4.164.258.967.148 1.788.491 2.461 1.031 1.261.933 1.892 1.977 1.892 3.131v.774c.169 2.554-1.261 4.714-4.289 6.483-.085.024-.231.134-.442.331l-.126.185.472.276c.19.11.347.19.474.239 1.177.541 2.039 1.339 2.586 2.394.926 1.67 1.389 3.155 1.389 4.456 0 1.399-.105 3.204-.315 5.415a1.15 1.15 0 0 1-.064.221.54.54 0 0 1-.251.295c-.212.123-.484.184-.821.184zm-8.959-14.365l2.524-.184s1.366-.282 1.956-.552c1.893-.982 2.987-2.075 3.281-3.278.168-.884.253-1.547.253-1.989a6.48 6.48 0 0 0-.19-1.547c-.294-1.301-1.388-2.05-3.281-2.246a23.4 23.4 0 0 0-2.271-.111l-1.956.074c-.169.442-.305 1.277-.41 2.505l-.158 3.83c0 1.744.084 2.91.253 3.499zm17.349 14.144c-1.977-.491-3.238-1.326-3.785-2.505-.294-.687-.463-1.301-.504-1.841-.085-.54-.126-1.08-.126-1.621 0-1.743.189-3.032.568-3.867.462-1.105 1.051-1.928 1.765-2.467.422-.344.958-.602 1.61-.774a8.01 8.01 0 0 1 2.05-.258c1.01 0 1.956.159 2.839.478s1.535.737 1.956 1.253l.568 1.031c.589 1.768.883 3.352.883 4.751 0 1.228-.231 2.308-.694 3.241-.251.541-.504.946-.757 1.215-.42.492-1.04.878-1.861 1.16s-1.692.424-2.618.424a8.3 8.3 0 0 1-1.893-.221zm3.092-1.215c.883-.196 1.535-.681 1.956-1.455s.632-1.737.632-2.891c0-1.645-.317-3.364-.947-5.156-.168-.393-.579-.725-1.231-.995a5.31 5.31 0 0 0-2.05-.405c-.8 0-1.43.184-1.893.552l-.599.681a6.39 6.39 0 0 0-.663.866c-.589 1.08-.883 2.321-.883 3.72 0 1.227.253 2.308.757 3.241a3.54 3.54 0 0 0 2.335 1.805c.378.123.82.184 1.325.184.462 0 .883-.049 1.261-.148zm14.638 1.51a9.85 9.85 0 0 1-2.335-.276c-.757-.184-1.409-.448-1.956-.792-.967-.565-1.64-1.203-2.02-1.915-.673-1.178-1.01-2.21-1.01-3.093 0-.344.021-.602.064-.774l.82-3.02c.21-.81.673-1.547 1.389-2.21 1.219-1.055 2.649-1.584 4.289-1.584 1.346 0 2.777.368 4.29 1.105.253.098.442.27.568.516v.074c0 .123-.084.233-.253.332-.125.073-.337.11-.631.11-.168 0-.337-.037-.504-.11l-.379-.148-.82-.295c-.337-.123-.632-.208-.883-.257-.547-.123-1.031-.185-1.451-.185-.757 0-1.451.234-2.082.7-.673.467-1.136 1.02-1.388 1.658-.589 1.326-.883 2.639-.883 3.941 0 .81.116 1.535.347 2.173s.682 1.228 1.356 1.768a4.86 4.86 0 0 0 1.893.995c.589.147 1.115.221 1.578.221.588 0 1.114-.098 1.577-.294l.315-.184c.337-.123.631-.184.883-.184.21 0 .379.049.506.147s.189.209.189.332c0 .172-.105.319-.315.442-.883.541-1.936.811-3.154.811zm8.327.442c-.041.024-.125.037-.251.037-.169 0-.305-.049-.41-.148a.8.8 0 0 1-.221-.331c-.295-.737-.463-1.412-.506-2.026v-.516c0-1.743-.084-3.315-.253-4.714l-.063-1.031v-12.228a7.72 7.72 0 0 1 .126-1.307l.189-1.013c0-.295.126-.528.379-.7.168-.196.337-.283.504-.258a1.22 1.22 0 0 1 .474.092 1.28 1.28 0 0 1 .347.203c.125.319.189.651.189.994 0 .221-.043.553-.126.995l-.063.921v11.049c0 .098.084.258.251.478 1.01-.049 2.314-.442 3.913-1.178s2.734-1.535 3.406-2.394l.537-.516.41-.405c.294-.27.673-.405 1.135-.405.337 0 .611.055.821.165s.315.252.315.424l-.126.294c-.126.196-.357.467-.693.81-1.094 1.08-2.524 2.014-4.29 2.8l-1.263.478-1.514.589c2.061.54 3.512 1.031 4.353 1.473s1.42.982 1.736 1.62.62 1.744.914 3.315l.253 1.362c0 .245-.064.418-.189.516-.337.196-.673.307-1.01.332h-.189c-.422 0-.673-.123-.758-.368-.084-.148-.125-.405-.125-.774l-.126-1.179c0-.245-.043-.638-.126-1.178-.084-.418-.294-.982-.631-1.695-.42-.736-1.188-1.338-2.303-1.804s-2.262-.701-3.439-.701l-.883.037c0 .049-.032.148-.094.294a.56.56 0 0 0-.032.405l.19 5.525c.041.147.063.368.063.662 0 .221-.021.393-.063.516-.043.099-.137.19-.285.276a2.15 2.15 0 0 1-.474.203zm19.433-.258c-1.177 0-2.187-.209-3.028-.627-1.43-.662-2.146-1.473-2.146-2.431 0-.269.021-.466.064-.589 0-.099.084-.196.251-.295.295-.123.547-.184.758-.184.335.049.567.135.693.258.084.148.137.276.158.387a1.49 1.49 0 0 1 .031.276c.126.54.463 1.007 1.01 1.399.589.417 1.325.626 2.208.626a5.93 5.93 0 0 0 1.136-.11c1.388-.27 2.419-.798 3.09-1.584.126-.196.19-.393.19-.589a1.33 1.33 0 0 0-.19-.663c-.631-.884-1.829-1.645-3.596-2.283l-1.703-.552c-2.061-.663-3.092-1.633-3.092-2.91s.841-2.332 2.524-3.167c.926-.467 1.914-.7 2.965-.7 1.177 0 2.23.257 3.154.773 1.094.638 1.704 1.449 1.829 2.431 0 .123-.041.196-.125.221-.253.196-.506.307-.757.332h-.064c-.294 0-.504-.061-.631-.184-.126-.148-.21-.276-.253-.387a2.05 2.05 0 0 0-.126-.276 3.94 3.94 0 0 1-.315-.497 3.97 3.97 0 0 0-.315-.497c-.589-.541-1.304-.811-2.145-.811-.716 0-1.389.184-2.02.553-.547.294-.946.632-1.199 1.013s-.378.841-.378 1.381c0 .737.714 1.351 2.145 1.841l3.028 1.179c1.389.54 2.44 1.363 3.154 2.467.169.295.253.565.253.811 0 .565-.315 1.111-.946 1.639s-1.451.951-2.461 1.271a10.4 10.4 0 0 1-3.154.479z"/></g><path d="M112.556 139.533s236.719-9.977 289.492 4.291 0 15.447 0 15.447H114.18l-1.624-19.738z" fill="#945943"/><path d="M169.754 121.543c-2.176-.542-4.521.057-5.996 1.534l-1.151 1.152c-1.426 1.428-1.535 3.506-.264 5.038l6.442 7.765c.875 1.056 2.291 1.682 3.801 1.682h12.284c1.463 0 2.851-.559 3.785-1.525l6.492-6.712c.45-.464.596-1.092.39-1.669s-.738-1.026-1.413-1.194l-24.37-6.072z" fill="#fb986e"/><path d="M172.612 122.096c.264.156.55.281.853.372l14.213 4.316c.988.3 2.078.219 2.991-.221s1.562-1.195 1.78-2.074l3.099-12.515c.242-.977-.075-1.994-.852-2.736s-1.922-1.122-3.079-1.02l-22.204 1.955c-1.169.103-2.209.684-2.791 1.561s-.635 1.94-.143 2.856c1.441 2.651 3.597 5.926 6.133 7.506z" fill="#e45b36"/><g transform="matrix(.746599 -.056833 .088356 .854822 53.5914 -274.933)"><path d="M315.143 503.67c-1.506-.153-2.841-.804-3.637-1.775s-.966-2.159-.465-3.235l2.91-6.254c.501-1.079 1.624-1.93 3.057-2.319s3.023-.273 4.329.315l13.922 6.264a6.13 6.13 0 0 0 1.588.464l7.707 1.186c2.53.389 4.264 2.144 4.023 4.071l-.085.677c-.129 1.029-.811 1.974-1.891 2.617s-2.462.928-3.828.789l-27.63-2.8z" fill="#e45b36"/></g><g transform="matrix(.980952 -.166703 .194252 .841832 -74.5332 -261.44)"><path d="M170.675 473.859c-1.607.856-3.576.616-4.931-.599l-10.655-9.56c-.992-.89-1.519-2.187-1.429-3.518s.787-2.544 1.89-3.293l7.975-5.409a4.33 4.33 0 0 1 4.499-.222l8.344 4.528c1.056.573 1.826 1.558 2.128 2.72s.107 2.398-.538 3.412L176 465l.826 4.535a1.33 1.33 0 0 1-.684 1.413l-5.467 2.911z" fill="#945943"/></g></g><use xlink:href="#C" fill="none" stroke="#945943" stroke-width="1.84"/></g><defs ><path id="C" d="M400 75.792c0-4.779-4.521-8.659-10.09-8.659H125.976c-5.569 0-10.09 3.88-10.09 8.659v73.044c0 4.779 4.521 8.659 10.09 8.659H389.91c5.569 0 10.09-3.88 10.09-8.659V75.792z"/></defs></svg>