<svg xmlns="http://www.w3.org/2000/svg" xmlns:xlink="http://www.w3.org/1999/xlink" width="100%" height="100%" viewBox="0 0 287 108" fill-rule="evenodd" stroke-linejoin="round" stroke-miterlimit="2" xmlns:v="https://vecta.io/nano"><style><![CDATA[.B{fill-rule:nonzero}.C{opacity:.25}.D{fill:#fff}.E{stroke:#fff}.F{stroke-width:.3}.G{fill:#ff5454}]]></style><g transform="matrix(.999996 0 0 1.16526 -114.194172 -77.085347)"><use xlink:href="#C" fill="url(#B)"/><clipPath id="A"><use xlink:href="#C"/></clipPath><g clip-path="url(#A)" class="B"><g transform="matrix(1.03258 0 0 1.01231 -307.807 -991.123)" class="D E F"><g transform="matrix(.416119 0 0 .416119 244.521 612.918)" class="C"><use xlink:href="#D"/><use xlink:href="#E"/><path d="M463.396 1044.724v5.244h-18.684v-21.367h8.18v16.123h10.503z"/><use xlink:href="#F"/></g><g transform="matrix(.416119 0 0 .416119 244.521 625.001)" class="C"><use xlink:href="#D"/><use xlink:href="#E"/><path d="M463.396 1044.724v5.244h-18.684v-21.367h8.18v16.123h10.503z"/><use xlink:href="#F"/></g><g transform="matrix(.416119 0 0 .416119 244.521 637.084)" class="C"><use xlink:href="#D"/><use xlink:href="#E"/><path d="M463.396 1044.724v5.244h-18.684v-21.367h8.18v16.123h10.503z"/><use xlink:href="#F"/></g><g transform="matrix(.416119 0 0 .416119 244.521 649.167)" class="C"><use xlink:href="#D"/><use xlink:href="#E"/><path d="M463.396 1044.724v5.244h-18.684v-21.367h8.18v16.123h10.503z"/><use xlink:href="#F"/></g><g transform="matrix(.416119 0 0 .416119 244.521 661.249)" class="C"><use xlink:href="#D"/><use xlink:href="#E"/><path d="M463.396 1044.724v5.244h-18.684v-21.367h8.18v16.123h10.503z"/><use xlink:href="#F"/></g><g transform="matrix(.416119 0 0 .416119 244.521 673.332)" class="C"><use xlink:href="#D"/><use xlink:href="#E"/><path d="M463.396 1044.724v5.244h-18.684v-21.367h8.18v16.123h10.503z"/><use xlink:href="#F"/></g><g transform="matrix(.416119 0 0 .416119 244.521 697.498)" class="C"><use xlink:href="#D"/><use xlink:href="#E"/><path d="M463.396 1044.724v5.244h-18.684v-21.367h8.18v16.123h10.503z"/><use xlink:href="#F"/></g><g transform="matrix(.416119 0 0 .416119 244.521 685.415)" class="C"><use xlink:href="#D"/><use xlink:href="#E"/><path d="M463.396 1044.724v5.244h-18.684v-21.367h8.18v16.123h10.503z"/><use xlink:href="#F"/></g></g><g transform="matrix(1.03258 0 0 1.01231 -263.258 -991.123)" class="D E F"><g transform="matrix(.416119 0 0 .416119 244.521 612.918)" class="C"><use xlink:href="#D"/><use xlink:href="#E"/><path d="M463.396 1044.724v5.244h-18.684v-21.367h8.18v16.123h10.503z"/><use xlink:href="#F"/></g><g transform="matrix(.416119 0 0 .416119 244.521 625.001)" class="C"><use xlink:href="#D"/><use xlink:href="#E"/><path d="M463.396 1044.724v5.244h-18.684v-21.367h8.18v16.123h10.503z"/><use xlink:href="#F"/></g><g transform="matrix(.416119 0 0 .416119 244.521 637.084)" class="C"><use xlink:href="#D"/><use xlink:href="#E"/><path d="M463.396 1044.724v5.244h-18.684v-21.367h8.18v16.123h10.503z"/><use xlink:href="#F"/></g><g transform="matrix(.416119 0 0 .416119 244.521 649.167)" class="C"><use xlink:href="#D"/><use xlink:href="#E"/><path d="M463.396 1044.724v5.244h-18.684v-21.367h8.18v16.123h10.503z"/><use xlink:href="#F"/></g><g transform="matrix(.416119 0 0 .416119 244.521 661.249)" class="C"><use xlink:href="#D"/><use xlink:href="#E"/><path d="M463.396 1044.724v5.244h-18.684v-21.367h8.18v16.123h10.503z"/><use xlink:href="#F"/></g><g transform="matrix(.416119 0 0 .416119 244.521 673.332)" class="C"><use xlink:href="#D"/><use xlink:href="#E"/><path d="M463.396 1044.724v5.244h-18.684v-21.367h8.18v16.123h10.503z"/><use xlink:href="#F"/></g><g transform="matrix(.416119 0 0 .416119 244.521 697.498)" class="C"><use xlink:href="#D"/><use xlink:href="#E"/><path d="M463.396 1044.724v5.244h-18.684v-21.367h8.18v16.123h10.503z"/><use xlink:href="#F"/></g><g transform="matrix(.416119 0 0 .416119 244.521 685.415)" class="C"><use xlink:href="#D"/><use xlink:href="#E"/><path d="M463.396 1044.724v5.244h-18.684v-21.367h8.18v16.123h10.503z"/><use xlink:href="#F"/></g></g><g transform="matrix(1.03258 0 0 1.01231 -218.71 -991.123)" class="D E F"><g transform="matrix(.416119 0 0 .416119 244.521 612.918)" class="C"><use xlink:href="#D"/><use xlink:href="#E"/><path d="M463.396 1044.724v5.244h-18.684v-21.367h8.18v16.123h10.503z"/><use xlink:href="#F"/></g><g transform="matrix(.416119 0 0 .416119 244.521 625.001)" class="C"><use xlink:href="#D"/><use xlink:href="#E"/><path d="M463.396 1044.724v5.244h-18.684v-21.367h8.18v16.123h10.503z"/><use xlink:href="#F"/></g><g transform="matrix(.416119 0 0 .416119 244.521 637.084)" class="C"><use xlink:href="#D"/><use xlink:href="#E"/><path d="M463.396 1044.724v5.244h-18.684v-21.367h8.18v16.123h10.503z"/><use xlink:href="#F"/></g><g transform="matrix(.416119 0 0 .416119 244.521 649.167)" class="C"><use xlink:href="#D"/><use xlink:href="#E"/><path d="M463.396 1044.724v5.244h-18.684v-21.367h8.18v16.123h10.503z"/><use xlink:href="#F"/></g><g transform="matrix(.416119 0 0 .416119 244.521 661.249)" class="C"><use xlink:href="#D"/><use xlink:href="#E"/><path d="M463.396 1044.724v5.244h-18.684v-21.367h8.18v16.123h10.503z"/><use xlink:href="#F"/></g><g transform="matrix(.416119 0 0 .416119 244.521 673.332)" class="C"><use xlink:href="#D"/><use xlink:href="#E"/><path d="M463.396 1044.724v5.244h-18.684v-21.367h8.18v16.123h10.503z"/><use xlink:href="#F"/></g><g transform="matrix(.416119 0 0 .416119 244.521 697.498)" class="C"><use xlink:href="#D"/><use xlink:href="#E"/><path d="M463.396 1044.724v5.244h-18.684v-21.367h8.18v16.123h10.503z"/><use xlink:href="#F"/></g><g transform="matrix(.416119 0 0 .416119 244.521 685.415)" class="C"><use xlink:href="#D"/><use xlink:href="#E"/><path d="M463.396 1044.724v5.244h-18.684v-21.367h8.18v16.123h10.503z"/><use xlink:href="#F"/></g></g><g transform="matrix(1.03258 0 0 1.01231 -174.161 -991.123)" class="D E F"><g transform="matrix(.416119 0 0 .416119 244.521 612.918)" class="C"><use xlink:href="#D"/><use xlink:href="#E"/><path d="M463.396 1044.724v5.244h-18.684v-21.367h8.18v16.123h10.503z"/><use xlink:href="#F"/></g><g transform="matrix(.416119 0 0 .416119 244.521 625.001)" class="C"><use xlink:href="#D"/><use xlink:href="#E"/><path d="M463.396 1044.724v5.244h-18.684v-21.367h8.18v16.123h10.503z"/><use xlink:href="#F"/></g><g transform="matrix(.416119 0 0 .416119 244.521 637.084)" class="C"><use xlink:href="#D"/><use xlink:href="#E"/><path d="M463.396 1044.724v5.244h-18.684v-21.367h8.18v16.123h10.503z"/><use xlink:href="#F"/></g><g transform="matrix(.416119 0 0 .416119 244.521 649.167)" class="C"><use xlink:href="#D"/><use xlink:href="#E"/><path d="M463.396 1044.724v5.244h-18.684v-21.367h8.18v16.123h10.503z"/><use xlink:href="#F"/></g><g transform="matrix(.416119 0 0 .416119 244.521 661.249)" class="C"><use xlink:href="#D"/><use xlink:href="#E"/><path d="M463.396 1044.724v5.244h-18.684v-21.367h8.18v16.123h10.503z"/><use xlink:href="#F"/></g><g transform="matrix(.416119 0 0 .416119 244.521 673.332)" class="C"><use xlink:href="#D"/><use xlink:href="#E"/><path d="M463.396 1044.724v5.244h-18.684v-21.367h8.18v16.123h10.503z"/><use xlink:href="#F"/></g><g transform="matrix(.416119 0 0 .416119 244.521 697.498)" class="C"><use xlink:href="#D"/><use xlink:href="#E"/><path d="M463.396 1044.724v5.244h-18.684v-21.367h8.18v16.123h10.503z"/><use xlink:href="#F"/></g><g transform="matrix(.416119 0 0 .416119 244.521 685.415)" class="C"><use xlink:href="#D"/><use xlink:href="#E"/><path d="M463.396 1044.724v5.244h-18.684v-21.367h8.18v16.123h10.503z"/><use xlink:href="#F"/></g></g><g transform="matrix(1.03258 0 0 1.01231 -129.612 -991.123)" class="D E F"><g transform="matrix(.416119 0 0 .416119 244.521 612.918)" class="C"><use xlink:href="#D"/><use xlink:href="#E"/><path d="M463.396 1044.724v5.244h-18.684v-21.367h8.18v16.123h10.503z"/><use xlink:href="#F"/></g><g transform="matrix(.416119 0 0 .416119 244.521 625.001)" class="C"><use xlink:href="#D"/><use xlink:href="#E"/><path d="M463.396 1044.724v5.244h-18.684v-21.367h8.18v16.123h10.503z"/><use xlink:href="#F"/></g><g transform="matrix(.416119 0 0 .416119 244.521 637.084)" class="C"><use xlink:href="#D"/><use xlink:href="#E"/><path d="M463.396 1044.724v5.244h-18.684v-21.367h8.18v16.123h10.503z"/><use xlink:href="#F"/></g><g transform="matrix(.416119 0 0 .416119 244.521 649.167)" class="C"><use xlink:href="#D"/><use xlink:href="#E"/><path d="M463.396 1044.724v5.244h-18.684v-21.367h8.18v16.123h10.503z"/><use xlink:href="#F"/></g><g transform="matrix(.416119 0 0 .416119 244.521 661.249)" class="C"><use xlink:href="#D"/><use xlink:href="#E"/><path d="M463.396 1044.724v5.244h-18.684v-21.367h8.18v16.123h10.503z"/><use xlink:href="#F"/></g><g transform="matrix(.416119 0 0 .416119 244.521 673.332)" class="C"><use xlink:href="#D"/><use xlink:href="#E"/><path d="M463.396 1044.724v5.244h-18.684v-21.367h8.18v16.123h10.503z"/><use xlink:href="#F"/></g><g transform="matrix(.416119 0 0 .416119 244.521 697.498)" class="C"><use xlink:href="#D"/><use xlink:href="#E"/><path d="M463.396 1044.724v5.244h-18.684v-21.367h8.18v16.123h10.503z"/><use xlink:href="#F"/></g><g transform="matrix(.416119 0 0 .416119 244.521 685.415)" class="C"><use xlink:href="#D"/><use xlink:href="#E"/><path d="M463.396 1044.724v5.244h-18.684v-21.367h8.18v16.123h10.503z"/><use xlink:href="#F"/></g></g><g transform="matrix(1.03258 0 0 1.01231 -85.0634 -991.123)" class="D E F"><g transform="matrix(.416119 0 0 .416119 244.521 612.918)" class="C"><use xlink:href="#D"/><use xlink:href="#E"/><path d="M463.396 1044.724v5.244h-18.684v-21.367h8.18v16.123h10.503z"/><use xlink:href="#F"/></g><g transform="matrix(.416119 0 0 .416119 244.521 625.001)" class="C"><use xlink:href="#D"/><use xlink:href="#E"/><path d="M463.396 1044.724v5.244h-18.684v-21.367h8.18v16.123h10.503z"/><use xlink:href="#F"/></g><g transform="matrix(.416119 0 0 .416119 244.521 637.084)" class="C"><use xlink:href="#D"/><use xlink:href="#E"/><path d="M463.396 1044.724v5.244h-18.684v-21.367h8.18v16.123h10.503z"/><use xlink:href="#F"/></g><g transform="matrix(.416119 0 0 .416119 244.521 649.167)" class="C"><use xlink:href="#D"/><use xlink:href="#E"/><path d="M463.396 1044.724v5.244h-18.684v-21.367h8.18v16.123h10.503z"/><use xlink:href="#F"/></g><g transform="matrix(.416119 0 0 .416119 244.521 661.249)" class="C"><use xlink:href="#D"/><use xlink:href="#E"/><path d="M463.396 1044.724v5.244h-18.684v-21.367h8.18v16.123h10.503z"/><use xlink:href="#F"/></g><g transform="matrix(.416119 0 0 .416119 244.521 673.332)" class="C"><use xlink:href="#D"/><use xlink:href="#E"/><path d="M463.396 1044.724v5.244h-18.684v-21.367h8.18v16.123h10.503z"/><use xlink:href="#F"/></g><g transform="matrix(.416119 0 0 .416119 244.521 697.498)" class="C"><use xlink:href="#D"/><use xlink:href="#E"/><path d="M463.396 1044.724v5.244h-18.684v-21.367h8.18v16.123h10.503z"/><use xlink:href="#F"/></g><g transform="matrix(.416119 0 0 .416119 244.521 685.415)" class="C"><use xlink:href="#D"/><use xlink:href="#E"/><path d="M463.396 1044.724v5.244h-18.684v-21.367h8.18v16.123h10.503z"/><use xlink:href="#F"/></g></g><g transform="matrix(1.03258 0 0 1.01231 -40.5146 -991.123)" class="D E F"><g transform="matrix(.416119 0 0 .416119 244.521 612.918)" class="C"><use xlink:href="#D"/><use xlink:href="#E"/><use xlink:href="#F"/></g><g transform="matrix(.416119 0 0 .416119 244.521 625.001)" class="C"><use xlink:href="#D"/><use xlink:href="#E"/><use xlink:href="#F"/></g><g transform="matrix(.416119 0 0 .416119 244.521 637.084)" class="C"><use xlink:href="#D"/><use xlink:href="#E"/><use xlink:href="#F"/></g><g transform="matrix(.416119 0 0 .416119 244.521 649.167)" class="C"><use xlink:href="#D"/><use xlink:href="#E"/><use xlink:href="#F"/></g><g transform="matrix(.416119 0 0 .416119 244.521 661.249)" class="C"><use xlink:href="#D"/><use xlink:href="#E"/><use xlink:href="#F"/></g><g transform="matrix(.416119 0 0 .416119 244.521 673.332)" class="C"><use xlink:href="#D"/><use xlink:href="#E"/><use xlink:href="#F"/></g><g transform="matrix(.416119 0 0 .416119 244.521 697.498)" class="C"><use xlink:href="#D"/><use xlink:href="#E"/><use xlink:href="#F"/></g><g transform="matrix(.416119 0 0 .416119 244.521 685.415)" class="C"><use xlink:href="#D"/><use xlink:href="#E"/><use xlink:href="#F"/></g></g><g transform="matrix(.412963 0 0 .404856 116.76 -326.673)" class="G"><path d="M605.802 1064.764l-3.879 24.692h-8.61l-3.64-24.692h16.129zm-1.6 27.284v9.959h-13.134v-9.959h13.134z"/><use xlink:href="#G"/><use xlink:href="#H"/><path d="M585.726 1092.866v9.14H553.16v-37.242h14.258v28.102h18.307z"/><use xlink:href="#I"/><g transform="matrix(.138133 .002111 -.002208 .110754 253.387 1063.96)"><path d="M596.177 263.169v80.297H343.219V7.256h252.958v77.587H444.452v48.769h122.661v74.631H444.452v54.926h151.725zm276.604-2.216v82.513H637.064V7.256h103.203v253.697h132.514zm271.679 0v82.513H908.743V7.256h103.207v253.697h132.51zM2.083 246.174l95.814-17.241c8.046 27.093 28.736 40.64 62.069 40.64 25.945 0 38.917-6.896 38.917-20.689 0-7.226-2.997-12.85-8.99-16.873s-16.709-7.59-32.147-10.702c-58.957-11.3-96.808-26.065-113.552-44.297s-25.115-39.667-25.115-64.306c0-31.699 12.028-58.061 36.084-79.086S113.825 2.083 158.981 2.083c68.474 0 113.712 27.505 135.716 82.513l-85.469 25.863c-8.867-22.496-26.848-33.744-53.941-33.744-22.496 0-33.745 6.978-33.745 20.936 0 6.239 2.546 11.084 7.636 14.532s14.944 6.727 29.561 9.837c40.238 8.508 68.815 16.034 85.732 22.579s31.036 17.746 42.357 33.602 16.982 34.547 16.982 56.073c0 34.014-13.793 61.578-41.38 82.692s-63.793 31.672-108.621 31.672c-81.939 0-132.514-34.155-151.726-102.464z"/></g><path d="M160.032 1093.111v8.895h-34.947v-37.242h34.947v8.594h-20.961v5.402h16.946v8.267h-16.946v6.084h20.961zm38.214-.245v9.14h-32.565v-37.242h14.258v28.102h18.307zm37.534 0v9.14h-32.565v-37.242h14.258v28.102h18.307zm-157.824-1.637l13.237-1.91c1.112 3.001 3.97 4.502 8.575 4.502 3.584 0 5.377-.764 5.377-2.292 0-.8-.414-1.423-1.242-1.869s-2.308-.841-4.441-1.185c-8.145-1.252-13.374-2.887-15.688-4.907s-3.47-4.394-3.47-7.123c0-3.511 1.662-6.431 4.985-8.76s8.104-3.493 14.343-3.493c9.46 0 15.71 3.047 18.75 9.14l-11.808 2.865c-1.225-2.492-3.709-3.738-7.452-3.738-3.108 0-4.662.773-4.662 2.319 0 .691.352 1.228 1.055 1.61s2.065.745 4.084 1.09c5.559.942 9.507 1.776 11.844 2.501s4.288 1.966 5.852 3.722 2.346 3.827 2.346 6.211c0 3.768-1.906 6.821-5.717 9.16s-8.813 3.508-15.006 3.508c-11.32 0-18.307-3.783-20.962-11.35z"/></g></g><use xlink:href="#C" fill="none" stroke="#e8cada" stroke-width="1.84" stroke-miterlimit="1.5"/></g><defs><linearGradient id="B" x1="0" y1="0" x2="1" y2="0" gradientUnits="userSpaceOnUse" gradientTransform="matrix(6.44747e-15,90.3621,-105.295,5.53308e-15,257.943,67.1328)"><stop offset="0" stop-color="#e4c2d8"/><stop offset="1" stop-color="#fefce6"/></linearGradient><path id="C" d="M400 75.792c0-4.779-4.521-8.659-10.09-8.659H125.976c-5.569 0-10.09 3.88-10.09 8.659v73.044c0 4.779 4.521 8.659 10.09 8.659H389.91c5.569 0 10.09-3.88 10.09-8.659V75.792z"/><path id="D" d="M419.938 1044.865v5.103h-20.05v-21.367h20.05v4.931h-12.026v3.099h9.722v4.743h-9.722v3.491h12.026z"/><path id="E" d="M441.862 1044.724v5.244h-18.684v-21.367h8.18v16.123h10.503z"/><path id="F" d="M372.848 1043.785l7.595-1.096c.638 1.722 2.278 2.583 4.92 2.583 2.056 0 3.085-.438 3.085-1.315 0-.459-.238-.817-.713-1.072s-1.324-.482-2.548-.68c-4.673-.718-7.673-1.657-9-2.815s-1.991-2.521-1.991-4.087c0-2.015.953-3.69 2.86-5.026s4.65-2.004 8.229-2.004c5.427 0 9.013 1.748 10.757 5.244l-6.775 1.644c-.703-1.43-2.128-2.145-4.276-2.145-1.783 0-2.675.443-2.675 1.331 0 .397.202.704.605.924s1.185.428 2.343.625c3.189.541 5.454 1.019 6.795 1.435s2.46 1.128 3.357 2.136 1.346 2.196 1.346 3.564c0 2.162-1.093 3.913-3.28 5.255s-5.056 2.013-8.61 2.013c-6.495 0-10.503-2.171-12.026-6.512z"/><path id="G" d="M509.978 1093.111v8.895h-34.947v-37.242h34.947v8.594h-20.961v5.402h16.946v8.267h-16.946v6.084h20.961z"/><path id="H" d="M548.192 1092.866v9.14h-32.565v-37.242h14.258v28.102h18.307z"/><path id="I" d="M427.902 1091.229l13.237-1.91c1.112 3.001 3.97 4.502 8.575 4.502 3.584 0 5.377-.764 5.377-2.292 0-.8-.414-1.423-1.242-1.869s-2.308-.841-4.441-1.185c-8.145-1.252-13.374-2.887-15.688-4.907s-3.47-4.394-3.47-7.123c0-3.511 1.662-6.431 4.985-8.76s8.104-3.493 14.343-3.493c9.46 0 15.71 3.047 18.75 9.14l-11.808 2.865c-1.225-2.492-3.709-3.738-7.452-3.738-3.108 0-4.662.773-4.662 2.319 0 .691.352 1.228 1.055 1.61s2.065.745 4.084 1.09c5.559.942 9.507 1.776 11.844 2.501s4.288 1.966 5.852 3.722 2.346 3.827 2.346 6.211c0 3.768-1.906 6.821-5.717 9.16s-8.813 3.508-15.006 3.508c-11.32 0-18.307-3.783-20.962-11.35z"/></defs></svg>