<svg xmlns="http://www.w3.org/2000/svg" xmlns:xlink="http://www.w3.org/1999/xlink" width="100%" height="100%" viewBox="0 0 285 106" fill-rule="evenodd" stroke-linejoin="round" stroke-miterlimit="2" xmlns:v="https://vecta.io/nano"><g transform="matrix(.999996 0 0 1.16526 -115.132352 -78.085347)"><use xlink:href="#C" fill="#e4f1fe"/><clipPath id="A"><use xlink:href="#C"/></clipPath><g clip-path="url(#A)"><g transform="matrix(1.03258 0 0 1.01231 7.75475 -993.389)"><path d="M99.511 1045.383h35.696v31.247H99.511z" fill="#00cec9"/><use xlink:href="#D" fill="#f5cd78"/><path d="M170.902 1045.383h35.696v31.247h-35.696z" fill="#ff7675"/><path d="M206.597 1045.383h35.696v31.247h-35.696z" fill="#00cec9"/><path d="M242.293 1045.383h35.696v31.247h-35.696z" fill="#e4f1fe"/><path d="M277.989 1045.383h35.696v31.247h-35.696z" fill="#ff7675"/><path d="M313.684 1045.383h35.696v31.247h-35.696z" fill="#00cec9"/><path d="M349.38 1045.383h35.696v31.247H349.38z" fill="#f5cd78"/><path d="M99.511 1076.63h35.696v31.247H99.511z" fill="#69c"/><g fill="#e4f1fe"><path d="M135.206 1076.63h35.696v31.247h-35.696z"/><path d="M170.902 1076.63h35.696v31.247h-35.696z"/><path d="M206.597 1076.63h35.696v31.247h-35.696z"/><path d="M242.293 1076.63h35.696v31.247h-35.696z"/><path d="M277.989 1076.63h35.696v31.247h-35.696z"/><path d="M313.684 1076.63h35.696v31.247h-35.696z"/><path d="M349.38 1076.63h35.696v31.247H349.38z"/></g><path d="M99.511 1107.877h35.696v31.247H99.511z" fill="#f5cd78"/><path d="M135.206 1107.877h35.696v31.247h-35.696z" fill="#e4f1fe"/><path d="M170.902 1107.877h35.696v31.247h-35.696z" fill="#a19bfe"/><path d="M206.597 1107.877h35.696v31.247h-35.696z" fill="#00cec9"/><path d="M242.293 1107.877h35.696v31.247h-35.696z" fill="#f5cd78"/><path d="M277.989 1107.877h35.696v31.247h-35.696z" fill="#a19bfe"/><path d="M313.684 1107.877h35.696v31.247h-35.696z" fill="#69c"/><path d="M349.38 1107.877h35.696v31.247H349.38z" fill="#ff7675"/><g fill-rule="nonzero"><path d="M176.01 1094.545c0-.475-.211-.835-.632-1.091-.422-.25-1.182-.518-2.279-.799s-1.965-.555-2.605-.829c-1.744-.744-2.616-1.749-2.616-3.011 0-.652.234-1.237.701-1.749.468-.518 1.139-.914 2.015-1.207.875-.286 1.858-.433 2.948-.433 1.097 0 2.074.158 2.932.469.858.317 1.524.762 1.999 1.329a2.98 2.98 0 0 1 .712 1.951h-3.164c0-.555-.222-.988-.665-1.292-.443-.311-1.065-.463-1.867-.463-.774 0-1.375.128-1.804.384-.429.262-.644.603-.644 1.024 0 .396.252.725.755.994.503.262 1.243.512 2.22.75 1.801.427 3.112.957 3.935 1.591s1.234 1.42 1.234 2.365c0 1.048-.503 1.871-1.508 2.469s-2.359.896-4.061.896c-1.182 0-2.258-.171-3.228-.512s-1.71-.811-2.22-1.402c-.51-.597-.765-1.286-.765-2.066h3.175c0 1.335 1.013 2.005 3.038 2.005.752 0 1.34-.116 1.762-.36s.632-.579.632-1.012zm8.091-4.852c.809-.768 1.825-1.152 3.049-1.152 2.476 0 3.731 1.14 3.766 3.414v5.773h-3.049v-5.712c0-.512-.141-.896-.422-1.14-.281-.25-.749-.372-1.402-.372-.893 0-1.54.268-1.941.817v6.407h-3.049v-12.801h3.049v4.767zm15.729 8.034c-.141-.219-.243-.488-.306-.811-.739.652-1.698.975-2.88.975-1.118 0-2.045-.256-2.78-.762-.735-.512-1.102-1.158-1.102-1.938 0-.951.448-1.689 1.345-2.201.896-.506 2.192-.768 3.887-.774h1.403v-.512c0-.421-.136-.756-.406-1-.271-.256-.698-.378-1.282-.378-.513 0-.916.098-1.207.293a.91.91 0 0 0-.438.799h-3.049c0-.524.204-1.006.612-1.451s.984-.792 1.73-1.042c.745-.256 1.582-.384 2.51-.384 1.407 0 2.523.28 3.35.841a2.67 2.67 0 0 1 1.24 2.353v3.907c.007.859.158 1.506.453 1.945v.14h-3.08zm-2.522-1.676a3.2 3.2 0 0 0 1.245-.238c.38-.158.661-.372.844-.634v-1.554h-1.139c-1.526 0-2.338.421-2.437 1.25l-.01.146c0 .299.134.543.401.738s.633.293 1.097.293zm13.904-5.084l-1.097-.067c-1.154 0-1.909.311-2.268.927v5.901h-3.049v-9.016h2.879l.085 1.073c.611-.829 1.459-1.244 2.542-1.244.338 0 .655.037.95.11l-.042 2.316zm6.538 6.925c-1.674 0-3.036-.402-4.088-1.213a3.89 3.89 0 0 1-1.577-3.243v-.232c0-.908.221-1.719.665-2.432s1.07-1.262 1.883-1.652c.812-.384 1.739-.579 2.779-.579 1.561 0 2.79.39 3.687 1.17.896.774 1.345 1.877 1.345 3.31v.981h-7.268c.098.591.396 1.061.891 1.414.496.36 1.123.536 1.883.536 1.174 0 2.092-.335 2.753-1.012l1.498 1.329c-.458.512-1.076.908-1.857 1.195s-1.646.427-2.595.427zm-.348-7.4c-.604 0-1.095.165-1.471.488-.376.317-.617.78-.723 1.378h4.241v-.189c-.014-.53-.197-.945-.549-1.237s-.851-.439-1.498-.439zm15.803-3.999v2.219h1.951v1.768h-1.951v4.499c0 .335.081.573.242.713.162.146.471.219.928.219.338 0 .636-.018.897-.061v1.829a8.06 8.06 0 0 1-1.846.213c-2.138 0-3.228-.853-3.27-2.554v-4.858h-1.667v-1.768h1.667v-2.219h3.049zm6.624 3.2c.808-.768 1.825-1.152 3.049-1.152 2.476 0 3.73 1.14 3.766 3.414v5.773h-3.049v-5.712c0-.512-.141-.896-.422-1.14-.281-.25-.749-.372-1.403-.372-.893 0-1.54.268-1.941.817v6.407h-3.049v-12.801h3.049v4.767zm12.332 8.034h-3.06v-9.016h3.06v9.016zm-3.239-11.35c0-.36.153-.658.459-.89.306-.238.723-.354 1.25-.354.52 0 .935.116 1.245.354.309.232.464.53.464.89 0 .366-.157.664-.469.902-.313.232-.726.347-1.24.347s-.927-.116-1.24-.347c-.313-.238-.469-.536-.469-.902zm11.931 8.857c0-.293-.185-.524-.554-.695s-.962-.323-1.778-.451c-2.714-.451-4.072-1.365-4.072-2.737 0-.799.42-1.469 1.26-2.005s1.939-.805 3.297-.805c1.448 0 2.607.274 3.476.811s1.303 1.237 1.303 2.097h-3.049a1.05 1.05 0 0 0-.422-.853c-.281-.226-.721-.335-1.318-.335-.513 0-.911.091-1.192.274s-.422.415-.422.701c0 .268.16.482.48.646s.86.305 1.62.427c.759.116 1.399.25 1.92.402 1.61.469 2.416 1.274 2.416 2.426 0 .823-.447 1.487-1.34 1.993-.893.512-2.047.762-3.46.762-.956 0-1.806-.134-2.547-.402s-1.324-.64-1.746-1.109-.633-.975-.633-1.518h2.89a1.18 1.18 0 0 0 .602.981c.373.226.872.341 1.498.341.584 0 1.025-.085 1.324-.262s.448-.402.448-.689zm20.581-1.932c0 1.39-.399 2.499-1.198 3.34-.798.835-1.875 1.25-3.233 1.25-1.153 0-2.085-.317-2.795-.951v4.255h-3.049v-12.484h2.827l.105.884c.739-.701 1.702-1.055 2.891-1.055 1.407 0 2.5.415 3.281 1.237s1.171 1.951 1.171 3.401v.122zm-3.049-.177c0-.835-.188-1.481-.565-1.938s-.923-.683-1.64-.683c-.957 0-1.614.286-1.973.866v3.688c.373.597 1.038.896 1.994.896 1.456 0 2.184-.945 2.184-2.828zm11.552 4.602a2.31 2.31 0 0 1-.306-.811c-.738.652-1.698.975-2.879.975-1.118 0-2.045-.256-2.78-.762-.735-.512-1.102-1.158-1.102-1.938 0-.951.448-1.689 1.345-2.201.897-.506 2.193-.768 3.888-.774h1.402v-.512c0-.421-.135-.756-.406-1-.271-.256-.698-.378-1.281-.378-.514 0-.916.098-1.208.293s-.438.457-.438.799h-3.048c0-.524.203-1.006.611-1.451s.985-.792 1.73-1.042c.745-.256 1.582-.384 2.51-.384 1.407 0 2.523.28 3.35.841a2.67 2.67 0 0 1 1.24 2.353v3.907c.007.859.158 1.506.453 1.945v.14h-3.08zm-2.522-1.676c.45 0 .865-.079 1.245-.238s.661-.372.843-.634v-1.554h-1.139c-1.526 0-2.338.421-2.437 1.25l-.01.146c0 .299.134.543.401.738s.632.293 1.097.293zm7.047-2.902c0-1.378.417-2.493 1.25-3.34.834-.841 1.957-1.268 3.37-1.268 1.252 0 2.226.341 2.922 1.018l.127-.847h2.764v8.717c0 .786-.227 1.475-.68 2.054-.453.585-1.092 1.03-1.914 1.335s-1.787.457-2.891.457a7.6 7.6 0 0 1-2.448-.396c-.795-.262-1.396-.603-1.804-1.018l1.35-1.469c.76.677 1.681 1.012 2.764 1.012.808 0 1.438-.171 1.889-.512s.675-.829.675-1.457v-.482c-.703.628-1.628.939-2.774.939-1.371 0-2.48-.421-3.328-1.268s-1.272-1.975-1.272-3.371v-.104zm3.049.177c0 .817.208 1.457.623 1.92s.985.695 1.709.695c.928 0 1.593-.274 1.994-.823v-3.792c-.408-.549-1.065-.823-1.973-.823-.731 0-1.306.232-1.724.707-.419.469-.628 1.176-.628 2.115zm14.979 4.566c-1.673 0-3.036-.402-4.088-1.213a3.89 3.89 0 0 1-1.577-3.243v-.232c0-.908.221-1.719.665-2.432s1.07-1.262 1.883-1.652c.812-.384 1.739-.579 2.779-.579 1.561 0 2.79.39 3.687 1.17.896.774 1.345 1.877 1.345 3.31v.981h-7.268c.098.591.396 1.061.891 1.414.496.36 1.123.536 1.883.536 1.174 0 2.092-.335 2.753-1.012l1.498 1.329c-.458.512-1.076.908-1.857 1.195s-1.646.427-2.595.427zm-.348-7.4c-.604 0-1.095.165-1.471.488-.376.317-.617.78-.723 1.378h4.241v-.189c-.014-.53-.197-.945-.549-1.237s-.851-.439-1.498-.439z" fill-opacity=".97"/></g></g></g></g><defs ><path id="C" d="M400 75.792c0-4.779-4.521-8.659-10.09-8.659H125.976c-5.569 0-10.09 3.88-10.09 8.659v73.044c0 4.779 4.521 8.659 10.09 8.659H389.91c5.569 0 10.09-3.88 10.09-8.659V75.792z"/><path id="D" d="M135.206 1045.383h35.696v31.247h-35.696z"/></defs></svg>