<svg xmlns="http://www.w3.org/2000/svg" xmlns:xlink="http://www.w3.org/1999/xlink" width="100%" height="100%" viewBox="0 0 287 108" fill-rule="evenodd" stroke-linecap="round" stroke-linejoin="round" stroke-miterlimit="1.5" xmlns:v="https://vecta.io/nano"><g transform="matrix(.999996 0 0 1.16526 -114.132352 -76.667005)"><use xlink:href="#C" fill="#ebecf2"/><clipPath id="A"><use xlink:href="#C"/></clipPath><g clip-path="url(#A)"><g transform="matrix(1.03258 0 0 1.32275 13.1324 -1331.32)"><path d="M224.863 1068.552c0-.269-.326-.487-.727-.487H100.421c-.401 0-.727.218-.727.487v.973c0 .269.326.487.727.487h123.715c.401 0 .727-.218.727-.487v-.973zm-23.326 14.513c0-.448-.542-.811-1.21-.811h-99.504c-.669 0-1.211.363-1.211.811v1.622c0 .448.542.811 1.211.811h99.504c.668 0 1.21-.363 1.21-.811v-1.622z" fill-opacity=".08"/><path d="M320.738 1098.552c0-.448-.542-.811-1.211-.811H100.905c-.668 0-1.211.363-1.211.811v1.622c0 .448.542.811 1.211.811h218.623c.668 0 1.211-.363 1.211-.811v-1.622zm30.807 16.463c0-.269-.326-.487-.726-.487H100.237c-.4 0-.726.218-.726.487v.973c0 .269.326.487.726.487h250.582c.4 0 .726-.218.726-.487v-.973z" fill-opacity=".22"/><path d="M369.889 1121.784c0-.448-.543-.811-1.211-.811h-195.38c-.668 0-1.211.363-1.211.811v1.622c0 .448.543.811 1.211.811h195.38c.668 0 1.211-.363 1.211-.811v-1.622zm4.78-15.488c0-.448-.542-.811-1.211-.811H162.583c-.668 0-1.211.363-1.211.811v1.622c0 .448.543.811 1.211.811h210.876c.669 0 1.211-.363 1.211-.811v-1.622zm-.345-15.487c0-.448-.543-.811-1.211-.811H114.784c-.669 0-1.211.363-1.211.811v1.622c0 .448.543.811 1.211.811h258.329c.669 0 1.211-.363 1.211-.811v-1.622z" fill-opacity=".08"/><path d="M374.963 1075.321c0-.448-.542-.811-1.211-.811H162.877c-.668 0-1.211.363-1.211.811v1.622c0 .448.543.811 1.211.811h210.876c.669 0 1.211-.363 1.211-.811v-1.622zm-1.295-14.513c0-.269-.325-.487-.727-.487H161.097c-.401 0-.727.218-.727.487v.973c0 .269.326.487.727.487h211.844c.402 0 .727-.218.727-.487v-.973z" fill-opacity=".22"/></g><path d="M204.697 99.073h106.492v26.482H204.697z" fill="#fff"/><g fill-rule="nonzero"><path d="M238.66 114.67a1.22 1.22 0 0 0-.583-1.088c-.389-.256-1.089-.521-2.1-.8s-1.812-.558-2.402-.832c-1.608-.745-2.412-1.751-2.412-3.013 0-.654.216-1.239.647-1.756s1.05-.915 1.857-1.207 1.713-.43 2.718-.43c1.011 0 1.912.155 2.703.471s1.405.755 1.843 1.331a3.12 3.12 0 0 1 .656 1.953h-2.917c0-.558-.205-.992-.613-1.299s-.982-.462-1.721-.462c-.713 0-1.268.128-1.663.389s-.593.599-.593 1.02c0 .393.232.727.695.992s1.146.517 2.047.75c1.66.43 2.869.96 3.627 1.596s1.138 1.422 1.138 2.369c0 1.052-.464 1.879-1.39 2.474s-2.175.901-3.744.901c-1.089 0-2.081-.174-2.975-.517s-1.577-.809-2.047-1.404-.705-1.285-.705-2.071h2.927c0 1.34.934 2.012 2.801 2.012.694 0 1.235-.119 1.624-.361s.583-.581.583-1.015zm14.187-1.244c0 1.39-.368 2.506-1.104 3.343s-1.729 1.258-2.98 1.258c-1.063 0-1.922-.32-2.577-.951v4.253h-2.81v-12.497h2.606l.097.883c.681-.7 1.569-1.052 2.664-1.052 1.297 0 2.305.412 3.024 1.235s1.079 1.957 1.079 3.407v.123zm-2.81-.174c0-.841-.173-1.491-.52-1.948s-.851-.681-1.512-.681c-.881 0-1.488.288-1.818.869v3.695c.344.594.956.892 1.838.892 1.342 0 2.013-.942 2.013-2.826zm9.394 4.774c-1.543 0-2.799-.407-3.768-1.221s-1.454-1.893-1.454-3.247v-.233c0-.905.204-1.715.613-2.433a4.13 4.13 0 0 1 1.735-1.651c.749-.389 1.603-.581 2.562-.581 1.439 0 2.572.389 3.398 1.166s1.24 1.884 1.24 3.315v.983h-6.7c.091.59.365 1.065.822 1.418s1.036.535 1.736.535c1.082 0 1.928-.334 2.538-1.011l1.381 1.331c-.421.512-.992.91-1.711 1.193s-1.517.434-2.392.434zm-.321-7.412c-.558 0-1.01.16-1.357.485s-.569.782-.666 1.386h3.909v-.192c-.013-.535-.182-.947-.506-1.239s-.784-.439-1.381-.439zm11.085 7.412c-1.543 0-2.798-.407-3.768-1.221s-1.454-1.893-1.454-3.247v-.233c0-.905.204-1.715.612-2.433a4.1 4.1 0 0 1 1.736-1.651c.749-.384 1.603-.581 2.562-.581 1.439 0 2.572.389 3.398 1.166s1.24 1.884 1.24 3.315v.983h-6.699a2.13 2.13 0 0 0 .822 1.418c.457.357 1.035.535 1.735.535 1.083 0 1.929-.334 2.538-1.011l1.381 1.331c-.421.512-.992.91-1.711 1.193s-1.517.434-2.392.434zm-.321-7.412c-.557 0-1.01.16-1.356.485s-.569.782-.667 1.386h3.909v-.192c-.013-.535-.182-.947-.506-1.239s-.785-.439-1.381-.439zm5.805 2.661c0-1.408.368-2.529 1.104-3.361s1.742-1.253 3.019-1.253c1.025 0 1.87.329 2.538.983v-4.605h2.82v12.817h-2.537l-.136-.96c-.7.75-1.601 1.129-2.703 1.129-1.238 0-2.232-.421-2.98-1.258s-1.123-2.003-1.123-3.494zm2.81.178c0 .841.172 1.491.515 1.943s.843.677 1.497.677c.869 0 1.481-.316 1.838-.947v-3.562c-.35-.626-.956-.942-1.818-.942-1.355 0-2.032.942-2.032 2.831z"/></g></g><use xlink:href="#C" fill="none" stroke="#000" stroke-width="1.84"/></g><defs ><path id="C" d="M400 75.792c0-4.779-4.521-8.659-10.09-8.659H125.976c-5.569 0-10.09 3.88-10.09 8.659v73.044c0 4.779 4.521 8.659 10.09 8.659H389.91c5.569 0 10.09-3.88 10.09-8.659V75.792z"/></defs></svg>