<svg xmlns="http://www.w3.org/2000/svg" xmlns:xlink="http://www.w3.org/1999/xlink" width="100%" height="100%" viewBox="0 0 285 106" fill-rule="evenodd" stroke-linejoin="round" stroke-miterlimit="2" xmlns:v="https://vecta.io/nano"><style><![CDATA[.B{fill:#fff}.C{fill-rule:nonzero}.D{fill-opacity:.68}]]></style><g transform="matrix(.999996 0 0 1.16526 -115.283792 -77.59025)"><use xlink:href="#C" fill="url(#B)"/><clipPath id="A"><use xlink:href="#C"/></clipPath><g clip-path="url(#A)" class="B C"><path d="M206.205 103.34c0-.787-.248-1.39-.744-1.809s-1.393-.827-2.688-1.224-2.286-.814-2.972-1.251-1.199-.935-1.54-1.495-.511-1.2-.511-1.922c0-1.249.486-2.278 1.457-3.086s2.244-1.213 3.818-1.213c1.077 0 2.036.208 2.878.623s1.489.991 1.944 1.727.681 1.545.681 2.426h-2.322c0-.975-.273-1.729-.82-2.264s-1.334-.801-2.36-.801c-.934 0-1.657.224-2.171.671s-.77 1.076-.77 1.885c0 .664.277 1.22.833 1.668s1.413.848 2.575 1.202c1.809.513 3.102 1.145 3.88 1.895s1.167 1.733 1.167 2.946c0 1.278-.483 2.302-1.451 3.071s-2.284 1.153-3.95 1.153c-1.068 0-2.055-.201-2.959-.601s-1.615-.964-2.133-1.69-.776-1.557-.776-2.496h2.322c0 .975.318 1.733.953 2.274s1.5.812 2.593.812c1.018 0 1.784-.224 2.297-.671s.77-1.058.77-1.831zm7.674-2.187v6.173h-2.309v-15.77h5.856c1.708 0 3.05.439 4.026 1.316s1.464 2.045 1.464 3.504c0 1.516-.465 2.684-1.395 3.504s-2.24 1.244-3.931 1.273h-3.71zm0-1.701h3.546c1.027 0 1.813-.263 2.36-.79s.821-1.282.821-2.264c0-.946-.282-1.704-.846-2.275s-1.337-.855-2.322-.855h-3.559v6.184zm20.823.585h-6.499v5.589h7.572v1.701h-9.882v-15.77h9.756v1.711h-7.446v5.069h6.499v1.7zm16.028 7.289h-2.322l-7.358-12.152v12.152h-2.322v-15.77h2.322l7.383 12.206V91.557h2.297v15.77zm4.001 0v-15.77h4.379c2.146 0 3.811.576 4.998 1.728s1.779 2.771 1.779 4.857v2.643c0 2.087-.602 3.699-1.805 4.836s-2.949 1.706-5.238 1.706h-4.114zm2.31-14.058v12.358h1.855c1.624 0 2.81-.399 3.559-1.197s1.131-1.98 1.148-3.547v-2.795c0-1.66-.372-2.879-1.117-3.655s-1.87-1.164-3.376-1.164h-2.069zm18.362 14.058v-15.77h5.238c1.674 0 2.934.35 3.78 1.05s1.268 1.751 1.268 3.152c0 .736-.214 1.386-.644 1.949s-1.009 1-1.741 1.311a3.47 3.47 0 0 1 2 1.332c.492.672.738 1.48.738 2.426 0 1.415-.452 2.527-1.357 3.336s-2.194 1.213-3.868 1.213h-5.414zm2.31-7.376v5.675h3.155c.875 0 1.569-.247 2.082-.742s.77-1.189.77-2.085c0-1.899-.934-2.848-2.802-2.848h-3.205zm0-1.668h2.965c.8 0 1.445-.231 1.938-.693s.738-1.076.738-1.841c0-.867-.223-1.497-.669-1.89s-1.128-.59-2.044-.59h-2.928v5.014zm11.888-6.725h2.31v15.769h-2.31zm8.683 14.068h7.206v1.701h-9.528v-15.77h2.322v14.069zm12.279 0h7.206v1.701h-9.528v-15.77h2.322v14.069zm-117.754 25.486l-.404.433c-1.161 1.163-2.861 1.744-5.099 1.744-1.985 0-3.544-.565-4.676-1.695s-1.71-2.728-1.735-4.793v-3.098c0-2.209.515-3.865 1.546-4.966s2.572-1.652 4.625-1.652c1.75 0 3.119.419 4.108 1.256s1.534 2.033 1.634 3.585h-2.31c-.092-.982-.41-1.749-.953-2.302s-1.365-.828-2.467-.828c-1.321 0-2.288.37-2.903 1.11s-.934 1.922-.959 3.547v3.216c0 1.588.354 2.807 1.06 3.655s1.721 1.273 3.042 1.273c1.245 0 2.192-.26 2.84-.78l.341-.271v-3.639h-3.357v-1.69h5.666v5.892zm12.343-2.155h-6.209l-1.426 4.115h-2.372l5.919-15.769h1.982l5.931 15.769h-2.372l-1.451-4.115zm-5.604-1.711h5.01l-2.511-7.17-2.499 7.17zm21.039-8.232h-4.834v14.058h-2.31v-14.058h-4.821v-1.711h11.964v1.711zm11.522 6.769h-6.499v5.589h7.572v1.7H223.3v-15.769h9.756v1.711h-7.446v5.069h6.499v1.7zm12.053 3.304c0-.787-.249-1.39-.745-1.809s-1.392-.827-2.688-1.224-2.286-.814-2.972-1.251-1.199-.935-1.54-1.495-.511-1.2-.511-1.922c0-1.249.486-2.278 1.458-3.087s2.244-1.213 3.817-1.213c1.077 0 2.036.208 2.878.623s1.489.991 1.944 1.728.681 1.545.681 2.426h-2.322c0-.975-.274-1.729-.82-2.264s-1.334-.801-2.36-.801c-.934 0-1.657.224-2.171.671s-.77 1.076-.77 1.884c0 .665.277 1.22.833 1.668s1.414.848 2.575 1.202c1.809.513 3.103 1.145 3.881 1.895s1.167 1.733 1.167 2.946c0 1.278-.484 2.301-1.451 3.07s-2.285 1.154-3.95 1.154c-1.069 0-2.055-.201-2.959-.601s-1.615-.963-2.133-1.689-.776-1.558-.776-2.496h2.322c0 .975.318 1.733.953 2.274s1.5.812 2.594.812c1.018 0 1.783-.224 2.297-.672s.77-1.058.77-1.83zm6.575-11.448l-.265 3.985h-1.628l.013-5.187h1.88v1.202zm12.191-.336l4.796 12.867 4.796-12.867h2.978v15.769h-2.31v-6.141l.215-6.152-4.809 12.293h-1.767l-4.783-12.249.215 6.108v6.141h-2.31v-15.769h2.978zm28.497 9.271c0 2.151-.535 3.809-1.603 4.971s-2.587 1.744-4.556 1.744c-1.893 0-3.389-.565-4.487-1.695s-1.668-2.728-1.71-4.793v-2.968c0-2.108.543-3.76 1.628-4.955s2.6-1.792 4.543-1.792c1.935 0 3.443.572 4.525 1.717s1.634 2.778 1.66 4.901v2.87zm-2.31-2.762c0-1.668-.318-2.908-.953-3.72s-1.609-1.218-2.922-1.218c-1.27 0-2.232.412-2.884 1.234s-.982 2.036-.991 3.639v2.827c0 1.61.326 2.838.978 3.682s1.626 1.267 2.922 1.267 2.255-.39 2.877-1.17.947-1.975.972-3.585v-2.957zm17.884 9.26h-2.322l-7.358-12.152v12.152h-2.322v-15.769h2.322l7.383 12.206v-12.206h2.297v15.769zm12.809-7.289h-6.499v5.589h7.572v1.7h-9.882v-15.769h9.756v1.711h-7.446v5.069h6.499v1.7zm8.809-.563l3.761-7.917h2.612l-5.225 9.888v5.881h-2.309v-5.881l-5.225-9.888h2.625l3.761 7.917z"/><g transform="matrix(.063319 .01323 -.015416 .054339 125.561 123.278)"><use xlink:href="#D" fill-opacity=".49"/></g><g transform="matrix(.031715 -.009451 .011013 .027217 170.836 142.087)"><use xlink:href="#D" fill-opacity=".32"/></g><g transform="matrix(.029075 .014406 -.016786 .024952 258.537 136.436)"><use xlink:href="#D" fill-opacity=".26"/></g><g transform="matrix(.042058 .00511 -.005955 .036094 214.023 144.068)"><use xlink:href="#D" fill-opacity=".46"/></g><g transform="matrix(.031418 -.026962 .031418 .026962 289.625 153.945)"><use xlink:href="#D" fill-opacity=".47"/></g><g transform="matrix(.263931 .051009 -.059438 .2265 339.894 102.867)" class="D"><path d="M145.3 80.3c.2.9-.4 1.7-.3 2.8l2.6-.9c-.6 1-.6 1-2 1.5-.4.1-.9.2-.8.8.1.7.7.4 1 .2 7.6-3 15.4-2.3 23.2-1.5 1.9.2 3.7.6 5.4 1.5 1 .5 1.8 1.2 2.1 2.3.4 2 2 1.2 3.1 1.3 1.3.1 1.1-1 1.2-1.8 0-.4 0-.8.2-1.3.2 1.2 1.5 1.5 1.9 2.6.4 1 1.7.8 2.6.8s.5-.9.5-1.4c-.2-2-.8-3.9-1.7-5.7-.2-.4-.4-.7-.8-1.5 1.1.9 1.4 1.9 2.2 3-.5-3.3-2.2-5.7-3.5-8.2 1.4 1.2 2.3 2.9 3.3 4.3-.6-2.2-1.5-4.3-3.2-5.6-3.7-3-4.8-7.1-5.6-11.4-.6-3.8-.7-7.7-1.4-11.5 1.3 2.6 1.7 5.3 2.1 8.1.8 5 2.5 9.6 5.8 13.5.5.6.9.6 1.4.2 0 .3 0 .5-.1.8-.1.8.3 1.5.9 2 .1.1.4-.1.5-.3.4-.9 0-1.5-.6-2.2-.2-.2-.5-.3-.7-.2.2-1.3-.9-2-1.5-3-.3-.6-.7-1.2-.9-1.8 1.5 1.5 3 3 4.4 4.6 2 2.3 2.6 5.1 2.6 8.1s.2 3.1 1.4 4.4c.1-1-.7-1.9-.4-2.9.8 2.1 1.6 4.1 3.9 5.6-2.1-2.4-3.4-4.7-3.2-7.7.5 2.3 1.6 4.3 3.3 6 1.4 1.4 2.8 1.6 4.6.8 2.4-1 4.1-2.7 5.5-4.8-1.3 2.7-2.4 5.7-5.9 6.3.7 1.1 1.8.4 2.6 1.3-1.8.1-3.6-1.3-5.4.7 1.9-1.3 3.2.5 4.7.2s2.7-1.4 3.8-2.5c-1.1 2.7-3.2 4.3-5.9 4.9-1.6.3-2 .8-2 2.4.2 3.8.5 7.5-.5 11.3-.3 1.4 0 2.9 0 4.4 0 1.1 1.2.5 1.6 1.2-.7.5-2.2-.2-2.1 1.5.1 1 0 1.8.5 2.7.5.7.4 1.7.8 2.5s-.4 1.4-1.2 1.5c-1 .1-1.4.6-1.6 1.5-.7 2.4-2 4.3-3.7 6.2-1.1 1.1-1.8 2.7-2.6 4-.6 1.1-1.4 1.9-2.4 2.6-.9.5-1.2 1.3-1.5 2.2-.2.6-.1 1 .6 1.3 2.9 1 4.4 3.4 5 6 1.1 4.3 3.1 8.1 5.1 12 2.5 4.9 4.2 10 4.6 15.6.1.9.5 1.3 1.2 1.7l49.8 22.3c10 4.6 18 11.7 24.9 20.1 5.3 6.5 9.3 13.6 11 21.9.3 1.5.4 3.1.7 4.6.1.8 0 1.5-1 1.3-.8-.1-2 .7-2.2-1-.4-5.3-1.8-10.4-4.4-15.1-1.9-3.5-4.3-6.7-6.8-9.8-5.2-6.6-11.5-11.7-18.3-16.3-5.5-3.6-11.7-5.8-17.6-8.5l-35-15.7c-2.1-.9-3.3-.5-3.4 1.8-.2 3.5-1.9 6.2-3.9 8.7-3.3 4.2-5.2 9-7.8 13.6-.4.7-.8 1.4-1.1 2.1-.2.4-.5.9.1 1.3.5.3.8 0 1.1-.4l3.9-4.9c.9-1.1 1.9-2.1 2.9-3.1-2.2 4.3-4.1 8.8-8.2 11.7-2.8 2-4.9 4.6-6.5 7.7-2.5 5-5.2 10-8.4 14.6-2.7 3.9-5.4 7.8-7.7 12-.4.8-1.1 1.5-1.7 2.1-1.5 1.4-3.2 1.2-4-.7-3.2-7.6-7.3-15-6.2-23.7v-1c0-.1-.1-.2-.1-.2-3.8 9.7-6 20-10.6 29.4 3.6-13.1 8-26 11.1-39.6-2.2.5-3.5 1.2-4.2 3.2-2 5.5-3.4 11.2-5.2 16.7a54.86 54.86 0 0 1-2.1 5.1c2.5-7.6 4.2-15.5 6.8-23.4-4.7 1.5-9.3 2.9-14 1.3 2-.3 4.1-.1 6.1-.6 3.8-1 7.5-2.3 11.2-3.8.6-.3 1-.6.8-1.4-.3-2.1-.8-4.3-1.6-6.2-.2-.4-.3-1-.9-.7-1.4.8-2.9-.7-4.3.4.5-1.1 1.5-1.5 2.3-2.1.3-.2.7-.5.5-.9s-.7-.4-1-.2c-3.6 1.6-7.4 2.9-10.7 5-2.5 1.6-2.9 4.8-3.5 7.6-.6 3.1-.4 6.4-1.1 9.5-1.2 5.5-3.4 10.6-5.5 15.7-.5 1.2-1 2.4-1.8 3.5l1.5-5.1c1.8-6.1 3.8-12.2 4.6-18.5.1-.5.5-1.2-.2-1.4-.6-.2-1.1.4-1.4.9-1.2 1.7-1.8 3.7-2.4 5.6l-8.1 29c-.2.5-.3.9-.9.9-1 0-2-.1-2.7-.8-.6-.5.3-.8.5-1.2.9-2 1.3-4.1 1.8-6.2l6.3-22.3c.8-2.5.6-4.5-1.5-6.1-.1-.1-.1-.3-.2-.7 1.5.2 2 1.5 3.4 2.3-.9-3-3.9-3.4-5.5-5.3 2.1 1 4.5 1.4 6.6 2.4.3-.5 0-.8-.2-1.1l-5.9-10.8c-.5-1-1.1-1.7-2.4-1.9-2-.3-3.8-1.1-5.7-1.9.6 1.1 1.1 2.2 2.6 2.5 3 .6 4.7 3.2 4.1 6.3-.1.3-.1.3.7.6-.1 0-.1.1-.2.1-2.8 1-2.7 1-2.4 3.9.5 3.5 1.5 6.9 2.4 10.2.2.6.5 1.2.3 2.1-1.5-3.6-2.9-7-3.7-10.7-.6-2.7-1-5.4-3.3-7.4-.6-.5-.8-1.3-.9-2.1-.1-2-1.2-3.7-2.1-5.4-.3-.5-1-1.3-1.1-1.2-.5 1-1.5 0-2.2.8-2.5 2.7-2.8 5.8-2.3 9.1.6 4.2 2.1 8.1 4.1 11.9.3.5.4 1.1.7 1.6.1.3.1.9.7.6.3-.1.6-.5.6-.9s-.1-.8-.2-1.3c-1.3-5-1.9-10.1-2-15.2.5 2.3.9 4.7 1.4 7 .8 3.7 2 7.4 3.2 11 1.3 4 2 8 1.1 12.2-.6 2.6-.6 5.3-1.8 7.8-.7 1.6-1.8 2.7-3.5 3.3-.3.1-.7.1-.6-.2.3-.9-.6-1.8-.1-2.4 1.1-1.4.8-2.8.6-4.3-.1-1 .5-2.3-1.3-2.6-.5-.1-.5-1-.5-1.6-.1-1.4-.1-2.7-.1-4.1 0-.4-.1-.8.3-1 1.4-.6.9-1.6.6-2.6-.7-1.9-1.5-3.7-2.3-5.5-.5 0-.5.4-.5.7-.1.5-.4.9-.9 1-.6 0-.8-.5-.9-1-.1-.7-.6-1-1.1-1.2-4.2-1.7-7.5-4.2-8.7-8.9-.3-1-1.2-1.6-1.2-2.7.8 1.2 2.7 1.4 2.7 3.4 0 .5.6.9 1.1 1 .7.2.5-.6.9-.9 2 3.3 5.4 4.9 8.5 7.1-5-9.7-4.6-20.1-3.5-30.6-4.6 1.7-9 3.3-11.9 7.4-3 4.2-7.4 6-12.4 6.3-2.2.2-4.4.4-6.7-.1 1.9-.3 3.9-.5 5.8-.8 4.8-.7 9-2.8 12.2-6.4 3.2-3.7 7.3-6.1 11.8-7.6 1-.3 1.5-.9 1.6-1.9.1-1.3.4-2.6.6-4.1-1.8.3-3.4 1-5 1.6-19.1 8.1-37.5 17.3-55.3 27.9-4.7 2.8-8.1 6.6-10.6 11.3-4.3 7.9-7 16.4-9 25.1-.4 1.6-1 1.5-2.3 1.3-1.6-.3-1-1.2-.9-2 1.9-8.3 4.5-16.3 8.3-24 3.1-6.3 7.5-11.4 13.7-14.9 18-10.3 36.2-19.9 55.4-27.8 1.8-.7 3.5-1.4 5.4-1.7.9-.2 1.2-.6 1.4-1.5 1.2-4.9 2.8-9.7 4.9-14.4.3-.7.2-1.3-.1-2-.9-1.9-2-3.6-3.5-5.2-4.8-5.4-8.7-11.3-10.2-18.5-.3-1.4-.3-2.7-2.3-3.1-1.2-.2-1.9-1.5-2.5-2.6-2.2-4.5-2.6-9.4-3.6-14.2a54.75 54.75 0 0 0-1.5-5.8c-.7-2.2-.8-4.5 0-6.7.6-1.7.5-3.4.1-5.1a21.98 21.98 0 0 1-.6-3.7c0-1.6.6-2.6 2.5-3-1.7 2.2-1.1 4.4-.7 6.6.3 1.9.3 3.8 0 5.6-.4 2.8-.3 5.5.7 8.1 1.5 4.1 2.3 8.4 2.7 12.8.2 2.4 1.4 4.4 3 6.1.3.3.6.7 1.1.5.4-.2.2-.7.2-1 0-2-.1-4-.1-6 0-.5.2-1.1-.2-1.6-.9-1.1.7-1 .8-1.8-5.6-3.4-4.8-8.6-3.6-14.1.7.5.4 1.1.3 1.6-.2 1.7-.3 3.4-.1 5.2.1.9.5.9 1.1.3.3.5-.1.6-.3.8-.4.4-.3.9.1 1.1.4.3.6-.3.8-.5.5-.7.9-1.5 1.3-2.2.3-.6.5-1.4.2-1.9-1.6-2.5-1.7-5.4-2.6-8 0-.1-.1-.3-.1-.3-2.5-1.1-2-4.7-4.7-5.7 1.2-.1 1.9.9 2.9 1.4-.5-1.8.9-3.6-.3-5.3-.2-.3.3-.5.3-.8.1-.5.1-.9-.6-.6-.3.1-.8.4-.8 0 .2-2-1.2-1.1-2.1-1.2-.6-.1-1.3 0-1.9-.3l.1-.1c.8-.2 2 .4 2.4-.5.3-.7-.8-1.2-1.2-1.8-.6-.8-.8-1.8-.9-2.7-.1-1-.4-1.7-1.5-1.9-1.6-.3-2.5-1.5-2.8-3-.5-2.1-.6-4.2-1.6-6.2-.2-.4-.3-1 .1-1.4.2-.2.5-.5.2-.6-1-.6-.4-1.6-.7-2.6 1.7 1.7 3.6 2.2 5.7 2.1.5 0 1.3.1 1.3-.6 0-.8-.7-.4-1.1-.4-1.5-.2-2.8-.6-3.9-1.7-.9-.9-1.3-1.8 0-2.7-.1.8.3 1.2 1.2 1.4 1.4.4 2.8.1 4.5.3-1.7.9-3.2.2-4.6.4 1.1.6 2.3 1 3.4 1.4 1.9.8 2 1.2 1.2 3.2-.5 1.1-.9 2.3-1.3 3.5.2.1.4.2.5.2.8-2 1.6-4 3-5.7-.5 1.8-1.6 3.5-1.7 5.5 1.3-2.8 3.2-5.2 4.9-7.9-.9 0-1.4.8-2.3.5.6-.5 1.5-.7 1.9-1.4-.6-.1-1 .4-1.5.5s-1 .5-1.8.1c2.3-.6 3.9-2 5.4-4-2.1 1.1-3.5 2.9-5.8 2.5 3-.5 4.9-2.5 6.6-4.8-2.4 1.4-4.7 2.9-7.7 2.4h.1c.2-.4.6-.4 1-.4 2.9-.2 5.1-1.9 7.2-3.8-1.7.6-3.4 1.3-5.2 1.3-.5 0-1.2.3-1.5-.5 3.9.3 6.9-1.5 9.7-4-1.2 0-2.2.6-3.2 1-2.1.9-4.3 1.6-6.6.5-.7-.3-1 .2-1.7.4.6-.9-.3-2.2 1.1-2.8.2.8 0 1.9 1.4 2 .9 0 1.8.1 2.7-.2 1.6-.6 3.1-1.5 4.5-2.5 2-1.5 4.4-2 6.8-2.3.6-.1.9.7 1.5.7 2.1-.2 3.5 1 4.7 2.5.5.7 1.6.2 2.4.6-1.2.1-2.4.9-3.5.3-2.8-1.4-5.1 0-7.4 1.3-1 .6-1.7 1.4-2.3 2.5 1.3-.9 2.9-1.5 4.4-2.2-3.5 2.8-7.1 5.5-8.5 9.7l2.1-2.1a1.38 1.38 0 0 0 .4.3c-1.5 2-3 3.9-4.6 5.9l.2.2c.5-.5 1-.9 1.5-1.4.1 0 .1.1.2.1-.9 1.3-1.9 2.6-2.8 3.9l.2.2 5-5.4c-.7 2.1-2.4 3.5-3.4 5.5.8 0 .9-.9 1.6-.9-.4 1.5-1.9 2.3-2.2 3.8l2.1-2.4c.1 3.1-2.8 5.1-2.4 8.1.6-.3.6-.9.9-1.4.8 1.1-.4 1.6-.7 2.5.8 0 1-.9 1.8-1.1-.7 2.4-1.7 4.6-.8 7.1 1.6-.9 1.5-2.4 1.4-3.9 0-.5 0-1-.1-1.5-.2-1 0-1.3 1.1-1.3 1.9.1 3.8 0 5.7 0 .7 0 1.2 0 1.8-.6 2.2-2.4 5.3-3.6 7.6-5.9.1-.1.4-.2.6-.3.3.5-.4.9-.2 1.5 3.1-1.2 6.4-.8 9.6-1.2 1.6-.2 3 .1 4.1 1.4.1.1.9 1 .6-.3-.2-.6.6-.6.9-.5 1.2.4 2.2 1.1 2.8 2.5-1.6-.5-3.1.2-4.5-.3-.1 0-.5.3-.6.5-.1.3.3.5.5.5 1.8.4 3.7.9 5.4 1.7 1 .5 1.1-1.2 2.2-1.1 0 .8-1.3.9-1 1.7.5.3.5-.7 1-.4.3.7-.9 1.1-.6 1.3 1.1.5 1.2 1.7 2 2.4.4.3.6 0 .8-.5.1-.5.3-1 1-1.3 0 .9-.4 1.9.4 2.4s1.8.3 2.7.1c2-.4 4-.8 6.4-.5l-2.4.3c1.2.7 2.2.5 3.2.3.5-.1.4-.4.4-.8.3-1.2.7-3.2 1.9-4.9zM109 169.5c0 .1-.1.2-.1.3-1.4 5.2-1.9 10.4-.3 15.7 0 .1 0 .4-.1.4-1.2.8.2.9.4 1.3-.2.5-1 .3-1.1 1 1.9.1 1.2 2.8 3.2 3-1-3.7-2.1-7.3-1-11.3.4 1 .2 1.6.2 2.2 0 .3-.2.9.4.9.4 0 .7-.4.7-.7.1-.3.1-.6 0-1-.3-2.5-.4-5-.9-7.4-.3-1.6-.1-3.4-1.2-4.9.6-1.9-.6-3.5-1-5.3-3.9 9.4-5.9 19-6.4 29.2 2.1-1.4 4.5-2.2 3.9-5.5-.2-1.4.3-3 .2-4.6-.1-4.7.3-9.3 3.1-13.3zm66.3-78.3c-.4-.4-.7-.8-1.1-1.2-2.5-2.8-5-5.7-9.2-6.1-1.9-.2-3.8-.3-5.7-.1-3.6.3-7 1.1-9.6 4-1.8 2-1.6 4.6.5 6.4 1 .9 2 1.5 3.5 1.8-2.6 1.6-3.6-.9-5.3-1.5-.1 3.4.5 4 3.9 4.4 4.9.6 9.9.8 14.9.6 1.7-.1 3.4 0 5-.5.4-.1.8-.2.8-.7.1-.5-.4-.6-.7-.8-.6-.3-1.2-.6-2.1-1 1.1-.2 1.9-.1 2.6.2.8.3 1.1-.1 1.4-.6.3-.6.8-1.2.5-1.8-.4-.6-1.2-.4-1.8-.2-.8.3-1.6.8-2.7.9.7-.8 1.9-.5 2.3-1.5.3-.8.7-.8 1.4-.6.4.2 1 .5 1.2-.3.1-.6-.5-.9-.9-.9-1.8.2-2.7-1-3.8-2.1-.5-.5-.9-1.1-1.8-1-1.2.1-2.4.7-3.6.8-.9.1-1.6-.4-2.7.2-2.2 1-4.6.6-6.7-.9 1-.1 1.9.5 3 .2-.8-.6-.3-2.1-1.6-2-.9.1-1.5.8-1.3 1.9-.5.1-1.1-.2-1.6.1-1.5.9-3.1.5-4.8.6.7-1 1.5-1.4 2.4-1.6 1.1-.4 2.2-.8 3.2-1.3 2.8-1.6 5.7-2.2 8.9-2 1.6.1 2.9.5 4 1.6 1.8 2 4 3.4 6.2 4.9.4.4.8.5 1.3.1l.3-3c0-1.8-1-2.8-2.7-2.9-.4 2 1.1 3.3 2 4.9.1.3.2.6.4 1zm-46.1 3.7c-.3.5-.5 1-1.2.7-.4-.1-.5 0-.6.4-.8 2.5-3.8 3.8-6.2 2.8.8-.5 2 .2 2.8-.7-.9.1-1.6.1-2.4.2-5.9.5-11.7-.2-17.4-1.9-1.7-.5-3.3-1.5-5 0 .5-.8 1.9-.8 1.6-1.7-.2-.8-1.2.1-1.9-.1.1-.7 1-.2 1.2-.8-.9-.8-2.1-.6-3.1-1.3.3-.3.6-.2.8-.1 1.3.3 2.1.2 1.6-1.5v-.5c-.2-1.6.8-3.8-.4-4.8s-3.3-.2-5-.3c-1-.1-1.5.3-1.4 1.4.3 1.6-.2 2.9-1.2 4.2-.9 1.1-.9 2.4-.7 3.7.7 4.8 2 9.6 2.2 14.5 0 .5 0 1 .7 1 .8.1.7-.6.8-1 .3-1.3.8-2.5 1.7-3.6-.5 1.3-.9 2.6-1 4 0 .3-.2.8-.4.8-1.5.2-.9 1.3-.9 2.1 0 .5.1 1.1-.1 1.6-.6 1.8-.5 3.5.4 5.3.5 1 .6 2 .5 3.1-.3 3.5 0 7 .8 10.4.9 3.6 2.2 7 4.3 10.1 1.6 2.4 2.6 5.2 5.5 6.4.1 0 .2.2.1.2-.8 1.2.6 1.2.8 1.8.6-.3-.3-.8.4-1.1.7 1.2 1.6 2.3 2.2 3.6 1.6 3.8 5.1 5.1 8.4 6.6.3.1 1.3.8 1.1-.6-.1-.8 1.3.2 1.6-.7 0 0 .5.3.6.6.4 1.3 1.5 2 2.4 2.7 3.7 2.7 8.1 2.9 12.3 3.4.7.1 1.3-1.4 2.3-.3.6-1.6 2.5-1.6 3.3-2.9.3-.5.8-1.1 1.6-1.3.4 1.8-.5 3.2-1.6 4.7 4-.3 7.6-.8 10.9-2.5 2.3-1.2 4.2-2.8 5.1-5.2.5-1.7 1.1-2.7 3.1-2.4.4.1.8-.3.8.4 0 .6.5.2.7.1 2.5-1.6 5.1-3.3 7.1-5.7 1.7-2.1 3.5-4.1 5.5-6 2.7-2.7 5-5.7 6.5-9.2 2.9-6.9 3.7-14.2 4-21.5 0-1.1.1-2.2.5-3.3.2-.6.5-.6 1-.5.3.1.9-.1 1 .3.2.5-.4.7-.8.9-.3.1-.5.2-.6.5 2.7-.3 4.1-3.3 3-6.9-.6.9-1 1.9-1.3 2.8-.2.7-.2 1.9-1 1.8-1-.1-.8-1.4-.9-2.2 0-.3.1-.5.1-.8.7-2.4.8-4.9.1-7.4.3.2.5.5.7.5.4 0 .3-.4.3-.6l-1-3.6c1.2 1.7 1.2 3.3 1.8 5.1.9-3.9-1.4-7-1.3-10.5-2.9.4-5.7-.2-8.6-.2-.4 0-.9-.8-1.1.1-.2.6 0 1 .7 1.4 1.2.5 2.3.3 3.5.4.3 0 .7.1.6.5s-.4.3-.6.3c-1.1-.1-2.2-.2-3.2-.4-.9-.2-1.3.2-1.5 1-.4 2.2-.7 4.5-2.6 6-.5.4-.5.8.1.9 2.2.5 3.1 2.3 4.1 4 1.5 2.2 2.5 4.6 3.6 7-.5-2.9-1.3-5.6-2.3-8.3 1.9 2.5 2.9 5.3 3.4 8.3.6-.1.2-.9.9-.7 0 .3.1.5.1.8 0 .9.2 2.1-.9 2.3-.8.2-1.1-1-1.4-1.7-1.5-3.4-3.6-6.5-6.2-9.2-1.8-1.9-3.5-3.1-6.1-2.3-.6.2-1.3.1-1.9.1-4.9.1-9.8.1-15-.7 1.1.7 2.1.5 3.3 1-2.3 0-4.3.2-6-.8-2.1-1.2-1.5-3.7-2.2-5.5-1.8 1.1-1.9 1.4-.9 4.8-.6-.2-1.1-.2-1.7.1s-1.2.2-1.1-.7c.2-3.1-.8-6.2-.5-9.4 0-.4.2-.8-.4-.8-1.2 0-2.7-.4-3.6.1-1.4.8-2.7.4-4.2.5.8-.9 1.9-.5 3-.8-1.9-1-3.5.1-5.1-.1-.3 0-.2.4-.2.7-.8 2.4-1.3 4.8-2.5 7-.1.1-.2.2-.3.2-.2-.2.2-.6 0-1.1zm30 146.3c2.8-5.6 7-10.2 10.1-15.5 9.3-16.1 17.7-32.7 26.3-49.1.3-.5.3-1 .4-1.6.1-4-.5-7.9-1.8-11.6-1.3-3.8-3.3-7.2-5.1-10.8-1.1-2.2-2-4.4-2.5-6.8-.4-2.1-1.6-3.6-3.4-4.7-.6-.3-1.2-.4-1.3.5-.4 3-.1 5.9 0 8.9.6-1.5 1-3 1.4-4.5.1-.6.4-.9 1-.7 1 .3-.4.6 0 1 2-.1 2.3.3 1.8 2.1-.4 1.3-.8 2.7-1.3 4-4.4 11.7-11.9 21.3-21 29.8-4.4 4.1-9 7.9-14.1 11.2-.7.5-1.1.8-.3 1.6 1.6 1.7 2.5 3.9 3.1 6.1 1.5 5.2 1.4 10.6 1.4 15.9 0 2.6-.4 5.2-.2 7.8.2 5.9 3 11 5.5 16.4zm-32-32.4h.3c.2-.9.5-1.8.7-2.7 1.1-4.6 3.2-8.2 8.1-9.5 1-.3 2.2-.5 2.8-1.5 2.7-4.3 6.4-8 7.4-13.2 0-.2.1-.4.5-.3-.2 1-.4 1.9-.5 2.9 1.3 0 2-.9 3.2-1.8-.5 1.2-1.1 1.9-1.8 2.1-2 .5-2.2 2-2.6 3.6 1.6 0 2.7-1 3.9-1.7-.3 1.1.1 2.2-.5 3.2.4-.2.5-.2.6-.3 10.6-7.6 19.9-16.5 27-27.7 1.4-2.1 2.1-4.2 2-6.8-.2-3.3 0-6.6 0-10-.2.1-.3.1-.4.3-2.6 3.3-5.3 6.6-7.5 10.2-.5.9-1.2 1.8-2.5 2.1.1-1.4 1.9-1.6 1.9-3.1-3.2 2.9-6.8 5-10.4 7.2-.5.3-.8.7-1.2 1.1-1.8 2.2-4.1 3.7-6.7 4.7-5.2 2-10.6 2.3-16.1 1.7-3.7-.4-7.4-.7-11-1.7 2.3 1 4.6 1.9 7.3 3-1.5.2-2.5-.3-3.4-.6-3.1-1.2-6-2.6-8.8-4.7-2.4-1.8-5.7-2.5-8.7-4.3 3.1 10.3 3.8 20.6 4.3 31 2-1.1.7-2.7.6-4.2 1.8 3.2 3.4 6.5 5.1 9.7.2.4.3 1.1.9.8a.88.88 0 0 0 .5-1.2c-.1-.2-.2-.5.1-.7 1 1.2 1.1 1.3 0 2.2-1 .8 0 1.3.2 1.9.1.3.3.7.7.3.6-.5.5-1 .2-1.6-.1-.3-.4-.7.1-.8.5-.2.7.2.8.6.5 1.5.9 3 1.4 4.5.6 1.7 1 3.5 1.5 5.3zM112 85.4c-3-.3-4.7 1.3-5.8 3.6-.7 1.5-1.6 2.8-2.6 4.1-1.3 1.6-1.3 1.6.7 2.3.4.1.7.2 1.1.3 5.9 1.2 11.9 1.9 18 1.5 1.6-.1 2.4-.8 2.9-2.3.8-2.4 1.1-4.9 1.3-7.5.1-1.5-.2-2.7-1.4-3.6-.1-.1-.3-.2-.1-.4.1 0 .3.1.4.1.2.1.3.1.4-.3-1.8-1.2-3.9-2-6.1-1.7-3.3.4-6.7-.1-10-.1.9-.2 1.7-.3 3-.6-3.4-.4-6.2.1-8.9 2.2.1-.8.9-1.6-.2-1.8-1.4-.4-3.1.6-3.7 2-1 2.7-.6 5.5-.5 8.3 0 .2.2.6.3.7.4.2.6-.2.7-.4.5-.8 1-1.6 2-2-.3.5-.6.9-1 1.7 1.6-.7 2.1-1.9 2.8-2.9 3.1-4.5 7.6-5.3 12.6-4.9 3.1.2 5.5 2.1 8.1 3.4.4.2 1.1.3.7 1-.3.5-.9.4-1.3.2-1.2-.4-2.1-1.2-3.2-1.8-1.4-.8-2.8-1.8-4.6-1.8 1.2.9 2.5 1.7 3.6 2.7 1.2 1.1 2.7 1.3 4.2 1.7-5.2 1.3-8.6 1.9-12.6-.3 0 .8 1 .8 1.3 1.5-2.6.7-4.6-.7-6.7-1.5 1.5-1.2 3.1-2.3 4.6-3.4zm77.6 9.8l.8 3.5c.1.3.4.7 0 1-1.7 1.3-1.4 3.2-1.2 4.9.4 3.4.5 6.8-1.1 10-.2.3-.3.7-.3 1.1-.2 3.8-.6 7.6-1.3 11.4-.2 1 .3 1.1 1.1.8 2.2-.9 3.5-2.6 4.3-4.8 1.5-3.8 1.9-7.9 2-11.9.1-3.9 0-7.9.1-11.8 0-.5-.3-1.2.4-1.6.2 1.4.1 2.9.7 4.2l.8-8.1c0-.4-.1-.6-.5-.6-1.3 0-2.4-.4-3.5-1-.5-.2-1-.1-1.3.3s.1.8.3 1.1c.3.5 1 .7 1.1 1.5-1-.2-1.1-1.2-2-1.4.1 1.5 1.5 2.3 1.7 3.9-.8-.9-1.3-1.6-2.1-2.5zm-74.7 106.4c0-1.8-1.1-3-2.8-3-.9 0-1.6.2-1.6 1.3 0 1.7 1.6 3.6 3 3.6 1.3 0 1.3-1.1 1.4-1.9zm-9.8-147.5c-2.1-2.4-8.2-3.1-11.5 0 3.8-2 7.6-1.7 11.5 0zm37.3 139.6c2.3-1.1 4.3-1.9 5.5-3.9-1.6 1.3-4.4 1-5.5 3.9zM106 232.4c.8-1.7.5-3.3.4-4.8 0-.3-.1-.7-.6-.6-.4.1-.8.3-.7.7.2 1.6.2 3.1.9 4.7zM76.8 69.1c.7 1.1 1.7 1.8 2.9 2.2.8.2 1.6.4 2.3-.1.2-.1.4-.4.4-.6 0-.3-.3-.4-.6-.3-1.7 0-3.4-.3-5-1.2zm67.4 121.8c2.6-.9 3.8-1.7 4.3-3.4-1.4 1.5-4 .8-4.3 3.4zM112.4 89.6c-.3-.7-.6-1.4-.8-2-.2-.5-.3-.8-.9-.4-.4.4-1.3.4-1.2 1.1 0 .7.8.8 1.3 1.1.4.2.9.3 1.6.2zm32.8 2.8c.1 0 .2 0 .4-.1-.1-1.2-.1-2.3-.2-3.5 0-.5-.3-1-.9-.8-.6.1-.7.6-.5 1.1.4 1.2.8 2.2 1.2 3.3zm-37.3 142.3c.3-2.3.6-4.5-.3-6.8.2 2.4-.6 4.6.3 6.8zM77.2 71.4c.8 1.5 2 2.3 3.6 2.7.4.1.6 0 .7-.4.1-.3-.1-.5-.4-.6-1.4-.3-2.6-1.1-3.9-1.7zm89 17.5c.6-.3 1.7-.4 1.9-1.1.1-.5-.7-1.2-1.3-1.2-1.1 0-.6 1.1-1 1.7-.3.3-.2.7.4.6zM90.6 65.5c-.1-.1-.2-.2-.3-.2l-3.6 5.9c.9-.5 1.4-1.3 1.9-2l2-3.7zM94 210.6c-.4.1-.8.2-.7.6.2.8.8 1.3 1.5 1.6.3.2.7-.2.6-.5-.2-.8-.8-1.3-1.4-1.7zm25.1-121.2c.9.1 1.8.2 2.3-.6.2-.3-.6-.9-1-.9-1-.1-.8 1-1.3 1.5zm-2.5 101.9c-.5.7-.9 1.2-1.2 1.7-.1.2-.2.4 0 .6s.5.2.6 0c.6-1.4.8.4 1.4.1-.3-.7-.5-1.4-.8-2.4zM101.8 54.2c-2.6 0-4.5.8-5.4 2.4 1.3-1.5 3.2-1.8 5.4-2.4zm50.1 30.1c-.5-.1-.7-.2-.9-.2-.7.1-1.4.1-1.9.7-.1.1.2.5.4.6.8.5 1.1-.5 1.6-.6.3.1.4-.1.8-.5zM92.2 112l-2.1 3c1.5-.5 1.8-1.8 2.1-3zm-2.3-34c-1 1-1.5 2.2-1.5 3.7.5-1.3 1-2.5 1.5-3.7zm8 136.5c-.4-.5-.9-.9-1.2-1.5-.1-.3-.4-.5-.8-.3-.1.1-.3.2-.3.3-.1.4.2.7.5.7.6.2 1 .8 1.8.8zm-20-141.1c1 1.5 1.8 2 3.2 1.9a12.89 12.89 0 0 1-3.2-1.9zm97.6-40.2c-1.7-4-5.1-5.8-8.9-7-6.3-2.1-12.6-3.4-19.3-2.2-4.1.8-8 2.2-11.8 3.8-4.3 1.7-8.5 3.3-13.1 3.9a16.21 16.21 0 0 1-4.4 0c-3.1-.5-6.2-.7-9.3-.5-1.5.1-3-.2-4.6-.6 3.4-.3 6-2.3 8.7-4.3-.6 1.2-1.1 1.6-3.2 3.5 1.3-.4 2.7-.7 4-1.1l4.1-1.5c1.3-.5 2.6-1.1 3.9-1.6s2.7-1.1 4.2-1.2c-4.4 1.4-7.7 4.8-12.1 6.1 6.3-.3 12.3-2 18.1-4.4-1.2 1.2-2.8 1.6-4.1 2.5 2.7-.6 5.4-1.5 8-2.4 4.2-1.6 8.4-3.2 12.9-3.8 3.2-.5 6.3-.3 9.5 0-2.7-1-5.4-1.8-8.4-1.7 2.5-1 4.9-.4 7.4-.1l-6.5-2.1c-6.6-2.1-13.3-3.2-20.2-1.5-4.1 1-7.9 2.5-11.7 4.1-6.3 2.8-12.8 5.1-18.8 8.5-2.9 1.7-5.6 3.5-7.8 6-1.6 1.7-2.7 3.7-3.3 6.2.9-.6 1-1.7 2.2-2.3-1.4 2.3-2.5 4.3-2.9 6.6-.2.9-.3 1.7-.2 2.6.3 1.9-.8 3.2-2 4.4a1.08 1.08 0 0 1-.7.3c-.4-.1-.3-.5-.3-.8 1-8.8 3-16.9 11.1-22.2 6.6-4.3 13.8-7.1 21-10.1 4.9-2 9.8-4 15-4.9 7.1-1.2 13.9 0 20.5 2.4 2.5.9 4.9 2 7.3 3 1 .4 2 .8 2.6 1.6 1.4 1.8 3.5 2.5 5.5 3.3 1.9.7 3.7 1.5 5.3 2.8 1.5 1.1 2.4 2.6 2.3 4.7z"/><path d="M116.8 55.9c4.1.4 7.8-.7 11.6-2.5l-8.9 1.1c-3.9.5-7.5 0-11.1-1.8-3.3-1.7-6.9-2.6-10.4-3.9-.6-.2-1.1 0-1.6.1-1.1.3-2.2.5-3.4-.1.8-.8 1.8-.5 2.7-.7 4.1-1 7.8 1.2 11.8 1.5 2.7.2 5.3.1 8.2-.2-1.5.8-3 .5-4.3 1.1 5.6.2 11.1-.6 16.5-2-4.1 1.6-8.4 2.6-12.7 3.5 6.3.3 12.3-1.5 18.3-3-1.3.5-2.6 1-3.9 1.4-1.3.5-2.6.9-3.9 1.6 1.8-.3 3.6-.6 5.3-1l22.4-4.9c4.6-1.1 8.7-3.1 11.8-7.1-1.2-.3-2.3 0-3.3.2-2.9.7-5.4 2.3-8.2 3.5-1.7.7-3.3 1.4-5.1 1.7 4-1.7 7.7-3.7 11.6-5.7-4 1-7.5 3.3-11.7 3.7 4.2-1.5 8-4.1 12.3-5.3 2-.6 4.1-.8 6.2 0 .4.1.8.4.9-.2.2-.7.2-1.4-.6-1.8-2-1-4.1-1.6-6.4-1.7-3.6-.1-6.9.9-10.3 1.7-2.4.6-4.9 1.3-7.4 1.3 5.2-1.1 10-3.4 15.2-4.2 2.5-.4 4.9-.2 7.3.8.5.2 1.1.6 1-.3 2.6 1.1 1.7 3.4 1.8 5.5 0 .7-.1 1.4-1 .5-.2-.1-.4-.2-.5.1-.8 3.5-3.9 5.1-6.4 7-4.3 3.3-9.4 4.5-14.8 4.9 4.5-.8 9-1.8 12.9-4.5-7.6 2.6-15.6 3.5-23.5 5.2-3.8.8-7.4 2.4-11 3.7-2.4 1.5-4.9 1.6-7.4.8zm70.4 8.4c-1.5-4.2-3.4-8.2-6.5-11.6 1.3.8 2.4 1.9 3.2 3.2.9 1.3 1.7 2.6 2.7 3.9-1.5-3.5-2.7-7.1-5.4-10s-5.8-5.1-9.2-7c2.2 0 3.8 1.2 5.7 2.1-.7-.6-1.4-1.3-2.1-1.9-.8-.6-1.5-1.2-2.4-1.7s-1.8-.9-2.6-1.5c2.4.6 4.6 1.7 6.6 3.2 1.9 1.5 3.5 3.4 5.2 5.3-.7-3.2-2.3-5.8-5.3-8.7.5-.2.7.1.9.3 3.2 2.5 5 5.9 6.5 9.5 2.4 5.7 4.7 11.5 7.8 16.9 1.2 2.1 3 3.6 4.3 5.6.4.6.9 1.2.4 1.9s-1.1 0-1.5-.3c-2.3-1.2-3.6-3.5-5.4-5.3-.4-.4-.7-.8-1.1-1.2-.6-1-.8-2.1-1.8-2.7zm-41.9 16c4.8-4.1 10.7-3.8 16.4-4.6 4.2-.6 8.2-.2 11.8 2.2 1 .7 2.4 1 2.4 2.7 0 .6.6 1.2.9 1.8.6-.3 0-1 .6-1.3-.3 1.8-1 1.9-2.7 1-3-1.7-6.3-3.1-9.6-3.2-1.6 0-3.5-.7-5.2.4-1.1.6-2.5.6-3.8.2-.9-.3-1.8-.2-2.7.2-.6.3-1.3.5-2.3.8.9-.9 1.9-.8 2.6-1.7-2.3-.6-4.3-.1-6.3.9-.7.1-1.2 1-2.1.6z"/><path d="M196.5 64.9c0-.7-.1-.9 0-1.1.2-.3.4-.1.5.1.9 1.9 2.7 3.3 3.3 5.5-2.3.1-3.8-1-4.9-2.6-1.3-1.8-2.1-3.9-2.8-6-1.8-4.9-3.6-9.7-5.9-14.4-1.7-3.6-3.9-7-7.5-9.1-1.3-.8-2.7-1.2-4-1.9 2.8.1 5.1 1.2 7.2 3 2.7 2.4 4.6 5.3 6 8.6l7.3 16.4c.2.3.4.7.8 1.5zM39.2 217.4c-2.6 4.9-2 10.3-2.7 15.5-.6 4.5-1.1 9.1-1.6 13.7-.1.9-.6 1.4-1.5 1.4-1-.1-.5-.9-.6-1.5-.3-1.9.6-3.6.7-5.4.1-2 .5-4 .8-5.9.3-2 .7-3.9 1.1-5.9s.7-3.9 1.2-5.9c.4-2.2 1.1-4.2 2.6-6zm27.9-17.6c-2.7.5-4.8 2-7 3.5-1.8 1.2-3.8 2.1-6 2.4-4 .7-7.6 2.2-11.2 4.1-2.5 1.4-5.1 2.7-7.8 3.8 1-.6 1.9-1.3 2.9-1.9 5.2-3.2 10.6-6 16.6-7.4 2.3-.5 4.1-1.8 6-3.1 1.8-1.2 3.6-2.1 5.9-1.9a.9.9 0 0 1 .5.1s0 .2.1.4zm74-169.5c6.9-.7 13.7-2.3 20.7-1.4 2.5.3 4.6 1.5 6.8 2.6 1.5.8 1.5 2 2.3 3.1.5-.7.1-1.4.3-2 .6.1.3.8.7 1.1.6-.1.5-.7.8-1.2.1 1.3-.2 2.3-1.2 2.8-1.1.5-1.9-.1-2.6-1-2.6-3.5-6.3-4.5-10.3-4.8-4.9-.3-9.8.5-14.7.8-1 .1-1.9 0-2.8 0zm-23.3 3.3c-2.7 1.6-4.3 4.2-6.2 6.5-1 1.2-2.1 2.1-3.7 2.4-.4.1-.8.2-1.1-.1-.3-.4.2-.6.4-.9.5-.7.8-1.1 1.8-1.4 1.7-.5 2.7-2.3 3.9-3.5 1.4-1.4 2.9-2.6 4.9-3zm85.4 41.5c-.1 2.3-.5 4.5-1.9 6.3-1.1 1.4-2.6 2-4.4 1.9-.4 0-.8-.2-.8-.6 0-.2.3-.4.5-.5 3.3-1.3 5.6-3.7 6.6-7.1zm-16-10.8c1 .6 1.2 1.7 1.8 2.6 1.3 3.4 3.8 5.9 6 8.7-4.4-2.6-6-7-7.8-11.3zm3.5 9.8c-1-1.5-1.9-3-2.5-4.8 1.9 3.3 4.8 5.7 7.4 8.4-1-.1-1.6-.8-2.4-1.2-1-.6-1.7-1.6-2.5-2.4zm-43.5-18.3c-2.6 1.2-11.1 1.8-13.8 1.3 4.6-.1 9.2-.8 13.8-1.3zm16.3 10.9c-3.7.1-7.3.3-11 .8 3.6-.7 7.2-2.1 11-.8z"/><path d="M190.7 74.1c.8.9 1.5 1.8 2.5 2.4l.6 1c.3.5 0 .8-.3 1.1-.4.5-.8.2-1.1-.1-.6-.4-1.1-.8-1.6-1.6.9.3 1.5 1.1 2.7 1.1l-2.4-2.9c-.3-.2-1.1-.5-.4-1zm11.8-.8c.1 2.8-1.3 4.6-4 4.8 1.9-1.2 3.6-2.4 4-4.8zM97.8 45.4c-2.6 1.5-4.5 1.1-6.3-1.4.3.2.6.5.9.7 1.6 1.1 3.4 1.8 5.4.7zM78 64.3c.1-.9.9-1.1 1.5-1.2 1.5-.1 2.9-.4 4.4-.8h-.1c-.4.6-1.1.8-1.7 1-1.4.2-2.8.3-4.1 1zm24.2-34.7l4.7-1.3c-1.4 1-2.9 1.5-4.7 1.3zm93.2 164c.3-1.7 1.2-3 2.7-3.9l-2.7 3.9zm1.8-118.5c1.4-1.2 2.8-1.6 3.6-2.8-.6 1.5-1.6 2.4-3.6 2.8zM85.3 59c-1.4-.5-3 .8-4.4-.4 1 .2 1.8.1 2.7-.5.5-.3 1 .7 1.7.9zm54.6 16.7l1.2 3.6c-1.2-.8-1.4-1.4-1.2-3.6zm-8.4 3.5c.8-1.1 1.9-2.1 2.5-3.4-.3 1.6-1.1 2.7-2.5 3.4zm26.4-17.7l-.6.5c-1.5 0-3.1 0-4.6-.1l5.2-.4zm5.5 68.4c-.1 1.2-.8 1.4-1.4 1.8-2.1 1.4-4.2 2.1-6.8 2.2-4.4.3-8.8.1-13.1.4-3.8.3-7.5.3-11.3-.5-2.4-.5-4.9-.5-7.4-.5-3.7 0-7.2-1.1-9.4-4.5-.4-.6-1.2-1.1-1.2-2.2.9.7 1.7 1.3 2.3 2 2.6 2.9 6 2.7 9.4 2.8 3.6.1 7.2 0 10.8.9 1.6.4 3.2.1 4.8-.5.4-.2.8-.2 1.3-.3 4.5-.1 9-.3 13.5.2 2.7.2 5.8.2 8.5-1.8zm4.4 7c0-1.8.6-3.3.3-4.9-.5-2.3-1.3-4.4-2.8-6.3-2.3-2.7-4.1-5.8-7.3-7.7-.3-.2-.3-.5-.4-.8-.3-.6-.6-1.2-1.5-.5-1 .9-2.3-.4-3.6.8.7-1.8 3.6-1.7 2.3-4.2-1.2 2.2-2.8 3.7-5.4 4.5 4-3.9 3.5-8-1.1-9.4.3-.2.6-.3.7-.5 1.3-1.2 1.4-1.2 2.2.4.4.9 1 1.7 1.7 2.7-.1-1.4-1.4-2.2-1-3.6 1 2.3 2.8 4 3.8 6.3.3.7.9 1.2 1.5 1.6 4.1 2.8 7 6.8 10.1 10.5 1.5 1.8 2.5 3.9 1.7 6.4-.5 1.6-.1 3.2-1.2 4.7zm-62.6-6.5c.2-2.4-.3-4.9 1.7-6.8 6-5.4 12.3-10.5 18.4-15.7h.5c-.5.6-1 1.1-1.7 2 1.4-.5 2-1.6 3.2-1.8-1.3 1.4-3.3 2.3-3.3 4.7 0 2.5.5 3.5 3 4.5-.5.7-1.4.7-1.9.4-4.2-2.7-7.7-.7-11 1.7-2.1 1.5-4.1 3.1-6.2 4.7-1.4 1.1-1.9 2.8-2.2 4.6 0 .6.2 1.3-.5 1.7zm18.2-19.2c-1.5 1.8-3.7 3-5.1 4.9.7-.8 2.4.1 2.5-1.8.5.6.8 1.2 1.4 1.5.5.2 1.1.3.9-.5-.4-1.4.1-2.8.3-4.1zM103 126.3c-.4 2.4.5 4.3 1.6 6.3l5.3 10.7c.5 1 0 2.1.8 3-1.8-1.4-3.7-2.8-4.4-5.2-1.1-3.7-2.4-7.4-3.5-11.1-.5-1.2-.9-2.5.2-3.7zm45.1-9.9c-3.1.9-4.5 3.9-7.2 5.3 1.6-.2 2.8-1.5 4.4-1.6-2.1 1.3-4.1 2.7-6.7 2.9-4 .4-6.7-1.3-8.8-4.6-.5-.8-1-1.6-2.1-1.6-.4 0-.6-.3-.5-.7.1-.3.4-.6.7-.5.8.2 1.7.5 2.2 1.2.7.9 1.5 1.7 2.1 2.7 1.2 1.9 3 2.6 5 2.8 1 .1 1.9-.2 2.7-.9 1.3-1 2.2-2.4 3.3-3.5 1.6-1.2 3.1-1.9 4.9-1.5zm31.2 8.9l-.6-7.7c-.5-4.2-2-8.1-4-11.9-.3-.5-.1-.7.2-.9.5-.5.6.1.7.4 3.8 6.2 4.9 12.9 3.7 20.1zm-50.6 12.4c3.3-.1 6.6.5 10 0l4.6-.6c.5-.1 1.2-.3 1.3.6.1.7-.5.8-1 1.1-1.6.8-3.2.6-4.9.6-3.4-.2-6.7-.6-10-1.7zm46.2-12.7c1.7 5.8-.9 17.3-4.3 19.6 1.7-3 2.5-6.3 3.2-9.6.7-3.2.8-6.6 1.1-10zm-33.1-25.4c1 .1.8.8 1.1 1.1.8.7.9 1.8 2.2 2.4 1.7.8 1.3 5.6-.2 6.6-.4.3-.8-.1-1.2-.1-.5-.1-.4-.5-.3-.9.5-3.1.4-6-1.6-9.1zm25.5 39.5c1.9-1.2 1.9-3.4 3-5.1 1-1.6 1.2-3.7 1.5-5.6 1.1 3.4-.3 8.2-2.7 10-.5.4-1.1.8-1.8.7zM98.7 125c1 4.5 2.7 8.9 4.4 13.6-2.1-1.4-4.7-9.9-4.4-13.6zm77.6-26.7c3.4-.1 5.8 1.8 6.8 5.5-2.1-2.5-3.9-4.7-6.8-5.5zm-37.6 30c-.9 2.2-2 2.6-3.2 1.4-.4-.4-.6-.8-.3-1.3.3-.6.8-.4 1.3-.2.6.3 1.2.8 2.2.1zm2.2 31.5c.5-.3.8-.5 1.1-.6.4-.1.8-.8 1.3-.3.3.3.3.7.2 1.1-.2.5-.4 1.1-1 1-.5 0-.9.2-1.5.4.4-.8 1.4-.7 1.6-1.5-.6-.4-1 .4-1.7-.1zm-16.8-18.4c1 1 2.7 1.1 3.1 2.7-2.1.4-1.9-1.9-3.1-2.7zm-21.6-41.7c1.1-1 2.7-.9 3.9-1.6.2-.1.6 0 .6.3 0 .4-.3.5-.6.6-1.3.3-2.7.2-3.9.7zm58.7 55.2c-.7.9-1.5.9-2.3.8-.3 0-.7 0-.7-.5 0-.4.2-.7.7-.7.7.2 1.4.3 2.3.4zm4.1-12.7c.2 1.6-1.9 2.1-1.1 3.6-1-1.6.1-2.5 1.1-3.6zm-68.6-42c1.1-1.2 2.3-2.2 4-2.5-1.2 1-2.7 1.5-4 2.5zm59.1 105c2.6 7.3.5 14.9 1.4 22.3-1.2-.3-1.4-1.2-1.6-2.3-.6-4.1-.1-8.1.3-12.1.1-2.6.2-5.3-.1-7.9zm35.1-34.2c-.5 1.9-.7 3.7-1.7 5.3-.3.4-.5 1.1-1.2.9-.7-.3-.1-.8 0-1.2 0-.3.2-.6-.3-.7-1.2-.2-.4-.8-.1-1 1.9-1.5 2-3.6 2.4-5.7.3-1.8.6-3.5 1.3-5.2.1-.4.3-.8.7-.7.5.1.6.6.5 1-.5 1.9-.9 3.8-1 5.7 0 .9-.9.8-1.2 1.3-.1.2-.4.5 0 .7 0 .1.3-.2.6-.4zm-71.3-74.5c3.1.1 4.1-2.8 6.2-4.4-1 3.2-3.3 4.8-6.2 4.4zm1.1-4.6c-1.2 1.5-3.4 1.9-5.4 1 2.2-.1 3.8-.4 5.4-1zM79.6 64.4h3.8c-1.6.8-2.7.5-3.8 0z"/></g></g></g><defs><linearGradient id="B" x1="0" y1="0" x2="1" y2="0" gradientUnits="userSpaceOnUse" gradientTransform="matrix(6.44747e-15,90.3621,-105.295,5.53308e-15,257.943,67.1328)"><stop offset="0" stop-color="#2ecc71"/><stop offset="1" stop-color="#1abc9c"/></linearGradient><path id="C" d="M400 75.792c0-4.779-4.521-8.659-10.09-8.659H125.976c-5.569 0-10.09 3.88-10.09 8.659v73.044c0 4.779 4.521 8.659 10.09 8.659H389.91c5.569 0 10.09-3.88 10.09-8.659V75.792z"/><path id="D" d="M309.43 219.944c-19-10.5-39.2-18.5-59.2-26.8-11.6-4.8-22.7-10.4-32.5-18.2-19.3-15.4-15.6-40.4 7-50.3 6.4-2.8 13.1-3.7 19.9-4.1 26.2-1.4 51.1 3.4 74.8 14.8 11.8 5.7 15.7 3.9 19.7-8.4 4.2-13 7.7-26.2 11.6-39.3 2.6-8.8-.6-14.6-8.9-18.3-15.2-6.7-30.8-11.5-47.2-14.1-21.4-3.3-21.4-3.4-21.5-24.9-.1-30.3-.1-30.3-30.5-30.3-4.4 0-8.8-.1-13.2 0-14.2.4-16.6 2.9-17 17.2-.2 6.4 0 12.8-.1 19.3-.1 19-.2 18.7-18.4 25.3-44 16-71.2 46-74.1 94-2.6 42.5 19.6 71.2 54.5 92.1 21.5 12.9 45.3 20.5 68.1 30.6 8.9 3.9 17.4 8.4 24.8 14.6 21.9 18.1 17.9 48.2-8.1 59.6-13.9 6.1-28.6 7.6-43.7 5.7-23.3-2.9-45.6-9-66.6-19.9-12.3-6.4-15.9-4.7-20.1 8.6-3.6 11.5-6.8 23.1-10 34.7-4.3 15.6-2.7 19.3 12.2 26.6 19 9.2 39.3 13.9 60 17.2 16.2 2.6 16.7 3.3 16.9 20.1l.2 22.9c.1 9.6 4.7 15.2 14.6 15.4 11.2.2 22.5.2 33.7-.1 9.2-.2 13.9-5.2 13.9-14.5 0-10.4.5-20.9.1-31.3-.5-10.6 4.1-16 14.3-18.8 23.5-6.4 43.5-19 58.9-37.8 42.8-52 26.5-128.1-34.1-161.6z"/></defs></svg>