<svg xmlns="http://www.w3.org/2000/svg" xmlns:xlink="http://www.w3.org/1999/xlink" width="100%" height="100%" viewBox="0 0 285 106" fill-rule="evenodd" stroke-linecap="round" stroke-linejoin="round" stroke-miterlimit="1.5" xmlns:v="https://vecta.io/nano"><g transform="matrix(.999996 0 0 1.16526 -115.283792 -77.895657)"><use xlink:href="#C" fill="#1e0d4a"/><clipPath id="A"><use xlink:href="#C"/></clipPath><g clip-path="url(#A)"><g transform="matrix(.654999 -.001026 .001196 .562106 -114.694 -24.0591)" fill="#fff" fill-rule="nonzero"><path d="M428.617 237.086v22.531h-9.401v-22.531h-7.202v-9.077h23.782v9.077h-7.179zm27.51 3.219v7.039h-6.137c-.833 0-1.424.124-1.771.371s-.521.663-.521 1.25c0 .664.178 1.1.533 1.308s1.08.313 2.176.313h6.322v9.031h-7.387c-3.473 0-6.129-.83-7.966-2.489s-2.755-4.057-2.755-7.19v-12.389c0-3.026.868-5.372 2.605-7.039s4.18-2.501 7.329-2.501h8.174v9.077h-5.998c-1.62 0-2.431.525-2.431 1.575 0 .617.193 1.045.579 1.285s1.073.359 2.061.359h5.187zm5.349 19.312V239.1c0-3.596 1.077-6.476 3.23-8.637s5.021-3.242 8.603-3.242c3.566 0 6.294 1.05 8.186 3.15s2.836 5.117 2.836 9.054v20.192h-9.401v-20.192c0-1.93-.687-2.895-2.061-2.895-1.328 0-1.992.965-1.992 2.895v20.192h-9.401zm62.707-31.608l-8.938 14.055v17.553h-9.402v-17.553l-9.007-14.055h9.54l4.075 6.507 4.377-6.507h9.355zm18.432 12.296v7.039h-6.136c-.834 0-1.424.124-1.771.371s-.522.663-.522 1.25c0 .664.178 1.1.533 1.308s1.081.313 2.177.313h6.321v9.031h-7.386c-3.474 0-6.129-.83-7.966-2.489s-2.756-4.057-2.756-7.19v-12.389c0-3.026.869-5.372 2.605-7.039s4.18-2.501 7.329-2.501h8.174v9.077h-5.997c-1.621 0-2.431.525-2.431 1.575 0 .617.193 1.045.578 1.285s1.073.359 2.061.359h5.187z"/><use xlink:href="#D"/><path d="M586.08 236.507v23.11h-9.402v-31.608h12.065c3.674 0 6.522.91 8.544 2.732 2.254 2.038 3.381 4.624 3.381 7.757 0 3.196-1.397 5.89-4.191 8.082l5.418 13.037h-9.864l-4.562-10.189V241.3h.741c1.976 0 2.964-.849 2.964-2.547 0-1.497-1.142-2.246-3.427-2.246h-1.667zm33.808-8.637v9.007c-.68-.231-1.204-.347-1.575-.347a2.46 2.46 0 0 0-1.829.787c-.51.525-.764 1.158-.764 1.899 0 .633.277 1.436.833 2.408l.718 1.251c1.297 2.254 1.945 4.43 1.945 6.53 0 3.072-1.092 5.673-3.276 7.804s-4.852 3.195-8.001 3.195c-1.513 0-3.01-.347-4.492-1.042v-9.147c.895.572 1.69.857 2.385.857.818 0 1.501-.235 2.049-.706s.822-1.061.822-1.771c0-.464-.44-1.475-1.32-3.034-1.404-2.47-2.107-4.94-2.107-7.41 0-2.979 1.061-5.546 3.184-7.699s4.658-3.231 7.607-3.231c1.297 0 2.57.216 3.821.649zm28.088 15.885v8.336h-2.709v7.526h-9.402v-20.1c0-3.89 1.062-6.912 3.184-9.065s5.106-3.231 8.95-3.231c3.705 0 6.445.977 8.221 2.93s2.663 4.967 2.663 9.042v20.424h-9.402v-19.799c0-1.235-.146-2.091-.44-2.57s-.818-.718-1.574-.718c-1.467 0-2.2 1.096-2.2 3.288v3.937h2.709zm29.987-1.853h8.962c1.93 2.393 2.894 4.917 2.894 7.572 0 3.088-1.13 5.681-3.392 7.781s-5.044 3.149-8.348 3.149c-4.291 0-7.935-1.628-10.929-4.886s-4.493-7.225-4.493-11.902c0-4.693 1.525-8.599 4.574-11.717s6.858-4.678 11.427-4.678c1.559 0 3.288.317 5.187.95v9.401c-1.482-.695-2.833-1.042-4.052-1.042-2.208 0-4.01.687-5.407 2.061s-2.096 3.157-2.096 5.349c0 2.239.649 4.014 1.945 5.326s3.049 1.968 5.257 1.968c1.405 0 2.107-.409 2.107-1.227 0-.617-.463-.926-1.389-.926h-2.247v-7.179zm30.659-14.681c4.477 0 8.317 1.629 11.521 4.886s4.804 7.156 4.804 11.694c0 4.616-1.613 8.537-4.839 11.764s-7.148 4.839-11.764 4.839c-4.584 0-8.498-1.621-11.74-4.863s-4.863-7.155-4.863-11.74c0-4.631 1.633-8.552 4.898-11.763s7.259-4.817 11.983-4.817zm-.278 9.309c-1.929 0-3.573.71-4.932 2.131s-2.038 3.133-2.038 5.14.684 3.721 2.05 5.141 3.006 2.13 4.92 2.13c1.946 0 3.594-.706 4.944-2.119s2.026-3.13 2.026-5.152-.675-3.74-2.026-5.152-2.998-2.119-4.944-2.119z"/></g><g fill="none" stroke="#fff" stroke-width=".745"><path d="M197.783 147.089l31.5-12.444m-55 3.433l23.5 9.011m-61.5-60.502l28.25 3.433 42.75-9.44-50-6.007" stroke-opacity=".15"/><path d="M174.283 138.078l55.084-3.73m-98.084-11.717l43 15.447-32 6.865 55.5 2.145m85.5-6.221l29-8.796 26 18.88 43-8.367 4-24.244-47 32.611-55-10.084zm-21.112-57.612l32.112 6.738m35-1.288l-5-14.132 44 10.986 11-10.986-50 14.132z" stroke-opacity=".15"/><path d="M294.283 89.993l30-17.136m-95 61.789l54 5.149" stroke-opacity=".15"/></g><g fill="#fff"><circle cx="483.5" cy="384.5" r="17.5" transform="matrix(.085714 0 0 .073558 132.34 109.366)"/><circle cx="483.5" cy="384.5" r="17.5" transform="matrix(.085714 0 0 .073558 156.34 118.806)"/><circle cx="483.5" cy="384.5" r="17.5" transform="matrix(.085714 0 0 .073558 187.923 106.065)"/><circle cx="483.5" cy="384.5" r="17.5" transform="matrix(.085714 0 0 .073558 252.154 61.5649)"/><circle cx="483.5" cy="384.5" r="17.5" transform="matrix(.085714 0 0 .073558 282.241 45.3361)"/><circle cx="483.5" cy="384.5" r="17.5" transform="matrix(.085714 0 0 .073558 286.96 60.8045)"/><circle cx="483.5" cy="384.5" r="17.5" transform="matrix(.085714 0 0 .073558 220.728 54.9715)"/><circle cx="483.5" cy="384.5" r="17.5" transform="matrix(.085714 0 0 .073558 94.8924 58.5623)"/><circle cx="483.5" cy="384.5" r="17.5" transform="matrix(.085714 0 0 .073558 115.495 46.3337)"/><circle cx="483.5" cy="384.5" r="17.5" transform="matrix(.085714 0 0 .073558 124.841 61.7092)"/><circle cx="483.5" cy="384.5" r="17.5" transform="matrix(.085714 0 0 .073558 165.941 52.5462)"/><circle cx="483.5" cy="384.5" r="17.5" transform="matrix(.085714 0 0 .073558 89.4273 94.6204)"/><circle cx="483.5" cy="384.5" r="17.5" transform="matrix(.085714 0 0 .073558 100.137 116.64)"/><circle cx="483.5" cy="384.5" r="17.5" transform="matrix(.085714 0 0 .073558 241.355 111.812)"/><circle cx="483.5" cy="384.5" r="17.5" transform="matrix(.085714 0 0 .073558 270.261 103.761)"/><circle cx="483.5" cy="384.5" r="17.5" transform="matrix(.085714 0 0 .073558 296.481 122.735)"/><circle cx="483.5" cy="384.5" r="17.5" transform="matrix(.085714 0 0 .073558 339.42 115.038)"/><circle cx="483.5" cy="384.5" r="17.5" transform="matrix(.085714 0 0 .073558 343.25 90.798)"/><circle cx="483.5" cy="384.5" r="17.5" transform="matrix(.085714 0 0 .073558 327.174 57.5009)"/><circle cx="483.5" cy="384.5" r="17.5" transform="matrix(.085714 0 0 .073558 337.92 48.2517)"/></g></g></g><defs ><path id="C" d="M400 75.792c0-4.779-4.521-8.659-10.09-8.659H125.976c-5.569 0-10.09 3.88-10.09 8.659v73.044c0 4.779 4.521 8.659 10.09 8.659H389.91c5.569 0 10.09-3.88 10.09-8.659V75.792z"/><path id="D" d="M560.075 243.755v8.336h-2.709v7.526h-9.402v-20.1c0-3.89 1.062-6.912 3.184-9.065s5.106-3.231 8.95-3.231c3.705 0 6.445.977 8.221 2.93s2.663 4.967 2.663 9.042v20.424h-9.402v-19.799c0-1.235-.146-2.091-.44-2.57s-.818-.718-1.574-.718c-1.467 0-2.2 1.096-2.2 3.288v3.937h2.709z"/></defs></svg>