<svg xmlns="http://www.w3.org/2000/svg" xmlns:xlink="http://www.w3.org/1999/xlink" width="100%" height="100%" viewBox="0 0 285 106" fill-rule="evenodd" stroke-linejoin="round" stroke-miterlimit="2" xmlns:v="https://vecta.io/nano"><g transform="matrix(.999996 0 0 1.16526 -115.133143 -78.084916)"><use xlink:href="#C" fill="#74b9ff"/><clipPath id="A"><use xlink:href="#C"/></clipPath><g clip-path="url(#A)"><path d="M108.132 67.133h40v90.362h-40z" fill="#54efc5"/><path d="M148.133 67.133h46.134v90.362h-46.134z" fill="#a19bfe"/><path d="M194.266 67.133H212.4v90.362h-18.134z" fill="#74b9ff"/><path d="M212.401 67.133h39.134v90.362h-39.134z" fill="#ffeaa7"/><path d="M251.534 67.133h6.409v90.362h-6.409z" fill="#fab1a0"/><path d="M257.943 67.133h27.859v90.362h-27.859z" fill="#54efc5"/><path d="M285.802 67.133h52.134v90.362h-52.134z" fill="#a19bfe"/><path d="M337.936 67.133h16.134v90.362h-16.134z" fill="#54efc5"/><path d="M354.07 67.133h30.863v90.362H354.07z" fill="#ffeaa7"/><path d="M384.933 67.133h30.134v90.362h-30.134z" fill="#74b9ff"/><path d="M144.535 98.215h213.996v26.482H144.535z" fill="#fff"/><g fill-rule="nonzero"><path d="M165.069 113.208l1.749-7.157h2.667l-2.882 10.06h-2.694l-2.114-6.73-2.114 6.73h-2.694l-2.882-10.06h2.667l1.758 7.143 2.141-7.143h2.266l2.132 7.157zm8.208-3.756c.684-.638 1.543-.956 2.578-.956 2.093 0 3.155.941 3.185 2.824v4.79h-2.578v-4.733c0-.426-.119-.742-.357-.948s-.634-.311-1.186-.311c-.756 0-1.303.23-1.642.68v5.312h-2.578v-10.613h2.578v3.955zm12.15 6.797c-1.416 0-2.568-.335-3.457-1.011a3.2 3.2 0 0 1-1.333-2.687v-.192c0-.752.187-1.423.562-2.017s.905-1.046 1.592-1.367 1.47-.48 2.35-.48c1.321 0 2.36.322 3.118.965s1.138 1.562 1.138 2.745v.814h-6.147a1.76 1.76 0 0 0 .754 1.178c.419.292.95.441 1.592.441.994 0 1.769-.278 2.329-.838l1.266 1.102c-.386.422-.91.752-1.57.992a6.51 6.51 0 0 1-2.194.354zm-.295-6.136c-.511 0-.926.134-1.244.402s-.522.647-.611 1.145h3.586v-.158c-.012-.441-.166-.786-.464-1.025s-.72-.364-1.267-.364zm11.152.393l-.928-.053c-.976 0-1.615.254-1.918.766v4.891h-2.578v-7.476h2.436l.071.89c.517-.685 1.234-1.027 2.15-1.027a3.44 3.44 0 0 1 .803.09l-.036 1.92z"/><use xlink:href="#D"/><path d="M211.395 112.317c0-1.164.338-2.093 1.013-2.783s1.599-1.037 2.77-1.037c.939 0 1.716.272 2.328.815v-3.814h2.587v10.613h-2.328l-.125-.795c-.642.623-1.469.934-2.48.934-1.136 0-2.047-.345-2.734-1.039s-1.03-1.657-1.03-2.893zm2.578.148c0 .699.157 1.236.473 1.609s.773.556 1.374.556c.797 0 1.359-.259 1.686-.781v-2.951c-.321-.517-.877-.781-1.668-.781-1.242 0-1.864.781-1.864 2.347zm7.717-.163c0-.742.185-1.403.553-1.983s.9-1.028 1.592-1.346 1.498-.477 2.414-.477c1.302 0 2.366.308 3.189.927s1.283 1.456 1.378 2.515l.018.513c0 1.145-.414 2.065-1.24 2.759s-1.936 1.039-3.327 1.039-2.503-.345-3.332-1.035-1.245-1.633-1.245-2.821v-.091zm2.578.148c0 .709.172 1.25.517 1.624s.839.565 1.481.565c.624 0 1.112-.187 1.463-.556s.526-.968.526-1.782c0-.695-.175-1.231-.526-1.614s-.845-.575-1.481-.575-1.119.192-1.464.57-.517.968-.517 1.768zm12.598 3.799c-1.416 0-2.568-.335-3.457-1.011a3.2 3.2 0 0 1-1.333-2.687v-.192c0-.752.187-1.423.562-2.017s.905-1.046 1.592-1.367 1.47-.48 2.35-.48c1.321 0 2.36.322 3.118.965s1.138 1.562 1.138 2.745v.814h-6.147a1.76 1.76 0 0 0 .754 1.178c.419.292.95.441 1.592.441.994 0 1.769-.278 2.329-.838l1.266 1.102c-.386.422-.91.752-1.57.992a6.51 6.51 0 0 1-2.194.354zm-.295-6.136c-.511 0-.926.134-1.245.402s-.522.647-.611 1.145h3.586v-.158c-.012-.441-.167-.786-.464-1.025s-.72-.364-1.267-.364zm10.955 3.933c0-.244-.156-.436-.468-.58s-.813-.263-1.503-.374c-2.296-.374-3.443-1.13-3.443-2.266 0-.666.355-1.217 1.066-1.664s1.64-.667 2.787-.667c1.225 0 2.205.223 2.94.67s1.102 1.028 1.102 1.742h-2.579c0-.287-.119-.522-.357-.709s-.61-.278-1.115-.278c-.434 0-.77.072-1.008.225s-.357.345-.357.58c0 .225.135.402.406.536s.727.254 1.37.354l1.623.335c1.362.383 2.043 1.054 2.043 2.012 0 .68-.378 1.231-1.133 1.653s-1.731.632-2.926.632c-.809 0-1.527-.11-2.155-.335s-1.12-.532-1.476-.92-.535-.81-.535-1.26h2.445c.023.354.193.627.508.814s.737.283 1.266.283c.494 0 .867-.072 1.12-.216s.379-.335.379-.57zm11.803-7.249v1.838h1.65v1.464h-1.65v3.731c0 .278.068.474.205.594s.398.182.785.182a5.86 5.86 0 0 0 .759-.048v1.514a6.75 6.75 0 0 1-1.561.177c-1.808 0-2.73-.709-2.766-2.122v-4.028h-1.41v-1.464h1.41v-1.838h2.578zm5.602 2.655c.684-.638 1.543-.956 2.578-.956 2.094 0 3.155.941 3.185 2.824v4.79h-2.578v-4.733c0-.426-.119-.742-.357-.948s-.634-.311-1.187-.311c-.755 0-1.302.23-1.642.68v5.312h-2.578v-10.613h2.578v3.955zm12.151 6.797c-1.416 0-2.568-.335-3.457-1.011a3.2 3.2 0 0 1-1.334-2.687v-.192c0-.752.188-1.423.562-2.017s.905-1.046 1.592-1.367 1.471-.48 2.351-.48c1.32 0 2.359.322 3.118.965s1.138 1.562 1.138 2.745v.814h-6.147a1.76 1.76 0 0 0 .754 1.178c.419.292.95.441 1.592.441.993 0 1.769-.278 2.328-.838l1.267 1.102c-.387.422-.91.752-1.57.992s-1.392.354-2.195.354zm-.294-6.136c-.512 0-.927.134-1.245.402s-.522.647-.611 1.145h3.586v-.158c-.012-.441-.166-.786-.464-1.025s-.719-.364-1.266-.364zm9.876 2.204c0-1.164.338-2.093 1.013-2.783s1.599-1.037 2.77-1.037c.939 0 1.716.272 2.328.815v-3.814h2.587v10.613h-2.328l-.125-.795c-.642.623-1.469.934-2.48.934-1.136 0-2.047-.345-2.734-1.039s-1.03-1.657-1.03-2.893zm2.578.148c0 .699.157 1.236.473 1.609s.773.556 1.374.556c.797 0 1.359-.259 1.686-.781v-2.951c-.321-.517-.877-.781-1.668-.781-1.243 0-1.865.781-1.865 2.347zm13.712 3.645c-.119-.177-.205-.402-.258-.671-.625.541-1.437.81-2.436.81-.946 0-1.729-.211-2.35-.637s-.933-.958-.933-1.6c0-.795.38-1.403 1.138-1.825s1.854-.637 3.288-.642h1.187v-.431c0-.345-.114-.623-.344-.829s-.59-.311-1.084-.311c-.434 0-.774.081-1.021.244s-.37.378-.37.661h-2.578c0-.431.172-.833.517-1.202s.833-.657 1.463-.867 1.338-.314 2.123-.314c1.189 0 2.134.231 2.833.695a2.21 2.21 0 0 1 1.048 1.952v3.243c.006.709.134 1.245.383 1.609v.115h-2.605zm-2.132-1.389c.381 0 .732-.062 1.053-.196s.559-.307.714-.527v-1.289h-.963c-1.291 0-1.978.345-2.061 1.039l-.008.115c0 .249.113.455.339.618s.535.24.928.24zm9.817-1.437l1.784-4.65h2.766l-3.88 8.64-.214.393c-.577.977-1.528 1.466-2.855 1.466a5.24 5.24 0 0 1-1.141-.134v-1.514l.392.01c.488 0 .852-.057 1.093-.172a1.23 1.23 0 0 0 .567-.575l.303-.613-3.381-7.5h2.774l1.793 4.65zm9.742-.967c0-1.145.353-2.069 1.057-2.769s1.655-1.051 2.851-1.051c1.059 0 1.882.281 2.471.843l.107-.705h2.338v7.227a2.67 2.67 0 0 1-.575 1.71c-.384.484-.924.848-1.619 1.102s-1.511.383-2.445.383a6.6 6.6 0 0 1-2.07-.331c-.672-.22-1.181-.498-1.525-.848l1.142-1.212c.642.556 1.422.833 2.338.833.684 0 1.216-.144 1.597-.426s.571-.685.571-1.202v-.402c-.595.522-1.377.781-2.347.781-1.16 0-2.098-.35-2.815-1.054s-1.075-1.633-1.075-2.797v-.081zm2.578.148c0 .675.176 1.207.526 1.59s.833.575 1.446.575c.785 0 1.347-.225 1.686-.68v-3.147c-.345-.455-.901-.685-1.668-.685-.618 0-1.105.196-1.459.589s-.531.977-.531 1.758zm7.824-.163c0-.742.184-1.403.553-1.983s.899-1.028 1.592-1.346 1.497-.477 2.413-.477c1.302 0 2.366.308 3.189.927s1.283 1.456 1.378 2.515l.018.513c0 1.145-.413 2.065-1.24 2.759s-1.936 1.039-3.328 1.039-2.502-.345-3.332-1.035-1.244-1.633-1.244-2.821v-.091zm2.578.148c0 .709.172 1.25.517 1.624s.838.565 1.481.565c.625 0 1.112-.187 1.463-.556s.526-.968.526-1.782c0-.695-.175-1.231-.526-1.614s-.845-.575-1.481-.575-1.118.192-1.463.57-.517.968-.517 1.768zm10.26.571c0-.642.101-1.154.304-1.538s.572-.762 1.111-1.13.896-.675 1.075-.905.267-.479.267-.737c0-.778-.464-1.168-1.392-1.168-.44 0-.793.105-1.057.315s-.403.499-.415.867h-2.587c.012-.88.38-1.569 1.102-2.066s1.709-.746 2.958-.746c1.261 0 2.239.236 2.935.708s1.044 1.139 1.044 2a2 2 0 0 1-.339 1.109c-.226.35-.622.733-1.187 1.159l-.723.532c-.452.335-.711.728-.776 1.178l-.036.422h-2.284zm-.258 2.122c0-.307.135-.56.406-.762s.617-.302 1.039-.302.769.101 1.039.302.406.455.406.762-.132.556-.397.752-.614.297-1.048.297-.784-.096-1.048-.297-.397-.445-.397-.752z"/></g></g></g><defs ><path id="C" d="M400 75.792c0-4.779-4.521-8.659-10.09-8.659H125.976c-5.569 0-10.09 3.88-10.09 8.659v73.044c0 4.779 4.521 8.659 10.09 8.659H389.91c5.569 0 10.09-3.88 10.09-8.659V75.792z"/><path id="D" d="M201.814 116.249c-1.416 0-2.568-.335-3.457-1.011s-1.334-1.566-1.334-2.687v-.192c0-.752.188-1.423.562-2.017s.905-1.046 1.592-1.367 1.471-.48 2.351-.48c1.32 0 2.359.322 3.118.965s1.138 1.562 1.138 2.745v.814h-6.147a1.76 1.76 0 0 0 .754 1.178c.419.292.95.441 1.592.441.993 0 1.769-.278 2.328-.838l1.267 1.102c-.387.422-.91.752-1.57.992s-1.392.354-2.195.354zm-.294-6.136c-.512 0-.927.134-1.245.402s-.522.647-.611 1.145h3.586v-.158c-.012-.441-.166-.786-.464-1.025s-.719-.364-1.266-.364z"/></defs></svg>