<svg xmlns="http://www.w3.org/2000/svg" xmlns:xlink="http://www.w3.org/1999/xlink" width="100%" height="100%" viewBox="0 0 287 108" fill-rule="evenodd" stroke-linecap="round" stroke-linejoin="round" stroke-miterlimit="1.5" xmlns:v="https://vecta.io/nano"><style><![CDATA[.B{fill-rule:nonzero}.C{fill:#ede6d3}.D{fill:#cac3ad}.E{fill:#d4cebc}.F{fill:#b3a989}]]></style><g transform="matrix(.999996 0 0 1.16526 -114.325665 -76.667248)"><use xlink:href="#C" class="C"/><clipPath id="A"><use xlink:href="#C"/></clipPath><g clip-path="url(#A)"><g transform="matrix(.88923 0 0 .88923 32.1941 12.4358)"><g transform="matrix(1.04984 0 0 .900831 -340.386 -1280.11)"><use xlink:href="#D" class="E"/><g class="B F"><use xlink:href="#E"/><use xlink:href="#F"/></g></g><g transform="matrix(1.04984 0 0 .900831 -340.386 -1219.86)"><use xlink:href="#D" class="E"/><g class="B F"><use xlink:href="#E"/><use xlink:href="#F"/></g></g><g transform="matrix(1.04984 0 0 .900831 -199.956 -1280.11)"><use xlink:href="#D" class="E"/><g class="B F"><use xlink:href="#E"/><use xlink:href="#F"/></g></g><g transform="matrix(1.04984 0 0 .900831 -164.848 -1280.11)"><use xlink:href="#D" class="E"/><g class="B F"><use xlink:href="#E"/><use xlink:href="#F"/></g></g><g transform="matrix(1.04984 0 0 .900831 -129.741 -1249.99)"><use xlink:href="#D" class="E"/><g class="B F"><use xlink:href="#E"/><use xlink:href="#F"/></g></g><g transform="matrix(1.04984 0 0 .900831 -59.5255 -1280.11)"><use xlink:href="#D" class="E"/><g class="B F"><use xlink:href="#E"/><use xlink:href="#F"/></g></g><g transform="matrix(1.04984 0 0 .900831 -94.6331 -1249.99)"><use xlink:href="#D" class="E"/><g class="B F"><use xlink:href="#E"/><use xlink:href="#F"/></g></g><g transform="matrix(1.04984 0 0 .900831 -199.956 -1219.86)"><use xlink:href="#D" class="E"/><g class="B F"><use xlink:href="#E"/><use xlink:href="#F"/></g></g><g transform="matrix(1.04984 0 0 .900831 -164.848 -1249.99)"><use xlink:href="#D" class="E"/><g class="B F"><use xlink:href="#E"/><use xlink:href="#F"/></g></g><g transform="matrix(1.04984 0 0 .900831 -94.6331 -1280.11)"><use xlink:href="#D" class="E"/><g class="B F"><use xlink:href="#E"/><use xlink:href="#F"/></g></g><g transform="matrix(1.04984 0 0 .900831 -235.064 -1219.86)"><use xlink:href="#D" class="E"/><g class="B F"><use xlink:href="#E"/><use xlink:href="#F"/></g></g><g transform="matrix(1.04984 0 0 .900831 -270.171 -1249.99)"><use xlink:href="#D" class="E"/><g class="B F"><use xlink:href="#E"/><use xlink:href="#F"/></g></g><g transform="matrix(1.04984 0 0 .900831 -305.279 -1219.86)"><use xlink:href="#D" class="E"/><g class="B F"><use xlink:href="#E"/><use xlink:href="#F"/></g></g><g transform="matrix(1.04984 0 0 .900831 -305.279 -1280.11)"><use xlink:href="#D" class="C"/><g class="B D"><use xlink:href="#E"/><use xlink:href="#F"/></g></g><g transform="matrix(1.04984 0 0 .900831 -340.386 -1249.99)"><use xlink:href="#D" class="C"/><g class="B D"><use xlink:href="#E"/><use xlink:href="#F"/></g></g><g transform="matrix(1.04984 0 0 .900831 -270.171 -1280.11)"><use xlink:href="#D" class="C"/><g class="B D"><use xlink:href="#E"/><use xlink:href="#F"/></g></g><g transform="matrix(1.04984 0 0 .900831 -235.064 -1280.11)"><use xlink:href="#D" class="C"/><g class="B D"><use xlink:href="#E"/><use xlink:href="#F"/></g></g><g transform="matrix(1.04984 0 0 .900831 -129.741 -1280.11)"><use xlink:href="#D" class="C"/><g class="B D"><use xlink:href="#E"/><use xlink:href="#F"/></g></g><g transform="matrix(1.04984 0 0 .900831 -59.5255 -1249.99)"><use xlink:href="#D" class="C"/><g class="B D"><use xlink:href="#E"/><use xlink:href="#F"/></g></g><g transform="matrix(1.04984 0 0 .900831 -94.6331 -1219.86)"><use xlink:href="#D" class="C"/><g class="B D"><use xlink:href="#E"/><use xlink:href="#F"/></g></g><g transform="matrix(1.04984 0 0 .900831 -59.6661 -1219.86)"><use xlink:href="#D" class="C"/><g class="B D"><use xlink:href="#E"/><use xlink:href="#F"/></g></g><g transform="matrix(1.04984 0 0 .900831 -164.848 -1219.86)"><use xlink:href="#D" class="C"/><g class="B D"><use xlink:href="#E"/><use xlink:href="#F"/></g></g><g transform="matrix(1.04984 0 0 .900831 -129.741 -1219.86)"><use xlink:href="#D" class="C"/><g class="B D"><use xlink:href="#E"/><use xlink:href="#F"/></g></g><g transform="matrix(1.04984 0 0 .900831 -305.279 -1249.99)"><use xlink:href="#D" class="C"/><g class="B D"><use xlink:href="#E"/><use xlink:href="#F"/></g></g><g transform="matrix(1.04984 0 0 .900831 -270.171 -1219.86)"><use xlink:href="#D" class="C"/><g class="B D"><use xlink:href="#E"/><use xlink:href="#F"/></g></g><g transform="matrix(1.04984 0 0 .900831 -235.064 -1249.99)"><use xlink:href="#D" class="C"/><g class="B D"><use xlink:href="#E"/><use xlink:href="#F"/></g></g><g transform="matrix(1.04984 0 0 .900831 -199.956 -1249.99)"><use xlink:href="#D" class="C"/><g class="B D"><use xlink:href="#E"/><use xlink:href="#F"/></g></g></g><path d="M167.022 99.085h181.84v26.482h-181.84z" fill="#fff"/><g class="B"><path d="M199.452 115.137l1.905-8.647h2.908l-3.141 12.15h-2.936l-2.305-8.126-2.305 8.126h-2.936l-3.141-12.15h2.907l1.916 8.629 2.334-8.629h2.47l2.324 8.647zm8.946-4.54c.745-.768 1.682-1.152 2.81-1.152 2.282 0 3.439 1.139 3.471 3.411v5.785h-2.81v-5.716c0-.517-.129-.901-.389-1.148s-.69-.37-1.293-.37c-.823 0-1.419.27-1.789.819v6.416h-2.81v-12.817h2.81v4.774zm7.963 3.443c0-.892.201-1.692.603-2.392a4.06 4.06 0 0 1 1.735-1.628c.756-.384 1.632-.576 2.631-.576 1.419 0 2.578.37 3.476 1.12.898.741 1.398 1.756 1.502 3.036l.02.617c0 1.386-.451 2.497-1.352 3.334s-2.11 1.258-3.627 1.258-2.728-.421-3.632-1.253-1.357-1.971-1.357-3.407v-.11zm2.81.178c0 .855.188 1.509.564 1.966s.914.677 1.614.677c.681 0 1.212-.224 1.595-.672s.574-1.161.574-2.149c0-.837-.191-1.491-.574-1.953s-.921-.69-1.614-.69c-.687 0-1.219.229-1.595.686s-.564 1.171-.564 2.135zm25.059.919l1.906-8.647h2.907l-3.141 12.15h-2.937l-2.305-8.126-2.305 8.126h-2.936l-3.141-12.15h2.907l1.916 8.629 2.334-8.629h2.47l2.324 8.647zm11.979 3.503c-.129-.215-.223-.489-.282-.809-.68.649-1.565.979-2.655.979-1.031 0-1.885-.256-2.562-.768s-1.016-1.157-1.016-1.939c0-.956.413-1.692 1.239-2.204s2.021-.768 3.583-.773h1.293v-.517c0-.421-.125-.755-.374-1.001s-.644-.375-1.182-.375c-.473 0-.844.096-1.113.288a.94.94 0 0 0-.403.805h-2.81c0-.526.188-1.011.564-1.454s.907-.796 1.595-1.047 1.458-.38 2.314-.38c1.296 0 2.326.279 3.087.837s1.142 1.344 1.142 2.36v3.914c.007.855.146 1.504.418 1.943v.142h-2.84zm-2.324-1.678c.415 0 .797-.078 1.147-.238s.61-.37.778-.636v-1.555h-1.05c-1.407 0-2.155.416-2.246 1.253l-.01.142c0 .302.123.549.369.741s.583.293 1.011.293zm12.602-.819c0-.293-.17-.526-.51-.695s-.886-.32-1.638-.453c-2.502-.453-3.753-1.363-3.753-2.739 0-.8.387-1.468 1.162-2.007s1.788-.805 3.039-.805c1.335 0 2.403.27 3.204.809s1.201 1.239 1.201 2.103h-2.81a1.08 1.08 0 0 0-.389-.855c-.259-.229-.664-.338-1.215-.338-.473 0-.84.091-1.099.274s-.389.416-.389.7c0 .27.147.485.442.649s.792.306 1.492.425 1.29.256 1.77.402c1.485.471 2.227 1.28 2.227 2.433 0 .819-.411 1.486-1.235 1.994s-1.886.768-3.19.768c-.881 0-1.664-.137-2.348-.407s-1.22-.64-1.609-1.111-.583-.979-.583-1.523h2.664a1.21 1.21 0 0 0 .554.988c.344.229.804.338 1.381.338.538 0 .945-.087 1.22-.261s.413-.407.413-.69zm17.679-.004h-5.115l-.972 2.501h-3.102l5.27-12.15h2.703l5.3 12.15h-3.102l-.982-2.501zm-4.327-2.03h3.54l-1.78-4.55-1.76 4.55zm9.694-8.286h2.82v12.817h-2.82zm8.1 12.817h-2.82v-9.027h2.82v9.027zm-2.986-11.368c0-.361.141-.658.423-.892s.666-.348 1.153-.348c.48 0 .862.114 1.147.348a1.1 1.1 0 0 1 .428.892 1.11 1.11 0 0 1-.433.905c-.289.233-.669.348-1.142.348s-.854-.114-1.143-.348a1.11 1.11 0 0 1-.433-.905zm9.239 8.423l1.954-6.082h2.936l-3.549 9.027h-2.684l-3.549-9.027h2.936l1.954 6.082zm10.841 3.114c-1.543 0-2.798-.407-3.768-1.221s-1.454-1.893-1.454-3.247v-.233c0-.905.204-1.715.612-2.433a4.1 4.1 0 0 1 1.736-1.651c.749-.384 1.603-.581 2.562-.581 1.439 0 2.572.389 3.398 1.166s1.24 1.884 1.24 3.315v.983h-6.699a2.13 2.13 0 0 0 .822 1.418c.457.357 1.035.535 1.735.535 1.083 0 1.928-.334 2.538-1.011l1.381 1.331c-.421.512-.992.91-1.711 1.193s-1.516.434-2.392.434zm-.321-7.412c-.557 0-1.01.16-1.357.485s-.569.782-.666 1.386h3.909v-.192c-.013-.535-.181-.947-.506-1.239s-.784-.439-1.381-.439zm8.538 3.512c0-.777.11-1.399.33-1.861s.624-.915 1.211-1.363.977-.814 1.172-1.093a1.53 1.53 0 0 0 .291-.892c0-.937-.505-1.408-1.516-1.408-.48 0-.864.128-1.153.38s-.439.604-.452 1.047h-2.82c.013-1.061.413-1.893 1.201-2.492s1.862-.901 3.224-.901c1.374 0 2.44.284 3.199.851s1.138 1.376 1.138 2.419a2.61 2.61 0 0 1-.37 1.34c-.246.421-.677.887-1.293 1.395l-.788.645c-.493.407-.775.883-.846 1.427l-.039.508h-2.489zm-.282 2.561a1.14 1.14 0 0 1 .443-.919c.295-.242.672-.366 1.133-.366s.838.123 1.133.366a1.14 1.14 0 0 1 .442.919c0 .37-.144.672-.433.91s-.669.361-1.142.361-.854-.119-1.143-.361a1.13 1.13 0 0 1-.433-.91z"/></g></g><use xlink:href="#C" fill="none" stroke="#000" stroke-width="1.84"/></g><defs ><path id="C" d="M400 75.792c0-4.779-4.521-8.659-10.09-8.659H125.976c-5.569 0-10.09 3.88-10.09 8.659v73.044c0 4.779 4.521 8.659 10.09 8.659H389.91c5.569 0 10.09-3.88 10.09-8.659V75.792z"/><path id="D" d="M415.561 1495.56h33.441v33.441h-33.441z"/><path id="E" d="M432.283 1512.663c2.832 0 5.147-2.315 5.147-5.147s-2.315-5.147-5.147-5.147-5.147 2.315-5.147 5.147 2.315 5.147 5.147 5.147z"/><path id="F" d="M441.115 1516.776c-.135-.337-.315-.652-.517-.944-1.034-1.528-2.63-2.54-4.427-2.787-.225-.022-.472.022-.652.157-.944.697-2.068 1.056-3.236 1.056s-2.292-.36-3.236-1.056c-.18-.135-.427-.202-.652-.157a6.35 6.35 0 0 0-4.427 2.787c-.202.292-.382.629-.517.944-.067.135-.045.292.022.427.18.315.405.629.607.899a8.54 8.54 0 0 0 1.034 1.169c.315.315.674.607 1.034.899 1.775 1.326 3.911 2.023 6.113 2.023s4.338-.697 6.113-2.023a9.88 9.88 0 0 0 1.034-.899c.36-.36.719-.742 1.034-1.169a7.88 7.88 0 0 0 .607-.899c.112-.135.135-.292.067-.427z"/></defs></svg>