<?xml version="1.0" encoding="UTF-8" standalone="no"?>
<!DOCTYPE svg PUBLIC "-//W3C//DTD SVG 1.1//EN" "http://www.w3.org/Graphics/SVG/1.1/DTD/svg11.dtd">
<svg width="100%" height="100%" viewBox="0 0 287 108" version="1.1" xmlns="http://www.w3.org/2000/svg" xmlns:xlink="http://www.w3.org/1999/xlink" xml:space="preserve" xmlns:serif="http://www.serif.com/" style="fill-rule:evenodd;clip-rule:evenodd;stroke-linejoin:round;stroke-miterlimit:2;">
    <g transform="matrix(1,0,0,1,-104.326,-2001)">
        <g transform="matrix(1.03258,0,0,1.93219,0,0)">
            <g id="wonders-of-street-view" transform="matrix(0.968444,0,0,0.603076,-10.2261,995.643)">
                <path d="M400,75.792C400,71.013 395.479,67.133 389.91,67.133L125.976,67.133C120.407,67.133 115.886,71.013 115.886,75.792L115.886,148.836C115.886,153.615 120.407,157.495 125.976,157.495L389.91,157.495C395.479,157.495 400,153.615 400,148.836L400,75.792Z" style="fill:rgb(255,239,213);"/>
                <clipPath id="_clip1">
                    <path d="M400,75.792C400,71.013 395.479,67.133 389.91,67.133L125.976,67.133C120.407,67.133 115.886,71.013 115.886,75.792L115.886,148.836C115.886,153.615 120.407,157.495 125.976,157.495L389.91,157.495C395.479,157.495 400,153.615 400,148.836L400,75.792Z"/>
                </clipPath>
                <g clip-path="url(#_clip1)">
                    <g transform="matrix(0.898768,0.20667,-0.240824,0.771303,162.201,88.0057)">
                        <path d="M25,1C19.484,1 15,5.484 15,11C15,16.516 19.484,21 25,21C30.516,21 35,16.516 35,11C35,5.484 30.516,1 25,1ZM25,5C25.551,5 26,5.445 26,6C26,6.555 25.551,7 25,7C22.793,7 21,8.793 21,11C21,11.555 20.551,12 20,12C19.449,12 19,11.555 19,11C19,7.691 21.691,5 25,5ZM22,22.605L22,43.246C22,43.246 24,48.988 25,48.988C26,48.988 28,43.246 28,43.246L28,22.605C27.039,22.855 26.035,23 25,23C23.965,23 22.961,22.855 22,22.605Z" style="fill:rgb(71,46,24);fill-rule:nonzero;"/>
                    </g>
                    <g transform="matrix(0.222246,0,0,0.225403,136.995,35.1623)">
                        <g transform="matrix(0.968171,0,0,0.968171,39.9429,28.3158)">
                            <g transform="matrix(1,0,0,1,-2.01036,-1.13687e-13)">
                                <path d="M418.545,223.338C418.545,232.07 417.723,240.179 416.078,247.664C414.434,255.148 412.336,261.357 409.784,266.291C407.233,271.224 404.341,275.505 401.109,279.134C397.877,282.763 394.73,285.456 391.668,287.214C388.606,288.972 385.714,290.077 382.992,290.531C379.363,290.985 376.585,289.284 374.657,285.428C372.729,281.572 371.481,275.278 370.914,266.546C367.399,273.69 363.175,279.304 358.241,283.386C353.308,287.469 348.687,289.851 344.378,290.531C339.501,291.211 335.787,289.227 333.235,284.577C330.684,279.928 329.408,271.082 329.408,258.04C329.408,237.174 328.926,223.423 327.962,216.789C326.998,210.155 324.929,206.838 321.753,206.838C319.372,206.838 317.302,207.915 315.544,210.07C313.786,212.225 312.964,215.088 313.078,218.66C313.191,222.233 314.552,225.72 317.16,229.122C319.428,231.957 320.506,233.743 320.392,234.48C320.279,235.217 318.691,235.813 315.629,236.266C312.681,236.72 310.072,236.011 307.804,234.14C305.536,232.269 304.005,229.576 303.211,226.06C301.737,219.936 303.126,214.578 307.379,209.985C311.632,205.392 316.537,203.095 322.093,203.095C326.743,203.095 330.372,204.371 332.98,206.923C335.589,209.474 337.658,214.805 339.189,222.913C340.72,231.021 341.486,242.731 341.486,258.04C341.486,265.638 341.684,271.365 342.081,275.221C342.478,279.077 343.045,281.572 343.782,282.706C344.519,283.84 345.568,284.35 346.929,284.237C352.826,283.67 357.788,278.312 361.814,268.162C365.84,258.012 367.852,243.751 367.852,225.38C367.852,224.472 367.824,222.998 367.767,220.957C367.711,218.915 367.682,217.413 367.682,216.449C367.682,215.485 367.796,214.209 368.023,212.621C368.249,211.034 368.59,209.786 369.043,208.879C369.497,207.972 370.206,207.036 371.17,206.072C372.134,205.108 373.353,204.286 374.827,203.606C377.775,202.245 379.477,202.812 379.93,205.307C380.044,205.987 380.044,211.09 379.93,220.617L379.93,259.571C379.93,266.716 380.157,272.103 380.611,275.732C381.064,279.361 381.66,281.714 382.397,282.791C383.134,283.868 384.183,284.35 385.544,284.237C391.441,283.67 396.402,278.312 400.428,268.162C404.454,258.012 406.467,243.751 406.467,225.38C406.467,224.472 406.439,222.998 406.382,220.957C406.325,218.915 406.297,217.413 406.297,216.449C406.297,215.485 406.41,214.209 406.637,212.621C406.864,211.034 407.204,209.786 407.658,208.879C408.111,207.972 408.82,207.036 409.784,206.072C410.748,205.108 411.967,204.286 413.441,203.606C416.39,202.245 418.091,202.812 418.545,205.307C418.658,205.987 418.658,211.09 418.545,220.617L418.545,223.338Z" style="fill:rgb(71,47,25);fill-rule:nonzero;"/>
                            </g>
                            <path d="M425.611,261.824C425.611,253.537 428.388,246.605 433.943,241.029C439.497,235.453 446.329,232.665 454.44,232.665C462.595,232.665 469.45,235.464 475.004,241.062C480.558,246.66 483.335,253.581 483.335,261.824C483.335,270.949 480.514,278.123 474.872,283.347C469.229,288.57 462.419,291.182 454.44,291.182C446.461,291.182 439.662,288.526 434.042,283.214C428.421,277.903 425.611,270.773 425.611,261.824ZM436.587,262.155C436.587,271.764 438.152,278.498 441.282,282.355C444.412,286.212 448.798,288.14 454.44,288.14C460.215,288.14 464.634,286.212 467.697,282.355C470.761,278.498 472.293,271.764 472.293,262.155C472.293,252.633 470.772,245.845 467.731,241.789C464.689,237.734 460.259,235.706 454.44,235.706C448.666,235.706 444.246,237.723 441.183,241.756C438.119,245.79 436.587,252.589 436.587,262.155Z" style="fill:rgb(71,47,25);fill-rule:nonzero;stroke:rgb(71,47,25);stroke-width:3.4px;"/>
                            <path d="M506.94,232.665L508.726,232.665C509.74,235.398 510.313,239.122 510.445,243.839C513.619,240.092 516.947,237.293 520.429,235.442C523.912,233.59 527.548,232.665 531.339,232.665C535.659,232.665 539.197,233.568 541.952,235.376C544.707,237.183 546.481,239.398 547.274,242.021C548.068,244.644 548.465,248.468 548.465,253.493L548.465,270.42C548.465,276.679 548.575,280.492 548.795,281.859C549.016,283.225 549.71,284.25 550.878,284.934C552.046,285.617 554.195,285.958 557.325,285.958L557.325,289L529.62,289L529.62,285.958L530.876,285.958C534.05,285.958 536.122,285.496 537.092,284.57C538.062,283.644 538.613,282.564 538.745,281.33C538.877,280.096 538.943,276.459 538.943,270.42L538.943,252.964C538.943,248.688 538.734,245.635 538.315,243.806C537.896,241.977 536.772,240.357 534.943,238.946C533.113,237.536 530.788,236.83 527.967,236.83C524.749,236.83 521.674,237.789 518.743,239.707C515.812,241.624 513.046,244.5 510.445,248.335L510.445,270.42C510.445,276.679 510.566,280.492 510.809,281.859C511.051,283.225 511.756,284.25 512.924,284.934C514.093,285.617 516.264,285.958 519.437,285.958L519.437,289L492.063,289L492.063,285.958C495.105,285.958 497.221,285.65 498.411,285.033C499.601,284.416 500.339,283.479 500.626,282.223C500.912,280.966 501.056,277.032 501.056,270.42L501.056,254.286C501.056,247.983 500.934,244.159 500.692,242.814C500.45,241.47 499.744,240.456 498.576,239.773C497.408,239.089 495.237,238.748 492.063,238.748L492.063,235.706C496.912,235.177 501.871,234.163 506.94,232.665Z" style="fill:rgb(71,47,25);fill-rule:nonzero;stroke:rgb(71,47,25);stroke-width:3.4px;"/>
                            <path d="M611.082,240.599L611.082,219.44C611.082,213.666 611.004,210.029 610.85,208.53C610.696,207.032 610.068,205.885 608.966,205.092C607.864,204.299 605.902,203.902 603.081,203.902L601.692,203.902L601.692,200.86C607.026,200.728 612.867,199.802 619.214,198.083L620.603,198.083L620.603,270.883C620.603,277.186 620.713,281.021 620.934,282.388C621.154,283.754 621.848,284.768 623.016,285.429C624.185,286.091 626.356,286.421 629.529,286.421L629.529,289.463C623.138,289.595 617.451,290.168 612.47,291.182C611.941,289.11 611.677,285.848 611.677,281.396C608.415,284.658 605.053,287.105 601.593,288.736C598.133,290.367 594.551,291.182 590.848,291.182C583.84,291.182 577.789,288.361 572.698,282.718C567.607,277.076 565.061,270.244 565.061,262.221C565.061,253.405 567.662,246.275 572.863,240.831C578.065,235.387 584.258,232.665 591.444,232.665C595.102,232.665 598.563,233.326 601.825,234.648C605.087,235.971 608.172,237.954 611.082,240.599ZM611.082,244.434C608.172,241.922 605.252,240.037 602.32,238.781C599.389,237.525 596.447,236.896 593.493,236.896C588.512,236.896 584.358,238.814 581.029,242.649C577.701,246.484 576.037,252.743 576.037,261.427C576.037,270.244 577.745,276.746 581.162,280.933C584.578,285.121 588.799,287.215 593.824,287.215C597.174,287.215 600.282,286.421 603.147,284.834C606.012,283.247 608.657,280.867 611.082,277.693L611.082,244.434Z" style="fill:rgb(71,47,25);fill-rule:nonzero;stroke:rgb(71,47,25);stroke-width:3.4px;"/>
                            <path d="M684.873,253.162L647.118,253.162C646.941,255.763 646.853,257.703 646.853,258.981C646.853,268.502 648.341,275.655 651.316,280.437C654.292,285.22 658.733,287.611 664.64,287.611C672.663,287.611 678.349,284.019 681.699,276.834L684.873,276.834C683.462,281.33 680.663,284.845 676.476,287.38C672.288,289.915 667.726,291.182 662.788,291.182C658.204,291.182 653.873,290.025 649.796,287.711C645.718,285.396 642.379,282.123 639.778,277.892C637.177,273.66 635.877,268.524 635.877,262.485C635.877,253.934 638.39,246.826 643.415,241.161C648.44,235.497 654.722,232.665 662.259,232.665C669.356,232.665 674.845,234.825 678.724,239.145C682.603,243.464 684.653,248.137 684.873,253.162ZM673.302,250.517C673.434,249.504 673.5,248.6 673.5,247.806C673.5,243.927 672.365,240.919 670.095,238.781C667.825,236.643 665.037,235.574 661.731,235.574C653.708,235.574 648.925,240.555 647.382,250.517L673.302,250.517Z" style="fill:rgb(71,47,25);fill-rule:nonzero;stroke:rgb(71,47,25);stroke-width:3.4px;"/>
                            <path d="M712.578,246.484C714.077,242.561 716.512,239.277 719.884,236.632C723.256,233.987 726.551,232.665 729.769,232.665C732.679,232.665 734.971,233.568 736.646,235.376C738.321,237.183 739.159,239.034 739.159,240.93C739.159,242.208 738.729,243.31 737.869,244.236C737.01,245.162 735.963,245.624 734.728,245.624C732.524,245.624 730.849,243.993 729.703,240.731C728.91,238.527 727.72,237.425 726.133,237.425C724.237,237.425 721.967,238.715 719.322,241.293C716.677,243.872 714.98,246.55 714.231,249.327C713.481,252.104 713.107,255.917 713.107,260.766L713.107,270.42C713.107,276.195 713.184,279.831 713.338,281.33C713.492,282.829 714.121,283.975 715.223,284.768C716.325,285.562 718.286,285.958 721.107,285.958L722.959,285.958L722.959,289L694.196,289L694.196,285.958L695.585,285.958C698.229,285.958 700.114,285.595 701.238,284.867C702.362,284.14 703.034,283.115 703.255,281.793C703.475,280.47 703.585,276.679 703.585,270.42L703.585,255.146C703.585,249.327 703.508,245.68 703.354,244.203C703.2,242.726 702.571,241.58 701.469,240.764C700.367,239.949 698.406,239.541 695.585,239.541L694.196,239.541L694.196,236.566C698.34,236.081 703.762,234.781 710.462,232.665C711.74,236.147 712.446,240.753 712.578,246.484Z" style="fill:rgb(71,47,25);fill-rule:nonzero;stroke:rgb(71,47,25);stroke-width:3.4px;"/>
                            <g transform="matrix(1,0,0,1,2.01036,-1.13687e-13)">
                                <path d="M746.234,290.719L746.234,272.933L748.812,272.933C751.81,283.203 757.166,288.339 764.88,288.339C768.23,288.339 770.732,287.325 772.385,285.297C774.038,283.269 774.864,281.043 774.864,278.619C774.864,275.798 773.982,273.484 772.219,271.676C770.412,269.869 766.908,267.687 761.706,265.13C756.24,262.441 752.317,259.796 749.936,257.196C747.556,254.639 746.366,251.487 746.366,247.74C746.366,244.17 747.644,240.764 750.201,237.525C752.758,234.285 756.35,232.665 760.979,232.665C765.695,232.665 769.596,234.582 772.682,238.417C773.343,237.756 774.203,236.147 775.261,233.59L777.707,233.59L777.707,250.319L775.261,250.319C774.379,246.308 772.671,242.858 770.136,239.971C767.602,237.084 764.615,235.64 761.177,235.64C758.532,235.64 756.394,236.456 754.763,238.087C753.132,239.718 752.317,241.613 752.317,243.773C752.317,246.153 753.22,248.203 755.028,249.922C756.791,251.686 760.163,253.691 765.144,255.939C772.638,259.334 777.222,262.64 778.898,265.858C780.573,269.12 781.41,272.249 781.41,275.247C781.41,279.963 779.856,283.798 776.749,286.752C773.641,289.705 769.729,291.182 765.012,291.182C760.031,291.182 755.601,289.132 751.722,285.033C750.531,286.355 749.562,288.251 748.812,290.719L746.234,290.719Z" style="fill:rgb(71,47,25);fill-rule:nonzero;stroke:rgb(71,47,25);stroke-width:3.4px;"/>
                            </g>
                            <g transform="matrix(1,0,0,1,2.01036,-1.13687e-13)">
                                <path d="M824.786,261.824C824.786,253.537 827.563,246.605 833.117,241.029C838.671,235.453 845.504,232.665 853.615,232.665C861.77,232.665 868.624,235.464 874.178,241.062C879.733,246.66 882.51,253.581 882.51,261.824C882.51,270.949 879.688,278.123 874.046,283.347C868.404,288.57 861.593,291.182 853.615,291.182C845.636,291.182 838.837,288.526 833.216,283.214C827.596,277.903 824.786,270.773 824.786,261.824ZM835.762,262.155C835.762,271.764 837.327,278.498 840.456,282.355C843.586,286.212 847.972,288.14 853.615,288.14C859.389,288.14 863.808,286.212 866.872,282.355C869.936,278.498 871.467,271.764 871.467,262.155C871.467,252.633 869.947,245.845 866.905,241.789C863.863,237.734 859.433,235.706 853.615,235.706C847.84,235.706 843.421,237.723 840.357,241.756C837.294,245.79 835.762,252.589 835.762,262.155Z" style="fill:rgb(71,47,25);fill-rule:nonzero;stroke:rgb(71,47,25);stroke-width:3.4px;"/>
                            </g>
                            <g transform="matrix(1,0,0,1,2.01036,-1.13687e-13)">
                                <path d="M920.397,234.847L920.397,237.888L909.09,237.888L909.09,270.42C909.09,276.195 909.168,279.831 909.322,281.33C909.476,282.829 910.104,283.975 911.206,284.768C912.308,285.562 914.27,285.958 917.091,285.958L919.934,285.958L919.934,289L890.643,289L890.643,285.958C893.684,285.958 895.789,285.65 896.957,285.033C898.125,284.416 898.853,283.479 899.139,282.223C899.426,280.966 899.569,277.032 899.569,270.42L899.569,237.888L889.452,237.888L889.452,234.847L899.569,234.847L899.569,229.954C899.569,224.488 899.789,220.256 900.23,217.258C900.671,214.261 901.916,211.164 903.966,207.968C906.016,204.772 908.595,202.315 911.702,200.596C914.81,198.877 918.502,198.017 922.778,198.017C927.979,198.017 932.145,199.097 935.274,201.257C938.404,203.417 939.969,205.621 939.969,207.869C939.969,209.147 939.528,210.205 938.647,211.043C937.765,211.88 936.729,212.299 935.539,212.299C933.203,212.299 931.065,210.492 929.125,206.877C926.965,202.91 924.166,200.926 920.728,200.926C917.951,200.926 915.515,201.929 913.421,203.935C911.328,205.941 910.082,208.442 909.686,211.44C909.289,214.437 909.09,220.873 909.09,230.747L909.09,234.847L920.397,234.847Z" style="fill:rgb(71,47,25);fill-rule:nonzero;stroke:rgb(71,47,25);stroke-width:3.4px;"/>
                            </g>
                        </g>
                        <g transform="matrix(0.968171,0,0,0.968171,-603.232,167.108)">
                            <g transform="matrix(1,0,0,1,-4.02072,-1.13687e-13)">
                                <path d="M990.284,216.704C992.212,212.168 995.586,208.539 1000.41,205.817C1005.23,203.095 1010.7,201.961 1016.82,202.415C1023.28,202.755 1028.62,204.711 1032.81,208.284C1037.01,211.856 1038.6,216.931 1037.57,223.508C1036.55,230.766 1032.36,234.395 1024.99,234.395C1021.92,234.395 1020.28,233.97 1020.05,233.119C1019.83,232.269 1020.73,230.426 1022.77,227.591C1026.4,222.261 1027.48,217.498 1026.01,213.302C1024.53,209.106 1021.07,206.894 1015.63,206.668C1005.08,206.101 998.903,209.503 997.088,216.874C995.274,224.699 1000.49,231.957 1012.74,238.648C1031.11,248.741 1038.2,260.705 1034,274.541C1032.19,280.551 1028.53,284.974 1023.03,287.809C1017.53,290.644 1011.15,291.835 1003.89,291.382C997.315,291.041 991.39,288.688 986.116,284.322C980.843,279.956 978.66,274.484 979.567,267.907C980.588,260.649 984.784,257.02 992.155,257.02C995.331,257.02 997.003,257.445 997.173,258.295C997.344,259.146 996.408,260.989 994.367,263.824C990.965,269.154 990.483,274.286 992.921,279.219C995.359,284.152 999.3,286.789 1004.74,287.129C1010.19,287.469 1014.72,286.59 1018.35,284.492C1021.98,282.394 1024.36,279.077 1025.5,274.541C1027.08,266.035 1020.51,257.473 1005.76,248.854C1000.43,245.793 996.323,242.362 993.431,238.563C990.539,234.764 988.98,231.078 988.753,227.506C988.526,223.934 989.037,220.333 990.284,216.704Z" style="fill:rgb(71,47,25);fill-rule:nonzero;"/>
                            </g>
                            <g transform="matrix(1,0,0,1,2.01036,-1.13687e-13)">
                                <path d="M1075.92,237.888L1059.59,237.888L1059.59,270.618C1059.59,275.643 1059.81,279.027 1060.25,280.768C1060.69,282.509 1061.63,283.909 1063.07,284.967C1064.5,286.025 1066.03,286.554 1067.66,286.554C1070.83,286.554 1073.59,284.746 1075.92,281.132L1078.04,282.388C1076.67,285.297 1074.66,287.49 1071.99,288.967C1069.32,290.444 1066.62,291.182 1063.89,291.182C1060.72,291.182 1057.93,290.245 1055.53,288.372C1053.12,286.498 1051.63,284.305 1051.03,281.793C1050.43,279.28 1050.14,274.872 1050.14,268.569L1050.14,237.888L1042.27,237.888L1042.27,234.847C1045.88,234.758 1049.12,233.238 1051.99,230.284C1054.85,227.331 1056.68,223.187 1057.48,217.853L1059.59,217.853L1059.59,234.847L1075.92,234.847L1075.92,237.888Z" style="fill:rgb(71,47,25);fill-rule:nonzero;stroke:rgb(71,47,25);stroke-width:3.4px;"/>
                            </g>
                            <g transform="matrix(1,0,0,1,4.02072,-1.13687e-13)">
                                <path d="M1100.79,246.484C1102.29,242.561 1104.72,239.277 1108.09,236.632C1111.46,233.987 1114.76,232.665 1117.98,232.665C1120.89,232.665 1123.18,233.568 1124.86,235.376C1126.53,237.183 1127.37,239.034 1127.37,240.93C1127.37,242.208 1126.94,243.31 1126.08,244.236C1125.22,245.162 1124.17,245.624 1122.94,245.624C1120.73,245.624 1119.06,243.993 1117.91,240.731C1117.12,238.527 1115.93,237.425 1114.34,237.425C1112.45,237.425 1110.18,238.715 1107.53,241.293C1104.89,243.872 1103.19,246.55 1102.44,249.327C1101.69,252.104 1101.32,255.917 1101.32,260.766L1101.32,270.42C1101.32,276.195 1101.39,279.831 1101.55,281.33C1101.7,282.829 1102.33,283.975 1103.43,284.768C1104.53,285.562 1106.5,285.958 1109.32,285.958L1111.17,285.958L1111.17,289L1082.4,289L1082.4,285.958L1083.79,285.958C1086.44,285.958 1088.32,285.595 1089.45,284.867C1090.57,284.14 1091.24,283.115 1091.46,281.793C1091.68,280.47 1091.79,276.679 1091.79,270.42L1091.79,255.146C1091.79,249.327 1091.72,245.68 1091.56,244.203C1091.41,242.726 1090.78,241.58 1089.68,240.764C1088.58,239.949 1086.62,239.541 1083.79,239.541L1082.4,239.541L1082.4,236.566C1086.55,236.081 1091.97,234.781 1098.67,232.665C1099.95,236.147 1100.65,240.753 1100.79,246.484Z" style="fill:rgb(71,47,25);fill-rule:nonzero;stroke:rgb(71,47,25);stroke-width:3.4px;"/>
                            </g>
                            <g transform="matrix(1,0,0,1,4.02072,-1.13687e-13)">
                                <path d="M1180.4,253.162L1142.64,253.162C1142.46,255.763 1142.38,257.703 1142.38,258.981C1142.38,268.502 1143.87,275.655 1146.84,280.437C1149.82,285.22 1154.26,287.611 1160.16,287.611C1168.19,287.611 1173.87,284.019 1177.22,276.834L1180.4,276.834C1178.99,281.33 1176.19,284.845 1172,287.38C1167.81,289.915 1163.25,291.182 1158.31,291.182C1153.73,291.182 1149.4,290.025 1145.32,287.711C1141.24,285.396 1137.9,282.123 1135.3,277.892C1132.7,273.66 1131.4,268.524 1131.4,262.485C1131.4,253.934 1133.91,246.826 1138.94,241.161C1143.96,235.497 1150.25,232.665 1157.78,232.665C1164.88,232.665 1170.37,234.825 1174.25,239.145C1178.13,243.464 1180.18,248.137 1180.4,253.162ZM1168.83,250.517C1168.96,249.504 1169.02,248.6 1169.02,247.806C1169.02,243.927 1167.89,240.919 1165.62,238.781C1163.35,236.643 1160.56,235.574 1157.25,235.574C1149.23,235.574 1144.45,240.555 1142.91,250.517L1168.83,250.517Z" style="fill:rgb(71,47,25);fill-rule:nonzero;stroke:rgb(71,47,25);stroke-width:3.4px;"/>
                            </g>
                            <g transform="matrix(1,0,0,1,4.02072,-1.13687e-13)">
                                <path d="M1239.64,253.162L1201.89,253.162C1201.71,255.763 1201.62,257.703 1201.62,258.981C1201.62,268.502 1203.11,275.655 1206.09,280.437C1209.06,285.22 1213.5,287.611 1219.41,287.611C1227.43,287.611 1233.12,284.019 1236.47,276.834L1239.64,276.834C1238.23,281.33 1235.43,284.845 1231.24,287.38C1227.06,289.915 1222.49,291.182 1217.56,291.182C1212.97,291.182 1208.64,290.025 1204.56,287.711C1200.49,285.396 1197.15,282.123 1194.55,277.892C1191.95,273.66 1190.65,268.524 1190.65,262.485C1190.65,253.934 1193.16,246.826 1198.18,241.161C1203.21,235.497 1209.49,232.665 1217.03,232.665C1224.12,232.665 1229.61,234.825 1233.49,239.145C1237.37,243.464 1239.42,248.137 1239.64,253.162ZM1228.07,250.517C1228.2,249.504 1228.27,248.6 1228.27,247.806C1228.27,243.927 1227.13,240.919 1224.86,238.781C1222.59,236.643 1219.81,235.574 1216.5,235.574C1208.48,235.574 1203.69,240.555 1202.15,250.517L1228.07,250.517Z" style="fill:rgb(71,47,25);fill-rule:nonzero;stroke:rgb(71,47,25);stroke-width:3.4px;"/>
                            </g>
                            <g transform="matrix(1,0,0,1,4.02072,-1.13687e-13)">
                                <path d="M1281.96,237.888L1265.63,237.888L1265.63,270.618C1265.63,275.643 1265.85,279.027 1266.29,280.768C1266.73,282.509 1267.67,283.909 1269.1,284.967C1270.53,286.025 1272.06,286.554 1273.69,286.554C1276.87,286.554 1279.62,284.746 1281.96,281.132L1284.08,282.388C1282.71,285.297 1280.69,287.49 1278.03,288.967C1275.36,290.444 1272.66,291.182 1269.92,291.182C1266.75,291.182 1263.96,290.245 1261.56,288.372C1259.16,286.498 1257.66,284.305 1257.07,281.793C1256.47,279.28 1256.17,274.872 1256.17,268.569L1256.17,237.888L1248.3,237.888L1248.3,234.847C1251.92,234.758 1255.16,233.238 1258.02,230.284C1260.89,227.331 1262.72,223.187 1263.51,217.853L1265.63,217.853L1265.63,234.847L1281.96,234.847L1281.96,237.888Z" style="fill:rgb(71,47,25);fill-rule:nonzero;stroke:rgb(71,47,25);stroke-width:3.4px;"/>
                            </g>
                            <g transform="matrix(1,0,0,1,2.01036,-1.13687e-13)">
                                <path d="M1397.06,222.998C1397.06,231.73 1396.24,239.839 1394.59,247.324C1392.95,254.808 1390.85,261.046 1388.3,266.035C1385.75,271.025 1382.85,275.335 1379.62,278.964C1376.39,282.593 1373.24,285.286 1370.18,287.044C1367.12,288.802 1364.23,289.907 1361.51,290.361C1356.74,291.041 1353.06,289.057 1350.45,284.407C1347.84,279.757 1346.54,270.912 1346.54,257.87C1346.54,236.89 1346.05,223.111 1345.09,216.534C1344.13,209.956 1342.06,206.668 1338.88,206.668C1337.18,206.668 1335.59,207.32 1334.12,208.624C1332.64,209.928 1331.54,211.601 1330.8,213.642C1330.06,215.683 1329.95,218.093 1330.46,220.872C1330.97,223.65 1332.25,226.344 1334.29,228.952C1336.56,231.674 1337.63,233.431 1337.52,234.225C1337.41,235.019 1335.82,235.643 1332.76,236.096C1329.81,236.437 1327.26,235.699 1325.1,233.885C1322.95,232.07 1321.42,229.405 1320.51,225.89C1318.92,219.766 1320.28,214.379 1324.59,209.73C1328.9,205.08 1333.83,202.755 1339.39,202.755C1344.04,202.755 1347.64,204.031 1350.19,206.583C1352.75,209.134 1354.79,214.493 1356.32,222.658C1357.85,230.823 1358.61,242.56 1358.61,257.87C1358.61,265.128 1358.95,270.77 1359.63,274.796C1360.31,278.822 1361.08,281.317 1361.93,282.281C1362.78,283.245 1363.94,283.67 1365.42,283.557C1371.2,282.99 1375.94,277.716 1379.62,267.736C1383.31,257.757 1385.15,243.524 1385.15,225.039C1385.15,224.132 1385.12,222.686 1385.07,220.702C1385.01,218.717 1384.98,217.243 1384.98,216.279C1384.98,215.315 1385.09,214.039 1385.32,212.451C1385.55,210.864 1385.89,209.616 1386.34,208.709C1386.8,207.802 1387.5,206.866 1388.47,205.902C1389.43,204.938 1390.59,204.116 1391.95,203.436C1394.56,202.188 1396.15,202.273 1396.72,203.691C1397.29,205.108 1397.45,208.539 1397.23,213.982L1397.23,216.279C1397.23,216.789 1397.2,217.214 1397.14,217.555C1397.09,217.895 1397.06,218.32 1397.06,218.83L1397.06,222.998Z" style="fill:rgb(71,47,25);fill-rule:nonzero;"/>
                            </g>
                            <g transform="matrix(1,0,0,1,12.0622,-1.13687e-13)">
                                <path d="M1408.16,205.026C1408.16,203.13 1408.83,201.499 1410.17,200.133C1411.52,198.766 1413.14,198.083 1415.03,198.083C1416.93,198.083 1418.54,198.766 1419.86,200.133C1421.18,201.499 1421.85,203.13 1421.85,205.026C1421.85,206.965 1421.18,208.618 1419.86,209.985C1418.54,211.352 1416.93,212.035 1415.03,212.035C1413.14,212.035 1411.52,211.352 1410.17,209.985C1408.83,208.618 1408.16,206.965 1408.16,205.026ZM1420.92,232.665L1420.92,270.42C1420.92,276.195 1421.01,279.831 1421.18,281.33C1421.36,282.829 1422,283.975 1423.1,284.768C1424.2,285.562 1426.16,285.958 1428.99,285.958L1430.37,285.958L1430.37,289L1401.21,289L1401.21,285.958L1403.46,285.958C1406.59,285.958 1408.63,285.507 1409.58,284.603C1410.53,283.699 1411.08,282.619 1411.23,281.363C1411.39,280.107 1411.46,276.459 1411.46,270.42L1411.46,254.022C1411.46,247.674 1411.17,243.795 1410.57,242.384C1409.98,240.974 1409.18,240.092 1408.19,239.74C1407.2,239.387 1405.47,239.211 1403,239.211L1401.21,239.211L1401.21,236.169C1409.06,235.376 1415.14,234.207 1419.46,232.665L1420.92,232.665Z" style="fill:rgb(71,47,25);fill-rule:nonzero;stroke:rgb(71,47,25);stroke-width:3.4px;"/>
                            </g>
                            <g transform="matrix(1,0,0,1,12.0622,-1.13687e-13)">
                                <path d="M1487.04,253.162L1449.29,253.162C1449.11,255.763 1449.02,257.703 1449.02,258.981C1449.02,268.502 1450.51,275.655 1453.48,280.437C1456.46,285.22 1460.9,287.611 1466.81,287.611C1474.83,287.611 1480.52,284.019 1483.87,276.834L1487.04,276.834C1485.63,281.33 1482.83,284.845 1478.64,287.38C1474.45,289.915 1469.89,291.182 1464.96,291.182C1460.37,291.182 1456.04,290.025 1451.96,287.711C1447.89,285.396 1444.55,282.123 1441.95,277.892C1439.35,273.66 1438.04,268.524 1438.04,262.485C1438.04,253.934 1440.56,246.826 1445.58,241.161C1450.61,235.497 1456.89,232.665 1464.43,232.665C1471.52,232.665 1477.01,234.825 1480.89,239.145C1484.77,243.464 1486.82,248.137 1487.04,253.162ZM1475.47,250.517C1475.6,249.504 1475.67,248.6 1475.67,247.806C1475.67,243.927 1474.53,240.919 1472.26,238.781C1469.99,236.643 1467.2,235.574 1463.9,235.574C1455.88,235.574 1451.09,240.555 1449.55,250.517L1475.47,250.517Z" style="fill:rgb(71,47,25);fill-rule:nonzero;stroke:rgb(71,47,25);stroke-width:3.4px;"/>
                            </g>
                            <g transform="matrix(1,0,0,1,12.0622,-1.13687e-13)">
                                <path d="M1557.19,291.116L1554.22,291.116L1538.09,248.137L1521.62,291.116L1518.71,291.116L1502.18,248.137C1500.29,243.244 1498.88,240.313 1497.95,239.343C1497.03,238.373 1495.17,237.888 1492.4,237.888L1492.4,234.847L1517.13,234.847L1517.13,237.888C1514.35,237.888 1512.45,238.142 1511.44,238.649C1510.42,239.156 1509.92,240.026 1509.92,241.26C1509.92,242.142 1510.78,244.721 1512.5,248.997L1523.47,278.024L1540.27,234.847L1542.85,234.847L1559.11,278.024L1571.01,247.277C1572.29,244.015 1572.93,242.054 1572.93,241.393C1572.93,239.233 1570.71,238.065 1566.25,237.888L1566.25,234.847L1583.84,234.847L1583.84,237.888C1581.73,237.932 1580.06,238.34 1578.85,239.111C1577.64,239.883 1576.53,241.613 1575.51,244.302L1574.06,248.137L1557.19,291.116Z" style="fill:rgb(71,47,25);fill-rule:nonzero;stroke:rgb(71,47,25);stroke-width:3.4px;"/>
                            </g>
                        </g>
                    </g>
                    <g transform="matrix(1,0,0,0.858179,10.5593,-1651.8)">
                        <path d="M105.326,2099C115.367,2089.05 153.611,2093.07 186,2099C217.915,2104.84 266.146,2100.89 300,2099C336.731,2096.95 378.492,2090.43 389.441,2099C396.526,2104.55 389.441,2120 389.441,2120L105.326,2120C105.326,2120 98.934,2105.34 105.326,2099Z" style="fill:rgb(206,184,156);"/>
                    </g>
                </g>
                <path d="M400,75.792C400,71.013 395.479,67.133 389.91,67.133L125.976,67.133C120.407,67.133 115.886,71.013 115.886,75.792L115.886,148.836C115.886,153.615 120.407,157.495 125.976,157.495L389.91,157.495C395.479,157.495 400,153.615 400,148.836L400,75.792Z" style="fill:none;stroke:rgb(71,47,25);stroke-width:1.84px;stroke-linecap:round;stroke-miterlimit:1.5;"/>
            </g>
        </g>
    </g>
</svg>
