<svg xmlns="http://www.w3.org/2000/svg" xmlns:xlink="http://www.w3.org/1999/xlink" viewBox="0,0,256,256" width="30px" height="30px" fill-rule="nonzero"><g fill="#472f19" fill-rule="nonzero" stroke="none" stroke-width="1" stroke-linecap="butt" stroke-linejoin="miter" stroke-miterlimit="10" stroke-dasharray="" stroke-dashoffset="0" font-family="none" font-weight="none" font-size="none" text-anchor="none" style="mix-blend-mode: normal"><g transform="scale(8.53333,8.53333)"><path d="M15,3c-1.65685,0 -3,1.34315 -3,3c0,1.65685 1.34315,3 3,3c1.65685,0 3,-1.34315 3,-3c0,-1.65685 -1.34315,-3 -3,-3zM12,12c-0.552,0 -1,0.448 -1,1c0,0.552 0.448,1 1,1h1v11h-1c-0.552,0 -1,0.448 -1,1c0,0.552 0.448,1 1,1h6c0.552,0 1,-0.448 1,-1c0,-0.552 -0.448,-1 -1,-1h-1v-12c0,-0.552 -0.448,-1 -1,-1h-3z"></path></g></g></svg>