<?xml version="1.0" encoding="UTF-8" standalone="no"?>
<!DOCTYPE svg PUBLIC "-//W3C//DTD SVG 1.1//EN" "http://www.w3.org/Graphics/SVG/1.1/DTD/svg11.dtd">
<svg width="100%" height="100%" viewBox="0 0 848 434" version="1.1" xmlns="http://www.w3.org/2000/svg" xmlns:xlink="http://www.w3.org/1999/xlink" xml:space="preserve" xmlns:serif="http://www.serif.com/" style="fill-rule:evenodd;clip-rule:evenodd;stroke-linejoin:round;stroke-miterlimit:2;">
    <g transform="matrix(1,0,0,1,-2068,-3622)">
        <g transform="matrix(1,0,0,1,-0.529365,-0.386706)">
            <g transform="matrix(1.25194,0,0,2.38935,1983.9,-806.238)">
                <g transform="matrix(0.921359,0,0,0.529503,-93.7859,877.443)">
                    <path d="M905.287,1863.71C905.287,1854.63 897.203,1847.26 887.246,1847.26L197.535,1847.26C187.577,1847.26 179.494,1854.63 179.494,1863.71L179.494,2165.52C179.494,2174.6 187.577,2181.97 197.535,2181.97L887.246,2181.97C897.203,2181.97 905.287,2174.6 905.287,2165.52L905.287,1863.71Z" style="fill:white;"/>
                    <clipPath id="_clip1">
                        <path d="M905.287,1863.71C905.287,1854.63 897.203,1847.26 887.246,1847.26L197.535,1847.26C187.577,1847.26 179.494,1854.63 179.494,1863.71L179.494,2165.52C179.494,2174.6 187.577,2181.97 197.535,2181.97L887.246,2181.97C897.203,2181.97 905.287,2174.6 905.287,2165.52L905.287,1863.71Z"/>
                    </clipPath>
                    <g clip-path="url(#_clip1)">
                        <g transform="matrix(0.864068,0,0,0.866082,-1613.89,-1326.3)">
                            <path d="M2893,3700.3C2893,3691.86 2885.46,3685 2876.18,3685L2114.82,3685C2105.54,3685 2098,3691.86 2098,3700.3L2098,4014.7C2098,4023.14 2105.54,4030 2114.82,4030L2876.18,4030C2885.46,4030 2893,4023.14 2893,4014.7L2893,3700.3Z" style="fill:white;"/>
                            <path d="M2899.02,3700.3C2899.02,3688.84 2888.78,3679.52 2876.18,3679.52L2114.82,3679.52C2102.22,3679.52 2091.98,3688.84 2091.98,3700.3C2091.98,3700.3 2091.98,4014.7 2091.98,4014.7C2091.98,4026.16 2102.22,4035.48 2114.82,4035.48L2876.18,4035.48C2888.78,4035.48 2899.02,4026.16 2899.02,4014.7L2899.02,3700.3ZM2893,3700.3C2893,3691.86 2885.46,3685 2876.18,3685L2114.82,3685C2105.54,3685 2098,3691.86 2098,3700.3L2098,4014.7C2098,4023.14 2105.54,4030 2114.82,4030L2876.18,4030C2885.46,4030 2893,4023.14 2893,4014.7L2893,3700.3Z"/>
                        </g>
                    </g>
                    <path d="M909.622,1863.71C909.622,1852.45 899.596,1843.31 887.246,1843.31L197.535,1843.31C185.185,1843.31 175.159,1852.45 175.159,1863.71C175.159,1863.71 175.159,2165.52 175.159,2165.52C175.159,2176.78 185.185,2185.92 197.535,2185.92C197.535,2185.92 887.246,2185.92 887.246,2185.92C899.596,2185.92 909.622,2176.78 909.622,2165.52C909.622,2165.52 909.622,1863.71 909.622,1863.71ZM905.287,1863.71C905.287,1854.63 897.203,1847.26 887.246,1847.26L197.535,1847.26C187.577,1847.26 179.494,1854.63 179.494,1863.71L179.494,2165.52C179.494,2174.6 187.577,2181.97 197.535,2181.97L887.246,2181.97C897.203,2181.97 905.287,2174.6 905.287,2165.52L905.287,1863.71Z"/>
                </g>
            </g>
        </g>
        <g transform="matrix(1,0,0,1,-0.529365,-0.386706)">
            <g transform="matrix(1.26738,0,0,1.31403,-599.078,-1205.89)">
                <g transform="matrix(82.9932,0,0,82.9932,2233,3810)">
                    <path d="M0,-0L0.121,-0.735L0.259,-0.735C0.282,-0.735 0.305,-0.733 0.328,-0.729C0.35,-0.724 0.371,-0.717 0.39,-0.707C0.409,-0.696 0.425,-0.683 0.439,-0.666C0.452,-0.649 0.462,-0.63 0.469,-0.609C0.476,-0.588 0.479,-0.566 0.48,-0.543C0.48,-0.52 0.478,-0.497 0.474,-0.474L0.431,-0.212C0.428,-0.192 0.422,-0.172 0.415,-0.153C0.408,-0.134 0.398,-0.115 0.385,-0.098C0.372,-0.081 0.357,-0.066 0.34,-0.053C0.323,-0.04 0.304,-0.029 0.285,-0.021C0.266,-0.013 0.246,-0.008 0.226,-0.005C0.206,-0.002 0.186,-0 0.166,-0L0,-0ZM0.166,-0.114C0.176,-0.114 0.186,-0.115 0.197,-0.117C0.207,-0.119 0.217,-0.122 0.227,-0.127C0.237,-0.132 0.246,-0.138 0.254,-0.146C0.262,-0.153 0.269,-0.162 0.275,-0.171C0.28,-0.18 0.285,-0.19 0.288,-0.2C0.291,-0.21 0.294,-0.22 0.296,-0.231L0.339,-0.493C0.341,-0.503 0.342,-0.513 0.343,-0.524C0.343,-0.534 0.342,-0.544 0.341,-0.554C0.339,-0.563 0.336,-0.573 0.332,-0.582C0.327,-0.591 0.321,-0.598 0.314,-0.604C0.307,-0.61 0.298,-0.614 0.288,-0.617C0.278,-0.62 0.268,-0.621 0.258,-0.621L0.241,-0.621L0.157,-0.114L0.166,-0.114Z" style="fill-rule:nonzero;"/>
                </g>
                <g transform="matrix(82.9932,0,0,82.9932,2274.5,3810)">
                    <path d="M0.132,0.008C0.115,0.008 0.099,0.005 0.084,-0.003C0.069,-0.01 0.057,-0.02 0.049,-0.033C0.04,-0.046 0.033,-0.06 0.029,-0.076C0.025,-0.091 0.023,-0.107 0.022,-0.124C0.021,-0.14 0.021,-0.157 0.023,-0.174C0.024,-0.191 0.026,-0.208 0.029,-0.225L0.049,-0.345C0.051,-0.36 0.054,-0.374 0.059,-0.389C0.063,-0.403 0.069,-0.417 0.076,-0.431C0.083,-0.445 0.091,-0.458 0.102,-0.471C0.112,-0.483 0.124,-0.493 0.137,-0.502C0.15,-0.511 0.164,-0.517 0.179,-0.522C0.194,-0.526 0.208,-0.528 0.223,-0.528C0.236,-0.528 0.249,-0.526 0.261,-0.522C0.273,-0.518 0.283,-0.512 0.292,-0.503C0.3,-0.494 0.306,-0.484 0.311,-0.473C0.316,-0.462 0.319,-0.45 0.322,-0.438L0.336,-0.52L0.474,-0.52L0.408,-0.124C0.407,-0.119 0.409,-0.115 0.412,-0.112C0.415,-0.108 0.418,-0.106 0.423,-0.106L0.44,-0.106L0.44,0.008L0.404,0.008C0.389,0.008 0.374,0.007 0.359,0.004C0.343,0.001 0.33,-0.004 0.317,-0.011C0.304,-0.018 0.294,-0.027 0.285,-0.039C0.276,-0.051 0.271,-0.064 0.269,-0.079C0.262,-0.066 0.253,-0.055 0.244,-0.044C0.234,-0.033 0.223,-0.023 0.211,-0.015C0.199,-0.007 0.186,-0.001 0.173,0.003C0.159,0.006 0.145,0.008 0.132,0.008ZM0.208,-0.106C0.217,-0.106 0.226,-0.108 0.235,-0.112C0.244,-0.115 0.251,-0.121 0.258,-0.128C0.264,-0.135 0.269,-0.143 0.272,-0.152C0.275,-0.161 0.278,-0.169 0.279,-0.178L0.299,-0.298C0.3,-0.306 0.302,-0.314 0.303,-0.322C0.304,-0.33 0.304,-0.338 0.304,-0.346C0.304,-0.353 0.304,-0.361 0.303,-0.369C0.302,-0.376 0.3,-0.384 0.297,-0.391C0.294,-0.398 0.29,-0.403 0.284,-0.408C0.278,-0.412 0.271,-0.414 0.263,-0.414C0.253,-0.414 0.243,-0.411 0.233,-0.406C0.223,-0.401 0.215,-0.394 0.208,-0.385C0.201,-0.376 0.195,-0.367 0.192,-0.357C0.188,-0.346 0.185,-0.336 0.184,-0.326L0.164,-0.206C0.163,-0.199 0.162,-0.191 0.161,-0.184C0.16,-0.177 0.16,-0.17 0.161,-0.163C0.162,-0.156 0.163,-0.149 0.165,-0.142C0.166,-0.135 0.169,-0.128 0.173,-0.123C0.176,-0.118 0.181,-0.114 0.188,-0.111C0.194,-0.108 0.201,-0.106 0.208,-0.106Z" style="fill-rule:nonzero;"/>
                </g>
                <g transform="matrix(82.9932,0,0,82.9932,2315.99,3810)">
                    <path d="M0.169,0.223C0.152,0.223 0.136,0.222 0.12,0.22C0.103,0.217 0.088,0.213 0.073,0.207C0.058,0.201 0.045,0.193 0.033,0.184C0.021,0.174 0.011,0.162 0.004,0.148C-0.003,0.134 -0.008,0.119 -0.011,0.103C-0.014,0.086 -0.014,0.07 -0.011,0.054L0.126,0.054C0.125,0.061 0.125,0.068 0.126,0.075C0.127,0.082 0.129,0.089 0.133,0.094C0.137,0.099 0.142,0.103 0.149,0.106C0.156,0.108 0.162,0.109 0.169,0.109C0.18,0.109 0.19,0.106 0.2,0.101C0.209,0.096 0.217,0.089 0.224,0.08C0.231,0.071 0.236,0.062 0.239,0.052C0.242,0.041 0.245,0.031 0.246,0.021L0.258,-0.051C0.253,-0.042 0.247,-0.034 0.24,-0.027C0.233,-0.019 0.226,-0.012 0.217,-0.007C0.208,-0.001 0.199,0.003 0.19,0.005C0.18,0.007 0.17,0.008 0.161,0.008C0.144,0.008 0.127,0.005 0.111,-0.002C0.095,-0.008 0.082,-0.017 0.071,-0.029C0.059,-0.041 0.051,-0.055 0.045,-0.071C0.039,-0.086 0.035,-0.102 0.033,-0.12C0.03,-0.136 0.03,-0.154 0.031,-0.172C0.032,-0.189 0.034,-0.207 0.037,-0.225L0.086,-0.52L0.224,-0.52L0.172,-0.206C0.171,-0.199 0.17,-0.192 0.169,-0.185C0.168,-0.178 0.168,-0.171 0.168,-0.164C0.168,-0.157 0.169,-0.15 0.17,-0.143C0.171,-0.136 0.173,-0.13 0.177,-0.125C0.18,-0.119 0.184,-0.114 0.19,-0.111C0.196,-0.108 0.202,-0.106 0.209,-0.106C0.218,-0.106 0.227,-0.108 0.236,-0.112C0.245,-0.116 0.252,-0.122 0.258,-0.129C0.264,-0.136 0.269,-0.143 0.272,-0.152C0.275,-0.161 0.278,-0.169 0.279,-0.178L0.336,-0.52L0.474,-0.52L0.381,0.04C0.378,0.056 0.374,0.072 0.369,0.089C0.364,0.105 0.356,0.12 0.347,0.135C0.337,0.15 0.325,0.163 0.312,0.175C0.298,0.186 0.283,0.196 0.268,0.203C0.252,0.21 0.236,0.216 0.219,0.219C0.202,0.222 0.186,0.223 0.169,0.223Z" style="fill-rule:nonzero;"/>
                </g>
                <g transform="matrix(82.9932,0,0,82.9932,2357.49,3810)">
                    <path d="M0.206,0.008C0.19,0.008 0.174,0.007 0.158,0.006C0.142,0.004 0.127,0 0.113,-0.005C0.098,-0.01 0.085,-0.016 0.072,-0.025C0.059,-0.033 0.049,-0.043 0.04,-0.056C0.031,-0.068 0.025,-0.082 0.022,-0.098C0.019,-0.113 0.018,-0.129 0.021,-0.144C0.022,-0.145 0.022,-0.147 0.022,-0.148C0.022,-0.149 0.022,-0.151 0.023,-0.152L0.152,-0.152L0.151,-0.15C0.15,-0.143 0.15,-0.135 0.153,-0.128C0.156,-0.121 0.16,-0.115 0.165,-0.111C0.17,-0.106 0.177,-0.103 0.184,-0.102C0.191,-0.1 0.199,-0.099 0.206,-0.099C0.213,-0.099 0.221,-0.099 0.229,-0.101C0.236,-0.101 0.243,-0.103 0.251,-0.107C0.258,-0.11 0.264,-0.114 0.27,-0.12C0.276,-0.125 0.28,-0.132 0.281,-0.139C0.282,-0.15 0.28,-0.159 0.275,-0.168C0.269,-0.177 0.262,-0.184 0.254,-0.19C0.246,-0.195 0.237,-0.2 0.228,-0.204C0.218,-0.208 0.208,-0.212 0.199,-0.215C0.189,-0.218 0.18,-0.222 0.171,-0.227C0.162,-0.231 0.153,-0.236 0.145,-0.242C0.137,-0.247 0.129,-0.254 0.122,-0.261C0.115,-0.268 0.108,-0.275 0.103,-0.283C0.097,-0.291 0.092,-0.3 0.088,-0.309C0.083,-0.318 0.08,-0.327 0.077,-0.337C0.074,-0.347 0.073,-0.357 0.072,-0.368C0.071,-0.378 0.072,-0.388 0.074,-0.399C0.076,-0.413 0.08,-0.426 0.087,-0.439C0.093,-0.452 0.101,-0.463 0.112,-0.474C0.122,-0.485 0.133,-0.494 0.147,-0.501C0.16,-0.507 0.173,-0.513 0.186,-0.517C0.199,-0.521 0.213,-0.524 0.227,-0.526C0.24,-0.527 0.254,-0.528 0.267,-0.528C0.283,-0.528 0.299,-0.527 0.314,-0.526C0.329,-0.524 0.344,-0.521 0.359,-0.516C0.373,-0.51 0.386,-0.504 0.398,-0.495C0.41,-0.486 0.42,-0.476 0.428,-0.464C0.436,-0.451 0.441,-0.437 0.444,-0.422C0.447,-0.407 0.447,-0.391 0.444,-0.376C0.444,-0.375 0.444,-0.373 0.444,-0.372C0.443,-0.371 0.443,-0.369 0.443,-0.368L0.314,-0.368L0.314,-0.371C0.315,-0.378 0.315,-0.384 0.314,-0.391C0.312,-0.398 0.309,-0.403 0.305,-0.408C0.3,-0.413 0.295,-0.416 0.288,-0.418C0.281,-0.42 0.274,-0.421 0.267,-0.421C0.26,-0.421 0.254,-0.42 0.247,-0.42C0.24,-0.419 0.234,-0.417 0.228,-0.414C0.221,-0.411 0.216,-0.406 0.211,-0.401C0.206,-0.395 0.202,-0.389 0.201,-0.382C0.199,-0.371 0.201,-0.362 0.207,-0.353C0.212,-0.343 0.219,-0.336 0.227,-0.331C0.235,-0.325 0.244,-0.32 0.254,-0.317C0.263,-0.313 0.273,-0.309 0.283,-0.306C0.292,-0.302 0.302,-0.298 0.311,-0.294C0.32,-0.29 0.328,-0.285 0.337,-0.28C0.345,-0.274 0.353,-0.268 0.36,-0.261C0.367,-0.254 0.373,-0.246 0.379,-0.238C0.385,-0.229 0.39,-0.221 0.395,-0.212C0.399,-0.203 0.402,-0.194 0.405,-0.184C0.408,-0.173 0.409,-0.163 0.41,-0.153C0.41,-0.142 0.409,-0.132 0.408,-0.121C0.405,-0.1 0.396,-0.08 0.382,-0.062C0.368,-0.044 0.351,-0.03 0.331,-0.019C0.311,-0.008 0.29,-0.001 0.269,0.003C0.248,0.006 0.227,0.008 0.206,0.008Z" style="fill-rule:nonzero;"/>
                </g>
                <g transform="matrix(82.9932,0,0,82.9932,2440.48,3810)">
                    <path d="M0.206,0.008C0.189,0.008 0.171,0.007 0.155,0.005C0.137,0.002 0.121,-0.002 0.106,-0.008C0.09,-0.014 0.076,-0.022 0.063,-0.033C0.05,-0.043 0.04,-0.055 0.033,-0.07C0.025,-0.084 0.02,-0.099 0.017,-0.117C0.014,-0.134 0.014,-0.151 0.017,-0.168C0.018,-0.169 0.018,-0.171 0.018,-0.172C0.018,-0.173 0.018,-0.175 0.019,-0.177L0.156,-0.177C0.156,-0.176 0.156,-0.176 0.156,-0.175C0.155,-0.174 0.155,-0.174 0.155,-0.174C0.154,-0.165 0.154,-0.157 0.155,-0.148C0.156,-0.139 0.158,-0.132 0.163,-0.125C0.168,-0.118 0.174,-0.114 0.182,-0.111C0.189,-0.108 0.197,-0.106 0.206,-0.106C0.216,-0.106 0.226,-0.108 0.236,-0.112C0.245,-0.115 0.254,-0.121 0.262,-0.128C0.269,-0.135 0.275,-0.144 0.279,-0.153C0.283,-0.162 0.286,-0.172 0.288,-0.182C0.29,-0.195 0.29,-0.209 0.287,-0.222C0.284,-0.235 0.28,-0.246 0.273,-0.257C0.266,-0.268 0.259,-0.278 0.25,-0.287C0.241,-0.296 0.232,-0.304 0.223,-0.312C0.214,-0.32 0.204,-0.328 0.195,-0.337C0.186,-0.345 0.177,-0.354 0.169,-0.363C0.16,-0.372 0.152,-0.382 0.145,-0.392C0.137,-0.401 0.13,-0.412 0.124,-0.423C0.117,-0.434 0.112,-0.445 0.107,-0.457C0.102,-0.468 0.099,-0.481 0.096,-0.494C0.093,-0.507 0.092,-0.52 0.092,-0.533C0.091,-0.546 0.092,-0.559 0.094,-0.572C0.097,-0.588 0.101,-0.604 0.108,-0.619C0.114,-0.634 0.122,-0.648 0.132,-0.662C0.141,-0.675 0.153,-0.688 0.166,-0.699C0.179,-0.709 0.194,-0.718 0.209,-0.725C0.224,-0.732 0.24,-0.736 0.256,-0.739C0.271,-0.742 0.287,-0.743 0.303,-0.743C0.32,-0.743 0.336,-0.742 0.353,-0.74C0.37,-0.737 0.386,-0.733 0.401,-0.727C0.416,-0.721 0.429,-0.713 0.441,-0.703C0.453,-0.692 0.463,-0.68 0.471,-0.666C0.478,-0.652 0.483,-0.637 0.485,-0.62C0.487,-0.603 0.487,-0.587 0.484,-0.57C0.484,-0.568 0.484,-0.566 0.484,-0.565C0.483,-0.564 0.483,-0.562 0.483,-0.561L0.346,-0.561L0.346,-0.564C0.347,-0.572 0.348,-0.58 0.347,-0.588C0.346,-0.595 0.344,-0.602 0.341,-0.609C0.337,-0.616 0.332,-0.621 0.325,-0.624C0.318,-0.627 0.311,-0.629 0.303,-0.629C0.294,-0.629 0.284,-0.627 0.276,-0.623C0.267,-0.619 0.259,-0.613 0.253,-0.606C0.246,-0.598 0.241,-0.59 0.238,-0.581C0.234,-0.572 0.231,-0.562 0.229,-0.553C0.227,-0.54 0.227,-0.527 0.23,-0.514C0.233,-0.501 0.237,-0.49 0.244,-0.479C0.25,-0.468 0.257,-0.458 0.266,-0.449C0.275,-0.44 0.284,-0.431 0.294,-0.423C0.303,-0.415 0.313,-0.407 0.322,-0.399C0.331,-0.39 0.339,-0.382 0.348,-0.373C0.357,-0.364 0.365,-0.354 0.373,-0.344C0.38,-0.334 0.387,-0.324 0.394,-0.313C0.4,-0.302 0.405,-0.291 0.41,-0.279C0.415,-0.267 0.418,-0.255 0.421,-0.242C0.424,-0.229 0.425,-0.217 0.426,-0.204C0.426,-0.191 0.425,-0.177 0.423,-0.164C0.42,-0.147 0.416,-0.131 0.409,-0.116C0.402,-0.1 0.394,-0.085 0.384,-0.072C0.373,-0.058 0.361,-0.046 0.347,-0.035C0.333,-0.024 0.318,-0.016 0.303,-0.009C0.287,-0.002 0.271,0.002 0.255,0.005C0.238,0.007 0.222,0.008 0.206,0.008Z" style="fill-rule:nonzero;"/>
                </g>
                <g transform="matrix(82.9932,0,0,82.9932,2481.98,3810)">
                    <path d="M0.292,0.008C0.275,0.008 0.259,0.007 0.243,0.004C0.227,0.001 0.212,-0.005 0.199,-0.013C0.186,-0.02 0.174,-0.03 0.165,-0.043C0.155,-0.055 0.148,-0.068 0.143,-0.083C0.138,-0.098 0.136,-0.113 0.136,-0.13C0.136,-0.147 0.137,-0.163 0.14,-0.18L0.177,-0.406L0.079,-0.406L0.079,-0.52L0.334,-0.52L0.275,-0.161C0.274,-0.156 0.274,-0.15 0.273,-0.145C0.272,-0.139 0.273,-0.133 0.274,-0.128C0.275,-0.123 0.277,-0.118 0.28,-0.113C0.283,-0.108 0.287,-0.106 0.292,-0.106C0.299,-0.106 0.307,-0.107 0.315,-0.11C0.323,-0.113 0.33,-0.117 0.336,-0.123C0.342,-0.128 0.347,-0.135 0.351,-0.142C0.355,-0.149 0.358,-0.156 0.36,-0.164L0.469,-0.145C0.464,-0.125 0.456,-0.106 0.446,-0.087C0.436,-0.068 0.423,-0.051 0.407,-0.036C0.391,-0.021 0.373,-0.01 0.353,-0.003C0.332,0.005 0.312,0.008 0.292,0.008ZM0.289,-0.58C0.274,-0.58 0.261,-0.583 0.248,-0.588C0.235,-0.592 0.224,-0.6 0.216,-0.612C0.207,-0.623 0.202,-0.635 0.2,-0.649C0.198,-0.663 0.198,-0.677 0.2,-0.692C0.202,-0.702 0.206,-0.712 0.211,-0.721C0.216,-0.729 0.222,-0.737 0.231,-0.744C0.24,-0.75 0.249,-0.754 0.259,-0.757C0.269,-0.759 0.279,-0.76 0.289,-0.76C0.303,-0.76 0.317,-0.757 0.33,-0.753C0.343,-0.748 0.354,-0.74 0.362,-0.729C0.37,-0.717 0.375,-0.705 0.378,-0.691C0.38,-0.677 0.38,-0.663 0.377,-0.648C0.375,-0.638 0.372,-0.628 0.367,-0.62C0.362,-0.611 0.355,-0.603 0.346,-0.597C0.337,-0.59 0.328,-0.586 0.318,-0.584C0.308,-0.581 0.298,-0.58 0.289,-0.58Z" style="fill-rule:nonzero;"/>
                </g>
                <g transform="matrix(82.9932,0,0,82.9932,2523.48,3810)">
                    <path d="M0,-0L0.086,-0.52L0.224,-0.52L0.215,-0.469C0.22,-0.478 0.227,-0.486 0.234,-0.494C0.241,-0.501 0.248,-0.508 0.257,-0.514C0.265,-0.519 0.274,-0.523 0.284,-0.525C0.293,-0.527 0.303,-0.528 0.312,-0.528C0.329,-0.528 0.346,-0.525 0.362,-0.519C0.378,-0.512 0.392,-0.503 0.403,-0.491C0.414,-0.479 0.423,-0.465 0.429,-0.45C0.435,-0.434 0.439,-0.418 0.441,-0.401C0.443,-0.384 0.444,-0.366 0.443,-0.349C0.442,-0.331 0.44,-0.313 0.437,-0.295L0.388,-0L0.25,-0L0.302,-0.314C0.303,-0.321 0.304,-0.329 0.305,-0.336C0.306,-0.343 0.306,-0.349 0.306,-0.357C0.305,-0.364 0.305,-0.37 0.304,-0.377C0.303,-0.384 0.3,-0.39 0.297,-0.396C0.294,-0.401 0.289,-0.406 0.284,-0.409C0.278,-0.412 0.271,-0.414 0.264,-0.414C0.255,-0.414 0.247,-0.412 0.238,-0.408C0.229,-0.404 0.222,-0.399 0.216,-0.392C0.209,-0.385 0.205,-0.377 0.202,-0.368C0.199,-0.359 0.196,-0.351 0.194,-0.342L0.138,-0L0,-0Z" style="fill-rule:nonzero;"/>
                </g>
                <g transform="matrix(82.9932,0,0,82.9932,2564.97,3810)">
                    <path d="M0.217,0.008C0.202,0.008 0.187,0.007 0.172,0.005C0.157,0.003 0.142,-0 0.128,-0.006C0.114,-0.011 0.101,-0.017 0.09,-0.026C0.078,-0.034 0.068,-0.044 0.059,-0.055C0.05,-0.066 0.043,-0.078 0.038,-0.092C0.032,-0.105 0.028,-0.119 0.026,-0.134C0.023,-0.149 0.023,-0.164 0.024,-0.179C0.025,-0.194 0.026,-0.21 0.029,-0.225L0.049,-0.345C0.052,-0.361 0.056,-0.377 0.062,-0.394C0.067,-0.41 0.075,-0.425 0.085,-0.44C0.094,-0.455 0.106,-0.468 0.12,-0.48C0.133,-0.491 0.148,-0.501 0.164,-0.509C0.18,-0.516 0.197,-0.521 0.214,-0.524C0.231,-0.527 0.247,-0.528 0.263,-0.528C0.28,-0.528 0.298,-0.527 0.315,-0.525C0.332,-0.522 0.348,-0.518 0.363,-0.512C0.378,-0.505 0.392,-0.497 0.405,-0.487C0.417,-0.476 0.427,-0.464 0.434,-0.45C0.441,-0.435 0.446,-0.42 0.449,-0.403C0.451,-0.386 0.451,-0.369 0.448,-0.352C0.448,-0.351 0.448,-0.349 0.448,-0.348C0.447,-0.347 0.447,-0.345 0.447,-0.344L0.31,-0.344L0.31,-0.347C0.311,-0.355 0.312,-0.363 0.311,-0.372C0.31,-0.38 0.308,-0.387 0.304,-0.394C0.3,-0.401 0.294,-0.406 0.287,-0.409C0.28,-0.412 0.272,-0.414 0.263,-0.414C0.253,-0.414 0.243,-0.412 0.233,-0.407C0.222,-0.402 0.214,-0.395 0.207,-0.386C0.2,-0.377 0.195,-0.367 0.192,-0.357C0.188,-0.347 0.185,-0.337 0.184,-0.326L0.164,-0.206C0.162,-0.195 0.161,-0.183 0.161,-0.172C0.161,-0.16 0.163,-0.149 0.167,-0.139C0.17,-0.129 0.177,-0.121 0.186,-0.115C0.195,-0.109 0.206,-0.106 0.217,-0.106C0.227,-0.106 0.237,-0.108 0.247,-0.113C0.256,-0.117 0.265,-0.123 0.272,-0.131C0.279,-0.138 0.285,-0.147 0.29,-0.156C0.295,-0.165 0.299,-0.175 0.302,-0.184L0.43,-0.143C0.421,-0.122 0.41,-0.101 0.396,-0.082C0.382,-0.062 0.365,-0.045 0.346,-0.032C0.327,-0.018 0.306,-0.008 0.284,-0.002C0.261,0.005 0.239,0.008 0.217,0.008Z" style="fill-rule:nonzero;"/>
                </g>
                <g transform="matrix(82.9932,0,0,82.9932,2606.47,3810)">
                    <path d="M0.222,0.008C0.207,0.008 0.191,0.007 0.176,0.005C0.161,0.003 0.146,-0 0.132,-0.005C0.118,-0.01 0.105,-0.016 0.093,-0.025C0.081,-0.033 0.07,-0.043 0.061,-0.054C0.052,-0.065 0.044,-0.077 0.039,-0.09C0.033,-0.103 0.029,-0.118 0.026,-0.133C0.023,-0.148 0.023,-0.163 0.024,-0.178C0.025,-0.193 0.026,-0.209 0.029,-0.225L0.049,-0.345C0.052,-0.362 0.056,-0.378 0.062,-0.395C0.067,-0.411 0.075,-0.427 0.086,-0.442C0.096,-0.456 0.108,-0.47 0.123,-0.482C0.137,-0.493 0.152,-0.503 0.169,-0.51C0.185,-0.517 0.202,-0.521 0.219,-0.524C0.236,-0.527 0.252,-0.528 0.269,-0.528C0.287,-0.528 0.305,-0.527 0.322,-0.524C0.339,-0.521 0.355,-0.517 0.37,-0.51C0.385,-0.503 0.399,-0.493 0.411,-0.482C0.423,-0.471 0.432,-0.457 0.44,-0.442C0.447,-0.427 0.451,-0.411 0.454,-0.394C0.456,-0.377 0.456,-0.359 0.453,-0.341C0.45,-0.326 0.445,-0.311 0.438,-0.296C0.43,-0.281 0.42,-0.267 0.408,-0.255C0.396,-0.243 0.383,-0.233 0.368,-0.226C0.353,-0.218 0.337,-0.212 0.322,-0.208C0.306,-0.204 0.29,-0.201 0.274,-0.2C0.258,-0.199 0.242,-0.198 0.227,-0.198C0.215,-0.198 0.203,-0.198 0.191,-0.199C0.179,-0.199 0.167,-0.2 0.155,-0.201C0.153,-0.189 0.153,-0.177 0.154,-0.165C0.155,-0.152 0.158,-0.141 0.164,-0.131C0.169,-0.12 0.177,-0.112 0.188,-0.107C0.199,-0.102 0.21,-0.099 0.222,-0.099C0.231,-0.099 0.24,-0.1 0.249,-0.103C0.258,-0.106 0.266,-0.11 0.274,-0.115C0.281,-0.119 0.288,-0.126 0.294,-0.133C0.3,-0.14 0.305,-0.148 0.309,-0.157L0.424,-0.108C0.414,-0.09 0.402,-0.074 0.387,-0.059C0.372,-0.044 0.356,-0.031 0.338,-0.021C0.319,-0.01 0.3,-0.003 0.281,0.002C0.261,0.006 0.241,0.008 0.222,0.008ZM0.242,-0.305C0.251,-0.305 0.26,-0.306 0.269,-0.307C0.278,-0.308 0.286,-0.311 0.294,-0.316C0.302,-0.32 0.309,-0.326 0.315,-0.334C0.321,-0.342 0.325,-0.35 0.326,-0.359C0.327,-0.368 0.327,-0.376 0.325,-0.385C0.323,-0.393 0.319,-0.4 0.314,-0.405C0.308,-0.41 0.301,-0.414 0.293,-0.417C0.285,-0.42 0.277,-0.421 0.268,-0.421C0.257,-0.421 0.245,-0.419 0.234,-0.414C0.222,-0.409 0.212,-0.402 0.204,-0.393C0.196,-0.384 0.19,-0.373 0.186,-0.362C0.181,-0.35 0.178,-0.338 0.176,-0.327L0.173,-0.308C0.184,-0.307 0.196,-0.306 0.207,-0.306C0.218,-0.305 0.23,-0.305 0.242,-0.305Z" style="fill-rule:nonzero;"/>
                </g>
            </g>
        </g>
        <g transform="matrix(1,0,0,1,-0.529365,-0.386706)">
            <g transform="matrix(1.67211,0,0,1.67211,-1506.85,-2415.9)">
                <g transform="matrix(0.9645,0,0,1,79.2719,0)">
                    <g transform="matrix(82.9932,0,0,82.9932,2233,3810)">
                        <path d="M0.03,-0L0.03,-0.114L0.144,-0.114L0.227,-0.621L0.129,-0.621L0.129,-0.735L0.479,-0.735L0.479,-0.621L0.366,-0.621L0.282,-0.114L0.38,-0.114L0.38,-0L0.03,-0Z" style="fill-rule:nonzero;"/>
                    </g>
                    <g transform="matrix(82.9932,0,0,82.9932,2274.5,3810)">
                        <path d="M0,-0L0.086,-0.52L0.224,-0.52L0.215,-0.469C0.22,-0.478 0.227,-0.486 0.234,-0.494C0.241,-0.501 0.248,-0.508 0.257,-0.514C0.265,-0.519 0.274,-0.523 0.284,-0.525C0.293,-0.527 0.303,-0.528 0.312,-0.528C0.329,-0.528 0.346,-0.525 0.362,-0.519C0.378,-0.512 0.392,-0.503 0.403,-0.491C0.414,-0.479 0.423,-0.465 0.429,-0.45C0.435,-0.434 0.439,-0.418 0.441,-0.401C0.443,-0.384 0.444,-0.366 0.443,-0.349C0.442,-0.331 0.44,-0.313 0.437,-0.295L0.388,-0L0.25,-0L0.302,-0.314C0.303,-0.321 0.304,-0.329 0.305,-0.336C0.306,-0.343 0.306,-0.349 0.306,-0.357C0.305,-0.364 0.305,-0.37 0.304,-0.377C0.303,-0.384 0.3,-0.39 0.297,-0.396C0.294,-0.401 0.289,-0.406 0.284,-0.409C0.278,-0.412 0.271,-0.414 0.264,-0.414C0.255,-0.414 0.247,-0.412 0.238,-0.408C0.229,-0.404 0.222,-0.399 0.216,-0.392C0.209,-0.385 0.205,-0.377 0.202,-0.368C0.199,-0.359 0.196,-0.351 0.194,-0.342L0.138,-0L0,-0Z" style="fill-rule:nonzero;"/>
                    </g>
                </g>
                <g transform="matrix(0.9645,0,0,1,82.1135,0)">
                    <g transform="matrix(82.9932,0,0,82.9932,2313.05,3810)">
                        <path d="M0.217,0.008C0.202,0.008 0.187,0.007 0.172,0.005C0.157,0.003 0.142,-0 0.128,-0.006C0.114,-0.011 0.101,-0.017 0.09,-0.026C0.078,-0.034 0.068,-0.044 0.059,-0.055C0.05,-0.066 0.043,-0.078 0.038,-0.092C0.032,-0.105 0.028,-0.119 0.026,-0.134C0.023,-0.149 0.023,-0.164 0.024,-0.179C0.025,-0.194 0.026,-0.21 0.029,-0.225L0.049,-0.345C0.052,-0.361 0.056,-0.377 0.062,-0.394C0.067,-0.41 0.075,-0.425 0.085,-0.44C0.094,-0.455 0.106,-0.468 0.12,-0.48C0.133,-0.491 0.148,-0.501 0.164,-0.509C0.18,-0.516 0.197,-0.521 0.214,-0.524C0.231,-0.527 0.247,-0.528 0.263,-0.528C0.28,-0.528 0.298,-0.527 0.315,-0.525C0.332,-0.522 0.348,-0.518 0.363,-0.512C0.378,-0.505 0.392,-0.497 0.405,-0.487C0.417,-0.476 0.427,-0.464 0.434,-0.45C0.441,-0.435 0.446,-0.42 0.449,-0.403C0.451,-0.386 0.451,-0.369 0.448,-0.352C0.448,-0.351 0.448,-0.349 0.448,-0.348C0.447,-0.347 0.447,-0.345 0.447,-0.344L0.31,-0.344L0.31,-0.347C0.311,-0.355 0.312,-0.363 0.311,-0.372C0.31,-0.38 0.308,-0.387 0.304,-0.394C0.3,-0.401 0.294,-0.406 0.287,-0.409C0.28,-0.412 0.272,-0.414 0.263,-0.414C0.253,-0.414 0.243,-0.412 0.233,-0.407C0.222,-0.402 0.214,-0.395 0.207,-0.386C0.2,-0.377 0.195,-0.367 0.192,-0.357C0.188,-0.347 0.185,-0.337 0.184,-0.326L0.164,-0.206C0.162,-0.195 0.161,-0.183 0.161,-0.172C0.161,-0.16 0.163,-0.149 0.167,-0.139C0.17,-0.129 0.177,-0.121 0.186,-0.115C0.195,-0.109 0.206,-0.106 0.217,-0.106C0.227,-0.106 0.237,-0.108 0.247,-0.113C0.256,-0.117 0.265,-0.123 0.272,-0.131C0.279,-0.138 0.285,-0.147 0.29,-0.156C0.295,-0.165 0.299,-0.175 0.302,-0.184L0.43,-0.143C0.421,-0.122 0.41,-0.101 0.396,-0.082C0.382,-0.062 0.365,-0.045 0.346,-0.032C0.327,-0.018 0.306,-0.008 0.284,-0.002C0.261,0.005 0.239,0.008 0.217,0.008Z" style="fill-rule:nonzero;"/>
                    </g>
                </g>
                <g transform="matrix(0.9645,0,0,1,83.4662,0)">
                    <g transform="matrix(82.9932,0,0,82.9932,2351.15,3810)">
                        <path d="M0.292,0.008C0.275,0.008 0.259,0.007 0.243,0.004C0.227,0.001 0.212,-0.005 0.199,-0.013C0.186,-0.02 0.174,-0.03 0.165,-0.043C0.155,-0.055 0.148,-0.068 0.143,-0.083C0.138,-0.098 0.136,-0.113 0.136,-0.13C0.136,-0.147 0.137,-0.163 0.14,-0.18L0.177,-0.406L0.079,-0.406L0.079,-0.52L0.334,-0.52L0.275,-0.161C0.274,-0.156 0.274,-0.15 0.273,-0.145C0.272,-0.139 0.273,-0.133 0.274,-0.128C0.275,-0.123 0.277,-0.118 0.28,-0.113C0.283,-0.108 0.287,-0.106 0.292,-0.106C0.299,-0.106 0.307,-0.107 0.315,-0.11C0.323,-0.113 0.33,-0.117 0.336,-0.123C0.342,-0.128 0.347,-0.135 0.351,-0.142C0.355,-0.149 0.358,-0.156 0.36,-0.164L0.469,-0.145C0.464,-0.125 0.456,-0.106 0.446,-0.087C0.436,-0.068 0.423,-0.051 0.407,-0.036C0.391,-0.021 0.373,-0.01 0.353,-0.003C0.332,0.005 0.312,0.008 0.292,0.008ZM0.289,-0.58C0.274,-0.58 0.261,-0.583 0.248,-0.588C0.235,-0.592 0.224,-0.6 0.216,-0.612C0.207,-0.623 0.202,-0.635 0.2,-0.649C0.198,-0.663 0.198,-0.677 0.2,-0.692C0.202,-0.702 0.206,-0.712 0.211,-0.721C0.216,-0.729 0.222,-0.737 0.231,-0.744C0.24,-0.75 0.249,-0.754 0.259,-0.757C0.269,-0.759 0.279,-0.76 0.289,-0.76C0.303,-0.76 0.317,-0.757 0.33,-0.753C0.343,-0.748 0.354,-0.74 0.362,-0.729C0.37,-0.717 0.375,-0.705 0.378,-0.691C0.38,-0.677 0.38,-0.663 0.377,-0.648C0.375,-0.638 0.372,-0.628 0.367,-0.62C0.362,-0.611 0.355,-0.603 0.346,-0.597C0.337,-0.59 0.328,-0.586 0.318,-0.584C0.308,-0.581 0.298,-0.58 0.289,-0.58Z" style="fill-rule:nonzero;"/>
                    </g>
                    <g transform="matrix(82.9932,0,0,82.9932,2392.65,3810)">
                        <path d="M0.132,0.008C0.115,0.008 0.099,0.005 0.084,-0.003C0.069,-0.01 0.057,-0.02 0.049,-0.033C0.04,-0.046 0.033,-0.06 0.029,-0.076C0.025,-0.091 0.023,-0.107 0.022,-0.124C0.021,-0.14 0.021,-0.157 0.023,-0.174C0.024,-0.191 0.026,-0.208 0.029,-0.225L0.049,-0.345C0.051,-0.36 0.054,-0.374 0.059,-0.389C0.063,-0.403 0.069,-0.417 0.076,-0.431C0.083,-0.445 0.091,-0.458 0.102,-0.471C0.112,-0.483 0.124,-0.493 0.137,-0.502C0.15,-0.511 0.164,-0.517 0.179,-0.522C0.194,-0.526 0.208,-0.528 0.223,-0.528C0.236,-0.528 0.249,-0.526 0.261,-0.522C0.273,-0.518 0.283,-0.512 0.292,-0.503C0.3,-0.494 0.306,-0.484 0.311,-0.473C0.316,-0.462 0.319,-0.45 0.322,-0.438L0.371,-0.735L0.509,-0.735L0.408,-0.124C0.407,-0.119 0.409,-0.115 0.412,-0.112C0.415,-0.108 0.418,-0.106 0.423,-0.106L0.44,-0.106L0.44,0.008L0.404,0.008C0.389,0.008 0.374,0.007 0.359,0.004C0.343,0.001 0.33,-0.004 0.317,-0.011C0.304,-0.018 0.294,-0.027 0.285,-0.039C0.276,-0.051 0.271,-0.064 0.269,-0.079C0.262,-0.066 0.253,-0.055 0.244,-0.044C0.234,-0.033 0.223,-0.023 0.211,-0.015C0.199,-0.007 0.186,-0.001 0.173,0.003C0.159,0.006 0.145,0.008 0.132,0.008ZM0.208,-0.106C0.217,-0.106 0.226,-0.108 0.235,-0.112C0.244,-0.115 0.251,-0.121 0.258,-0.128C0.264,-0.135 0.269,-0.143 0.272,-0.152C0.275,-0.161 0.278,-0.169 0.279,-0.178L0.299,-0.298C0.3,-0.306 0.302,-0.314 0.303,-0.322C0.304,-0.33 0.304,-0.338 0.304,-0.346C0.304,-0.353 0.304,-0.361 0.303,-0.369C0.302,-0.376 0.3,-0.384 0.297,-0.391C0.294,-0.398 0.29,-0.403 0.284,-0.408C0.278,-0.412 0.271,-0.414 0.263,-0.414C0.253,-0.414 0.243,-0.411 0.233,-0.406C0.223,-0.401 0.215,-0.394 0.208,-0.385C0.201,-0.376 0.195,-0.367 0.192,-0.357C0.188,-0.346 0.185,-0.336 0.184,-0.326L0.164,-0.206C0.163,-0.199 0.162,-0.191 0.161,-0.184C0.16,-0.177 0.16,-0.17 0.161,-0.163C0.162,-0.156 0.163,-0.149 0.165,-0.142C0.166,-0.135 0.169,-0.128 0.173,-0.123C0.176,-0.118 0.181,-0.114 0.188,-0.111C0.194,-0.108 0.201,-0.106 0.208,-0.106Z" style="fill-rule:nonzero;"/>
                    </g>
                    <g transform="matrix(82.9932,0,0,82.9932,2434.14,3810)">
                        <path d="M0.222,0.008C0.207,0.008 0.191,0.007 0.176,0.005C0.161,0.003 0.146,-0 0.132,-0.005C0.118,-0.01 0.105,-0.016 0.093,-0.025C0.081,-0.033 0.07,-0.043 0.061,-0.054C0.052,-0.065 0.044,-0.077 0.039,-0.09C0.033,-0.103 0.029,-0.118 0.026,-0.133C0.023,-0.148 0.023,-0.163 0.024,-0.178C0.025,-0.193 0.026,-0.209 0.029,-0.225L0.049,-0.345C0.052,-0.362 0.056,-0.378 0.062,-0.395C0.067,-0.411 0.075,-0.427 0.086,-0.442C0.096,-0.456 0.108,-0.47 0.123,-0.482C0.137,-0.493 0.152,-0.503 0.169,-0.51C0.185,-0.517 0.202,-0.521 0.219,-0.524C0.236,-0.527 0.252,-0.528 0.269,-0.528C0.287,-0.528 0.305,-0.527 0.322,-0.524C0.339,-0.521 0.355,-0.517 0.37,-0.51C0.385,-0.503 0.399,-0.493 0.411,-0.482C0.423,-0.471 0.432,-0.457 0.44,-0.442C0.447,-0.427 0.451,-0.411 0.454,-0.394C0.456,-0.377 0.456,-0.359 0.453,-0.341C0.45,-0.326 0.445,-0.311 0.438,-0.296C0.43,-0.281 0.42,-0.267 0.408,-0.255C0.396,-0.243 0.383,-0.233 0.368,-0.226C0.353,-0.218 0.337,-0.212 0.322,-0.208C0.306,-0.204 0.29,-0.201 0.274,-0.2C0.258,-0.199 0.242,-0.198 0.227,-0.198C0.215,-0.198 0.203,-0.198 0.191,-0.199C0.179,-0.199 0.167,-0.2 0.155,-0.201C0.153,-0.189 0.153,-0.177 0.154,-0.165C0.155,-0.152 0.158,-0.141 0.164,-0.131C0.169,-0.12 0.177,-0.112 0.188,-0.107C0.199,-0.102 0.21,-0.099 0.222,-0.099C0.231,-0.099 0.24,-0.1 0.249,-0.103C0.258,-0.106 0.266,-0.11 0.274,-0.115C0.281,-0.119 0.288,-0.126 0.294,-0.133C0.3,-0.14 0.305,-0.148 0.309,-0.157L0.424,-0.108C0.414,-0.09 0.402,-0.074 0.387,-0.059C0.372,-0.044 0.356,-0.031 0.338,-0.021C0.319,-0.01 0.3,-0.003 0.281,0.002C0.261,0.006 0.241,0.008 0.222,0.008ZM0.242,-0.305C0.251,-0.305 0.26,-0.306 0.269,-0.307C0.278,-0.308 0.286,-0.311 0.294,-0.316C0.302,-0.32 0.309,-0.326 0.315,-0.334C0.321,-0.342 0.325,-0.35 0.326,-0.359C0.327,-0.368 0.327,-0.376 0.325,-0.385C0.323,-0.393 0.319,-0.4 0.314,-0.405C0.308,-0.41 0.301,-0.414 0.293,-0.417C0.285,-0.42 0.277,-0.421 0.268,-0.421C0.257,-0.421 0.245,-0.419 0.234,-0.414C0.222,-0.409 0.212,-0.402 0.204,-0.393C0.196,-0.384 0.19,-0.373 0.186,-0.362C0.181,-0.35 0.178,-0.338 0.176,-0.327L0.173,-0.308C0.184,-0.307 0.196,-0.306 0.207,-0.306C0.218,-0.305 0.23,-0.305 0.242,-0.305Z" style="fill-rule:nonzero;"/>
                    </g>
                    <g transform="matrix(82.9932,0,0,82.9932,2475.64,3810)">
                        <path d="M0,-0L0.086,-0.52L0.224,-0.52L0.215,-0.469C0.22,-0.478 0.227,-0.486 0.234,-0.494C0.241,-0.501 0.248,-0.508 0.257,-0.514C0.265,-0.519 0.274,-0.523 0.284,-0.525C0.293,-0.527 0.303,-0.528 0.312,-0.528C0.329,-0.528 0.346,-0.525 0.362,-0.519C0.378,-0.512 0.392,-0.503 0.403,-0.491C0.414,-0.479 0.423,-0.465 0.429,-0.45C0.435,-0.434 0.439,-0.418 0.441,-0.401C0.443,-0.384 0.444,-0.366 0.443,-0.349C0.442,-0.331 0.44,-0.313 0.437,-0.295L0.388,-0L0.25,-0L0.302,-0.314C0.303,-0.321 0.304,-0.329 0.305,-0.336C0.306,-0.343 0.306,-0.349 0.306,-0.357C0.305,-0.364 0.305,-0.37 0.304,-0.377C0.303,-0.384 0.3,-0.39 0.297,-0.396C0.294,-0.401 0.289,-0.406 0.284,-0.409C0.278,-0.412 0.271,-0.414 0.264,-0.414C0.255,-0.414 0.247,-0.412 0.238,-0.408C0.229,-0.404 0.222,-0.399 0.216,-0.392C0.209,-0.385 0.205,-0.377 0.202,-0.368C0.199,-0.359 0.196,-0.351 0.194,-0.342L0.138,-0L0,-0Z" style="fill-rule:nonzero;"/>
                    </g>
                    <g transform="matrix(82.9932,0,0,82.9932,2517.14,3810)">
                        <path d="M0.268,0.008C0.25,0.008 0.232,0.006 0.215,0.002C0.197,-0.002 0.181,-0.009 0.168,-0.02C0.154,-0.03 0.142,-0.042 0.134,-0.057C0.125,-0.072 0.118,-0.088 0.115,-0.105C0.111,-0.122 0.109,-0.139 0.11,-0.158C0.11,-0.177 0.112,-0.195 0.115,-0.213L0.147,-0.406L0.09,-0.406L0.09,-0.52L0.166,-0.52L0.201,-0.735L0.339,-0.735L0.304,-0.52L0.44,-0.52L0.44,-0.406L0.285,-0.406L0.25,-0.194C0.249,-0.189 0.249,-0.183 0.248,-0.178C0.247,-0.172 0.246,-0.166 0.246,-0.161L0.246,-0.144C0.246,-0.138 0.247,-0.133 0.248,-0.128C0.249,-0.123 0.252,-0.118 0.255,-0.113C0.258,-0.108 0.263,-0.106 0.268,-0.106C0.273,-0.106 0.278,-0.108 0.283,-0.112C0.288,-0.115 0.292,-0.119 0.295,-0.124C0.298,-0.129 0.301,-0.134 0.304,-0.139C0.307,-0.143 0.309,-0.149 0.311,-0.154C0.313,-0.159 0.315,-0.165 0.316,-0.17C0.317,-0.175 0.319,-0.181 0.32,-0.186L0.448,-0.143C0.441,-0.124 0.432,-0.105 0.422,-0.086C0.411,-0.067 0.397,-0.051 0.382,-0.036C0.366,-0.021 0.348,-0.01 0.328,-0.003C0.308,0.004 0.288,0.008 0.268,0.008Z" style="fill-rule:nonzero;"/>
                    </g>
                </g>
            </g>
        </g>
        <g transform="matrix(1,0,0,1,-0.529365,-0.386706)">
            <g transform="matrix(1,0,0,1,0.253784,-32.5722)">
                <circle cx="2118.5" cy="3708.5" r="5.5"/>
                <path d="M2118.5,3699C2113.26,3699 2109,3703.26 2109,3708.5C2109,3713.74 2113.26,3718 2118.5,3718C2123.74,3718 2128,3713.74 2128,3708.5C2128,3703.26 2123.74,3699 2118.5,3699ZM2118.5,3703C2121.54,3703 2124,3705.46 2124,3708.5C2124,3711.54 2121.54,3714 2118.5,3714C2115.46,3714 2113,3711.54 2113,3708.5C2113,3705.46 2115.46,3703 2118.5,3703Z"/>
            </g>
        </g>
        <g transform="matrix(1,0,0,1,-0.529365,-0.386706)">
            <g transform="matrix(1,0,0,1,0.253784,300.387)">
                <circle cx="2118.5" cy="3708.5" r="5.5"/>
                <path d="M2118.5,3699C2113.26,3699 2109,3703.26 2109,3708.5C2109,3713.74 2113.26,3718 2118.5,3718C2123.74,3718 2128,3713.74 2128,3708.5C2128,3703.26 2123.74,3699 2118.5,3699ZM2118.5,3703C2121.54,3703 2124,3705.46 2124,3708.5C2124,3711.54 2121.54,3714 2118.5,3714C2115.46,3714 2113,3711.54 2113,3708.5C2113,3705.46 2115.46,3703 2118.5,3703Z"/>
            </g>
        </g>
        <g transform="matrix(1,0,0,1,-0.529365,-0.386706)">
            <g transform="matrix(1,0,0,1,746.999,300.387)">
                <circle cx="2118.5" cy="3708.5" r="5.5"/>
                <path d="M2118.5,3699C2113.26,3699 2109,3703.26 2109,3708.5C2109,3713.74 2113.26,3718 2118.5,3718C2123.74,3718 2128,3713.74 2128,3708.5C2128,3703.26 2123.74,3699 2118.5,3699ZM2118.5,3703C2121.54,3703 2124,3705.46 2124,3708.5C2124,3711.54 2121.54,3714 2118.5,3714C2115.46,3714 2113,3711.54 2113,3708.5C2113,3705.46 2115.46,3703 2118.5,3703Z"/>
            </g>
        </g>
        <g transform="matrix(1,0,0,1,-0.529365,-0.386706)">
            <g transform="matrix(1,0,0,1,746.999,-34.6133)">
                <circle cx="2118.5" cy="3708.5" r="5.5"/>
                <path d="M2118.5,3699C2113.26,3699 2109,3703.26 2109,3708.5C2109,3713.74 2113.26,3718 2118.5,3718C2123.74,3718 2128,3713.74 2128,3708.5C2128,3703.26 2123.74,3699 2118.5,3699ZM2118.5,3703C2121.54,3703 2124,3705.46 2124,3708.5C2124,3711.54 2121.54,3714 2118.5,3714C2115.46,3714 2113,3711.54 2113,3708.5C2113,3705.46 2115.46,3703 2118.5,3703Z"/>
            </g>
        </g>
    </g>
</svg>
