<?xml version="1.0" encoding="UTF-8" standalone="no"?><!DOCTYPE svg PUBLIC "-//W3C//DTD SVG 1.1//EN" "http://www.w3.org/Graphics/SVG/1.1/DTD/svg11.dtd"><svg width="100%" height="100%" viewBox="0 0 4167 1256" version="1.1" xmlns="http://www.w3.org/2000/svg" xmlns:xlink="http://www.w3.org/1999/xlink" xml:space="preserve" xmlns:serif="http://www.serif.com/" style="fill-rule:evenodd;clip-rule:evenodd;stroke-linejoin:round;stroke-miterlimit:2;"><path id="path8" d="M2584.92,981.95c-242.133,178.47 -593.088,273.691 -895.254,273.691c-423.686,-0 -805.112,-156.706 -1093.68,-417.338c-22.671,-20.495 -2.357,-48.426 24.848,-32.466c311.417,181.191 696.47,290.196 1094.22,290.196c268.249,0 563.342,-55.5 834.675,-170.671c40.99,-17.412 75.27,26.843 35.187,56.588"/><path id="path10" d="M2685.58,866.778c-30.833,-39.539 -204.588,-18.681 -282.578,-9.431c-23.76,2.902 -27.387,-17.774 -5.985,-32.647c138.387,-97.397 365.465,-69.284 391.945,-36.637c26.481,32.828 -6.892,260.451 -136.936,369.093c-19.951,16.686 -38.995,7.799 -30.108,-14.329c29.201,-72.912 94.677,-236.328 63.662,-276.049"/><path id="path12" d="M2408.44,137.117l0,-94.676c0,-14.328 10.883,-23.941 23.941,-23.941l423.867,0c13.603,0 24.486,9.794 24.486,23.941l-0,81.074c-0.181,13.602 -11.608,31.377 -31.922,59.49l-219.642,313.592c81.618,-1.994 167.77,10.157 241.77,51.873c16.686,9.431 21.22,23.216 22.49,36.819l-0,101.024c-0,13.784 -15.235,29.926 -31.196,21.583c-130.407,-68.377 -303.618,-75.813 -447.809,0.726c-14.691,7.98 -30.107,-7.981 -30.107,-21.765l-0,-95.946c-0,-15.416 0.181,-41.716 15.598,-65.113l254.465,-364.921l-221.456,0c-13.602,0 -24.485,-9.612 -24.485,-23.76"/><path id="path14" d="M862.244,727.847l-128.956,0c-12.333,-0.907 -22.127,-10.157 -23.034,-21.946l0,-661.827c0,-13.241 11.064,-23.76 24.848,-23.76l120.25,-0c12.515,0.544 22.49,10.157 23.397,22.127l-0,86.515l2.358,-0c31.377,-83.613 90.323,-122.608 169.764,-122.608c80.711,0 131.132,38.995 167.407,122.608c31.196,-83.613 102.113,-122.608 178.108,-122.608c54.049,0 113.176,22.309 149.269,72.368c40.809,55.681 32.466,136.573 32.466,207.49l-0.182,417.7c0,13.24 -11.063,23.941 -24.848,23.941l-128.774,0c-12.877,-0.907 -23.216,-11.245 -23.216,-23.941l0,-350.774c0,-27.931 2.539,-97.578 -3.627,-124.059c-9.613,-44.436 -38.451,-56.951 -75.814,-56.951c-31.196,0 -63.843,20.858 -77.083,54.231c-13.24,33.372 -11.971,89.235 -11.971,126.779l0,350.774c0,13.24 -11.063,23.941 -24.848,23.941l-128.774,0c-13.059,-0.907 -23.216,-11.245 -23.216,-23.941l-0.181,-350.774c0,-73.819 12.152,-182.461 -79.441,-182.461c-92.681,0 -89.054,105.922 -89.054,182.461l0,350.774c0,13.24 -11.064,23.941 -24.848,23.941"/><path id="path16" d="M3245.66,6.348c191.348,0 294.911,164.323 294.911,373.264c0,201.868 -114.446,362.019 -294.911,362.019c-187.902,0 -290.196,-164.323 -290.196,-369.092c0,-206.039 103.564,-366.191 290.196,-366.191m1.088,135.123c-95.039,-0 -101.024,129.499 -101.024,210.21c-0,80.892 -1.27,253.559 99.936,253.559c99.936,-0 104.652,-139.294 104.652,-224.177c-0,-55.862 -2.358,-122.607 -19.226,-175.568c-14.51,-46.069 -43.348,-64.024 -84.338,-64.024"/><path id="path18" d="M3788.69,727.847l-128.412,0c-12.877,-0.907 -23.216,-11.245 -23.216,-23.941l-0.181,-662.009c1.088,-12.152 11.789,-21.583 24.848,-21.583l119.525,-0c11.245,0.544 20.495,8.162 23.034,18.5l-0,101.205l2.358,0c36.093,-90.504 86.696,-133.671 175.749,-133.671c57.858,0 114.265,20.858 150.539,77.99c33.736,52.961 33.736,142.015 33.736,206.039l-0,416.612c-1.451,11.608 -12.152,20.858 -24.848,20.858l-129.319,0c-11.789,-0.907 -21.583,-9.612 -22.853,-20.858l0,-359.48c0,-72.367 8.343,-178.289 -80.71,-178.289c-31.378,0 -60.216,21.04 -74.544,52.961c-18.138,40.446 -20.495,80.711 -20.495,125.328l-0,356.397c-0.182,13.24 -11.427,23.941 -25.211,23.941"/><path id="path28" d="M2070.55,411.715c-0,50.24 1.269,92.137 -24.123,136.755c-20.495,36.275 -53.142,58.583 -89.235,58.583c-49.515,0 -78.534,-37.725 -78.534,-93.407c-0,-109.911 98.485,-129.862 191.892,-129.862l-0,27.931m130.044,314.318c-8.525,7.618 -20.858,8.162 -30.471,3.084c-42.804,-35.549 -50.603,-52.054 -74,-85.971c-70.735,72.187 -120.975,93.77 -212.568,93.77c-108.642,-0 -192.98,-66.927 -192.98,-200.961c-0,-104.652 56.588,-175.931 137.48,-210.754c70.009,-30.834 167.769,-36.275 242.495,-44.799l-0,-16.687c-0,-30.652 2.357,-66.926 -15.78,-93.406c-15.598,-23.76 -45.706,-33.554 -72.367,-33.554c-49.152,-0 -92.863,25.211 -103.564,77.446c-2.177,11.608 -10.701,23.034 -22.49,23.578l-124.966,-13.421c-10.519,-2.358 -22.309,-10.883 -19.225,-27.025c28.657,-151.627 165.774,-197.333 288.382,-197.333c62.755,0 144.735,16.686 194.25,64.206c62.754,58.583 56.769,136.755 56.769,221.818l0,200.961c0,60.397 25.029,86.877 48.608,119.524c8.162,11.608 9.975,25.574 -0.545,34.279c-26.299,21.947 -73.093,62.755 -98.848,85.608l-0.181,-0.363"/><path id="path30" d="M379.975,411.715c0,50.24 1.27,92.137 -24.122,136.755c-20.496,36.275 -52.961,58.583 -89.236,58.583c-49.514,0 -78.353,-37.725 -78.353,-93.407c0,-109.911 98.486,-129.862 191.711,-129.862l0,27.931m130.044,314.318c-8.524,7.618 -20.858,8.162 -30.471,3.084c-42.803,-35.549 -50.421,-52.054 -74,-85.971c-70.735,72.187 -120.793,93.77 -212.568,93.77c-108.461,-0 -192.98,-66.927 -192.98,-200.961c0,-104.652 56.77,-175.931 137.48,-210.754c70.01,-30.834 167.77,-36.275 242.495,-44.799l0,-16.687c0,-30.652 2.358,-66.926 -15.598,-93.406c-15.779,-23.76 -45.887,-33.554 -72.368,-33.554c-49.151,-0 -93.044,25.211 -103.745,77.446c-2.176,11.608 -10.701,23.034 -22.308,23.578l-125.147,-13.421c-10.52,-2.358 -22.128,-10.883 -19.226,-27.025c28.838,-151.627 165.775,-197.333 288.382,-197.333c62.755,0 144.735,16.686 194.25,64.206c62.755,58.583 56.77,136.755 56.77,221.818l-0,200.961c-0,60.397 25.029,86.877 48.607,119.524c8.344,11.608 10.157,25.574 -0.362,34.279c-26.299,21.947 -73.093,62.755 -98.848,85.608l-0.363,-0.363"/></svg>