<?xml version="1.0" encoding="UTF-8" standalone="no"?><!DOCTYPE svg PUBLIC "-//W3C//DTD SVG 1.1//EN" "http://www.w3.org/Graphics/SVG/1.1/DTD/svg11.dtd"><svg width="100%" height="100%" viewBox="0 0 9744 2842" version="1.1" xmlns="http://www.w3.org/2000/svg" xmlns:xlink="http://www.w3.org/1999/xlink" xml:space="preserve" xmlns:serif="http://www.serif.com/" style="fill-rule:evenodd;clip-rule:evenodd;stroke-linejoin:round;stroke-miterlimit:2;"><g><path d="M1743.34,1289.13c-3.093,-324.405 265.029,-480.268 277.089,-487.69c-150.914,-220.496 -385.327,-250.803 -468.825,-254.205c-199.468,-20.41 -389.348,117.516 -490.783,117.516c-101.435,-0 -257.607,-114.733 -423.056,-111.331c-217.714,3.093 -418.418,126.484 -530.677,321.313c-225.753,391.513 -57.52,972.906 162.976,1291.13c107.929,155.554 235.959,330.9 404.811,324.406c162.666,-6.495 223.898,-105.146 419.964,-105.146c196.065,-0 251.421,105.146 423.056,102.053c174.728,-3.402 285.44,-158.955 392.441,-315.128c123.082,-180.912 174.109,-355.639 177.201,-364.917c-4.02,-1.546 -340.486,-130.504 -344.197,-517.997" style="fill-rule:nonzero;"/><path d="M1241.42,409.449c89.683,-108.547 149.987,-259.153 133.597,-409.449c-128.958,5.257 -285.13,85.972 -377.597,194.519c-82.879,95.868 -155.553,249.257 -135.761,396.461c143.183,11.133 290.387,-73.292 379.761,-181.531" style="fill-rule:nonzero;"/></g><path d="M3518.19,1669.6l-200,606.25l-257.083,0l654.583,-1926.67l300,-0l657.083,1926.67l-265.833,0l-205.833,-606.25l-682.917,0Zm631.667,-194.583l-188.334,-554.583c-42.916,-125.834 -71.25,-240 -100,-351.667l-5.416,-0c-28.75,114.167 -60,231.25 -97.084,348.75l-188.333,557.083l579.167,0.417Zm717.916,-131.25c0,-177.083 -5.416,-320.417 -11.666,-451.667l225.833,0l11.667,237.5l5.416,0c102.917,-168.75 265.834,-268.75 491.667,-268.75c334.583,0 585.833,282.917 585.833,703.334c0,497.5 -302.916,742.916 -628.75,742.916c-182.916,0 -342.916,-80 -425.833,-217.083l-5.417,-0l0,751.667l-248.75,-0l0,-1497.92Zm248.334,368.75c-0,37.5 5.416,71.25 11.666,102.917c45.834,174.166 197.084,294.583 377.5,294.583c265.834,-0 420.417,-217.083 420.417,-534.583c0,-277.5 -145.833,-514.167 -411.667,-514.167c-171.25,-0 -331.25,122.917 -380.416,311.667c-8.75,31.25 -17.084,68.75 -17.084,102.916l-0.416,236.667Zm1320.42,-368.75c0,-177.083 -5.416,-320.417 -11.666,-451.667l225.833,0l11.667,237.5l5.416,0c102.917,-168.75 265.834,-268.75 491.667,-268.75c334.583,0 585.833,282.917 585.833,703.334c0,497.5 -302.916,742.916 -628.75,742.916c-182.916,0 -342.916,-80 -425.833,-217.083l-5.417,-0l0,751.667l-248.75,-0l0,-1497.92Zm248.75,368.75c0,37.5 5.417,71.25 11.667,102.917c45.833,174.166 197.083,294.583 377.5,294.583c265.833,-0 420.417,-217.083 420.417,-534.583c-0,-277.5 -145.834,-514.167 -411.667,-514.167c-171.25,-0 -331.25,122.917 -380.417,311.667c-8.75,31.25 -17.083,68.75 -17.083,102.916l-0.417,236.667Zm1320.42,-1466.25l251.667,-0l-0,2029.17l-251.667,-0l0,-2029.17Zm757.5,1383.33c5.417,340 222.917,480.417 474.167,480.417c180,-0 288.75,-31.25 382.916,-71.25l42.917,180c-88.333,40 -240,85.833 -460,85.833c-425.833,0 -680.417,-280 -680.417,-697.5c0,-417.5 245.834,-746.25 648.75,-746.25c451.667,0 571.667,397.084 571.667,651.667c0,51.667 -5.417,91.25 -8.75,117.083l-971.25,0Zm737.5,-180c2.917,-160 -65.833,-408.75 -348.75,-408.75c-254.583,0 -365.833,234.584 -385.833,408.75l734.583,0Z" style="fill-rule:nonzero;"/></svg>