<?xml version="1.0" encoding="UTF-8" standalone="no"?><!DOCTYPE svg PUBLIC "-//W3C//DTD SVG 1.1//EN" "http://www.w3.org/Graphics/SVG/1.1/DTD/svg11.dtd"><svg width="100%" height="100%" viewBox="0 0 708 518" version="1.1" xmlns="http://www.w3.org/2000/svg" xmlns:xlink="http://www.w3.org/1999/xlink" xml:space="preserve" xmlns:serif="http://www.serif.com/" style="fill-rule:evenodd;clip-rule:evenodd;stroke-linejoin:round;stroke-miterlimit:2;"><path d="M680.841,360.833l27.084,0l-0,32.5l-42.084,0c-13.75,0 -27.083,-6.666 -23.333,-5c-19.583,-8.75 -27.083,-30 -28.75,-53.75l-0,-272.083l44.167,-0l-0,68.333l42.083,0l-0,31.667l-42.083,-0l-0,175.417c0.833,17.5 11.25,22.916 22.916,22.916Zm-247.083,-25l-0,-149.166c-1.25,-84.167 147.083,-84.584 144.583,2.083l0,71.667c0,4.583 -3.75,7.916 -7.916,7.916l-92.5,0l-0,69.584c0.416,32.916 57.083,32.5 57.083,-0l-0,-33.334l43.75,0l-0,31.25c2.083,86.25 -146.25,84.167 -145,0Zm100.417,-100.416l-0,-48.75c-0,-32.5 -56.25,-32.5 -57.084,-0l0,48.75l57.084,-0Zm-185.834,-52.917c0,-30.417 -51.666,-29.583 -52.5,1.25l0,209.583l-63.75,0l0,-32.5l20.417,0l-0,-197.5l-24.167,0l0,-32.083l61.667,0l-0,23.75c-0,0 7.5,-11.25 27.083,-22.083c25,-13.75 49.584,-0 45.834,-1.667c19.583,8.75 27.083,30 28.75,53.75l-0,176.25l27.916,0l0,32.083l-70.833,0l-0.417,-210.833Zm-174.583,-182.5l31.667,0l-0,517.083l-31.667,0l-0,-517.083Zm-173.75,335.833l-0,-149.166c-1.25,-84.167 147.083,-84.584 144.583,2.083l0,25.833l-43.333,0l-0.417,-27.916c0,-32.084 -55.833,-31.25 -57.083,1.25l-0,150c0.417,32.916 57.083,32.5 57.083,-0l0,-33.334l43.75,0l0,31.25c2.5,86.25 -145.833,84.167 -144.583,0Z" style="fill:#fff;fill-rule:nonzero;"/></svg>