<?xml version="1.0" encoding="UTF-8" standalone="no"?><!DOCTYPE svg PUBLIC "-//W3C//DTD SVG 1.1//EN" "http://www.w3.org/Graphics/SVG/1.1/DTD/svg11.dtd"><svg width="100%" height="100%" viewBox="0 0 3750 1922" version="1.1" xmlns="http://www.w3.org/2000/svg" xmlns:xlink="http://www.w3.org/1999/xlink" xml:space="preserve" xmlns:serif="http://www.serif.com/" style="fill-rule:evenodd;clip-rule:evenodd;"><path d="M1166.67,671.796l-291.667,0c-205.719,0 -375,169.281 -375,375c0,205.719 169.281,375 375,375l326.25,0c26.743,0 48.75,-22.006 48.75,-48.75l0,-860.833c0.22,-186.595 153.821,-340.015 340.416,-340.015c121.901,-0 234.845,65.478 295.417,171.265l364.167,637.083l0,-468.333c0.22,-186.595 153.821,-340.015 340.416,-340.015c121.901,-0 234.845,65.478 295.417,171.265l364.167,637.083l0,-808.75l208.333,0l41.667,41.667l41.667,-41.667l208.333,0l0,1409.58c-0.22,186.595 -153.821,340.015 -340.416,340.015c-121.901,0 -234.845,-65.478 -295.417,-171.265l-364.167,-637.083l0,468.333c-0.22,186.595 -153.821,340.015 -340.416,340.015c-121.901,0 -234.845,-65.478 -295.417,-171.265l-364.167,-637.083l0,468.333c0,186.747 -153.67,340.417 -340.417,340.417l-534.583,0c-480.011,0 -875,-394.989 -875,-875c-0,-480.011 394.989,-875 875,-875l291.667,0l-0,208.333l-41.667,41.667l41.667,41.667l-0,208.333Z" style="fill:#fff;fill-rule:nonzero;"/><path d="M1166.67,421.796l-291.667,0c-342.865,0 -625,282.135 -625,625c0,342.865 282.135,625 625,625l534.583,0c49.601,0 90.417,-40.815 90.417,-90.417l0,-1069.17c0.085,-49.542 40.874,-90.261 90.417,-90.261c32.284,-0 62.21,17.291 78.333,45.261l662.5,1159.17c16.123,27.97 46.049,45.261 78.333,45.261c49.543,0 90.332,-40.718 90.417,-90.261l0,-1069.17c0.085,-49.542 40.874,-90.261 90.417,-90.261c32.284,-0 62.21,17.291 78.333,45.261l662.5,1159.17c16.123,27.97 46.049,45.261 78.333,45.261c49.543,0 90.332,-40.718 90.417,-90.261l0,-1409.58" style="fill:none;fill-rule:nonzero;stroke:#c00;stroke-width:83.33px;"/></svg>