<?xml version="1.0" encoding="UTF-8" standalone="no"?><!DOCTYPE svg PUBLIC "-//W3C//DTD SVG 1.1//EN" "http://www.w3.org/Graphics/SVG/1.1/DTD/svg11.dtd"><svg width="100%" height="100%" viewBox="0 0 2306 570" version="1.1" xmlns="http://www.w3.org/2000/svg" xmlns:xlink="http://www.w3.org/1999/xlink" xml:space="preserve" xmlns:serif="http://www.serif.com/" style="fill-rule:evenodd;clip-rule:evenodd;stroke-linejoin:round;stroke-miterlimit:2;"><path d="M751.708,0c-85.866,-0.112 -142.733,45.15 -150.733,112.829c-1.867,15.642 -3.789,31.277 -5.767,46.905l1117.23,-0c-0,-0 2.1,-16.488 3.733,-29.721c8.4,-68.179 -20.567,-130.004 -125.933,-130.004l-0,0.008c-0,-0 -793.267,0.033 -838.534,-0.017Zm-681.833,0.021l-19.608,159.713l506.666,-0l19.534,-159.709l-506.6,0l0.008,0l0,-0.004Zm1700.77,0l-19.567,159.713l549.267,-0c-0,-0 0.666,-5.775 3.1,-24.575c13.366,-104.834 -54.267,-135.138 -119.567,-135.138l-413.233,0Zm-27.134,220.525l-42.8,348.567l189.5,-0.067l42.834,-348.433l-189.534,-0.075l0,0.008Zm360,0l-42.866,348.567l189.5,-0.067l42.833,-348.433l-189.467,-0.075l0,0.008Zm-2060.63,0.05l-42.875,348.533l506.633,0l18.667,-151.2l-317.242,-0.033l8.025,-65.2l317.117,0l16.233,-132.092l-506.533,0l-0.025,-0.008Zm544.9,0c-13.9,90.967 31.633,132.088 96.167,132.088c35.1,-0 256.333,-0.1 256.333,-0.1l-8,65.3l-368.7,0.033l-18.567,151.2c0,-0 401.4,0.133 417.667,-0c13.433,-0.967 107.333,-3.533 139.3,-80.333c10.367,-24.934 19.533,-114.334 22.1,-133.1c14.767,-109 -60.7,-134.988 -120.133,-134.988c-32.767,0 -351.467,-0.1 -416.167,-0.1Zm589.8,0l-42.8,348.533l189.4,0l26.667,-216.433l237.9,0c67.466,0 103.733,-36.275 110.466,-84.987c2.152,-15.675 4.097,-31.378 5.834,-47.105l-527.467,0l0,-0.008Z" style="fill:#fff;fill-rule:nonzero;"/></svg>