<?xml version="1.0" encoding="UTF-8" standalone="no"?><!DOCTYPE svg PUBLIC "-//W3C//DTD SVG 1.1//EN" "http://www.w3.org/Graphics/SVG/1.1/DTD/svg11.dtd"><svg width="100%" height="100%" viewBox="0 0 5146 2737" version="1.1" xmlns="http://www.w3.org/2000/svg" xmlns:xlink="http://www.w3.org/1999/xlink" xml:space="preserve" xmlns:serif="http://www.serif.com/" style="fill-rule:evenodd;clip-rule:evenodd;stroke-linejoin:round;stroke-miterlimit:2;"><rect x="0" y="0" width="5145.83" height="2736.81" style="fill:#fff;fill-opacity:0;"/><clipPath id="_clip1"><rect x="0" y="0" width="5145.83" height="2736.81"/></clipPath><g clip-path="url(#_clip1)"><g><path id="kliegs" d="M0,-662.355c253.333,-85 513.75,-145 778.75,-179.584l75.417,-392.083l611.25,-0l-137.084,355.833c164.584,-0.416 328.75,9.167 492.084,28.75l190.416,-384.583l671.667,-0l-743.75,1143.33l-280.833,0l-0,413.334l-692.917,1130.42l-221.667,0l0,377.917l-710,1108.75l-22.5,-0l1783.75,-3735.83c-161.25,-18.75 -323.75,-27.5 -485.833,-26.25l-1303.75,3762.08l-5,-0m0,-69.583l766.25,-3652.92c-259.583,36.25 -515,97.917 -762.917,183.333l-3.333,0" style="fill:#fff;fill-rule:nonzero;"/><path id="fox-news" d="M2115.42,863.061l375.833,0l0,-351.25l-375.833,0l-0,-167.5l457.5,0l-25,-352.083l-815,-0l-0,1289.17l382.5,-0l-0,-418.334Zm1590,414.584l411.25,-0l187.5,-316.25l192.083,316.666l420.833,0l-405.833,-667.916l365.417,-615.834l-416.667,0l-157.083,267.5l-162.917,-268.333l-423.75,-0l376.25,619.583l-387.083,664.584Zm-478.334,14.166c363.75,5 662.917,-285 669.167,-648.75c-15.417,-370 -327.5,-657.5 -697.917,-642.5c-348.75,14.584 -627.916,293.75 -642.5,642.5c5.834,364.167 305.834,654.584 670,648.75l1.25,0Zm-118.333,-931.666c0.417,-63.75 50.833,-115.417 114.167,-118.334c65.416,1.25 118.333,53.334 120.833,118.334l0,547.083c-4.583,65 -60.833,113.75 -125.833,109.167c-58.75,-4.167 -105,-50.834 -109.167,-109.167l0,-547.083Zm-906.25,1883.75l389.167,-0l-0,-257.917l-389.167,-0l0,-175.417l474.167,0l-0,-279.166l-774.584,-0l0,1205.42l780.417,0l0,-290l-480,0l0,-202.916Zm1675,-712.5l-149.167,690l-145.833,-690l-257.5,-0l-138.75,697.083l-144.583,-697.083l-307.084,-0l278.75,1205.42l280,0l137.084,-690.833l141.25,690.833l274.166,0l280,-1205.42l-248.333,-0Zm1016.67,544.583c-80,-73.75 -171.667,-93.333 -274.584,-122.5c-121.666,-34.167 -188.75,-37.917 -188.75,-108.75c5,-52.5 51.667,-90.833 104.167,-85.833l0.833,-0c77.5,-6.25 148.334,45 166.25,120.833l262.917,-87.5c-48.75,-183.333 -218.75,-307.917 -408.333,-299.583c-274.584,-0 -442.5,168.75 -442.5,395.833c-0,196.25 114.166,292.917 342.916,361.25c136.667,41.25 209.167,37.917 209.167,125.833c0,46.25 -42.917,82.5 -114.167,82.5c-94.166,10.834 -180,-53.75 -196.25,-147.083l-288.333,63.333c49.167,228.75 219.583,364.584 480.833,364.584c129.167,3.333 253.75,-47.917 342.917,-141.25c65.833,-72.5 102.083,-167.084 101.25,-265.417c5.417,-95.833 -30.833,-189.167 -98.75,-256.667l0.417,0l-0,0.417Zm-3366.25,60.417l-359.167,-599.584l-348.333,0l-0,1200.83l305.833,-0l-0,-701.667l410,700l290,-0l0,-1200.83l-297.5,-0l-0.833,601.25Z" style="fill:#fff;fill-rule:nonzero;"/></g></g></svg>