<?xml version="1.0" encoding="UTF-8" standalone="no"?><!DOCTYPE svg PUBLIC "-//W3C//DTD SVG 1.1//EN" "http://www.w3.org/Graphics/SVG/1.1/DTD/svg11.dtd"><svg width="100%" height="100%" viewBox="0 0 2500 753" version="1.1" xmlns="http://www.w3.org/2000/svg" xmlns:xlink="http://www.w3.org/1999/xlink" xml:space="preserve" xmlns:serif="http://www.serif.com/" style="fill-rule:evenodd;clip-rule:evenodd;stroke-linejoin:round;stroke-miterlimit:2;"><path d="M1335,442.917l0,-135.417l363.75,0c37.083,0 67.083,30 67.083,66.667l0,160.833c0,82.917 -66.25,151.25 -150.833,151.667l-232.917,-0c-172.5,-0 -312.5,-139.167 -312.5,-310.834c0,-171.666 140.417,-310.833 312.5,-310.833l360.834,-0l-0,142.917l-360.834,-0c-92.916,-0 -169.583,75.416 -169.583,167.916c0,92.917 75.417,167.917 169.167,167.917l240.833,0l0,-100.833l-287.5,-0Zm-312.083,-378.75l-0,622.916l-75,0c-36.667,0 -66.667,-29.583 -66.667,-66.25l0,-556.666l141.667,-0Zm1410.42,0.416c36.667,0 66.25,29.584 66.25,66.25l0,412.917c0,82.917 -67.5,150 -150.416,150l-2.5,0c-54.584,0 -102.084,-27.083 -128.334,-71.25l-239.583,-419.167c-2.083,-3.75 -5.417,-4.583 -8.333,-4.583c-3.75,-0 -6.667,2.083 -8.334,5c-0.833,1.25 -1.25,2.917 -1.25,4.583l0,479.167l-75.416,0c-36.667,0 -66.667,-29.583 -66.667,-66.25l0,-413.333c0,-82.917 67.5,-150 150.417,-150l2.5,-0c54.583,-0 102.916,29.166 129.583,73.333l237.917,416.667c2.916,3.75 5.833,5.416 8.75,5.416c3.75,0 6.666,-2.083 8.333,-4.583c0.833,-1.25 0.833,-2.5 1.25,-3.75l0,-480l75.833,0l0,-0.417Z" style="fill:#bf1313;fill-rule:nonzero;"/><path d="M168.75,239.583c-37.083,4.167 -70.833,9.584 -100.833,16.25c33.75,-86.25 102.5,-154.583 188.75,-188.333c-6.667,30 -12.5,63.75 -16.667,100.833c-28.333,19.167 -52.5,43.334 -71.25,71.25Zm344.583,-71.666c-4.166,-36.667 -10,-70.417 -17.083,-100.417c86.667,33.333 155.417,102.083 189.167,188.333c-30,-6.666 -63.75,-12.5 -100.834,-16.25c-18.75,-28.333 -42.916,-52.5 -71.25,-71.25l0,-0.416Zm-273.333,415.833c4.167,37.083 9.583,70.833 16.667,100.833c-86.25,-33.75 -155,-102.5 -188.75,-188.75c29.583,6.667 62.916,12.5 100.416,16.667l0.834,0c18.333,28.333 42.5,52.917 70.833,71.25Zm345.833,-71.25c37.5,-4.167 70.834,-10 100.417,-16.667c-33.75,86.667 -102.917,155.417 -189.583,189.167c7.083,-29.583 12.5,-63.333 17.083,-100l-0,-0.833c28.333,-18.75 52.5,-42.917 71.25,-71.25c-0,-0 0.417,-0 0.833,-0.417Zm167.917,-197.917l0,122.5c-57.917,26.667 -144.167,37.5 -173.333,40.834c-7.084,1.25 -13.75,2.083 -20,2.083l-92.917,-103.75l92.917,-103.75c5.416,0 10.833,0.417 17.083,1.667c30,3.333 117.917,13.75 176.25,40.416Zm-560.417,-42.083l92.917,103.75l-92.917,103.75c-6.25,-0 -12.916,-0.833 -20,-2.083c-29.166,-3.334 -115.416,-14.167 -173.333,-40.834l-0,-122.5c58.75,-27.083 146.25,-37.5 176.25,-40.416c6.25,-0.834 11.667,-1.667 17.083,-1.667Zm79.584,287.083l103.75,-92.5l103.75,92.5c-0,6.25 -0.834,12.917 -2.084,20c-3.333,29.167 -14.166,115.417 -40.833,173.334l-122.083,-0c-27.084,-58.334 -37.5,-146.25 -40.417,-175.834c-1.25,-6.666 -2.083,-12.083 -2.083,-17.5Zm42.5,-559.583l122.5,-0c26.666,57.917 37.5,144.167 40.833,173.333c1.25,7.084 2.083,13.75 2.083,20l-103.75,92.917l-103.75,-92.917c0,-5.416 0.417,-10.833 1.667,-17.083c2.917,-30 12.917,-117.917 40.417,-176.25Z" style="fill:#bf1313;fill-rule:nonzero;"/></svg>