<?xml version="1.0" encoding="UTF-8" standalone="no"?><!DOCTYPE svg PUBLIC "-//W3C//DTD SVG 1.1//EN" "http://www.w3.org/Graphics/SVG/1.1/DTD/svg11.dtd"><svg width="100%" height="100%" viewBox="0 0 1854 761" version="1.1" xmlns="http://www.w3.org/2000/svg" xmlns:xlink="http://www.w3.org/1999/xlink" xml:space="preserve" xmlns:serif="http://www.serif.com/" style="fill-rule:evenodd;clip-rule:evenodd;"><g><rect id="g5jjnq26yS" x="8.59" y="19.756" width="190.125" height="731.875" style="fill-rule:nonzero;"/><g><rect id="g5jjnq26yS1" serif:id="g5jjnq26yS" x="8.59" y="19.756" width="190.125" height="731.875" style="fill-opacity:0;fill-rule:nonzero;stroke:#000;stroke-opacity:0;stroke-width:4.17px;"/></g></g><g><path id="i3Prh1JpXt" d="M557.965,356.881c-16.334,-111.541 -25.417,-173.541 -27.209,-185.916c-7.958,-59.709 -15.541,-111.667 -22.791,-156l-246.5,-0l-0,731.875l166.541,-0l0.584,-483.25l70.083,483.25l118.625,-0l66.458,-494l0.625,494l166,-0l0,-731.875l-248.375,-0l-44.041,341.916Z" style="fill-rule:nonzero;"/><g><path id="i3Prh1JpXt1" serif:id="i3Prh1JpXt" d="M557.965,356.881c-16.334,-111.541 -25.417,-173.541 -27.209,-185.916c-7.958,-59.709 -15.541,-111.667 -22.791,-156l-246.5,-0l-0,731.875l166.541,-0l0.584,-483.25l70.083,483.25l118.625,-0l66.458,-494l0.625,494l166,-0l0,-731.875l-248.375,-0l-44.041,341.916Z" style="fill-opacity:0;fill-rule:nonzero;stroke:#000;stroke-opacity:0;stroke-width:4.17px;"/></g></g><g><path id="a4ov9rRGQm" d="M1164.26,167.215c2.084,9.333 3.167,30.5 3.167,63.583l0,283.75c0,48.708 -3.167,78.542 -9.458,89.542c-6.334,11 -23.167,16.458 -50.459,16.458l0,-480.417c20.709,0 34.834,2.209 42.334,6.542c7.5,4.375 12.333,11.208 14.416,20.542Zm85.875,572.166c22.625,-4.958 41.625,-13.708 57.042,-26.166c15.375,-12.5 26.167,-29.792 32.333,-51.917c6.209,-22.083 9.875,-65.958 9.875,-131.583l0,-257c0,-69.25 -2.708,-115.667 -6.916,-139.25c-4.25,-23.625 -14.792,-45.084 -31.667,-64.334c-16.917,-19.25 -41.583,-33.083 -74,-41.5c-32.458,-8.416 -85.375,-12.666 -177.417,-12.666l-141.833,-0l0,731.875l230.333,-0c53.084,-1.667 87.167,-4.125 102.25,-7.459Z" style="fill-rule:nonzero;"/><g><path id="a4ov9rRGQm1" serif:id="a4ov9rRGQm" d="M1164.26,167.215c2.084,9.333 3.167,30.5 3.167,63.583l0,283.75c0,48.708 -3.167,78.542 -9.458,89.542c-6.334,11 -23.167,16.458 -50.459,16.458l0,-480.417c20.709,0 34.834,2.209 42.334,6.542c7.5,4.375 12.333,11.208 14.416,20.542Zm85.875,572.166c22.625,-4.958 41.625,-13.708 57.042,-26.166c15.375,-12.5 26.167,-29.792 32.333,-51.917c6.209,-22.083 9.875,-65.958 9.875,-131.583l0,-257c0,-69.25 -2.708,-115.667 -6.916,-139.25c-4.25,-23.625 -14.792,-45.084 -31.667,-64.334c-16.917,-19.25 -41.583,-33.083 -74,-41.5c-32.458,-8.416 -85.375,-12.666 -177.417,-12.666l-141.833,-0l0,731.875l230.333,-0c53.084,-1.667 87.167,-4.125 102.25,-7.459Z" style="fill-opacity:0;fill-rule:nonzero;stroke:#000;stroke-opacity:0;stroke-width:4.17px;"/></g></g><g><path id="fk968BpsX" d="M1656.13,630.006c-3.5,9.292 -18.833,14 -30.416,14c-11.334,0 -18.875,-4.5 -22.709,-13.541c-3.833,-9 -5.708,-29.542 -5.708,-61.709l0,-193.416c0,-33.334 1.667,-54.125 5.042,-62.417c3.333,-8.208 10.666,-12.375 22,-12.375c11.583,0 27.125,4.708 31.125,14.167c3.958,9.458 5.958,29.666 5.958,60.625l0,187.541c-1.208,38.542 -2.958,60.917 -5.292,67.125Zm-242,110.459l171.167,-0c7.125,-27.959 11.042,-43.5 11.833,-46.625c15.5,18.75 32.542,32.833 51.25,42.166c18.625,9.375 46.5,14.042 68.084,14.042c30.041,0 55.958,-7.875 77.833,-23.667c21.833,-15.75 35.75,-34.416 41.667,-55.875c5.916,-21.5 8.875,-54.166 8.875,-98.083l-0,-205.333c-0,-44.167 -1,-73 -2.959,-86.542c-1.958,-13.542 -7.791,-27.333 -17.5,-41.458c-9.708,-14.125 -23.833,-25.084 -42.333,-32.917c-18.5,-7.833 -40.333,-11.75 -65.5,-11.75c-21.875,0 -49.875,4.375 -68.542,13c-18.625,8.625 -35.541,21.708 -50.708,39.25l0,-238.083l-183.167,-0l0,731.875Z" style="fill-rule:nonzero;"/><g><path id="fk968BpsX1" serif:id="fk968BpsX" d="M1656.13,630.006c-3.5,9.292 -18.833,14 -30.416,14c-11.334,0 -18.875,-4.5 -22.709,-13.541c-3.833,-9 -5.708,-29.542 -5.708,-61.709l0,-193.416c0,-33.334 1.667,-54.125 5.042,-62.417c3.333,-8.208 10.666,-12.375 22,-12.375c11.583,0 27.125,4.708 31.125,14.167c3.958,9.458 5.958,29.666 5.958,60.625l0,187.541c-1.208,38.542 -2.958,60.917 -5.292,67.125Zm-242,110.459l171.167,-0c7.125,-27.959 11.042,-43.5 11.833,-46.625c15.5,18.75 32.542,32.833 51.25,42.166c18.625,9.375 46.5,14.042 68.084,14.042c30.041,0 55.958,-7.875 77.833,-23.667c21.833,-15.75 35.75,-34.416 41.667,-55.875c5.916,-21.5 8.875,-54.166 8.875,-98.083l-0,-205.333c-0,-44.167 -1,-73 -2.959,-86.542c-1.958,-13.542 -7.791,-27.333 -17.5,-41.458c-9.708,-14.125 -23.833,-25.084 -42.333,-32.917c-18.5,-7.833 -40.333,-11.75 -65.5,-11.75c-21.875,0 -49.875,4.375 -68.542,13c-18.625,8.625 -35.541,21.708 -50.708,39.25l0,-238.083l-183.167,-0l0,731.875Z" style="fill-opacity:0;fill-rule:nonzero;stroke:#000;stroke-opacity:0;stroke-width:4.17px;"/></g></g></svg>