<?xml version="1.0" encoding="UTF-8" standalone="no"?><!DOCTYPE svg PUBLIC "-//W3C//DTD SVG 1.1//EN" "http://www.w3.org/Graphics/SVG/1.1/DTD/svg11.dtd"><svg width="100%" height="100%" viewBox="0 0 3197 421" version="1.1" xmlns="http://www.w3.org/2000/svg" xmlns:xlink="http://www.w3.org/1999/xlink" xml:space="preserve" xmlns:serif="http://www.serif.com/" style="fill-rule:evenodd;clip-rule:evenodd;stroke-linejoin:round;stroke-miterlimit:2;"><path d="M239.583,43.404c0,-34.725 -32.987,-43.404 -59.029,-43.404l0,5.208c15.625,0 27.779,5.209 27.779,17.363c0,6.942 -5.208,17.358 -20.833,17.358c-12.154,0 -38.196,-6.941 -57.292,-13.887c-22.57,-8.68 -43.404,-15.625 -60.762,-15.625c-34.725,-0 -59.029,26.041 -59.029,55.554c-0,26.042 19.096,34.725 26.041,38.196l1.738,-3.471c-3.475,-3.475 -8.683,-6.946 -8.683,-17.363c-0,-6.945 6.945,-19.096 24.308,-19.096c15.625,0.001 36.458,6.942 64.233,15.626c24.309,6.941 50.35,12.15 64.238,13.887l-0,53.821l-26.042,22.567l0,1.737l26.042,22.571l-0,74.65c-13.888,8.683 -29.513,10.416 -43.404,10.416c-26.042,0 -48.609,-6.941 -67.709,-27.774l71.184,-34.725l-0,-119.792l-86.809,38.196c6.946,-22.571 26.042,-38.196 45.142,-48.613l-1.738,-5.208c-52.083,13.891 -98.958,62.5 -98.958,121.529c0,69.446 57.292,121.529 121.529,121.529c69.442,0 114.584,-55.558 114.584,-112.85l-3.475,0c-10.417,22.571 -26.042,43.404 -45.138,53.821l0,-71.179l27.779,-22.571l0,-1.737l-27.779,-22.567l0,-53.821c26.042,0 52.083,-17.362 52.083,-50.346Zm-151.041,190.971l-20.834,10.417c-12.154,-15.625 -19.095,-36.459 -19.095,-65.971c-0,-12.154 -0,-26.042 3.47,-36.458l36.459,-15.625l-0,107.637Zm184.029,39.929l-22.571,17.363l3.471,3.471l10.416,-8.68l38.196,34.721l52.084,-34.721l-1.738,-3.47l-13.887,8.679l-17.363,-17.363l0,-118.054l13.892,-10.417l29.512,24.305l0,105.904c0,65.971 -13.887,76.387 -43.404,86.804l0,5.208c48.613,1.738 93.75,-13.887 93.75,-98.958l0,-114.583l15.625,-12.15l-3.471,-3.475l-13.887,10.416l-43.404,-36.458l-48.613,36.458l0,-142.358l-3.471,-0l-60.762,41.667l-0,3.47c6.941,3.471 17.358,6.946 17.358,26.042l-1.733,196.179Zm317.708,-19.096l-43.404,32.988l-43.404,-34.725l-0,-20.833l81.6,-55.555l-0,-1.737l-41.667,-62.5l-90.279,48.612l-0,114.584l-17.363,13.887l3.475,3.475l15.625,-12.154l59.025,43.404l78.125,-62.5l-1.733,-6.946Zm-86.808,-29.512l-0,-85.071l3.475,-1.737l38.191,60.766l-41.666,26.042Zm418.404,-197.917c-0,-5.208 -1.738,-10.416 -3.471,-15.625l-3.475,0c-5.208,13.888 -12.15,20.834 -29.512,20.834c-15.625,-0 -26.042,-8.684 -32.988,-15.625l-50.346,57.291l3.471,3.471l17.363,-15.625c10.416,8.679 19.095,15.625 43.404,17.363l-0,144.095l-102.434,-175.345c-8.679,-13.892 -20.833,-32.988 -45.137,-32.988c-27.779,0 -52.083,24.304 -48.613,62.5l5.209,0c1.737,-10.417 6.946,-22.571 19.1,-22.571c8.679,0 17.358,8.684 22.566,17.363l0,57.291c-31.25,0 -52.083,13.888 -52.083,39.93c0,13.891 6.946,34.725 27.779,39.933l0,-3.475c-3.471,-3.471 -5.208,-6.942 -5.208,-12.15c-0,-8.683 6.946,-15.625 19.096,-15.625l8.683,-0l0,72.917c-36.458,-0 -65.975,20.833 -65.975,55.554c0,32.987 27.779,48.612 59.029,46.875l0,-3.471c-19.096,-1.738 -27.779,-10.417 -27.779,-22.571c0,-15.625 10.417,-22.571 24.308,-22.571c13.888,0 26.042,8.684 34.721,19.1l50.346,-55.558l-3.471,-3.471l-12.154,13.888c-19.096,-17.359 -29.512,-22.567 -52.083,-26.042l-0,-173.608l138.891,243.054l10.417,-0l0,-243.054c26.042,-1.738 50.346,-22.571 50.346,-52.084Zm126.737,227.429l-43.404,32.988l-43.404,-34.725l0,-20.833l81.6,-55.555l0,-1.737l-41.667,-62.5l-90.279,48.612l0,114.584l-17.362,13.887l3.475,3.475l15.625,-12.154l59.025,43.404l78.125,-62.5l-1.734,-6.946Zm-86.808,-29.512l0,-85.071l3.475,-1.737l38.192,60.766l-41.667,26.042Zm369.792,-93.75l-12.15,8.679l-32.988,-27.779l-38.196,34.725l15.625,15.625l0,130.208l-41.666,-26.041l-0,-107.642l13.891,-8.679l-39.933,-38.196l-38.192,34.725l15.625,15.625l0,125l-5.208,3.471l-36.458,-26.042l-0,-104.167c-0,-24.304 -12.154,-31.25 -26.042,-39.929c-12.154,-8.683 -19.1,-13.891 -19.1,-26.041c0,-10.417 10.417,-15.625 15.625,-19.1l0,-3.471c-13.887,-0 -50.346,13.887 -50.346,46.875c0,17.362 8.679,24.304 17.363,32.987c8.679,8.679 17.358,15.625 17.358,31.25l0,100.692l-19.096,13.892l3.471,3.47l17.363,-13.887l39.929,34.721l43.404,-29.513l48.612,29.513l92.013,-53.821l-0,-116.317l22.571,-17.362l-3.475,-3.471Zm322.916,-95.488l-17.358,15.625l-38.196,-34.72l-57.291,41.666l-0,-38.196l-5.209,0l1.738,281.25c-5.209,0 -20.834,-3.47 -32.988,-6.945l-3.471,-234.375c0,-17.359 -12.154,-41.667 -43.404,-41.667c-31.25,-0 -52.083,24.308 -52.083,48.612l5.208,0c1.738,-10.416 6.946,-19.095 17.363,-19.095c10.416,-0 19.096,6.941 19.096,29.512l-0,67.708c-31.25,1.738 -50.346,19.096 -50.346,41.667c-0,13.888 6.941,34.721 27.775,34.721l-0,-3.471c-6.942,-3.471 -8.679,-8.679 -8.679,-12.154c-0,-10.417 8.679,-13.888 22.57,-13.888l6.942,0l0,107.638c-26.042,8.683 -36.458,27.779 -36.458,48.612c-0,29.513 22.571,50.346 57.291,50.346c24.309,0 45.142,-3.471 65.975,-8.679c17.359,-3.471 39.93,-8.679 50.346,-8.679c13.888,-0 19.096,6.942 19.096,15.625c0,12.15 -5.208,17.358 -12.15,19.096l0,3.471c27.775,-5.209 45.138,-22.567 45.138,-48.609c-0,-26.041 -26.042,-41.666 -53.821,-41.666c-13.888,-0 -43.4,5.208 -64.234,8.679c-24.308,5.208 -48.612,8.679 -55.558,8.679c-12.15,-0 -26.042,-5.208 -26.042,-22.567c0,-13.891 12.155,-26.041 41.667,-26.041c15.625,-0 34.725,1.733 53.821,6.941c20.833,5.209 39.929,10.417 57.292,10.417c26.041,-0 48.612,-8.679 48.612,-45.138l0,-213.541l20.833,-17.363l-3.475,-3.471Zm-71.179,105.905c-5.208,5.208 -12.154,10.416 -20.833,10.416c-8.679,0 -17.363,-5.208 -20.833,-10.416l-0,-76.392l17.362,-12.15l24.304,22.567l0,65.975Zm0,52.083c-3.471,-3.475 -12.154,-8.683 -20.833,-8.683c-8.679,-0 -17.363,5.208 -20.833,8.683l-0,-45.142c3.47,3.475 12.154,8.684 20.833,8.684c8.679,-0 17.362,-5.209 20.833,-8.684l0,45.142Zm0,81.596c0,13.887 -8.679,27.779 -27.779,27.779l-13.887,-0l-0,-102.433c3.47,-3.471 12.154,-8.68 20.833,-8.68c8.679,0 15.625,5.209 20.833,8.68l0,74.654Zm237.846,-123.263l-55.554,-39.933l-85.071,48.612l0,112.846l-17.358,13.892l1.733,3.471l13.892,-10.417l55.554,41.667l86.804,-52.084l0,-118.054Zm-93.75,109.375l0,-125l43.404,31.25l0,123.263l-43.404,-29.513Zm258.683,-145.833l-3.475,-0c-5.208,3.471 -10.416,6.942 -15.625,6.942c-6.941,-0 -15.625,-3.471 -19.095,-8.68l-3.471,0l-29.517,32.988l-29.512,-32.988l-52.084,34.721l1.738,3.475l13.887,-8.683l17.363,19.1l-0,109.375l-22.571,17.358l3.471,3.475l10.416,-8.683l41.667,34.725l53.821,-36.458l-1.738,-3.475l-15.625,8.683l-20.833,-17.363l0,-121.529c8.683,8.684 19.1,17.363 31.25,17.363c24.308,1.737 38.196,-22.571 39.933,-50.346Zm208.334,166.667l-59.029,39.929l-79.863,-121.529l57.292,-88.542l3.475,-0c6.941,6.946 17.358,13.892 29.512,13.892c12.154,-0 20.834,-6.946 26.042,-13.892l3.471,-0c-1.734,34.725 -26.042,55.558 -43.4,55.558c-17.363,0 -26.042,-8.683 -36.459,-13.891l-5.208,8.683l86.804,128.471l17.363,-10.417l-0,1.738Zm-190.975,-8.684l-22.567,17.363l3.471,3.471l10.417,-8.68l38.195,34.721l52.084,-34.721l-3.475,-3.47l-13.888,8.679l-17.362,-17.363l-0,-267.358l-1.734,-0l-62.5,41.667l0,3.47c6.942,3.471 17.359,5.209 17.359,26.042l-0,196.179Zm479.166,-230.9c0,-34.725 -32.983,-43.404 -59.025,-43.404l0,5.208c15.625,0 27.775,5.209 27.775,17.363c0,6.942 -5.208,17.358 -20.833,17.358c-12.15,0 -38.192,-6.941 -57.292,-13.887c-22.566,-6.946 -43.4,-13.888 -60.762,-13.888c-34.721,0 -59.029,26.042 -59.029,55.554c-0,26.042 19.1,34.721 26.041,38.196l1.738,-3.475c-5.208,-3.471 -10.417,-6.941 -10.417,-17.358c0,-6.946 6.946,-19.1 24.304,-19.1c15.625,-0 36.459,6.946 64.238,15.625c24.304,6.946 50.346,12.154 64.237,13.892l0,53.816l-26.041,22.571l-0,1.738l26.041,22.566l0,74.654c-13.891,8.68 -29.516,10.417 -43.404,10.417c-26.041,0 -48.612,-6.946 -67.708,-27.779l71.179,-34.721l0,-121.529l-86.804,38.196c8.679,-22.571 27.779,-38.196 45.137,-50.346l-1.733,-3.475c-52.083,13.892 -98.958,60.767 -98.958,119.792c-0,69.445 57.291,121.529 121.525,121.529c69.446,-0 114.583,-55.554 114.583,-112.846l-3.471,-0c-10.416,22.567 -26.041,43.4 -45.137,53.817l-0,-71.18l27.775,-22.57l-0,-1.734l-26.042,-22.571l0,-52.083c26.042,0 52.083,-17.362 52.083,-50.346Zm-151.041,190.971l-20.834,10.417c-12.15,-15.625 -19.095,-36.459 -19.095,-65.971c-0,-12.154 1.737,-26.042 5.208,-36.458l36.458,-15.625l-1.737,107.637Zm211.808,-208.333l-1.737,-0l-34.721,29.512l-0,1.738l29.512,32.987l3.471,0l34.725,-29.516l0,-1.734l-31.25,-32.987Zm52.083,256.946l-13.891,8.679l-17.359,-17.363l0,-119.791l17.359,-12.15l-3.471,-3.475l-12.154,10.416l-31.25,-36.458l-50.346,34.725l3.471,5.208l12.154,-8.683l15.625,19.1l-0,112.846l-22.571,17.362l1.738,3.471l12.154,-8.679l38.191,34.721l52.084,-34.721l-1.734,-5.208Zm289.93,-1.738l-12.155,8.679l-19.095,-17.358l-0,-118.058l17.362,-13.888l-3.475,-3.471l-13.887,12.15l-39.93,-36.458l-52.083,36.458l-39.933,-36.458l-48.609,36.458l-31.25,-36.458l-50.35,34.725l1.738,5.208l12.154,-8.683l17.359,19.1l-0,112.846l-13.888,13.887l39.929,32.988l38.196,-34.721l-15.625,-15.625l0,-118.058l15.625,-10.417l26.042,24.308l-0,104.167l-13.888,13.887l39.929,32.988l38.196,-34.725l-15.625,-15.625l0,-114.583l13.888,-8.68l27.779,24.305l-0,104.166l-12.154,12.154l39.929,36.459l53.821,-36.459l-0,-5.208Zm151.041,-26.042l-43.404,32.988l-43.4,-34.725l0,-20.833l81.596,-55.555l-0,-1.737l-41.667,-62.5l-90.279,48.612l0,118.055l60.767,43.404l78.125,-62.5l-1.738,-5.209Zm-86.804,-29.512l0,-85.071l3.471,-1.737l38.196,60.766l-41.667,26.042Zm244.792,-15.625l-32.988,-26.042c22.571,-19.1 31.25,-45.141 31.25,-62.5l0,-10.416l-3.471,-0c-3.475,8.679 -10.416,17.358 -24.308,17.358c-13.887,-0 -22.567,-6.942 -31.25,-17.358l-78.125,43.4l0,62.5l29.517,22.57c-29.517,26.042 -34.725,43.405 -34.725,57.292c-0,17.363 8.683,29.513 22.571,34.721l1.737,-3.471c-3.475,-3.471 -6.946,-5.208 -6.946,-13.887c0,-5.209 6.946,-13.892 20.834,-13.892c17.362,-0 27.779,12.154 32.987,17.362l74.65,-45.137l0,-62.5l-1.733,-0Zm-19.1,-52.083c-12.15,20.833 -38.192,41.666 -53.817,52.083l-19.1,-15.625l0,-60.767c6.946,17.363 26.042,31.25 45.142,31.25c12.15,0 19.096,-1.733 27.775,-6.941Zm-29.513,138.887c-8.679,-19.096 -29.512,-32.987 -50.346,-32.987c-5.208,-0 -19.1,-0 -32.987,8.683c8.679,-13.892 31.25,-38.196 60.762,-55.558l20.834,17.362l1.737,62.5Z" style="fill-rule:nonzero;"/></svg>