<?xml version="1.0" encoding="UTF-8" standalone="no"?><!DOCTYPE svg PUBLIC "-//W3C//DTD SVG 1.1//EN" "http://www.w3.org/Graphics/SVG/1.1/DTD/svg11.dtd"><svg width="100%" height="100%" viewBox="0 0 9817 2089" version="1.1" xmlns="http://www.w3.org/2000/svg" xmlns:xlink="http://www.w3.org/1999/xlink" xml:space="preserve" xmlns:serif="http://www.serif.com/" style="fill-rule:evenodd;clip-rule:evenodd;stroke-linejoin:round;stroke-miterlimit:2;"><path d="M2232.67,1111.25c-5,-135 -118.334,-240.417 -253.75,-235.833c-60,2.083 -117.084,26.666 -160.417,67.916c-190.833,-130 -415,-201.25 -645.417,-206.25l108.75,-522.916l358.75,75.416c10,92.084 92.5,158.75 184.584,148.75c92.083,-10 158.75,-92.5 148.75,-184.583c-10,-92.083 -92.5,-158.75 -184.584,-148.75c-52.916,5.417 -100.416,36.25 -126.666,82.083l-410.834,-82.083c-27.916,-6.25 -55.833,11.25 -62.083,39.583l-0,0.834l-123.75,581.666c-233.333,3.75 -460.417,75.417 -653.75,206.25c-98.333,-92.5 -253.333,-87.916 -345.833,10.834c-92.5,98.333 -87.917,253.333 10.833,345.833c19.167,17.917 41.25,33.333 65.833,44.167c-1.666,24.583 -1.666,49.166 0,73.75c0,375.416 437.5,680.833 977.084,680.833c539.583,0 977.083,-305 977.083,-680.833c1.667,-24.584 1.667,-49.167 -0,-73.75c84.167,-42.084 137.083,-128.75 135.417,-222.917Zm-1676.25,167.917c-0,-92.5 75.416,-167.917 167.916,-167.917c92.5,0 167.917,75.417 167.917,167.917c-0,92.5 -75.417,167.916 -167.917,167.916c-92.916,-0.833 -167.916,-75.416 -167.916,-167.916Zm973.75,460.833c-119.167,89.583 -265,135.417 -414.167,129.167c-149.167,6.25 -295,-39.584 -414.167,-129.167c-15.833,-19.167 -12.916,-47.917 6.25,-63.75c16.667,-13.75 40.417,-13.75 57.5,0c100.834,73.75 223.75,111.25 348.75,105.417c125,6.666 248.334,-29.167 350.417,-102.084c18.333,-17.916 48.333,-17.5 66.25,0.834c17.917,18.333 17.5,48.333 -0.833,66.25l-0,-6.667Zm-30,-287.083c-92.5,-0 -167.917,-75.417 -167.917,-167.917c-0,-92.5 75.417,-167.917 167.917,-167.917c92.5,0 167.916,75.417 167.916,167.917c3.75,92.5 -68.333,170.417 -160.833,174.167l-8.333,-0l1.25,-6.25Z" style="fill:#fff;fill-rule:nonzero;"/><circle cx="8790.59" cy="371.667" r="228.333" style="fill:#fff;"/><path d="M5554.75,1343.33c88.333,6.25 165,-60.416 171.667,-149.166c0.416,-5 0.416,-10.834 0.416,-16.25c-1.25,-30.834 -5,-62.084 -11.25,-92.5c-54.166,-289.167 -301.25,-502.084 -595,-513.75c-334.583,-0 -614.166,307.5 -614.166,685c-0,377.5 275,685.416 613.75,685.416c179.583,7.084 353.75,-65.416 474.583,-198.333c49.583,-54.167 45.417,-137.917 -8.75,-187.5c-4.167,-3.75 -7.917,-7.083 -12.083,-10c-54.167,-33.75 -124.584,-26.667 -170.417,17.5c-75.417,75 -176.667,117.917 -283.333,121.25c-184.167,-14.583 -331.667,-158.75 -350,-343.333l779.583,-0l5,1.666Zm-435.833,-513.75c162.083,10.834 298.333,126.667 334.583,285.417l-668.333,0c35.833,-159.167 171.25,-275 333.75,-285.417Z" style="fill:#fff;fill-rule:nonzero;"/><path d="M4519.75,704.583c-0,-64.166 -47.5,-118.75 -111.25,-126.666c-172.083,-28.75 -347.083,35 -460,168.333l-0,-16.667c-0,-71.25 -57.5,-128.75 -128.75,-128.75c-71.25,0 -128.75,57.5 -128.75,128.75l-0,1054.17c-1.667,69.167 51.25,127.917 120.417,133.75c70.416,5 132.083,-48.333 136.666,-118.75c0.417,-5 0.417,-10 0,-15l0,-540.833c-11.25,-215.834 154.167,-399.584 370,-411.25c19.167,-1.25 38.75,-0.834 57.917,1.25l25.833,-0c66.667,-5.834 117.917,-61.25 117.917,-128.334Z" style="fill:#fff;fill-rule:nonzero;"/><path d="M8918.92,842.917c-0,-71.25 -57.5,-128.75 -128.75,-128.75c-71.25,-0 -128.75,57.5 -128.75,128.75l-0,940.416c-0,71.25 57.5,128.75 128.75,128.75c71.25,0 128.75,-57.5 128.75,-128.75l-0,-940.416Z" style="fill:#fff;fill-rule:nonzero;"/><path d="M7018.92,128.333c-0,-70.833 -57.5,-128.333 -128.334,-128.333c-70.833,0 -128.333,57.5 -128.333,128.333l-0,575c-86.667,-87.5 -205.833,-135 -328.75,-131.666c-334.583,-0 -614.167,307.5 -614.167,685c0,377.5 275.417,685.416 614.167,685.416c125,3.75 245.833,-44.166 334.583,-132.916c20,67.916 91.25,106.666 159.167,86.666c51.25,-15 87.917,-60 91.25,-113.75l0.417,-1653.75Zm-586.25,1560c-197.084,0 -357.5,-191.666 -357.5,-428.75c-0,-237.083 159.166,-428.75 357.5,-428.75c198.333,0 357.5,191.667 357.5,428.75c-0,237.084 -159.167,426.667 -356.667,426.667l-0.833,2.083Z" style="fill:#fff;fill-rule:nonzero;"/><path d="M8361.42,128.333c-0,-70.833 -57.5,-128.333 -128.334,-128.333c-70.833,0 -128.333,57.5 -128.333,128.333l-0,575c-86.667,-87.5 -205.833,-135 -328.75,-131.666c-334.583,-0 -614.167,307.5 -614.167,685c0,377.5 275.417,685.416 614.167,685.416c125,3.75 245.833,-44.166 334.583,-132.916c20,67.916 91.25,106.666 159.167,86.666c51.25,-15 87.917,-60 91.25,-113.75l0.417,-1653.75Zm-585.834,1560c-197.083,0 -357.5,-191.666 -357.5,-428.75c0,-237.083 159.167,-428.75 357.5,-428.75c198.334,0 357.5,191.667 357.5,428.75c0,237.084 -159.166,426.667 -356.666,426.667l-0.834,2.083Z" style="fill:#fff;fill-rule:nonzero;"/><path d="M9586,1782.92l-0,-953.334l111.25,0c61.667,3.75 114.167,-43.333 117.917,-104.583c-0,-2.083 0.416,-4.583 0.416,-7.083c5.417,-61.25 -40,-115.417 -100.833,-120.834c-3.333,-0.416 -7.083,-0.416 -10.417,-0.416l-117.916,-0l-0,-177.084c0.833,-68.75 -51.667,-126.666 -120.417,-132.916c-70.417,-5 -131.667,48.333 -136.667,118.75c-0.416,2.916 -0.416,6.25 -0.416,9.166l-0,185l-111.667,0c-61.667,-3.75 -114.167,43.334 -117.917,104.584c0,2.083 -0.416,4.583 -0.416,7.083c-5.417,61.25 40,115.417 100.833,120.833c3.333,0.417 7.083,0.417 10.417,0.417l111.25,-0l-0,950.833c-0,70.834 57.5,128.334 128.333,128.334c70.833,4.583 131.25,-49.584 135.833,-120.417c0.417,-2.5 0.417,-5.417 0.417,-8.333Z" style="fill:#fff;fill-rule:nonzero;"/></svg>