<?xml version="1.0" encoding="UTF-8" standalone="no"?><!DOCTYPE svg PUBLIC "-//W3C//DTD SVG 1.1//EN" "http://www.w3.org/Graphics/SVG/1.1/DTD/svg11.dtd"><svg width="100%" height="100%" viewBox="0 0 9925 2511" version="1.1" xmlns="http://www.w3.org/2000/svg" xmlns:xlink="http://www.w3.org/1999/xlink" xml:space="preserve" xmlns:serif="http://www.serif.com/" style="fill-rule:evenodd;clip-rule:evenodd;stroke-linejoin:round;stroke-miterlimit:2;"><path d="M9924.39,1129.73l-147.677,-0l0,-472.566l-172.289,307.66l-98.452,-0l-147.677,-307.66l0,472.566l-172.289,-0l-0,-812.223l172.289,-0l196.903,438.108l221.515,-438.108l147.677,-0l0,812.223Zm-959.9,-0l-172.29,-0l-49.225,-142.755l-270.742,0l-49.225,142.755l-172.29,-0l295.354,-812.223l123.064,-0l295.354,812.223Zm-246.128,-278.125l-98.452,-295.354l-98.451,295.354l196.903,-0Zm-713.772,278.125l-541.483,-0l0,-812.223l541.483,-0l-0,140.293l-369.193,-0l0,191.98l319.967,-0l0,140.293l-319.967,-0l0,199.364l369.193,-0l-0,140.293Zm-787.611,-671.93l-196.903,-0l0,671.93l-172.289,-0l-0,-671.93l-221.516,-0l0,-140.293l590.708,-0l0,140.293Zm-787.61,433.185c-0,167.368 -147.677,243.667 -295.354,246.129c-147.677,-0 -246.129,-34.458 -295.354,-108.297l98.451,-100.912c49.226,44.303 98.451,68.916 196.903,68.916c98.451,-0 147.677,-34.458 147.677,-100.913c-0,-61.532 -49.226,-88.606 -98.452,-98.451l-98.451,-12.307c-147.677,-19.69 -221.516,-95.99 -221.516,-228.899c0,-73.839 24.613,-132.909 73.839,-179.674c49.226,-44.303 123.064,-66.454 196.903,-66.454c123.064,-0 196.902,31.996 270.741,93.528l-98.452,100.913c-49.225,-36.919 -98.451,-56.609 -172.289,-56.609c-73.839,4.922 -123.065,31.996 -123.065,103.373c0,56.61 49.226,83.684 98.452,88.607l98.451,14.767c123.064,14.768 221.516,98.452 221.516,236.283Zm-1255.26,-147.677c0,221.516 -196.902,401.19 -418.418,401.19c-221.515,-0 -393.805,-179.674 -393.805,-401.19c-0,-219.054 172.29,-398.727 393.805,-398.727c221.516,-0 418.418,179.673 418.418,398.727Zm-418.418,-743.307c-393.805,0 -738.385,329.812 -738.385,740.846l-467.644,667.008c-24.612,-2.486 -24.612,-4.923 -49.225,-4.923c-98.452,0 -196.903,29.536 -295.354,78.761l-2101.94,-846.681c-56.609,-251.051 -280.586,-438.108 -546.405,-438.108c-305.199,-0 -556.742,251.051 -556.742,558.711c0,305.199 251.543,556.25 556.742,556.25c105.86,-0 201.825,-27.074 285.534,-78.761l2116.7,846.681c49.226,258.435 270.741,430.725 541.482,430.725c270.741,-0 516.87,-221.516 541.483,-494.718l713.772,-521.792c418.418,-0 762.997,-334.735 762.997,-748.23c-0.024,-411.035 -344.604,-745.769 -763.022,-745.769Zm0,246.128c295.354,0 516.87,223.977 516.87,499.641c-0,278.125 -221.516,502.101 -516.87,502.101c-270.741,0 -492.257,-223.976 -492.257,-502.101c0,-275.664 221.516,-499.641 492.257,-499.641Zm-4198.95,98.452c157.522,-0 295.354,86.145 364.295,216.593l-204.311,-81.223c-164.906,-59.071 -347.041,22.152 -413.496,184.596c-63.993,164.906 9.845,349.503 169.829,420.88l172.289,68.916c-27.098,7.384 -56.609,9.845 -88.63,9.845c-226.414,-0 -408.573,-182.135 -408.573,-408.573c0.024,-228.899 182.159,-411.034 408.597,-411.034Zm2943.7,1206.03c221.515,0 393.805,184.597 393.805,411.035c0,228.899 -172.29,401.189 -393.805,401.189c-172.29,-0 -295.354,-73.839 -369.193,-209.209c73.839,36.919 123.064,61.532 196.903,86.145c172.29,73.838 344.58,-24.613 418.418,-182.135c49.226,-152.575 0,-361.784 -172.29,-428.239l-172.29,-68.916c24.613,-4.947 73.839,-9.87 98.452,-9.87Z" style="fill:#fff;fill-rule:nonzero;"/></svg>