<?xml version="1.0" encoding="UTF-8" standalone="no"?><!DOCTYPE svg PUBLIC "-//W3C//DTD SVG 1.1//EN" "http://www.w3.org/Graphics/SVG/1.1/DTD/svg11.dtd"><svg width="100%" height="100%" viewBox="0 0 2035 455" version="1.1" xmlns="http://www.w3.org/2000/svg" xmlns:xlink="http://www.w3.org/1999/xlink" xml:space="preserve" xmlns:serif="http://www.serif.com/" style="fill-rule:evenodd;clip-rule:evenodd;stroke-linejoin:round;stroke-miterlimit:2;"><path d="M635.347,71.25c-7.574,-27.991 -29.509,-49.926 -57.5,-57.5c-50.417,-13.75 -253.333,-13.75 -253.333,-13.75c-0,0 -202.917,0.417 -253.334,14.167c-27.99,7.574 -49.926,29.509 -57.5,57.5c-15.25,89.583 -21.166,226.083 0.417,312.083c7.574,27.991 29.509,49.926 57.5,57.5c50.417,13.75 253.333,13.75 253.333,13.75c0,0 202.917,0 253.334,-13.75c27.99,-7.574 49.925,-29.509 57.5,-57.5c16.083,-89.708 21.041,-226.125 -0.417,-312.5Z" style="fill:#fff;fill-rule:nonzero;"/><path d="M259.93,325l168.334,-97.5l-168.334,-97.5l0,195Z" style="fill:#f00;fill-rule:nonzero;"/><path d="M942.014,413.75c-12.917,-8.75 -22.084,-22.083 -27.5,-40.417c-5.417,-18.333 -7.917,-42.5 -7.917,-72.916l-0,-41.25c-0,-30.417 2.917,-55.417 9.167,-73.75c6.25,-18.75 15.833,-32.084 29.166,-40.417c13.334,-8.333 30.417,-12.917 51.667,-12.917c20.833,0 37.917,4.167 50.417,12.917c12.5,8.75 22.083,22.083 27.916,40.417c5.834,18.333 8.75,42.916 8.75,73.333l0,41.25c0,30.417 -2.916,54.583 -8.75,72.917c-5.833,18.333 -15,31.666 -27.916,40.416c-12.917,8.334 -30.417,12.917 -52.084,12.917c-22.5,0.417 -40,-4.167 -52.916,-12.5Zm72.083,-44.583c3.75,-9.167 5.417,-24.584 5.417,-45.417l-0,-88.75c-0,-20.417 -1.667,-35.417 -5.417,-44.583c-3.75,-9.584 -10,-14.167 -18.75,-14.167c-8.75,0 -14.583,4.583 -18.333,14.167c-3.75,9.583 -5.417,24.166 -5.417,44.583l-0,88.75c-0,20.833 1.667,36.25 5,45.417c3.333,9.166 9.583,13.75 18.75,13.75c8.75,-0 15,-4.584 18.75,-13.75Zm913.333,-68.334l0,15l1.667,41.25c1.25,9.167 3.333,15.834 6.667,20c3.333,4.167 8.75,6.25 15.833,6.25c9.583,0 16.25,-3.75 19.583,-11.25c3.75,-7.5 5.417,-20 5.834,-37.083l55.416,3.333c0.417,2.5 0.417,5.834 0.417,10c-0,26.25 -7.083,45.834 -21.667,58.75c-14.583,12.917 -34.583,19.584 -60.833,19.584c-31.667,-0 -53.75,-10 -66.25,-29.584c-12.5,-19.583 -19.167,-50.416 -19.167,-91.666l0,-50.417c1.417,-70.833 13.875,-122.708 87.084,-122.917c22.083,0 38.75,4.167 50.416,12.084c11.667,7.916 20,20.416 25,37.5c5,17.083 7.084,40.416 7.084,70.416l-0,48.75l-107.084,0Zm8.334,-119.583c-3.334,4.167 -5.417,10.417 -6.667,19.583c-1.25,9.167 -1.667,41.667 -1.667,41.667l0,20.417l46.667,-0l-0,-20.417c-0,20.417 -0.417,-32.083 -1.667,-41.667c-1.25,-9.583 -3.333,-16.25 -6.666,-20c-3.334,-3.75 -8.334,-5.833 -15,-5.833c-7.084,0.417 -12.084,2.5 -15,6.25Zm-1149.58,114.583l-72.916,-263.333l63.75,0c-0,0 29.791,132.083 40,194.167l1.666,-0c11.584,-65.917 40.834,-194.167 40.834,-194.167l63.75,-0l-73.75,262.917l-0,126.25l-62.917,-0l-0,-125.834l-0.417,0Z" style="fill:#fff;fill-rule:nonzero;"/><path id="A" d="M1290.35,137.5l-0,284.583l-50,0l-5.417,-35l-1.25,0c-13.75,26.25 -34.166,39.584 -61.25,39.584c-49.041,-0.125 -54.5,-41.667 -55,-76.667l0,-212.5l64.167,-0l-0,208.75c-0,12.5 1.25,21.667 4.167,27.083c5.916,11.584 21.25,8.625 29.583,2.917c4.811,-3.252 8.689,-7.705 11.25,-12.917l-0,-225.833l63.75,-0Z" style="fill:#fff;fill-rule:nonzero;"/><path d="M1464.51,84.167l-63.75,-0l-0,337.916l-62.5,0l-0,-337.916l-63.75,-0l-0,-51.667l189.583,0l-0,51.667l0.417,-0Zm366.25,98.75c-3.75,-17.917 -10,-30.834 -18.75,-39.167c-8.75,-7.917 -20.417,-12.083 -35.834,-12.083c-11.723,-0.026 -23.189,3.457 -32.916,10c-10.417,6.666 -17.917,15.416 -23.75,26.25l-0.417,-0l-0,-150l-61.667,-0l0,403.75l52.917,-0l6.667,-27.084l1.25,0c5.094,9.538 12.741,17.473 22.083,22.917c10,5.417 20.833,8.333 32.917,8.333c21.666,0 37.5,-10 47.916,-30c10,-20 15.417,-51.25 15.417,-93.333l-0,-45c-0,-31.667 -2.083,-56.667 -5.833,-74.583Zm-58.75,116.25c-0,20.833 -0.834,37.083 -2.5,48.75c-1.667,11.666 -4.584,20 -8.75,25c-4.167,5 -9.584,7.5 -16.25,7.5c-12.917,-0.417 -20.25,-6.25 -25.417,-15l-0,-161.667c2.083,-7.917 5.833,-14.167 11.25,-19.167c9.167,-10.291 24.833,-10.416 32.083,0c3.75,5 5.834,13.75 7.5,25.834c1.25,12.083 2.084,29.166 2.084,51.666l-0,37.084Z" style="fill:#fff;fill-rule:nonzero;"/><path id="A1" serif:id="A" d="M1619.1,137.5l-0,284.583l-50,0l-5.417,-35l-1.25,0c-13.75,26.25 -34.166,39.584 -61.25,39.584c-49.041,-0.125 -54.5,-41.667 -55,-76.667l0,-212.5l64.167,-0l-0,208.75c-0,12.5 1.25,21.667 4.167,27.083c5.916,11.584 21.25,8.625 29.583,2.917c4.811,-3.252 8.689,-7.705 11.25,-12.917l-0,-225.833l63.75,-0Z" style="fill:#fff;fill-rule:nonzero;"/></svg>