<svg xmlns="http://www.w3.org/2000/svg" viewBox="0 0 512 512"><path fill="#8cb4eb" d="M341 334.77l-85 71.58-85-71.58a195.05 195.05 0 01-69.41-149.2v-23.03C101.59 77.26 170.72 8.13 256 8.13s154.41 69.13 154.41 154.4v23.04c0 57.54-25.4 112.14-69.4 149.2z"/><path fill="#e3aa75" d="M416.05 379.8l-85.66-25.2a24.38 24.38 0 01-17.5-23.38v-38.65H199.11v38.65a24.38 24.38 0 01-17.5 23.39L95.95 379.8a48.76 48.76 0 00-35 46.78v61.04A24.38 24.38 0 0085.33 512h341.34a24.38 24.38 0 0024.38-24.38v-61.04a48.76 48.76 0 00-35-46.78z"/><path fill="#8cb4eb" d="M416.05 379.8l-85.66-25.2c-1.45-.42-2.81-1-4.12-1.66L256 406.34l-70.26-53.4a24.33 24.33 0 01-4.13 1.67L95.95 379.8a48.76 48.76 0 00-35 46.78v61.04A24.38 24.38 0 0085.33 512h341.34a24.38 24.38 0 0024.38-24.38v-61.04a48.76 48.76 0 00-35-46.78z"/><path fill="#d29b6e" d="M199.11 310.7c17.07 9.13 36.44 14.38 56.89 14.38s39.81-5.25 56.89-14.37v-18.14H199.1v18.14z"/><path fill="#f5b97d" d="M365.71 170.67h-4.06v-89.4h-211.3v89.4h-4.06a20.32 20.32 0 100 40.63h4.47c4.16 54.54 49.63 97.53 105.24 97.53s101.08-42.99 105.24-97.53h4.47a20.32 20.32 0 000-40.63z"/><path fill="#e3aa75" d="M361.65 81.27h-211.3v89.4h-2.9c-10.63 0-20.32 7.64-21.38 18.22a20.32 20.32 0 0020.22 22.41h4.47c4.16 54.54 49.63 97.53 105.24 97.53 5.56 0 10.98-.55 16.3-1.37-50.63-7.82-89.44-51.46-89.44-104.28v-58.39c0-10.6 9.92-18.26 20.2-15.73a379.1 379.1 0 0041.14 7.84 21.92 21.92 0 0021.05-9.5 22.05 22.05 0 003.6-15.28c24.58 6.39 61.55 20.39 92.8 49.45v-80.3z"/><g fill="#5a4650"><path d="M207.24 195.75a8.12 8.12 0 01-8.13-8.12v-8.13a8.12 8.12 0 1116.25 0v8.13a8.12 8.12 0 01-8.12 8.12zM304.76 195.75a8.12 8.12 0 01-8.12-8.12v-8.13a8.12 8.12 0 1116.25 0v8.13a8.12 8.12 0 01-8.13 8.12z"/></g><g fill="#6e5a64"><path d="M215.37 162.54H199.1a8.12 8.12 0 110-16.25h16.26a8.12 8.12 0 110 16.25zM312.89 162.54h-16.25a8.12 8.12 0 110-16.25h16.25a8.12 8.12 0 110 16.25z"/></g><path fill="#b67f5f" d="M256 251.94c-12.19 0-23.44-3.92-30.09-10.47a8.12 8.12 0 1111.42-11.57c2.7 2.67 9.22 5.78 18.67 5.78 9.45 0 15.97-3.11 18.68-5.78a8.13 8.13 0 0111.4 11.57c-6.64 6.55-17.89 10.47-30.08 10.47z"/><g fill="#5a4650"><path d="M134.1 174.5l18.15-2.14a16.25 16.25 0 0014.35-16.15V81.27h-32.5v93.22zM377.9 174.5l-18.15-2.14a16.25 16.25 0 01-14.35-16.15V81.27h32.5v93.22z"/></g><path fill="#6e5a64" d="M389.45 85.12c-26.74-46-76.42-77-133.45-77-55.73 0-104.4 29.62-131.56 73.88v2.38c26.19 11.9 71.98 29.83 121.88 36.4a5.78 5.78 0 006.05-7.9L247.2 100a5.77 5.77 0 016.34-7.84c22.82 3.93 79.9 17.78 124.37 62.24l11.54-69.3z"/><path fill="#64505a" d="M256 8.13c-55.73 0-104.4 29.61-131.56 73.87v2.38a506.08 506.08 0 0021.55 9.15C169.02 56.95 209.66 32.51 256 32.51c60.64 0 111.57 41.78 125.88 98.03l7.57-45.42c-26.74-46-76.42-77-133.45-77z"/><path fill="#a5cdff" d="M256 0C166.37 0 93.46 72.92 93.46 162.54v23.04a202.79 202.79 0 0072.3 155.4l82.11 69.16V512h16.26V410.13l82.1-69.14a202.77 202.77 0 0072.31-155.42v-23.03C418.54 72.92 345.63 0 256 0zm146.29 185.57a186.53 186.53 0 01-66.53 142.98L256 395.73l-79.76-67.18a186.54 186.54 0 01-66.53-142.97v-23.04c0-80.66 65.63-146.29 146.29-146.29s146.29 65.63 146.29 146.29v23.03z"/><path fill="#6e5a64" d="M256 406.35a16.3 16.3 0 00-16.25 16.25v16.26A16.3 16.3 0 00256 455.1a16.3 16.3 0 0016.25-16.25V422.6A16.3 16.3 0 00256 406.35z"/><g fill="#a5cdff"><path d="M128.58 439.34l-53.22-47.3a48.78 48.78 0 00-9.45 13.34l51.88 46.1a24.4 24.4 0 018.18 18.23V512h16.25v-42.29c0-11.6-4.97-22.67-13.64-30.37zM383.42 439.34l53.22-47.3c3.89 3.86 7.05 8.39 9.45 13.34l-51.87 46.1a24.4 24.4 0 00-8.19 18.23V512h-16.25v-42.29c0-11.6 4.97-22.67 13.64-30.37z"/></g></svg>