<svg xmlns="http://www.w3.org/2000/svg" viewBox="0 0 498 498"><title>borderimage_1</title><g><g><path fill="#fff" d="M0 0h100v100H0zM0 99h100v100H0zM0 199h100v100H0zM0 398h100v100H0zM99 0h100v100H99zM99 99h100v100H99zM99 199h100v100H99zM98 398h100v100H98zM199 0h100v100H199zM199 99h100v100H199zM199 199h100v100H199zM198 398h100v100H198zM398 0h100v100H398zM398 99h100v100H398zM398 199h100v100H398zM398 398h100v100H398z"/><path fill="#b9ecc2" d="M87.87 52.44a4.32 4.32 0 0 1 0-5.23 9.78 9.78 0 0 0-7.8-15.65S72.4 31 60.94 38.6C68.57 27.13 68 19.5 68 19.5a9.78 9.78 0 0 0-15.66-7.82 4.32 4.32 0 0 1-5.22 0 9.78 9.78 0 0 0-15.67 7.8s-.56 7.65 7.06 19.12c-11.46-7.6-19.1-7.05-19.1-7.05a9.78 9.78 0 0 0-7.82 15.66 4.32 4.32 0 0 1 0 5.24A9.78 9.78 0 0 0 19.4 68.1s7.64.56 19.1-7.05c-7.6 11.47-7.05 19.1-7.05 19.1a9.78 9.78 0 0 0 15.67 7.82 4.32 4.32 0 0 1 5.22 0A9.78 9.78 0 0 0 68 80.17s.57-7.65-7.05-19.12c11.47 7.6 19.1 7.05 19.1 7.05a9.78 9.78 0 0 0 7.82-15.66z"/><path fill="#55d47b" d="M51.9 38.72L53.17 41a13.56 13.56 0 0 0 5.4 5.4l2.27 1.24a3.37 3.37 0 0 1 0 5.9l-2.28 1.26a13.56 13.56 0 0 0-5.4 5.4l-1.24 2.27a3.37 3.37 0 0 1-5.9 0l-1.24-2.28a13.56 13.56 0 0 0-5.4-5.4l-2.27-1.25a3.37 3.37 0 0 1 0-5.9l2.27-1.26a13.57 13.57 0 0 0 5.4-5.4L46 38.72a3.37 3.37 0 0 1 5.9 0z"/><g><g><path fill="#c65454" d="M49.65 176.62q-.9-.64-1.78-1.3l-.1-.07.1-.08c11.27-8.88 19.44-18.3 23.64-27.26a19.83 19.83 0 0 0 .53-15.57 17.66 17.66 0 0 0-9.8-10.1 14.2 14.2 0 0 0-1.42-.48l.02-.2a13.1 13.1 0 0 1 1.74-.1 14.82 14.82 0 0 1 5.55 1.12 16.93 16.93 0 0 1 9.42 9.66 18.98 18.98 0 0 1-.5 14.9c-3.2 6.8-10.53 17.46-27.26 29.5l-.06.03zM76.92 147.08c-3.7 7.86-11.54 18.18-27.22 29.46q-.9-.64-1.77-1.3c13.22-10.4 20.2-19.87 23.67-27.3 4.55-9.7.6-21.75-9.35-25.8a14.2 14.2 0 0 0-1.42-.5 14.1 14.1 0 0 1 7.24 1.02c9.4 3.83 13.16 15.22 8.85 24.42z"/><path fill="#ff5f5f" d="M47.87 175.33c-15.46-11.48-22.36-21.7-25.43-28.24a18.96 18.96 0 0 1-.5-14.9 16.9 16.9 0 0 1 9.4-9.65 16.1 16.1 0 0 1 2.78-.86 13.9 13.9 0 0 1 2.78-.3 15.24 15.24 0 0 1 9.3 3.46 19.4 19.4 0 0 1 3.5 3.5c.63-.8 4.8-6 11.12-6.8a12.7 12.7 0 0 1 1.47.5 17.87 17.87 0 0 1 9.92 10.2 20.04 20.04 0 0 1-.53 15.73c-4.22 8.98-12.4 18.43-23.7 27.33l-.06.05zM71.6 147.95c-3.48 7.42-10.45 16.88-23.67 27.3-14.5-10.78-21.85-20.63-25.4-28.2-4.3-9.2-.56-20.6 8.84-24.4a16.13 16.13 0 0 1 2.77-.86 14.47 14.47 0 0 1 12 3.14 18.67 18.67 0 0 1 3.56 3.6s4.24-6 11.13-6.9a14.2 14.2 0 0 1 1.42.5c9.94 4.05 13.9 16.1 9.35 25.8z"/></g></g><path fill="#b9ecc2" d="M88.02 450.44a4.32 4.32 0 0 1 0-5.23 9.78 9.78 0 0 0-7.8-15.65s-7.65-.56-19.12 7.05c7.62-11.47 7.06-19.1 7.06-19.1a9.78 9.78 0 0 0-15.67-7.82 4.32 4.32 0 0 1-5.23 0 9.78 9.78 0 0 0-15.67 7.8s-.56 7.65 7.06 19.12c-11.47-7.6-19.1-7.05-19.1-7.05a9.78 9.78 0 0 0-7.83 15.66 4.32 4.32 0 0 1 0 5.24 9.78 9.78 0 0 0 7.82 15.66s7.64.56 19.1-7.05c-7.6 11.47-7.05 19.1-7.05 19.1a9.78 9.78 0 0 0 15.67 7.82 4.32 4.32 0 0 1 5.22 0 9.78 9.78 0 0 0 15.66-7.8s.56-7.65-7.06-19.12c11.47 7.6 19.1 7.05 19.1 7.05a9.78 9.78 0 0 0 7.82-15.66z"/><path fill="#55d47b" d="M52.06 436.72L53.3 439a13.56 13.56 0 0 0 5.4 5.4l2.28 1.24a3.37 3.37 0 0 1 0 5.9l-2.28 1.26a13.56 13.56 0 0 0-5.4 5.4l-1.24 2.27a3.37 3.37 0 0 1-5.9 0l-1.25-2.28a13.56 13.56 0 0 0-5.38-5.4l-2.28-1.25a3.37 3.37 0 0 1 0-5.9l2.28-1.26a13.57 13.57 0 0 0 5.4-5.4l1.24-2.28a3.37 3.37 0 0 1 5.9 0z"/><path fill="#b9ecc2" d="M486.02 450.44a4.32 4.32 0 0 1 0-5.23 9.78 9.78 0 0 0-7.8-15.65s-7.65-.56-19.12 7.05c7.62-11.47 7.06-19.1 7.06-19.1a9.78 9.78 0 0 0-15.67-7.82 4.32 4.32 0 0 1-5.23 0 9.78 9.78 0 0 0-15.67 7.8s-.56 7.65 7.06 19.12c-11.47-7.6-19.1-7.05-19.1-7.05a9.78 9.78 0 0 0-7.83 15.66 4.32 4.32 0 0 1 0 5.24 9.78 9.78 0 0 0 7.82 15.66s7.64.56 19.1-7.05c-7.6 11.47-7.05 19.1-7.05 19.1a9.78 9.78 0 0 0 15.67 7.82 4.32 4.32 0 0 1 5.22 0 9.78 9.78 0 0 0 15.66-7.8s.56-7.65-7.06-19.12c11.47 7.6 19.1 7.05 19.1 7.05a9.78 9.78 0 0 0 7.82-15.66z"/><path fill="#55d47b" d="M450.06 436.72l1.25 2.28a13.56 13.56 0 0 0 5.4 5.4l2.28 1.24a3.37 3.37 0 0 1 0 5.9l-2.28 1.26a13.56 13.56 0 0 0-5.4 5.4l-1.24 2.27a3.37 3.37 0 0 1-5.9 0l-1.25-2.28a13.56 13.56 0 0 0-5.38-5.4l-2.28-1.25a3.37 3.37 0 0 1 0-5.9l2.28-1.26a13.57 13.57 0 0 0 5.4-5.4l1.24-2.28a3.37 3.37 0 0 1 5.9 0z"/><path fill="#b9ecc2" d="M486.02 52.44a4.32 4.32 0 0 1 0-5.23 9.78 9.78 0 0 0-7.8-15.65s-7.65-.56-19.12 7.05c7.62-11.47 7.06-19.1 7.06-19.1a9.78 9.78 0 0 0-15.67-7.82 4.32 4.32 0 0 1-5.23 0 9.78 9.78 0 0 0-15.67 7.8s-.56 7.65 7.06 19.12c-11.47-7.6-19.1-7.05-19.1-7.05a9.78 9.78 0 0 0-7.83 15.66 4.32 4.32 0 0 1 0 5.24 9.78 9.78 0 0 0 7.82 15.66s7.64.56 19.1-7.05c-7.6 11.47-7.05 19.1-7.05 19.1a9.78 9.78 0 0 0 15.67 7.82 4.32 4.32 0 0 1 5.22 0 9.78 9.78 0 0 0 15.66-7.8s.56-7.65-7.06-19.12c11.47 7.6 19.1 7.05 19.1 7.05a9.78 9.78 0 0 0 7.82-15.66z"/><path fill="#55d47b" d="M450.06 38.72L451.3 41a13.56 13.56 0 0 0 5.4 5.4l2.28 1.24a3.37 3.37 0 0 1 0 5.9l-2.28 1.26a13.56 13.56 0 0 0-5.4 5.4l-1.24 2.27a3.37 3.37 0 0 1-5.9 0l-1.25-2.28a13.56 13.56 0 0 0-5.38-5.4l-2.28-1.25a3.37 3.37 0 0 1 0-5.9l2.28-1.26a13.57 13.57 0 0 0 5.4-5.4l1.24-2.28a3.37 3.37 0 0 1 5.9 0z"/><path fill="#fff" d="M0 299h100v100H0zM99 299h100v100H99zM199 299h100v100H199zM398 299h100v100H398zM299 0h100v100H299zM299 99h100v100H299zM299 199h100v100H299zM299 299h100v100H299zM298 398h100v100H298z"/><g><path fill="#c0e7ff" d="M73.03 242.4a13.95 13.95 0 0 0-2.76.28 11.4 11.4 0 0 0-15.97-8.1 15.22 15.22 0 1 0-28.6 10.38 12.7 12.7 0 0 0 .37 25.37h46.97a13.96 13.96 0 1 0 0-27.93z"/></g><path fill="#ffedb9" d="M51.85 323.08c.13 0 .25.02.37.03-.12 0-.24 0-.37-.02zM50.48 323c.1 0 .18.02.26.02-.08 0-.17 0-.26 0zM51.17 323.03c.1 0 .22.02.33.02-.1 0-.22 0-.33-.02zM22.4 351.3c0-.07 0-.15 0-.22 0 .07 0 .15 0 .22zM22.56 353.4c0-.1-.02-.2-.03-.3 0 .1.02.2.03.3zM57.04 323.97a27.38 27.38 0 0 1 11.58 6.54 27.12 27.12 0 0 0-7.05.06c.06.07.1.14.15.2 1.04 1.54.92 3.45-.28 4.26s-3 .22-4.05-1.32a4 4 0 0 1-.7-2 27.27 27.27 0 0 0-5.87 2.74 3.65 3.65 0 0 1-5.62 4.65 27.38 27.38 0 0 0 1.28 38.48 27.4 27.4 0 0 1-20.65-13.9 27.4 27.4 0 1 0 31.2-39.7zm-13.38 20.3a.93.93 0 1 1-.26.65.94.94 0 0 1 .26-.65zm-.53 23.2a.93.93 0 1 1 .27-.64.96.96 0 0 1-.27.65zm.27-10.23a5.02 5.02 0 1 1 5.02 5.03 5.02 5.02 0 0 1-5.02-5.03zm9.62 15.86c-2.25.6-4.44-.3-4.9-2s1-3.6 3.24-4.2 4.43.3 4.9 2-1 3.6-3.24 4.2zm6.55-16.58a.93.93 0 1 1 .26-.65.96.96 0 0 1-.26.65zM58 347.65a2.74 2.74 0 1 1 2.75-2.73 2.74 2.74 0 0 1-2.74 2.73zm7.6-7.95a.9.9 0 1 1 .62 1.56.94.94 0 0 1-.64-.26.96.96 0 0 1-.27-.65.9.9 0 0 1 .3-.65zm.6 23.54c-1.02 1.03-2.47 1.24-3.24.47s-.57-2.22.46-3.24 2.48-1.24 3.25-.47.57 2.22-.46 3.24zm.5-9.7c-1.4-.22-2.28-1.93-1.97-3.8s1.7-3.2 3.1-2.97 2.3 1.94 2 3.8-1.7 3.2-3.12 2.98zM22.44 352.03c0-.1 0-.2 0-.28 0 .1 0 .18 0 .28zM56.42 323.8q.3.1.6.17-.3-.08-.6-.16zM55.16 323.53q.26.05.52.1c-.17-.03-.35-.07-.52-.1zM52.53 323.14c.13 0 .27.03.4.04-.13 0-.27-.03-.4-.04zM22.5 352.72c-.02-.1-.02-.2-.03-.3 0 .1 0 .2.02.3zM55.8 323.66q.28.07.55.13-.27-.07-.55-.14zM53.2 323.2c.14.03.3.05.43.07-.14-.02-.3-.04-.43-.06zM53.86 323.3c.15.02.3.05.46.08-.15-.03-.3-.06-.46-.08zM54.5 323.4c.18.04.34.07.5.1-.16-.03-.32-.06-.5-.1zM22.85 355.38q-.03-.15-.06-.3.02.15.05.3zM22.64 354.06c0-.1-.03-.2-.04-.3 0 .1.03.2.04.3zM24 359.67q-.26-.74-.5-1.5.24.76.5 1.5zM24.43 360.78c-.06-.15-.12-.3-.17-.44.05.15.1.3.17.44zM24.68 361.36c-.06-.14-.12-.28-.18-.43.06.15.12.3.18.43zM24.2 360.2c-.05-.15-.1-.3-.17-.45.06.15.12.3.17.45zM22.98 356.03c-.03-.1-.05-.2-.07-.3.03.1.05.2.08.3zM23.28 357.3c-.03-.1-.06-.2-.1-.3.04.1.07.2.1.3zM23.12 356.68c-.03-.1-.05-.22-.07-.32.02.1.04.2.07.32zM22.74 354.73q-.03-.16-.05-.3 0 .14.04.3zM23.45 357.95c-.03-.12-.07-.24-.1-.35.03.1.07.23.1.35zM25.22 362.52q-.1-.22-.22-.44.1.22.22.44zM25.8 363.65q-.12-.24-.25-.48.13.24.26.48zM25.5 363.1q-.1-.24-.23-.47.12.23.24.46zM24.94 361.94q-.1-.2-.2-.43.1.23.2.44z"/><path fill="#ffd586" d="M46.48 377.58a27.38 27.38 0 0 1-1.27-38.5 3.65 3.65 0 0 0 5.63-4.64 27.26 27.26 0 0 1 5.86-2.75 4 4 0 0 0 .7 2c1.03 1.54 2.85 2.13 4.04 1.32s1.33-2.72.28-4.25c-.04-.07-.1-.14-.15-.2a27.13 27.13 0 0 1 7.05-.06 27.38 27.38 0 0 0-11.58-6.53h-.02q-.3-.08-.6-.16h-.07q-.27-.07-.55-.14l-.12-.02q-.26-.06-.52-.1c-.05-.02-.1-.03-.15-.04-.16-.03-.32-.06-.5-.1-.05 0-.1 0-.18-.02-.15-.03-.3-.06-.46-.08-.08 0-.15-.02-.23-.03-.14-.02-.3-.04-.43-.06-.1 0-.18 0-.27-.02-.13 0-.27-.03-.4-.04-.1 0-.2-.02-.3-.03-.13 0-.25 0-.38-.02-.12 0-.23-.02-.35-.03-.1 0-.22 0-.33-.02-.14 0-.28 0-.43 0-.08 0-.17-.02-.26-.02q-.34 0-.7 0a27.4 27.4 0 0 0-27.4 27.4q0 .34.02.68c0 .07 0 .15 0 .22.02.15.02.3.03.45 0 .1 0 .18 0 .28.02.13.03.26.04.4 0 .1 0 .2.02.3 0 .1 0 .24.03.37 0 .1.02.2.03.3 0 .12.03.24.04.36 0 .1.03.2.04.3q.02.18.05.36 0 .15.04.3.02.18.05.35c0 .1.03.2.05.3.02.12.04.24.06.35.03.1.05.2.08.3.02.12.04.23.07.34.02.1.04.2.07.32.02.1.05.2.07.3.02.12.05.23.08.33.02.1.05.2.07.3.04.1.07.23.1.35.02.07.04.14.06.22q.24.76.5 1.5c0 .02.02.05.03.08.06.15.12.3.17.45.02.05.04.1.06.14.06.15.1.3.17.44.02.05.04.1.07.15.06.15.12.3.18.43.02.05.04.1.06.15q.1.23.2.44c.02.05.04.1.06.14q.1.22.22.44.03.05.05.1.12.24.24.47l.05.07q.13.24.26.48l.03.04a27.4 27.4 0 0 0 20.65 13.88zm11.2-48.13c1.13-.77 2.83-.26 3.88 1.12a27.2 27.2 0 0 0-4.86 1.12 2.46 2.46 0 0 1 .97-2.25zm-12.2-2.53a.9.9 0 1 1 0 1.3.94.94 0 0 1-.26-.65.92.92 0 0 1 .27-.65zm-1.17 9.6a3.65 3.65 0 0 1 3.47-3.47q.1 0 .2 0a3.63 3.63 0 0 1 2.85 1.4 27.52 27.52 0 0 0-5.6 4.64 3.62 3.62 0 0 1-.9-2.4q0-.1 0-.2zm-10-2.08a2.43 2.43 0 1 1 3.4 3.4 2.43 2.43 0 1 1-3.4-3.4zm1.8 21.42a.9.9 0 1 1-.27-.65.96.96 0 0 1 .26.66zm-8.23-7.3a3.45 3.45 0 0 1 3.2-3.64 3.7 3.7 0 0 1 0 7.3 3.45 3.45 0 0 1-3.2-3.65zm3.32 11.55c1.06-1.06 3.1-.77 4.5.65s1.73 3.45.66 4.52-3.1.78-4.52-.64-1.72-3.45-.65-4.52z"/><ellipse cx="31.069" cy="348.568" fill="#e7b27e" rx="3.196" ry="3.653"/><ellipse cx="33.776" cy="362.689" fill="#e7b27e" rx="2.739" ry="3.653" transform="translate(-246.567 130.112) rotate(-45)"/><ellipse cx="64.814" cy="361.85" fill="#ffd586" rx="2.629" ry="1.972" transform="translate(-236.883 151.814) rotate(-45)"/><path fill="#ffd586" d="M44.3 345.83a.92.92 0 1 0-.64-1.56.94.94 0 0 0-.26.65.9.9 0 0 0 .9.9z"/><path fill="#e7b27e" d="M34.53 355.2a.9.9 0 1 0 1.3 0 .96.96 0 0 0-1.3 0z"/><path fill="#ffd586" d="M58.27 355.23a.9.9 0 1 0 1.3 0 .96.96 0 0 0-1.3 0zM66.22 341.26a.92.92 0 0 0 .65-1.56.95.95 0 0 0-1.28 0 .9.9 0 0 0-.3.65.96.96 0 0 0 .28.65.94.94 0 0 0 .64.26z"/><path fill="#e7b27e" d="M46.14 328.48a.92.92 0 1 0-.65-1.56.92.92 0 0 0-.28.65.94.94 0 0 0 .27.64.96.96 0 0 0 .64.28z"/><path fill="#ffd586" d="M41.83 366.18a.9.9 0 1 0 1.3 0 .96.96 0 0 0-1.3 0z"/><circle cx="48.419" cy="357.243" r="5.022" fill="#ffd586"/><circle cx="58.007" cy="344.916" r="2.739" fill="#ffd586"/><ellipse cx="52.187" cy="369.997" fill="#ffd586" rx="4.206" ry="3.209" transform="translate(-93.938 26.095) rotate(-14.992)"/><ellipse cx="67.276" cy="350.159" fill="#ffd586" rx="3.436" ry="2.577" transform="translate(-289.163 359.569) rotate(-80.637)"/><path fill="#e7b27e" d="M45.22 339.1a27.5 27.5 0 0 1 5.6-4.65 3.63 3.63 0 0 0-2.86-1.4q-.1 0-.2 0a3.65 3.65 0 0 0-3.45 3.46q0 .1 0 .2a3.62 3.62 0 0 0 .92 2.4z"/><ellipse cx="35.988" cy="336.138" fill="#e7b27e" rx="2.749" ry="2.405" transform="translate(-227.144 123.9) rotate(-45)"/><path fill="#e7b27e" d="M56.7 331.7a27.2 27.2 0 0 1 4.86-1.13c-1.05-1.38-2.75-1.9-3.9-1.12a2.46 2.46 0 0 0-.96 2.24z"/><g><g><path fill="#c65454" d="M337.5 77.88q-.9-.64-1.77-1.3l-.1-.07.1-.07c11.26-8.88 19.44-18.3 23.64-27.26a19.83 19.83 0 0 0 .52-15.58 17.66 17.66 0 0 0-9.83-10.1 14.18 14.18 0 0 0-1.4-.5v-.2a13.1 13.1 0 0 1 1.74-.1 14.82 14.82 0 0 1 5.56 1.13 16.93 16.93 0 0 1 9.4 9.66 18.98 18.98 0 0 1-.5 14.88c-3.2 6.82-10.52 17.47-27.24 29.5l-.06.04zM364.78 48.34c-3.7 7.86-11.54 18.18-27.22 29.46q-.9-.64-1.77-1.3c13.2-10.4 20.18-19.87 23.66-27.3 4.55-9.7.6-21.75-9.35-25.8a14.2 14.2 0 0 0-1.4-.5 14.1 14.1 0 0 1 7.23 1.02c9.4 3.83 13.16 15.22 8.85 24.42z"/><path fill="#ff5f5f" d="M335.73 76.6c-15.46-11.5-22.37-21.7-25.43-28.25a18.96 18.96 0 0 1-.5-14.9 16.9 16.9 0 0 1 9.4-9.64 16.1 16.1 0 0 1 2.78-.85 13.9 13.9 0 0 1 2.77-.28 15.24 15.24 0 0 1 9.3 3.45 19.4 19.4 0 0 1 3.5 3.5c.63-.8 4.8-6 11.12-6.8a12.7 12.7 0 0 1 1.47.5 17.87 17.87 0 0 1 9.93 10.2 20.04 20.04 0 0 1-.52 15.73c-4.22 9-12.4 18.44-23.7 27.34l-.06.04zM359.46 49.2c-3.48 7.43-10.45 16.9-23.67 27.3-14.52-10.77-21.86-20.62-25.4-28.2-4.32-9.18-.57-20.58 8.83-24.4a16.13 16.13 0 0 1 2.77-.85 14.47 14.47 0 0 1 12 3.15 18.67 18.67 0 0 1 3.56 3.6s4.24-6 11.13-6.9a14.2 14.2 0 0 1 1.4.5c9.95 4.05 13.9 16.1 9.36 25.8z"/></g></g><g><g><path fill="#c65454" d="M447.5 377.88q-.9-.64-1.77-1.3l-.1-.07.1-.07c11.26-8.88 19.44-18.3 23.64-27.26a19.83 19.83 0 0 0 .52-15.58 17.66 17.66 0 0 0-9.83-10.1 14.18 14.18 0 0 0-1.4-.5v-.2a13.1 13.1 0 0 1 1.74-.1 14.82 14.82 0 0 1 5.56 1.13 16.93 16.93 0 0 1 9.4 9.66 18.98 18.98 0 0 1-.5 14.88c-3.2 6.82-10.52 17.47-27.24 29.5l-.06.04zM474.78 348.34c-3.7 7.86-11.54 18.18-27.22 29.46q-.9-.64-1.77-1.3c13.2-10.4 20.18-19.87 23.66-27.3 4.55-9.7.6-21.75-9.35-25.8a14.2 14.2 0 0 0-1.4-.5 14.1 14.1 0 0 1 7.23 1.02c9.4 3.83 13.16 15.22 8.85 24.42z"/><path fill="#ff5f5f" d="M445.73 376.6c-15.46-11.5-22.37-21.7-25.43-28.25a18.96 18.96 0 0 1-.5-14.9 16.9 16.9 0 0 1 9.4-9.64 16.1 16.1 0 0 1 2.78-.85 13.9 13.9 0 0 1 2.77-.28 15.24 15.24 0 0 1 9.3 3.45 19.4 19.4 0 0 1 3.5 3.5c.63-.8 4.8-6 11.12-6.8a12.7 12.7 0 0 1 1.47.5 17.87 17.87 0 0 1 9.93 10.2 20.04 20.04 0 0 1-.52 15.73c-4.22 9-12.4 18.44-23.7 27.34l-.06.04zM469.46 349.2c-3.48 7.43-10.45 16.9-23.67 27.3-14.52-10.77-21.86-20.62-25.4-28.2-4.32-9.18-.57-20.58 8.83-24.4a16.13 16.13 0 0 1 2.77-.85 14.47 14.47 0 0 1 12 3.15 18.67 18.67 0 0 1 3.56 3.6s4.24-6 11.13-6.9a14.2 14.2 0 0 1 1.4.5c9.95 4.05 13.9 16.1 9.36 25.8z"/></g></g><g><g><path fill="#c65454" d="M248.5 478.88q-.9-.64-1.77-1.3l-.1-.07.1-.07c11.26-8.88 19.44-18.3 23.64-27.26a19.83 19.83 0 0 0 .52-15.58 17.66 17.66 0 0 0-9.83-10.1 14.18 14.18 0 0 0-1.4-.5v-.2a13.1 13.1 0 0 1 1.74-.1 14.82 14.82 0 0 1 5.56 1.13 16.93 16.93 0 0 1 9.4 9.66 18.98 18.98 0 0 1-.5 14.88c-3.2 6.82-10.52 17.47-27.24 29.5l-.06.04zM275.78 449.34c-3.7 7.86-11.54 18.18-27.22 29.46q-.9-.64-1.77-1.3c13.2-10.4 20.18-19.87 23.66-27.3 4.55-9.7.6-21.75-9.35-25.8a14.2 14.2 0 0 0-1.4-.5 14.1 14.1 0 0 1 7.23 1.02c9.4 3.83 13.16 15.22 8.85 24.42z"/><path fill="#ff5f5f" d="M246.73 477.6c-15.46-11.5-22.37-21.7-25.43-28.25a18.96 18.96 0 0 1-.5-14.9 16.9 16.9 0 0 1 9.4-9.64 16.1 16.1 0 0 1 2.78-.85 13.9 13.9 0 0 1 2.77-.28 15.24 15.24 0 0 1 9.3 3.45 19.4 19.4 0 0 1 3.5 3.5c.63-.8 4.8-6 11.12-6.8a12.7 12.7 0 0 1 1.47.5 17.87 17.87 0 0 1 9.93 10.2 20.04 20.04 0 0 1-.52 15.73c-4.22 9-12.4 18.44-23.7 27.34l-.06.04zM270.46 450.2c-3.48 7.43-10.45 16.9-23.67 27.3-14.52-10.77-21.86-20.62-25.4-28.2-4.32-9.18-.57-20.58 8.83-24.4a16.13 16.13 0 0 1 2.77-.85 14.47 14.47 0 0 1 12 3.15 18.67 18.67 0 0 1 3.56 3.6s4.24-6 11.13-6.9a14.2 14.2 0 0 1 1.4.5c9.95 4.05 13.9 16.1 9.36 25.8z"/></g></g><g><g><path fill="#353535" d="M164.6 429.48a.75.75 0 0 1-.54-1.3l1.33-1.32a8.4 8.4 0 0 1 3.58-2.13.75.75 0 1 1 .43 1.45 6.9 6.9 0 0 0-2.94 1.74l-1.33 1.34a.75.75 0 0 1-.54.22z"/><circle cx="145.083" cy="428.564" r="5.248" fill="#f5d7b7"/><circle cx="145.083" cy="428.564" r="5.248" fill="#efc8a5" opacity=".1" style="isolation:isolate"/><circle cx="164.752" cy="448.233" r="5.248" fill="#f5d7b7"/><circle cx="164.752" cy="448.233" r="5.248" fill="#efc8a5" opacity=".1" style="isolation:isolate"/><circle cx="128.588" cy="464.728" r="10.11" fill="#38648c"/><path d="M135.74 471.88a10.1 10.1 0 1 0-17.13-8.77 16.43 16.43 0 0 0 3.54 1.77c1.32.5 2.93 1.04 4.75 1.56.5 1.82 1.04 3.43 1.55 4.74a16.43 16.43 0 0 0 1.75 3.54 10.06 10.06 0 0 0 5.54-2.82z" opacity=".1" style="isolation:isolate"/><ellipse cx="154.561" cy="438.754" fill="#efc8a5" rx="15.495" ry="15.155" transform="translate(-264.976 237.799) rotate(-45)"/><ellipse cx="148.056" cy="433.44" fill="#f28b74" rx="2.456" ry="3.084" transform="translate(-263.124 231.643) rotate(-45)"/><ellipse cx="159.877" cy="445.26" fill="#f28b74" rx="2.456" ry="3.084" transform="translate(-268.02 243.464) rotate(-45)"/><path fill="#353535" d="M152.25 434.6a.75.75 0 0 1-.53-1.27.7.7 0 1 0-1-1 .75.75 0 0 1-1.07-1.08 2.22 2.22 0 0 1 3.14 3.14.75.75 0 0 1-.55.2zM161.53 443.9a.75.75 0 0 1-.53-1.3.7.7 0 0 0-1-1 .75.75 0 0 1-1.08-1.07 2.22 2.22 0 0 1 3.15 3.14.75.75 0 0 1-.54.22zM154.4 441.74a2.82 2.82 0 0 1-2.82-2.82q0-.1 0-.2a.75.75 0 0 1 1.5.1 1.3 1.3 0 0 0 1.4 1.4.75.75 0 0 1 .1 1.5q-.08.02-.18.02z"/><path d="M150.45 424.08a15.7 15.7 0 0 0-6.6 3.96 15.33 15.33 0 0 0-.24 21.67 15 15 0 0 0 12.67 4.24c-9.66-3.2-12.62-19.33-5.82-29.86z" opacity=".05" style="isolation:isolate"/><path fill="#76b7eb" d="M131.58 445.54c6.17.08 20.1 1.54 28.14 5.74a2.8 2.8 0 0 1 1.32 3.45 36.98 36.98 0 0 1-7.62 11.3 7.67 7.67 0 0 1-5.8 2.17c-8.48-.48-27.2-4.8-28.57-7.6-1.38-2.82 2.97-10.12 8.17-13.74a7.47 7.47 0 0 1 4.36-1.32z"/><path d="M131.58 445.54c6.17.08 20.1 1.54 28.14 5.74a2.8 2.8 0 0 1 1.32 3.45 36.98 36.98 0 0 1-7.62 11.3 7.67 7.67 0 0 1-5.8 2.17c-8.48-.48-27.2-4.8-28.57-7.6-1.38-2.82 2.97-10.12 8.17-13.74a7.47 7.47 0 0 1 4.36-1.32zM127.22 446.86a21.93 21.93 0 0 0-3.75 3.37 123.5 123.5 0 0 0 2.54 12.93c.08.3.16.6.23.9a109.82 109.82 0 0 0 21.28 4.13q.36-.45.68-.9a9.52 9.52 0 0 0 1.7-5.6 96.86 96.86 0 0 0-1.44-14.16 93.36 93.36 0 0 0-16.86-2 7.47 7.47 0 0 0-4.36 1.32z" opacity=".1" style="isolation:isolate"/><path fill="#76b7eb" d="M147.77 461.74c-.07-6.17-1.54-20.12-5.73-28.15a2.8 2.8 0 0 0-3.46-1.33 36.98 36.98 0 0 0-11.3 7.63 7.67 7.67 0 0 0-2.16 5.8c.48 8.48 4.8 27.2 7.58 28.56 2.84 1.4 10.14-2.96 13.75-8.17a7.47 7.47 0 0 0 1.32-4.36z"/><g opacity=".1"><path d="M130.08 455.8a.75.75 0 0 1-.74-.62c-.06-.32-.36-2.28-.36-2.66a.75.75 0 0 1 1.5 0c.02.24.27 2 .34 2.37a.75.75 0 0 1-.6.88.77.77 0 0 1-.14 0zM138.3 442.08a.76.76 0 0 1-.72-1c.05-.17.2-.48.54-1.17.1-.18.18-.36.2-.43a.75.75 0 1 1 1.4.62c-.05.08-.14.25-.24.47-.15.3-.42.87-.47 1a.75.75 0 0 1-.7.5zM141.8 456.78a.75.75 0 0 1-.37-.1c-.37-.22-1.4-.8-1.74-.96a.75.75 0 0 1 .62-1.37c.46.2 1.72.94 1.87 1.02a.75.75 0 0 1-.4 1.4zM136.64 469.44a.75.75 0 0 1-.76-.76c0-.4-.1-1.98-.16-2.74-.02-.24-.03-.42-.03-.5a.75.75 0 1 1 1.5-.1c0 .1 0 .26.03.5.08 1.15.16 2.4.16 2.84a.75.75 0 0 1-.76.76zM151.54 456.3a.75.75 0 0 1-.25-1.48 12.38 12.38 0 0 0 1.4-.78 4.1 4.1 0 0 1 1.1-.56.75.75 0 0 1 .37 1.46c-.1.05-.44.25-.7.4a11.84 11.84 0 0 1-1.68.9.75.75 0 0 1-.26.05zm2.56-1.34z"/></g></g></g><path fill="#03aa6f" d="M165.42 30.34l-2.84 1.9-4.74-.95-2.84-.96-3.8.95-2.83-.96 1.9-3.8h3.8l3.7-1.85a27.13 27.13 0 0 1 7.65 5.64zM143.64 26.55l-.95 2.84-2.85.94-2.84 4.73-4.73 2.85-6.63.94v2.85l1.9 1.9v3.8l-2.85-1.9-2.85-1.9-1.65-4.95a27.45 27.45 0 0 1 15.06-14.85l2.7 1.8zM145.53 53.07l-.95 4.74-3.8 3.8v2.84L137 67.28v4.74l-2.84-.95-1.9-4.74v-9.47l-4.73-.95-1.9-3.77v-2.85l1.9-1.9 2.84-2.83 1.9 3.8h6.63l2.84 4.72h3.8zM169.5 35.86a27.44 27.44 0 0 1-1.52 29.24l-2.56-2.56v-3.78l-1.9-3.8-1.9-3.78v-3.8l-2.83-1.9-3.8.96-6.63-2.84-.95-6.63 2.85-2.84h5.68l1.9 2.84 5.68.95 5.68-1.9z"/><path fill="#86daf1" d="M151.2 31.3l3.8-.96 2.84.95 4.74.93 2.84-1.9a27.05 27.05 0 0 1 4.08 5.53l-.3.16-5.67 1.9-5.7-.95-1.88-2.84h-5.68l-2.84 2.84.94 6.63 6.63 2.84 3.8-.95 2.83 1.9v3.78l1.9 3.8 1.9 3.78v3.78l2.55 2.56a27.47 27.47 0 0 1-47.78-26.45l1.65 4.95 2.84 1.9 2.83 1.9-1.9 1.88v2.84l1.9 3.8 4.74.94v9.47l1.9 4.74 2.84.95v-4.74l3.8-2.84V61.6l3.78-3.8.95-4.73h-3.8l-2.83-4.73h-6.63l-1.9-3.8-2.84 2.85v-3.8l-1.9-1.9v-2.84l6.64-.94 4.74-2.85 2.85-4.73 2.84-.95.94-2.85-5.7-.95-2.68-1.8a27.47 27.47 0 0 1 22.5.9l-3.7 1.85h-3.8l-1.9 3.8z"/><g><g><path fill="#576574" d="M442.2 171.2v2.6a1.58 1.58 0 0 0 1.56 1.6h6.3a1.58 1.58 0 0 0 1.56-1.6v-2.6h-9.43z"/><path fill="#3e4b5a" d="M445.5 173.8v-2.6h-3.3v2.6a1.58 1.58 0 0 0 1.56 1.6h3.3a1.58 1.58 0 0 1-1.57-1.6z"/><path fill="#feca57" d="M447.16 122.02a18.1 18.1 0 0 0-13 30.93 16.68 16.68 0 0 1 4 6.5l1.5 4.4a1.56 1.56 0 0 1 .27 0h13.96a1.55 1.55 0 0 1 .24 0l1.5-4.4a16.8 16.8 0 0 1 4.04-6.53 18.1 18.1 0 0 0-12.52-30.9z"/><path fill="#f4b537" d="M441.4 159.44a16.68 16.68 0 0 0-4.02-6.5 18.1 18.1 0 0 1 11.13-30.85q-.66-.07-1.34-.08a18.1 18.1 0 0 0-13 30.93 16.68 16.68 0 0 1 4 6.5l1.5 4.4a1.55 1.55 0 0 1 .27 0h2.96zM453.9 163.84a1.55 1.55 0 0 1 .24.02v-.02z"/><path fill="#e59d1f" d="M449.5 161.84a.8.8 0 0 1-.8-.8 37 37 0 0 1 1.45-10.96.8.8 0 0 1 1-.5h.02a.82.82 0 0 1 .5 1.03 36.1 36.1 0 0 0-1.37 10.43.8.8 0 0 1-.8.8zM444.32 161.84a.8.8 0 0 1-.8-.8 36.1 36.1 0 0 0-1.38-10.43.82.82 0 0 1 .5-1.03.8.8 0 0 1 1.02.5 37 37 0 0 1 1.47 10.96.8.8 0 0 1-.8.8z"/><path fill="#f4b537" d="M450.2 161.04h-6.6a1.42 1.42 0 0 0-1.4 1.42v1.38h9.42v-1.38a1.42 1.42 0 0 0-1.42-1.42z"/><path fill="#e59d1f" d="M446.8 161.04h-3.2a1.42 1.42 0 0 0-1.4 1.42v1.38h3.18v-1.38a1.42 1.42 0 0 1 1.42-1.42z"/><path fill="#ccd2db" d="M453.9 163.76h-13.97a1.58 1.58 0 0 0-1.57 1.57v.73a1.58 1.58 0 0 0 1.57 1.57h13.96a1.58 1.58 0 0 0 1.55-1.57v-.73a1.58 1.58 0 0 0-1.56-1.57z"/><path fill="#e4eaf8" d="M453.9 167.6h-13.97a1.58 1.58 0 0 0-1.57 1.6v.72a1.58 1.58 0 0 0 1.57 1.6h13.96a1.58 1.58 0 0 0 1.55-1.6v-.72a1.58 1.58 0 0 0-1.56-1.6z"/><path fill="#bcc2cc" d="M453.9 165.5h-13.97a1.57 1.57 0 0 1-1.4-.88 1.57 1.57 0 0 0-.17.7v.74a1.58 1.58 0 0 0 1.57 1.57h13.96a1.58 1.58 0 0 0 1.55-1.57v-.73a1.57 1.57 0 0 0-.17-.7 1.57 1.57 0 0 1-1.4.86z"/><path fill="#ccd2db" d="M453.9 169.36h-13.97a1.57 1.57 0 0 1-1.4-.87 1.6 1.6 0 0 0-.17.7v.72a1.58 1.58 0 0 0 1.57 1.6h13.96a1.58 1.58 0 0 0 1.55-1.6v-.72a1.6 1.6 0 0 0-.17-.7 1.57 1.57 0 0 1-1.4.86z"/><path fill="#f4b537" d="M452.3 146.65H441.5a1.57 1.57 0 0 0-1.56 1.56v.73a1.57 1.57 0 0 0 1.56 1.56h10.77a1.57 1.57 0 0 0 1.56-1.57v-.72a1.57 1.57 0 0 0-1.57-1.55z"/><path fill="#e59d1f" d="M452.3 148.35H441.5a1.57 1.57 0 0 1-1.4-.85 1.55 1.55 0 0 0-.16.7v.73a1.57 1.57 0 0 0 1.56 1.56h10.77a1.57 1.57 0 0 0 1.56-1.57v-.72a1.55 1.55 0 0 0-.18-.7 1.57 1.57 0 0 1-1.4.85z"/></g></g><g><g><path fill="#353535" d="M468.62 228.44a.75.75 0 0 1-.53-1.3l1.32-1.32a8.4 8.4 0 0 1 3.6-2.12.75.75 0 0 1 .42 1.45 6.9 6.9 0 0 0-2.95 1.74l-1.34 1.32a.75.75 0 0 1-.54.22z"/><circle cx="449.113" cy="227.53" r="5.248" fill="#f5d7b7"/><circle cx="449.113" cy="227.53" r="5.248" fill="#efc8a5" opacity=".1" style="isolation:isolate"/><circle cx="468.782" cy="247.199" r="5.248" fill="#f5d7b7"/><circle cx="468.782" cy="247.199" r="5.248" fill="#efc8a5" opacity=".1" style="isolation:isolate"/><circle cx="432.618" cy="263.694" r="10.11" fill="#38648c"/><path d="M439.77 270.84a10.1 10.1 0 1 0-17.13-8.76 16.43 16.43 0 0 0 3.53 1.75c1.32.5 2.93 1.04 4.75 1.57.52 1.82 1.05 3.42 1.56 4.74a16.43 16.43 0 0 0 1.75 3.53 10.06 10.06 0 0 0 5.54-2.83z" opacity=".1" style="isolation:isolate"/><ellipse cx="458.591" cy="237.72" fill="#efc8a5" rx="15.495" ry="15.155" transform="translate(-33.775 393.9) rotate(-45)"/><ellipse cx="452.086" cy="232.406" fill="#f28b74" rx="2.456" ry="3.084" transform="translate(-31.923 387.743) rotate(-45)"/><ellipse cx="463.907" cy="244.227" fill="#f28b74" rx="2.456" ry="3.084" transform="translate(-36.819 399.564) rotate(-45)"/><path fill="#353535" d="M456.3 233.58a.75.75 0 0 1-.55-1.3.7.7 0 0 0-1-1 .75.75 0 0 1-1.07-1.06 2.22 2.22 0 0 1 3.14 3.14.75.75 0 0 1-.53.22zM465.56 242.86a.75.75 0 0 1-.53-1.3.7.7 0 0 0-1-1 .75.75 0 0 1-1.08-1.07 2.22 2.22 0 1 1 3.15 3.14.75.75 0 0 1-.54.22zM458.43 240.7a2.82 2.82 0 0 1-2.82-2.8q0-.1.02-.2a.75.75 0 0 1 1.5.1 1.3 1.3 0 0 0 1.4 1.4.75.75 0 0 1 .1 1.5q-.1 0-.2 0z"/><path d="M454.48 223.05a15.7 15.7 0 0 0-6.6 3.95 15.33 15.33 0 0 0-.24 21.68 15 15 0 0 0 12.66 4.23c-9.66-3.2-12.62-19.33-5.82-29.85z" opacity=".05" style="isolation:isolate"/><path fill="#76b7eb" d="M435.6 244.5c6.18.08 20.12 1.55 28.15 5.74a2.8 2.8 0 0 1 1.32 3.46 36.98 36.98 0 0 1-7.62 11.3 7.67 7.67 0 0 1-5.8 2.17c-8.48-.5-27.2-4.8-28.57-7.6-1.38-2.83 2.97-10.13 8.17-13.74a7.47 7.47 0 0 1 4.36-1.32z"/><path d="M435.6 244.5c6.18.08 20.12 1.55 28.15 5.74a2.8 2.8 0 0 1 1.32 3.46 36.98 36.98 0 0 1-7.62 11.3 7.67 7.67 0 0 1-5.8 2.17c-8.48-.5-27.2-4.8-28.57-7.6-1.38-2.83 2.97-10.13 8.17-13.74a7.47 7.47 0 0 1 4.36-1.32zM431.25 245.83a21.93 21.93 0 0 0-3.75 3.37 123.5 123.5 0 0 0 2.54 12.93c.07.3.15.6.22.88a109.82 109.82 0 0 0 21.28 4.16q.35-.45.67-.9a9.52 9.52 0 0 0 1.7-5.58 96.86 96.86 0 0 0-1.43-14.18 93.36 93.36 0 0 0-16.86-2 7.47 7.47 0 0 0-4.35 1.33z" opacity=".1" style="isolation:isolate"/><path fill="#76b7eb" d="M451.8 260.7c-.07-6.17-1.54-20.1-5.73-28.14a2.8 2.8 0 0 0-3.46-1.32 36.98 36.98 0 0 0-11.28 7.62 7.67 7.67 0 0 0-2.17 5.8c.48 8.5 4.8 27.2 7.58 28.57 2.84 1.4 10.14-2.97 13.75-8.17a7.47 7.47 0 0 0 1.32-4.36z"/><g opacity=".1"><path d="M434.1 254.76a.75.75 0 0 1-.73-.6c-.06-.33-.36-2.3-.36-2.68a.75.75 0 0 1 1.52 0c0 .25.26 2 .33 2.37a.75.75 0 0 1-.6.9.77.77 0 0 1-.14 0zM442.33 241.04a.76.76 0 0 1-.72-1c.06-.16.2-.47.55-1.16.1-.2.18-.38.2-.45a.75.75 0 1 1 1.4.62c-.05.1-.14.27-.24.5-.14.3-.4.85-.46.98a.75.75 0 0 1-.7.5zM445.84 255.75a.75.75 0 0 1-.38-.1c-.37-.22-1.4-.8-1.73-.96a.75.75 0 0 1 .62-1.38c.46.2 1.72.94 1.87 1.02a.75.75 0 0 1-.38 1.4zM440.67 268.4a.75.75 0 0 1-.76-.75c0-.42-.1-2-.15-2.74-.02-.23-.03-.4-.03-.5a.75.75 0 1 1 1.5-.08c0 .07.02.25.04.5.08 1.13.16 2.4.16 2.83a.75.75 0 0 1-.75.75zM455.57 255.25a.75.75 0 0 1-.25-1.46 12.38 12.38 0 0 0 1.42-.8 4.1 4.1 0 0 1 1.1-.56.75.75 0 0 1 .36 1.47c-.1.06-.44.26-.7.4a11.84 11.84 0 0 1-1.68.9.75.75 0 0 1-.25.05zm2.56-1.33z"/></g></g></g><path fill="#03aa6f" d="M368.2 432.05l-2.83 1.9-4.74-.96-2.84-.95-3.8.94-2.84-.95 1.9-3.8h3.78l3.7-1.85a27.13 27.13 0 0 1 7.67 5.65zM346.42 428.26l-.95 2.84-2.84.95-2.84 4.73-4.75 2.84-6.63.95v2.84l1.9 1.9v3.8l-2.84-1.9-2.84-1.9-1.65-4.95a27.45 27.45 0 0 1 15.05-14.84l2.7 1.8zM348.32 454.78l-.95 4.74-3.8 3.78v2.85L339.8 469v4.72l-2.85-.94-1.9-4.74v-9.47l-4.73-.95-1.9-3.8V451l1.9-1.9 2.84-2.85 1.9 3.8h6.63l2.83 4.73h3.8zM372.28 437.57a27.44 27.44 0 0 1-1.5 29.24l-2.57-2.55v-3.8l-1.9-3.78-1.88-3.8v-3.77l-2.84-1.9-3.8.95-6.62-2.84-.95-6.62 2.85-2.85h5.7l1.88 2.85 5.68.94 5.7-1.9z"/><path fill="#86daf1" d="M354 433l3.8-.95 2.83.94 4.74.94 2.84-1.9a27.05 27.05 0 0 1 4.08 5.53l-.28.16-5.7 1.9-5.67-.95-1.9-2.85h-5.68l-2.84 2.85.96 6.63 6.63 2.85 3.78-.95 2.84 1.9v3.78l1.9 3.8 1.9 3.78v3.8l2.55 2.55A27.47 27.47 0 0 1 323 440.36l1.64 4.96 2.84 1.9 2.84 1.9-1.9 1.9v2.83l1.9 3.8 4.73.94v9.47l1.9 4.74 2.84.94V469l3.78-2.85v-2.85l3.8-3.8.94-4.72h-3.8l-2.83-4.74h-6.65l-1.9-3.8-2.83 2.86v-3.8l-1.9-1.9v-2.83l6.63-.95 4.74-2.84 2.83-4.73 2.84-.95.95-2.84-5.68-.95-2.7-1.8a27.47 27.47 0 0 1 22.5.9l-3.7 1.86h-3.8l-1.88 3.8z"/><g><path fill="#c0e7ff" d="M271.8 42.7a13.95 13.95 0 0 0-2.75.28 11.4 11.4 0 0 0-15.97-8.1 15.22 15.22 0 1 0-28.62 10.38 12.7 12.7 0 0 0 .4 25.37h46.95a13.96 13.96 0 0 0 .02-27.93z"/></g></g></g></svg>