<svg xmlns="http://www.w3.org/2000/svg" viewBox="0 0 1237.08 15"><defs><style>.cls-1{fill:#ede5ce;}</style></defs><title>ocean-bottom-top_4</title><g id="Layer_2" data-name="Layer 2"><g id="Layer_1-2" data-name="Layer 1"><path class="cls-1" d="M0,15S55-3.3,102,.76,163,16,190,13.47c38.2-3.55,80-7.11,107-6.1s76,3.56,76,3.56S443,1.27,466,.25s71,4.58,91,8.14S599.81,15,621,15"/><path class="cls-1" d="M616.08,14.87s55-18.31,102-14.24,61,15.23,88,12.71c38.2-3.56,80-7.12,107-6.1s76,3.56,76,3.56,70-9.66,93-10.68,71,4.58,91,8.14,42.81,6.61,64,6.61"/></g></g></svg>