<svg xmlns="http://www.w3.org/2000/svg" viewBox="0 0 559.72 330.52"><defs><style>.cls-1{fill:#fff;}</style></defs><title>gavel-down-hover</title><g id="Layer_2" data-name="Layer 2"><g id="Layer_1-2" data-name="Layer 1"><g id="Layer_2-2" data-name="Layer 2"><g id="Capa_1" data-name="Capa 1"><path class="cls-1" d="M559.72,170.15a41.29,41.29,0,0,1-41.28,41.3H283.88a41.26,41.26,0,0,1-38.15-25.51h-48V252.3a39.33,39.33,0,0,1,30.14,38.61c0,21.86-17.27,39.61-38.53,39.61H38.58C17.25,330.53,0,312.79,0,290.93c0-18.91,12.9-34.66,30.15-38.6V78.19C12.89,74.27,0,58.51,0,39.6,0,17.73,17.26,0,38.53,0H189.3c21.27,0,38.52,17.72,38.52,39.59,0,18.94-12.91,34.65-30.14,38.6v66.43h54A41,41,0,0,1,284,128.83H518.47A41.29,41.29,0,0,1,559.72,170.15Z"/></g></g></g></g></svg>