<?xml version="1.0" encoding="UTF-8" standalone="no"?>
<!DOCTYPE svg PUBLIC "-//W3C//DTD SVG 1.1//EN" "http://www.w3.org/Graphics/SVG/1.1/DTD/svg11.dtd">
<svg width="100%" height="100%" viewBox="0 0 468 554" version="1.1" xmlns="http://www.w3.org/2000/svg" xmlns:xlink="http://www.w3.org/1999/xlink" xml:space="preserve" xmlns:serif="http://www.serif.com/" style="fill-rule:evenodd;clip-rule:evenodd;stroke-linejoin:round;stroke-miterlimit:2;">
    <g transform="matrix(1,0,0,1,-42.544,-0.000222056)">
        <g>
            <g>
                <path d="M76.774,179.141C67.245,179.141 59.16,182.464 52.514,189.11C45.868,195.756 42.544,203.731 42.544,213.039L42.544,355.953C42.544,365.494 45.867,373.572 52.514,380.219C59.16,386.865 67.245,390.189 76.774,390.189C86.296,390.189 94.332,386.866 100.875,380.219C107.405,373.573 110.679,365.494 110.679,355.953L110.679,213.039C110.679,203.73 107.356,195.756 100.709,189.11C94.062,182.464 86.082,179.141 76.774,179.141Z" style="fill:rgb(40,79,97);fill-rule:nonzero;"/>
                <path d="M351.972,50.847L375.57,7.315C377.119,4.433 376.568,2.223 373.912,0.669C371.029,-0.671 368.814,0.008 367.266,2.658L343.338,46.538C322.283,37.229 300.014,32.566 276.531,32.566C253.043,32.566 230.772,37.23 209.725,46.538L185.796,2.658C184.241,0.008 182.026,-0.665 179.15,0.669C176.488,2.23 175.937,4.433 177.492,7.315L201.091,50.847C177.162,63.05 158.104,80.045 143.924,101.869C129.744,123.705 122.651,147.567 122.651,173.497L430.077,173.497C430.077,147.573 422.983,123.71 408.804,101.869C394.623,80.045 375.675,63.05 351.972,50.847ZM215.539,114.165C212.987,116.723 209.939,117.996 206.396,117.996C202.846,117.996 199.86,116.723 197.424,114.165C194.988,111.619 193.77,108.583 193.77,105.028C193.77,101.485 194.988,98.443 197.424,95.891C199.86,93.345 202.853,92.072 206.396,92.072C209.939,92.072 212.987,93.345 215.539,95.891C218.085,98.449 219.364,101.485 219.364,105.028C219.357,108.577 218.079,111.619 215.539,114.165ZM355.625,114.165C353.184,116.723 350.191,117.996 346.654,117.996C343.103,117.996 340.056,116.723 337.509,114.165C334.958,111.619 333.685,108.583 333.685,105.028C333.685,101.485 334.958,98.443 337.509,95.891C340.056,93.345 343.103,92.072 346.654,92.072C350.197,92.072 353.183,93.345 355.625,95.891C358.063,98.449 359.279,101.485 359.279,105.028C359.279,108.577 358.062,111.619 355.625,114.165Z" style="fill:rgb(40,79,97);fill-rule:nonzero;"/>
                <path d="M123.971,406.804C123.971,417.006 127.514,425.642 134.601,432.729C141.694,439.816 150.33,443.359 160.525,443.359L185.121,443.359L185.458,518.813C185.458,528.341 188.781,536.432 195.427,543.079C202.073,549.726 210.054,553.049 219.356,553.049C228.879,553.049 236.969,549.726 243.616,543.079C250.263,536.432 253.586,528.342 253.586,518.813L253.586,443.366L299.45,443.366L299.45,518.813C299.45,528.341 302.772,536.432 309.419,543.079C316.066,549.726 324.149,553.049 333.679,553.049C343.202,553.049 351.292,549.726 357.939,543.079C364.586,536.432 367.908,528.342 367.908,518.813L367.908,443.366L392.836,443.366C402.805,443.366 411.33,439.822 418.43,432.735C425.516,425.648 429.061,417.012 429.061,406.811L429.061,185.45L123.971,185.45L123.971,406.804Z" style="fill:rgb(40,79,97);fill-rule:nonzero;"/>
                <path d="M476.275,179.141C466.966,179.141 458.992,182.415 452.345,188.945C445.699,195.487 442.376,203.523 442.376,213.039L442.376,355.953C442.376,365.494 445.698,373.572 452.345,380.219C458.992,386.866 466.972,390.189 476.275,390.189C485.798,390.189 493.888,386.866 500.535,380.219C507.182,373.572 510.504,365.494 510.504,355.953L510.504,213.039C510.504,203.522 507.182,195.487 500.535,188.945C493.888,182.415 485.798,179.141 476.275,179.141Z" style="fill:rgb(40,79,97);fill-rule:nonzero;"/>
            </g>
        </g>
    </g>
</svg>
