<?xml version="1.0" encoding="UTF-8" standalone="no"?>
<!DOCTYPE svg PUBLIC "-//W3C//DTD SVG 1.1//EN" "http://www.w3.org/Graphics/SVG/1.1/DTD/svg11.dtd">
<svg width="100%" height="100%" viewBox="0 0 438 513" version="1.1" xmlns="http://www.w3.org/2000/svg" xmlns:xlink="http://www.w3.org/1999/xlink" xml:space="preserve" xmlns:serif="http://www.serif.com/" style="fill-rule:evenodd;clip-rule:evenodd;stroke-linejoin:round;stroke-miterlimit:2;">
    <g transform="matrix(1,0,0,1,-37.336,0)">
        <g>
            <path d="M351.98,0C324.684,1.888 292.78,19.36 274.188,42.112C257.228,62.752 243.276,93.408 248.716,123.2C278.54,124.128 309.356,106.24 327.212,83.104C343.916,61.568 356.556,31.104 351.98,0Z" style="fill:rgb(40,79,97);fill-rule:nonzero;"/>
        </g>
        <g>
            <path d="M459.852,171.776C433.644,138.912 396.812,119.84 362.028,119.84C316.108,119.84 296.684,141.824 264.78,141.824C231.884,141.824 206.892,119.904 167.18,119.904C128.172,119.904 86.636,143.744 60.3,184.512C23.276,241.92 29.612,349.856 89.612,441.792C111.084,474.688 139.756,511.68 177.26,512C210.636,512.32 220.044,490.592 265.26,490.368C310.476,490.112 319.052,512.288 352.364,511.936C389.9,511.648 420.14,470.656 441.612,437.76C457.004,414.176 462.732,402.304 474.668,375.68C387.852,342.624 373.932,219.168 459.852,171.776Z" style="fill:rgb(40,79,97);fill-rule:nonzero;"/>
        </g>
    </g>
</svg>
