<?xml version="1.0" encoding="UTF-8" standalone="no"?>
<!DOCTYPE svg PUBLIC "-//W3C//DTD SVG 1.1//EN" "http://www.w3.org/Graphics/SVG/1.1/DTD/svg11.dtd">
<svg width="100%" height="100%" viewBox="0 0 410 410" version="1.1" xmlns="http://www.w3.org/2000/svg" xmlns:xlink="http://www.w3.org/1999/xlink" xml:space="preserve" xmlns:serif="http://www.serif.com/" style="fill-rule:evenodd;clip-rule:evenodd;stroke-linejoin:round;stroke-miterlimit:2;">
    <g transform="matrix(1,0,0,1,-51.2,-51.2)">
        <path d="M115.231,200.499C128.609,180.511 147.576,164.601 169.963,154.23C188.475,145.654 209.285,140.82 231.318,140.82C234.971,140.82 238.579,141.005 242.163,141.282C277.074,143.983 308.411,159.577 331.415,183.321C352.029,170.843 365.854,148.275 365.854,122.419C365.854,83.086 333.968,51.2 294.635,51.2C272.523,51.2 252.766,61.278 239.702,77.091C229.683,64.337 214.156,56.116 196.679,56.116C166.452,56.116 141.948,80.619 141.948,110.846C141.948,112.018 142.051,113.163 142.123,114.317C136.765,112.088 130.894,110.846 124.729,110.846C99.693,110.846 79.396,131.143 79.396,156.18C79.396,177.957 94.757,196.131 115.231,200.499Z" style="fill:rgb(40,79,97);fill-rule:nonzero;"/>
        <path d="M460.8,267.263L355.365,216.684C365.188,235.767 370.77,257.372 370.77,280.271C370.77,291.172 369.496,301.879 367.071,312.226L460.8,267.263Z" style="fill:rgb(40,79,97);fill-rule:nonzero;"/>
        <path d="M359.399,335.515C349.847,357.661 334.579,377.191 314.722,392.009L315.97,442.992C324.755,448.881 335.87,452.424 347.985,452.424C376.369,452.424 399.379,433.098 399.379,409.259C399.379,392.132 380.535,355.042 359.399,335.515Z" style="fill:rgb(40,79,97);fill-rule:nonzero;"/>
        <path d="M355.41,280.271C355.41,211.738 299.852,156.18 231.318,156.18C174.627,156.18 124.479,190.923 112.019,246.14L51.2,460.8L301.041,460.8L299.165,384.153C333.024,361.994 355.41,323.757 355.41,280.271ZM282.365,264.468C282.365,251.447 271.75,240.855 258.705,240.855C245.66,240.855 235.045,251.448 235.045,264.468L219.685,264.468C219.685,242.978 237.19,225.495 258.705,225.495C280.22,225.495 297.725,242.978 297.725,264.468L282.365,264.468Z" style="fill:rgb(40,79,97);fill-rule:nonzero;"/>
    </g>
</svg>
