<?xml version="1.0" encoding="UTF-8" standalone="no"?>
<!DOCTYPE svg PUBLIC "-//W3C//DTD SVG 1.1//EN" "http://www.w3.org/Graphics/SVG/1.1/DTD/svg11.dtd">
<svg width="100%" height="100%" viewBox="0 0 470 512" version="1.1" xmlns="http://www.w3.org/2000/svg" xmlns:xlink="http://www.w3.org/1999/xlink" xml:space="preserve" xmlns:serif="http://www.serif.com/" style="fill-rule:evenodd;clip-rule:evenodd;stroke-linejoin:round;stroke-miterlimit:2;">
    <g transform="matrix(1,0,0,1,-21,2.84217e-14)">
        <g>
            <path d="M226.877,401.748C233.206,414 244.028,422 256,422C267.972,422 278.793,414.001 285.122,401.75C274.823,400.897 264.917,397.807 256,392.64C247.083,397.807 237.175,400.896 226.877,401.748Z" style="fill:rgb(40,79,97);fill-rule:nonzero;"/>
            <path d="M256,359.427C256.265,359.427 256.529,359.447 256.794,359.46C265.874,358.641 276,344.091 276,334.5C276,333.174 275.771,332.71 275.769,332.705C275.756,332.693 273.014,329.5 256,329.5C239.035,329.5 236.259,332.675 236.218,332.725C236.221,332.725 236,333.196 236,334.5C236,344.091 246.127,358.641 255.206,359.46C255.471,359.446 255.735,359.427 256,359.427Z" style="fill:rgb(40,79,97);fill-rule:nonzero;"/>
            <path d="M289.282,223.905L288.397,219.039C285.549,203.371 271.924,192 256,192C240.076,192 226.451,203.371 223.603,219.038L222.718,223.906C216.619,257.45 205.154,285.926 188.64,308.539C182.565,316.857 179.985,327.172 181.375,337.58C183.752,355.38 199.075,370.096 217.016,371.809C218.414,371.942 219.807,372.001 221.191,371.993C211.819,361.271 206,347.215 206,334.5C206,320.918 212.732,310.325 224.955,304.672C232.586,301.144 242.451,299.5 256,299.5C269.549,299.5 279.414,301.144 287.045,304.672C299.268,310.325 306,320.918 306,334.5C306,347.215 300.181,361.27 290.809,371.993C292.193,372.001 293.586,371.942 294.984,371.809C312.925,370.095 328.248,355.379 330.625,337.58C332.016,327.171 329.436,316.856 323.36,308.537C306.847,285.926 295.381,257.45 289.282,223.905Z" style="fill:rgb(40,79,97);fill-rule:nonzero;"/>
            <path d="M363.292,47.183C344.208,37.277 322.731,33.968 301.184,37.611C284.635,40.411 269.242,47.095 256,57.153C242.758,47.095 227.365,40.411 210.816,37.611C189.267,33.968 167.791,37.277 148.709,47.183C115.964,64.181 88.938,89.665 70.552,120.883C50.943,154.177 41,193.245 41,237C41,302.496 63.417,370.484 102.502,423.532C122.358,450.481 145.201,471.861 170.396,487.078C197.778,503.615 226.579,512 256,512C285.421,512 314.222,503.615 341.604,487.078C366.799,471.861 389.642,450.481 409.498,423.532C448.583,370.484 471,302.496 471,237C471,193.245 461.057,154.177 441.448,120.883C423.062,89.665 396.036,64.181 363.292,47.183ZM136,172C136,163.716 142.716,157 151,157C159.284,157 166,163.716 166,172C166,180.284 159.284,187 151,187C142.716,187 136,180.284 136,172ZM360.361,341.553C357.091,366.03 340.735,386.642 318.78,396.224C311.361,428.608 285.709,452 256,452C226.291,452 200.639,428.608 193.22,396.224C171.265,386.642 154.908,366.03 151.639,341.552C149.221,323.446 153.757,305.438 164.412,290.847C178.233,271.92 187.919,247.592 193.202,218.538L194.087,213.67C199.53,183.73 225.569,162 256,162C286.431,162 312.47,183.73 317.913,213.671L318.798,218.537L318.798,218.538C324.081,247.592 333.767,271.92 347.588,290.846C358.243,305.438 362.78,323.445 360.361,341.553ZM361,187C352.716,187 346,180.284 346,172C346,163.716 352.716,157 361,157C369.284,157 376,163.716 376,172C376,180.284 369.284,187 361,187Z" style="fill:rgb(40,79,97);fill-rule:nonzero;"/>
            <path d="M134.887,20.557C137.624,19.136 140.396,17.833 143.195,16.621C130.225,6.136 113.753,0 96,0C54.645,0 21,33.645 21,75C21,92.02 26.729,107.968 36.56,120.75C39.089,115.617 41.801,110.585 44.702,105.659C65.95,69.581 97.136,40.153 134.887,20.557Z" style="fill:rgb(40,79,97);fill-rule:nonzero;"/>
            <path d="M416,0C398.248,0 381.775,6.136 368.805,16.62C371.604,17.832 374.376,19.135 377.113,20.555C414.865,40.153 446.051,69.58 467.298,105.658C470.199,110.584 472.911,115.617 475.44,120.749C485.271,107.967 491,92.02 491,75C491,33.645 457.355,-0 416,-0Z" style="fill:rgb(40,79,97);fill-rule:nonzero;"/>
        </g>
    </g>
</svg>
