<?xml version="1.0" encoding="UTF-8" standalone="no"?>
<!DOCTYPE svg PUBLIC "-//W3C//DTD SVG 1.1//EN" "http://www.w3.org/Graphics/SVG/1.1/DTD/svg11.dtd">
<svg width="100%" height="100%" viewBox="0 0 432 432" version="1.1" xmlns="http://www.w3.org/2000/svg" xmlns:xlink="http://www.w3.org/1999/xlink" xml:space="preserve" xmlns:serif="http://www.serif.com/" style="fill-rule:evenodd;clip-rule:evenodd;stroke-linejoin:round;stroke-miterlimit:2;">
    <g transform="matrix(1,0,0,1,-46.368,-33.8056)">
        <g id="Bat">
            <path d="M301.088,426.336C319.866,410.138 343.873,401.246 368.672,401.304L368.728,401.304C396.337,401.223 422.86,412.207 442.328,431.784L476.224,465.68C483.369,404.074 471.058,341.75 441.024,287.488L440.472,286.504L436.656,290.352C396.247,330.561 329.969,330.561 289.56,290.352C288.058,288.852 287.214,286.814 287.214,284.692C287.214,282.57 288.058,280.532 289.56,279.032L324.28,244.312L324.12,244.312C295.699,238.647 273.369,216.317 267.704,187.896L267.704,187.736L232.984,222.456C231.485,223.956 229.449,224.8 227.328,224.8C225.204,224.802 223.165,223.958 221.664,222.456C181.475,182.047 181.475,115.793 221.664,75.384L225.544,71.544L224.528,70.976C170.271,40.96 107.963,28.65 46.368,35.776L80.264,69.672C99.844,89.139 110.828,115.662 110.744,143.272C110.802,168.071 101.91,192.078 85.712,210.856C129.236,254.248 142.241,320.003 118.512,376.696L106.4,405.6L135.248,393.6C191.929,369.857 257.681,382.836 301.088,426.336Z" style="fill:rgb(40,79,97);fill-rule:nonzero;"/>
        </g>
    </g>
</svg>
