<?xml version="1.0" encoding="UTF-8" standalone="no"?>
<!DOCTYPE svg PUBLIC "-//W3C//DTD SVG 1.1//EN" "http://www.w3.org/Graphics/SVG/1.1/DTD/svg11.dtd">
<svg width="100%" height="100%" viewBox="0 0 455 419" version="1.1" xmlns="http://www.w3.org/2000/svg" xmlns:xlink="http://www.w3.org/1999/xlink" xml:space="preserve" xmlns:serif="http://www.serif.com/" style="fill-rule:evenodd;clip-rule:evenodd;stroke-linejoin:round;stroke-miterlimit:2;">
    <g transform="matrix(1,0,0,1,-21.5,-22.2812)">
        <g transform="matrix(0.863281,0,0,0.863281,28,10.6523)">
            <path d="M511.971,377.112L504.196,372.839C503.703,372.568 455,345.345 455,306L455,283.518C455,265.745 450.121,249.015 441.549,234.684C459.041,225.466 471,207.108 471,186L441,186C441,198.111 432.342,208.235 420.892,210.517C408.377,200.09 393.045,192.781 375.963,189.869L209.021,161.413C194.698,158.972 182.375,149.702 176.057,136.617L115.415,21L91,21L91,75.188L51,85.188L51,95.77L0,115.77L0,132.213L29.787,162L91,162L91,213.719C91,252.923 109.546,289.026 141,311.85L141,461L111,461L111,491L171,491L171,466.407L207.127,334.106C210.907,333.633 350.685,307.414 350.685,307.414C358.269,329.078 370.677,348.928 387.375,365.625C413.075,391.325 446.237,406.879 482,410.285L482,461L452,461L452,491L512,491L512,386L511.971,377.112Z" style="fill:none;fill-rule:nonzero;"/>
            <clipPath id="_clip1">
                <path d="M511.971,377.112L504.196,372.839C503.703,372.568 455,345.345 455,306L455,283.518C455,265.745 450.121,249.015 441.549,234.684C459.041,225.466 471,207.108 471,186L441,186C441,198.111 432.342,208.235 420.892,210.517C408.377,200.09 393.045,192.781 375.963,189.869L209.021,161.413C194.698,158.972 182.375,149.702 176.057,136.617L115.415,21L91,21L91,75.188L51,85.188L51,95.77L0,115.77L0,132.213L29.787,162L91,162L91,213.719C91,252.923 109.546,289.026 141,311.85L141,461L111,461L111,491L171,491L171,466.407L207.127,334.106C210.907,333.633 350.685,307.414 350.685,307.414C358.269,329.078 370.677,348.928 387.375,365.625C413.075,391.325 446.237,406.879 482,410.285L482,461L452,461L452,491L512,491L512,386L511.971,377.112Z" clip-rule="nonzero"/>
            </clipPath>
            <g clip-path="url(#_clip1)">
                <g transform="matrix(0.632652,0,0,2.01918,215.782,-442.924)">
                    <rect x="95" y="271" width="405" height="205" style="fill:rgb(40,79,97);"/>
                </g>
            </g>
            <path d="M511.971,377.112L504.196,372.839C503.703,372.568 455,345.345 455,306L455,283.518C455,265.745 450.121,249.015 441.549,234.684C459.041,225.466 471,207.108 471,186L441,186C441,198.111 432.342,208.235 420.892,210.517C408.377,200.09 393.045,192.781 375.963,189.869L209.021,161.413C194.698,158.972 182.375,149.702 176.057,136.617L115.415,21L91,21L91,75.188L51,85.188L51,95.77L0,115.77L0,132.213L29.787,162L91,162L91,213.719C91,252.923 109.546,289.026 141,311.85L141,461L111,461L111,491L171,491L171,466.407L207.127,334.106C210.907,333.633 350.685,307.414 350.685,307.414C358.269,329.078 370.677,348.928 387.375,365.625C413.075,391.325 446.237,406.879 482,410.285L482,461L452,461L452,491L512,491L512,386L511.971,377.112Z" style="fill:none;fill-rule:nonzero;stroke:rgb(40,79,97);stroke-width:15.06px;"/>
        </g>
    </g>
</svg>
