<?xml version="1.0" encoding="UTF-8" standalone="no"?>
<!DOCTYPE svg PUBLIC "-//W3C//DTD SVG 1.1//EN" "http://www.w3.org/Graphics/SVG/1.1/DTD/svg11.dtd">
<svg width="100%" height="100%" viewBox="0 0 512 423" version="1.1" xmlns="http://www.w3.org/2000/svg" xmlns:xlink="http://www.w3.org/1999/xlink" xml:space="preserve" xmlns:serif="http://www.serif.com/" style="fill-rule:evenodd;clip-rule:evenodd;stroke-linejoin:round;stroke-miterlimit:2;">
    <g transform="matrix(1,0,0,1,0,-44.763)">
        <g>
            <g>
                <path d="M414.773,44.763L97.227,44.763C43.616,44.763 0,88.38 0,141.992L0,370.008C0,423.62 43.616,467.237 97.227,467.237L414.772,467.237C468.384,467.237 511.999,423.62 511.999,370.008L511.999,141.992C512,88.38 468.384,44.763 414.773,44.763ZM214.73,325.581C198.652,345.214 177.004,356.026 153.772,356.026C130.54,356.026 108.892,345.214 92.814,325.581C77.479,306.856 69.034,282.144 69.034,256.001C69.034,229.857 77.48,205.146 92.814,186.421C108.892,166.788 130.54,155.975 153.772,155.975C178.147,155.975 201.335,168.311 217.386,189.817C222.542,196.726 221.122,206.507 214.213,211.662C207.303,216.818 197.524,215.398 192.367,208.489C182.117,194.756 168.411,187.193 153.771,187.193C124.261,187.193 100.252,218.06 100.252,256C100.252,293.94 124.26,324.807 153.771,324.807C179.106,324.807 200.387,302.055 205.901,271.609L184.513,271.609C175.892,271.609 168.904,264.62 168.904,256C168.904,247.379 175.893,240.391 184.513,240.391L222.899,240.391C231.52,240.391 238.508,247.38 238.508,256C238.51,282.143 230.064,306.855 214.73,325.581ZM302.102,340.416C302.102,349.036 295.113,356.025 286.493,356.025C277.872,356.025 270.884,349.036 270.884,340.416L270.884,171.583C270.884,162.962 277.873,155.974 286.493,155.974C295.113,155.974 302.102,162.963 302.102,171.583L302.102,340.416ZM427.356,220.45C435.976,220.45 442.965,227.439 442.965,236.059C442.965,244.679 435.976,251.668 427.356,251.668L365.695,251.668L365.695,340.415C365.695,349.036 358.706,356.024 350.086,356.024C341.466,356.024 334.477,349.035 334.477,340.415L334.477,171.583C334.477,162.962 341.466,155.974 350.086,155.974L427.356,155.974C435.976,155.974 442.965,162.963 442.965,171.583C442.965,180.203 435.976,187.192 427.356,187.192L365.695,187.192L365.695,220.449L427.356,220.449L427.356,220.45Z" style="fill:rgb(40,79,97);fill-rule:nonzero;"/>
            </g>
        </g>
    </g>
</svg>
