<?xml version="1.0" encoding="UTF-8" standalone="no"?>
<!DOCTYPE svg PUBLIC "-//W3C//DTD SVG 1.1//EN" "http://www.w3.org/Graphics/SVG/1.1/DTD/svg11.dtd">
<svg width="100%" height="100%" viewBox="0 0 401 697" version="1.1" xmlns="http://www.w3.org/2000/svg" xmlns:xlink="http://www.w3.org/1999/xlink" xml:space="preserve" xmlns:serif="http://www.serif.com/" style="fill-rule:evenodd;clip-rule:evenodd;stroke-linejoin:round;stroke-miterlimit:2;">
    <g transform="matrix(1,0,0,1,-160.763,-21.4823)">
        <path d="M507.231,165.587L507.231,135.157L508.257,135.157C528.28,135.13 544.498,118.912 544.525,98.889L544.525,57.766C544.513,37.739 528.284,21.506 508.257,21.482L213.671,21.482C193.644,21.506 177.418,37.732 177.395,57.754L177.395,98.869C177.414,118.9 193.64,135.13 213.671,135.157L214.619,135.157L214.619,165.587C181.601,180.514 160.763,209.824 160.763,242.463L160.763,631.205C160.763,679.094 205.858,718.043 261.291,718.043L460.555,718.043C515.987,718.043 561.079,679.094 561.079,631.205L561.079,242.424C561.079,209.805 540.244,180.514 507.231,165.587ZM188.454,331.58L533.466,331.58L533.466,541.264L188.454,541.264L188.454,331.58ZM381.092,107.571L340.832,107.571L340.832,49.099L381.092,49.099L381.092,107.571ZM516.834,57.766L516.834,98.92C516.811,103.654 512.987,107.49 508.257,107.54L476.648,107.54L476.648,49.099L508.257,49.099C513.006,49.146 516.834,53.017 516.834,57.766ZM205.089,98.889L205.089,57.766C205.089,53.017 208.91,49.146 213.671,49.099L245.268,49.099L245.268,107.54L213.671,107.54C208.921,107.49 205.097,103.634 205.089,98.889Z" style="fill:rgb(40,79,97);fill-rule:nonzero;"/>
        <path d="M432.29,365.172C420.58,353.605 404.412,347.72 388.015,349.043C371.223,350.273 355.461,357.566 343.665,369.57C334.943,378.233 328.629,389.015 325.336,400.858C313.488,404.156 302.706,410.47 294.047,419.192C282.051,430.969 274.746,446.707 273.505,463.471C272.112,479.186 277.454,494.752 288.213,506.291C298.975,517.834 314.136,524.254 329.905,523.961C348.117,523.754 365.506,516.344 378.267,503.345C387.016,494.698 393.357,483.912 396.682,472.068C408.521,468.767 419.303,462.449 427.963,453.735C439.947,441.923 447.217,426.149 448.415,409.373C449.726,392.991 443.837,376.859 432.29,365.172Z" style="fill:rgb(40,79,97);fill-rule:nonzero;"/>
    </g>
</svg>
