<?xml version="1.0" encoding="UTF-8" standalone="no"?>
<!DOCTYPE svg PUBLIC "-//W3C//DTD SVG 1.1//EN" "http://www.w3.org/Graphics/SVG/1.1/DTD/svg11.dtd">
<svg width="100%" height="100%" viewBox="0 0 512 512" version="1.1" xmlns="http://www.w3.org/2000/svg" xmlns:xlink="http://www.w3.org/1999/xlink" xml:space="preserve" xmlns:serif="http://www.serif.com/" style="fill-rule:evenodd;clip-rule:evenodd;stroke-linejoin:round;stroke-miterlimit:2;">
    <g>
        <path d="M256,90C164.467,90 90,164.467 90,256C90,347.533 164.467,422 256,422C347.533,422 422,347.533 422,256C422,164.467 347.533,90 256,90ZM335.536,367.227L256,325.413L176.464,367.227L191.654,278.662L127.307,215.94L216.232,203.019L256,122.44L295.768,203.019L384.693,215.94L320.346,278.662L335.536,367.227Z" style="fill:rgb(40,79,97);fill-rule:nonzero;"/>
        <path d="M275.846,230.439L256,190.227L236.154,230.439L191.776,236.888L223.889,268.188L216.308,312.386L256,291.519L295.692,312.386L288.111,268.188L320.224,236.888L275.846,230.439Z" style="fill:rgb(40,79,97);fill-rule:nonzero;"/>
        <path d="M437.02,74.98C388.667,26.629 324.38,0 256,0C187.62,0 123.333,26.629 74.98,74.98C26.629,123.333 -0,187.62 -0,256C-0,324.38 26.629,388.667 74.98,437.02C123.333,485.371 187.62,512 256,512C324.38,512 388.667,485.371 437.02,437.02C485.371,388.667 512,324.38 512,256C512,187.62 485.371,123.333 437.02,74.98ZM256,452C147.925,452 60,364.075 60,256C60,147.925 147.925,60 256,60C364.075,60 452,147.925 452,256C452,364.075 364.075,452 256,452Z" style="fill:rgb(40,79,97);fill-rule:nonzero;"/>
    </g>
</svg>
