<?xml version="1.0" encoding="UTF-8" standalone="no"?>
<!DOCTYPE svg PUBLIC "-//W3C//DTD SVG 1.1//EN" "http://www.w3.org/Graphics/SVG/1.1/DTD/svg11.dtd">
<svg width="100%" height="100%" viewBox="0 0 508 512" version="1.1" xmlns="http://www.w3.org/2000/svg" xmlns:xlink="http://www.w3.org/1999/xlink" xml:space="preserve" xmlns:serif="http://www.serif.com/" style="fill-rule:evenodd;clip-rule:evenodd;stroke-linejoin:round;stroke-miterlimit:2;">
    <g transform="matrix(1,0,0,1,-2.07581,0)">
        <g>
            <g>
                <path d="M414.448,269.483C404.989,269.483 395.639,270.867 386.655,273.596L300.621,297.414L300.621,381.03L430.79,344.995L438.73,373.675L300.621,411.907L300.621,495.524L442.056,456.371L442.445,456.258C461.576,450.398 478.758,438.319 490.83,422.249C503.322,405.618 509.924,385.807 509.924,364.958C509.924,312.313 467.093,269.483 414.448,269.483Z" style="fill:rgb(40,79,97);fill-rule:nonzero;"/>
            </g>
        </g>
        <g>
            <g>
                <path d="M343.684,53.177L151.497,0L151.497,478.957L270.862,512L270.862,141.875C270.862,133.671 277.537,126.996 285.741,126.996C293.945,126.996 300.62,133.671 300.62,141.875L300.62,257.625L315.5,257.625C318.192,257.625 320.861,257.522 323.502,257.32C325.263,257.186 327.012,257.008 328.747,256.786C331.351,256.455 333.924,256.026 336.464,255.504C338.157,255.157 339.836,254.768 341.498,254.339C342.329,254.125 343.157,253.9 343.98,253.665C386.788,241.48 418.44,202.536 419.62,156.152C419.643,155.26 419.654,154.366 419.654,153.468C419.655,106.995 388.439,65.76 343.684,53.177Z" style="fill:rgb(40,79,97);fill-rule:nonzero;"/>
            </g>
        </g>
        <g>
            <g>
                <path d="M121.739,263.315L74.382,276.424C65.276,278.703 56.547,282.323 48.433,287.188C3.282,314.26 -11.427,373.019 15.646,418.17C26.368,436.052 42.219,449.648 61.484,457.487C72.969,462.16 85.34,464.531 97.693,464.53C105.364,464.53 113.03,463.616 120.469,461.772L121.738,461.421L121.738,377.811L81.187,389.036L73.247,360.356L121.738,346.933L121.738,263.315L121.739,263.315Z" style="fill:rgb(40,79,97);fill-rule:nonzero;"/>
            </g>
        </g>
    </g>
</svg>
