<?xml version="1.0" encoding="UTF-8" standalone="no"?>
<!DOCTYPE svg PUBLIC "-//W3C//DTD SVG 1.1//EN" "http://www.w3.org/Graphics/SVG/1.1/DTD/svg11.dtd">
<svg width="100%" height="100%" viewBox="0 0 165 116" version="1.1" xmlns="http://www.w3.org/2000/svg" xmlns:xlink="http://www.w3.org/1999/xlink" xml:space="preserve" xmlns:serif="http://www.serif.com/" style="fill-rule:evenodd;clip-rule:evenodd;stroke-linecap:round;stroke-linejoin:round;stroke-miterlimit:1.5;">
    <g transform="matrix(1,0,0,1,-52.8103,-147.5)">
        <g transform="matrix(0.591836,0,0,1.03061,24.6165,-7.83673)">
            <path d="M303.874,161.261C304.357,160.52 304.177,159.689 303.391,159.039C302.606,158.388 301.314,158 299.936,158C266.821,158 108.053,158 72.901,158C68.948,158 65.602,159.677 65.069,161.927C63.743,167.521 61.382,177.479 60.583,180.848C60.404,181.603 60.559,182.371 61.033,183.083C63.37,186.59 70.717,197.615 73.183,201.316C73.717,202.117 73.845,202.988 73.552,203.828L61.25,239.176C61.055,239.737 61.046,240.313 61.224,240.876C61.887,242.977 63.636,248.513 64.822,252.271C65.504,254.43 68.778,256 72.6,256C107.634,256 271.358,256 301.294,256C302.491,256 303.632,255.707 304.43,255.194C305.228,254.681 305.607,253.998 305.473,253.315C304.857,250.176 303.883,245.215 303.578,243.661C303.515,243.343 303.563,243.021 303.719,242.714C304.874,240.441 309.937,230.474 311.718,226.967C312.107,226.2 311.811,225.372 310.927,224.756C307.127,222.105 296.793,214.897 294.103,213.021C293.678,212.724 293.382,212.374 293.24,211.999C292.074,208.917 286.538,194.284 285.263,190.912C285.091,190.459 285.151,189.987 285.434,189.553C287.788,185.941 299.105,168.578 303.874,161.261Z" style="fill:none;stroke:rgb(40,79,97);stroke-width:17.85px;"/>
        </g>
    </g>
</svg>
