<?xml version="1.0" encoding="UTF-8" standalone="no"?>
<!DOCTYPE svg PUBLIC "-//W3C//DTD SVG 1.1//EN" "http://www.w3.org/Graphics/SVG/1.1/DTD/svg11.dtd">
<svg width="100%" height="100%" viewBox="0 0 260 110" version="1.1" xmlns="http://www.w3.org/2000/svg" xmlns:xlink="http://www.w3.org/1999/xlink" xml:space="preserve" xmlns:serif="http://www.serif.com/" style="fill-rule:evenodd;clip-rule:evenodd;stroke-linejoin:round;stroke-miterlimit:2;">
    <g transform="matrix(1,0,0,1,-58.8104,-167)">
        <g transform="matrix(-0.235536,0,0,0.235536,175.002,156.401)">
            <path d="M493.304,256.348L493.304,52C493.302,48.161 490.143,45.002 486.304,45L331.748,45C327.909,45.002 324.75,48.161 324.748,52L324.748,271.356L244.892,376.844C233.81,391.484 227.81,409.351 227.81,427.712C227.81,473.948 265.856,511.994 312.092,511.994C338.469,511.994 363.372,499.611 379.292,478.58L459.14,373.092C481.241,343.773 493.235,308.056 493.308,271.34L493.308,256.348L493.304,256.348ZM338.748,59.008L479.304,59.008L479.304,138.54L338.748,138.54L338.748,59.008ZM368.124,470.128C354.866,487.865 333.976,498.331 311.832,498.331C273.278,498.331 241.552,466.605 241.552,428.051C241.552,412.593 246.652,397.559 256.056,385.292L335.908,279.808C337.745,277.369 338.742,274.398 338.748,271.344L338.748,152.544L479.304,152.544L479.304,248.36C476.968,248.148 474.628,248.008 472.304,248.008C472.301,248.008 472.298,248.008 472.296,248.008C429.249,248.008 393.828,283.43 393.828,326.476C393.828,352.319 406.594,376.56 427.904,391.18L368.124,470.128ZM447.972,364.644L436.34,380C418.526,368.035 407.813,347.935 407.813,326.476C407.813,291.106 436.919,262 472.289,262C472.294,262 472.299,262 472.304,262C474.643,262.011 476.98,262.151 479.304,262.42L479.304,271.332C479.239,305.002 468.241,337.758 447.972,364.644Z" style="fill:rgb(40,79,97);fill-rule:nonzero;"/>
        </g>
        <g transform="matrix(-0.235536,0,0,0.235536,175.002,156.401)">
            <path d="M493.304,256.348L493.304,52C493.302,48.161 490.143,45.002 486.304,45L331.748,45C327.909,45.002 324.75,48.161 324.748,52L324.748,271.356L244.892,376.844C233.81,391.484 227.81,409.351 227.81,427.712C227.81,473.948 265.856,511.994 312.092,511.994C338.469,511.994 363.372,499.611 379.292,478.58L459.14,373.092C481.241,343.773 493.235,308.056 493.308,271.34L493.308,256.348L493.304,256.348ZM338.748,59.008L479.304,59.008L479.304,138.54L338.748,138.54L338.748,59.008ZM368.124,470.128C354.866,487.865 333.976,498.331 311.832,498.331C273.278,498.331 241.552,466.605 241.552,428.051C241.552,412.593 246.652,397.559 256.056,385.292L335.908,279.808C337.745,277.369 338.742,274.398 338.748,271.344L338.748,152.544L479.304,152.544L479.304,248.36C476.968,248.148 474.628,248.008 472.304,248.008C472.301,248.008 472.298,248.008 472.296,248.008C429.249,248.008 393.828,283.43 393.828,326.476C393.828,352.319 406.594,376.56 427.904,391.18L368.124,470.128ZM447.972,364.644L436.34,380C418.526,368.035 407.813,347.935 407.813,326.476C407.813,291.106 436.919,262 472.289,262C472.294,262 472.299,262 472.304,262C474.643,262.011 476.98,262.151 479.304,262.42L479.304,271.332C479.239,305.002 468.241,337.758 447.972,364.644Z" style="fill:rgb(40,79,97);fill-rule:nonzero;"/>
        </g>
        <g transform="matrix(1.31546e-17,0.214831,-0.214831,1.31546e-17,210.667,167)">
            <g>
                <g>
                    <path d="M456.502,274.275L449.803,274.275C420.008,274.275 390.927,264.636 367.055,246.999L329.79,284.264L308.566,263.04L343.719,227.887L326.175,213.286L287.408,252.053L266.184,230.829L303.008,194.005L285.463,179.403L245.025,219.841L223.801,198.617L262.297,160.121L228.208,131.749C223.916,128.176 218.476,126.209 212.891,126.209C199.689,126.209 188.949,136.949 188.949,150.151L188.949,163.186C188.949,206.162 153.985,241.126 111.009,241.126C80.844,241.126 53.116,223.46 40.369,196.12L36.7,188.252C33.551,181.498 26.702,177.133 19.25,177.133C8.636,177.133 0,185.769 0,196.386L0,324.716L512,324.716C509.314,296.457 485.453,274.275 456.502,274.275Z" style="fill:rgb(40,79,97);fill-rule:nonzero;"/>
                </g>
            </g>
            <g>
                <g>
                    <path d="M5.787,354.731C14.912,373.117 33.878,385.791 55.758,385.791L456.502,385.791C478.382,385.791 497.349,373.118 506.473,354.731L5.787,354.731Z" style="fill:rgb(40,79,97);fill-rule:nonzero;"/>
                </g>
            </g>
        </g>
        <g transform="matrix(-0.235536,0,0,0.235536,309.82,156.401)">
            <path d="M493.304,256.348L493.304,52C493.302,48.161 490.143,45.002 486.304,45L331.748,45C327.909,45.002 324.75,48.161 324.748,52L324.748,271.356L244.892,376.844C233.81,391.484 227.81,409.351 227.81,427.712C227.81,473.948 265.856,511.994 312.092,511.994C338.469,511.994 363.372,499.611 379.292,478.58L459.14,373.092C481.241,343.773 493.235,308.056 493.308,271.34L493.308,256.348L493.304,256.348ZM338.748,59.008L479.304,59.008L479.304,138.54L338.748,138.54L338.748,59.008ZM368.124,470.128C354.866,487.865 333.976,498.331 311.832,498.331C273.278,498.331 241.552,466.605 241.552,428.051C241.552,412.593 246.652,397.559 256.056,385.292L335.908,279.808C337.745,277.369 338.742,274.398 338.748,271.344L338.748,152.544L479.304,152.544L479.304,248.36C476.968,248.148 474.628,248.008 472.304,248.008C472.301,248.008 472.298,248.008 472.296,248.008C429.249,248.008 393.828,283.43 393.828,326.476C393.828,352.319 406.594,376.56 427.904,391.18L368.124,470.128ZM447.972,364.644L436.34,380C418.526,368.035 407.813,347.935 407.813,326.476C407.813,291.106 436.919,262 472.289,262C472.294,262 472.299,262 472.304,262C474.643,262.011 476.98,262.151 479.304,262.42L479.304,271.332C479.239,305.002 468.241,337.758 447.972,364.644Z" style="fill:rgb(40,79,97);fill-rule:nonzero;"/>
        </g>
        <g transform="matrix(1.31546e-17,0.214831,-0.214831,1.31546e-17,345.485,167)">
            <g>
                <g>
                    <path d="M456.502,274.275L449.803,274.275C420.008,274.275 390.927,264.636 367.055,246.999L329.79,284.264L308.566,263.04L343.719,227.887L326.175,213.286L287.408,252.053L266.184,230.829L303.008,194.005L285.463,179.403L245.025,219.841L223.801,198.617L262.297,160.121L228.208,131.749C223.916,128.176 218.476,126.209 212.891,126.209C199.689,126.209 188.949,136.949 188.949,150.151L188.949,163.186C188.949,206.162 153.985,241.126 111.009,241.126C80.844,241.126 53.116,223.46 40.369,196.12L36.7,188.252C33.551,181.498 26.702,177.133 19.25,177.133C8.636,177.133 0,185.769 0,196.386L0,324.716L512,324.716C509.314,296.457 485.453,274.275 456.502,274.275Z" style="fill:rgb(40,79,97);fill-rule:nonzero;"/>
                </g>
            </g>
            <g>
                <g>
                    <path d="M5.787,354.731C14.912,373.117 33.878,385.791 55.758,385.791L456.502,385.791C478.382,385.791 497.349,373.118 506.473,354.731L5.787,354.731Z" style="fill:rgb(40,79,97);fill-rule:nonzero;"/>
                </g>
            </g>
        </g>
    </g>
</svg>
