<?xml version="1.0" encoding="UTF-8" standalone="no"?>
<!DOCTYPE svg PUBLIC "-//W3C//DTD SVG 1.1//EN" "http://www.w3.org/Graphics/SVG/1.1/DTD/svg11.dtd">
<svg width="100%" height="100%" viewBox="0 0 429 520" version="1.1" xmlns="http://www.w3.org/2000/svg" xmlns:xlink="http://www.w3.org/1999/xlink" xml:space="preserve" xmlns:serif="http://www.serif.com/" style="fill-rule:evenodd;clip-rule:evenodd;stroke-linejoin:round;stroke-miterlimit:2;">
    <g transform="matrix(1,0,0,1,-42.2674,3.74957)">
        <path d="M461.758,231.234C466.149,226.937 467.61,222.914 466.149,219.348C462.844,213.567 456.618,210.086 449.966,210.297C437.165,210.297 401.233,242.202 382.585,270.182C377.214,278.213 371.094,285.712 364.301,292.579C364.055,292.997 363.781,293.392 363.477,293.767C363.02,294.318 362.379,294.681 361.922,295.138L361.738,295.321C358.723,298.157 356.071,300.532 353.602,302.454C352.415,303.368 351.227,304.192 350.129,305.106C349.032,306.02 347.934,306.567 347.02,307.208C344.825,308.762 342.54,310.497 340.255,311.872C331.478,316.793 322.107,320.571 312.369,323.113C302.694,325.547 294.276,331.519 288.78,339.847C285.522,344.831 283.718,350.624 283.569,356.577C283.569,361.628 279.476,365.721 274.429,365.721C269.378,365.721 265.285,361.628 265.285,356.577C265.406,347.156 268.199,337.964 273.331,330.062C281.202,318.008 293.249,309.282 307.158,305.563C311.271,304.372 315.568,303.095 319.685,301.446L319.134,300.899C309.811,289.654 307.525,270.912 312.369,245.128L356.16,57.158C357.321,52.463 356.535,47.502 353.989,43.389C351.446,39.28 347.348,36.366 342.63,35.307C333.47,33.061 324.111,38.178 321.056,47.104L272.601,239.917C271.589,243.995 267.933,246.862 263.73,246.866C262.961,246.862 262.195,246.768 261.445,246.593C256.586,245.335 253.649,240.398 254.863,235.531L303.408,42.256L307.705,23.972C310.104,15.066 305.901,5.699 297.651,1.574C292.71,-0.645 287.03,-0.512 282.198,1.937C277.316,4.387 273.765,8.871 272.507,14.191L226.337,213.586C222.642,229.476 208.869,240.995 192.573,241.823C176.28,242.651 161.41,232.585 156.125,217.152L100.904,56.244C97.978,47.799 89.377,42.702 80.565,44.198C71.753,45.694 65.312,53.342 65.339,62.279C65.323,64.295 65.632,66.302 66.253,68.22L97.428,158.916C97.541,159.303 97.603,159.701 97.611,160.104C98.033,160.627 98.373,161.213 98.619,161.842L131.348,257.471C132.985,262.245 130.45,267.44 125.68,269.084C124.7,269.369 123.684,269.522 122.661,269.541C118.759,269.529 115.298,267.026 114.068,263.323L81.338,167.783C81.26,167.424 81.233,167.057 81.245,166.685C81.065,166.412 80.788,166.139 80.608,165.865C78.76,162.111 75.745,159.065 72.011,157.178C69.526,156.01 66.808,155.416 64.058,155.44C61.577,155.424 59.116,155.92 56.835,156.905C47.906,161.381 43.773,171.853 47.238,181.224L127.692,414.45C131.286,423.856 136.016,432.789 141.77,441.054C144.848,445.617 146.473,451.003 146.434,456.503L146.434,502.857C146.434,507.908 150.527,512.001 155.574,512.001L301.854,512.001C306.904,512.001 310.998,507.908 310.998,502.857L310.998,499.474C310.998,479.909 312.096,459.429 325.259,441.512C329.556,436.039 334.294,430.934 339.431,426.243C367.226,399.728 383.316,365.811 400.229,329.883C416.596,295.321 433.509,259.577 461.758,231.234ZM237.856,475.428L173.858,475.428C168.812,475.428 164.718,471.335 164.718,466.288C164.718,461.237 168.812,457.144 173.858,457.144L237.856,457.144C242.907,457.144 247,461.237 247,466.288C247,471.335 242.907,475.428 237.856,475.428ZM283.569,475.428L274.429,475.428C269.378,475.428 265.285,471.335 265.285,466.288C265.285,461.237 269.378,457.144 274.429,457.144L283.569,457.144C288.62,457.144 292.714,461.237 292.714,466.288C292.714,471.335 288.62,475.428 283.569,475.428Z" style="fill:rgb(40,79,97);fill-rule:nonzero;stroke:rgb(40,79,97);stroke-width:7.5px;"/>
    </g>
</svg>
