<?xml version="1.0" encoding="UTF-8" standalone="no"?>
<!DOCTYPE svg PUBLIC "-//W3C//DTD SVG 1.1//EN" "http://www.w3.org/Graphics/SVG/1.1/DTD/svg11.dtd">
<svg width="100%" height="100%" viewBox="0 0 524 524" version="1.1" xmlns="http://www.w3.org/2000/svg" xmlns:xlink="http://www.w3.org/1999/xlink" xml:space="preserve" xmlns:serif="http://www.serif.com/" style="fill-rule:evenodd;clip-rule:evenodd;stroke-linejoin:round;stroke-miterlimit:2;">
    <g transform="matrix(1,0,0,1,5.50075,5.49988)">
        <g>
            <path d="M489.788,404.935L468.575,383.722L447.36,404.935L426.148,383.722L447.36,362.508L426.148,341.295L404.935,362.509L383.722,341.295L404.935,320.082L383.722,298.869L298.869,383.722L320.082,404.935L341.296,383.72L469.575,512.001L512,469.575L468.573,426.148L489.788,404.935Z" style="fill:rgb(40,79,97);fill-rule:nonzero;stroke:rgb(40,79,97);stroke-width:11px;"/>
            <path d="M85.853,468.573L107.066,489.788L128.279,468.575L107.066,447.361L128.279,426.148L149.493,447.361L170.706,426.148L149.492,404.935L170.706,383.72L191.919,404.935L213.132,383.722L128.279,298.869L107.066,320.082L128.281,341.295L0,469.575L42.426,512.001L85.853,468.573Z" style="fill:rgb(40,79,97);fill-rule:nonzero;stroke:rgb(40,79,97);stroke-width:11px;"/>
            <g transform="matrix(0.707,-0.707,0.707,0.707,-159.29,233.943)">
                <rect x="187.435" y="279.252" width="30.629" height="59.999" style="fill:rgb(40,79,97);fill-rule:nonzero;stroke:rgb(40,79,97);stroke-width:11px;"/>
            </g>
            <path d="M460.788,8.788L277.21,192.366L319.636,234.792L503.213,51.213C514.93,39.498 514.93,20.504 503.213,8.787C491.496,-2.929 472.503,-2.929 460.788,8.788Z" style="fill:rgb(40,79,97);fill-rule:nonzero;stroke:rgb(40,79,97);stroke-width:11px;"/>
            <path d="M298.867,341.293L341.293,298.867L51.213,8.788C39.498,-2.929 20.504,-2.929 8.787,8.788C-2.93,20.505 -2.93,39.498 8.787,51.214L298.867,341.293Z" style="fill:rgb(40,79,97);fill-rule:nonzero;stroke:rgb(40,79,97);stroke-width:11px;"/>
        </g>
    </g>
</svg>
