<?xml version="1.0" encoding="UTF-8" standalone="no"?>
<!DOCTYPE svg PUBLIC "-//W3C//DTD SVG 1.1//EN" "http://www.w3.org/Graphics/SVG/1.1/DTD/svg11.dtd">
<svg width="100%" height="100%" viewBox="0 0 462 86" version="1.1" xmlns="http://www.w3.org/2000/svg" xmlns:xlink="http://www.w3.org/1999/xlink" xml:space="preserve" xmlns:serif="http://www.serif.com/" style="fill-rule:evenodd;clip-rule:evenodd;stroke-linejoin:round;stroke-miterlimit:2;">
    <g transform="matrix(1,0,0,1,-95.0953,-350.754)">
        <g transform="matrix(0.852597,0,0,0.947329,-17.3255,14.0737)">
            <g transform="matrix(109.065,0,0,109.065,129,430)">
                <path d="M0.129,0.058C0.146,0.061 0.182,0.042 0.208,0.026L0.244,0.004L0.282,-0.019C0.31,-0.039 0.336,-0.062 0.344,-0.071L0.351,-0.078C0.351,-0.107 0.33,-0.082 0.309,-0.074C0.292,-0.068 0.271,-0.06 0.246,-0.049L0.204,-0.031C0.164,-0.015 0.134,-0.007 0.113,-0.007C0.104,-0.007 0.098,-0.01 0.094,-0.017C0.089,-0.027 0.093,-0.053 0.106,-0.096C0.121,-0.147 0.143,-0.216 0.172,-0.303C0.202,-0.39 0.223,-0.457 0.236,-0.502C0.25,-0.546 0.255,-0.576 0.252,-0.592C0.248,-0.607 0.24,-0.62 0.228,-0.631C0.217,-0.642 0.204,-0.643 0.191,-0.633C0.167,-0.623 0.176,-0.55 0.172,-0.534C0.167,-0.515 0.153,-0.471 0.129,-0.403C0.092,-0.292 0.069,-0.22 0.059,-0.186C0.058,-0.183 0.056,-0.174 0.051,-0.159C0.047,-0.145 0.044,-0.135 0.043,-0.129L0.035,-0.1C0.028,-0.073 0.03,-0.066 0.027,-0.042C0.024,-0.019 0.03,-0.008 0.035,0.008C0.04,0.025 0.051,0.036 0.067,0.044C0.086,0.053 0.106,0.058 0.129,0.058Z" style="fill:rgb(40,79,97);fill-rule:nonzero;"/>
            </g>
            <g transform="matrix(109.065,0,0,109.065,162.483,430)">
                <path d="M0.135,0.015C0.187,0.015 0.253,-0.019 0.288,-0.06L0.292,-0.065C0.309,-0.086 0.316,-0.105 0.314,-0.12C0.313,-0.123 0.312,-0.124 0.311,-0.123C0.252,-0.064 0.19,-0.035 0.125,-0.035C0.105,-0.035 0.091,-0.039 0.083,-0.048C0.068,-0.064 0.066,-0.09 0.077,-0.125C0.094,-0.114 0.114,-0.108 0.136,-0.108C0.142,-0.108 0.146,-0.108 0.149,-0.109C0.198,-0.12 0.234,-0.162 0.249,-0.207C0.254,-0.222 0.257,-0.238 0.257,-0.254C0.257,-0.261 0.257,-0.267 0.256,-0.271C0.253,-0.288 0.245,-0.3 0.231,-0.308C0.221,-0.314 0.21,-0.317 0.199,-0.317C0.16,-0.317 0.119,-0.294 0.075,-0.249C0.032,-0.204 0.01,-0.156 0.01,-0.104C0.01,-0.067 0.015,-0.043 0.046,-0.018C0.073,0.004 0.102,0.015 0.135,0.015ZM0.1,-0.167C0.124,-0.215 0.207,-0.28 0.21,-0.264C0.213,-0.258 0.206,-0.245 0.188,-0.224C0.171,-0.203 0.158,-0.19 0.149,-0.184C0.13,-0.166 0.113,-0.16 0.1,-0.167Z" style="fill:rgb(40,79,97);fill-rule:nonzero;"/>
            </g>
            <g transform="matrix(109.065,0,0,109.065,192.367,430)">
                <path d="M0.048,0.012C0.062,0.013 0.07,0.009 0.072,-0.001C0.072,-0.005 0.069,-0.02 0.07,-0.028C0.07,-0.029 0.076,-0.057 0.087,-0.111C0.106,-0.174 0.121,-0.214 0.13,-0.23L0.171,-0.237L0.211,-0.243C0.212,-0.243 0.213,-0.243 0.214,-0.244C0.244,-0.25 0.27,-0.263 0.291,-0.283C0.306,-0.296 0.306,-0.303 0.291,-0.303C0.271,-0.303 0.229,-0.299 0.212,-0.299C0.201,-0.299 0.17,-0.295 0.155,-0.295C0.173,-0.341 0.186,-0.372 0.194,-0.389C0.229,-0.472 0.247,-0.513 0.247,-0.514C0.25,-0.521 0.246,-0.53 0.236,-0.541C0.226,-0.552 0.215,-0.557 0.204,-0.557C0.202,-0.557 0.199,-0.556 0.195,-0.555C0.186,-0.551 0.173,-0.527 0.156,-0.483L0.111,-0.377L0.077,-0.292C0.049,-0.286 0.026,-0.287 0.018,-0.28C0.01,-0.275 0.009,-0.267 0.009,-0.251C0.009,-0.235 0.016,-0.227 0.031,-0.227C0.035,-0.227 0.051,-0.229 0.055,-0.228C0.028,-0.16 0.012,-0.1 0.009,-0.049C0.008,-0.032 0.009,-0.02 0.014,-0.013C0.021,0.002 0.033,0.011 0.048,0.012Z" style="fill:rgb(40,79,97);fill-rule:nonzero;"/>
            </g>
            <g transform="matrix(109.065,0,0,109.065,218.106,430)">
                <path d="M0.194,-0.402C0.219,-0.402 0.251,-0.449 0.268,-0.512C0.27,-0.516 0.303,-0.58 0.303,-0.613C0.303,-0.635 0.291,-0.65 0.268,-0.658C0.265,-0.659 0.261,-0.66 0.256,-0.66C0.24,-0.66 0.233,-0.642 0.224,-0.607C0.219,-0.587 0.207,-0.546 0.192,-0.511C0.182,-0.479 0.177,-0.453 0.177,-0.433C0.177,-0.412 0.183,-0.402 0.194,-0.402Z" style="fill:rgb(40,79,97);fill-rule:nonzero;"/>
            </g>
            <g transform="matrix(109.065,0,0,109.065,241.01,430)">
                <path d="M0.103,0.139C0.129,0.138 0.148,0.126 0.159,0.105C0.178,0.068 0.179,0.014 0.172,-0.057L0.331,-0.18C0.343,-0.189 0.349,-0.199 0.349,-0.209C0.349,-0.214 0.347,-0.215 0.342,-0.214C0.331,-0.211 0.307,-0.2 0.268,-0.182C0.255,-0.176 0.204,-0.15 0.169,-0.13C0.169,-0.131 0.168,-0.139 0.165,-0.154C0.153,-0.236 0.155,-0.278 0.17,-0.279C0.176,-0.247 0.18,-0.23 0.182,-0.229C0.191,-0.224 0.212,-0.222 0.223,-0.229C0.228,-0.232 0.23,-0.242 0.23,-0.257C0.23,-0.292 0.221,-0.315 0.204,-0.326C0.195,-0.333 0.178,-0.336 0.151,-0.333C0.125,-0.331 0.108,-0.322 0.1,-0.307C0.086,-0.284 0.093,-0.248 0.095,-0.222C0.096,-0.212 0.097,-0.194 0.1,-0.168C0.103,-0.142 0.105,-0.118 0.107,-0.095C0.093,-0.084 0.069,-0.069 0.036,-0.048C0.033,-0.047 0.017,-0.036 0.009,-0.031C0.002,-0.027 -0.013,-0.017 -0.02,-0.01C-0.033,0.001 -0.046,0.013 -0.046,0.024C-0.049,0.05 -0.029,0.078 0.014,0.107C0.047,0.129 0.076,0.14 0.103,0.139ZM0.095,0.083C0.09,0.093 0.076,0.093 0.055,0.083C0.034,0.074 0.024,0.063 0.026,0.05C0.027,0.038 0.056,0.015 0.111,-0.02C0.111,0.029 0.106,0.064 0.095,0.083Z" style="fill:rgb(40,79,97);fill-rule:nonzero;"/>
            </g>
            <g transform="matrix(109.065,0,0,109.065,294.888,430)">
                <path d="M0.237,0.035C0.297,0.035 0.349,0.004 0.365,-0.047C0.369,-0.054 0.371,-0.064 0.371,-0.075C0.371,-0.103 0.359,-0.148 0.335,-0.209L0.264,-0.394C0.241,-0.456 0.231,-0.502 0.232,-0.531C0.233,-0.566 0.233,-0.569 0.241,-0.586C0.246,-0.595 0.252,-0.603 0.261,-0.61C0.28,-0.623 0.296,-0.629 0.308,-0.629C0.323,-0.629 0.337,-0.621 0.348,-0.604C0.362,-0.581 0.369,-0.551 0.369,-0.516C0.369,-0.495 0.367,-0.472 0.364,-0.447C0.361,-0.439 0.366,-0.43 0.379,-0.421C0.392,-0.412 0.405,-0.407 0.416,-0.407C0.424,-0.407 0.429,-0.41 0.431,-0.415C0.441,-0.442 0.446,-0.472 0.446,-0.505C0.446,-0.552 0.435,-0.591 0.412,-0.624C0.389,-0.657 0.353,-0.674 0.304,-0.674C0.255,-0.674 0.219,-0.665 0.197,-0.648C0.166,-0.625 0.151,-0.588 0.151,-0.539C0.151,-0.505 0.158,-0.463 0.172,-0.414C0.187,-0.365 0.203,-0.319 0.22,-0.278C0.238,-0.237 0.254,-0.196 0.268,-0.154C0.283,-0.112 0.29,-0.081 0.29,-0.06C0.29,-0.016 0.236,0.002 0.215,-0.017C0.171,-0.032 0.138,-0.079 0.126,-0.116C0.114,-0.155 0.105,-0.195 0.1,-0.198C0.086,-0.208 0.071,-0.202 0.063,-0.202C0.043,-0.202 0.036,-0.192 0.036,-0.167C0.036,-0.132 0.043,-0.105 0.058,-0.084C0.097,-0.005 0.168,0.035 0.237,0.035Z" style="fill:rgb(40,79,97);fill-rule:nonzero;"/>
            </g>
            <g transform="matrix(109.065,0,0,109.065,341.241,430)">
                <path d="M0.135,0.015C0.187,0.015 0.253,-0.019 0.288,-0.06L0.292,-0.065C0.309,-0.086 0.316,-0.105 0.314,-0.12C0.313,-0.123 0.312,-0.124 0.311,-0.123C0.252,-0.064 0.19,-0.035 0.125,-0.035C0.105,-0.035 0.091,-0.039 0.083,-0.048C0.068,-0.064 0.066,-0.09 0.077,-0.125C0.094,-0.114 0.114,-0.108 0.136,-0.108C0.142,-0.108 0.146,-0.108 0.149,-0.109C0.198,-0.12 0.234,-0.162 0.249,-0.207C0.254,-0.222 0.257,-0.238 0.257,-0.254C0.257,-0.261 0.257,-0.267 0.256,-0.271C0.253,-0.288 0.245,-0.3 0.231,-0.308C0.221,-0.314 0.21,-0.317 0.199,-0.317C0.16,-0.317 0.119,-0.294 0.075,-0.249C0.032,-0.204 0.01,-0.156 0.01,-0.104C0.01,-0.067 0.015,-0.043 0.046,-0.018C0.073,0.004 0.102,0.015 0.135,0.015ZM0.1,-0.167C0.124,-0.215 0.207,-0.28 0.21,-0.264C0.213,-0.258 0.206,-0.245 0.188,-0.224C0.171,-0.203 0.158,-0.19 0.149,-0.184C0.13,-0.166 0.113,-0.16 0.1,-0.167Z" style="fill:rgb(40,79,97);fill-rule:nonzero;"/>
            </g>
            <g transform="matrix(109.065,0,0,109.065,371.125,430)">
                <path d="M0.542,-0.318C0.534,-0.318 0.482,-0.314 0.438,-0.312L0.498,-0.479C0.501,-0.487 0.497,-0.495 0.485,-0.502C0.473,-0.51 0.463,-0.513 0.456,-0.512C0.449,-0.511 0.443,-0.506 0.438,-0.499C0.43,-0.486 0.421,-0.455 0.417,-0.447C0.394,-0.405 0.364,-0.358 0.327,-0.306L0.179,-0.298C0.228,-0.431 0.262,-0.514 0.282,-0.548C0.297,-0.574 0.235,-0.607 0.223,-0.583C0.183,-0.499 0.144,-0.403 0.107,-0.294C0.052,-0.291 0.04,-0.298 0.037,-0.259C0.036,-0.236 0.039,-0.229 0.058,-0.229C0.065,-0.229 0.074,-0.229 0.085,-0.23C0.051,-0.128 0.034,-0.063 0.034,-0.036C0.034,0.001 0.049,0.032 0.081,0.032C0.102,0.032 0.14,-0 0.194,-0.063C0.249,-0.126 0.295,-0.188 0.334,-0.247C0.339,-0.247 0.342,-0.247 0.345,-0.248C0.316,-0.155 0.299,-0.092 0.295,-0.033C0.291,0.024 0.309,0.054 0.35,0.054L0.365,0.051C0.382,0.044 0.387,0.038 0.38,0.033C0.36,0.018 0.363,-0.028 0.376,-0.095C0.383,-0.128 0.395,-0.174 0.412,-0.233C0.413,-0.239 0.416,-0.246 0.419,-0.254C0.442,-0.256 0.467,-0.262 0.492,-0.272C0.528,-0.286 0.549,-0.299 0.555,-0.311C0.558,-0.316 0.553,-0.319 0.542,-0.318ZM0.102,-0.051C0.097,-0.055 0.116,-0.116 0.157,-0.235C0.181,-0.236 0.222,-0.239 0.281,-0.243C0.238,-0.186 0.2,-0.138 0.165,-0.1C0.13,-0.062 0.109,-0.046 0.102,-0.051Z" style="fill:rgb(40,79,97);fill-rule:nonzero;"/>
            </g>
            <g transform="matrix(109.065,0,0,109.065,422.058,430)">
                <path d="M0.161,0.022C0.196,0.022 0.233,0.003 0.271,-0.035C0.288,-0.052 0.305,-0.089 0.302,-0.101L0.3,-0.105C0.298,-0.108 0.292,-0.104 0.281,-0.094C0.272,-0.085 0.265,-0.078 0.258,-0.073C0.221,-0.04 0.184,-0.024 0.149,-0.024C0.112,-0.024 0.094,-0.047 0.094,-0.093C0.132,-0.12 0.179,-0.175 0.234,-0.26C0.271,-0.314 0.303,-0.375 0.332,-0.444C0.353,-0.493 0.362,-0.542 0.361,-0.593C0.36,-0.629 0.32,-0.652 0.283,-0.652C0.275,-0.652 0.269,-0.651 0.266,-0.65C0.244,-0.643 0.223,-0.624 0.203,-0.594C0.173,-0.55 0.147,-0.503 0.124,-0.454C0.1,-0.401 0.081,-0.351 0.066,-0.304C0.041,-0.225 0.029,-0.164 0.029,-0.121C0.029,-0.061 0.037,-0.022 0.076,0.001C0.099,0.015 0.128,0.022 0.161,0.022ZM0.097,-0.162C0.108,-0.211 0.124,-0.26 0.145,-0.309C0.171,-0.372 0.201,-0.436 0.235,-0.5C0.27,-0.565 0.293,-0.597 0.304,-0.597C0.308,-0.597 0.31,-0.593 0.31,-0.584C0.31,-0.579 0.31,-0.576 0.309,-0.573C0.306,-0.533 0.286,-0.476 0.27,-0.443L0.25,-0.401L0.233,-0.364C0.216,-0.326 0.192,-0.287 0.163,-0.246C0.143,-0.217 0.121,-0.189 0.097,-0.162Z" style="fill:rgb(40,79,97);fill-rule:nonzero;"/>
            </g>
            <g transform="matrix(109.065,0,0,109.065,452.705,430)">
                <path d="M0.135,0.015C0.187,0.015 0.253,-0.019 0.288,-0.06L0.292,-0.065C0.309,-0.086 0.316,-0.105 0.314,-0.12C0.313,-0.123 0.312,-0.124 0.311,-0.123C0.252,-0.064 0.19,-0.035 0.125,-0.035C0.105,-0.035 0.091,-0.039 0.083,-0.048C0.068,-0.064 0.066,-0.09 0.077,-0.125C0.094,-0.114 0.114,-0.108 0.136,-0.108C0.142,-0.108 0.146,-0.108 0.149,-0.109C0.198,-0.12 0.234,-0.162 0.249,-0.207C0.254,-0.222 0.257,-0.238 0.257,-0.254C0.257,-0.261 0.257,-0.267 0.256,-0.271C0.253,-0.288 0.245,-0.3 0.231,-0.308C0.221,-0.314 0.21,-0.317 0.199,-0.317C0.16,-0.317 0.119,-0.294 0.075,-0.249C0.032,-0.204 0.01,-0.156 0.01,-0.104C0.01,-0.067 0.015,-0.043 0.046,-0.018C0.073,0.004 0.102,0.015 0.135,0.015ZM0.1,-0.167C0.124,-0.215 0.207,-0.28 0.21,-0.264C0.213,-0.258 0.206,-0.245 0.188,-0.224C0.171,-0.203 0.158,-0.19 0.149,-0.184C0.13,-0.166 0.113,-0.16 0.1,-0.167Z" style="fill:rgb(40,79,97);fill-rule:nonzero;"/>
            </g>
            <g transform="matrix(109.065,0,0,109.065,507.129,430)">
                <path d="M0.563,-0.639C0.503,-0.646 0.421,-0.648 0.316,-0.643C0.212,-0.638 0.147,-0.63 0.121,-0.617C0.098,-0.607 0.096,-0.542 0.126,-0.546C0.183,-0.553 0.253,-0.562 0.337,-0.571C0.331,-0.555 0.323,-0.531 0.313,-0.5L0.286,-0.414L0.262,-0.336L0.25,-0.295C0.212,-0.184 0.186,-0.086 0.171,-0L0.171,0.002C0.171,0.014 0.179,0.024 0.196,0.031C0.213,0.038 0.223,0.036 0.226,0.023C0.238,-0.04 0.283,-0.19 0.361,-0.427C0.38,-0.484 0.399,-0.535 0.419,-0.58L0.618,-0.602L0.621,-0.602C0.652,-0.605 0.664,-0.61 0.655,-0.617C0.643,-0.626 0.612,-0.634 0.563,-0.639Z" style="fill:rgb(40,79,97);fill-rule:nonzero;"/>
            </g>
            <g transform="matrix(109.065,0,0,109.065,551.191,430)">
                <path d="M0.346,0.012C0.355,0.012 0.362,0.011 0.366,0.01C0.386,0.005 0.406,-0.008 0.427,-0.031C0.448,-0.054 0.463,-0.076 0.473,-0.097C0.483,-0.118 0.486,-0.128 0.481,-0.128C0.48,-0.128 0.477,-0.126 0.473,-0.122C0.47,-0.121 0.449,-0.098 0.432,-0.082C0.415,-0.066 0.386,-0.047 0.365,-0.042C0.362,-0.041 0.359,-0.041 0.354,-0.041C0.338,-0.041 0.33,-0.053 0.33,-0.077C0.33,-0.094 0.334,-0.122 0.342,-0.159C0.35,-0.197 0.353,-0.223 0.352,-0.236C0.351,-0.25 0.342,-0.266 0.327,-0.283C0.312,-0.3 0.298,-0.309 0.285,-0.309C0.262,-0.309 0.234,-0.292 0.201,-0.259C0.168,-0.226 0.137,-0.186 0.108,-0.139C0.108,-0.167 0.13,-0.239 0.174,-0.354C0.219,-0.47 0.253,-0.55 0.278,-0.593C0.292,-0.619 0.299,-0.639 0.299,-0.652C0.299,-0.668 0.28,-0.684 0.257,-0.684C0.25,-0.684 0.24,-0.675 0.228,-0.656C0.202,-0.616 0.155,-0.506 0.087,-0.327C0.038,-0.196 0.013,-0.103 0.013,-0.046C0.013,-0.022 0.035,-0 0.068,-0C0.073,-0 0.076,-0 0.078,-0.001C0.097,-0.006 0.112,-0.025 0.126,-0.053C0.156,-0.102 0.18,-0.137 0.197,-0.158C0.214,-0.179 0.24,-0.207 0.275,-0.24C0.261,-0.156 0.254,-0.104 0.254,-0.084C0.254,-0.025 0.298,0.012 0.346,0.012Z" style="fill:rgb(40,79,97);fill-rule:nonzero;"/>
            </g>
            <g transform="matrix(109.065,0,0,109.065,597.98,430)">
                <path d="M0.148,-0.361C0.16,-0.361 0.173,-0.372 0.186,-0.393C0.199,-0.414 0.206,-0.432 0.206,-0.445C0.206,-0.459 0.203,-0.469 0.197,-0.475C0.186,-0.486 0.175,-0.492 0.166,-0.492C0.153,-0.492 0.143,-0.482 0.135,-0.463C0.128,-0.444 0.124,-0.427 0.124,-0.412C0.124,-0.395 0.126,-0.382 0.13,-0.375C0.135,-0.366 0.141,-0.361 0.148,-0.361ZM0.126,0.012C0.152,0.01 0.181,-0.008 0.213,-0.042C0.239,-0.069 0.253,-0.088 0.254,-0.099C0.255,-0.103 0.252,-0.103 0.247,-0.1L0.223,-0.085C0.21,-0.076 0.196,-0.067 0.183,-0.06C0.158,-0.045 0.116,-0.029 0.097,-0.044C0.088,-0.049 0.083,-0.06 0.083,-0.077C0.083,-0.122 0.101,-0.183 0.137,-0.258C0.146,-0.275 0.136,-0.286 0.107,-0.293C0.087,-0.301 0.076,-0.296 0.064,-0.265C0.044,-0.215 0.03,-0.172 0.023,-0.135C0.012,-0.083 0.018,-0.045 0.041,-0.02C0.064,0.004 0.093,0.015 0.126,0.012Z" style="fill:rgb(40,79,97);fill-rule:nonzero;"/>
            </g>
            <g transform="matrix(109.065,0,0,109.065,621.756,430)">
                <path d="M0.058,0.01C0.141,0.027 0.193,0.019 0.213,-0.012C0.223,-0.028 0.222,-0.045 0.216,-0.062C0.215,-0.071 0.206,-0.096 0.203,-0.104C0.214,-0.109 0.236,-0.116 0.269,-0.125C0.313,-0.137 0.356,-0.145 0.399,-0.148C0.414,-0.148 0.441,-0.144 0.454,-0.151C0.469,-0.159 0.48,-0.182 0.471,-0.187C0.456,-0.196 0.431,-0.2 0.396,-0.198C0.387,-0.197 0.352,-0.192 0.293,-0.182C0.255,-0.175 0.22,-0.167 0.189,-0.158C0.184,-0.171 0.179,-0.188 0.174,-0.211C0.173,-0.213 0.172,-0.221 0.172,-0.236C0.172,-0.251 0.175,-0.259 0.18,-0.26C0.189,-0.244 0.203,-0.208 0.213,-0.212C0.225,-0.212 0.246,-0.223 0.249,-0.234C0.252,-0.247 0.244,-0.269 0.226,-0.299C0.207,-0.332 0.193,-0.347 0.165,-0.347C0.141,-0.347 0.125,-0.328 0.118,-0.289C0.114,-0.266 0.118,-0.216 0.131,-0.141L0.042,-0.104L0.014,-0.093L0,-0.086C-0.017,-0.077 -0.027,-0.07 -0.032,-0.058C-0.039,-0.037 -0.027,-0.019 -0.002,-0.008C0.023,0.003 0.034,0.005 0.058,0.01ZM0.11,-0.03C0.083,-0.03 0.069,-0.035 0.069,-0.046C0.069,-0.053 0.113,-0.075 0.153,-0.09C0.175,-0.033 0.127,-0.031 0.11,-0.03Z" style="fill:rgb(40,79,97);fill-rule:nonzero;"/>
            </g>
            <g transform="matrix(109.065,0,0,109.065,649.023,430)">
                <path d="M0.129,0.01C0.142,0.01 0.156,0.002 0.171,-0.013C0.186,-0.028 0.194,-0.044 0.194,-0.059C0.194,-0.084 0.182,-0.097 0.159,-0.097C0.124,-0.097 0.096,-0.062 0.096,-0.034C0.096,-0.009 0.109,0.01 0.129,0.01Z" style="fill:rgb(40,79,97);fill-rule:nonzero;"/>
            </g>
        </g>
    </g>
</svg>
