<?xml version="1.0" encoding="UTF-8" standalone="no"?>
<!DOCTYPE svg PUBLIC "-//W3C//DTD SVG 1.1//EN" "http://www.w3.org/Graphics/SVG/1.1/DTD/svg11.dtd">
<svg width="100%" height="100%" viewBox="0 0 485 608" version="1.1" xmlns="http://www.w3.org/2000/svg" xmlns:xlink="http://www.w3.org/1999/xlink" xml:space="preserve" xmlns:serif="http://www.serif.com/" style="fill-rule:evenodd;clip-rule:evenodd;stroke-linejoin:round;stroke-miterlimit:2;">
    <g id="Artboard1" transform="matrix(1,0,0,1,-0.5002,0)">
        <rect x="0.5" y="0" width="484.324" height="608" style="fill:none;"/>
        <clipPath id="_clip1">
            <rect x="0.5" y="0" width="484.324" height="608"/>
        </clipPath>
        <g clip-path="url(#_clip1)">
            <g transform="matrix(1,0,0,1,-12.8376,-13.8637)">
                <path d="M291.231,257.75L291.231,333.367L347.364,333.367C323.508,317.917 303.741,291.183 291.231,257.75Z" style="fill:rgb(40,79,97);fill-rule:nonzero;stroke:rgb(40,79,97);stroke-width:1px;"/>
                <path d="M394.683,14.364C337.643,14.364 291.224,85.905 291.224,173.845C291.224,261.784 337.643,333.395 394.683,333.395C451.722,333.395 498.162,261.784 498.162,173.845C498.162,85.905 451.722,14.364 394.683,14.364ZM394.683,251.973C364.24,251.973 340.355,217.635 340.355,173.845C340.355,130.055 364.226,95.786 394.683,95.786C425.14,95.786 449.038,130.076 449.038,173.845C449.038,217.614 425.147,251.973 394.683,251.973Z" style="fill:rgb(40,79,97);fill-rule:nonzero;stroke:rgb(40,79,97);stroke-width:1px;"/>
                <g transform="matrix(1,0,0,1,13.3378,13.8637)">
                    <rect x="184" y="242.5" width="206" height="77.003" style="fill:rgb(40,79,97);"/>
                </g>
                <g transform="matrix(1,0,0,1,13.3378,13.8637)">
                    <rect x="223" y="0.5" width="91" height="280.501" style="fill:rgb(40,79,97);"/>
                </g>
                <g transform="matrix(1,0,0,1,13.3378,13.8637)">
                    <rect x="189" y="0.5" width="192.355" height="77.5" style="fill:rgb(40,79,97);"/>
                </g>
                <g transform="matrix(1,0,0,1,13.3378,13.8637)">
                    <path d="M0.5,200.551C0.5,232.099 13.033,262.355 35.341,284.663C57.648,306.971 87.904,319.503 119.453,319.503L263.253,319.503L263.253,160.002C263.253,88.792 292.402,27.456 334.026,0.5L99.392,0.5C42.172,11.867 0.558,62.509 0.5,120.847L0.5,200.551Z" style="fill:rgb(40,79,97);fill-rule:nonzero;stroke:rgb(40,79,97);stroke-width:1px;"/>
                </g>
                <g transform="matrix(0.998087,0,0,1.59853,-8.69247,-153.421)">
                    <path d="M414,319.531L115.416,319.531C102.675,319.958 89.886,312.89 77,308.92L77,485L414,485L414,319.531Z" style="fill:rgb(40,79,97);"/>
                </g>
                <g transform="matrix(1,0,0,1,11.193,10.8655)">
                    <ellipse cx="383.5" cy="163" rx="69.5" ry="102" style="fill:none;stroke:white;stroke-width:7.5px;stroke-linecap:round;stroke-miterlimit:1.5;"/>
                </g>
            </g>
        </g>
    </g>
</svg>
