<?xml version="1.0" encoding="UTF-8" standalone="no"?>
<!DOCTYPE svg PUBLIC "-//W3C//DTD SVG 1.1//EN" "http://www.w3.org/Graphics/SVG/1.1/DTD/svg11.dtd">
<svg width="100%" height="100%" viewBox="0 0 486 485" version="1.1" xmlns="http://www.w3.org/2000/svg" xmlns:xlink="http://www.w3.org/1999/xlink" xml:space="preserve" xmlns:serif="http://www.serif.com/" style="fill-rule:evenodd;clip-rule:evenodd;stroke-linejoin:round;stroke-miterlimit:2;">
    <g transform="matrix(1,0,0,1,-13.3378,-13.8637)">
        <path d="M291.231,257.75L291.231,333.367L347.364,333.367C323.508,317.917 303.741,291.183 291.231,257.75Z" style="fill:rgb(40,79,97);fill-rule:nonzero;stroke:rgb(40,79,97);stroke-width:1px;"/>
        <path d="M394.683,14.364C337.643,14.364 291.224,85.905 291.224,173.845C291.224,261.784 337.643,333.395 394.683,333.395C451.722,333.395 498.162,261.784 498.162,173.845C498.162,85.905 451.722,14.364 394.683,14.364ZM394.683,251.973C364.24,251.973 340.355,217.635 340.355,173.845C340.355,130.055 364.226,95.786 394.683,95.786C425.14,95.786 449.038,130.076 449.038,173.845C449.038,217.614 425.147,251.973 394.683,251.973Z" style="fill:rgb(40,79,97);fill-rule:nonzero;stroke:rgb(40,79,97);stroke-width:1px;"/>
        <path d="M347.364,14.364L112.73,14.364C55.51,25.731 13.896,76.373 13.838,134.711L13.838,497.636L276.591,497.636L276.591,173.866C276.591,102.656 305.74,41.32 347.364,14.364Z" style="fill:rgb(40,79,97);fill-rule:nonzero;stroke:rgb(40,79,97);stroke-width:1px;"/>
    </g>
</svg>
