<?xml version="1.0" encoding="UTF-8" standalone="no"?>
<!DOCTYPE svg PUBLIC "-//W3C//DTD SVG 1.1//EN" "http://www.w3.org/Graphics/SVG/1.1/DTD/svg11.dtd">
<svg width="100%" height="100%" viewBox="0 0 338 512" version="1.1" xmlns="http://www.w3.org/2000/svg" xmlns:xlink="http://www.w3.org/1999/xlink" xml:space="preserve" xmlns:serif="http://www.serif.com/" style="fill-rule:evenodd;clip-rule:evenodd;stroke-linejoin:round;stroke-miterlimit:2;">
    <g transform="matrix(1,0,0,1,-87.3526,-0.551957)">
        <path d="M409.62,477.912C412.907,476.833 415.144,473.744 415.144,470.285C415.144,469.364 414.986,468.451 414.676,467.584C385.876,385.74 371.452,312.524 344.7,264.144C337.312,250.788 325.256,232.124 324.156,213.636C322.956,193.808 333.204,174.18 338.592,161.532C346.952,141.884 352.284,120.488 342.696,83.76C339.096,69.98 337.412,33.688 336.828,17.76C336.661,13.49 333.101,10.069 328.828,10.072L321.096,10.072C317.146,10.059 313.755,12.993 313.2,16.904C305.316,75.036 264.644,111.252 256,115.292C247.356,111.252 206.684,75.036 198.8,16.892C198.247,12.977 194.854,10.039 190.9,10.052L183.168,10.052C178.895,10.049 175.335,13.47 175.168,17.74C174.584,33.676 172.896,69.968 169.3,83.74C159.7,120.468 165.04,141.864 173.404,161.512C178.788,174.16 189.004,193.788 187.84,213.616C186.74,232.104 174.68,250.768 167.296,264.124C140.544,312.524 126.136,385.724 97.32,467.56C97.011,468.426 96.853,469.339 96.853,470.259C96.853,473.721 99.091,476.81 102.38,477.888C202.182,510.484 309.813,510.493 409.62,477.912Z" style="fill:none;fill-rule:nonzero;stroke:rgb(40,79,97);stroke-width:19px;"/>
        <g transform="matrix(1.08,0,0,1.91667,-21.56,-247.833)">
            <rect x="157" y="278" width="200" height="24" style="fill:rgb(40,79,97);"/>
        </g>
        <g transform="matrix(1.395,0,0,2.08333,-102.517,-193.167)">
            <rect x="157" y="278" width="200" height="24" style="fill:rgb(40,79,97);"/>
        </g>
    </g>
</svg>
