<?xml version="1.0" encoding="UTF-8" standalone="no"?>
<!DOCTYPE svg PUBLIC "-//W3C//DTD SVG 1.1//EN" "http://www.w3.org/Graphics/SVG/1.1/DTD/svg11.dtd">
<svg width="100%" height="100%" viewBox="0 0 512 512" version="1.1" xmlns="http://www.w3.org/2000/svg" xmlns:xlink="http://www.w3.org/1999/xlink" xml:space="preserve" xmlns:serif="http://www.serif.com/" style="fill-rule:evenodd;clip-rule:evenodd;stroke-linejoin:round;stroke-miterlimit:2;">
    <g transform="matrix(1,0,0,1,0,-0.036)">
        <g>
            <g>
                <path d="M342.656,15.42C288.704,-5.092 223.264,-5.092 169.344,15.42C163.2,17.756 159.072,23.676 159.04,30.268C159.008,36.86 163.04,42.844 169.184,45.276C196.16,55.868 222.304,69.916 246.848,87.004C249.6,88.924 252.8,89.884 256,89.884C259.2,89.884 262.4,88.924 265.152,87.004C289.728,69.884 315.872,55.836 342.816,45.244C348.96,42.844 352.992,36.892 352.96,30.268C352.928,23.644 348.832,17.756 342.656,15.42Z" style="fill:rgb(40,79,97);fill-rule:nonzero;"/>
            </g>
        </g>
        <g>
            <g>
                <path d="M62.343,422.783C62.341,422.792 62.338,422.802 62.336,422.812C62.34,422.805 62.345,422.797 62.349,422.79C62.347,422.788 62.345,422.785 62.343,422.783Z" style="fill:rgb(40,79,97);fill-rule:nonzero;"/>
            </g>
        </g>
        <g>
            <g>
                <path d="M214.112,103.292C186.816,81.596 157.856,61.884 128,44.668C122.656,41.596 116.032,41.884 110.912,45.34C41.472,93.212 0,171.932 0,255.964C0,317.359 22.071,376.547 62.343,422.783C80.308,346.738 158.535,181.333 215.136,127.388C218.496,124.188 220.288,119.708 220.096,115.1C219.904,110.492 217.728,106.172 214.112,103.292Z" style="fill:rgb(40,79,97);fill-rule:nonzero;"/>
            </g>
        </g>
        <g>
            <g>
                <path d="M401.056,45.34C395.968,41.852 389.408,41.564 384,44.668C354.144,61.884 325.152,81.596 297.888,103.292C294.272,106.172 292.064,110.46 291.872,115.1C291.648,119.74 293.472,124.22 296.8,127.388C353.376,181.308 431.84,346.556 449.792,422.62C410.752,356.636 323.808,201.34 266.88,148.252C260.768,142.524 251.2,142.524 245.056,148.252C188.07,201.366 101.395,356.761 62.349,422.79C62.355,422.797 62.362,422.805 62.368,422.812C110.528,479.452 181.088,511.964 256,511.964C330.912,511.964 401.472,479.452 449.824,422.62C489.92,376.604 512,317.404 512,255.964C512,171.932 470.528,93.212 401.056,45.34Z" style="fill:rgb(40,79,97);fill-rule:nonzero;"/>
            </g>
        </g>
    </g>
</svg>
