<?xml version="1.0" encoding="utf-8"?>
<!-- Generator: Adobe Illustrator 19.2.1, SVG Export Plug-In . SVG Version: 6.00 Build 0)  -->
<svg version="1.1" id="Layer_1" xmlns="http://www.w3.org/2000/svg" xmlns:xlink="http://www.w3.org/1999/xlink" x="0px" y="0px"
	 viewBox="0 0 1792 1792" style="enable-background:new 0 0 1792 1792;" xml:space="preserve">
<style type="text/css">
	.st0{fill:#2ECC71;}
</style>
<path class="st0" d="M1671,566c0,26.7-9.3,49.3-28,68l-724,724l-136,136c-18.7,18.7-41.3,28-68,28s-49.3-9.3-68-28l-136-136L149,996
	c-18.7-18.7-28-41.3-28-68s9.3-49.3,28-68l136-136c18.7-18.7,41.3-28,68-28s49.3,9.3,68,28l294,295l656-657c18.7-18.7,41.3-28,68-28
	s49.3,9.3,68,28l136,136C1661.7,516.7,1671,539.3,1671,566z"/>
</svg>
