<?xml version="1.0" encoding="UTF-8" standalone="no"?>
<!DOCTYPE svg PUBLIC "-//W3C//DTD SVG 1.1//EN" "http://www.w3.org/Graphics/SVG/1.1/DTD/svg11.dtd">
<svg width="100%" height="100%" viewBox="0 0 54 68" version="1.1" xmlns="http://www.w3.org/2000/svg" xmlns:xlink="http://www.w3.org/1999/xlink" xml:space="preserve" xmlns:serif="http://www.serif.com/" style="fill-rule:evenodd;clip-rule:evenodd;stroke-linejoin:round;stroke-miterlimit:2;">
    <g transform="matrix(6.12323e-17,1,-0.999996,6.12323e-17,1111,-63)">
        <g>
            <g>
                <path d="M92.725,1063.79C93.65,1062.32 95.264,1061.43 97,1061.43C98.736,1061.43 100.35,1062.32 101.275,1063.79C107.611,1073.85 119.459,1092.67 126.124,1103.26C127.104,1104.81 127.161,1106.78 126.272,1108.39C125.383,1110 123.689,1111 121.849,1111L72.151,1111C70.311,1111 68.617,1110 67.728,1108.39C66.839,1106.78 66.896,1104.81 67.876,1103.26C74.541,1092.67 86.389,1073.85 92.725,1063.79Z" style="fill:white;"/>
            </g>
        </g>
    </g>
</svg>
