<?xml version="1.0" encoding="UTF-8" standalone="no"?>
<!DOCTYPE svg PUBLIC "-//W3C//DTD SVG 1.1//EN" "http://www.w3.org/Graphics/SVG/1.1/DTD/svg11.dtd">
<svg width="100%" height="100%" viewBox="0 0 42 44" version="1.1" xmlns="http://www.w3.org/2000/svg" xmlns:xlink="http://www.w3.org/1999/xlink" xml:space="preserve" xmlns:serif="http://www.serif.com/" style="fill-rule:evenodd;clip-rule:evenodd;stroke-linejoin:round;stroke-miterlimit:2;">
    <g transform="matrix(1,0,0,1,-2.5,-3.5197)">
        <path d="M42.15,4.05C42.15,4.05 19,8.82 17.37,9.18C16.39,9.39 16,10.04 16,11L16,32C16,34.21 14.97,36 11,36C5.34,36 3,37.46 3,41C3,43.38 3.49,47 10.94,47C17.85,47 18,41.68 18,39L18,20.301C18,19.831 18.321,19.426 18.78,19.325C23.982,18.187 35.145,15.757 40.788,14.521C41.412,14.384 42,14.859 42,15.498L42,27C42,29.21 40.97,31 37,31C31.34,31 29,32.46 29,36C29,38.38 29.49,42 36.94,42C43.85,42 44,36.68 44,34L44,6C44,3.62 42.15,4.05 42.15,4.05Z" style="fill-rule:nonzero;stroke:black;stroke-width:1px;"/>
    </g>
</svg>
