<?xml version="1.0" encoding="UTF-8" standalone="no"?>
<!DOCTYPE svg PUBLIC "-//W3C//DTD SVG 1.1//EN" "http://www.w3.org/Graphics/SVG/1.1/DTD/svg11.dtd">
<svg width="100%" height="100%" viewBox="0 0 170 498" version="1.1" xmlns="http://www.w3.org/2000/svg" xmlns:xlink="http://www.w3.org/1999/xlink" xml:space="preserve" xmlns:serif="http://www.serif.com/" style="fill-rule:evenodd;clip-rule:evenodd;stroke-linecap:round;stroke-linejoin:round;stroke-miterlimit:1.5;">
    <g transform="matrix(1,0,0,1,-171.261,-7.12911)">
        <g>
            <g>
                <path d="M256,504.871C233.381,504.871 212.091,496.057 196.083,480.049C180.075,464.041 171.261,442.783 171.261,420.132C171.261,392.782 184.288,367.441 206.323,351.498L206.323,56.806C206.323,29.424 228.618,7.129 256,7.129C283.382,7.129 305.677,29.424 305.677,56.806L305.677,351.53C327.842,367.571 340.869,393.073 340.739,420.618C340.61,443.236 331.763,464.429 315.82,480.275C299.844,496.122 278.619,504.871 256,504.871ZM256,22.684C237.205,22.684 221.877,37.979 221.877,56.806L221.877,355.613C221.877,358.238 220.549,360.701 218.345,362.127C198.611,374.959 186.815,396.638 186.815,420.164C186.815,458.305 217.859,489.316 255.968,489.316C293.914,489.316 324.926,458.467 325.12,420.521C325.25,396.865 313.454,375.024 293.622,362.127C291.419,360.701 290.09,358.238 290.09,355.613L290.09,56.806C290.123,37.979 274.827,22.684 256,22.684Z" style="fill-rule:nonzero;"/>
            </g>
            <g transform="matrix(0.64,0,0,0.64,92.1602,150.28)">
                <circle cx="256" cy="423" r="75"/>
            </g>
            <g transform="matrix(1,0,0,1,1.00048,-4.86282)">
                <path d="M217,316L293,315.126" style="fill:none;stroke:black;stroke-width:20px;"/>
            </g>
            <g transform="matrix(1,0,0,1,1.00048,-109.495)">
                <path d="M217,316L293,315.126" style="fill:none;stroke:black;stroke-width:20px;"/>
            </g>
            <g transform="matrix(1,0,0,1,1.00048,-214.126)">
                <path d="M217,316L293,315.126" style="fill:none;stroke:black;stroke-width:20px;"/>
            </g>
        </g>
    </g>
</svg>
