<?xml version="1.0" encoding="UTF-8" standalone="no"?>
<!DOCTYPE svg PUBLIC "-//W3C//DTD SVG 1.1//EN" "http://www.w3.org/Graphics/SVG/1.1/DTD/svg11.dtd">
<svg width="100%" height="100%" viewBox="0 0 494 283" version="1.1" xmlns="http://www.w3.org/2000/svg" xmlns:xlink="http://www.w3.org/1999/xlink" xml:space="preserve" xmlns:serif="http://www.serif.com/" style="fill-rule:evenodd;clip-rule:evenodd;stroke-linejoin:round;stroke-miterlimit:2;">
    <g transform="matrix(1,0,0,1,-1255.67,-73.775)">
        <g transform="matrix(1,0,0,1,1007,0)">
            <g transform="matrix(0.916559,0,0,1,19.5166,-79.8648)">
                <g transform="matrix(1,0,0,1,672.138,353.632)">
                    <path d="M0,1.037C-0.713,0.667 -1.438,0.321 -2.175,0C-1.438,0.321 -0.712,0.667 0,1.037" style="fill:rgb(71,155,232);fill-rule:nonzero;"/>
                </g>
                <g transform="matrix(1.09104,0,0,1,-1119.97,79.8648)">
                    <path d="M1353.26,257.348L1353.21,257.348L1353.16,257.349L1353.14,257.349C1352.48,257.362 1351.83,257.527 1351.23,257.847C1350.87,258.036 1350.54,258.279 1350.24,258.575L1350.2,258.609C1350.16,258.656 1350.11,258.705 1350.07,258.754L1336.85,273.179C1335.26,274.908 1335.38,277.599 1337.11,279.184C1338.84,280.768 1341.53,280.651 1343.11,278.922L1353.23,267.887L1362.7,278.228C1364.29,279.957 1366.98,280.074 1368.71,278.49C1370.44,276.905 1370.56,274.214 1368.97,272.485L1356.39,258.754C1356.34,258.705 1356.3,258.656 1356.25,258.609L1356.21,258.575C1355.92,258.279 1355.58,258.036 1355.23,257.847C1354.63,257.527 1353.97,257.362 1353.31,257.349L1353.3,257.349L1353.26,257.348Z" style="fill:rgb(71,155,232);stroke:black;stroke-width:0.45px;"/>
                </g>
                <g>
                    <g>
                        <g transform="matrix(1,0,0,1,282.375,419.706)">
                            <path d="M0,-69.072C0,-69.072 5.725,-2.168 6.434,6.117C6.434,6.117 6.574,10.52 10.201,10.21C13.828,9.899 35.288,7.831 39.249,7.492C43.959,7.089 47.161,5.489 46.12,2.392C45.484,0.5 42.212,0.055 38.91,0.337C35.987,0.587 15.977,2.518 15.977,2.518C15.977,2.518 14.566,2.911 14.42,1.206C14.274,-0.499 12.325,-27.323 12.093,-30.029C12.093,-30.029 11.618,-32.497 13.512,-32.659C15.407,-32.821 30.554,-34.227 34.397,-34.555C38.241,-34.884 39.061,-41.225 35.813,-40.947C32.566,-40.669 13.512,-39.039 12.104,-38.918C10.697,-38.798 10.745,-39.511 10.629,-40.864C10.513,-42.217 7.946,-64.572 7.682,-67.657C7.682,-67.657 7.398,-69.705 8.949,-70.056C10.5,-70.407 34.425,-73.742 37.703,-74.306C40.981,-74.869 40.74,-79.592 37.474,-79.531C34.207,-79.469 10.895,-77.2 6.967,-76.648C2.011,-75.951 -0.457,-74.377 0,-69.072" style="fill:rgb(71,155,232);fill-rule:nonzero;stroke:black;stroke-width:0.42px;"/>
                        </g>
                        <g transform="matrix(1,0,0,1,399.384,419.749)">
                            <path d="M0,-69.157C0,-69.157 5.604,-2.243 6.298,6.044C6.298,6.044 6.431,10.447 10.058,10.143C13.686,9.839 35.15,7.809 39.111,7.477C43.822,7.083 47.026,5.489 45.991,2.39C45.359,0.497 42.087,0.046 38.785,0.322C35.861,0.567 15.848,2.461 15.848,2.461C15.848,2.461 14.436,2.852 14.293,1.147C14.15,-0.558 12.249,-27.386 12.023,-30.092C12.023,-30.092 11.552,-32.561 13.447,-32.72C15.342,-32.879 30.491,-34.257 34.335,-34.578C38.179,-34.9 39.011,-41.24 35.763,-40.968C32.514,-40.696 13.458,-39.1 12.05,-38.982C10.642,-38.864 10.692,-39.577 10.578,-40.93C10.465,-42.284 7.938,-64.643 7.68,-67.728C7.68,-67.728 7.399,-69.777 8.951,-70.125C10.503,-70.473 34.433,-73.765 37.712,-74.323C40.991,-74.88 40.759,-79.604 37.493,-79.548C34.226,-79.493 10.909,-77.265 6.981,-76.72C2.023,-76.032 -0.447,-74.462 0,-69.157" style="fill:rgb(71,155,232);fill-rule:nonzero;stroke:black;stroke-width:0.42px;"/>
                        </g>
                        <g transform="matrix(1,0,0,1,355.975,433.18)">
                            <path d="M0,-91.703C0,-91.703 -3.483,-92.282 -3.823,-86.264C-4.163,-80.245 -4.663,-47.03 -5.089,-39.488C-5.515,-31.946 -5.94,-10.878 -6.185,-6.535C-6.431,-2.193 -5.374,-0.605 -3.089,-0.476C-0.803,-0.347 19.663,-0.077 24.157,0.177C24.157,0.177 28.799,0.579 29.015,-3.243C29.231,-7.065 24.659,-7.592 20.875,-7.806C17.091,-8.019 5.663,-8.665 3.867,-8.766C2.07,-8.868 2.347,-9.696 2.459,-11.683C2.571,-13.671 4.109,-74.167 4.014,-81.305C3.918,-88.442 3.555,-91.502 0,-91.703" style="fill:rgb(71,155,232);fill-rule:nonzero;stroke:black;stroke-width:0.42px;"/>
                        </g>
                        <g transform="matrix(1,0,0,1,457.196,429.839)">
                            <path d="M0,-91.225C0,-91.225 -3.268,-91.186 -2.705,-84.837C-2.143,-78.489 10.276,-14.125 11.647,-7.699C13.018,-1.274 15.257,0.921 18.425,-2.975C21.593,-6.871 46.775,-71.556 49.119,-78.163C51.189,-83.997 49.408,-86.104 47.444,-86.291C45.479,-86.478 43.255,-85.289 40.423,-76.824C37.943,-69.411 22.143,-30.488 18.254,-20.93C17.999,-20.302 17.085,-20.385 16.955,-21.05C15.183,-30.186 8.481,-64.838 5.87,-79.912C5.87,-79.912 4.189,-92.146 0,-91.225" style="fill:rgb(71,155,232);fill-rule:nonzero;stroke:black;stroke-width:0.42px;"/>
                        </g>
                        <g transform="matrix(1,0,0,1,542.682,393.574)">
                            <path d="M0,-4.095C-2.142,-3.846 -8.669,-4.095 -11.309,-4.394C-13.95,-4.693 -14.996,-5.639 -14.099,-8.38C-13.389,-10.549 -8.838,-21.807 -6.973,-26.402C-6.703,-27.066 -5.755,-27.032 -5.533,-26.35C-3.019,-18.61 0.352,-9.153 0.947,-6.636C1.594,-3.896 0,-4.095 0,-4.095M19.62,28.262C18.484,23.37 14.117,10.443 13.156,6.425C13.156,6.425 12.456,3.707 13.156,0.863C13.767,-1.617 13.084,-3.376 10.908,-3.995C10.199,-4.197 9.661,-4.769 9.427,-5.469C7.651,-10.783 0.881,-31.089 -0.41,-35.655C-1.898,-40.92 -1.245,-46.857 -5.361,-46.856C-5.361,-46.856 -7.632,-47.031 -9.204,-43.013C-10.777,-38.995 -23.783,-1.007 -37.243,27.214C-37.243,27.214 -38.291,29.31 -38.291,32.105L-38.291,38.569C-38.291,41.626 -35.321,42.936 -32.526,37.346C-29.731,31.756 -19.773,8.609 -18.288,4.416C-18.288,4.416 -17.502,1.534 -14.795,2.233C-12.087,2.931 -4.924,4.329 -0.819,4.329C3.286,4.329 3.373,4.504 4.159,6.6C4.946,8.696 10.623,29.31 12.457,34.638C14.292,39.966 16.126,41.539 18.746,40.447C21.367,39.355 20.755,33.153 19.62,28.262" style="fill:rgb(71,155,232);fill-rule:nonzero;stroke:black;stroke-width:0.42px;"/>
                        </g>
                        <g transform="matrix(1,0,0,1,586.095,418.764)">
                            <path d="M0,-68.469C0.535,-68.509 1.005,-68.126 1.072,-67.594C1.789,-61.888 5.534,-31.966 6.53,-21.566C7.634,-10.049 8.936,3.543 9.304,7.382C9.304,7.382 9.444,11.074 13.176,10.541C16.907,10.009 16.658,7.406 16.502,5.775C16.502,5.775 10.252,-52.134 9.397,-67.889C9.367,-68.45 9.783,-68.926 10.342,-68.974C14.571,-69.334 30.973,-70.813 33.692,-72.264C36.818,-73.932 36.455,-79.429 31.904,-79.486C27.353,-79.543 -0.495,-76.382 -8.635,-75.602C-16.776,-74.822 -23.547,-74.612 -23.4,-70.792C-23.253,-66.972 -18.159,-66.967 -14.686,-67.3C-11.803,-67.576 -2.933,-68.248 0,-68.469" style="fill:rgb(71,155,232);fill-rule:nonzero;stroke:black;stroke-width:0.42px;"/>
                        </g>
                        <g transform="matrix(1,0,0,1,722.787,399.78)">
                            <path d="M0,-19.821C-3.689,-20.047 -5.509,-20.323 -5.267,-23.677C-5.025,-27.032 -2.141,-46.94 -2.141,-46.94C-1.786,-49.415 1.327,-49.207 1.327,-49.207C26.743,-48.881 29.951,-38.022 24.333,-29.462C18.714,-20.902 3.689,-19.595 0,-19.821M29.315,26.534C27.982,22.006 20.039,2.829 18.245,-5.483C17.169,-10.471 17.042,-13.914 19.899,-16.019C22.756,-18.124 31.151,-23.659 33.391,-28.165C35.631,-32.671 37.406,-39.439 28.958,-47.641C20.51,-55.842 7.352,-57.317 0.355,-56.819C-6.756,-56.314 -7.626,-55.545 -8.35,-52.859C-8.35,-52.859 -18.108,10.715 -18.111,25.685C-18.111,25.685 -18.141,29.093 -15.266,29.528C-12.39,29.964 -10.978,27.121 -10.09,21.257C-9.201,15.392 -5.349,-10.038 -5.349,-10.038C-5.349,-10.038 -5.518,-11.968 -3.319,-11.634C-1.12,-11.301 3.13,-11.177 5.348,-12.11C7.566,-13.042 7.492,-11.035 7.995,-9.401C8.497,-7.768 16.45,22.739 23.543,33.793C23.543,33.793 25.52,37.496 28.776,35.797C32.033,34.099 30.647,31.062 29.315,26.534" style="fill:rgb(71,155,232);fill-rule:nonzero;stroke:black;stroke-width:0.42px;"/>
                        </g>
                    </g>
                    <g>
                        <g transform="matrix(1,0,0,1,278.188,414.893)">
                            <path d="M0,-69.072C0,-69.072 5.725,-2.168 6.434,6.117C6.434,6.117 6.574,10.52 10.201,10.21C13.828,9.899 35.288,7.831 39.249,7.492C43.959,7.089 47.161,5.489 46.12,2.392C45.484,0.5 42.212,0.055 38.91,0.337C35.987,0.587 15.977,2.518 15.977,2.518C15.977,2.518 14.566,2.911 14.42,1.206C14.274,-0.499 12.325,-27.323 12.093,-30.029C12.093,-30.029 11.618,-32.497 13.512,-32.659C15.407,-32.821 30.554,-34.227 34.397,-34.555C38.241,-34.884 39.061,-41.225 35.814,-40.947C32.566,-40.669 13.512,-39.039 12.104,-38.918C10.697,-38.798 10.745,-39.511 10.629,-40.864C10.513,-42.217 7.946,-64.572 7.682,-67.657C7.682,-67.657 7.398,-69.705 8.949,-70.056C10.5,-70.407 34.425,-73.742 37.703,-74.306C40.981,-74.869 40.74,-79.592 37.474,-79.531C34.207,-79.469 10.895,-77.2 6.967,-76.648C2.011,-75.951 -0.457,-74.377 0,-69.072" style="fill:white;fill-rule:nonzero;stroke:black;stroke-width:0.47px;"/>
                        </g>
                        <g transform="matrix(1,0,0,1,395.197,414.936)">
                            <path d="M0,-69.157C0,-69.157 5.604,-2.243 6.298,6.044C6.298,6.044 6.431,10.447 10.058,10.143C13.686,9.839 35.15,7.809 39.111,7.477C43.822,7.083 47.026,5.489 45.991,2.39C45.359,0.497 42.087,0.046 38.785,0.322C35.861,0.567 15.848,2.461 15.848,2.461C15.848,2.461 14.436,2.852 14.293,1.147C14.15,-0.558 12.249,-27.386 12.023,-30.092C12.023,-30.092 11.552,-32.561 13.447,-32.72C15.342,-32.879 30.491,-34.257 34.335,-34.578C38.179,-34.9 39.011,-41.24 35.763,-40.968C32.514,-40.696 13.458,-39.1 12.05,-38.982C10.642,-38.864 10.692,-39.577 10.578,-40.93C10.465,-42.284 7.938,-64.643 7.68,-67.728C7.68,-67.728 7.399,-69.777 8.951,-70.125C10.503,-70.473 34.433,-73.765 37.712,-74.323C40.991,-74.88 40.759,-79.604 37.493,-79.548C34.226,-79.493 10.909,-77.265 6.981,-76.72C2.023,-76.032 -0.447,-74.462 0,-69.157" style="fill:white;fill-rule:nonzero;stroke:black;stroke-width:0.47px;"/>
                        </g>
                        <g transform="matrix(1.09104,0,0,1,-21.2934,81.8648)">
                            <path d="M338.2,268.58C337.919,280.765 337.583,301.288 337.286,307.014C336.896,314.556 336.506,335.624 336.282,339.967C336.056,344.309 337.025,345.897 339.12,346.026C341.215,346.155 359.973,346.425 364.092,346.679C364.092,346.679 368.347,347.081 368.545,343.259C368.743,339.437 364.552,338.91 361.084,338.696C357.616,338.483 347.141,337.837 345.495,337.736C343.848,337.634 344.102,336.806 344.205,334.819C344.297,333.029 345.449,283.795 345.614,268.801L350.909,274.578C352.432,276.239 355.016,276.352 356.677,274.829C358.338,273.307 358.45,270.723 356.928,269.062L344.84,255.873L344.676,255.701C344.389,255.417 344.068,255.183 343.727,255.002C343.151,254.694 342.519,254.536 341.886,254.523L341.832,254.523L341.725,254.523C341.092,254.536 340.46,254.694 339.884,255.002C339.543,255.183 339.222,255.417 338.935,255.701L338.771,255.873L326.072,269.728C324.55,271.389 324.662,273.974 326.323,275.496C327.984,277.018 330.568,276.906 332.091,275.245L338.2,268.58Z" style="fill:white;stroke:black;stroke-width:0.45px;"/>
                        </g>
                        <g transform="matrix(1,0,0,1,453.009,425.025)">
                            <path d="M0,-91.225C0,-91.225 -3.268,-91.186 -2.705,-84.837C-2.143,-78.489 10.275,-14.125 11.647,-7.699C13.018,-1.274 15.257,0.921 18.425,-2.975C21.593,-6.871 46.775,-71.556 49.119,-78.163C51.189,-83.997 49.408,-86.104 47.444,-86.291C45.479,-86.478 43.255,-85.289 40.423,-76.824C37.943,-69.411 22.143,-30.488 18.254,-20.93C17.999,-20.302 17.085,-20.385 16.955,-21.05C15.183,-30.186 8.481,-64.838 5.87,-79.912C5.87,-79.912 4.189,-92.146 0,-91.225" style="fill:white;fill-rule:nonzero;stroke:black;stroke-width:0.47px;"/>
                        </g>
                        <g transform="matrix(1,0,0,1,538.494,388.761)">
                            <path d="M0,-4.095C-2.142,-3.846 -8.669,-4.095 -11.309,-4.394C-13.95,-4.693 -14.996,-5.639 -14.099,-8.38C-13.389,-10.549 -8.838,-21.807 -6.973,-26.402C-6.703,-27.066 -5.755,-27.032 -5.533,-26.35C-3.019,-18.61 0.352,-9.153 0.947,-6.636C1.594,-3.896 0,-4.095 0,-4.095M19.62,28.262C18.484,23.37 14.117,10.443 13.156,6.425C13.156,6.425 12.456,3.707 13.156,0.863C13.767,-1.617 13.084,-3.376 10.908,-3.995C10.199,-4.197 9.661,-4.769 9.427,-5.469C7.651,-10.783 0.881,-31.089 -0.41,-35.655C-1.898,-40.92 -1.245,-46.857 -5.361,-46.856C-5.361,-46.856 -7.632,-47.031 -9.204,-43.013C-10.777,-38.995 -23.783,-1.007 -37.243,27.214C-37.243,27.214 -38.291,29.31 -38.291,32.105L-38.291,38.569C-38.291,41.626 -35.321,42.936 -32.526,37.346C-29.731,31.756 -19.773,8.609 -18.288,4.416C-18.288,4.416 -17.502,1.534 -14.795,2.233C-12.087,2.931 -4.924,4.329 -0.819,4.329C3.286,4.329 3.373,4.504 4.159,6.6C4.946,8.696 10.623,29.31 12.457,34.638C14.292,39.966 16.126,41.539 18.746,40.447C21.367,39.355 20.755,33.153 19.62,28.262" style="fill:white;fill-rule:nonzero;stroke:black;stroke-width:0.47px;"/>
                        </g>
                        <g transform="matrix(1,0,0,1,581.908,413.951)">
                            <path d="M0,-68.469C0.535,-68.509 1.005,-68.126 1.072,-67.594C1.789,-61.888 5.534,-31.966 6.53,-21.566C7.634,-10.049 8.936,3.543 9.304,7.382C9.304,7.382 9.444,11.074 13.176,10.541C16.907,10.009 16.658,7.406 16.502,5.775C16.502,5.775 10.252,-52.134 9.397,-67.889C9.367,-68.45 9.783,-68.926 10.342,-68.974C14.571,-69.334 30.973,-70.813 33.692,-72.264C36.818,-73.932 36.456,-79.429 31.904,-79.486C27.353,-79.543 -0.495,-76.382 -8.635,-75.602C-16.776,-74.822 -23.547,-74.612 -23.4,-70.792C-23.253,-66.972 -18.159,-66.967 -14.686,-67.3C-11.803,-67.576 -2.933,-68.248 0,-68.469" style="fill:white;fill-rule:nonzero;stroke:black;stroke-width:0.47px;"/>
                        </g>
                        <g transform="matrix(1,0,0,1,718.6,394.967)">
                            <path d="M0,-19.821C-3.689,-20.047 -5.509,-20.323 -5.267,-23.677C-5.025,-27.032 -2.141,-46.94 -2.141,-46.94C-1.786,-49.415 1.327,-49.207 1.327,-49.207C26.743,-48.881 29.951,-38.022 24.333,-29.462C18.714,-20.902 3.689,-19.595 0,-19.821M29.315,26.534C27.982,22.006 20.039,2.829 18.245,-5.483C17.169,-10.471 17.042,-13.914 19.899,-16.019C22.756,-18.124 31.151,-23.659 33.391,-28.165C35.631,-32.671 37.406,-39.439 28.958,-47.641C20.51,-55.842 7.352,-57.317 0.355,-56.819C-6.756,-56.314 -7.626,-55.545 -8.35,-52.859C-8.35,-52.859 -18.108,10.715 -18.111,25.685C-18.111,25.685 -18.141,29.093 -15.266,29.528C-12.39,29.964 -10.978,27.121 -10.09,21.257C-9.201,15.392 -5.349,-10.038 -5.349,-10.038C-5.349,-10.038 -5.518,-11.968 -3.319,-11.634C-1.12,-11.301 3.13,-11.177 5.348,-12.11C7.566,-13.042 7.492,-11.035 7.995,-9.401C8.497,-7.768 16.45,22.739 23.543,33.793C23.543,33.793 25.52,37.496 28.776,35.797C32.033,34.099 30.647,31.062 29.315,26.534" style="fill:white;fill-rule:nonzero;stroke:black;stroke-width:0.47px;"/>
                        </g>
                    </g>
                </g>
                <g transform="matrix(0.972838,0,0,1,14.4992,0.0728454)">
                    <g>
                        <g transform="matrix(1,0,0,1,304.115,276.547)">
                            <path d="M0,-68.219L17.424,-71.804C18.854,-72.098 19.82,-73.423 19.676,-74.875C19.057,-81.14 15.764,-97.085 -1.644,-103.094C-23.522,-110.645 -51.931,-96.528 -56.552,-74.189C-61.172,-51.851 -47.603,-44.512 -41.615,-41.222C-33.552,-36.793 -9.798,-26.145 0.864,-19.122C11.526,-12.099 10.821,-0.019 5.352,4.415C0.116,8.66 -17.255,12.369 -24.372,-10.743C-24.933,-12.567 -26.793,-13.667 -28.663,-13.283L-49.484,-8.998C-50.606,-8.768 -51.337,-7.691 -51.141,-6.563C-49.865,0.76 -43.888,25.77 -20.934,33.456C5.851,42.426 37.536,24.279 36.731,-6.178C36.731,-6.178 36.931,-28.012 13.234,-39.775C-7.112,-49.875 -15.138,-54.023 -21.298,-57.338C-28.606,-61.269 -30.82,-70.673 -23.97,-76.639C-16.631,-83.031 -6.139,-80.175 -2.838,-69.855C-2.458,-68.665 -1.224,-67.967 0,-68.219" style="fill:rgb(71,155,232);fill-rule:nonzero;stroke:black;stroke-width:0.42px;"/>
                        </g>
                        <g transform="matrix(1,0,0,1,415.459,271.467)">
                            <path d="M0,-42.679C-7.1,-41.353 -19.205,-42.834 -23.876,-43.498C-24.996,-43.657 -25.826,-44.613 -25.841,-45.744C-25.952,-54.398 -24.749,-61.744 -24.089,-65.091C-23.867,-66.215 -22.854,-66.997 -21.711,-66.93C-17.456,-66.68 -7.138,-65.877 0.57,-63.692C7.898,-61.615 11.228,-57.277 11.231,-53.512C11.234,-50.361 8.934,-44.348 0,-42.679M-4.093,-88.91C-20.234,-91.567 -37.675,-92.483 -44.194,-92.747C-45.687,-92.808 -46.966,-91.695 -47.117,-90.209L-60.65,43.499C-60.842,45.405 -59.479,47.116 -57.578,47.354L-37.383,49.882C-35.406,50.129 -33.617,48.691 -33.433,46.708L-27.38,-18.542C-27.38,-18.542 0.919,-14.63 12.719,-18.206C25.684,-22.136 35.344,-33.209 37.13,-47.481C38.916,-61.753 30.726,-83.178 -4.093,-88.91" style="fill:rgb(71,155,232);fill-rule:nonzero;stroke:black;stroke-width:0.42px;"/>
                        </g>
                        <g transform="matrix(1,0,0,1,509.631,239.925)">
                            <path d="M0,6.637C-6.841,7.298 -14.345,6.999 -17.507,6.821C-18.306,6.776 -18.862,6.012 -18.66,5.238L-11.07,-23.902C-10.771,-25.049 -9.165,-25.107 -8.784,-23.985L1.052,4.985C1.31,5.746 0.799,6.56 0,6.637M51.729,63.721C45.177,45.537 25.688,-8.517 20.935,-21.303C16.018,-34.531 5.264,-60.182 2.289,-67.248C1.823,-68.353 0.716,-69.049 -0.482,-68.99L-22.436,-67.905C-24.814,-67.787 -26.827,-66.107 -27.368,-63.788L-44.247,8.583L-61.577,68.875C-62.564,72.31 -59.85,75.686 -56.284,75.461L-36.62,74.218C-35.424,74.143 -34.402,73.34 -34.051,72.194C-32.338,66.597 -27.346,49.128 -24.755,34.01C-24.626,33.257 -24.037,32.679 -23.281,32.572C-19.192,31.993 -5.705,30.4 9.624,31.993C10.489,32.083 11.225,32.672 11.514,33.493L23.264,66.884C23.982,68.898 25.906,70.228 28.044,70.189L47.512,69.834C50.642,69.776 52.79,66.666 51.729,63.721" style="fill:rgb(71,155,232);fill-rule:nonzero;stroke:black;stroke-width:0.42px;"/>
                        </g>
                        <g transform="matrix(1,0,0,1,635.858,280.014)">
                            <path d="M0,-59.919L20.63,-62.66C21.546,-62.781 22.193,-63.618 22.069,-64.534C21.539,-68.461 19.522,-78.659 12.278,-87.583C6.075,-95.227 -6.211,-103.842 -21.758,-101.777C-62.716,-96.335 -74.142,-52.772 -71.481,-25.243C-68.781,2.684 -49.658,43.923 -11.508,39.625C25.069,35.504 37.511,1.874 34.508,-18.126C34.257,-19.799 32.653,-20.917 30.996,-20.574L7.733,-15.751C6.362,-15.467 5.384,-14.246 5.428,-12.847C5.607,-7.12 4.425,7.115 -11.354,9.731C-27.54,12.414 -41.341,-9.819 -43.258,-30.272C-45.616,-55.424 -33.659,-69.214 -23.458,-71.74C-11.797,-74.627 -5.789,-69.84 -2.406,-61.332C-2.022,-60.366 -1.031,-59.782 0,-59.919" style="fill:rgb(71,155,232);fill-rule:nonzero;stroke:black;stroke-width:0.42px;"/>
                        </g>
                        <g transform="matrix(1,0,0,1,709.89,317.903)">
                            <path d="M0,-154.367C-1.44,-154.635 -2.815,-153.665 -3.036,-152.217C-4.719,-141.212 -11.669,-98.728 -15.153,-79.241C-19.18,-56.714 -24.164,-27.04 -25.633,-18.253C-25.871,-16.832 -24.925,-15.488 -23.509,-15.226L58.419,-0.09C60.356,0.268 62.186,-1.1 62.393,-3.058L64.625,-24.178C64.771,-25.56 63.832,-26.823 62.466,-27.08L6.981,-37.539C6.111,-37.703 5.523,-38.52 5.642,-39.397L9.467,-67.42C9.633,-68.634 10.761,-69.476 11.972,-69.291L39.49,-65.078C41.063,-64.838 42.507,-66.006 42.584,-67.596C42.771,-71.407 43.436,-78.589 45.746,-87.467C45.945,-88.23 45.474,-89.007 44.703,-89.171L16.253,-95.221C15.336,-95.416 14.746,-96.312 14.929,-97.231L19.571,-120.536C19.699,-121.178 20.293,-121.616 20.944,-121.54C27.094,-120.823 56.672,-117.222 77.563,-111.912C79.65,-111.381 81.741,-112.75 82.067,-114.879L85.454,-137.008C85.575,-137.801 85.045,-138.547 84.257,-138.694L0,-154.367Z" style="fill:rgb(71,155,232);fill-rule:nonzero;stroke:black;stroke-width:0.42px;"/>
                        </g>
                    </g>
                    <g>
                        <g transform="matrix(1,0,0,1,304.115,266.848)">
                            <path d="M0,-68.219L17.424,-71.804C18.854,-72.098 19.82,-73.423 19.676,-74.875C19.057,-81.14 15.764,-97.085 -1.644,-103.094C-23.522,-110.645 -51.931,-96.528 -56.552,-74.189C-61.172,-51.851 -47.603,-44.512 -41.615,-41.222C-33.552,-36.793 -9.798,-26.145 0.864,-19.122C11.526,-12.099 10.821,-0.019 5.352,4.415C0.116,8.66 -17.255,12.369 -24.372,-10.743C-24.933,-12.567 -26.793,-13.667 -28.663,-13.283L-49.484,-8.998C-50.606,-8.768 -51.337,-7.691 -51.141,-6.563C-49.865,0.76 -43.888,25.77 -20.934,33.456C5.851,42.426 37.536,24.279 36.731,-6.178C36.731,-6.178 36.931,-28.012 13.234,-39.775C-7.112,-49.875 -15.138,-54.023 -21.298,-57.338C-28.606,-61.269 -30.82,-70.673 -23.97,-76.639C-16.631,-83.031 -6.139,-80.175 -2.838,-69.855C-2.458,-68.665 -1.224,-67.967 0,-68.219" style="fill:white;fill-rule:nonzero;stroke:black;stroke-width:0.47px;"/>
                        </g>
                        <g transform="matrix(1,0,0,1,415.459,261.768)">
                            <path d="M0,-42.679C-7.1,-41.353 -19.205,-42.834 -23.876,-43.498C-24.996,-43.657 -25.826,-44.613 -25.841,-45.744C-25.952,-54.398 -24.749,-61.744 -24.089,-65.091C-23.867,-66.215 -22.854,-66.997 -21.711,-66.93C-17.456,-66.68 -7.138,-65.877 0.57,-63.692C7.898,-61.615 11.228,-57.277 11.231,-53.512C11.234,-50.361 8.934,-44.348 0,-42.679M-4.093,-88.91C-20.234,-91.567 -37.675,-92.483 -44.194,-92.747C-45.687,-92.808 -46.966,-91.695 -47.117,-90.209L-60.65,43.499C-60.842,45.405 -59.479,47.116 -57.578,47.354L-37.383,49.882C-35.406,50.129 -33.617,48.691 -33.433,46.708L-27.38,-18.542C-27.38,-18.542 0.919,-14.63 12.719,-18.206C25.684,-22.136 35.344,-33.209 37.13,-47.481C38.916,-61.753 30.726,-83.178 -4.093,-88.91" style="fill:white;fill-rule:nonzero;stroke:black;stroke-width:0.47px;"/>
                        </g>
                        <g transform="matrix(1,0,0,1,509.631,230.226)">
                            <path d="M0,6.637C-6.841,7.298 -14.345,6.999 -17.507,6.821C-18.306,6.776 -18.862,6.012 -18.66,5.238L-11.07,-23.902C-10.771,-25.049 -9.165,-25.107 -8.784,-23.985L1.052,4.985C1.31,5.746 0.799,6.56 0,6.637M51.729,63.721C45.177,45.537 25.688,-8.517 20.935,-21.303C16.018,-34.531 5.264,-60.182 2.289,-67.248C1.823,-68.353 0.716,-69.049 -0.482,-68.99L-22.436,-67.905C-24.814,-67.787 -26.827,-66.107 -27.368,-63.788L-44.247,8.583L-61.577,68.875C-62.564,72.31 -59.85,75.686 -56.284,75.461L-36.62,74.218C-35.424,74.143 -34.402,73.34 -34.051,72.194C-32.338,66.597 -27.346,49.128 -24.755,34.01C-24.626,33.257 -24.037,32.679 -23.281,32.572C-19.192,31.993 -5.705,30.4 9.624,31.993C10.489,32.083 11.225,32.672 11.514,33.493L23.264,66.884C23.982,68.898 25.906,70.228 28.044,70.189L47.512,69.834C50.642,69.776 52.79,66.666 51.729,63.721" style="fill:white;fill-rule:nonzero;stroke:black;stroke-width:0.47px;"/>
                        </g>
                        <g transform="matrix(1,0,0,1,635.858,270.315)">
                            <path d="M0,-59.919L20.63,-62.66C21.546,-62.781 22.193,-63.618 22.069,-64.534C21.539,-68.461 19.522,-78.659 12.278,-87.583C6.075,-95.227 -6.211,-103.842 -21.758,-101.777C-62.716,-96.335 -74.142,-52.772 -71.481,-25.243C-68.781,2.684 -49.658,43.923 -11.508,39.625C25.069,35.504 37.511,1.874 34.508,-18.126C34.257,-19.799 32.653,-20.917 30.996,-20.574L7.733,-15.751C6.362,-15.467 5.384,-14.246 5.428,-12.847C5.607,-7.12 4.425,7.115 -11.354,9.731C-27.54,12.414 -41.341,-9.819 -43.258,-30.272C-45.616,-55.424 -33.659,-69.214 -23.458,-71.74C-11.797,-74.627 -5.789,-69.84 -2.406,-61.332C-2.022,-60.366 -1.031,-59.782 0,-59.919" style="fill:white;fill-rule:nonzero;stroke:black;stroke-width:0.47px;"/>
                        </g>
                        <g transform="matrix(1,0,0,1,709.89,308.204)">
                            <path d="M0,-154.367C-1.44,-154.635 -2.815,-153.665 -3.036,-152.217C-4.719,-141.212 -11.669,-98.728 -15.153,-79.241C-19.18,-56.714 -24.164,-27.04 -25.633,-18.253C-25.871,-16.832 -24.925,-15.488 -23.509,-15.226L58.419,-0.09C60.356,0.268 62.186,-1.1 62.393,-3.058L64.625,-24.178C64.771,-25.56 63.832,-26.823 62.466,-27.08L6.981,-37.539C6.111,-37.703 5.523,-38.52 5.642,-39.397L9.467,-67.42C9.633,-68.634 10.761,-69.476 11.972,-69.291L39.49,-65.078C41.063,-64.838 42.507,-66.006 42.584,-67.596C42.771,-71.407 43.436,-78.589 45.746,-87.467C45.945,-88.23 45.474,-89.007 44.703,-89.171L16.253,-95.221C15.336,-95.416 14.746,-96.312 14.929,-97.231L19.571,-120.536C19.699,-121.178 20.293,-121.616 20.944,-121.54C27.094,-120.823 56.672,-117.222 77.563,-111.912C79.65,-111.381 81.741,-112.75 82.067,-114.879L85.454,-137.008C85.575,-137.801 85.045,-138.547 84.257,-138.694L0,-154.367Z" style="fill:white;fill-rule:nonzero;stroke:black;stroke-width:0.47px;"/>
                        </g>
                    </g>
                </g>
                <g transform="matrix(0.970873,0,0,1,18.2625,0)">
                    <g transform="matrix(0.983051,0,0,1.01898,-10.1022,30.6384)">
                        <ellipse cx="682.5" cy="348.56" rx="29.5" ry="36.327" style="fill:none;stroke:rgb(71,155,232);stroke-width:8.95px;stroke-linecap:round;stroke-miterlimit:1.5;"/>
                    </g>
                    <g transform="matrix(0.983051,0,0,1.01898,-14.9322,27.8084)">
                        <path d="M682.5,308.062C674.691,308.062 667.416,311.085 661.561,316.371C653.509,323.642 648.142,335.334 648.142,348.56C648.142,361.786 653.509,373.478 661.561,380.748C667.416,386.034 674.691,389.058 682.5,389.058C690.309,389.058 697.584,386.034 703.439,380.748C711.491,373.478 716.858,361.786 716.858,348.56C716.858,335.334 711.491,323.642 703.439,316.371C697.584,311.085 690.309,308.062 682.5,308.062ZM682.5,316.403C687.716,316.403 692.486,318.588 696.397,322.119C702.992,328.075 707.142,337.726 707.142,348.56C707.142,359.393 702.992,369.045 696.397,375C692.486,378.531 687.716,380.716 682.5,380.716C677.284,380.716 672.514,378.531 668.603,375C662.008,369.045 657.858,359.393 657.858,348.56C657.858,337.726 662.008,328.075 668.603,322.119C672.514,318.588 677.284,316.403 682.5,316.403Z" style="fill:white;stroke:black;stroke-width:0.47px;"/>
                    </g>
                </g>
                <g>
                    <g transform="matrix(0.452067,-0.31526,0.330465,0.431267,669.396,190.782)">
                        <path d="M0,-4.891L4.262,-6.701C4.926,-6.982 5.409,-7.573 5.553,-8.28L6.479,-12.817C6.842,-14.596 9.088,-15.187 10.28,-13.816L13.318,-10.322C13.791,-9.777 14.502,-9.501 15.219,-9.582L19.82,-10.104C21.625,-10.308 22.881,-8.354 21.945,-6.797L19.56,-2.828C19.189,-2.21 19.146,-1.448 19.444,-0.792L21.362,3.423C22.114,5.076 20.644,6.874 18.875,6.466L14.363,5.424C13.66,5.262 12.922,5.456 12.39,5.943L8.974,9.069C7.635,10.296 5.47,9.453 5.312,7.644L4.908,3.031C4.845,2.313 4.433,1.671 3.805,1.315L-0.224,-0.967C-1.804,-1.862 -1.672,-4.181 0,-4.891" style="fill:white;fill-rule:nonzero;stroke:black;stroke-width:0.88px;"/>
                    </g>
                    <g transform="matrix(0.276426,-0.443886,0.465294,0.263708,774.372,270.994)">
                        <path d="M0,-4.891L4.262,-6.701C4.926,-6.982 5.409,-7.573 5.553,-8.28L6.479,-12.817C6.842,-14.596 9.088,-15.187 10.28,-13.816L13.318,-10.322C13.791,-9.777 14.502,-9.501 15.219,-9.582L19.82,-10.104C21.625,-10.308 22.881,-8.354 21.945,-6.797L19.56,-2.828C19.189,-2.21 19.146,-1.448 19.444,-0.792L21.362,3.423C22.114,5.076 20.644,6.874 18.875,6.466L14.363,5.424C13.66,5.262 12.922,5.456 12.39,5.943L8.974,9.069C7.635,10.296 5.47,9.453 5.312,7.644L4.908,3.031C4.845,2.313 4.433,1.671 3.805,1.315L-0.224,-0.967C-1.804,-1.862 -1.672,-4.181 0,-4.891" style="fill:white;fill-rule:nonzero;stroke:black;stroke-width:0.9px;"/>
                    </g>
                    <g transform="matrix(0.0741955,-0.455495,0.477462,0.0707818,422.676,288.578)">
                        <path d="M0,-4.891L4.262,-6.701C4.926,-6.982 5.409,-7.573 5.553,-8.28L6.479,-12.817C6.842,-14.596 9.088,-15.187 10.28,-13.816L13.318,-10.322C13.791,-9.777 14.502,-9.501 15.219,-9.582L19.82,-10.104C21.625,-10.308 22.881,-8.354 21.945,-6.797L19.56,-2.828C19.189,-2.21 19.146,-1.448 19.444,-0.792L21.362,3.423C22.114,5.076 20.644,6.874 18.875,6.466L14.363,5.424C13.66,5.262 12.922,5.456 12.39,5.943L8.974,9.069C7.635,10.296 5.47,9.453 5.312,7.644L4.908,3.031C4.845,2.313 4.433,1.671 3.805,1.315L-0.224,-0.967C-1.804,-1.862 -1.672,-4.181 0,-4.891" style="fill:white;fill-rule:nonzero;stroke:black;stroke-width:1px;"/>
                    </g>
                    <g transform="matrix(0.471903,-0.361975,0.379433,0.450191,252.279,307.043)">
                        <path d="M0,-4.891L4.262,-6.701C4.926,-6.982 5.409,-7.573 5.553,-8.28L6.479,-12.817C6.842,-14.596 9.088,-15.187 10.28,-13.816L13.318,-10.322C13.791,-9.777 14.502,-9.501 15.219,-9.582L19.82,-10.104C21.625,-10.308 22.881,-8.354 21.945,-6.797L19.56,-2.828C19.189,-2.21 19.146,-1.448 19.444,-0.792L21.362,3.423C22.114,5.076 20.644,6.874 18.875,6.466L14.363,5.424C13.66,5.262 12.922,5.456 12.39,5.943L8.974,9.069C7.635,10.296 5.47,9.453 5.312,7.644L4.908,3.031C4.845,2.313 4.433,1.671 3.805,1.315L-0.224,-0.967C-1.804,-1.862 -1.672,-4.181 0,-4.891" style="fill:white;fill-rule:nonzero;stroke:black;stroke-width:0.81px;"/>
                    </g>
                    <g transform="matrix(0.20398,0,0,0.194595,88.0958,57.9189)">
                        <circle cx="2264.5" cy="768.5" r="18.5" style="fill:white;stroke:black;stroke-width:2.36px;stroke-linecap:round;stroke-miterlimit:1.5;"/>
                    </g>
                    <g transform="matrix(0.20398,0,0,0.194595,-116.316,54.3189)">
                        <circle cx="2264.5" cy="768.5" r="18.5" style="fill:white;stroke:black;stroke-width:2.36px;stroke-linecap:round;stroke-miterlimit:1.5;"/>
                    </g>
                </g>
            </g>
        </g>
    </g>
</svg>
