<?xml version="1.0" encoding="UTF-8" standalone="no"?>
<!DOCTYPE svg PUBLIC "-//W3C//DTD SVG 1.1//EN" "http://www.w3.org/Graphics/SVG/1.1/DTD/svg11.dtd">
<svg width="100%" height="100%" viewBox="0 0 589 541" version="1.1" xmlns="http://www.w3.org/2000/svg" xmlns:xlink="http://www.w3.org/1999/xlink" xml:space="preserve" xmlns:serif="http://www.serif.com/" style="fill-rule:evenodd;clip-rule:evenodd;stroke-linejoin:round;stroke-miterlimit:2;">
    <g transform="matrix(1,0,0,1,-133,-128)">
        <g transform="matrix(0.0625,0,0,0.0625,196.312,185.375)">
            <circle cx="363" cy="218" r="16" style="fill:white;fill-opacity:0.2;"/>
        </g>
        <g transform="matrix(0.407386,0,0,0.407386,260.89,299.961)">
            <circle cx="363" cy="218" r="16" style="fill:white;fill-opacity:0.11;"/>
        </g>
        <g transform="matrix(0.402489,0,0,0.402489,343.87,556.459)">
            <circle cx="363" cy="218" r="16" style="fill:white;fill-opacity:0.07;"/>
        </g>
        <g transform="matrix(0.344144,0,0,0.344144,266.811,437.616)">
            <circle cx="363" cy="218" r="16" style="fill:white;fill-opacity:0.25;"/>
        </g>
        <g transform="matrix(0.318706,0,0,0.318706,444.827,403.907)">
            <circle cx="363" cy="218" r="16" style="fill:white;fill-opacity:0.35;"/>
        </g>
        <g transform="matrix(0.369921,0,0,0.369921,106.827,246.326)">
            <circle cx="363" cy="218" r="16" style="fill:white;fill-opacity:0.16;"/>
        </g>
        <g transform="matrix(0.31643,0,0,0.31643,136.374,91.4089)">
            <circle cx="363" cy="218" r="16" style="fill:white;fill-opacity:0.2;"/>
        </g>
        <g transform="matrix(0.211753,0,0,0.211753,387.927,249.753)">
            <circle cx="363" cy="218" r="16" style="fill:white;fill-opacity:0.2;"/>
        </g>
        <g transform="matrix(0.211753,0,0,0.211753,638.759,424.358)">
            <circle cx="363" cy="218" r="16" style="fill:white;fill-opacity:0.2;"/>
        </g>
        <g transform="matrix(0.399824,0,0,0.399824,513.64,180.993)">
            <circle cx="363" cy="218" r="16" style="fill:white;fill-opacity:0.14;"/>
        </g>
        <g transform="matrix(0.32752,0,0,0.32752,495.197,123.36)">
            <circle cx="363" cy="218" r="16" style="fill:white;fill-opacity:0.09;"/>
        </g>
        <g transform="matrix(0.32752,0,0,0.32752,245.728,69.4337)">
            <circle cx="363" cy="218" r="16" style="fill:white;fill-opacity:0.09;"/>
        </g>
        <g transform="matrix(0.378517,0,0,0.378517,412.206,271.974)">
            <circle cx="363" cy="218" r="16" style="fill:white;fill-opacity:0.2;"/>
        </g>
        <g transform="matrix(0.34793,0,0,0.346905,178.907,389.187)">
            <circle cx="363" cy="218" r="16" style="fill:white;fill-opacity:0.34;"/>
        </g>
        <g transform="matrix(0.34793,0,0,0.346905,39.43,543.748)">
            <circle cx="363" cy="218" r="16" style="fill:white;fill-opacity:0.27;"/>
        </g>
        <g transform="matrix(0.425576,0,0,0.424321,22.6238,130.947)">
            <circle cx="363" cy="218" r="16" style="fill:white;fill-opacity:0.13;"/>
        </g>
        <g transform="matrix(0.382241,0,0,0.382241,209.642,162.187)">
            <circle cx="363" cy="218" r="16" style="fill:white;fill-opacity:0.25;"/>
        </g>
        <g transform="matrix(0.331494,0,0,0.331494,497.364,504.816)">
            <circle cx="363" cy="218" r="16" style="fill:white;fill-opacity:0.2;"/>
        </g>
        <g transform="matrix(0.389286,0,0,0.389286,502.859,297.389)">
            <circle cx="363" cy="218" r="16" style="fill:white;fill-opacity:0.2;"/>
        </g>
        <g transform="matrix(0.39389,0,0,0.39389,105.201,483.288)">
            <circle cx="363" cy="218" r="16" style="fill:white;fill-opacity:0.12;"/>
        </g>
        <g transform="matrix(0.217532,0,0,0.217532,443.516,162.058)">
            <circle cx="363" cy="218" r="16" style="fill:white;fill-opacity:0.31;"/>
        </g>
    </g>
</svg>
