<?xml version="1.0" encoding="UTF-8" standalone="no"?>
<!DOCTYPE svg PUBLIC "-//W3C//DTD SVG 1.1//EN" "http://www.w3.org/Graphics/SVG/1.1/DTD/svg11.dtd">
<svg preserveAspectRatio="none" width="100%" height="100%" viewBox="0 0 403 52" version="1.1" xmlns="http://www.w3.org/2000/svg" xmlns:xlink="http://www.w3.org/1999/xlink" xml:space="preserve" xmlns:serif="http://www.serif.com/" style="fill-rule:evenodd;clip-rule:evenodd;stroke-linecap:square;stroke-miterlimit:1.5;">
    <g transform="matrix(1,0,0,1,-211.011,-361.592)">
        <g transform="matrix(1.17529,0,0,0.465754,-58.9658,245.118)">
            <rect x="229.711" y="250.075" width="342.856" height="110.916"/>
            <clipPath id="_clip1">
                <rect x="229.711" y="250.075" width="342.856" height="110.916"/>
            </clipPath>
            <g clip-path="url(#_clip1)">
                <g transform="matrix(1.41067,0,0,3.13721,-162.983,-771.514)">
                    <g transform="matrix(1,0,0,1,0,-90.3432)">
                        <path d="M188.28,450.838L611.72,450.838" style="fill:none;stroke:white;stroke-width:0.77px;"/>
                    </g>
                    <g transform="matrix(0.686429,0,0,0.686429,159.782,40.9883)">
                        <path d="M188.28,450.838L511.452,450.838" style="fill:none;stroke:white;stroke-width:1.12px;"/>
                    </g>
                    <g transform="matrix(0.998314,0,0,0.998314,0.317402,-109.659)">
                        <path d="M299.318,450.838L501.138,450.838" style="fill:none;stroke:white;stroke-width:0.77px;"/>
                    </g>
                    <g transform="matrix(0.714559,0,0,0.714559,53.7427,8.22995)">
                        <path d="M357.087,450.838L611.72,450.838" style="fill:none;stroke:white;stroke-width:1.07px;"/>
                    </g>
                </g>
                <g transform="matrix(1.41067,0,0,3.13721,-162.983,-771.514)">
                    <g transform="matrix(-0.707107,-0.707107,0.707107,-0.707107,513.761,691.043)">
                        <path d="M400,239.118L400,27.398" style="fill:none;stroke:white;stroke-width:0.82px;"/>
                    </g>
                    <g transform="matrix(-0.766044,-0.642788,0.642788,-0.766044,552.716,679.408)">
                        <path d="M400,239.118L400,27.398" style="fill:none;stroke:white;stroke-width:0.82px;"/>
                    </g>
                    <g transform="matrix(-0.819152,-0.573576,0.573576,-0.819152,590.508,664.422)">
                        <path d="M400,239.118L400,27.398" style="fill:none;stroke:white;stroke-width:0.82px;"/>
                    </g>
                    <g transform="matrix(-0.866025,-0.5,0.5,-0.866025,626.851,646.2)">
                        <path d="M400,239.118L400,27.398" style="fill:none;stroke:white;stroke-width:0.81px;"/>
                    </g>
                    <g transform="matrix(-0.906308,-0.422618,0.422618,-0.906308,661.468,624.88)">
                        <path d="M400,239.118L400,27.398" style="fill:none;stroke:white;stroke-width:0.81px;"/>
                    </g>
                    <g transform="matrix(-0.939693,-0.34202,0.34202,-0.939693,694.094,600.623)">
                        <path d="M400,239.118L400,27.398" style="fill:none;stroke:white;stroke-width:0.8px;"/>
                    </g>
                    <g transform="matrix(-0.965926,-0.258819,0.258819,-0.965926,724.482,573.616)">
                        <path d="M400,239.118L400,27.398" style="fill:none;stroke:white;stroke-width:0.79px;"/>
                    </g>
                    <g transform="matrix(-0.984808,-0.173648,0.173648,-0.984808,752.401,544.062)">
                        <path d="M400,239.118L400,27.398" style="fill:none;stroke:white;stroke-width:0.78px;"/>
                    </g>
                    <g transform="matrix(-0.996195,-0.0871557,0.0871557,-0.996195,777.637,512.188)">
                        <path d="M400,239.118L400,27.398" style="fill:none;stroke:white;stroke-width:0.78px;"/>
                    </g>
                    <g transform="matrix(-1,4.1217e-15,-4.1217e-15,-1,800,478.236)">
                        <path d="M400,239.118L400,27.398" style="fill:none;stroke:white;stroke-width:0.77px;"/>
                    </g>
                    <g transform="matrix(-0.996195,0.0871557,-0.0871557,-0.996195,819.318,442.464)">
                        <path d="M400,239.118L400,27.398" style="fill:none;stroke:white;stroke-width:0.76px;"/>
                    </g>
                    <g transform="matrix(-0.984808,0.173648,-0.173648,-0.984808,835.445,405.144)">
                        <path d="M400,239.118L400,27.398" style="fill:none;stroke:white;stroke-width:0.75px;"/>
                    </g>
                    <g transform="matrix(-0.965926,0.258819,-0.258819,-0.965926,848.259,366.56)">
                        <path d="M400,239.118L400,27.398" style="fill:none;stroke:white;stroke-width:0.74px;"/>
                    </g>
                    <g transform="matrix(-0.939693,0.34202,-0.34202,-0.939693,857.66,327.007)">
                        <path d="M400,239.118L400,27.398" style="fill:none;stroke:white;stroke-width:0.74px;"/>
                    </g>
                    <g transform="matrix(-0.906308,0.422618,-0.422618,-0.906308,863.579,286.785)">
                        <path d="M400,239.118L400,27.398" style="fill:none;stroke:white;stroke-width:0.73px;"/>
                    </g>
                    <g transform="matrix(-0.866025,0.5,-0.5,-0.866025,865.969,246.2)">
                        <path d="M400,239.118L400,27.398" style="fill:none;stroke:white;stroke-width:0.73px;"/>
                    </g>
                    <g transform="matrix(-0.819152,0.573576,-0.573576,-0.819152,864.813,205.561)">
                        <path d="M400,239.118L400,27.398" style="fill:none;stroke:white;stroke-width:0.73px;"/>
                    </g>
                    <g transform="matrix(-0.766044,0.642788,-0.642788,-0.766044,860.12,165.178)">
                        <path d="M400,239.118L400,27.398" style="fill:none;stroke:white;stroke-width:0.72px;"/>
                    </g>
                    <g transform="matrix(-0.707107,0.707107,-0.707107,-0.707107,851.925,125.357)">
                        <path d="M400,239.118L400,27.398" style="fill:none;stroke:white;stroke-width:0.72px;"/>
                    </g>
                </g>
                <g transform="matrix(1.41067,0,0,8.17093,-217.561,-2555.85)">
                    <rect x="317.064" y="343.404" width="243.045" height="13.574" style="fill:url(#_Linear2);"/>
                </g>
            </g>
        </g>
    </g>
    <defs>
        <linearGradient id="_Linear2" x1="0" y1="0" x2="1" y2="0" gradientUnits="userSpaceOnUse" gradientTransform="matrix(8.31196e-16,13.5745,-13.5745,8.31196e-16,444.911,343.404)"><stop offset="0" style="stop-color:black;stop-opacity:1"/><stop offset="1" style="stop-color:black;stop-opacity:0"/></linearGradient>
    </defs>
</svg>
