<?xml version="1.0" encoding="UTF-8" standalone="no"?>
<!DOCTYPE svg PUBLIC "-//W3C//DTD SVG 1.1//EN" "http://www.w3.org/Graphics/SVG/1.1/DTD/svg11.dtd">
<svg width="100%" height="100%" viewBox="0 0 194 36" version="1.1" xmlns="http://www.w3.org/2000/svg" xmlns:xlink="http://www.w3.org/1999/xlink" xml:space="preserve" xmlns:serif="http://www.serif.com/" style="fill-rule:evenodd;clip-rule:evenodd;stroke-linecap:round;stroke-linejoin:round;stroke-miterlimit:1.5;">
    <g transform="matrix(1,0,0,1,-476.403,-1075.16)">
        <g transform="matrix(1.98128,0,0,1.70244,113.364,46.5601)">
            <g transform="matrix(0.767692,0,0,0.893431,66.5688,265.806)">
                <path d="M164.057,379.243L166.795,387.667L175.653,387.667L168.486,392.874L171.224,401.299L164.057,396.092L156.891,401.299L159.628,392.874L152.462,387.667L161.32,387.667L164.057,379.243Z" style="stroke:white;stroke-width:0.99px;"/>
            </g>
            <g transform="matrix(0.767692,0,0,0.893431,86.3891,265.806)">
                <path d="M164.057,379.243L166.795,387.667L175.653,387.667L168.486,392.874L171.224,401.299L164.057,396.092L156.891,401.299L159.628,392.874L152.462,387.667L161.32,387.667L164.057,379.243Z" style="stroke:white;stroke-width:0.99px;"/>
            </g>
            <g transform="matrix(0.767692,0,0,0.893431,106.209,265.806)">
                <path d="M164.057,379.243L166.795,387.667L175.653,387.667L168.486,392.874L171.224,401.299L164.057,396.092L156.891,401.299L159.628,392.874L152.462,387.667L161.32,387.667L164.057,379.243Z" style="stroke:white;stroke-width:0.99px;"/>
            </g>
            <g transform="matrix(0.767692,0,0,0.893431,126.03,265.806)">
                <path d="M164.057,379.243L166.795,387.667L175.653,387.667L168.486,392.874L171.224,401.299L164.057,396.092L156.891,401.299L159.628,392.874L152.462,387.667L161.32,387.667L164.057,379.243Z" style="stroke:white;stroke-width:0.99px;"/>
            </g>
            <g transform="matrix(0.767692,0,0,0.893431,145.85,265.806)">
                <path d="M164.057,379.243L166.795,387.667L175.653,387.667L168.486,392.874L171.224,401.299L164.057,396.092L156.891,401.299L159.628,392.874L152.462,387.667L161.32,387.667L164.057,379.243Z" style="stroke:white;stroke-width:0.99px;"/>
            </g>
        </g>
    </g>
</svg>
