<?xml version="1.0" encoding="UTF-8" standalone="no"?>
<!DOCTYPE svg PUBLIC "-//W3C//DTD SVG 1.1//EN" "http://www.w3.org/Graphics/SVG/1.1/DTD/svg11.dtd">
<svg width="100%" height="100%" viewBox="0 0 349 117" version="1.1" xmlns="http://www.w3.org/2000/svg" xmlns:xlink="http://www.w3.org/1999/xlink" xml:space="preserve" xmlns:serif="http://www.serif.com/" style="fill-rule:evenodd;clip-rule:evenodd;stroke-linecap:round;stroke-linejoin:round;stroke-miterlimit:1.5;">
    <g transform="matrix(1,0,0,1,-430.668,-305.043)">
        <g transform="matrix(1,0,0,1,-1.32065,-0.870308)">
            <g transform="matrix(1.04489,0,0,1.04489,596.186,-25.7413)">
                <g>
                    <path d="M164.057,379.243L166.795,387.667L175.653,387.667L168.486,392.874L171.224,401.299L164.057,396.092L156.891,401.299L159.628,392.874L152.462,387.667L161.32,387.667L164.057,379.243Z" style="fill:rgb(255,174,0);stroke:rgb(255,174,0);stroke-width:0.99px;"/>
                </g>
            </g>
            <g transform="matrix(1.04489,0,0,1.04489,273.2,-25.7413)">
                <g>
                    <path d="M164.057,379.243L166.795,387.667L175.653,387.667L168.486,392.874L171.224,401.299L164.057,396.092L156.891,401.299L159.628,392.874L152.462,387.667L161.32,387.667L164.057,379.243Z" style="fill:rgb(255,174,0);stroke:rgb(255,174,0);stroke-width:0.99px;"/>
                </g>
            </g>
        </g>
        <g transform="matrix(1,0,0,1,223.314,217.465)">
            <g transform="matrix(0.399884,0,0,0.492233,-260.909,-242.795)">
                <g transform="matrix(216.839,0,0,216.839,1252.13,819.924)">
                    <path d="M0.552,-0.528L0.263,-0.528L0.263,-0.428L0.541,-0.428L0.541,-0.275L0.263,-0.275L0.263,-0.164L0.552,-0.164L0.572,-0L0.057,-0L0.057,-0.686L0.572,-0.686L0.552,-0.528Z" style="fill:white;fill-rule:nonzero;"/>
                </g>
                <g transform="matrix(216.839,0,0,216.839,1387.23,819.924)">
                    <path d="M0.714,-0L0.496,-0L0.455,-0.122L0.237,-0.122L0.197,-0L-0.005,-0L0.224,-0.686L0.485,-0.686L0.714,-0ZM0.344,-0.475L0.285,-0.267L0.407,-0.267L0.349,-0.475L0.344,-0.475Z" style="fill:white;fill-rule:nonzero;"/>
                </g>
                <g transform="matrix(216.839,0,0,216.839,1540.38,819.924)">
                    <path d="M0.442,-0.686C0.475,-0.686 0.505,-0.679 0.535,-0.665C0.564,-0.65 0.587,-0.63 0.605,-0.605C0.623,-0.579 0.632,-0.549 0.632,-0.516C0.632,-0.492 0.627,-0.468 0.616,-0.445C0.604,-0.422 0.59,-0.402 0.571,-0.385C0.552,-0.368 0.532,-0.358 0.509,-0.354L0.509,-0.349C0.546,-0.338 0.573,-0.317 0.592,-0.286C0.61,-0.255 0.619,-0.217 0.619,-0.173C0.619,-0.142 0.622,-0.115 0.628,-0.093C0.634,-0.07 0.648,-0.056 0.67,-0.05L0.67,-0.009C0.639,0.004 0.599,0.01 0.55,0.01C0.503,0.01 0.467,0 0.444,-0.02C0.421,-0.039 0.409,-0.072 0.409,-0.119C0.409,-0.163 0.404,-0.199 0.393,-0.226C0.382,-0.253 0.357,-0.266 0.32,-0.266L0.262,-0.266L0.262,-0L0.057,-0L0.057,-0.686L0.442,-0.686ZM0.262,-0.419L0.368,-0.419C0.382,-0.419 0.394,-0.424 0.404,-0.434C0.413,-0.443 0.418,-0.455 0.418,-0.469L0.418,-0.479C0.418,-0.493 0.413,-0.505 0.404,-0.515C0.394,-0.524 0.382,-0.529 0.368,-0.529L0.262,-0.529L0.262,-0.419Z" style="fill:white;fill-rule:nonzero;"/>
                </g>
                <g transform="matrix(216.839,0,0,216.839,1687.54,819.924)">
                    <path d="M0.571,-0.521L0.397,-0.521L0.397,-0L0.189,-0L0.189,-0.521L0.015,-0.521L0.015,-0.686L0.571,-0.686L0.571,-0.521Z" style="fill:white;fill-rule:nonzero;"/>
                </g>
                <g transform="matrix(216.839,0,0,216.839,1810.49,819.924)">
                    <path d="M0.64,-0L0.43,-0L0.43,-0.267L0.268,-0.267L0.268,-0L0.057,-0L0.057,-0.686L0.267,-0.686L0.267,-0.433L0.429,-0.433L0.429,-0.686L0.64,-0.686L0.64,-0Z" style="fill:white;fill-rule:nonzero;"/>
                </g>
            </g>
            <g transform="matrix(0.466301,0,0,0.347704,-222.517,-145.226)">
                <g transform="matrix(108.383,0,0,108.383,993.053,1003.68)">
                    <path d="M0.305,-0.296L0.139,-0.296L0.139,-0L0.083,-0L0.083,-0.711L0.278,-0.711C0.343,-0.711 0.393,-0.692 0.428,-0.656C0.464,-0.619 0.482,-0.567 0.482,-0.501C0.482,-0.456 0.471,-0.415 0.449,-0.381C0.427,-0.346 0.397,-0.322 0.359,-0.309L0.507,-0.006L0.507,-0L0.448,-0L0.305,-0.296ZM0.139,-0.348L0.288,-0.348C0.33,-0.348 0.363,-0.362 0.388,-0.391C0.413,-0.42 0.426,-0.457 0.426,-0.501C0.426,-0.551 0.413,-0.59 0.387,-0.617C0.361,-0.645 0.324,-0.658 0.277,-0.658L0.139,-0.658L0.139,-0.348Z" style="fill:white;fill-rule:nonzero;"/>
                </g>
                <g transform="matrix(108.383,0,0,108.383,1087.33,1003.68)">
                    <path d="M0.416,-0.34L0.14,-0.34L0.14,-0.052L0.457,-0.052L0.457,-0L0.084,-0L0.084,-0.711L0.455,-0.711L0.455,-0.658L0.14,-0.658L0.14,-0.392L0.416,-0.392L0.416,-0.34Z" style="fill:white;fill-rule:nonzero;"/>
                </g>
                <g transform="matrix(108.383,0,0,108.383,1175.88,1003.68)">
                    <path d="M0.269,-0.089L0.27,-0.081L0.272,-0.089L0.458,-0.711L0.519,-0.711L0.297,-0L0.244,-0L0.022,-0.711L0.083,-0.711L0.269,-0.089Z" style="fill:white;fill-rule:nonzero;"/>
                </g>
                <g transform="matrix(108.383,0,0,108.383,1269.15,1003.68)">
                    <rect x="0.094" y="-0.711" width="0.056" height="0.711" style="fill:white;"/>
                </g>
                <g transform="matrix(108.383,0,0,108.383,1330.29,1003.68)">
                    <path d="M0.416,-0.34L0.14,-0.34L0.14,-0.052L0.457,-0.052L0.457,-0L0.084,-0L0.084,-0.711L0.455,-0.711L0.455,-0.658L0.14,-0.658L0.14,-0.392L0.416,-0.392L0.416,-0.34Z" style="fill:white;fill-rule:nonzero;"/>
                </g>
                <g transform="matrix(108.383,0,0,108.383,1418.85,1003.68)">
                    <path d="M0.198,-0.193L0.215,-0.088L0.236,-0.188L0.364,-0.711L0.414,-0.711L0.539,-0.188L0.56,-0.087L0.579,-0.193L0.684,-0.711L0.74,-0.711L0.589,-0L0.536,-0L0.403,-0.554L0.389,-0.62L0.375,-0.554L0.239,-0L0.186,-0L0.035,-0.711L0.092,-0.711L0.198,-0.193Z" style="fill:white;fill-rule:nonzero;"/>
                </g>
                <g transform="matrix(108.383,0,0,108.383,1537.09,1003.68)">
                    <path d="M0.418,-0.175C0.418,-0.215 0.407,-0.246 0.384,-0.269C0.361,-0.291 0.319,-0.313 0.257,-0.334C0.195,-0.355 0.15,-0.378 0.121,-0.404C0.083,-0.437 0.064,-0.482 0.064,-0.537C0.064,-0.591 0.083,-0.635 0.12,-0.669C0.158,-0.704 0.206,-0.721 0.265,-0.721C0.326,-0.721 0.375,-0.701 0.414,-0.661C0.452,-0.621 0.471,-0.57 0.471,-0.508L0.415,-0.508C0.415,-0.556 0.402,-0.594 0.375,-0.624C0.348,-0.653 0.311,-0.668 0.265,-0.668C0.22,-0.668 0.185,-0.656 0.159,-0.632C0.133,-0.607 0.12,-0.576 0.12,-0.538C0.12,-0.502 0.132,-0.472 0.157,-0.45C0.181,-0.427 0.22,-0.407 0.273,-0.389C0.327,-0.371 0.367,-0.353 0.395,-0.334C0.422,-0.315 0.442,-0.292 0.455,-0.267C0.468,-0.241 0.475,-0.211 0.475,-0.176C0.475,-0.12 0.456,-0.075 0.418,-0.041C0.381,-0.007 0.331,0.01 0.269,0.01C0.227,0.01 0.189,0.001 0.155,-0.016C0.121,-0.033 0.094,-0.058 0.074,-0.09C0.055,-0.122 0.045,-0.16 0.045,-0.203L0.101,-0.203C0.101,-0.153 0.116,-0.114 0.146,-0.085C0.177,-0.056 0.218,-0.042 0.269,-0.042C0.314,-0.042 0.35,-0.054 0.377,-0.078C0.404,-0.102 0.418,-0.134 0.418,-0.175Z" style="fill:white;fill-rule:nonzero;"/>
                </g>
                <path d="M1048.04,1002.99L1048.04,1003.68L1041.58,1003.68L1026.13,971.605L1008.14,971.605L1008.14,1003.68L1002.05,1003.68L1002.05,926.622L1023.17,926.622C1030.19,926.622 1035.63,928.624 1039.49,932.628C1043.36,936.633 1045.29,942.198 1045.29,949.325C1045.29,954.3 1044.09,958.666 1041.69,962.423C1039.29,966.181 1036.06,968.783 1032,970.229L1048.04,1002.99ZM1005.99,929.498L1005.99,1000.8L1004.19,1000.8L1004.19,929.498L1005.99,929.498ZM1025.75,929.598C1030.15,930.068 1033.65,931.75 1036.29,934.518C1039.63,938.024 1041.35,942.94 1041.35,949.325C1041.35,955.082 1039.73,959.804 1036.52,963.496C1033.94,966.458 1030.65,968.236 1026.62,968.729L1027.3,968.729L1042.75,1000.8L1044.4,1000.8L1028.58,968.474L1031.45,967.45C1035.05,966.166 1037.93,963.887 1040.06,960.553C1042.12,957.332 1043.14,953.589 1043.14,949.325C1043.14,943.179 1041.51,938.357 1038.18,934.904C1035.12,931.733 1030.97,930.011 1025.75,929.598ZM1008.14,965.995L1024.22,965.995C1028.78,965.995 1032.41,964.434 1035.13,961.312C1037.84,958.19 1039.2,954.194 1039.2,949.325C1039.2,943.927 1037.79,939.746 1034.97,936.783C1032.14,933.819 1028.19,932.337 1023.11,932.337L1008.14,932.337L1008.14,965.995Z" style="fill:white;"/>
                <path d="M1132.36,966.789L1102.46,966.789L1102.46,998.066L1136.86,998.066L1136.86,1003.68L1096.43,1003.68L1096.43,926.622L1136.6,926.622L1136.6,932.337L1102.46,932.337L1102.46,961.18L1132.36,961.18L1132.36,966.789ZM1100.32,929.498L1100.32,1000.8L1098.57,1000.8L1098.57,929.498L1100.32,929.498Z" style="fill:white;"/>
                <path d="M1204.99,994.044L1205.15,994.891L1205.36,994.044L1225.47,926.622L1232.14,926.622L1208.06,1003.68L1202.34,1003.68L1178.26,926.622L1184.88,926.622L1204.99,994.044ZM1207.37,995.036L1226.92,929.498L1228.91,929.498L1206.63,1000.8L1203.77,1000.8L1181.49,929.498L1183.43,929.498L1202.94,994.933L1203.06,995.573C1203.48,997.796 1205.15,997.767 1205.15,997.767C1205.15,997.767 1206.67,997.851 1207.19,995.785L1207.37,995.036Z" style="fill:white;"/>
                <path d="M1285.4,1003.68L1279.36,1003.68L1279.36,926.622L1285.4,926.622L1285.4,1003.68ZM1283.25,1000.8L1281.51,1000.8L1281.51,929.498L1283.25,929.498L1283.25,1000.8Z" style="fill:white;"/>
                <path d="M1375.33,966.789L1345.43,966.789L1345.43,998.066L1379.83,998.066L1379.83,1003.68L1339.39,1003.68L1339.39,926.622L1379.56,926.622L1379.56,932.337L1345.43,932.337L1345.43,961.18L1375.33,961.18L1375.33,966.789ZM1343.28,929.498L1343.28,1000.8L1341.54,1000.8L1341.54,929.498L1343.28,929.498Z" style="fill:white;"/>
                <path d="M1440.28,982.719L1442.13,994.15L1444.46,983.248L1458.28,926.622L1463.67,926.622L1477.27,983.248L1479.55,994.256L1481.56,982.719L1492.94,926.622L1499.08,926.622L1482.67,1003.68L1476.96,1003.68L1462.51,943.61L1460.98,936.465L1459.49,943.61L1444.73,1003.68L1438.96,1003.68L1422.61,926.622L1428.8,926.622L1440.28,982.719ZM1438.2,983.405L1440.04,994.76L1444.2,994.942L1446.51,984.091L1459.83,929.498L1462.11,929.498L1475.22,984.073L1477.48,995.024L1481.64,994.91L1483.64,983.424L1494.58,929.498L1496.24,929.498L1481.06,1000.8L1478.52,1000.8L1464.56,942.77L1463.04,935.669L1458.91,935.694L1457.44,942.774L1443.18,1000.8L1440.58,1000.8L1425.45,929.498L1427.16,929.498L1438.2,983.405Z" style="fill:white;"/>
                <path d="M1582.4,984.73C1582.4,980.425 1581.17,977.038 1578.72,974.569C1576.27,972.099 1571.69,969.735 1564.99,967.477C1558.28,965.219 1553.36,962.697 1550.22,959.909C1546.09,956.276 1544.03,951.477 1544.03,945.515C1544.03,939.623 1546.06,934.825 1550.11,931.12C1554.17,927.416 1559.41,925.563 1565.83,925.563C1572.39,925.563 1577.76,927.716 1581.92,932.02C1586.08,936.324 1588.16,941.863 1588.16,948.637L1582.08,948.637C1582.08,943.451 1580.62,939.261 1577.71,936.068C1574.8,932.875 1570.84,931.279 1565.83,931.279C1560.96,931.279 1557.13,932.593 1554.32,935.222C1551.52,937.85 1550.11,941.246 1550.11,945.409C1550.11,949.29 1551.44,952.465 1554.08,954.935C1556.73,957.404 1560.94,959.601 1566.73,961.524C1572.52,963.446 1576.89,965.44 1579.86,967.504C1582.82,969.568 1585.01,971.993 1586.42,974.78C1587.83,977.568 1588.54,980.849 1588.54,984.624C1588.54,990.657 1586.5,995.517 1582.42,999.204C1578.35,1002.89 1572.96,1004.73 1566.26,1004.73C1561.74,1004.73 1557.62,1003.81 1553.9,1001.96C1550.17,1000.1 1547.27,997.44 1545.16,993.964C1543.07,990.489 1542.02,986.388 1542.02,981.66L1548.05,981.66C1548.05,987.093 1549.69,991.362 1552.97,994.467C1556.25,997.572 1560.68,999.124 1566.26,999.124C1571.12,999.124 1575.03,997.819 1577.98,995.208C1580.92,992.597 1582.4,989.105 1582.4,984.73ZM1562,928.691C1558.39,929.263 1555.42,930.68 1553.09,932.864C1549.65,936.092 1547.97,940.296 1547.97,945.409C1547.97,950.237 1549.57,954.223 1552.86,957.295C1555.65,959.907 1560.1,962.282 1566.22,964.315C1571.79,966.168 1576.01,968.067 1578.87,970.056C1581.47,971.865 1583.41,973.953 1584.64,976.396C1585.82,978.723 1586.39,981.471 1586.39,984.624C1586.39,989.683 1584.64,993.728 1581.22,996.82C1578.74,999.07 1575.71,1000.54 1572.16,1001.29C1574.88,1000.58 1577.21,999.337 1579.16,997.608C1582.77,994.406 1584.54,990.094 1584.54,984.73C1584.54,979.446 1583.02,975.301 1580.01,972.269C1577.41,969.657 1572.6,967.076 1565.51,964.688C1559.11,962.533 1554.4,960.171 1551.4,957.511L1551.4,957.508C1547.95,954.468 1546.17,950.497 1546.17,945.515C1546.17,940.58 1547.92,936.6 1551.32,933.497C1554.22,930.849 1557.79,929.267 1562,928.691ZM1557.16,1000.34C1556.3,1000.02 1555.46,999.666 1554.64,999.259C1551.32,997.605 1548.71,995.257 1546.83,992.154C1545.48,989.92 1544.65,987.379 1544.32,984.536L1546.04,984.536C1546.55,989.616 1548.45,993.709 1551.74,996.817C1553.31,998.303 1555.11,999.48 1557.16,1000.34ZM1569.42,928.686C1573.84,929.314 1577.58,931.162 1580.61,934.298C1583.6,937.386 1585.36,941.203 1585.86,945.761L1584.09,945.761C1583.62,940.964 1581.94,936.993 1579.07,933.842C1576.55,931.079 1573.34,929.331 1569.42,928.686Z" style="fill:white;"/>
            </g>
        </g>
    </g>
</svg>
