<svg xmlns="http://www.w3.org/2000/svg" xmlns:xlink="http://www.w3.org/1999/xlink" viewBox="0,0,256,256" width="50px" height="50px" fill-rule="nonzero"><g fill="#ffffff" fill-rule="nonzero" stroke="none" stroke-width="1" stroke-linecap="butt" stroke-linejoin="miter" stroke-miterlimit="10" stroke-dasharray="" stroke-dashoffset="0" font-family="none" font-weight="none" font-size="none" text-anchor="none" style="mix-blend-mode: normal"><g transform="scale(5.12,5.12)"><path d="M25,2c-12.703,0 -23,10.297 -23,23c0,12.703 10.297,23 23,23c12.703,0 23,-10.297 23,-23c0,-12.703 -10.297,-23 -23,-23zM25,11c1.657,0 3,1.343 3,3c0,1.657 -1.343,3 -3,3c-1.657,0 -3,-1.343 -3,-3c0,-1.657 1.343,-3 3,-3zM29,38h-2h-4h-2v-2h2v-13h-2v-2h2h4v2v13h2z"></path></g></g></svg>