<?xml version="1.0" encoding="UTF-8" standalone="no"?>
<!DOCTYPE svg PUBLIC "-//W3C//DTD SVG 1.1//EN" "http://www.w3.org/Graphics/SVG/1.1/DTD/svg11.dtd">
<svg width="100%" height="100%" viewBox="0 0 698 698" version="1.1" xmlns="http://www.w3.org/2000/svg" xmlns:xlink="http://www.w3.org/1999/xlink" xml:space="preserve" xmlns:serif="http://www.serif.com/" style="fill-rule:evenodd;clip-rule:evenodd;stroke-linejoin:round;stroke-miterlimit:2;">
    <g transform="matrix(1,0,0,1,-51.3856,-51.3856)">
        <circle cx="400" cy="400" r="348.614" style="fill:rgb(235,235,235);fill-opacity:0;"/>
        <clipPath id="_clip1">
            <circle cx="400" cy="400" r="348.614"/>
        </clipPath>
        <g clip-path="url(#_clip1)">
            <g transform="matrix(1,0,0,1,106.5,66)">
                <path d="M293.5,334L427,800L160,800L293.5,334Z" style="fill:url(#_Radial2);"/>
            </g>
            <g transform="matrix(0.5,-0.866025,0.866025,0.5,-36.0025,487.178)">
                <path d="M293.5,334L427,800L160,800L293.5,334Z" style="fill:url(#_Radial3);"/>
            </g>
            <g transform="matrix(-0.5,-0.866025,0.866025,-0.5,257.498,821.178)">
                <path d="M293.5,334L427,800L160,800L293.5,334Z" style="fill:url(#_Radial4);"/>
            </g>
            <g transform="matrix(-1,-3.88578e-16,3.88578e-16,-1,693.5,734)">
                <path d="M293.5,334L427,800L160,800L293.5,334Z" style="fill:url(#_Radial5);"/>
            </g>
            <g transform="matrix(-0.5,0.866025,-0.866025,-0.5,836.002,312.822)">
                <path d="M293.5,334L427,800L160,800L293.5,334Z" style="fill:url(#_Radial6);"/>
            </g>
            <g transform="matrix(0.5,0.866025,-0.866025,0.5,542.502,-21.1785)">
                <path d="M293.5,334L427,800L160,800L293.5,334Z" style="fill:url(#_Radial7);"/>
            </g>
        </g>
    </g>
    <defs>
        <radialGradient id="_Radial2" cx="0" cy="0" r="1" gradientUnits="userSpaceOnUse" gradientTransform="matrix(0,348.614,-348.614,0,293.5,334)"><stop offset="0" style="stop-color:white;stop-opacity:1"/><stop offset="1" style="stop-color:white;stop-opacity:0"/></radialGradient>
        <radialGradient id="_Radial3" cx="0" cy="0" r="1" gradientUnits="userSpaceOnUse" gradientTransform="matrix(-301.909,174.307,-174.307,-301.909,293.5,334)"><stop offset="0" style="stop-color:white;stop-opacity:1"/><stop offset="1" style="stop-color:white;stop-opacity:0"/></radialGradient>
        <radialGradient id="_Radial4" cx="0" cy="0" r="1" gradientUnits="userSpaceOnUse" gradientTransform="matrix(-301.909,-174.307,174.307,-301.909,293.5,334)"><stop offset="0" style="stop-color:white;stop-opacity:1"/><stop offset="1" style="stop-color:white;stop-opacity:0"/></radialGradient>
        <radialGradient id="_Radial5" cx="0" cy="0" r="1" gradientUnits="userSpaceOnUse" gradientTransform="matrix(-1.35464e-13,-348.614,348.614,-1.35464e-13,293.5,334)"><stop offset="0" style="stop-color:white;stop-opacity:1"/><stop offset="1" style="stop-color:white;stop-opacity:0"/></radialGradient>
        <radialGradient id="_Radial6" cx="0" cy="0" r="1" gradientUnits="userSpaceOnUse" gradientTransform="matrix(301.909,-174.307,174.307,301.909,293.5,334)"><stop offset="0" style="stop-color:white;stop-opacity:1"/><stop offset="1" style="stop-color:white;stop-opacity:0"/></radialGradient>
        <radialGradient id="_Radial7" cx="0" cy="0" r="1" gradientUnits="userSpaceOnUse" gradientTransform="matrix(301.909,174.307,-174.307,301.909,293.5,334)"><stop offset="0" style="stop-color:white;stop-opacity:1"/><stop offset="1" style="stop-color:white;stop-opacity:0"/></radialGradient>
    </defs>
</svg>
