<svg xmlns="http://www.w3.org/2000/svg" xmlns:xlink="http://www.w3.org/1999/xlink" viewBox="0,0,256,256" width="50px" height="50px" fill-rule="nonzero"><g fill="#ffffff" fill-rule="nonzero" stroke="none" stroke-width="1" stroke-linecap="butt" stroke-linejoin="miter" stroke-miterlimit="10" stroke-dasharray="" stroke-dashoffset="0" font-family="none" font-weight="none" font-size="none" text-anchor="none" style="mix-blend-mode: normal"><g transform="scale(5.12,5.12)"><path d="M24.1875,3c-0.91016,0 -1.85547,0.4375 -2.625,1.21875l-11.625,11.59375c-0.64062,0.56641 -0.9375,1.66406 -0.9375,2.4375v13.5c0,0.76563 0.31641,1.85547 0.90625,2.375l11.59375,11.5625c1.05469,1.07031 2.02734,1.3125 2.65625,1.3125c1.66797,0 2.84375,-1.52344 2.84375,-3.6875v-37c0,-2.27734 -1.46094,-3.3125 -2.8125,-3.3125zM38.28125,6.8125c-0.4375,0.07422 -0.77344,0.42969 -0.82422,0.87109c-0.04687,0.44141 0.19531,0.86328 0.60547,1.03516c5.94922,3 10,9.15234 10,16.28125c0,7.12891 -4.05078,13.28125 -10,16.28125c-0.36719,0.125 -0.625,0.45313 -0.66797,0.83594c-0.04297,0.38672 0.14063,0.76172 0.47266,0.96484c0.32813,0.19922 0.74609,0.19141 1.07031,-0.01953c6.60156,-3.33203 11.125,-10.16797 11.125,-18.0625c0,-7.89453 -4.52344,-14.73047 -11.125,-18.0625c-0.17187,-0.09766 -0.36719,-0.14062 -0.5625,-0.125c-0.03125,0 -0.0625,0 -0.09375,0zM34.71875,12.125c-0.44531,0.05469 -0.80078,0.40234 -0.86328,0.84766c-0.06641,0.44141 0.17188,0.875 0.58203,1.05859c3.90234,2.10547 6.5625,6.21484 6.5625,10.96875c0,4.73828 -2.64844,8.85938 -6.53125,10.96875c-0.48437,0.26563 -0.66016,0.875 -0.39062,1.35938c0.26563,0.48438 0.875,0.66016 1.35938,0.39063c4.50781,-2.44922 7.5625,-7.23437 7.5625,-12.71875c0,-5.5 -3.0625,-10.30469 -7.59375,-12.75c-0.17969,-0.10156 -0.38672,-0.14453 -0.59375,-0.125c-0.03125,0 -0.0625,0 -0.09375,0zM3,15.96875c-1.67578,0 -3.03125,1.35547 -3.03125,3.03125v12c0,1.67578 1.35547,3.03125 3.03125,3.03125h4.46875c-0.32812,-0.78516 -0.46875,-1.62109 -0.46875,-2.28125v-13.5c0,-0.65625 0.16406,-1.48828 0.5,-2.28125zM30.53125,18.40625c-0.48437,0.05859 -0.85156,0.45703 -0.875,0.94531c-0.02344,0.48438 0.30469,0.91797 0.78125,1.02344c2.04688,0.53516 3.5625,2.40234 3.5625,4.625c0,2.22266 -1.51562,4.08984 -3.5625,4.625c-0.53516,0.13672 -0.85547,0.68359 -0.71875,1.21875c0.13672,0.53516 0.68359,0.85547 1.21875,0.71875c2.91406,-0.76172 5.0625,-3.42578 5.0625,-6.5625c0,-3.13672 -2.15234,-5.80078 -5.0625,-6.5625c-0.13281,-0.03906 -0.26953,-0.04687 -0.40625,-0.03125z"></path></g></g></svg>