<?xml version="1.0"?>
<svg xmlns="http://www.w3.org/2000/svg" height="512px" viewBox="-3 0 387 387.09056" width="512px" class=""><g><path d="m35.238281 376.710938c11.59375 6.960937 24.519531 10.378906 37.386719 10.378906 16.933594 0 33.765625-5.929688 47.277344-17.515625l70.585937-60.503907 70.582031 60.503907c23.769532 20.378906 57.800782 23.265625 84.664063 7.136719 32.34375-19.40625 44.472656-61.039063 27.601563-94.789063l-122.226563-244.457031c-11.558594-23.113282-34.789063-37.464844-60.621094-37.464844s-49.066406 14.351562-60.625 37.464844l-122.222656 244.464844c-16.875 33.734374-4.746094 75.375 27.597656 94.78125zm115.25-160.710938c0-22.054688 17.941407-40 40-40 22.054688 0 40 17.945312 40 40 0 13.078125-21.023437 35.71875-39.578125 51.289062l-.421875-.359374-.433593.375c-18.558594-15.542969-39.566407-38.167969-39.566407-51.304688zm-114.226562 80.230469 122.226562-244.453125c6.101563-12.203125 18.359375-19.777344 32-19.777344s25.894531 7.574219 32 19.777344l122.222657 244.453125c9.441406 18.882812 2.65625 42.183593-15.449219 53.042969-15.023438 9.007812-34.0625 7.40625-47.367188-4l-66.359375-56.882813c19.0625-16.460937 46.953125-45.183594 46.953125-72.390625 0-39.695312-32.296875-72-72-72s-72 32.304688-72 72c0 27.207031 27.886719 55.929688 46.949219 72.398438l-66.359375 56.882812c-13.304687 11.40625-32.34375 13.007812-47.367187 4-18.105469-10.867188-24.886719-34.167969-15.449219-53.050781zm0 0" data-original="#000000" class="active-path" data-old_color="#000000" fill="#FFFFFF"/></g> </svg>
