<?xml version="1.0"?>
<svg xmlns="http://www.w3.org/2000/svg" xmlns:xlink="http://www.w3.org/1999/xlink" version="1.1" id="Layer_1" x="0px" y="0px" viewBox="0 0 512 512" style="enable-background:new 0 0 512 512;" xml:space="preserve" width="512px" height="512px" class=""><g><g>
	<g>
		<path d="M467.333,50.482H44.667C20.037,50.482,0,70.519,0,95.148v321.703    c0,24.629,20.037,44.667,44.667,44.667h422.667c24.629,0,44.667-20.037,44.667-44.667V95.148    C512,70.519,491.964,50.482,467.333,50.482z M96.594,391.328c-14.582,0-26.403-11.821-26.403-26.403s11.821-26.403,26.403-26.403    c14.582,0,26.403,11.821,26.403,26.403S111.177,391.328,96.594,391.328z M96.594,246.095c-14.582,0-26.403-11.821-26.403-26.403    s11.821-26.403,26.403-26.403c14.582,0,26.403,11.821,26.403,26.403S111.177,246.095,96.594,246.095z M96.594,173.478    c-14.582,0-26.403-11.821-26.403-26.403s11.821-26.403,26.403-26.403c14.582,0,26.403,11.821,26.403,26.403    S111.177,173.478,96.594,173.478z M202.865,173.478c-14.582,0-26.403-11.821-26.403-26.403s11.821-26.403,26.403-26.403    c14.582,0,26.403,11.821,26.403,26.403S217.448,173.478,202.865,173.478z M309.135,391.328c-14.582,0-26.403-11.821-26.403-26.403    s11.821-26.403,26.403-26.403c14.582,0,26.403,11.821,26.403,26.403S323.719,391.328,309.135,391.328z M309.135,246.095    c-14.582,0-26.403-11.821-26.403-26.403s11.821-26.403,26.403-26.403c14.582,0,26.403,11.821,26.403,26.403    S323.719,246.095,309.135,246.095z M309.135,173.478c-14.582,0-26.403-11.821-26.403-26.403s11.821-26.403,26.403-26.403    c14.582,0,26.403,11.821,26.403,26.403S323.719,173.478,309.135,173.478z M415.406,391.328c-14.582,0-26.403-11.821-26.403-26.403    s11.821-26.403,26.403-26.403c14.582,0,26.403,11.821,26.403,26.403S429.989,391.328,415.406,391.328z M415.406,318.711    c-14.582,0-26.403-11.821-26.403-26.403s11.821-26.403,26.403-26.403c14.582,0,26.403,11.821,26.403,26.403    S429.989,318.711,415.406,318.711z M415.406,246.095c-14.582,0-26.403-11.821-26.403-26.403s11.821-26.403,26.403-26.403    c14.582,0,26.403,11.821,26.403,26.403S429.989,246.095,415.406,246.095z" data-original="#231F20" class="active-path" data-old_color="#231F20" fill="#FFFFFF"/>
	</g>
</g></g> </svg>
