<?xml version="1.0"?>
<svg xmlns="http://www.w3.org/2000/svg" height="512px" viewBox="0 -9 480 480" width="512px" class="hovered-paths"><g><path d="m472 446.207031h-152.550781l-11.59375-174.109375c0-.089844.039062-.167968.039062-.257812.011719-.585938.089844-1.167969.234375-1.734375.042969-.453125.128906-.902344.253906-1.335938.199219-.414062.429688-.808593.6875-1.183593.269532-.519532.59375-1.007813.96875-1.457032.066407-.066406.082032-.152344.144532-.21875l89.816406-89.8125v-33.019531l-14.398438-64.871094h-47.625l13.832032 62.265625c.128906.570313.191406 1.152344.191406 1.734375v10.800781c0 2.121094-.84375 4.15625-2.34375 5.65625l-41.761719 41.761719c-.335937.265625-.695312.507813-1.070312.71875-.316407.289063-.652344.558594-1.007813.800781-.089844 0-.191406 0-.28125.0625-1.015625.492188-2.125.765626-3.253906.800782h-.066406c-.90625-.019532-1.800782-.195313-2.648438-.519532-.234375-.085937-.464844-.183593-.6875-.296874-.761718-.347657-1.464844-.816407-2.078125-1.382813-.082031-.074219-.183593-.097656-.257812-.175781l-.054688-.082032c-.582031-.582031-1.074219-1.257812-1.449219-1.992187l-38.238281-76.574219c-1.125-2.253906-1.125-4.902344 0-7.152344l57.359375-114.632812-44.480468 5.558594-8 20-37.421876 93.546875 8.910157 53.503906c.722656 4.351563-2.214844 8.46875-6.566407 9.199219-.441406.074218-.882812.113281-1.328124.113281-3.910157-.007813-7.242188-2.835937-7.882813-6.691406l-9.277344-55.679688c-.015625-.246093-.015625-.496093 0-.742187-.019531-.265625-.019531-.535156 0-.800782 0-.941406.171875-1.878906.503907-2.761718l42.917968-107.4375-45.296875 5.679687-30.054687 105.191407 6.402344 38.710937c.726562 4.359375-2.21875 8.484375-6.578126 9.210937-4.359374.726563-8.480468-2.21875-9.207031-6.578124l-6.730469-40.503907c-.195312-1.167969-.128906-2.367187.203126-3.503906l28.253906-98.777344-47.015625 11.464844-13.414063 89.503906 10.175782 65.601563c15.117187.101562 30.148437 2.34375 44.636718 6.664062l.632813.175782c13.226562 3.941406 25.5625 10.402343 36.328125 19.03125 2.875 2.949218 3.039062 7.597656.382812 10.742187s-7.265625 3.761719-10.652344 1.425781c-9.03125-7.175781-19.351562-12.558594-30.402343-15.855468-.175781 0-.34375-.089844-.511719-.144532-14.003906-4.089844-28.523438-6.152344-43.113281-6.121094-.726563 0-1.445313 0-2.175781 0-3.425782.601563-6.84375-1.078124-8.460938-4.160156l-.800781-1.527344c-.40625-.777343-.675781-1.617187-.800781-2.488281l-11.199219-72.160156c-.058594-.546875-.058594-1.097656 0-1.648437 0-.15625-.058594-.300782 0-.460938l5.703125-50.722656-23.9375 9.601562-14.246094 49.855469 47.199219 141.648437c.429687 1.289063.523437 2.664063.273437 4l-28.800781 155.601563-1.640625 18.941406h-88.6875c-4.417969 0-8 3.582031-8 8s3.582031 8 8 8h464c4.417969 0 8-3.582031 8-8s-3.582031-8-8-8zm-318.351562-140c2.207031-3.824219 7.101562-5.136719 10.925781-2.925781l6.929687 4 8-13.855469c2.210938-3.832031 7.105469-5.144531 10.933594-2.933593 3.828125 2.207031 5.140625 7.101562 2.929688 10.933593l-8 13.855469 6.929687 4 8-13.855469c2.222656-3.796875 7.09375-5.082031 10.902344-2.882812 3.808593 2.199219 5.125 7.058593 2.953125 10.882812l-8 13.855469 6.925781 4 8-13.855469c1.421875-2.496093 4.066406-4.042969 6.9375-4.046875 2.871094-.007812 5.527344 1.523438 6.957031 4.015625 1.429688 2.488281 1.414063 5.554688-.035156 8.03125l-8 13.855469 6.925781 4 8-13.855469c1.417969-2.496093 4.066407-4.042969 6.9375-4.046875 2.871094-.007812 5.523438 1.523438 6.953125 4.015625 1.429688 2.488281 1.417969 5.554688-.035156 8.03125l-8 13.855469 6.929688 4 8-13.855469c1.417968-2.496093 4.066406-4.042969 6.9375-4.046875 2.871093-.007812 5.523437 1.523438 6.953124 4.015625 1.429688 2.488281 1.417969 5.554688-.035156 8.03125l-8 13.855469 6.921875 4c2.492188 1.417969 4.039063 4.066406 4.042969 6.9375.007812 2.867188-1.523438 5.523438-4.015625 6.953125-2.488281 1.429687-5.550781 1.414063-8.027344-.035156l-6.929687-4-8 13.855469c-2.222656 3.792968-7.09375 5.082031-10.902344 2.882812s-5.128906-7.058594-2.953125-10.882812l8-13.855469-6.929687-4-8 13.855469c-1.417969 2.496093-4.066407 4.039062-6.9375 4.046874-2.871094.003907-5.523438-1.527343-6.953126-4.015624-1.429687-2.492188-1.417968-5.554688.035157-8.03125l8-13.855469-6.925781-4-8 13.855469c-1.421876 2.496093-4.066407 4.039062-6.9375 4.046874-2.871094.003907-5.527344-1.527343-6.957032-4.015624-1.429687-2.492188-1.414062-5.554688.035156-8.03125l8-13.855469-6.925781-4-8 13.855469c-1.417969 2.496093-4.066406 4.039062-6.9375 4.046874-2.871093.003907-5.523437-1.527343-6.953125-4.015624-1.429687-2.492188-1.417968-5.554688.035156-8.03125l8-13.855469-6.929687-4-8 13.855469c-2.207031 3.828124-7.101563 5.140624-10.929687 2.933593-3.832032-2.210937-5.144532-7.105469-2.933594-10.933593l8-13.855469-6.921875-4c-3.824219-2.210938-5.136719-7.101563-2.925781-10.929688zm0 0" data-original="#000000" class="hovered-path active-path" data-old_color="#000000" fill="#FFFFFF"/></g> </svg>
