<?xml version="1.0"?>
<svg xmlns="http://www.w3.org/2000/svg" id="Capa_1" enable-background="new 0 0 511.266 511.266" height="512px" viewBox="0 0 511.266 511.266" width="512px"><g><path d="m127.594 380.844v70.422h256.077v-70.422zm77.819 46.818c-4.694 4.57-11.86 5.714-17.68 2.62-5.126-2.725-8.248-8.365-7.903-14.148.389-6.503 5.163-12.174 11.503-13.666 6.349-1.494 13.15 1.379 16.421 7.043 3.367 5.829 2.432 13.379-2.341 18.151zm60.83 0c-4.79 4.663-12.137 5.744-17.996 2.443-5.098-2.872-8.112-8.665-7.542-14.487.594-6.069 4.903-11.236 10.746-12.958 6.383-1.882 13.477.865 16.947 6.535 3.582 5.855 2.709 13.604-2.155 18.467zm65.15-9.13c-.662 6.384-5.386 11.721-11.64 13.151-6.05 1.384-12.536-1.286-15.889-6.5-3.172-4.932-3.154-11.374.03-16.298 3.463-5.356 10.227-7.983 16.397-6.327 6.999 1.878 11.847 8.72 11.102 15.974z" data-original="#000000" class="active-path" data-old_color="#000000" fill="#FFFFFF"/><path d="m125.19 290.844h260.886c13.129 0 24.961 5.654 33.194 14.652 21.182-31.802 32.929-69.534 32.929-108.931 0-108.386-88.179-196.565-196.566-196.565s-196.566 88.179-196.566 196.565c0 39.397 11.747 77.128 32.93 108.929 8.233-8.997 20.064-14.65 33.193-14.65z" data-original="#000000" class="active-path" data-old_color="#000000" fill="#FFFFFF"/><path d="m386.076 350.844h-260.886c-8.284 0-15-6.716-15-15s6.716-15 15-15h260.886c8.284 0 15 6.716 15 15s-6.716 15-15 15z" data-original="#000000" class="active-path" data-old_color="#000000" fill="#FFFFFF"/><path d="m386.076 511.266h-260.886c-8.284 0-15-6.716-15-15s6.716-15 15-15h260.886c8.284 0 15 6.716 15 15s-6.716 15-15 15z" data-original="#000000" class="active-path" data-old_color="#000000" fill="#FFFFFF"/></g> </svg>
