<?xml version="1.0"?>
<svg xmlns="http://www.w3.org/2000/svg" id="Capa_1" enable-background="new 0 0 512 512" height="512px" viewBox="0 0 512 512" width="512px" class=""><g><path d="m136 152h-60c-8.284 0-15-6.716-15-15s6.716-15 15-15h60c8.284 0 15 6.716 15 15s-6.716 15-15 15z" data-original="#000000" class="active-path" data-old_color="#000000" fill="#FFFFFF"/><path d="m376 152h60c8.284 0 15-6.716 15-15s-6.716-15-15-15h-60c-8.284 0-15 6.716-15 15s6.716 15 15 15z" data-original="#000000" class="active-path" data-old_color="#000000" fill="#FFFFFF"/><path d="m130.54 62.754-21.212-21.213c-5.858-5.858-5.858-15.355 0-21.213s15.355-5.858 21.213 0l21.212 21.213c5.858 5.858 5.858 15.355 0 21.213-5.857 5.857-15.353 5.859-21.213 0z" data-original="#000000" class="active-path" data-old_color="#000000" fill="#FFFFFF"/><path d="m381.46 62.754 21.212-21.213c5.858-5.858 5.858-15.355 0-21.213s-15.355-5.858-21.213 0l-21.212 21.213c-5.858 5.858-5.858 15.355 0 21.213 5.857 5.857 15.353 5.859 21.213 0z" data-original="#000000" class="active-path" data-old_color="#000000" fill="#FFFFFF"/><path d="m256 62c-8.284 0-15-6.716-15-15v-32c0-8.284 6.716-15 15-15s15 6.716 15 15v32c0 8.284-6.716 15-15 15z" data-original="#000000" class="active-path" data-old_color="#000000" fill="#FFFFFF"/><path d="m79.328 253.673c-5.858-5.858-5.858-15.355 0-21.213l21.213-21.213c5.857-5.858 15.355-5.858 21.213 0s5.858 15.355 0 21.213l-21.213 21.213c-5.858 5.857-15.356 5.858-21.213 0z" data-original="#000000" class="active-path" data-old_color="#000000" fill="#FFFFFF"/><path d="m432.672 253.673c5.858-5.858 5.858-15.355 0-21.213l-21.213-21.213c-5.857-5.858-15.355-5.858-21.213 0s-5.858 15.355 0 21.213l21.213 21.213c5.858 5.857 15.356 5.858 21.213 0z" data-original="#000000" class="active-path" data-old_color="#000000" fill="#FFFFFF"/><path d="m151 334.57v-47.57c0-16.569 13.431-30 30-30 22.259 0 43.481 8.155 60 22.98v-157.98c0-26.07-16.71-48.31-39.98-56.57-9.443-3.353-20.02 3.333-20.02 14.49v81.23c0 32.769-13.327 63.952-36.384 87.236-15.507 15.659-26.514 35.218-31.866 56.604l-10.39 41.561c-6.678 26.711-30.677 45.449-58.21 45.449h-29.15c-8.284 0-15 6.716-15 15v90c0 8.284 6.716 15 15 15h136c49.931 0 90-40.683 90-90 0-7.424 0-66.539 0-75 0-28.3-19.58-52.02-45.94-58.34-6.837-1.652-14.06 3.266-14.06 11.32v34.59c0 24.843-9.021 48.75-25.251 67.348-12.421 14.233-35.839-4.273-22.784-19.656 9.637-11.357 18.035-26.298 18.035-47.692z" data-original="#000000" class="active-path" data-old_color="#000000" fill="#FFFFFF"/><path d="m361 334.57v-47.57c0-16.569-13.431-30-30-30-22.259 0-43.481 8.155-60 22.98v-157.98c0-26.07 16.71-48.31 39.98-56.57 9.443-3.353 20.02 3.333 20.02 14.49v81.23c0 32.769 13.327 63.952 36.384 87.236 15.507 15.659 26.514 35.218 31.866 56.604l10.39 41.561c6.678 26.711 30.677 45.449 58.21 45.449h29.15c8.284 0 15 6.716 15 15v90c0 8.284-6.716 15-15 15h-136c-49.931 0-90-40.683-90-90 0-7.424 0-66.539 0-75 0-28.3 19.58-52.02 45.94-58.34 6.837-1.652 14.06 3.266 14.06 11.32v34.59c0 24.843 9.021 48.75 25.251 67.348 12.421 14.233 35.839-4.273 22.784-19.656-9.637-11.357-18.035-26.298-18.035-47.692z" data-original="#000000" class="active-path" data-old_color="#000000" fill="#FFFFFF"/></g> </svg>
