<?xml version="1.0"?>
<svg xmlns="http://www.w3.org/2000/svg" xmlns:xlink="http://www.w3.org/1999/xlink" version="1.1" id="Capa_1" x="0px" y="0px" viewBox="0 0 216.75 216.75" style="enable-background:new 0 0 216.75 216.75;" xml:space="preserve" width="512px" height="512px" class=""><g><path d="M211.275,80.102h-86.662l-15.448-67.043H5.477C2.451,13.059,0,15.51,0,18.535v112.637c0,3.024,2.451,5.477,5.477,5.477  h86.659l15.449,67.043h103.69c3.023,0,5.475-2.451,5.475-5.477V85.578C216.75,82.554,214.299,80.102,211.275,80.102z M98.21,72.485  c0,20.145-16.388,36.533-36.532,36.533c-20.144,0-36.533-16.389-36.533-36.533c0-20.144,16.389-36.532,36.533-36.532  c8.14,0,15.842,2.619,22.272,7.573l-8.494,11.025c-3.974-3.063-8.739-4.682-13.778-4.682c-12.47,0-22.616,10.146-22.616,22.615  c0,12.471,10.145,22.616,22.616,22.616c10.044,0,18.579-6.581,21.52-15.657h-21.52V65.526H98.21V72.485z M112.11,154.849  l-3.212-14.474h9.385L112.11,154.849z M197.881,115.623h-14.187c-1.438,5.812-5.434,18.668-14.931,32.243l21.054,21.477  l-5.475,5.367l-20.269-20.676c-6.179,7.51-14.147,14.948-24.426,21.259l-4.012-6.533c9.713-5.963,17.216-13.101,22.984-20.287  l-14.999-15.301l5.475-5.367l14.122,14.405c7.292-10.82,10.909-20.988,12.507-26.587h-42.928l-0.564-2.445v-5.223h28.99v-8.221  h7.668v8.221h28.988V115.623z" data-original="#000000" class="active-path" data-old_color="#000000" fill="#FFFFFF"/></g> </svg>
