<svg id="Layer_1" data-name="Layer 1" xmlns="http://www.w3.org/2000/svg" viewBox="0 0 234.76 289.87"><defs><style>.cls-1{fill:none;}.cls-2{fill:#fff;}</style></defs><title>jeff</title><path class="cls-1" d="M239.06,374V84.13H473.82V374H239.06Zm53.63-62.18L290.92,313c2.44,4.33,4.16,9.34,7.47,12.85,10.12,10.71,20.4,21.36,31.54,31,6,5.13,11.66,11.57,20.45,12.59,7.6,0.88,15.15,2.47,22.77,2.91,12,0.7,23.84.74,34.57-6.6,8.28-5.67,14.44-13.17,20.06-21.08,4.56-6.42,8.11-13.6,11.63-20.68,3-6,6.4-12.19,7.57-18.67,1.2-6.68.75-13.51,6.56-18.46a5.42,5.42,0,0,0,1.17-2.73c2.51-10,5.26-19.92,7.37-30A206.42,206.42,0,0,0,465.5,231a44.64,44.64,0,0,0-.61-14.28c-1.15-4.82-4.54-5.44-8.81-2.8-1.56,1-3.3,1.67-5.38,2.7-0.29-1.61-.48-2.38-0.56-3.16-1-10.43-1.28-21-3-31.26-1.85-11.12-5-22-7.57-33-3.85-16.78-14.81-28.18-28.39-37.53-11.48-7.9-23.44-14.79-36.8-19.36-14.94-5.11-29.41-6.24-43.84,1-1,.48-1.44,1.92-2.15,2.91,1,0.59,2.06,1.7,3.06,1.67,5-.14,9.92-0.58,14.88-0.91,4.17-.28,8.66-1.72,11.1,3.57l3.45-2.4c2.63,1.28,4.69,2.47,6.88,3.3,3.81,1.45,7.77,2.53,11.55,4,2.24,0.89,5.13,1.78,6.23,3.59,5.64,9.21,12.31,18,15.28,28.56,2.68,9.58,4.8,19.31,7.24,29,2.29,9,4.4,18.21,13.85,23,1.22,0.62,2.14,1.83,4.36,3.8-4,.58-6.86,1.74-9.36,1.23-10.77-2.23-20,1.68-29,6.58-8.86,4.82-13,13.28-11.83,23.18,1.09,8.88,2.24,17.76,3.16,26.66,0.65,6.28.78,12.61,1.47,18.89,0.74,6.77-2.14,10.91-8.88,11.92-4,.59-7.49.62-11.35-1.89-2.21-1.43-6.43.12-9.71,0.59-0.47.07-.73,1.57-1.09,2.41,2.46,1,4.83,2.56,7.39,3,3.5,0.62,6.48,1.19,7.44,5.32a4.68,4.68,0,0,0,2.67,2.69,101.27,101.27,0,0,0,12.76,4.1c2.53,0.58,5.65.56,5.12,3.8-0.24,1.49-3.17,2.95-5.16,3.68-15.4,5.64-30.46,1.42-45.43-2.13-3.87-.92-7.23-1.34-11.4.88a20.11,20.11,0,0,0,3.35,2c4.4,1.48,8.82,2.93,13.28,4.19s8.83,2.91,13.32,3.19c8.94,0.55,17.93.19,26.89,0.44,1.37,0,2.7,1.35,4,2.08-0.74,1.18-1.22,3-2.26,3.42-3.85,1.45-7.81,2.94-11.85,3.41-4.24.5-8.61-.25-12.92-0.25-1.22,0-3.33.56-3.47,1.21a4.63,4.63,0,0,0,1.11,3.9c3.77,3.09,7,7.21,12.69,7,6-.18,12-0.19,18-0.27,8.26-.12,16.2-8.2,16.93-16.4,0.27-3,1.59-6.75,3.77-8.5,2.38-1.91,6.3-1.9,10.48-3-0.18.5,0.12-.25,0.36-1,0.8-2.53,1.58-5.06,2.36-7.6-2.69.34-5.39,0.7-8.08,1a6.25,6.25,0,0,1-1.57-.47c-0.23-1.62-.15-3.66-0.84-5.39-0.94-2.37-2.12-6-3.81-6.4-3.18-.7-4.06-2.35-4.77-4.84-1.58-5.53-3.52-11-4.75-16.58a158.05,158.05,0,0,0-11.83-35.36c-1.71-3.54.27-6.71,3.42-8.38,3.38-1.79,7.15-2.82,10.76-4.17l0.53,0.94-10.36,6.21,1.1,1.86,12.36-7.24c-1.77,7.4,2.82,8.77,7.51,10,3.75,1,7.51,1.88,11.27,2.81l0.26,1.67-10,3.05-0.13,1.32c4.91,0.72,10.17,2.9,14.66,1.83,6.8-1.62,11.66.14,11.28,7-0.4,7.41-1,15-3.2,22s-5.53,14.19-13.8,17.17c-2.18.79-3.52,3.9-5.25,5.95l1.28,1.49a51.33,51.33,0,0,0,5.66-1.2c5.59-1.83,8.7.66,7.49,6.43-1,4.83-2,9.76-3.92,14.25a9.74,9.74,0,0,1-6.12,4.77c-3.12.7-4.68,1.77-5.19,4.91a123.87,123.87,0,0,1-3.18,16c-1.12,3.7-2.72,7.93-5.49,10.31a125.54,125.54,0,0,1-20.28,14.22c-2.8,1.56-7.16.41-10.81,0.32-1.69,0-3.37-.62-5.07-0.7-2.28-.1-4.59.25-6.85,0-3-.28-6.23-2-8.82-1.2-8.09,2.42-13.21-2.45-18-7-8.06-7.6-15.38-16-23.08-24C305.24,324.5,298.94,318.18,292.69,311.81Zm65.42-104.56c-1.7,0-3.45.45-4.76-.12-1.57-.68-2.61-2.53-4.15-3.37-13.88-7.58-28.55-5.59-43-2.76-3.05.6-5.51,4.23-8.25,6.47,4.8,1.38,8.73,2.39,12.49,2,12.47-1.43,24.4,1.34,36.36,4C354.26,215.07,354.22,215.22,358.12,207.25Zm-26.74,12.18-20.9,6a26.33,26.33,0,0,1,2.13-2.21c1-.9,2.23-1.66,4-2.95-10.12,2-11.12,3.06-12.07,12.77l14.2-3.74c5.82,3.93,9.8,3.47,15.15-2.09,0.58-.61,2.23-0.39,3.34-0.24,2.85,0.37,5.69.92,8.53,1.4l0.46-1.6-2.65-3,8.69-.57,0-1.58c-7.11-1.3-13.41-6.82-21.79-3.47Zm-77.13,18.78c2.41-7.23,2.39-9.39-1.59-10.82a10.07,10.07,0,0,0-7.54.83c-2.41,1.4-1.12,8.13,1.32,11.42Zm80.38,37.55c-9.2,2.25-14.1,9.9-20.46,15.64-0.54.49,0.51,2.75,0.82,4.19,1.61-.63,3.76-0.8,4.74-2,3-3.59,5.51-7.66,8.46-11.33A86.64,86.64,0,0,1,334.63,275.77ZM269.06,256c1.95-2.24,3.33-3.19,3.72-4.45a6.24,6.24,0,0,0-.42-4.37c-0.46-.85-2.14-1.05-3.28-1.54a24.61,24.61,0,0,0-.84,4.34A44.79,44.79,0,0,0,269.06,256Z" transform="translate(-239.06 -84.13)"/><path class="cls-2" d="M292.69,311.81c6.25,6.37,12.54,12.69,18.74,19.11,7.7,8,15,16.36,23.08,24,4.8,4.53,9.92,9.4,18,7,2.58-.77,5.84.92,8.82,1.2,2.26,0.21,4.57-.14,6.85,0,1.7,0.08,3.37.66,5.07,0.7,3.65,0.08,8,1.24,10.81-.32a125.54,125.54,0,0,0,20.28-14.22c2.77-2.37,4.37-6.61,5.49-10.31a123.87,123.87,0,0,0,3.18-16c0.51-3.14,2.07-4.21,5.19-4.91a9.74,9.74,0,0,0,6.12-4.77c1.92-4.49,2.91-9.42,3.92-14.25,1.2-5.77-1.91-8.26-7.49-6.43a51.33,51.33,0,0,1-5.66,1.2l-1.28-1.49c1.73-2,3.07-5.16,5.25-5.95,8.28-3,11.58-10.06,13.8-17.17s2.8-14.64,3.2-22c0.37-6.89-4.48-8.65-11.28-7-4.49,1.07-9.75-1.11-14.66-1.83l0.13-1.32,10-3.05-0.26-1.67c-3.76-.93-7.52-1.83-11.27-2.81-4.69-1.22-9.29-2.58-7.51-10l-12.36,7.24-1.1-1.86,10.36-6.21-0.53-.94c-3.6,1.36-7.38,2.39-10.76,4.17-3.15,1.67-5.13,4.84-3.42,8.38a158.05,158.05,0,0,1,11.83,35.36c1.22,5.61,3.16,11.05,4.75,16.58,0.72,2.5,1.59,4.14,4.77,4.84,1.68,0.37,2.87,4,3.81,6.4,0.69,1.73.61,3.77,0.84,5.39a6.25,6.25,0,0,0,1.57.47c2.7-.31,5.39-0.67,8.08-1-0.79,2.53-1.56,5.07-2.36,7.6-0.24.78-.54,1.53-0.36,1-4.18,1.07-8.1,1.06-10.48,3-2.18,1.75-3.5,5.5-3.77,8.5-0.74,8.19-8.67,16.28-16.93,16.4-6,.09-12,0.09-18,0.27-5.66.17-8.92-3.95-12.69-7a4.63,4.63,0,0,1-1.11-3.9c0.14-.65,2.25-1.2,3.47-1.21,4.31,0,8.68.74,12.92,0.25,4-.47,8-2,11.85-3.41,1-.39,1.52-2.24,2.26-3.42-1.35-.72-2.68-2-4-2.08-9-.25-18,0.11-26.89-0.44-4.49-.28-8.92-1.95-13.32-3.19s-8.88-2.71-13.28-4.19a20.11,20.11,0,0,1-3.35-2c4.17-2.21,7.54-1.8,11.4-.88,15,3.55,30,7.76,45.43,2.13,2-.73,4.91-2.19,5.16-3.68,0.53-3.23-2.59-3.22-5.12-3.8a101.27,101.27,0,0,1-12.76-4.1,4.68,4.68,0,0,1-2.67-2.69c-1-4.13-3.94-4.7-7.44-5.32-2.56-.45-4.93-2-7.39-3,0.36-.84.62-2.35,1.09-2.41,3.28-.46,7.5-2,9.71-0.59,3.86,2.5,7.4,2.48,11.35,1.89,6.73-1,9.61-5.15,8.88-11.92-0.68-6.27-.82-12.61-1.47-18.89-0.92-8.9-2.06-17.78-3.16-26.66-1.22-9.91,3-18.36,11.83-23.18,9-4.9,18.24-8.82,29-6.58,2.49,0.52,5.33-.64,9.36-1.23-2.23-2-3.15-3.18-4.36-3.8-9.45-4.79-11.56-14-13.85-23-2.44-9.64-4.56-19.38-7.24-29-3-10.59-9.64-19.34-15.28-28.56-1.1-1.8-4-2.69-6.23-3.59-3.78-1.51-7.74-2.59-11.55-4-2.19-.83-4.25-2-6.88-3.3l-3.45,2.4c-2.44-5.3-6.93-3.85-11.1-3.57-5,.33-9.91.77-14.88,0.91-1,0-2-1.09-3.06-1.67,0.7-1,1.19-2.42,2.15-2.91,14.43-7.28,28.9-6.16,43.84-1,13.36,4.57,25.32,11.46,36.8,19.36,13.58,9.35,24.55,20.75,28.39,37.53,2.52,11,5.72,21.91,7.57,33,1.72,10.3,2,20.83,3,31.26,0.07,0.78.27,1.55,0.56,3.16,2.09-1,3.82-1.73,5.38-2.7,4.27-2.64,7.66-2,8.81,2.8A44.64,44.64,0,0,1,465.5,231a206.42,206.42,0,0,1-3.42,23.15c-2.12,10.07-4.86,20-7.37,30a5.42,5.42,0,0,1-1.17,2.73c-5.8,5-5.35,11.78-6.56,18.46-1.17,6.48-4.58,12.64-7.57,18.67-3.51,7.08-7.07,14.27-11.63,20.68-5.62,7.91-11.78,15.41-20.06,21.08-10.73,7.34-22.59,7.3-34.57,6.6-7.62-.44-15.17-2-22.77-2.91-8.79-1-14.5-7.45-20.45-12.59-11.14-9.61-21.42-20.26-31.54-31-3.31-3.5-5-8.52-7.47-12.85ZM425.77,213.4c-10.36-7.59-30.56-6-36.19,2Z" transform="translate(-239.06 -84.13)"/><path class="cls-2" d="M358.12,207.25c-3.9,8-3.86,7.82-11.35,6.16-12-2.64-23.89-5.41-36.36-4-3.76.43-7.69-.58-12.49-2,2.73-2.24,5.19-5.87,8.25-6.47,14.49-2.83,29.16-4.82,43,2.76,1.54,0.84,2.58,2.69,4.15,3.37C354.67,207.71,356.42,207.25,358.12,207.25Z" transform="translate(-239.06 -84.13)"/><path class="cls-2" d="M331.38,219.43l-0.92-1.2c8.38-3.35,14.68,2.18,21.79,3.47l0,1.58-8.69.57,2.65,3-0.46,1.6c-2.84-.48-5.67-1-8.53-1.4-1.11-.15-2.76-0.36-3.34.24-5.35,5.56-9.33,6-15.15,2.09l-14.2,3.74c1-9.7,2-10.79,12.07-12.77-1.76,1.29-2.94,2-4,2.95a26.33,26.33,0,0,0-2.13,2.21Z" transform="translate(-239.06 -84.13)"/><path class="cls-2" d="M254.25,238.21l-7.82,1.44c-2.44-3.29-3.73-10-1.32-11.42a10.07,10.07,0,0,1,7.54-.83C256.64,228.83,256.65,231,254.25,238.21Z" transform="translate(-239.06 -84.13)"/><path class="cls-2" d="M334.63,275.77a86.64,86.64,0,0,0-6.43,6.54c-3,3.67-5.42,7.74-8.46,11.33-1,1.16-3.13,1.34-4.74,2-0.31-1.44-1.37-3.7-.82-4.19C320.53,285.67,325.43,278,334.63,275.77Z" transform="translate(-239.06 -84.13)"/><path class="cls-2" d="M269.06,256a44.79,44.79,0,0,1-.82-6,24.61,24.61,0,0,1,.84-4.34c1.14,0.49,2.82.69,3.28,1.54a6.24,6.24,0,0,1,.42,4.37C272.4,252.8,271,253.75,269.06,256Z" transform="translate(-239.06 -84.13)"/><path class="cls-1" d="M425.77,213.4l-36.19,2C395.21,207.44,415.41,205.81,425.77,213.4Z" transform="translate(-239.06 -84.13)"/></svg>