<?xml version="1.0"?>
<svg xmlns="http://www.w3.org/2000/svg" xmlns:xlink="http://www.w3.org/1999/xlink" version="1.1" id="Capa_1" x="0px" y="0px" viewBox="0 0 512 512" style="enable-background:new 0 0 512 512;" xml:space="preserve" width="512px" height="512px" class=""><g><g>
	<g>
		<path d="M256,0C114.833,0,0,114.833,0,256s114.833,256,256,256s256-114.833,256-256S397.167,0,256,0z M205.792,93.542    c24.333-24.333,66.75-24.333,91.083,0c12.167,12.167,18.854,28.333,18.854,45.542c0,17.188-6.688,33.354-18.854,45.521    c-2.083,2.083-4.813,3.125-7.542,3.125c-2.729,0-5.458-1.042-7.541-3.125c-4.167-4.167-4.167-10.917,0-15.083    c16.792-16.792,16.792-44.104,0-60.896c-16.292-16.292-44.625-16.292-60.917,0c-4.167,4.167-10.917,4.167-15.083,0    C201.625,104.458,201.625,97.708,205.792,93.542z M391.771,391.771c-37.438,37.438-86.604,56.146-135.771,56.146    s-98.333-18.708-135.771-56.146c-74.875-74.854-74.875-196.688,0-271.542c4.167-4.167,10.917-4.167,15.083,0l256.458,256.458    C395.938,380.854,395.938,387.604,391.771,391.771z M418.458,306.208c-2.083,2.083-4.813,3.125-7.542,3.125    s-5.458-1.042-7.542-3.125c-4.167-4.167-4.167-10.917,0-15.083c8.146-8.146,12.625-18.958,12.625-30.458    s-4.479-22.313-12.625-30.458c-16.771-16.771-44.083-16.792-60.896,0c-4.167,4.167-10.917,4.167-15.083,0    c-4.167-4.167-4.167-10.917,0-15.083c24.354-24.354,66.75-24.313,91.063,0c12.167,12.167,18.875,28.333,18.875,45.542    C437.333,277.875,430.625,294.042,418.458,306.208z" data-original="#000000" class="active-path" data-old_color="#000000" fill="#FFFFFF"/>
	</g>
</g></g> </svg>
