<?xml version="1.0"?>
<svg xmlns="http://www.w3.org/2000/svg" xmlns:xlink="http://www.w3.org/1999/xlink" version="1.1" id="Capa_1" x="0px" y="0px" viewBox="0 0 512 512" style="enable-background:new 0 0 512 512;" xml:space="preserve" width="512px" height="512px" class=""><g><g>
	<g>
		<path d="M210,90h75c24.814,0,45-20.186,45-45c0-24.814-20.186-45-45-45h-90c-8.291,0-15,6.709-15,15v60v45h-60    C53.699,120,0,173.699,0,240v167c0,8.399,6.599,15,15,15h255V225c0-42.627,20.246-80.24,51.194-105H210V90z M240,225    c0,24.814-20.186,45-45,45c-24.814,0-45-20.186-45-45c0-24.814,20.186-45,45-45C219.814,180,240,200.186,240,225z" data-original="#000000" class="active-path" data-old_color="#000000" fill="#FFFFFF"/>
	</g>
</g><g>
	<g>
		<path d="M406,120c-57.99,0-106,47.01-106,105v197h197c8.284,0,15-6.716,15-15V225C512,167.01,463.99,120,406,120z M452,240h-92    c-8.291,0-15-6.709-15-15s6.709-15,15-15h92c8.291,0,15,6.709,15,15S460.291,240,452,240z" data-original="#000000" class="active-path" data-old_color="#000000" fill="#FFFFFF"/>
	</g>
</g><g>
	<g>
		<path d="M120,452v45c0,8.291,6.709,15,15,15h45v-60H120z" data-original="#000000" class="active-path" data-old_color="#000000" fill="#FFFFFF"/>
	</g>
</g><g>
	<g>
		<path d="M210,452v60h45c8.291,0,15-6.709,15-15v-45H210z" data-original="#000000" class="active-path" data-old_color="#000000" fill="#FFFFFF"/>
	</g>
</g></g> </svg>
