<?xml version="1.0"?>
<svg xmlns="http://www.w3.org/2000/svg" xmlns:xlink="http://www.w3.org/1999/xlink" version="1.1" id="Capa_1" x="0px" y="0px" viewBox="0 0 512 512" style="enable-background:new 0 0 512 512;" xml:space="preserve" width="512px" height="512px"><g><g>
	<g>
		<g>
			<path d="M510.417,261.052c-1.958-3.146-5.396-5.062-9.083-5.062L394.667,256c-3.688,0-7.125,1.917-9.083,5.062     c-1.938,3.146-2.104,7.073-0.458,10.375l26.104,52.198c5.051,10.141,14.947,16.462,26.104,17.348v21.684h-22.896     c-8.125,0-15.438-4.521-19.083-11.792l-24.958-49.969c-7.292-14.542-21.917-23.573-38.167-23.573H190.922     c-4.956-24.314-26.492-42.667-52.255-42.667c-25.763,0-47.299,18.353-52.255,42.667H10.667C4.771,277.333,0,282.104,0,288     s4.771,10.667,10.667,10.667h74.667V384H10.667C4.771,384,0,388.771,0,394.667V480c0,5.896,4.771,10.667,10.667,10.667h320     c5.896,0,10.667-4.771,10.667-10.667v-85.333c0-5.896-4.771-10.667-10.667-10.667h-32v-32c0-5.896-4.771-10.667-10.667-10.667     h-42.667c-5.896,0-10.667,4.771-10.667,10.667v32H192v-85.333h64v10.667c0,5.896,4.771,10.667,10.667,10.667     c5.896,0,10.667-4.771,10.667-10.667v-10.667h54.896c8.125,0,15.438,4.521,19.083,11.792l24.958,49.969     C383.563,374.969,398.188,384,414.438,384H448c5.896,0,10.667-4.771,10.667-10.667v-32.35     c11.158-0.885,21.053-7.207,26.104-17.337l26.104-52.219C512.521,268.114,512.354,264.187,510.417,261.052z M138.667,298.667     c-5.891,0-10.667-4.776-10.667-10.667c0-5.892,4.776-10.667,10.667-10.667s10.667,4.775,10.667,10.667     C149.333,293.891,144.557,298.667,138.667,298.667z" data-original="#000000" class="active-path" data-old_color="#000000" fill="#FFFFFF"/>
			<path d="M241.25,233.854c1.313,0.552,2.708,0.813,4.083,0.813c2.771,0,5.5-1.083,7.542-3.125L292.417,192H416     c17.646,0,32-14.354,32-32V53.333c0-17.646-14.354-32-32-32H266.667c-17.646,0-32,14.354-32,32V224     C234.667,228.312,237.271,232.208,241.25,233.854z M352,149.333c-5.891,0-10.667-4.776-10.667-10.667     c0-5.892,4.776-10.667,10.667-10.667s10.667,4.775,10.667,10.667C362.667,144.557,357.891,149.333,352,149.333z M394.667,64     c5.891,0,10.667,4.775,10.667,10.667c0,5.891-4.776,10.667-10.667,10.667S384,80.557,384,74.667     C384,68.775,388.776,64,394.667,64z M394.667,128c5.891,0,10.667,4.775,10.667,10.667c0,5.891-4.776,10.667-10.667,10.667     S384,144.557,384,138.667C384,132.775,388.776,128,394.667,128z M330.667,64H352c5.896,0,10.667,4.771,10.667,10.667     c0,5.896-4.771,10.667-10.667,10.667h-21.333c-5.896,0-10.667-4.771-10.667-10.667C320,68.771,324.771,64,330.667,64z M288,64     c5.891,0,10.667,4.775,10.667,10.667c0,5.891-4.776,10.667-10.667,10.667s-10.667-4.776-10.667-10.667     C277.333,68.775,282.109,64,288,64z M288,128h21.333c5.896,0,10.667,4.771,10.667,10.667c0,5.896-4.771,10.667-10.667,10.667H288     c-5.896,0-10.667-4.771-10.667-10.667C277.333,132.771,282.104,128,288,128z" data-original="#000000" class="active-path" data-old_color="#000000" fill="#FFFFFF"/>
		</g>
	</g>
</g></g> </svg>
