<?xml version="1.0"?>
<svg xmlns="http://www.w3.org/2000/svg" id="Bold" enable-background="new 0 0 24 24" height="512px" viewBox="0 0 24 24" width="512px" class="hovered-paths"><g><path d="m15 18.75c0 .414.336.75.75.75h7.5c.414 0 .75-.336.75-.75v-.75c0-2.481-2.019-4.5-4.5-4.5s-4.5 2.019-4.5 4.5z" data-original="#000000" class="hovered-path active-path" data-old_color="#000000" fill="#FFFFFF"/><circle cx="19.5" cy="8.25" r="3.75" data-original="#000000" class="hovered-path active-path" data-old_color="#000000" fill="#FFFFFF"/><path d="m6.75 18.75c0 .414.336.75.75.75h6c.414 0 .75-.336.75-.75v-1.5c0-2.069-1.683-3.75-3.75-3.75s-3.75 1.681-3.75 3.75z" data-original="#000000" class="hovered-path active-path" data-old_color="#000000" fill="#FFFFFF"/><path d="m.75 19.5h4.5c.414 0 .75-.336.75-.75v-2.25c0-1.654-1.346-3-3-3-1.655 0-3 1.346-3 3v2.25c0 .414.336.75.75.75z" data-original="#000000" class="hovered-path active-path" data-old_color="#000000" fill="#FFFFFF"/><circle cx="10.5" cy="9" r="3.375" data-original="#000000" class="hovered-path active-path" data-old_color="#000000" fill="#FFFFFF"/><circle cx="3" cy="9.75" r="2.625" data-original="#000000" class="hovered-path active-path" data-old_color="#000000" fill="#FFFFFF"/></g> </svg>
