<?xml version="1.0"?>
<svg xmlns="http://www.w3.org/2000/svg" id="Bold" enable-background="new 0 0 24 24" height="512px" viewBox="0 0 24 24" width="512px" class=""><g><path d="m10.789 10.384-1.349-8.902c-.217-1.472-2.387-1.022-2.144.316l1.282 8.585h2.211z" data-original="#000000" class="active-path" data-old_color="#000000" fill="#FFFFFF"/><path d="m13.94.914-1.78 9.469c.48.063 1.465-.249 2.101.644l1.857-9.72c.249-1.421-1.908-1.814-2.178-.393z" data-original="#000000" class="active-path" data-old_color="#000000" fill="#FFFFFF"/><path d="m17.523 10.525c-.254-.142-.553-.174-.84-.109-.287.076-.52.262-.674.513-2.018 3.642-2.53 3.87-2.322 4.604.253.927 1.499 1.091 2.012.305-.146.25 2.173-3.715 2.233-3.818.298-.524.121-1.189-.409-1.495z" data-original="#000000" class="active-path" data-old_color="#000000" fill="#FFFFFF"/><path d="m6.588 12.304-1.106 3.262c-.92 2.724 1.411 4.261 2.698 6.491.321.458.498 1.004.498 1.56v.404h8.569v-.305c0-.644.221-1.255.641-1.745.12-.19 1.728-1.617 1.769-4.146-.085.1-.418.931-1.471 1.211-1.145.332-2.506-.409-2.742-1.713-1.873.647-3.627-1.423-2.598-3.153l.287-.491c-.829.567-1.791.916-2.808 1.025 1.515 1.255 2.665 2.924 3.295 4.778.1.284-.055.6-.343.698-.287.087-.608-.065-.708-.349-1.236-3.658-4.034-5.02-4.201-5.171-.457-.325-.222-1.004.31-1.004.442-.065 2.681.388 4.622-1.505.237-.25.078-.676-.287-.676h-5.264c-.531-.001-.995.338-1.161.829z" data-original="#000000" class="active-path" data-old_color="#000000" fill="#FFFFFF"/><path d="m17.069 17.878c.166.098.365.142.553.142.1 0 .188-.011.287-.033.735-.203.759-.845 2.222-3.175.31-.524.133-1.189-.398-1.495-.486-.27-1.176-.169-1.515.404.062-.107-.518.884-1.559 2.662-.297.524-.12 1.19.41 1.495z" data-original="#000000" class="active-path" data-old_color="#000000" fill="#FFFFFF"/></g> </svg>
