<svg id="Layer_1" data-name="Layer 1" xmlns="http://www.w3.org/2000/svg" viewBox="0 0 512 492.92"><defs><style>.cls-1{fill:#fff;}</style></defs><title>snapchat (1)</title><path d="M255.78,9.54h0a149.64,149.64,0,0,0-59.39,12.25A155.59,155.59,0,0,0,115,103.51a151.37,151.37,0,0,0-12.18,59.44c0,10.07-.22,19.85-0.62,29.21l-8-1.88a39.34,39.34,0,0,0-47.39,29.64,43.19,43.19,0,0,0,27.12,49.82l24,9.68c-15.88,48.74-45.16,58.08-64.88,64.37A98.56,98.56,0,0,0,19,349C1.85,357.55,0,372,0,377.77,0,388.89,5.26,399,14.81,406.33a63.06,63.06,0,0,0,18,9.17c10,3.46,21.67,5.65,31.13,7.41A70.76,70.76,0,0,0,66.21,434c4.69,15.75,14.58,22.81,22.06,26,7.09,3,14.42,3.33,19.32,3.33s9.85-.37,15.21-0.77c5.75-.43,11.69-0.87,17.56-0.87,9.09,0,15.86,1.08,20.68,3.31,6.63,3.06,13.66,7.19,21.11,11.57,20.73,12.17,44.22,26,73.85,26s53.13-13.8,73.85-26c7.44-4.37,14.48-8.5,21.11-11.57,4.83-2.23,11.59-3.31,20.68-3.31,5.87,0,11.81.44,17.56,0.87,5.36,0.4,10.42.77,15.21,0.77s12.22-.34,19.32-3.33c7.48-3.14,17.37-10.2,22.06-26A70.63,70.63,0,0,0,448,422.91c9.46-1.76,21.09-4,31.13-7.41a63,63,0,0,0,18-9.17C506.74,399,512,388.89,512,377.77c0-5.8-1.85-20.22-19-28.73a98.56,98.56,0,0,0-14.05-5.25c-19.72-6.29-49-15.63-64.88-64.37l24-9.68a43.19,43.19,0,0,0,27.12-49.82A39.14,39.14,0,0,0,451,197.54a39.44,39.44,0,0,0-33.19-7.26l-8,1.88c-0.4-9.36-.61-19.14-0.62-29.21a150.65,150.65,0,0,0-12.28-59.5,156.16,156.16,0,0,0-81.66-81.67A150.18,150.18,0,0,0,255.78,9.54h0Z" transform="translate(0 -9.54)"/><path class="cls-1" d="M484.67,377.77c0,15.86-55.19,18.1-60.18,23.09s-0.21,29.19-11.35,33.87c-2.1.89-5.09,1.19-8.73,1.19-8.39,0-20.26-1.64-32.77-1.64-10.85,0-22.18,1.24-32.14,5.84-26.43,12.21-51.91,35-83.5,35s-57.07-22.8-83.5-35c-10-4.6-21.29-5.84-32.14-5.84-12.51,0-24.38,1.64-32.77,1.64-3.64,0-6.63-.31-8.72-1.19-11.15-4.68-6.38-28.89-11.36-33.87s-60.18-7.23-60.18-23.09c0-12.63,73.22-2.55,99.44-99.46a17.58,17.58,0,0,0-10.36-20.9L83.73,244.22a15.86,15.86,0,0,1-10.22-18.38,12,12,0,0,1,11.73-9.26,12.34,12.34,0,0,1,2.75.31l21.52,5a16.08,16.08,0,0,0,3.61.42,15.73,15.73,0,0,0,15.64-14.7c0.91-13.69,1.41-28.54,1.43-44.68C130.27,94.1,187.06,36.89,255.77,36.87s126,57.23,126,126.11c0,16.14.52,31,1.43,44.68a15.73,15.73,0,0,0,15.64,14.7,15.52,15.52,0,0,0,3.61-.42l21.52-5a12.34,12.34,0,0,1,2.75-.31,12,12,0,0,1,11.73,9.27,15.85,15.85,0,0,1-10.22,18.37l-32.68,13.19a17.58,17.58,0,0,0-10.36,20.9C411.45,375.23,484.67,365.15,484.67,377.77Z" transform="translate(0 -9.54)"/></svg>