<?xml version="1.0"?>
<svg xmlns="http://www.w3.org/2000/svg" id="solid" height="512px" viewBox="0 0 512 512" width="512px" class=""><g><path d="m494.193 194.84a5.242 5.242 0 0 1 -.027-7.2c10.883-11.629 13.406-29.657 13.984-38.044a8.512 8.512 0 0 0 -8.86-9.08c-25.751 1.088-41.852 19.2-48.365 28.327a6.5 6.5 0 0 1 -5.591 2.713c-17.964-.808-71.137-3.5-90.484-7.62-115.35-24.57-275.49-23.65-343.8 20.4a17.127 17.127 0 0 0 -6.99 19.63 156.079 156.079 0 0 0 6.96 17.76c.01 0 .01.01.01.02 13.23 28.52 34.95 52.83 63.69 71.09 19.96 13.25 64.22 32.55 117.08 34.96.84.04 1.68.07 2.52.1a285.052 285.052 0 0 0 58.43 37.87 57.451 57.451 0 0 0 24.99 5.76h51.59a10.655 10.655 0 0 0 7.65-18.07c-8.73-9-23.95-25.16-38.39-42.68 67.835-25.517 126.654-73.011 149.641-93.056a6.489 6.489 0 0 1 8.829.24c14.694 14.613 34.381 17.342 42.72 17.826a8.492 8.492 0 0 0 6.2-2.2 8.376 8.376 0 0 0 2.76-5.91c.552-13.939-7.7-25.617-14.547-32.836zm-427.643-2.14a7.48 7.48 0 1 1 -7.48 7.48 7.481 7.481 0 0 1 7.48-7.48zm-35.31 46.28c13.39 8.25 29.12 13.79 44.29 17.5 10.38 17.16 30.01 36.21 48.54 49.82-39.5-13.42-71.93-36.81-92.83-67.32zm125.65 75.84c-16.02-5.24-50.46-31.01-68.67-55.61a288.669 288.669 0 0 0 46.08 4.79c15.97 20.93 32.15 38.89 48.98 54.27a256.879 256.879 0 0 1 -26.39-3.45zm245.01-99.36c2.06-.21 4.19.68 4.33 2.03s-1.76 2.65-3.83 2.86-3.85-.7-3.99-2.05 1.42-2.62 3.49-2.84zm-30.28 3.64c2.73-.39 5.6.67 5.86 2.45s-2.2 3.62-4.93 4.02-5.15-.73-5.41-2.52 1.74-3.55 4.48-3.95zm-34.24 7.32c3.32-.55 6.85.68 7.21 2.85s-2.59 4.47-5.91 5.02-6.31-.77-6.67-2.94 2.04-4.38 5.37-4.93zm-44.76 76.97c-8.66-10.92-16.63-22.05-22.25-32.06q1 .045 2.04.06c12.42 11.38 33.57 16.68 53.56 16.68.75 0 1.48-.03 2.22-.04a356.342 356.342 0 0 1 -35.57 15.36zm59.25-28.01c-18.61 6.05-46.6 4.82-64.55-4.56a206.493 206.493 0 0 0 56.02-13.66c1.66-.66 3.3-1.29 4.94-1.92a75.465 75.465 0 0 0 21.48 2.71c3.79 0 7.48-.18 11-.4-9.04 5.98-18.72 12.01-28.89 17.83zm43.29-27.65c-3.05.04-6.51.27-10.15.52a181.115 181.115 0 0 1 -18.71.63 306.248 306.248 0 0 1 42.11-10.76c-4.17 3.11-8.6 6.32-13.25 9.61zm-206.905 88.9c-39.08-2.257-73.994-13.283-98.512-25.08a1.123 1.123 0 0 0 -1.363 1.72 200.927 200.927 0 0 0 23.82 24.06c3.73 3.19 7.52 6.17 11.25 8.86a102.726 102.726 0 0 0 16.35 9.86 44.948 44.948 0 0 0 19.01 4.31h30.38a9.446 9.446 0 0 0 8.264-4.626 9.132 9.132 0 0 0 -1.384-10.854c-1.546-1.6-5.757-6.287-7.112-7.9a.983.983 0 0 0 -.703-.355z" data-original="#000000" class="active-path" data-old_color="#000000" fill="#FFFFFF"/></g> </svg>
