<?xml version="1.0"?>
<svg xmlns="http://www.w3.org/2000/svg" xmlns:xlink="http://www.w3.org/1999/xlink" version="1.1" id="Layer_1" x="0px" y="0px" viewBox="0 0 512 512" style="enable-background:new 0 0 512 512;" xml:space="preserve" width="512px" height="512px" class=""><g><g>
	<g>
		<path d="M505.289,80.809C493.952,51.36,480.823,40.91,429.714,40.91c-31.278,0-54.857,23.579-54.857,54.857    c0,16.741,8.704,32.146,17.902,48.466c3.557,6.309,7.232,12.818,10.423,19.474l3.511,7.186    c8.064,16.357,13.879,28.178,13.879,52.873c0,9.426-1.874,20.645-6.071,36.224c-0.101,0.229-0.192,0.466-0.283,0.713    L383.771,351.2l-78.93-222.427c2.286-0.329,4.562-0.603,6.839-0.978c14.757-0.439,26.606-12.571,26.606-27.419    c0-15.131-12.297-27.429-27.429-27.429c-0.494,0-1.006,0.046-1.499,0.119c-35.41,5.897-71.305,5.897-106.715,0    c-0.485-0.073-0.997-0.119-1.499-0.119c-15.122,0-27.429,12.297-27.429,27.429c0,14.848,11.858,26.981,26.615,27.419    c3.154,0.512,6.318,0.933,9.49,1.362l36.471,94.811l-45.394,134.464l-82.359-230.418c0.439-0.082,0.869-0.137,1.307-0.219    c14.665-0.521,26.441-12.617,26.441-27.41c0-15.131-12.297-27.429-27.429-27.429c-0.594,0-1.198,0.055-1.792,0.174    c-29.138,5.824-58.697,5.824-87.835,0c-0.594-0.119-1.198-0.174-1.801-0.174C12.306,72.955,0,85.253,0,100.384    c0,14.647,11.557,26.606,26.021,27.346l111.881,307.026c6.208,17.399,20.626,30.4,38.574,34.798    c4.27,1.033,8.558,1.536,12.8,1.536c23.049,0,44.562-14.757,52.105-37.394l51.493-154.459l55.259,155.017    c5.102,12.352,13.641,21.275,24.027,25.143c9.161,3.401,19.099,2.661,27.977-1.838c11.84-4.736,20.946-14.373,24.987-26.459    l67.941-202.67C508.718,189.262,512,154.702,512,132.613V117.6C512,104.782,509.742,92.402,505.289,80.809z" data-original="#000000" class="active-path" data-old_color="#000000" fill="#FFFFFF"/>
	</g>
</g></g> </svg>
