<?xml version="1.0" encoding="UTF-8" standalone="no"?>
<!DOCTYPE svg PUBLIC "-//W3C//DTD SVG 1.1//EN" "http://www.w3.org/Graphics/SVG/1.1/DTD/svg11.dtd">
<svg width="100%" height="100%" viewBox="0 0 46 74" version="1.1" xmlns="http://www.w3.org/2000/svg" xmlns:xlink="http://www.w3.org/1999/xlink" xml:space="preserve" xmlns:serif="http://www.serif.com/" style="fill-rule:evenodd;clip-rule:evenodd;stroke-linejoin:round;stroke-miterlimit:2;">
    <g transform="matrix(1,0,0,1,-27,-13)">
        <path d="M33.153,48.872C33.153,48.872 40.326,34.951 48.045,41.493C63.397,54.502 65.458,43.829 68,42C68,50.538 63,85 63,85L38,86L33.153,48.872Z" style="fill:rgb(255,221,1);"/>
        <path d="M34,13C33.592,13 33.224,13.25 33.072,13.629L31.324,18L30.5,18C28.579,18 27,19.579 27,21.5C27,22.912 27.856,24.132 29.07,24.684L32.307,53.332L33.436,63.381C33.436,63.382 33.436,63.382 33.436,63.383L36.006,86.113C36.063,86.616 36.494,87 37,87L63,87C63.506,87 63.937,86.616 63.994,86.113L66.564,63.383C66.564,63.382 66.564,63.382 66.564,63.381L67.693,53.332L70.93,24.684C72.144,24.132 73,22.912 73,21.5C73,19.579 71.421,18 69.5,18L68.676,18L66.928,13.629C66.776,13.25 66.408,13 66,13L34,13ZM34.678,15L65.324,15L66.523,18L33.477,18L34.678,15ZM30.5,20L69.5,20C70.341,20 71,20.659 71,21.5C71,22.341 70.341,23 69.5,23L30.5,23C29.659,23 29,22.341 29,21.5C29,20.659 29.659,20 30.5,20ZM31.119,25L68.881,25L65.707,53.107L65.488,55.045C65.326,55.028 64.143,67 64.143,67L35.857,67C35.857,67 34.674,55.028 34.512,55.045L34.293,53.107L32.361,36L55.5,36C55.502,36 55.505,36 55.507,36C55.781,36 56.007,35.774 56.007,35.5C56.007,35.226 55.781,35 55.507,35C55.505,35 55.502,35 55.5,35L32.248,35L31.119,25ZM58.5,35C58.498,35 58.495,35 58.493,35C58.219,35 57.993,35.226 57.993,35.5C57.993,35.774 58.219,36 58.493,36C58.495,36 58.498,36 58.5,36L61.5,36C61.502,36 61.505,36 61.507,36C61.781,36 62.007,35.774 62.007,35.5C62.007,35.226 61.781,35 61.507,35C61.505,35 61.502,35 61.5,35L58.5,35ZM64.5,35C64.498,35 64.495,35 64.493,35C64.219,35 63.993,35.226 63.993,35.5C63.993,35.774 64.219,36 64.493,36C64.495,36 64.498,36 64.5,36L65.5,36C65.502,36 65.505,36 65.507,36C65.781,36 66.007,35.774 66.007,35.5C66.007,35.226 65.781,35 65.507,35C65.505,35 65.502,35 65.5,35L64.5,35ZM35.971,68L64.029,68L62.107,85L37.893,85L35.971,68Z" style="fill-rule:nonzero;"/>
        <path d="M33.949,50L66.264,48.32L62.407,81.853L37.674,82.701L33.949,50Z" style="fill:rgb(255,221,1);"/>
    </g>
</svg>
