<?xml version="1.0" encoding="UTF-8" standalone="no"?>
<!DOCTYPE svg PUBLIC "-//W3C//DTD SVG 1.1//EN" "http://www.w3.org/Graphics/SVG/1.1/DTD/svg11.dtd">
<svg width="100%" height="100%" viewBox="0 0 78 54" version="1.1" xmlns="http://www.w3.org/2000/svg" xmlns:xlink="http://www.w3.org/1999/xlink" xml:space="preserve" xmlns:serif="http://www.serif.com/" style="fill-rule:evenodd;clip-rule:evenodd;stroke-linejoin:round;stroke-miterlimit:2;">
    <g transform="matrix(1,0,0,1,-1.80375,-15.2711)">
        <g transform="matrix(1,0,0,1,-9.19625,-7.72891)">
            <path d="M22,23C15.937,23 11,27.937 11,34L11,66C11,72.063 15.937,77 22,77L78,77C84.063,77 89,72.063 89,66L89,34C89,27.937 84.063,23 78,23L22,23Z" style="fill:rgb(255,245,217);fill-rule:nonzero;"/>
        </g>
        <g transform="matrix(1,0,0,1,-9.19625,-7.72891)">
            <path d="M22,23C15.937,23 11,27.937 11,34L11,66C11,72.063 15.937,77 22,77L78,77C84.063,77 89,72.063 89,66L89,34C89,27.937 84.063,23 78,23L22,23ZM22,25L78,25C79.782,25 81.436,25.52 82.832,26.408L50,53.848L17.168,26.408C18.564,25.52 20.218,25 22,25ZM16.328,27.008L49.68,54.883C49.864,55.037 50.136,55.037 50.32,54.883L83.672,27.008C85.703,28.656 87,31.171 87,34L87,66C87,68.829 85.703,71.344 83.672,72.992L61.088,54.117C60.999,54.04 60.885,53.998 60.768,53.996C60.766,53.996 60.765,53.996 60.764,53.996C60.49,53.996 60.264,54.222 60.264,54.496C60.264,54.646 60.332,54.788 60.447,54.883L82.832,73.592C81.436,74.48 79.782,75 78,75L22,75C20.218,75 18.564,74.48 17.168,73.592L39.553,54.883C39.669,54.788 39.736,54.646 39.736,54.496C39.736,54.221 39.51,53.996 39.236,53.996C39.23,53.996 39.223,53.996 39.217,53.996C39.105,54.001 38.997,54.044 38.912,54.117L16.328,72.992C14.297,71.344 13,68.829 13,66L13,34C13,31.171 14.297,28.656 16.328,27.008Z" style="fill-rule:nonzero;"/>
        </g>
    </g>
</svg>
