<?xml version="1.0" encoding="UTF-8" standalone="no"?>
<!DOCTYPE svg PUBLIC "-//W3C//DTD SVG 1.1//EN" "http://www.w3.org/Graphics/SVG/1.1/DTD/svg11.dtd">
<svg width="100%" height="100%" viewBox="0 0 80 68" version="1.1" xmlns="http://www.w3.org/2000/svg" xmlns:xlink="http://www.w3.org/1999/xlink" xml:space="preserve" xmlns:serif="http://www.serif.com/" style="fill-rule:evenodd;clip-rule:evenodd;stroke-linejoin:round;stroke-miterlimit:2;">
    <g transform="matrix(1,0,0,1,-10,-16)">
        <g transform="matrix(1,0,0,1,7.92431e-05,0)">
            <path d="M64.5,16C54.847,16 47,23.847 47,33.5C47,34.613 47.239,35.649 47.441,36.697C25.881,34.793 15.45,21.404 14.002,19.412C13.814,19.153 13.513,18.999 13.193,18.999C12.836,18.999 12.505,19.191 12.326,19.5C10.83,22.096 10,25.327 10,28.5C10,33.686 12.466,38.537 16.301,41.707C15.201,41.527 14.283,41.29 13.566,41.051C12.161,40.582 11.555,40.168 11.555,40.168C11.39,40.059 11.197,40 11,40C10.452,40 10,40.451 10,41C10,48.238 14.567,54.386 20.953,56.842C20.622,56.86 20.337,57 20,57C19.147,57 17.845,56.924 17.063,56.809C17.014,56.801 16.965,56.798 16.917,56.798C16.368,56.798 15.916,57.249 15.916,57.798C15.916,57.929 15.942,58.059 15.992,58.18L16.076,58.383C16.077,58.385 16.077,58.387 16.078,58.389C18.617,64.391 24.8,68.552 31.518,69.582C26.297,73.539 19.509,76 12.5,76L11,76C10.452,76 10,76.452 10,77C10,77.334 10.168,77.647 10.445,77.832C16.663,81.977 24.952,84 33.5,84C60.274,84 82,62.274 82,35.5C82,35.497 82,35.493 82,35.49C82,35.49 81.994,34.879 81.986,34.24C81.982,33.851 81.977,33.64 81.973,33.361C86.864,30.44 89.801,26.6 89.801,26.6C89.93,26.427 90,26.217 90,26.001C90,25.452 89.548,25.001 89,25.001C88.905,25.001 88.81,25.014 88.719,25.041C88.719,25.041 85.487,25.821 82.072,26.207C86.054,22.878 87.449,19.316 87.449,19.316C87.484,19.214 87.501,19.107 87.501,18.999C87.501,18.45 87.05,17.999 86.501,17.999C86.333,17.999 86.169,18.041 86.021,18.121C86.021,18.121 81.075,20.716 76.613,20.943C73.467,17.908 69.214,16 64.5,16Z" style="fill:rgb(29,161,242);fill-rule:nonzero;"/>
        </g>
        <path d="M64.5,16C54.847,16 47,23.847 47,33.5C47,34.613 47.239,35.649 47.441,36.697C25.881,34.793 15.45,21.404 14.002,19.412C13.814,19.153 13.513,18.999 13.193,18.999C12.836,18.999 12.505,19.191 12.326,19.5C10.83,22.096 10,25.327 10,28.5C10,33.686 12.466,38.537 16.301,41.707C15.201,41.527 14.283,41.29 13.566,41.051C12.161,40.582 11.555,40.168 11.555,40.168C11.39,40.059 11.197,40 11,40C10.452,40 10,40.451 10,41C10,48.238 14.567,54.386 20.953,56.842C20.622,56.86 20.337,57 20,57C19.147,57 17.845,56.924 17.063,56.809C17.014,56.801 16.965,56.798 16.917,56.798C16.368,56.798 15.916,57.249 15.916,57.798C15.916,57.929 15.942,58.059 15.992,58.18L16.076,58.383C16.077,58.385 16.077,58.387 16.078,58.389C18.617,64.391 24.8,68.552 31.518,69.582C26.297,73.539 19.509,76 12.5,76L11,76C10.452,76 10,76.452 10,77C10,77.334 10.168,77.647 10.445,77.832C16.663,81.977 24.952,84 33.5,84C60.274,84 82,62.274 82,35.5C82,35.497 82,35.493 82,35.49C82,35.49 81.994,34.879 81.986,34.24C81.982,33.851 81.977,33.64 81.973,33.361C86.864,30.44 89.801,26.6 89.801,26.6C89.93,26.427 90,26.217 90,26.001C90,25.452 89.548,25.001 89,25.001C88.905,25.001 88.81,25.014 88.719,25.041C88.719,25.041 85.487,25.821 82.072,26.207C86.054,22.878 87.449,19.316 87.449,19.316C87.484,19.214 87.501,19.107 87.501,18.999C87.501,18.45 87.05,17.999 86.501,17.999C86.333,17.999 86.169,18.041 86.021,18.121C86.021,18.121 81.075,20.716 76.613,20.943C73.467,17.908 69.214,16 64.5,16ZM64.5,18C68.856,18 72.776,19.798 75.594,22.688C75.787,22.886 76.055,22.995 76.332,22.988C79.465,22.913 82.205,21.974 84.258,21.107C83.286,22.546 81.679,24.398 79.082,26.076C78.673,26.341 78.515,26.868 78.709,27.314C78.761,27.434 78.819,27.62 78.912,27.857C79.066,28.246 79.447,28.5 79.865,28.49C82.084,28.441 84.332,28.072 86.092,27.713C84.766,29.007 82.863,30.621 80.475,31.967C80.148,32.151 79.951,32.504 79.967,32.879C79.967,32.879 79.979,33.627 79.986,34.264C79.994,34.901 80,35.51 80,35.51C79.995,61.199 59.19,82 33.5,82C26.6,82 19.99,80.528 14.6,77.807C22.152,77.331 29.388,74.464 34.666,69.746C34.879,69.556 35,69.285 35,69C35,68.461 34.566,68.015 34.027,68C27.718,67.823 21.65,64.084 18.756,58.918C19.19,58.939 19.63,59 20,59C22.216,59 24.339,58.651 26.334,57.943C26.733,57.803 27.001,57.423 27.001,57C27.001,56.474 26.586,56.033 26.061,56.002C18.747,55.553 12.927,49.83 12.154,42.6C12.51,42.757 12.434,42.783 12.934,42.949C14.528,43.481 16.889,44 20,44C20,44 20,44 20,44C20.549,44 21,43.549 21,43C21,42.614 20.777,42.261 20.428,42.096C15.468,39.755 12,34.267 12,28.5C12,26.201 12.611,23.91 13.502,21.893C16.602,25.774 27.42,37.485 48.537,38.863C48.559,38.865 48.581,38.865 48.602,38.865C49.151,38.865 49.602,38.414 49.602,37.865C49.602,37.776 49.59,37.686 49.566,37.6C49.206,36.285 49,34.917 49,33.5C49,24.927 55.927,18 64.5,18ZM64.5,21C60.812,21 57.497,22.618 55.209,25.166C55.123,25.258 55.075,25.38 55.075,25.506C55.075,25.78 55.301,26.006 55.576,26.006C55.72,26.006 55.858,25.943 55.953,25.834C58.061,23.486 61.104,22 64.5,22C67.364,22 70.048,23.048 72.166,24.955C72.26,25.05 72.388,25.103 72.521,25.103C72.795,25.103 73.021,24.877 73.021,24.603C73.021,24.451 72.952,24.308 72.834,24.213C70.538,22.146 67.608,21 64.5,21ZM53.617,27.994C53.416,27.99 53.232,28.108 53.15,28.291C52.698,29.273 52.373,30.32 52.188,31.416C52.183,31.444 52.18,31.472 52.18,31.5C52.18,31.774 52.406,32 52.681,32C52.924,32 53.133,31.823 53.174,31.584C53.344,30.574 53.643,29.611 54.059,28.709C54.091,28.642 54.107,28.568 54.107,28.494C54.107,28.224 53.888,28 53.617,27.994ZM52.492,32.992C52.221,32.996 52,33.221 52,33.492C52,33.495 52,33.497 52,33.5C52,33.871 52.044,34.221 52.072,34.543C52.088,34.805 52.309,35.012 52.571,35.012C52.846,35.012 53.071,34.787 53.071,34.512C53.071,34.494 53.07,34.475 53.068,34.457C53.038,34.111 53,33.787 53,33.5C53,33.497 53,33.495 53,33.492C53,33.218 52.774,32.992 52.5,32.992C52.497,32.992 52.495,32.992 52.492,32.992ZM72.549,52.994C72.349,52.991 72.166,53.107 72.084,53.289C67.25,63.729 58.304,71.886 47.336,75.674C47.135,75.744 47,75.934 47,76.146C47,76.421 47.226,76.647 47.5,76.647C47.556,76.647 47.611,76.637 47.664,76.619C58.892,72.741 68.042,64.397 72.99,53.711C73.023,53.643 73.04,53.569 73.04,53.494C73.04,53.223 72.82,52.999 72.549,52.994ZM41.49,77.24C41.462,77.241 41.434,77.244 41.406,77.25C39.79,77.556 38.141,77.768 36.465,77.885C36.204,77.903 36,78.123 36,78.384C36,78.658 36.226,78.884 36.5,78.884C36.512,78.884 36.523,78.884 36.535,78.883C38.249,78.763 39.938,78.546 41.594,78.232C41.832,78.19 42.007,77.982 42.007,77.74C42.007,77.466 41.781,77.24 41.507,77.24C41.501,77.24 41.496,77.24 41.49,77.24ZM32.51,77.971C32.506,77.971 32.503,77.971 32.5,77.971C32.226,77.971 32,78.196 32,78.471C32,78.741 32.22,78.965 32.49,78.971C32.81,78.977 33.141,79 33.5,79C33.502,79 33.505,79 33.507,79C33.781,79 34.007,78.774 34.007,78.5C34.007,78.226 33.781,78 33.507,78C33.505,78 33.502,78 33.5,78C33.185,78 32.86,77.978 32.51,77.971Z" style="fill-rule:nonzero;"/>
    </g>
</svg>
