<svg id="eKSDg4GyAh01" xmlns="http://www.w3.org/2000/svg" xmlns:xlink="http://www.w3.org/1999/xlink" viewBox="0 0 597 489" shape-rendering="geometricPrecision" text-rendering="geometricPrecision"><style><![CDATA[#eKSDg4GyAh013_ts {animation: eKSDg4GyAh013_ts__ts 400ms linear infinite alternate-reverse forwards}@keyframes eKSDg4GyAh013_ts__ts { 0% {transform: translate(910.500488px,2523.905029px) scale(0.832272,0.816862);animation-timing-function: cubic-bezier(0.42,0,0.58,1)} 100% {transform: translate(910.500488px,2523.905029px) scale(1.01738,1.083466)}} #eKSDg4GyAh016_ts {animation: eKSDg4GyAh016_ts__ts 400ms linear infinite alternate-reverse forwards}@keyframes eKSDg4GyAh016_ts__ts { 0% {transform: translate(910.500488px,2523.905029px) scale(1,1);animation-timing-function: cubic-bezier(0.42,0,0.58,1)} 100% {transform: translate(910.500488px,2523.905029px) scale(0.839256,0.932549)}}]]></style><g transform="translate(-388-1944)" clip-rule="evenodd"><g transform="matrix(1.4845 0 0 1-.005292 0)" clip-rule="evenodd"><g transform="matrix(1.7768-.017195 0.011583 2.63766-1184.34-4453.38)" clip-rule="evenodd"><path d="M910.5,2433l19.089,50.25l36.786-15.53-5.899,34.72h61.774l-49.977,31.06l28.637,25.12-40.434,5.94l19.089,50.25-49.976-31.06-19.089,31.06-19.089-31.06-49.976,31.06l19.089-50.25-40.431-5.94l28.634-25.12-49.976-31.06h61.773l-5.899-34.72l36.786,15.53L910.5,2433Z" clip-rule="evenodd" fill-rule="evenodd" stroke-linecap="round" stroke-linejoin="round" stroke-miterlimit="1.5"/><g clip-path="url(#eKSDg4GyAh017)" clip-rule="evenodd"><g><g transform="matrix(.754658 0.02358-.02358 0.754658 283.097 600.417)" clip-rule="evenodd"><path d="M910.5,2433l19.089,50.25l36.786-15.53-5.899,34.72h61.774l-49.977,31.06l28.637,25.12-40.434,5.94l19.089,50.25-49.976-31.06-19.089,31.06-19.089-31.06-49.976,31.06l19.089-50.25-40.431-5.94l28.634-25.12-49.976-31.06h61.773l-5.899-34.72l36.786,15.53L910.5,2433Z" clip-rule="evenodd" fill-rule="evenodd" stroke-linecap="round" stroke-linejoin="round" stroke-miterlimit="1.5"/><g clip-path="url(#eKSDg4GyAh014)" clip-rule="evenodd"><g><g transform="matrix(.434268-.048415 0.048415 0.434268 392.966 1478.75)" clip-rule="evenodd"><g id="eKSDg4GyAh013_ts" transform="translate(910.500488,2523.905029) scale(1.01738,1.083466)"><path d="M910.5,2433l19.089,50.25l36.786-15.53-5.899,34.72h61.774l-49.977,31.06l28.637,25.12-40.434,5.94l19.089,50.25-49.976-31.06-19.089,31.06-19.089-31.06-49.976,31.06l19.089-50.25-40.431-5.94l28.634-25.12-49.976-31.06h61.773l-5.899-34.72l36.786,15.53L910.5,2433Z" transform="translate(-910.500488,-2523.905029)" clip-rule="evenodd" fill-rule="evenodd" stroke="#fff" stroke-width="8.04" stroke-linecap="round" stroke-linejoin="round" stroke-miterlimit="1.5"/></g></g></g><clipPath id="eKSDg4GyAh014"><path d="M910.5,2433l19.089,50.25l36.786-15.53-5.899,34.72h61.774l-49.977,31.06l28.637,25.12-40.434,5.94l19.089,50.25-49.976-31.06-19.089,31.06-19.089-31.06-49.976,31.06l19.089-50.25-40.431-5.94l28.634-25.12-49.976-31.06h61.773l-5.899-34.72l36.786,15.53L910.5,2433Z" clip-rule="evenodd" fill-rule="evenodd" stroke-linecap="round" stroke-linejoin="round" stroke-miterlimit="1.5"/></clipPath></g><g id="eKSDg4GyAh016_ts" transform="translate(910.500488,2523.905029) scale(0.839256,0.932549)"><path d="M910.5,2433l19.089,50.25l36.786-15.53-5.899,34.72h61.774l-49.977,31.06l28.637,25.12-40.434,5.94l19.089,50.25-49.976-31.06-19.089,31.06-19.089-31.06-49.976,31.06l19.089-50.25-40.431-5.94l28.634-25.12-49.976-31.06h61.773l-5.899-34.72l36.786,15.53L910.5,2433Z" transform="translate(-910.500488,-2523.905029)" clip-rule="evenodd" fill="none" fill-rule="evenodd" stroke="#fff" stroke-width="3.51" stroke-linecap="round" stroke-linejoin="round" stroke-miterlimit="1.5"/></g></g></g><clipPath id="eKSDg4GyAh017"><path d="M910.5,2433l19.089,50.25l36.786-15.53-5.899,34.72h61.774l-49.977,31.06l28.637,25.12-40.434,5.94l19.089,50.25-49.976-31.06-19.089,31.06-19.089-31.06-49.976,31.06l19.089-50.25-40.431-5.94l28.634-25.12-49.976-31.06h61.773l-5.899-34.72l36.786,15.53L910.5,2433Z" clip-rule="evenodd" fill-rule="evenodd" stroke-linecap="round" stroke-linejoin="round" stroke-miterlimit="1.5"/></clipPath></g><path d="M910.5,2433l19.089,50.25l36.786-15.53-5.899,34.72h61.774l-49.977,31.06l28.637,25.12-40.434,5.94l19.089,50.25-49.976-31.06-19.089,31.06-19.089-31.06-49.976,31.06l19.089-50.25-40.431-5.94l28.634-25.12-49.976-31.06h61.773l-5.899-34.72l36.786,15.53L910.5,2433Z" clip-rule="evenodd" fill="none" fill-rule="evenodd" stroke="#000" stroke-width="2.65" stroke-linecap="round" stroke-linejoin="round" stroke-miterlimit="1.5"/></g></g></g></svg>