<svg id="eseuE3Cp09z1" xmlns="http://www.w3.org/2000/svg" xmlns:xlink="http://www.w3.org/1999/xlink" viewBox="0 0 188 215" shape-rendering="geometricPrecision" text-rendering="geometricPrecision"><style><![CDATA[#eseuE3Cp09z14_ts {animation: eseuE3Cp09z14_ts__ts 400ms linear infinite alternate-reverse forwards}@keyframes eseuE3Cp09z14_ts__ts { 0% {transform: translate(1779.22998px,2083.22998px) scale(1,1);animation-timing-function: cubic-bezier(0.42,0,0.58,1)} 100% {transform: translate(1779.22998px,2083.22998px) scale(1.221772,1.214778)}}]]></style><g transform="translate(-1633-2051)" clip-rule="evenodd"><g transform="matrix(1.4845 0 0 1-.005292 0)" clip-rule="evenodd"><g clip-rule="evenodd"><g transform="matrix(.673629 0 0 1 0.003565 0)" clip-rule="evenodd"><path d="M1681.13,2262.32c0,0-20.73-2.78-31.13-7.32s-20.9-60.72,2-37.93c9.93-14.47,35.59-39.8,42.49-68.63c6.89-28.82,30.61-60.37,68.9-54.44-5.99-13.8-16.59-47.61,39.61-34c14.69,18.38,19.35,29.35,10,41-17.27,7.11-6.6.86-18,7-2.66,17.27-1.69,42.69-37,69.93-38.86,47.51-55.89,68.07-55.89,68.07s-3.35,18.25-20.98,16.32Z" clip-rule="evenodd" fill="#fff" fill-rule="evenodd" stroke-linecap="round" stroke-linejoin="round" stroke-miterlimit="1.5"/></g><g transform="matrix(.673629 0 0 1 0.003565 0)" clip-rule="evenodd"><path d="M1788.84,2052.1c-4.73.66-11.43,1.21-17.46,2.8-4.5,1.19-8.64,2.98-11.6,5.63-11,9.87-8.58,24.87.96,34.53c11.8,11.97,29.17,16.74,45.57,15.34c4.75-.41,8.31-3.48,10.68-7.84c2.98-5.48,4-13.01,3.79-17.65-.75-16.18-12.53-35.55-31.94-32.81Zm.98,6.93c7.26-1.03,12.97,2.23,16.98,7.19c4.29,5.31,6.69,12.53,6.98,19.01.17,3.67-.58,9.65-2.94,13.99-1.18,2.18-2.75,4-5.12,4.2-14.38,1.23-29.65-2.79-40-13.27-6.74-6.84-9.05-17.42-1.26-24.41c2.2-1.98,5.35-3.19,8.71-4.07c5.75-1.52,12.14-2.01,16.65-2.64v0Z" clip-rule="evenodd" fill-rule="evenodd" stroke-linecap="round" stroke-linejoin="round" stroke-miterlimit="1.5"/></g><g transform="matrix(.673629 0 0 1 0.003565 0)" clip-rule="evenodd"><circle r="4" transform="translate(1800.8 2076)" clip-rule="evenodd" fill-rule="evenodd" stroke-linecap="round" stroke-linejoin="round" stroke-miterlimit="1.5"/></g><g transform="matrix(.673629 0 0 1-13.3912-9.31067)" clip-rule="evenodd"><circle r="4" transform="translate(1800.8 2076)" clip-rule="evenodd" fill-rule="evenodd" stroke-linecap="round" stroke-linejoin="round" stroke-miterlimit="1.5"/></g><g transform="matrix(.673629 0 0 1 0.003565 0)" clip-rule="evenodd"><g id="eseuE3Cp09z14_ts" transform="translate(1779.22998,2083.22998) scale(1.221772,1.214778)"><circle r="4.229" transform="translate(0.00002,0.00002)" clip-rule="evenodd" fill-rule="evenodd" stroke="#000" stroke-width="7" stroke-linecap="round" stroke-linejoin="round" stroke-miterlimit="1.5"/></g></g><g transform="matrix(.673629 0 0 1 0.003565 0)" clip-rule="evenodd"><path d="M1651.38,2211.09c-.65-.17-1.31-.42-1.98-.66-1.74-.62-3.49-1.25-5.15-1.47-3.16-.42-6.1.29-8.48,3.88-3.22,4.86-2.98,10.52-.92,16.27c2.55,7.06,7.99,14.28,10.51,19.59.49,1.02,2.08,6.25,3.54,8.62.89,1.45,1.99,2.24,2.81,2.54c3.32,1.19,6.94.76,10.31,1.64c8.72,2.28,16.19,5.23,25.46,4.04c1.75-.23,7.3-1.44,10.51-3.26c2.52-1.43,3.78-3.46,3.84-5.27.53-15.08-12.56-34.06-24.66-42.1-3.54-2.35-8.97-4.57-13.57-4.59-1.27-.01-2.48.15-3.6.47.11-.17.2-.31.26-.4c5.25-7.29,12.02-13.34,17.36-20.57c8.16-11.07,12.37-24.67,17.47-37.27c4.33-10.69,10.8-21.06,17.31-30.57c5.85-8.54,12.72-16.74,22.44-20.86c9.21-3.9,18.11-3.35,27.91-3.64c1.93-.06,3.45-1.67,3.39-3.6s-1.67-3.45-3.6-3.4c-10.69.32-20.38-.07-30.43,4.2-10.97,4.65-18.88,13.71-25.48,23.34-6.79,9.92-13.51,20.75-18.03,31.91-4.88,12.06-8.8,25.14-16.61,35.73-5.36,7.26-12.14,13.33-17.41,20.64-.37.52-2.3,3.42-3.2,4.79Zm43.47,44.87c-.04-12.83-11.36-28.44-21.56-35.22-2.08-1.39-5.03-2.75-7.87-3.25-1.79-.31-3.55-.42-4.68.67-.74.72-1.06,1.89-1.13,3.53-.07,1.63-.03,3.36.39,4.95c3.17,11.95,11.25,20.79,19.7,29.44.72.73,1.05,1.7.99,2.66c1.89.14,3.84.12,5.89-.14c1.16-.15,4.48-.84,6.97-1.93.42-.18.96-.5,1.3-.71Zm-41.8-37.72c-.17.02-.33.03-.47.03-2.21-.02-4.64-.95-7-1.76-1.45-.51-2.93-1.38-3.97.2-2.59,3.9-1.03,8.58,1.16,13.19c2.76,5.78,6.84,11.44,8.91,15.79.33.69,1.15,3.29,2.09,5.63.3.74.78,1.69,1.03,2.18c2.93.83,6.06.46,8.99,1.23c2.34.61,4.58,1.3,6.79,1.93-7.66-8.24-14.38-17.04-17.34-28.23-.6-2.26-.73-4.73-.62-7.05.05-1.16.2-2.2.43-3.14Z" clip-rule="evenodd" fill-rule="evenodd" stroke-linecap="round" stroke-linejoin="round" stroke-miterlimit="1.5"/></g><g transform="matrix(.673629 0 0 1 0.003565 0)" clip-rule="evenodd"><path d="M1703.38,2249.44c6.76-9.37,15.57-17.03,22.43-26.32c8.63-11.7,15.84-23.54,25.91-34.19c12.17-12.87,28.44-24.74,37.14-40.36c6-10.77,8-26.84,8.23-38.98.03-1.93-1.51-3.53-3.44-3.56-1.93-.04-3.53,1.5-3.56,3.43-.21,11.11-1.85,25.85-7.34,35.71-8.43,15.12-24.33,26.49-36.12,38.95-10.27,10.86-17.65,22.91-26.46,34.85-6.86,9.31-15.69,16.98-22.47,26.38-1.13,1.56-.77,3.75.79,4.88c1.57,1.13,3.76.78,4.89-.79Z" clip-rule="evenodd" fill-rule="evenodd" stroke-linecap="round" stroke-linejoin="round" stroke-miterlimit="1.5"/></g><g transform="matrix(.673629 0 0 1 0.003565 0)" clip-rule="evenodd"><path d="M1683.88,2219.24c3.58-4.51,7.61-8.81,10.15-14.03c5.57-11.46,6.15-25.66,7.43-38.22.19-1.92-1.21-3.64-3.13-3.83-1.92-.2-3.64,1.2-3.84,3.12-1.2,11.77-1.54,25.13-6.76,35.87-2.31,4.76-6.07,8.63-9.34,12.74-1.2,1.52-.95,3.72.57,4.92c1.51,1.2,3.71.95,4.92-.57Z" clip-rule="evenodd" fill-rule="evenodd" stroke-linecap="round" stroke-linejoin="round" stroke-miterlimit="1.5"/></g><g transform="matrix(.673629 0 0 1 0.003565 0)" clip-rule="evenodd"><path d="M1687.38,2165.29c20,3.34,37.17,14.31,48.86,30.75c1.12,1.57,3.31,1.94,4.88.82s1.94-3.3.82-4.88c-12.78-17.96-31.55-29.95-53.4-33.59-1.91-.32-3.71.97-4.03,2.87-.32,1.91.97,3.71,2.87,4.03Z" clip-rule="evenodd" fill-rule="evenodd" stroke-linecap="round" stroke-linejoin="round" stroke-miterlimit="1.5"/></g><g transform="matrix(.673629 0 0 1 0.003565 0)" clip-rule="evenodd"><path d="M1694.7,2152.57c4.81-.3,10.08-1.24,14.88-.12c18.99,4.42,25.53,18.93,33.68,35c.87,1.72,2.98,2.41,4.7,1.54c1.72-.88,2.41-2.99,1.54-4.71-9.13-18.01-17.05-33.7-38.33-38.65-5.46-1.27-11.44-.38-16.9-.05-1.93.12-3.4,1.78-3.28,3.71s1.78,3.39,3.71,3.28Z" clip-rule="evenodd" fill-rule="evenodd" stroke-linecap="round" stroke-linejoin="round" stroke-miterlimit="1.5"/></g><g transform="matrix(.673629 0 0 1 0.003565 0)" clip-rule="evenodd"><path d="M1702.05,2140.23c22.43.37,45.65,10.9,58.43,30.07c1.07,1.6,3.25,2.04,4.86.97c1.6-1.07,2.04-3.25.97-4.86-14.05-21.06-39.5-32.77-64.15-33.17-1.93-.04-3.52,1.51-3.55,3.44s1.51,3.52,3.44,3.55Z" clip-rule="evenodd" fill-rule="evenodd" stroke-linecap="round" stroke-linejoin="round" stroke-miterlimit="1.5"/></g><g transform="matrix(.673629 0 0 1 0.003565 0)" clip-rule="evenodd"><path d="M1714.53,2120.7c21.96,4.17,43.27,18.5,58.21,35.01c1.29,1.44,3.51,1.55,4.94.25c1.43-1.29,1.54-3.51.25-4.94-15.92-17.6-38.69-32.76-62.09-37.2-1.9-.36-3.73.89-4.09,2.78-.37,1.9.88,3.74,2.78,4.1Z" clip-rule="evenodd" fill-rule="evenodd" stroke-linecap="round" stroke-linejoin="round" stroke-miterlimit="1.5"/></g><g transform="matrix(.673629 0 0 1 0.003565 0)" clip-rule="evenodd"><path d="M1730.03,2104.81c19.98,4.06,41.17,15.73,53.84,32.44c1.17,1.54,3.37,1.84,4.91.67c1.54-1.16,1.84-3.36.67-4.9-13.67-18.03-36.48-30.69-58.02-35.07-1.89-.38-3.74.84-4.13,2.73-.38,1.9.84,3.75,2.73,4.13Z" clip-rule="evenodd" fill-rule="evenodd" stroke-linecap="round" stroke-linejoin="round" stroke-miterlimit="1.5"/></g></g></g></g></svg>