<svg id="eueLOCYar7W1" xmlns="http://www.w3.org/2000/svg" xmlns:xlink="http://www.w3.org/1999/xlink" viewBox="0 0 293 244" shape-rendering="geometricPrecision" text-rendering="geometricPrecision"><style><![CDATA[#eueLOCYar7W9_to {animation: eueLOCYar7W9_to__to 1000ms linear infinite alternate-reverse forwards}@keyframes eueLOCYar7W9_to__to { 0% {transform: translate(1920.671753px,2228.081543px);animation-timing-function: cubic-bezier(0.42,0,0.58,1)} 100% {transform: translate(1918.902944px,2228.802527px)}} #eueLOCYar7W10_to {animation: eueLOCYar7W10_to__to 1000ms linear infinite alternate-reverse forwards}@keyframes eueLOCYar7W10_to__to { 0% {transform: translate(1945.438918px,2232.482867px);animation-timing-function: cubic-bezier(0.42,0,0.58,1)} 100% {transform: translate(1946.815543px,2240.843586px)}} #eueLOCYar7W11_to {animation: eueLOCYar7W11_to__to 1000ms linear infinite alternate-reverse forwards}@keyframes eueLOCYar7W11_to__to { 0% {transform: translate(1968.015015px,2221.095825px);animation-timing-function: cubic-bezier(0.42,0,0.58,1)} 100% {transform: translate(1968.366777px,2224.118851px)}} #eueLOCYar7W12_to {animation: eueLOCYar7W12_to__to 1000ms linear infinite alternate-reverse forwards}@keyframes eueLOCYar7W12_to__to { 0% {transform: translate(1990.014221px,2228.697754px);animation-timing-function: cubic-bezier(0.42,0,0.58,1)} 100% {transform: translate(1991.344003px,2231.895817px)}} #eueLOCYar7W13_to {animation: eueLOCYar7W13_to__to 1000ms linear infinite alternate-reverse forwards}@keyframes eueLOCYar7W13_to__to { 0% {transform: translate(2015.786987px,2221.933838px);animation-timing-function: cubic-bezier(0.42,0,0.58,1)} 100% {transform: translate(2017.357749px,2216.363201px)}}]]></style><g transform="translate(-1267-1994)" clip-rule="evenodd"><g transform="matrix(1.4845 0 0 1-.005292 0)" clip-rule="evenodd"><g transform="matrix(.46109-.103506 0.072232 0.709101 8.68315 781.436)" clip-rule="evenodd"><path d="M1650.35,1997.16c-17.95-.42-35.87-2.68-53.82-2.37-10.14.17-21.73-.06-31.57,3.21-8.35,2.78-16.28,6.33-23.64,11.16-51.17,33.56.63,79.94-8.9,120.89-8.49,36.5-48.82,91.41-11.27,125.43c65.23,59.09,132.09-23.45,196.17-5.89c42.47,11.64,69.1,55.6,116.61,54.85c35.18-.56,87.23-79.22,71.57-111.07-12.66-25.73-40.31-46.14-42.41-77.03-.76-11.09,3.93-21.65,5.11-32.56c2.39-21.99,1.82-49.07-6.05-71.6-3.36-9.63-20.16-21.49-28.11-26.1-10.63-6.17-33.35-8.97-46.34-5.22-20.09,5.8-33.57,25.8-55.48,26.97-27.45,1.46-54.15-10.06-81.87-10.67Z" clip-rule="evenodd" fill="#fff" fill-rule="evenodd" stroke-linejoin="round" stroke-miterlimit="2"/><g clip-path="url(#eueLOCYar7W14)" clip-rule="evenodd"><g><g transform="matrix(1.64701 0.433025-.448597 1.58984-537.841-2258.87)" clip-rule="evenodd"><g id="eueLOCYar7W9_to" transform="translate(1918.902944,2228.802527)"><path d="M1928.55,2221.4c-.27,1.09-.82,1.76-1.65,2.01-.83.24-1.74.08-2.72-.48-.34-.19-.71-.41-1.13-.65-.42-.25-.83-.46-1.25-.63-.41-.17-.79-.24-1.13-.2s-.59.25-.74.63c-.26.68.02,1.2.85,1.58s1.87.81,3.12,1.31c2.04.75,3.47,1.89,4.3,3.42.84,1.53,1.1,3.36.8,5.47-.19,1.25-.59,2.32-1.19,3.2-.61.89-1.35,1.64-2.24,2.24-.89.61-1.88,1.04-2.97,1.3-1.1.27-2.23.4-3.4.4-2.08-.08-3.78-.76-5.1-2.07-1.32-1.3-1.95-2.97-1.87-5.01.04-.72.22-1.36.56-1.93.34-.56.77-.97,1.28-1.22.51-.24,1.06-.31,1.64-.19.59.11,1.16.47,1.73,1.07.91.98,1.79,1.55,2.66,1.7s1.4.08,1.59-.23c.34-.56.3-1.12-.11-1.67-.42-.54-.94-1.03-1.56-1.44-.63-.42-1.26-.77-1.9-1.05s-1.02-.46-1.13-.54c-.98-.45-1.83-.98-2.52-1.58-.7-.61-1.18-1.5-1.45-2.67-.45-2.23-.17-4.03.85-5.41s2.57-2.44,4.65-3.2c.49-.19,1.11-.31,1.87-.37.75-.05,1.54-.03,2.38.06.83.09,1.64.28,2.43.57.8.28,1.47.67,2.04,1.16s.98,1.1,1.25,1.84c.26.73.28,1.59.06,2.58Z" transform="translate(-1920.671753,-2228.081543)" clip-rule="evenodd" stroke-linejoin="round" stroke-miterlimit="2"/></g><g id="eueLOCYar7W10_to" transform="translate(1946.815543,2240.843586)"><path d="M1940.73,2214.71c.49.11.84.31,1.04.6.21.28.39.53.54.76s.33.41.54.54.6.12,1.16-.03c2.15-.6,4.1-.68,5.84-.23c1.74.46,3.21,1.28,4.42,2.47s2.14,2.64,2.8,4.36.99,3.52.99,5.41c0,1.55-.33,3.02-.99,4.42s-1.56,2.64-2.69,3.71c-1.13,1.08-2.45,1.95-3.94,2.61s-3.08,1.01-4.79,1.05c-.64,0-1.14.11-1.5.34-.35.22-.63.53-.82.9-.19.38-.3.81-.34,1.31-.04.49-.04,1,0,1.53l-.11,6.74c0,1.13-.26,2.04-.77,2.72s-1.12,1.13-1.84,1.36c-.71.22-1.46.22-2.23,0-.78-.23-1.45-.66-2.02-1.31-.87-.98-1.38-2.23-1.55-3.76s-.26-3.43-.26-5.7c0-3.51.03-6.91.09-10.2.05-3.28.12-6.68.19-10.19v-2.67c0-.9.03-1.75.09-2.55.06-.79.15-1.49.28-2.09.13-.61.35-1.06.65-1.36.53-.53,1.27-.82,2.21-.88.95-.06,1.95-.01,3.01.14Zm2.26,16.94c.04.23.43.33,1.16.31.74-.02,1.55-.16,2.44-.42.89-.27,1.68-.64,2.38-1.13.7-.5,1.05-1.1,1.05-1.82c0-1.06-.26-1.89-.77-2.49-.51-.61-1.1-1.04-1.78-1.3-.68-.27-1.36-.41-2.04-.43s-1.19-.01-1.53.03c-.34.07-.59.44-.74,1.1s-.24,1.41-.28,2.24-.04,1.63,0,2.38c.04.76.07,1.27.11,1.53Z" transform="translate(-1946.13501,-2234.995117)" clip-rule="evenodd" stroke-linejoin="round" stroke-miterlimit="2"/></g><g id="eueLOCYar7W11_to" transform="translate(1968.366777,2224.118851)"><path d="M1963.67,2217.77c.08-2.27.12-4.35.12-6.26s.07-3.82.22-5.75c.12-1.47.57-2.59,1.36-3.34.79-.76,1.66-1.16,2.61-1.22.94-.06,1.81.21,2.61.79.79.59,1.24,1.45,1.35,2.58.16,2,.25,3.75.29,5.24s.07,3.03.11,4.62c.04,2,.06,3.83.06,5.49v4.93c0,1.63-.03,3.28-.09,4.96-.05,1.68-.12,3.54-.2,5.58-.03.64-.12,1.29-.25,1.96-.13.66-.37,1.26-.71,1.81s-.81.99-1.41,1.33c-.61.34-1.36.51-2.27.51s-1.62-.46-2.13-1.39c-.51-.92-.87-2.02-1.1-3.28-.23-1.27-.36-2.55-.4-3.86-.03-1.3-.05-2.33-.05-3.08c0-.72-.01-1.54-.03-2.47s-.04-1.9-.06-2.92-.04-2.06-.06-3.11c-.02-1.06-.01-2.1.03-3.12Z" transform="translate(-1968.015015,-2221.095825)" clip-rule="evenodd" stroke-linejoin="round" stroke-miterlimit="2"/></g><g id="eueLOCYar7W12_to" transform="translate(1991.344003,2231.895817)"><path d="M2000.9,2225.02c.41,2.19.74,4.49.99,6.89.24,2.39.23,4.56-.03,6.48-.08.68-.31,1.27-.71,1.76-.39.49-.88.85-1.44,1.08-.83.3-1.69.53-2.58.7-.89.18-1.77.07-2.64-.31-.22-.11-.42-.27-.59-.48s-.33-.4-.48-.59-.31-.34-.48-.46c-.17-.11-.39-.11-.66,0-1.96.72-3.78,1-5.46.82-1.68-.17-3.15-.69-4.39-1.58-1.25-.89-2.26-2.11-3.04-3.66-.77-1.54-1.23-3.34-1.38-5.38-.15-2,.08-3.92.71-5.75.62-1.83,1.54-3.44,2.77-4.82c1.23-1.37,2.7-2.46,4.42-3.25c1.72-.8,3.62-1.15,5.69-1.08c1.44.08,2.7.38,3.77.91c1.08.53,1.99,1.23,2.72,2.12.74.89,1.33,1.9,1.79,3.03.45,1.14.79,2.33,1.02,3.57Zm-7.99,2.33c-.08-.42-.15-.87-.23-1.36-.07-.5-.22-.95-.42-1.36-.21-.42-.48-.75-.8-.99-.32-.25-.76-.36-1.33-.32-.53.08-1.07.29-1.64.63s-1.07.79-1.5,1.36c-.44.56-.77,1.21-.99,1.95-.23.74-.25,1.5-.06,2.29.15.69.46,1.23.93,1.65.48.41,1.03.71,1.68.88.64.17,1.34.24,2.09.22.76-.02,1.47-.12,2.15-.31.15-.04.26-.25.32-.65.05-.4.07-.84.05-1.33s-.05-.99-.11-1.5-.11-.9-.14-1.16Z" transform="translate(-1990.014221,-2228.697754)" clip-rule="evenodd" stroke-linejoin="round" stroke-miterlimit="2"/></g><g id="eueLOCYar7W13_to" transform="translate(2017.357749,2216.363201)"><path d="M2018.46,2240.94c-1.32.12-2.59.07-3.8-.14-1.2-.21-2.13-.61-2.77-1.22-.61-.53-1.08-1.16-1.42-1.89-.34-.74-.6-1.55-.79-2.44s-.32-1.82-.4-2.8c-.07-.99-.11-1.99-.11-3.01-.04-1.4-.1-2.86-.17-4.39-.08-1.53-.15-3.01-.23-4.45-.04-.6-.19-1.05-.45-1.33-.27-.28-.59-.48-.96-.59-.38-.12-.77-.17-1.17-.17-.39,0-.74-.06-1.04-.17-.46-.15-.81-.54-1.05-1.16-.25-.63-.35-1.3-.31-2.02.03-.71.2-1.38.51-2.01.3-.62.75-1.01,1.35-1.16.27-.04.59-.07.97-.11s.75-.09,1.1-.14c.36-.06.66-.17.91-.34s.37-.43.37-.77c0-1.06.02-2.05.06-2.97.03-.93.18-1.73.45-2.41.26-.68.69-1.23,1.27-1.64.59-.42,1.43-.66,2.52-.74.72-.04,1.32.11,1.79.45s.86.78,1.16,1.31.52,1.11.65,1.75c.13.65.2,1.27.2,1.87c0,.76.05,1.36.14,1.82.1.45.28.79.54,1.02.27.22.6.36,1.02.42s.94.09,1.59.09c.68,0,1.17.35,1.47,1.07s.42,1.52.37,2.41c-.06.89-.3,1.72-.74,2.49-.43.78-1.05,1.18-1.84,1.22-.64.04-1.15.1-1.53.2-.38.09-.67.25-.88.48s-.35.54-.42.94c-.08.39-.12.93-.12,1.61v1.84c0,.66.01,1.33.03,2.01s.07,1.35.14,2.01c.08.67.19,1.26.34,1.79.19.64.4,1.17.63,1.59.22.41.49.66.79.73.3.08.65-.02,1.05-.28.4-.27.86-.76,1.39-1.47.68-.91,1.44-1.35,2.29-1.31s1.63.31,2.35.82s1.29,1.17,1.7,1.99c.42.81.49,1.52.23,2.12-.3.68-.68,1.42-1.13,2.21-.46.79-1.05,1.53-1.79,2.21s-1.61,1.27-2.63,1.76-2.23.79-3.63.9Z" transform="translate(-2015.786987,-2221.933838)" clip-rule="evenodd" stroke-linejoin="round" stroke-miterlimit="2"/></g></g></g><clipPath id="eueLOCYar7W14"><path d="M1650.35,1997.16c-17.95-.42-35.87-2.68-53.82-2.37-10.14.17-21.73-.06-31.57,3.21-8.35,2.78-16.28,6.33-23.64,11.16-51.17,33.56.63,79.94-8.9,120.89-8.49,36.5-48.82,91.41-11.27,125.43c65.23,59.09,132.09-23.45,196.17-5.89c42.47,11.64,69.1,55.6,116.61,54.85c35.18-.56,87.23-79.22,71.57-111.07-12.66-25.73-40.31-46.14-42.41-77.03-.76-11.09,3.93-21.65,5.11-32.56c2.39-21.99,1.82-49.07-6.05-71.6-3.36-9.63-20.16-21.49-28.11-26.1-10.63-6.17-33.35-8.97-46.34-5.22-20.09,5.8-33.57,25.8-55.48,26.97-27.45,1.46-54.15-10.06-81.87-10.67Z" clip-rule="evenodd" fill-rule="evenodd" stroke-linejoin="round" stroke-miterlimit="2"/></clipPath></g><path d="M1650.47,1992.29c-18.02-.43-36.01-2.69-54.03-2.38-10.64.18-22.8.04-33.13,3.47-8.78,2.92-17.09,6.66-24.83,11.74-11.22,7.36-17.85,15.35-21.48,23.67-5.39,12.36-4.14,25.6-.65,39.22c2.68,10.45,6.66,21.13,9.38,31.76c2.52,9.88,3.97,19.7,1.76,29.21-4.23,18.19-16.41,40.95-22.84,63.41-6.97,24.35-7.23,48.27,13.04,66.64c34.33,31.11,69.04,25.32,103.64,13.69c16.34-5.49,32.63-12.29,48.83-16.6c15.38-4.11,30.66-5.98,45.78-1.84c20.68,5.67,37.43,19.33,54.86,31.35c18.78,12.96,38.3,24.08,63.21,23.69c7.92-.13,16.66-3.6,25.33-9.63c12.02-8.36,24.08-21.66,33.72-36.46s16.86-31.09,19.37-45.31c1.81-10.24,1.15-19.49-2.36-26.64-6.45-13.1-16.67-24.87-25.58-37.27-8.24-11.46-15.37-23.46-16.36-37.99-.74-10.81,3.94-21.1,5.1-31.74c2.46-22.61,1.81-50.48-6.29-73.66-1.55-4.44-5.45-9.39-10.32-13.96-6.64-6.23-14.98-11.87-19.98-14.77-11.56-6.7-36.26-9.78-50.39-5.7-10.57,3.05-19.46,9.73-28.52,15.91-7.85,5.34-15.82,10.32-25.78,10.85-13.29.71-26.38-1.77-39.52-4.45-13.87-2.84-27.79-5.9-41.96-6.21v0Zm-.25,9.75c0,0,.01,0,.01,0c13.55.3,26.84,3.3,40.11,6c14.01,2.87,27.99,5.41,42.16,4.66c11.94-.63,21.66-6.23,31.05-12.63c8.18-5.56,16.07-11.78,25.59-14.53c11.86-3.42,32.59-.9,42.3,4.72c4.54,2.63,12.11,7.75,18.13,13.4c3.57,3.35,6.65,6.82,7.79,10.08c7.64,21.87,8.13,48.18,5.81,69.53-1.21,11.18-5.9,22.02-5.13,33.39c1.11,16.37,8.86,30.01,18.14,42.91c8.6,11.96,18.54,23.26,24.75,35.9c2.75,5.58,2.94,12.82,1.53,20.81-2.31,13.12-9.06,28.1-17.96,41.76s-19.96,26.01-31.07,33.73c-6.75,4.69-13.42,7.69-19.58,7.79-22.6.35-40.14-10.12-57.17-21.87-18.38-12.68-36.18-26.82-57.98-32.79-16.92-4.64-34.02-2.78-51.24,1.81-16.4,4.37-32.91,11.23-49.45,16.79-31.15,10.47-62.49,16.41-93.4-11.58-17.27-15.65-16.15-36.19-10.22-56.93c6.48-22.62,18.71-45.56,22.97-63.87c2.55-10.96,1.09-22.3-1.81-33.68-2.72-10.64-6.7-21.32-9.39-31.78-2.94-11.48-4.38-22.66.16-33.08c2.99-6.86,8.59-13.32,17.84-19.39c6.99-4.58,14.52-7.94,22.45-10.58c9.35-3.11,20.37-2.78,30.01-2.95c17.88-.3,35.73,1.96,53.6,2.38Z" clip-rule="evenodd" fill-rule="evenodd" stroke-linejoin="round" stroke-miterlimit="2"/></g></g></g></svg>