<?xml version="1.0" encoding="UTF-8" standalone="no"?>
<!DOCTYPE svg PUBLIC "-//W3C//DTD SVG 1.1//EN" "http://www.w3.org/Graphics/SVG/1.1/DTD/svg11.dtd">
<svg width="100%" height="100%" viewBox="0 0 1584 583" version="1.1" xmlns="http://www.w3.org/2000/svg" xmlns:xlink="http://www.w3.org/1999/xlink" xml:space="preserve" xmlns:serif="http://www.serif.com/" style="fill-rule:evenodd;clip-rule:evenodd;stroke-linecap:round;stroke-linejoin:round;stroke-miterlimit:1.5;">
    <g transform="matrix(1,0,0,1,-222,-2045)">
        <g transform="matrix(1.4845,0,0,1,-0.00529172,0)">
            <g id="track">
                <g transform="matrix(0.673629,0,0,1,0.00356466,0)">
                    <path d="M226,2105C226,2105 813.838,2314.86 956,2364C1101.64,2414.34 1669.27,2605.54 1706,2624" style="fill:none;stroke:black;stroke-width:7px;"/>
                </g>
                <g transform="matrix(0.673629,0,0,1,0.00356466,0)">
                    <path d="M226,2049C226,2049 1581.77,2423.88 1746,2488" style="fill:none;stroke:black;stroke-width:7px;"/>
                </g>
                <g transform="matrix(0.673629,0,0,1,0.00356466,1)">
                    <path d="M806,2310C806,2310 946.787,2381.49 1093,2279.5C1307.96,2129.55 1440.23,2203.71 1783,2254.99" style="fill:none;stroke:black;stroke-width:7px;"/>
                </g>
                <g transform="matrix(0.673629,0,0,1,6.73986,3)">
                    <path d="M860,2225.29C895.165,2234.92 991.496,2175.59 1132,2107C1328.95,2010.86 1714.81,2120.85 1792,2136" style="fill:none;stroke:black;stroke-width:7px;"/>
                </g>
            </g>
        </g>
    </g>
</svg>
