<svg id="esVSbmBYDdL1" xmlns="http://www.w3.org/2000/svg" xmlns:xlink="http://www.w3.org/1999/xlink" viewBox="0 0 533 386" shape-rendering="geometricPrecision" text-rendering="geometricPrecision"><style><![CDATA[#esVSbmBYDdL48 {animation: esVSbmBYDdL48__m 400ms linear infinite alternate-reverse forwards}@keyframes esVSbmBYDdL48__m { 0% {d: path('M421.295,2141.42C421.295,2141.42,441.086,2163.1,444,2142.56C446.914,2122.02,445.04,2181.53,471,2133C470.179,2148.01,468.814,2171.49,508.311,2148');animation-timing-function: cubic-bezier(0.42,0,0.58,1)} 100% {d: path('M421.295,2141.42C421.295,2141.42,441.086,2163.1,444,2142.56C446.914,2122.02,444,2196.395874,471,2133C470.179,2148.01,470.999999,2183.564514,508.311,2148')}} #esVSbmBYDdL49_to {animation: esVSbmBYDdL49_to__to 400ms linear infinite alternate-reverse forwards}@keyframes esVSbmBYDdL49_to__to { 0% {transform: translate(398.232px,971.615px);animation-timing-function: cubic-bezier(0.42,0,0.58,1)} 100% {transform: translate(398.232px,961.963806px)}} #esVSbmBYDdL52_to {animation: esVSbmBYDdL52_to__to 400ms linear infinite alternate-reverse forwards}@keyframes esVSbmBYDdL52_to__to { 0% {transform: translate(422.5px,2150.620239px);animation-timing-function: cubic-bezier(0.42,0,0.58,1)} 100% {transform: translate(428.212142px,2164.930505px)}} #esVSbmBYDdL54_to {animation: esVSbmBYDdL54_to__to 400ms linear infinite alternate-reverse forwards}@keyframes esVSbmBYDdL54_to__to { 0% {transform: translate(422.5px,2150.620239px);animation-timing-function: cubic-bezier(0.42,0,0.58,1)} 100% {transform: translate(421.68922px,2135.949684px)}} #esVSbmBYDdL56_to {animation: esVSbmBYDdL56_to__to 400ms linear infinite alternate-reverse forwards}@keyframes esVSbmBYDdL56_to__to { 0% {transform: translate(422.5px,2150.620239px);animation-timing-function: cubic-bezier(0.42,0,0.58,1)} 100% {transform: translate(424.733759px,2156.216329px)}}]]></style><g transform="translate(-500-1908)" clip-rule="evenodd"><g transform="matrix(1.4845 0 0 1-.005292 0)" clip-rule="evenodd"><g transform="translate(169.639 58.9423)" clip-rule="evenodd"><g transform="matrix(.673629 0 0 1 0.003565 0)" clip-rule="evenodd"><path d="M360.011,2131.95l-64.878-20.71c0,0-1.85-78.83-2.133-88.24s-4.032-48.23-7-63.27c-11.582-4.47-61.245-19.03-16-47.73c25.52-5.72,70.853-11.03,80.602-18.18c9.75-7.15.04-6.58,0-15.82c16.789-9.78,31.605-24.49,92.398-25.63s190.19,13.05,230,30.74c39.81,17.7,56.632,19.76,61.414,26.56-13.412,1.68-14.414,0-14.414,0l2,38.33c0,0,52.655,16.45,52.53,47-3.543,9.62-9.54,19.13-16.53,22c.93,10.97,1.69,126.2,0,134s.81,39.96-50,61c-11.968,6.86-35.199,14.84-55,19-16.242-.03-64.5-4.42-110.78-35-8.113,4.37-30.116,7.38-23.266-8-8.06,8.95-30.65,9.18-29.954-8c.536-13.23-3.687-12.82,0-21-11.187-.9-16.756,15.12-34.215-7.02-28.642-2.03-27.16-13.46-34.785-24.98c9.826,23.05-6.027,33.08-16.257,31.5-10.886-1.68-26.002-.5-32.077-4.58-15.238-10.22-10.628-28.25-11.655-21.97Z" clip-rule="evenodd" fill="#fff" fill-rule="evenodd" stroke-linecap="round" stroke-linejoin="round" stroke-miterlimit="1.5"/></g><g transform="matrix(.673629 0 0 1 0.003565 0)" clip-rule="evenodd"><path d="M288,1962c0,0,5.525,140.64,9,148s51.677,20.22,64,24s2.823-39.6,30-32s149.105,58.16,152,61-2.634,26.87,7,35s79.79,30.68,91,33s104.721-65.92,113-75s3.275-121.96,1-133" clip-rule="evenodd" fill="none" fill-rule="evenodd" stroke="#000" stroke-width="7" stroke-linecap="round" stroke-linejoin="round" stroke-miterlimit="1.5"/></g><g transform="matrix(.673629 0 0 1 0.003565 0)" clip-rule="evenodd"><path d="M350,1890c0,0-203.204,50.65-25,75c87.685,19.61,167.486,41.61,198.294,45c30.809,3.39,144.082,32.31,214.706,17s30.16-70.19-3-77c-41.464,4.67-76.963,13.68-92,15s-265.149-51.91-284-59c-.168-8.41-9-16-9-16Z" clip-rule="evenodd" fill="none" fill-rule="evenodd" stroke="#000" stroke-width="7" stroke-linecap="round" stroke-linejoin="round" stroke-miterlimit="1.5"/></g><g transform="matrix(.673629 0 0 1 0.003565 0)" clip-rule="evenodd"><path d="M334,1883c0,0,219.815,19.42,290,51c22.718-11.44,27.334-21.23,110-19-21.212-18.74-98.664-62.3-308-62-29.368,0-71.958,12.16-92,30Z" clip-rule="evenodd" fill="none" fill-rule="evenodd" stroke="#000" stroke-width="7" stroke-linecap="round" stroke-linejoin="round" stroke-miterlimit="1.5"/></g><g transform="matrix(.673629 0 0 1 0.003565 0)" clip-rule="evenodd"><path d="M626,1934v28" clip-rule="evenodd" fill="none" fill-rule="evenodd" stroke="#000" stroke-width="7" stroke-linecap="round" stroke-linejoin="round" stroke-miterlimit="1.5"/></g><g transform="matrix(.673629 0 0 1 0.003565 0)" clip-rule="evenodd"><path d="M721,1915v34.5" clip-rule="evenodd" fill="none" fill-rule="evenodd" stroke="#000" stroke-width="7" stroke-linecap="round" stroke-linejoin="round" stroke-miterlimit="1.5"/></g><g transform="matrix(.673629 0 0 1 0.003565 0)" clip-rule="evenodd"><path d="M549,1915v32.5" clip-rule="evenodd" fill="none" fill-rule="evenodd" stroke="#000" stroke-width="7" stroke-linecap="round" stroke-linejoin="round" stroke-miterlimit="1.5"/></g><g transform="matrix(.673629 0 0 1 0.003565 0)" clip-rule="evenodd"><path d="M414,1917v-25" clip-rule="evenodd" fill="none" fill-rule="evenodd" stroke="#000" stroke-width="7" stroke-linecap="round" stroke-linejoin="round" stroke-miterlimit="1.5"/></g><g transform="matrix(.673629 0 0 1 0.003565 0)" clip-rule="evenodd"><path d="M311,2026l31,5.44c0,0,1.129-41.44-11-41.44s-20,12.15-20,36Z" clip-rule="evenodd" fill="none" fill-rule="evenodd" stroke="#000" stroke-width="7" stroke-linecap="round" stroke-linejoin="round" stroke-miterlimit="1.5"/></g><g transform="matrix(.673629 0 0 1 0.003565 0)" clip-rule="evenodd"><path d="M365,2038l34,5c0,0,9.287-39-11-39s-23,21.41-23,34Z" clip-rule="evenodd" fill="none" fill-rule="evenodd" stroke="#000" stroke-width="7" stroke-linecap="round" stroke-linejoin="round" stroke-miterlimit="1.5"/></g><g transform="matrix(.673629 0 0 1 0.003565 0)" clip-rule="evenodd"><path d="M423,2052l36,8c0,0,5.936-42.58-10-42s-26,15.9-26,34Z" clip-rule="evenodd" fill="none" fill-rule="evenodd" stroke="#000" stroke-width="7" stroke-linecap="round" stroke-linejoin="round" stroke-miterlimit="1.5"/></g><g transform="matrix(.673629 0 0 1 0.003565 0)" clip-rule="evenodd"><path d="M487,2066l36,6c0,0,8.087-40.56-15-40.56s-21,19.79-21,34.56Z" clip-rule="evenodd" fill="none" fill-rule="evenodd" stroke="#000" stroke-width="7" stroke-linecap="round" stroke-linejoin="round" stroke-miterlimit="1.5"/></g><g transform="matrix(.673629 0 0 1 0.003565 0)" clip-rule="evenodd"><path d="M562,2189l61,17l2-163-64-11.56L562,2189Z" clip-rule="evenodd" fill="none" fill-rule="evenodd" stroke="#000" stroke-width="7" stroke-linecap="round" stroke-linejoin="round" stroke-miterlimit="1.5"/></g><g transform="matrix(.673629 0 0 1 0.003565 0)" clip-rule="evenodd"><path d="M593,2039v158" clip-rule="evenodd" fill="none" fill-rule="evenodd" stroke="#000" stroke-width="7" stroke-linecap="round" stroke-linejoin="round" stroke-miterlimit="1.5"/></g><g transform="matrix(.673629 0 0 1 0.003565 0)" clip-rule="evenodd"><rect width="10" height="43" rx="0" ry="0" transform="translate(571 2060)" clip-rule="evenodd" fill="none" fill-rule="evenodd" stroke="#000" stroke-width="7" stroke-linecap="round" stroke-linejoin="round" stroke-miterlimit="1.5"/></g><g transform="matrix(.673629 0 0 1 0.003565 0)" clip-rule="evenodd"><path d="M663,2118l93-37" clip-rule="evenodd" fill="none" fill-rule="evenodd" stroke="#000" stroke-width="7" stroke-linecap="round" stroke-linejoin="round" stroke-miterlimit="1.5"/></g><g transform="matrix(.673629 0 0 1 0.003565 0)" clip-rule="evenodd"><path d="M698.76,2052c0,0,36.233-49.75,35.24,37" clip-rule="evenodd" fill="none" fill-rule="evenodd" stroke="#000" stroke-width="7" stroke-linecap="round" stroke-linejoin="round" stroke-miterlimit="1.5"/></g><g transform="matrix(.673629 0 0 1 0.003565 0)" clip-rule="evenodd"><path d="M730,2044c0,0,14.052-19.97,26-3" clip-rule="evenodd" fill="none" fill-rule="evenodd" stroke="#000" stroke-width="7" stroke-linecap="round" stroke-linejoin="round" stroke-miterlimit="1.5"/></g><g transform="matrix(.673629 0 0 1 0.003565 0)" clip-rule="evenodd"><path d="M665,2186c0,0-19.438,7.99-4.273,20c11.717,9.28,18.058-26.35,4.273-20Z" clip-rule="evenodd" fill="none" fill-rule="evenodd" stroke="#000" stroke-width="7" stroke-linecap="round" stroke-linejoin="round" stroke-miterlimit="1.5"/></g><g transform="matrix(.673629 0 0 1 1.35082 2)" clip-rule="evenodd"><path d="M740,2135c0,0-12.856,11.21,0,13s5.2-19.78,0-13Z" clip-rule="evenodd" fill="none" fill-rule="evenodd" stroke="#000" stroke-width="7" stroke-linecap="round" stroke-linejoin="round" stroke-miterlimit="1.5"/></g><g transform="matrix(.673629 0 0 1 0.003565 0)" clip-rule="evenodd"><path d="M643,2231c5.994.96,117.593-19.48,111-73.71" clip-rule="evenodd" fill="none" fill-rule="evenodd" stroke="#000" stroke-width="7" stroke-linecap="round" stroke-linejoin="round" stroke-miterlimit="1.5"/></g><g transform="matrix(.673629 0 0 1 0.003565 0)" clip-rule="evenodd"><path id="esVSbmBYDdL48" d="M421.295,2141.42c0,0,19.791,21.68,22.705,1.14s0,53.835874,27-9.56c-.821,15.01-.000001,50.564514,37.311,15" clip-rule="evenodd" fill="none" fill-rule="evenodd" stroke="#000" stroke-width="7" stroke-linecap="round" stroke-linejoin="round" stroke-miterlimit="1.5"/></g><g id="esVSbmBYDdL49_to" transform="translate(398.232,961.963806)"><g transform="rotate(28.487458) skewX(14.653511) skewY(0) scale(0.354547,0.50329) translate(0,0)" clip-rule="evenodd"><ellipse rx="33.5" ry="34.618" transform="translate(426.172072 2162.094198)" clip-rule="evenodd" fill="#fff" fill-rule="evenodd" stroke="#000" stroke-width="13.57" stroke-linecap="round" stroke-linejoin="round" stroke-miterlimit="1.5"/></g></g><g transform="matrix(.26891 0.14593-.107339 0.435892 399.368 1138.33)" clip-rule="evenodd"><g id="esVSbmBYDdL52_to" transform="translate(428.212142,2164.930505)"><ellipse rx="33.5" ry="34.618" transform="translate(0,-0.000239)" clip-rule="evenodd" fill="#fff" fill-rule="evenodd" stroke="#000" stroke-width="15.73" stroke-linecap="round" stroke-linejoin="round" stroke-miterlimit="1.5"/></g></g><g transform="matrix(.26891 0.14593-.107339 0.435892 456.28 1174.27)" clip-rule="evenodd"><g id="esVSbmBYDdL54_to" transform="translate(421.68922,2135.949684)"><ellipse rx="33.5" ry="34.618" transform="translate(0,-0.000239)" clip-rule="evenodd" fill="#fff" fill-rule="evenodd" stroke="#000" stroke-width="15.73" stroke-linecap="round" stroke-linejoin="round" stroke-miterlimit="1.5"/></g></g><g transform="matrix(.26891 0.14593-.107339 0.435892 474.349 1184.97)" clip-rule="evenodd"><g id="esVSbmBYDdL56_to" transform="translate(424.733759,2156.216329)"><ellipse rx="33.5" ry="34.618" transform="translate(0,-0.000239)" clip-rule="evenodd" fill="#fff" fill-rule="evenodd" stroke="#000" stroke-width="15.73" stroke-linecap="round" stroke-linejoin="round" stroke-miterlimit="1.5"/></g></g><g transform="matrix(.673629 0 0 1 0.003565 0)" clip-rule="evenodd"><path d="M691,2180l34-24v-40l-36,14.53l2,49.47Z" clip-rule="evenodd" fill="none" fill-rule="evenodd" stroke="#000" stroke-width="7" stroke-linecap="round" stroke-linejoin="round" stroke-miterlimit="1.5"/></g><g transform="matrix(.673629 0 0 1 0.003565 0)" clip-rule="evenodd"><path d="M651,2030l-9,201.06" clip-rule="evenodd" fill="none" fill-rule="evenodd" stroke="#000" stroke-width="7" stroke-linecap="round" stroke-linejoin="round" stroke-miterlimit="1.5"/></g><g transform="matrix(.673629 0 0 1 0.003565 0)" clip-rule="evenodd"><path d="M662,2118c0,0-9.028-74,21-74c25.028-1,15,47.4,15,59" clip-rule="evenodd" fill="none" fill-rule="evenodd" stroke="#000" stroke-width="7" stroke-linecap="round" stroke-linejoin="round" stroke-miterlimit="1.5"/></g><g transform="matrix(.673629 0 0 1 0.003565 0)" clip-rule="evenodd"><path d="M602,2060h13l-2,47-11-1v-46Z" clip-rule="evenodd" fill="none" fill-rule="evenodd" stroke="#000" stroke-width="7" stroke-linecap="round" stroke-linejoin="round" stroke-miterlimit="1.5"/></g></g></g></g></svg>