<?xml version="1.0" encoding="UTF-8" standalone="no"?>
<!DOCTYPE svg PUBLIC "-//W3C//DTD SVG 1.1//EN" "http://www.w3.org/Graphics/SVG/1.1/DTD/svg11.dtd">
<svg width="100%" height="100%" viewBox="0 0 256 258" version="1.1" xmlns="http://www.w3.org/2000/svg" xmlns:xlink="http://www.w3.org/1999/xlink" xml:space="preserve" xmlns:serif="http://www.serif.com/" style="fill-rule:evenodd;clip-rule:evenodd;stroke-linecap:round;stroke-linejoin:round;stroke-miterlimit:1.5;">
    <g transform="matrix(1,0,0,1,-1052,-1811)">
        <g transform="matrix(1.4845,0,0,1,-0.00529172,0)">
            <g id="you-pull">
                <g transform="matrix(0.673629,0,0,1,0.00356466,0)">
                    <path d="M1081,2025C1081,2025 1030.55,2057.11 1072,2064C1113.45,2070.89 1138.83,2051.91 1081,2025" style="fill:none;stroke:black;stroke-width:7px;"/>
                </g>
                <g transform="matrix(0.673629,0,0,1,0.00356466,0)">
                    <path d="M1085.23,2025L1140.81,1973" style="fill:none;stroke:black;stroke-width:7px;"/>
                </g>
                <g transform="matrix(0.673629,0,0,1,20.4845,26.9729)">
                    <path d="M1114.81,1946C1114.81,1946 1099.54,1932.52 1114.81,1931C1130.08,1929.48 1137.49,1941.66 1114.81,1946Z" style="fill:none;stroke:black;stroke-width:7px;"/>
                </g>
                <g transform="matrix(0.571814,0,0,1,130.958,27)">
                    <path d="M1114.81,1930.87C1114.81,1930.87 1096.2,1908.37 1118.6,1910C1140.99,1911.63 1149.39,1940.17 1129.17,1930.87" style="fill:none;stroke:black;stroke-width:7.55px;"/>
                </g>
                <g transform="matrix(0.673629,0,0,1,0.00356466,0)">
                    <path d="M1144.1,1934.92C1144.1,1934.92 1162.33,1907.48 1160.15,1885C1157.98,1862.52 1172.86,1857.47 1182,1856C1191.14,1854.53 1210.1,1858.75 1225,1857C1227.83,1856.67 1265.05,1892.46 1271,1902C1276.95,1911.54 1273,1921.32 1273,1921.32L1257,1921.32L1256,1909.92C1256,1909.92 1236.29,1890.99 1228,1890C1233.65,1905.98 1233.39,1934.89 1239,1938.43C1244.61,1941.98 1207.3,1959.38 1196,1938.43C1197.74,1922.87 1196.16,1912.48 1186,1899C1175.84,1885.52 1180,1876 1180,1876C1179.34,1899.32 1179.69,1907.79 1162.64,1947.71" style="fill:none;stroke:black;stroke-width:7px;"/>
                </g>
                <g transform="matrix(0.673629,0,0,1,0.00356466,0)">
                    <path d="M1260,2033L1262,2048.39C1262,2048.39 1276.48,2052.05 1296,2048.39C1315.52,2044.74 1292.89,2036.49 1284,2031" style="fill:none;stroke:black;stroke-width:7px;"/>
                </g>
                <g transform="matrix(0.549792,0,0,0.776465,154.912,427.483)">
                    <path d="M1267,1921.32C1267,1921.32 1236.02,1931.29 1260,1948.58C1283.98,1965.88 1285.41,1922.28 1267,1921.32Z" style="fill:none;stroke:black;stroke-width:8.79px;"/>
                </g>
                <g transform="matrix(0.673629,0,0,1,0.00356466,0)">
                    <path d="M1196.5,1815C1209.96,1816.28 1221,1826.43 1221,1840.5C1221,1854.57 1210.02,1866 1196.5,1866C1182.98,1866 1178.77,1852.84 1172,1840.5C1162.95,1824.02 1175.5,1813.01 1196.5,1815Z" style="fill:white;stroke:black;stroke-width:7px;"/>
                </g>
                <g transform="matrix(1.51758,0,0,2.25285,-1002.27,-2298.72)">
                    <circle cx="1188" cy="1836" r="2"/>
                </g>
                <g transform="matrix(1.51758,0,0,2.25285,-990.928,-2299.67)">
                    <circle cx="1188" cy="1836" r="2"/>
                </g>
                <g transform="matrix(0.673629,0,0,1,0.00356466,0)">
                    <path d="M1188.51,1852C1188.51,1852 1194.76,1842.92 1200.84,1847C1206.92,1851.08 1206.66,1850.3 1209.85,1848" style="fill:none;stroke:rgb(2,2,0);stroke-width:7px;"/>
                </g>
                <g transform="matrix(0.673629,0,0,1,0.00356466,0)">
                    <path d="M1189,2039.04C1189,2039.04 1150.89,2062.14 1199.19,2057C1210.41,2052.72 1219.12,2056.2 1214,2039.04" style="fill:none;stroke:black;stroke-width:7px;"/>
                </g>
                <g transform="matrix(0.673629,0,0,1,0.00356466,0)">
                    <path d="M1194,1938.43C1194,1938.43 1167.42,2008.44 1188,2038C1209.11,2040.35 1216,2038 1216,2038C1216,2038 1198.31,1957.3 1227,1964C1255.69,1970.7 1253.58,2015.82 1257,2034C1283.62,2031.47 1284,2031 1284,2031C1284,2031 1269.07,1944.61 1239,1938.43" style="fill:none;stroke:black;stroke-width:7px;"/>
                </g>
            </g>
        </g>
    </g>
</svg>
