<svg id="etzm3aECsqi1" xmlns="http://www.w3.org/2000/svg" xmlns:xlink="http://www.w3.org/1999/xlink" viewBox="0 0 256 258" shape-rendering="geometricPrecision" text-rendering="geometricPrecision"><style><![CDATA[#etzm3aECsqi21_to {animation: etzm3aECsqi21_to__to 1800ms linear infinite alternate-reverse forwards}@keyframes etzm3aECsqi21_to__to { 0% {transform: translate(806.286072px,1837.037781px)} 44.444444% {transform: translate(806.286072px,1837.037781px);animation-timing-function: cubic-bezier(0.42,0,0.58,1)} 55.555556% {transform: translate(807.805989px,1835.410706px)} 100% {transform: translate(807.805989px,1835.410706px)}}]]></style><g transform="translate(-1052-1811)" clip-rule="evenodd"><g transform="matrix(1.4845 0 0 1-.005292 0)" clip-rule="evenodd"><g clip-rule="evenodd"><g transform="matrix(.673629 0 0 1 0.003565 0)" clip-rule="evenodd"><path d="M1081,2025c0,0-50.45,32.11-9,39s66.83-12.09,9-39" transform="translate(0 0.000001)" clip-rule="evenodd" fill="none" fill-rule="evenodd" stroke="#000" stroke-width="7" stroke-linecap="round" stroke-linejoin="round" stroke-miterlimit="1.5"/></g><g transform="matrix(.673629 0 0 1 0.003565 0)" clip-rule="evenodd"><path d="M1085.23,2025l29.58-79" clip-rule="evenodd" fill="none" fill-rule="evenodd" stroke="#000" stroke-width="7" stroke-linecap="round" stroke-linejoin="round" stroke-miterlimit="1.5"/></g><g transform="matrix(.673629 0 0 1 0.003565 0)" clip-rule="evenodd"><path d="M1114.81,1946c0,0-15.27-13.48,0-15s22.68,10.66,0,15Z" clip-rule="evenodd" fill="none" fill-rule="evenodd" stroke="#000" stroke-width="7" stroke-linecap="round" stroke-linejoin="round" stroke-miterlimit="1.5"/></g><g transform="matrix(.571814 0 0 1 112.77 0)" clip-rule="evenodd"><path d="M1114.81,1930.87c0,0-18.61-22.5,3.79-20.87c22.39,1.63,30.79,30.17,10.57,20.87" clip-rule="evenodd" fill="none" fill-rule="evenodd" stroke="#000" stroke-width="7.55" stroke-linecap="round" stroke-linejoin="round" stroke-miterlimit="1.5"/></g><g transform="matrix(.673629 0 0 1 0.003565 0)" clip-rule="evenodd"><path d="M1124.1,1909.92c0,0,38.23-2.44,36.05-24.92-2.17-22.48,12.71-27.53,21.85-29s28.1,2.75,43,1c2.83-.33,40.05,35.46,46,45s2,19.32,2,19.32h-16l-1-11.4c0,0-19.71-18.93-28-19.92c5.65,15.98,5.39,44.89,11,48.43c5.61,3.55-31.7,20.95-43,0c1.74-15.56.16-25.95-10-39.43s-6-23-6-23c-.66,23.32-10.31,47.41-39.36,45.32" clip-rule="evenodd" fill="none" fill-rule="evenodd" stroke="#000" stroke-width="7" stroke-linecap="round" stroke-linejoin="round" stroke-miterlimit="1.5"/></g><g transform="matrix(.673629 0 0 1 0.003565 0)" clip-rule="evenodd"><path d="M1260,2033l2,15.39c0,0,14.48,3.66,34,0c19.52-3.65-3.11-11.9-12-17.39" clip-rule="evenodd" fill="none" fill-rule="evenodd" stroke="#000" stroke-width="7" stroke-linecap="round" stroke-linejoin="round" stroke-miterlimit="1.5"/></g><g transform="matrix(.549792 0 0 0.776465 154.912 427.483)" clip-rule="evenodd"><path d="M1267,1921.32c0,0-30.98,9.97-7,27.26c23.98,17.3,25.41-26.3,7-27.26Z" clip-rule="evenodd" fill="none" fill-rule="evenodd" stroke="#000" stroke-width="8.79" stroke-linecap="round" stroke-linejoin="round" stroke-miterlimit="1.5"/></g><g transform="matrix(.673629 0 0 1 0.003565 0)" clip-rule="evenodd"><path d="M1196.5,1815c13.46,1.28,24.5,11.43,24.5,25.5s-10.98,25.5-24.5,25.5-17.73-13.16-24.5-25.5c-9.05-16.48,3.5-27.49,24.5-25.5Z" clip-rule="evenodd" fill="#fff" fill-rule="evenodd" stroke="#000" stroke-width="7" stroke-linecap="round" stroke-linejoin="round" stroke-miterlimit="1.5"/></g><g id="etzm3aECsqi21_to" transform="translate(807.805989,1835.410706)"><g transform="translate(-806.286072,-1837.037781)"><g transform="matrix(1.51758 0 0 2.25285-1002.27-2298.72)" clip-rule="evenodd"><circle r="2" transform="translate(1188 1836)" clip-rule="evenodd" fill-rule="evenodd" stroke-linecap="round" stroke-linejoin="round" stroke-miterlimit="1.5"/></g><g transform="matrix(1.51758 0 0 2.25285-990.928-2299.67)" clip-rule="evenodd"><circle r="2" transform="translate(1188 1836)" clip-rule="evenodd" fill-rule="evenodd" stroke-linecap="round" stroke-linejoin="round" stroke-miterlimit="1.5"/></g></g></g><g transform="matrix(.673629 0 0 1 0.003565 0)" clip-rule="evenodd"><path d="M1189,2039.04c0,0-38.11,23.1,10.19,17.96c11.22-4.28,19.93-.8,14.81-17.96" clip-rule="evenodd" fill="none" fill-rule="evenodd" stroke="#000" stroke-width="7" stroke-linecap="round" stroke-linejoin="round" stroke-miterlimit="1.5"/></g><g transform="matrix(.673629 0 0 1 0.003565 0)" clip-rule="evenodd"><path d="M1194,1938.43c0,0-26.58,70.01-6,99.57c21.11,2.35,28,0,28,0s-17.69-80.7,11-74s26.58,51.82,30,70c26.62-2.53,27-3,27-3s-14.93-86.39-45-92.57" clip-rule="evenodd" fill="none" fill-rule="evenodd" stroke="#000" stroke-width="7" stroke-linecap="round" stroke-linejoin="round" stroke-miterlimit="1.5"/></g><g transform="matrix(.673629 0 0 1 0.003565 0)" clip-rule="evenodd"><path d="M1188.51,1852c0,0,6.25-9.08,12.33-5s5.82,3.3,9.01,1" clip-rule="evenodd" fill="none" fill-rule="evenodd" stroke="#020200" stroke-width="7" stroke-linecap="round" stroke-linejoin="round" stroke-miterlimit="1.5"/></g></g></g></g></svg>