<?xml version="1.0" encoding="UTF-8" standalone="no"?>
<!DOCTYPE svg PUBLIC "-//W3C//DTD SVG 1.1//EN" "http://www.w3.org/Graphics/SVG/1.1/DTD/svg11.dtd">
<svg width="100%" height="100%" viewBox="0 0 50 50" version="1.1" xmlns="http://www.w3.org/2000/svg" xmlns:xlink="http://www.w3.org/1999/xlink" xml:space="preserve" xmlns:serif="http://www.serif.com/" style="fill-rule:evenodd;clip-rule:evenodd;stroke-linecap:round;stroke-linejoin:round;stroke-miterlimit:1.5;">
    <g transform="matrix(2.28637,0,0,2.22655,-16.6598,-43.0708)">
        <path d="M25,23.049L11.442,36.607L25,36.607" style="fill:none;"/>
        <clipPath id="_clip1">
            <path d="M25,23.049L11.442,36.607L25,36.607"/>
        </clipPath>
        <g clip-path="url(#_clip1)">
            <g transform="matrix(0.455288,0,0,0.467518,9.97549,17.673)">
                <circle cx="10.11" cy="38" r="12" style="fill:white;stroke:black;stroke-width:1.92px;"/>
            </g>
        </g>
        <path d="M25,23.049L11.442,36.607L25,36.607" style="fill:none;stroke:black;stroke-width:0.89px;"/>
    </g>
    <g transform="matrix(1.04096,0,0,1.04096,-1.02388,-2.68003)">
        <path d="M39.89,10.5L39.89,15" style="fill:none;stroke:black;stroke-width:1.92px;"/>
    </g>
    <g transform="matrix(0.736066,-0.736066,0.736066,0.736066,0.0969841,56.758)">
        <path d="M39.89,10.5L39.89,15" style="fill:none;stroke:black;stroke-width:1.92px;"/>
    </g>
    <g transform="matrix(-0.736066,-0.736066,0.736066,-0.736066,58.8196,78.84)">
        <path d="M39.89,10.5L39.89,15" style="fill:none;stroke:black;stroke-width:1.92px;"/>
    </g>
    <g transform="matrix(-1.9122e-16,1.04096,-1.04096,-1.9122e-16,51.4293,-33.2732)">
        <path d="M39.89,10.5L39.89,15" style="fill:none;stroke:black;stroke-width:1.92px;"/>
    </g>
    <g transform="matrix(1.04096,0,0,1.04096,-1.02388,-2.68003)">
        <path d="M39.89,10.5L39.89,15" style="fill:none;stroke:black;stroke-width:1.92px;"/>
    </g>
</svg>
