<svg fill="#000000" xmlns="http://www.w3.org/2000/svg"  viewBox="0 0 50 50" width="50px" height="50px"><path d="M 25 2 C 12.309288 2 2 12.309297 2 25 C 2 37.690703 12.309288 48 25 48 C 37.690712 48 48 37.690703 48 25 C 48 12.309297 37.690712 2 25 2 z M 25 4 C 36.609833 4 46 13.390175 46 25 C 46 36.609825 36.609833 46 25 46 C 13.390167 46 4 36.609825 4 25 C 4 13.390175 13.390167 4 25 4 z M 28 12 L 28 14 L 34.585938 14 L 14 34.585938 L 14 28 L 12 28 L 12 38 L 22 38 L 22 36 L 15.414062 36 L 36 15.414062 L 36 22 L 38 22 L 38 12 L 28 12 z"/></svg>