<?xml version="1.0" encoding="UTF-8" standalone="no"?>
<!DOCTYPE svg PUBLIC "-//W3C//DTD SVG 1.1//EN" "http://www.w3.org/Graphics/SVG/1.1/DTD/svg11.dtd">
<svg width="100%" height="100%" viewBox="0 0 24 24" version="1.1" xmlns="http://www.w3.org/2000/svg" xmlns:xlink="http://www.w3.org/1999/xlink" xml:space="preserve" xmlns:serif="http://www.serif.com/" style="fill-rule:evenodd;clip-rule:evenodd;stroke-linejoin:round;stroke-miterlimit:2;">
    <g transform="matrix(-1,-1.22465e-16,1.22465e-16,-1,24.0061,24)">
        <path d="M9.146,16.646L13.793,12L9.146,7.354C9.056,7.26 9.006,7.136 9.006,7.006C9.006,6.732 9.232,6.506 9.506,6.506C9.636,6.506 9.76,6.557 9.853,6.647L14.853,11.647C14.947,11.74 15,11.867 15,12C15,12.133 14.947,12.26 14.853,12.354L9.853,17.354C9.76,17.444 9.636,17.494 9.506,17.494C9.232,17.494 9.006,17.268 9.006,16.994C9.006,16.864 9.056,16.74 9.146,16.647L9.146,16.646Z" style="fill-rule:nonzero;"/>
    </g>
</svg>
