<?xml version="1.0" encoding="UTF-8" standalone="no"?>
<!DOCTYPE svg PUBLIC "-//W3C//DTD SVG 1.1//EN" "http://www.w3.org/Graphics/SVG/1.1/DTD/svg11.dtd">
<svg width="100%" height="100%" viewBox="0 0 50 50" version="1.1" xmlns="http://www.w3.org/2000/svg" xmlns:xlink="http://www.w3.org/1999/xlink" xml:space="preserve" xmlns:serif="http://www.serif.com/" style="fill-rule:evenodd;clip-rule:evenodd;stroke-linejoin:round;stroke-miterlimit:2;">
    <path d="M38.035,13.988C37.629,13.98 37.258,14.223 37.094,14.594C36.934,14.969 37.016,15.402 37.301,15.691L45.277,24L2.023,24C1.664,23.996 1.328,24.184 1.148,24.496C0.965,24.809 0.965,25.191 1.148,25.504C1.328,25.816 1.664,26.004 2.023,26L45.277,26L37.301,34.309C36.918,34.707 36.934,35.34 37.332,35.723C37.73,36.105 38.363,36.094 38.746,35.691L49.012,25L38.746,14.309C38.563,14.109 38.305,13.996 38.035,13.988Z" style="fill:white;fill-rule:nonzero;"/>
</svg>
