<?xml version="1.0"?><svg fill="#000000" xmlns="http://www.w3.org/2000/svg"  viewBox="0 0 50 50" width="50px" height="50px">    <path d="M 24.984375 3.9863281 A 1.0001 1.0001 0 0 0 24.814453 4.0039062 C 20.765393 4.036124 16.967568 5.1183304 13.673828 6.9882812 A 1.0001 1.0001 0 0 0 13.333984 7.1835938 C 9.9775624 9.1655556 7.1695676 11.974943 5.1875 15.330078 A 1.0001 1.0001 0 0 0 4.9863281 15.677734 C 3.1184387 18.969506 2.0377998 22.763233 2.0039062 26.804688 A 1.0001 1.0001 0 0 0 2.0078125 27.205078 C 2.0520361 32.205651 3.6914344 36.835907 6.4472656 40.591797 A 1.0004463 1.0004463 0 0 0 8.0605469 39.408203 C 7.8273828 39.090427 7.6118694 38.758614 7.3964844 38.427734 L 9.1464844 37.400391 A 1.0001 1.0001 0 0 0 8.6777344 35.53125 A 1.0001 1.0001 0 0 0 8.1328125 35.675781 L 6.3789062 36.707031 C 5.0068468 34.083219 4.188479 31.131469 4.0410156 28 L 6 28 A 1.0001 1.0001 0 1 0 6 26 L 4.0253906 26 C 4.1701917 22.900188 4.9960414 19.985997 6.3398438 17.380859 L 8.0449219 18.365234 A 1.0001 1.0001 0 1 0 9.0449219 16.634766 L 7.3398438 15.650391 C 8.9673473 13.120466 11.119991 10.967881 13.650391 9.3398438 L 14.634766 11.044922 A 1.0001 1.0001 0 1 0 16.365234 10.044922 L 15.380859 8.3398438 C 17.984374 6.9969242 20.899233 6.1702991 24 6.0253906 L 24 8 A 1.0001 1.0001 0 1 0 26 8 L 26 6.0253906 C 29.101144 6.1702195 32.015431 6.9972514 34.619141 8.3398438 L 33.634766 10.044922 A 1.0001 1.0001 0 1 0 35.365234 11.044922 L 36.349609 9.3398438 C 38.880493 10.967658 41.032596 13.119879 42.660156 15.650391 L 40.955078 16.634766 A 1.0001 1.0001 0 1 0 41.955078 18.365234 L 43.660156 17.380859 C 45.00297 19.985332 45.829871 22.899925 45.974609 26 L 44 26 A 1.0001 1.0001 0 1 0 44 28 L 45.958984 28 C 45.811521 31.131469 44.993153 34.083219 43.621094 36.707031 L 41.867188 35.675781 A 1.0001 1.0001 0 0 0 41.392578 35.53125 A 1.0001 1.0001 0 0 0 41.292969 35.53125 A 1.0001 1.0001 0 0 0 40.853516 37.400391 L 42.603516 38.427734 C 42.388131 38.758614 42.172617 39.090427 41.939453 39.408203 A 1.0004462 1.0004462 0 1 0 43.552734 40.591797 C 46.307483 36.837383 47.946723 32.209254 47.992188 27.210938 A 1.0001 1.0001 0 0 0 47.996094 26.816406 C 47.964153 22.763149 46.880379 18.96027 45.005859 15.662109 C 45.005141 15.660846 45.004625 15.659467 45.003906 15.658203 A 1.0001 1.0001 0 0 0 44.824219 15.349609 C 42.840372 11.983366 40.026004 9.1653376 36.660156 7.1796875 C 36.658625 7.178784 36.657782 7.1766844 36.65625 7.1757812 A 1.0001 1.0001 0 0 0 36.332031 6.9921875 C 33.037339 5.1209011 29.238362 4.0364602 25.1875 4.0039062 C 25.186193 4.0038957 25.1849 4.0039165 25.183594 4.0039062 A 1.0001 1.0001 0 0 0 24.984375 3.9863281 z M 38.775391 18.642578 L 27.726562 22.822266 C 26.940479 22.306388 26.005541 22 25 22 C 22.248671 22 20 24.251843 20 27 C 20 29.748157 22.248671 32 25 32 C 27.751329 32 30 29.748157 30 27 C 30 26.970386 29.996614 26.941606 29.996094 26.912109 L 39 19 L 38.775391 18.642578 z M 25 24 C 26.670973 24 28 25.330912 28 27 C 28 28.667843 26.670671 30 25 30 C 23.329329 30 22 28.667843 22 27 C 22 25.332157 23.329329 24 25 24 z M 14.998047 40 A 1.0001 1.0001 0 0 0 13.998047 41 L 13.998047 44.998047 A 1.0001 1.0001 0 0 0 14.998047 45.998047 L 35.001953 45.998047 A 1.0001 1.0001 0 0 0 36.001953 44.998047 L 36.001953 41 A 1.0001 1.0001 0 0 0 35.001953 40 L 14.998047 40 z M 15.998047 42 L 34.001953 42 L 34.001953 43.998047 L 15.998047 43.998047 L 15.998047 42 z"/></svg>