<svg id="evtpounbkptk1" xmlns="http://www.w3.org/2000/svg" xmlns:xlink="http://www.w3.org/1999/xlink" viewBox="0 0 1292 1360" shape-rendering="geometricPrecision" text-rendering="geometricPrecision"><style><![CDATA[#evtpounbkptk4 {animation: evtpounbkptk4_f_o 3000ms linear infinite normal forwards}@keyframes evtpounbkptk4_f_o { 0% {fill-opacity: 1} 30% {fill-opacity: 1} 33.333333% {fill-opacity: 0} 100% {fill-opacity: 0} }#evtpounbkptk5 {animation: evtpounbkptk5_f_o 3000ms linear infinite normal forwards}@keyframes evtpounbkptk5_f_o { 0% {fill-opacity: 1} 30% {fill-opacity: 1} 33.333333% {fill-opacity: 0} 100% {fill-opacity: 0} }#evtpounbkptk6 {animation: evtpounbkptk6_f_o 3000ms linear infinite normal forwards}@keyframes evtpounbkptk6_f_o { 0% {fill-opacity: 1} 30% {fill-opacity: 1} 33.333333% {fill-opacity: 0} 100% {fill-opacity: 0} }#evtpounbkptk7 {animation: evtpounbkptk7_f_o 3000ms linear infinite normal forwards}@keyframes evtpounbkptk7_f_o { 0% {fill-opacity: 1} 30% {fill-opacity: 1} 33.333333% {fill-opacity: 0} 100% {fill-opacity: 0} }#evtpounbkptk8 {animation: evtpounbkptk8_f_o 3000ms linear infinite normal forwards}@keyframes evtpounbkptk8_f_o { 0% {fill-opacity: 1} 30% {fill-opacity: 1} 33.333333% {fill-opacity: 0} 100% {fill-opacity: 0} }#evtpounbkptk10 {animation: evtpounbkptk10_f_o 3000ms linear infinite normal forwards}@keyframes evtpounbkptk10_f_o { 0% {fill-opacity: 0} 33.333333% {fill-opacity: 0} 36.666667% {fill-opacity: 1} 66.666667% {fill-opacity: 1} 70% {fill-opacity: 0} 100% {fill-opacity: 0} }#evtpounbkptk11 {animation: evtpounbkptk11_f_o 3000ms linear infinite normal forwards}@keyframes evtpounbkptk11_f_o { 0% {fill-opacity: 0} 33.333333% {fill-opacity: 0} 36.666667% {fill-opacity: 1} 66.666667% {fill-opacity: 1} 70% {fill-opacity: 0} 100% {fill-opacity: 0} }#evtpounbkptk12 {animation: evtpounbkptk12_f_o 3000ms linear infinite normal forwards}@keyframes evtpounbkptk12_f_o { 0% {fill-opacity: 0} 33.333333% {fill-opacity: 0} 36.666667% {fill-opacity: 1} 66.666667% {fill-opacity: 1} 70% {fill-opacity: 0} 100% {fill-opacity: 0} }#evtpounbkptk13 {animation: evtpounbkptk13_f_o 3000ms linear infinite normal forwards}@keyframes evtpounbkptk13_f_o { 0% {fill-opacity: 0} 33.333333% {fill-opacity: 0} 36.666667% {fill-opacity: 1} 66.666667% {fill-opacity: 1} 70% {fill-opacity: 0} 100% {fill-opacity: 0} }#evtpounbkptk14 {animation: evtpounbkptk14_f_o 3000ms linear infinite normal forwards}@keyframes evtpounbkptk14_f_o { 0% {fill-opacity: 0} 33.333333% {fill-opacity: 0} 36.666667% {fill-opacity: 1} 66.666667% {fill-opacity: 1} 70% {fill-opacity: 0} 100% {fill-opacity: 0} }#evtpounbkptk16 {animation: evtpounbkptk16_f_o 3000ms linear infinite normal forwards}@keyframes evtpounbkptk16_f_o { 0% {fill-opacity: 0} 66.666667% {fill-opacity: 0} 70% {fill-opacity: 1} 100% {fill-opacity: 1} }#evtpounbkptk17 {animation: evtpounbkptk17_f_o 3000ms linear infinite normal forwards}@keyframes evtpounbkptk17_f_o { 0% {fill-opacity: 0} 66.666667% {fill-opacity: 0} 70% {fill-opacity: 1} 100% {fill-opacity: 1} }#evtpounbkptk18 {animation: evtpounbkptk18_f_o 3000ms linear infinite normal forwards}@keyframes evtpounbkptk18_f_o { 0% {fill-opacity: 0} 66.666667% {fill-opacity: 0} 70% {fill-opacity: 1} 100% {fill-opacity: 1} }#evtpounbkptk19 {animation: evtpounbkptk19_f_o 3000ms linear infinite normal forwards}@keyframes evtpounbkptk19_f_o { 0% {fill-opacity: 0} 66.666667% {fill-opacity: 0} 70% {fill-opacity: 1} 100% {fill-opacity: 1} }#evtpounbkptk20 {animation: evtpounbkptk20_f_o 3000ms linear infinite normal forwards}@keyframes evtpounbkptk20_f_o { 0% {fill-opacity: 0} 66.666667% {fill-opacity: 0} 70% {fill-opacity: 1} 100% {fill-opacity: 1} }]]></style><g id="evtpounbkptk2" clip-rule="evenodd"><g id="evtpounbkptk3"><path id="evtpounbkptk4" d="M2.083000,246.174000L97.897000,228.933000C105.943000,256.026000,126.633000,269.573000,159.966000,269.573000C185.911000,269.573000,198.883000,262.677000,198.883000,248.884000C198.883000,241.658000,195.886000,236.034000,189.893000,232.011000C183.899000,227.988000,173.184000,224.421000,157.746000,221.309000C98.789000,210.009000,60.938000,195.244000,44.194000,177.012000C27.450000,158.780000,19.079000,137.345000,19.079000,112.706000C19.079000,81.007000,31.107000,54.645000,55.163000,33.620000C79.219000,12.596000,113.825000,2.083000,158.981000,2.083000C227.455000,2.083000,272.693000,29.588000,294.697000,84.596000L209.228000,110.459000C200.361000,87.963000,182.380000,76.715000,155.287000,76.715000C132.791000,76.715000,121.542000,83.693000,121.542000,97.651000C121.542000,103.890000,124.088000,108.735000,129.178000,112.183000C134.268000,115.631000,144.122000,118.910000,158.739000,122.020000C198.977000,130.528000,227.554000,138.054000,244.471000,144.599000C261.388000,151.144000,275.507000,162.345000,286.828000,178.201000C298.150000,194.057000,303.810000,212.748000,303.810000,234.274000C303.810000,268.288000,290.017000,295.852000,262.430000,316.966000C234.844000,338.081000,198.637000,348.638000,153.809000,348.638000C71.870000,348.638000,21.295000,314.483000,2.083000,246.174000Z" clip-rule="evenodd" fill="rgb(255,84,84)" stroke="rgb(255,255,255)" stroke-width="4.170000" stroke-linejoin="round" stroke-miterlimit="2"/><path id="evtpounbkptk5" d="M596.177000,263.169000L596.177000,343.466000L343.219000,343.466000L343.219000,7.256000L596.177000,7.256000L596.177000,84.843000L444.452000,84.843000L444.452000,133.612000L567.113000,133.612000L567.113000,208.243000L444.452000,208.243000L444.452000,263.169000L596.177000,263.169000Z" clip-rule="evenodd" fill="rgb(255,84,84)" stroke="rgb(255,255,255)" stroke-width="4.170000" stroke-linejoin="round" stroke-miterlimit="2"/><path id="evtpounbkptk6" d="M872.781000,260.953000L872.781000,343.466000L637.064000,343.466000L637.064000,7.256000L740.267000,7.256000L740.267000,260.953000L872.781000,260.953000Z" clip-rule="evenodd" fill="rgb(255,84,84)" stroke="rgb(255,255,255)" stroke-width="4.170000" stroke-linejoin="round" stroke-miterlimit="2"/><path id="evtpounbkptk7" d="M1144.460000,260.953000L1144.460000,343.466000L908.743000,343.466000L908.743000,7.256000L1011.946000,7.256000L1011.946000,260.953000L1144.460000,260.953000Z" clip-rule="evenodd" fill="rgb(255,84,84)" stroke="rgb(255,255,255)" stroke-width="4.170000" stroke-linejoin="round" stroke-miterlimit="2"/><path id="evtpounbkptk8" d="M1289.780000,7.256000L1261.701000,230.164000L1199.385000,230.164000L1173.030000,7.256000L1289.780000,7.256000ZM1278.204000,253.563000L1278.204000,343.466000L1183.129000,343.466000L1183.129000,253.563000L1278.204000,253.563000Z" clip-rule="evenodd" fill="rgb(255,84,84)" stroke="rgb(255,255,255)" stroke-width="4.170000" stroke-linejoin="round" stroke-miterlimit="2"/></g><g id="evtpounbkptk9"><path id="evtpounbkptk10" d="M2.083000,750.612000L97.897000,733.370000C105.943000,760.464000,126.633000,774.011000,159.966000,774.011000C185.911000,774.011000,198.883000,767.115000,198.883000,753.321000C198.883000,746.096000,195.886000,740.472000,189.893000,736.449000C183.899000,732.426000,173.184000,728.859000,157.746000,725.746000C98.789000,714.447000,60.938000,699.681000,44.194000,681.450000C27.450000,663.218000,19.079000,641.783000,19.079000,617.144000C19.079000,585.445000,31.107000,559.083000,55.163000,538.058000C79.219000,517.034000,113.825000,506.521000,158.981000,506.521000C227.455000,506.521000,272.693000,534.026000,294.697000,589.034000L209.228000,614.897000C200.361000,592.400000,182.380000,581.152000,155.287000,581.152000C132.791000,581.152000,121.542000,588.131000,121.542000,602.089000C121.542000,608.328000,124.088000,613.172000,129.178000,616.621000C134.268000,620.069000,144.122000,623.348000,158.739000,626.458000C198.977000,634.965000,227.554000,642.492000,244.471000,649.037000C261.388000,655.582000,275.507000,666.783000,286.828000,682.639000C298.150000,698.495000,303.810000,717.186000,303.810000,738.712000C303.810000,772.726000,290.017000,800.290000,262.430000,821.404000C234.844000,842.519000,198.637000,853.076000,153.809000,853.076000C71.870000,853.076000,21.295000,818.921000,2.083000,750.612000Z" clip-rule="evenodd" fill="rgb(255,84,84)" fill-opacity="0" stroke="rgb(255,255,255)" stroke-width="4.170000" stroke-linejoin="round" stroke-miterlimit="2"/><path id="evtpounbkptk11" d="M596.177000,767.607000L596.177000,847.903000L343.219000,847.903000L343.219000,511.694000L596.177000,511.694000L596.177000,589.281000L444.452000,589.281000L444.452000,638.049000L567.113000,638.049000L567.113000,712.681000L444.452000,712.681000L444.452000,767.607000L596.177000,767.607000Z" clip-rule="evenodd" fill="rgb(255,84,84)" fill-opacity="0" stroke="rgb(255,255,255)" stroke-width="4.170000" stroke-linejoin="round" stroke-miterlimit="2"/><path id="evtpounbkptk12" d="M872.781000,765.390000L872.781000,847.903000L637.064000,847.903000L637.064000,511.694000L740.267000,511.694000L740.267000,765.390000L872.781000,765.390000Z" clip-rule="evenodd" fill="rgb(255,84,84)" fill-opacity="0" stroke="rgb(255,255,255)" stroke-width="4.170000" stroke-linejoin="round" stroke-miterlimit="2"/><path id="evtpounbkptk13" d="M1144.460000,765.390000L1144.460000,847.903000L908.743000,847.903000L908.743000,511.694000L1011.946000,511.694000L1011.946000,765.390000L1144.460000,765.390000Z" clip-rule="evenodd" fill="rgb(255,84,84)" fill-opacity="0" stroke="rgb(255,255,255)" stroke-width="4.170000" stroke-linejoin="round" stroke-miterlimit="2"/><path id="evtpounbkptk14" d="M1289.780000,511.694000L1261.701000,734.602000L1199.385000,734.602000L1173.030000,511.694000L1289.780000,511.694000ZM1278.204000,758.001000L1278.204000,847.903000L1183.129000,847.903000L1183.129000,758.001000L1278.204000,758.001000Z" clip-rule="evenodd" fill="rgb(255,84,84)" fill-opacity="0" stroke="rgb(255,255,255)" stroke-width="4.170000" stroke-linejoin="round" stroke-miterlimit="2"/></g><g id="evtpounbkptk15"><path id="evtpounbkptk16" d="M2.083000,1255.050000L97.897000,1237.808000C105.943000,1264.902000,126.633000,1278.449000,159.966000,1278.449000C185.911000,1278.449000,198.883000,1271.552000,198.883000,1257.759000C198.883000,1250.534000,195.886000,1244.910000,189.893000,1240.887000C183.899000,1236.864000,173.184000,1233.297000,157.746000,1230.184000C98.789000,1218.885000,60.938000,1204.119000,44.194000,1185.887000C27.450000,1167.656000,19.079000,1146.220000,19.079000,1121.582000C19.079000,1089.883000,31.107000,1063.521000,55.163000,1042.496000C79.219000,1021.471000,113.825000,1010.959000,158.981000,1010.959000C227.455000,1010.959000,272.693000,1038.463000,294.697000,1093.472000L209.228000,1119.334000C200.361000,1096.838000,182.380000,1085.590000,155.287000,1085.590000C132.791000,1085.590000,121.542000,1092.569000,121.542000,1106.526000C121.542000,1112.766000,124.088000,1117.610000,129.178000,1121.059000C134.268000,1124.507000,144.122000,1127.786000,158.739000,1130.895000C198.977000,1139.403000,227.554000,1146.930000,244.471000,1153.475000C261.388000,1160.020000,275.507000,1171.221000,286.828000,1187.077000C298.150000,1202.933000,303.810000,1221.624000,303.810000,1243.150000C303.810000,1277.164000,290.017000,1304.728000,262.430000,1325.842000C234.844000,1346.957000,198.637000,1357.514000,153.809000,1357.514000C71.870000,1357.514000,21.295000,1323.359000,2.083000,1255.050000Z" clip-rule="evenodd" fill="rgb(255,84,84)" fill-opacity="0" stroke="rgb(255,255,255)" stroke-width="4.170000" stroke-linejoin="round" stroke-miterlimit="2"/><path id="evtpounbkptk17" d="M596.177000,1272.050000L596.177000,1352.346000L343.219000,1352.346000L343.219000,1016.137000L596.177000,1016.137000L596.177000,1093.723000L444.452000,1093.723000L444.452000,1142.492000L567.113000,1142.492000L567.113000,1217.123000L444.452000,1217.123000L444.452000,1272.050000L596.177000,1272.050000Z" clip-rule="evenodd" fill="rgb(255,84,84)" fill-opacity="0" stroke="rgb(255,255,255)" stroke-width="4.170000" stroke-linejoin="round" stroke-miterlimit="2"/><path id="evtpounbkptk18" d="M872.781000,1269.830000L872.781000,1352.343000L637.064000,1352.343000L637.064000,1016.134000L740.267000,1016.134000L740.267000,1269.830000L872.781000,1269.830000Z" clip-rule="evenodd" fill="rgb(255,84,84)" fill-opacity="0" stroke="rgb(255,255,255)" stroke-width="4.170000" stroke-linejoin="round" stroke-miterlimit="2"/><path id="evtpounbkptk19" d="M1144.460000,1269.830000L1144.460000,1352.343000L908.743000,1352.343000L908.743000,1016.134000L1011.946000,1016.134000L1011.946000,1269.830000L1144.460000,1269.830000Z" clip-rule="evenodd" fill="rgb(255,84,84)" fill-opacity="0" stroke="rgb(255,255,255)" stroke-width="4.170000" stroke-linejoin="round" stroke-miterlimit="2"/><path id="evtpounbkptk20" d="M1289.780000,1016.130000L1261.701000,1239.038000L1199.385000,1239.038000L1173.030000,1016.130000L1289.780000,1016.130000ZM1278.204000,1262.437000L1278.204000,1352.339000L1183.129000,1352.339000L1183.129000,1262.437000L1278.204000,1262.437000Z" clip-rule="evenodd" fill="rgb(255,84,84)" fill-opacity="0" stroke="rgb(255,255,255)" stroke-width="4.170000" stroke-linejoin="round" stroke-miterlimit="2"/></g></g></svg>