<svg xmlns="http://www.w3.org/2000/svg" viewBox="0 0 438 438"><g id="b60675b6-2d6a-449d-bad5-d08778777e49" data-name="Layer 2"><g id="a0556d1c-9385-431a-b1ad-afa792904b24" data-name="Layer 1"><path d="M219,0C98.05,0,0,98.05,0,219S98.05,438,219,438s219-98.05,219-219S339.95,0,219,0Zm0,425A206.024,206.024,0,0,1,31.53,304.5S66,279,100,297s26,44,47,60,35,33,72,25,66.26,32.11,66.26,32.11A205.761,205.761,0,0,1,219,425Z" fill="#452596"/><path d="M285.26,414.11A206.272,206.272,0,0,1,31.53,304.5S66,279,100,297s26,44,47,60,35,33,72,25S285.26,414.11,285.26,414.11Z" fill="#452596"/><path d="M425,219c0,90.59-58.48,167.52-139.74,195.11,0,0-29.26-40.11-66.26-32.11s-51-9-72-25-13-42-47-60-68.47,7.5-68.47,7.5A205.193,205.193,0,0,1,13,219C13,105.23,105.23,13,219,13S425,105.23,425,219Z" fill="#6234d4"/></g></g></svg>