<svg xmlns="http://www.w3.org/2000/svg" viewBox="0 0 1563.11 709.27"><defs><style>.cls-1{fill:#9c9072;}</style></defs><g id="Layer_2" data-name="Layer 2"><g id="svg2"><g id="layer1"><path id="path2830" class="cls-1" d="M367.22,708.24c-6-2.25-7.68-4.44-6.25-8.19.66-1.74,1.92-3.16,2.81-3.16s4.79,2.05,8.66,4.55A73.2,73.2,0,0,0,383,707.25l3.48,1.26-4.29.1c-2.35,0-5.8.31-7.67.58a17.71,17.71,0,0,1-7.26-1ZM353.6,696.71a6.09,6.09,0,0,0-4.18-.47c-1.48.47-2.62-.23-3.71-2.27a8.39,8.39,0,0,0-3.46-3.59c-2.37-.82-7.33-8.86-10.1-16.37-1.4-3.79-3.27-6.41-5.5-7.67-4-2.25-4.24-3.27-1.18-4.25,3.5-1.11,4.15-7.28,1.21-11.42-1.41-2-2.15-4.3-1.73-5.41.5-1.3-.88-3.59-4.22-7-4.22-4.3-5-5.87-5.19-10.4-.12-2.93-.84-6.07-1.59-7-.94-1.14-1.14-5.22-.63-13.31A73.68,73.68,0,0,0,312,585.87c-2.26-11.19-3.42-32-2.83-51.08A51.07,51.07,0,0,0,308,522.4c-1.87-6.7-10.49-15.16-21.13-20.76-7.61-4-8.68-5-11.66-11.17a83.3,83.3,0,0,0-7.65-12.36,41.06,41.06,0,0,1-5.82-10c-2.51-7.76-6.94-15.55-10-17.53a12.22,12.22,0,0,1-4.08-6.09c-1-3.71-.75-4.74,2.46-9.41,3.47-5.05,3.52-5.26,1.16-5.87-5.77-1.51-3.34-9.23,7-22.31,6.89-8.69,8.91-15.32,7-23-.72-2.91-1.38-6-1.44-6.77s-.59-1.48-1.15-1.48-.46-1.07.24-2.37c1.07-2,.8-2.58-1.78-3.75-3.76-1.72-9.44,0-9.46,2.82,0,3.41-1.53,3.66-6.47,1.08-2.64-1.38-5.39-2.51-6.11-2.51s-3.48-1.88-6.16-4.19-5.53-4.72-6.34-5.36a5.54,5.54,0,0,1-1.48-3.89,7.55,7.55,0,0,0-2.32-4.82,17.27,17.27,0,0,1-3.67-6.2c-1-3-1.71-3.74-2.64-2.81-2,1.95-4.83,1.58-11.82-1.51-3.66-1.62-7.46-4.38-9-6.52a20.93,20.93,0,0,0-6.16-5.53c-3.2-1.65-4-1.64-8.66.14l-5.14,2-15.75-7.63c-9.69-4.7-17.21-9.18-19.54-11.64-3.61-3.82-3.73-4.24-2.53-9,1.1-4.34.92-5.68-1.48-10.63a53.2,53.2,0,0,0-7.32-10.63c-2.52-2.73-4.29-5.43-3.94-6s-1.42-4.38-3.94-8.47c-2.86-4.66-4.88-9.64-5.38-13.28-.64-4.68-1.39-6.11-3.76-7.19-2.52-1.14-3.22-1-4.66,1-2,2.77-1.45,5.69,3,15.38a59,59,0,0,1,4.18,13,40.49,40.49,0,0,0,3.15,10.27c3,5.8,1.05,5.7-3.62-.2-2.76-3.48-3.5-5.38-3-7.57s0-3.45-2.86-5.56c-4.34-3.21-5.26-5.28-3.66-8.27.93-1.73.5-3.64-1.86-8.3s-2.9-7-2.31-10.55c1-5.74-1.61-10.94-6.41-12.93-2.78-1.15-3.74-2.44-4.3-5.78-.4-2.36-1.17-6-1.7-8.13s-.52-4.11.09-4.49.2-2-.86-3.6c-1.56-2.38-1.66-3.51-.56-5.93.75-1.65,1-3.53.63-4.18s.6-2.61,2.24-4.34a30,30,0,0,0,4.83-7.69,46.09,46.09,0,0,1,7-10.26,54.38,54.38,0,0,0,8-12.28c2.17-5,3.44-6.55,5.36-6.57,1.39,0,2.46.65,2.37,1.46-.38,3.38,2.3,2.34,5.3-2.07,1.77-2.6,2.73-4.9,2.12-5.11a2.39,2.39,0,0,1-1.09-2.18c0-1-2.45-4.15-5.44-7.06-4.95-4.81-5.27-5.45-3.62-7.27,1.33-1.48,1.49-2.56.6-4.15-1.57-2.8.9-9.06,3.58-9.09,1.11,0,1.42-.38.74-.88-1.52-1.12-2.21-3.66-2-7.37.35-5.91-1-8.38-5.34-10.22a43.3,43.3,0,0,1-8-4.65c-2.05-1.56-4.65-2.84-5.78-2.84a91.77,91.77,0,0,1-11.41-2.39c-8.27-2.11-9.73-2.2-12.6-.72-5.94,3.06-12.23,4.3-14.8,2.93-1.92-1-4-.4-11.34,3.43-4.95,2.59-10.85,5.11-13.12,5.6a50,50,0,0,0-9.67,3.68c-8.64,4.35-21,8.73-24.43,8.66-2.21,0-.71-1,5.16-3.35,10-4,20.25-9.12,21.2-10.65,1.16-1.89-1.37-2.57-4.42-1.18-2.24,1-3.63.92-6.22-.43l-3.33-1.75L17,101.23c4.09-2.12,5.38-4.51,4.44-8.26s4.11-6.3,14.94-7.94c5.81-.87,10.23-2.33,13.21-4.36,5.25-3.57,4.35-6.27-1.31-3.93-2.68,1.11-4.63,1.12-8.6.05-4.82-1.29-5-1.48-2.84-3.06,3.61-2.63,11.08-4.22,16-3.39a12.42,12.42,0,0,0,8.25-1.2l3.77-1.94-2.48-2.65a11.67,11.67,0,0,1-2.48-3.33c0-1.1,7.11-3.29,10.66-3.29,1.78,0,6.64-1.28,10.82-2.85s13.79-3.72,21.38-4.77c12.31-1.7,14.92-1.72,24.15-.19,5.69.94,13.54,2.07,17.44,2.5a120.17,120.17,0,0,1,15.33,3.05c10.53,2.89,17.39,2.85,29.15-.15,5.19-1.33,10.45-2.1,11.67-1.71a6.94,6.94,0,0,0,4.62-.57c1.81-1,3.22-.86,5.81.48,2.34,1.21,5.23,1.56,9.16,1.1,4.16-.49,7.79,0,13.09,1.81,4,1.36,8.53,2.48,10,2.48,2.56,0,2.57,0,.34,1.69s-2.2,1.72-.14,2.52c1.18.46,5.29.51,9.13.1,6.93-.72,7-.7,8.93,3l1.94,3.76,2.53-3.17c1.45-1.82,4.9-3.88,8.11-4.84,4.85-1.46,6.33-1.46,11.2,0a26.12,26.12,0,0,0,10.64,1c3.92-.56,5.75-.21,8.31,1.61,3.23,2.31,3.32,2.31,6.19.08a25.51,25.51,0,0,1,7.32-3.48c5.8-1.62,7.77-5.06,4.29-7.5-2.47-1.73-2.36-1.86,4.12-5,4.83-2.37,7-2.91,8-2s.93,2,0,3.79c-1.65,3.08.4,7.74,3,6.75a5.45,5.45,0,0,1,3.41,0c1.49.57,1.47,1-.18,3.56-4.54,6.93,5.64,5,12.54-2.41a10.11,10.11,0,0,1,11.21-2.35c2.63,1,2.38,1.83-2,6.6-5.19,5.69-7.84,6.85-15.63,6.85-3.77,0-8.21.82-10.28,1.89-2.87,1.48-4.27,1.6-6.53.57-4.21-1.92-5.68-.32-2.66,2.9l2.58,2.75-5.15,1.46a52.35,52.35,0,0,1-10.46,1.63c-4.24.14-5.32.6-5.32,2.28,0,1.43-2.07,2.94-6.5,4.75-14.35,5.86-26.52,16.44-22.11,19.21a11.24,11.24,0,0,1,2.91,4.16,6.56,6.56,0,0,0,4.7,3.88,60.07,60.07,0,0,1,10.38,4.14,64.88,64.88,0,0,0,10.63,4.27c5.36,1.16,5.41,1.29,2.91,7.63-2.14,5.42-2.18,6.19-.53,9.4,1,1.92,2.46,3.47,3.26,3.45,3.87-.11,7.49-3.69,9.75-9.6,2.15-5.64,3.13-6.69,9.3-10,9.1-4.86,12.88-9.65,11.88-15-.66-3.5-.32-4.32,2.68-6.46a20.68,20.68,0,0,0,5.56-7.15c2.61-5.79,6.8-7.8,13.88-6.64,6.27,1,13.69,5,14.58,7.83a7,7,0,0,1-.67,4.63c-1.13,2.09-.92,3,1.27,5.3l2.61,2.79,4.28-2.22a72.48,72.48,0,0,0,8.37-5.28l4.1-3.07,1,2.61a7.39,7.39,0,0,1,.34,4.24,5.6,5.6,0,0,0,.6,3.93,4.48,4.48,0,0,1,.15,4.21c-.75,1.33-.25,3.36,1.65,6.71,2.73,4.79,2.73,4.8.34,6.47-3.15,2.21-1.13,4.54,2.32,2.7s7.36-1.6,9.78.59q5.37,4.86-8.9,11.59c-10.33,4.86-14.94,5.82-28.43,5.94-10,.09-11.28.41-21,5-5.69,2.72-10.34,5.42-10.34,6,0,2.44,1.79,2.23,8.66-1,4.05-1.92,9.27-3.45,11.76-3.45,4.24,0,4.4.13,3.07,2.61a17.56,17.56,0,0,1-3.68,4.46c-2,1.59-2.09,2.27-.85,5,1.85,4.07,6.69,6,12.49,5.06l4.57-.78-3.52,2.43a23.79,23.79,0,0,1-7.08,3.2,47.78,47.78,0,0,0-9,3.49c-3,1.51-6,2.32-6.85,1.81-1.87-1.15.11-2.88,6.18-5.42,5.4-2.26,4.54-4.66-1.28-3.56-2.27.42-9.62,3.19-16.34,6.15-10.49,4.62-12.32,5.84-12.93,8.62-.75,3.41-3.31,5-12.31,7.77a23.06,23.06,0,0,0-8.27,4.69,47.18,47.18,0,0,1-7.13,5.68c-2.24,1.41-4.39,3.9-4.77,5.51-.63,2.67-.78,2.73-1.57.68-1.48-3.85-3.7-.09-3.83,6.47-.13,6.72-3.54,11.3-11,14.81-7.66,3.6-18.55,12.1-20.76,16.2-1.95,3.62-2,5-.83,14.33,1.12,8.68,1.05,10.86-.42,13.71-1.1,2.13-2.39,3.15-3.46,2.74-2.53-1-5.63-11.4-4.76-16,.6-3.22.2-4.44-2.2-6.69-1.93-1.81-3.71-2.5-5.23-2-1.26.4-4.84-.36-7.95-1.7-4.77-2-6.29-2.21-9.69-1.09-2.31.76-4.6,2.57-5.35,4.22-1.12,2.45-1.86,2.76-4.94,2.1a33.44,33.44,0,0,1-6.82-2.41c-4.32-2.21-6.74-2.05-11.59.74-2.26,1.3-6.88,3.79-10.26,5.53-3.89,2-6.56,4.28-7.26,6.2-.61,1.66-2.79,8.15-4.84,14.42l-3.73,11.4,1.9,7.35c3.51,13.52,8.38,17.56,18.53,15.39,7.66-1.64,12.25-5,13.94-10.09,1.07-3.25,2.23-4.33,5.7-5.29,5.21-1.45,7.39-1.5,9.39-.23,1.65,1,1.07,2.78-6.33,18.8-5.07,11-4.71,12,4,10.72,7.93-1.14,15.17-.27,16,1.94.33.86-.21,6.66-1.2,12.89-1.76,11.15-1.75,11.4.79,15.5a18.84,18.84,0,0,0,5.91,5.9c2.93,1.51,3.85,1.51,7.53,0,5.85-2.44,9-2.18,13.09,1.07,3.25,2.6,3.71,2.67,6.26,1a16.62,16.62,0,0,0,4.59-5.47c2.28-4.54,6.13-7.74,9.35-7.77,1.35,0,3.7-1.36,5.23-3,3.1-3.3,8.55-4.37,5.89-1.16-2.24,2.7-3.52,11.37-2.08,14.06,1.2,2.25,1.3,2.23,3.48-.46,1.56-1.93,1.87-3.16,1-4-2-2-1.41-3.71,2.36-6.5s6.95-2.6,10.33,1c2.48,2.65,15.72,6.23,19.52,5.28,5.77-1.45,21.39,8,27.25,16.57,2.8,4.06,11.72,8.15,15.64,7.17,8.07-2,19.14,6.06,21.73,15.87.77,2.93,1.93,5.65,2.58,6.05,1.72,1.08-.86,5.32-6.5,10.69-3.61,3.43-4.47,4.9-3.45,5.92s2.68.12,6.68-3.57c5.82-5.37,7.77-5.91,10.68-3,1.78,1.77,1.72,2.13-.71,4.72-1.45,1.54-3.47,2.84-4.49,2.88s-.65.56,1,1.23c2.31.92,3.52.66,5.91-1.27,6.24-5,7.7-5.28,13.24-2.19,3.6,2,5,3.55,4.86,5.17-.5,4.5.56,5.5,3.68,3.45,2.48-1.63,4.19-1.7,12.49-.57,8.83,1.21,10,1.7,14.23,5.93a24.87,24.87,0,0,0,11.13,6.51c6,1.74,6.61,2.26,7.7,6.28,1.57,5.83-.27,12.3-5.25,18.45a60.88,60.88,0,0,0-5.78,8.56,32.65,32.65,0,0,1-5,6.86c-2.87,2.87-3,3.59-2.31,10.39,1.39,13.28-5.11,38.08-11.38,43.38-2,1.72-3.78,2.13-7,1.63-2.66-.41-4.63-.15-5.15.69s-3,2.33-5.73,3.51a43.26,43.26,0,0,0-8.9,5.58c-3.81,3.26-3.94,3.62-2.66,7.51,1.48,4.48.48,9.79-2.69,14.32a11.54,11.54,0,0,0-1.86,5.54c0,1.58-1.23,4.52-2.74,6.53s-4.41,6.61-6.46,10.22c-5,8.89-8.05,10.43-15.35,7.82-6.33-2.27-9.7-2.54-9.7-.78,0,.66,1.26,1.78,2.8,2.48s3.95,3.57,5.34,6.36c2.08,4.16,2.3,5.6,1.22,8-1.68,3.68-8.1,6.77-14.06,6.77-5.28,0-6.59,1.3-4.76,4.7,1.12,2.11.36,5.49-1.81,8.09-.18.21-2-.5-4.11-1.58-5-2.57-6.74-.93-4.22,3.93,1,2,3,4,4.32,4.37,2.32.74,2.35.91.46,3-1.11,1.21-1.68,3.06-1.28,4.11s-.53,3.55-2.35,5.94c-3,3.9-3,4.17-1.11,7.07a11.11,11.11,0,0,0,3.77,3.71c3.56,1.36,4.15,6,1.44,11.34s-3.14,10.67-1,13.2c1.91,2.31-4.53,6.79-7.42,5.17Zm-87-511.53c3.15-6.59,9-11.5,13.75-11.5,3.41,0,3.45.55.33,4.51l-2.45,3.12,2.52,2c2,1.64,3.07,1.78,5.38.73a7.3,7.3,0,0,0,3.59-3.59c.54-1.71,1.42-2.1,3.5-1.58s3.13.07,3.92-1.35c2.4-4.29-3.7-9.77-8.2-7.36-3.22,1.72-7.42-1.71-6.52-5.32.33-1.34-.35-3.67-1.54-5.23-2.44-3.22-6.15-3.56-14.28-1.31a36.31,36.31,0,0,1-7.41,1.4c-1.15,0-1.78.42-1.41,1s.26,1.12-.27,1.13a12.72,12.72,0,0,0-3.89,2.29l-2.94,2.25,3.3,1.26c2.58,1,4.1.84,7-.64,3.37-1.74,4-1.74,7.67,0,2.21,1.06,5.23,1.6,6.76,1.21s3.1-.16,3.49.48-1.25,1.51-3.79,1.94c-6.92,1.17-10.51,4-15.52,12.43-4.19,7-4.43,7.86-2.76,9.71s2.09,1.85,4.34.28c1.38-1,3.83-4.53,5.46-7.93ZM288,192.47c4.2-2.14,4.6-2.68,3.12-4.16s-2.42-1.39-7.24.74c-5.66,2.51-7.45,5.89-3.12,5.89C282.1,194.94,285.36,193.83,288,192.47ZM309,183.55c2.46-1.73,2.55-2.06.81-3-2.55-1.43-10.14,1-10.14,3.29S305.5,186,309,183.55Zm88.7,510a4.67,4.67,0,0,1,1.41-2.36c.78-.78,1-1.42.43-1.42s-1.63.88-2.41,1.94c-1.12,1.53-1.89,1.66-3.67.63-1.28-.74-1.59-1.33-.71-1.35s1.21-.57.81-1.22c-.77-1.24,1.26-1.58,7.09-1.19,5.2.36,5.73,1.12,2.51,3.65-3,2.36-5.46,3-5.46,1.32ZM1384,663.94q-5.07-3.21,21.1-14.18a92.14,92.14,0,0,0,16.5-9.48c7.14-5.4,7.73-5.64,9.15-3.62,2.15,3.07.88,5.29-4.37,7.66a24.55,24.55,0,0,0-7,4.87c-1.34,1.55-3.51,2.82-4.81,2.82s-4.36,1.79-6.8,4c-8.34,7.49-18.91,11-23.76,8Zm-82.66-15.34c-1.23-.78-1.3-1.58-.3-3.45a15.54,15.54,0,0,0,1.31-6.13c0-3.33.27-3.61,2.65-2.77a29,29,0,0,0,6.8,1.09c2.27.08,4.54.23,5,.33,2,.36-3.27,6.32-8,9.07-5.6,3.28-5.37,3.23-7.53,1.86Zm136.48-10.33c-.41-.41.56-1.78,2.16-3,2.41-1.89,2.69-2.69,1.64-4.66-1.53-2.85.74-5.91,6-8.08,4.06-1.68,5.09-5.1,4-13.34-.75-5.67-.66-6,1.17-4.51,1.43,1.18,1.79,2.68,1.27,5.4-.56,3,0,4.55,2.44,7.51,2.69,3.2,3.49,3.54,5.59,2.42s2.33-1,1.67.7a13.74,13.74,0,0,0-.77,2.47c0,.25-1.72,1.35-3.84,2.43a65.06,65.06,0,0,0-9.15,6.35c-4.75,3.93-9.64,7.1-10.94,7.1a2.5,2.5,0,0,1-1.22-.75ZM1312.93,623c-2.48-2.65-2.94-2.75-5.33-1.19-3,2-8.77.83-13.36-2.72-2.44-1.89-2.61-2.5-1.35-4.86a5.39,5.39,0,0,0,.14-5.55,15.26,15.26,0,0,1-1.3-5.17c0-2.86-1.86-3-3.4-.25-.63,1.13-1.49,1.72-1.9,1.31s1-2.7,3-5.07c5.13-5.85,3.13-7.44-3.65-2.9-2.92,2-5.5,4.1-5.73,4.75s-1.64-1.37-3.12-4.49a22.26,22.26,0,0,0-6.89-8.45c-3.75-2.48-5-2.68-12.23-2-10.58,1-20.78,3.66-27.45,7a46.5,46.5,0,0,1-13.53,3.57,76.71,76.71,0,0,0-15.79,3.74c-6.45,2.43-8.29,2.68-11.55,1.6-4.39-1.44-6.21-4.43-3.37-5.52,1-.39,2.89-3.1,4.14-6,2-4.67,2.11-6.12.92-12.16-1-5-1-9.72-.1-17.41.69-5.81,1-11.7.59-13.1s.2-4.81,1.27-7.6c1.87-4.9,2.32-5.22,15-10.59,7.19-3,14.55-5.54,16.35-5.54,4.88,0,10.93-4.64,14.26-11,2.06-3.9,3.49-5.39,4.72-4.91,3.45,1.33,4.13,1.07,3.87-1.49a2.82,2.82,0,0,1,1.94-3.28c1.22-.39,3.46-2.54,5-4.78a18.62,18.62,0,0,1,7.38-5.92c4.31-1.73,4.74-1.71,7.08.42,4.33,3.94,7.4,5.09,8.86,3.32.71-.86,1-1.9.54-2.31-1.35-1.35,4.84-9.11,7.86-9.86a45.12,45.12,0,0,0,7.41-3c3.82-1.91,5.17-2,9.45-.89,9.23,2.48,9.54,2.88,6.11,8.07-4.42,6.68-3.25,9.29,7.58,16.91,5,3.52,9.73,6.19,10.5,5.94s3.2-3,5.4-6a21.6,21.6,0,0,0,4.65-12c.69-6.92,4-16.54,5.69-16.54.56,0,1.85,2.85,2.86,6.32s3.13,7.54,4.7,9c3.69,3.46,5.83,13.15,4.18,18.87-1.1,3.79-.89,4.4,2.87,8.27,2.23,2.3,5.76,7.89,7.85,12.44a92.22,92.22,0,0,0,8.34,14.3l4.56,6-1.3,9.31a42.16,42.16,0,0,1-5.3,16.41c-4.45,7.89-11.1,15.41-14.61,16.53-1.26.4-4.19,3.36-6.5,6.57s-4.72,5.85-5.35,5.85-3.34,2.76-6,6.13c-4.45,5.63-5.26,6.14-9.9,6.23a14.56,14.56,0,0,0-9.2,3.26l-4.14,3.16-2.73-2.89ZM737,598.18c-2.5-2.5-2.92-3.78-2.36-7.22.53-3.24,0-5.15-2.22-8.46-1.6-2.34-2.9-4.84-2.9-5.55s-2.09-4.08-4.64-7.5c-3.95-5.29-4.76-7.4-5.41-14.09-1.15-11.81-4.92-24.59-10-33.85-2.49-4.55-4.89-10.46-5.32-13.13-.92-5.69,1.39-14.15,6.66-24.41l3.5-6.82-2-5.93c-1.1-3.32-1.64-7.25-1.22-8.91.49-2,0-4.28-1.52-6.74a51.82,51.82,0,0,1-4.13-10.25,24.06,24.06,0,0,0-7.15-11.69c-7.48-7.34-8.46-10.24-6.13-18.23,4.72-16.27-.38-25.75-12.87-23.88-4.86.73-5,.64-5.73-2.8-.52-2.63-2-4.18-5.54-6-4.66-2.38-6.65-2.38-12.37,0-1.3.52-6.61,2.36-11.81,4.07-7.81,2.57-10.16,2.91-13.56,1.92-3.22-.93-5.94-.69-12.53,1.12-6.82,1.87-9.29,2.07-13,1.05-7.68-2.12-20.88-14-22.75-20.51-1.46-5-10.49-16.74-13.57-17.59-1.95-.53-2.19-1-1-1.72s1-1.17-.89-1.66c-3-.78-3.28-3.22-.4-3.25,1.77,0,1.81-.18.3-1.16-1.12-.72-1.24-1.15-.34-1.16s.59-1.47-1-4.2c-2.27-3.84-2.32-4.34-.59-6.26,5.29-5.84,6.45-18.41,2.43-26.33-1.92-3.78-.69-9,3.41-14.43a104.9,104.9,0,0,0,6.68-11.06c3.74-7.06,12.07-16.87,14.32-16.87,2.49,0,10.54-8.65,10.54-11.34,0-6.05,3.62-12.09,9.52-15.87,3.17-2,6.89-5.52,8.26-7.73,2.8-4.54,3.2-4.69,6.47-2.41a21.63,21.63,0,0,0,7.07,2.42c4,.66,5.89.18,11.81-3,10.2-5.45,16.5-6.81,28.17-6.08,7.7.48,11.16.17,14.89-1.32,5.5-2.2,10.24-.9,9,2.45a3.67,3.67,0,0,0,.52,3.31c.85,1,.85,2.49,0,4.76-1.08,2.85-.84,3.7,1.85,6.51a15.45,15.45,0,0,0,6.77,4c9.49,1.89,12.19,3.12,14.15,6.44a8.46,8.46,0,0,0,6.43,4.26,34.59,34.59,0,0,1,7.81,2.59c3.18,1.65,3.59,1.59,6.25-.91,1.78-1.67,2.59-3.45,2.18-4.77a6.79,6.79,0,0,1,.62-4.51c1.82-3.41,7-3.08,15.11,1,8.83,4.42,25.56,7.57,31.5,5.93a14.27,14.27,0,0,1,8.09,0c8.17,2.51,12.34.55,13.46-6.32.37-2.28,1-4.14,1.4-4.14.77,0,1.17-3.43,1.28-10.93,0-2.44.61-4.43,1.28-4.43s.75-.85-.12-2.48c-1.45-2.71-4.4-2.65-11.45.24-3.34,1.37-4.27,1.32-7.26-.45-3.89-2.3-7.87-2.64-9-.78-.86,1.38-6.9.41-10.17-1.63-2.35-1.47-4.55-5.85-4.55-9.06,0-1.23-1.2-3.08-2.66-4.11-2.26-1.59-2.39-2.05-.89-3a6.62,6.62,0,0,1,4.46-.53c1.88.44,3.61-.3,5.79-2.48a11,11,0,0,1,7.36-3.34,18,18,0,0,0,7.51-2.38c3.9-2.57,12.77-1.86,19.64,1.58,9.27,4.64,17.5,4.37,20.82-.69,1.72-2.63,1.73-3.18.1-5.68-1-1.52-5.79-5-10.65-7.79l-8.82-5,1.65-3.2c.91-1.76,1.36-3.5,1-3.86s-.22-1.36.31-2.22a9.45,9.45,0,0,0,1.2-3.08c.27-1.79-1.63-1.29-11,2.86-5.45,2.41-6.27,3.15-5.06,4.61a6,6,0,0,0,4,1.79c1.94,0,1.48.6-2,2.44-4.24,2.23-4.71,2.26-7.46.46-2.36-1.55-2.66-2.27-1.55-3.61s.94-1.85-.8-2.5a9.14,9.14,0,0,1-3.47-2.52c-3.38-4.51-14.12,7.35-17.24,19.05-1.46,5.49-1.41,5.78,1.34,7.86l2.87,2.16-5.26,1.08a22.87,22.87,0,0,1-8.65.15c-3.45-.94-7.82.48-7.82,2.55,0,.6-.8.79-1.78.41a3.88,3.88,0,0,0-3.47.71c-1.43,1.19-1.27,2.16,1.1,6.63,2.58,4.84,2.66,5.5,1,8.72-2,4-3.88,3.73-6.72-1.08-2-3.35-2-3.43.65-3.8,3.31-.47,3.52-2.57.31-3.09-7.31-1.17-11.22-5-11.22-11.08,0-4.73-4.38-10-9.7-11.54-2.76-.83-5.76-2.56-6.67-3.86a16,16,0,0,0-5.91-4.14,15.8,15.8,0,0,1-5.82-4c-1.23-1.76-2-2-3.85-1-1.26.68-2.3,2-2.3,2.92,0,3.07,15.06,16.94,22.42,20.65,7.8,3.94,9,5.35,3.6,4.16-4.84-1.06-6.15,0-4.5,3.63,1.16,2.54,1,3.32-1.36,5.56L721,213.24l.62-3.52c1-5.58-6.38-13.6-12.49-13.6-2.24,0-10.84-8.35-13.09-12.7-2.41-4.66-5.09-5.56-8.88-3-5.72,3.87-10,5.18-14.49,4.43-6-1-9.7,1.07-8.75,4.85.49,2,.22,2.85-.9,2.85-.88,0-3.15,1.33-5,3s-3.84,3-4.33,3c-1.47,0-5.59,7.46-5.59,10.11s-4.63,7.53-9.08,9.82a19.85,19.85,0,0,1-7.34,1.33c-3.6,0-5.08.59-6.07,2.44-1.29,2.42-1.33,2.41-4.36-.62-2.84-2.84-4.47-3.55-10.2-4.43-3-.47-3.52-7.29-1.27-17,1-4.15,1.43-8.8,1-10.33-1.12-4.46,2.38-7.09,8.24-6.19,13.54,2.08,21.45,2.19,23.31.34,2.55-2.55,3.7-11,2.14-15.68-1-3.07-2.41-4.33-6.57-5.92-6.13-2.34-6.26-4.6-.27-4.66a16,16,0,0,0,7.31-2.12c1.75-1.14,3.67-1.76,4.28-1.38,1.67,1,8-2.61,10.09-5.82a9.22,9.22,0,0,1,4.44-3.48c1.43-.36,5.26-3.13,8.51-6.16,4.6-4.29,7-5.63,11-6.1,4.9-.59,9.81-4.61,7.51-6.14-1.44-.95-2.64-6.67-1.84-8.75a11,11,0,0,1,3.72-3.78l3-2-.77,4.86c-.68,4.22-.51,4.81,1.3,4.51a18.69,18.69,0,0,0,4.75-1.82c2.24-1.23,2.79-1.17,3.38.37,1,2.64-1.8,5.74-3.74,4.13-1.07-.89-1.75-.86-2.35.11s-1.11,1-1.82-.2c-.53-.87-1.24-1.3-1.57-1s.62,2.13,2.1,4c2.5,3.14,3,3.29,6.55,2,3.06-1.06,4.52-1,7.13.36,2.93,1.52,3.93,1.44,9.57-.7,5-1.88,6.9-2.12,9.09-1.12a5.49,5.49,0,0,0,5.37-.07c5.32-2.75,6.79-4.82,6.13-8.62-1-5.63.81-7.47,5.53-5.69,3.21,1.21,4.14,1.16,5.59-.29s1.41-2.1-1.11-4.78-2.59-3.22-1.11-4.21c1-.65,4.54-.88,8-.52,6.27.67,14.09-1.79,12.73-4-1.2-1.93-8.4-2.49-14.5-1.12-5.41,1.21-6.83,1.11-11-.76-6.44-2.9-7.2-6.3-2.78-12.46,5.68-7.92,6.72-10.45,5.1-12.4-2.4-2.89-4.75-1.94-10.23,4.09-2.89,3.2-6.84,6.46-8.77,7.26a12.25,12.25,0,0,0-5.29,4.92c-1.61,3.1-1.6,3.75,0,6.24a9.81,9.81,0,0,0,4.21,3.53c3.63,1.15,2.91,3.31-2.27,6.85-1.6,1.09-3.72,4.18-4.73,6.86a13.39,13.39,0,0,1-6.15,7.37c-4.21,2.43-4.4,2.44-6.73.34a12,12,0,0,1-3.1-5.4,21.26,21.26,0,0,0-3.94-7.11L697,103.71l-4.1,2.5c-2.26,1.37-5.16,2.49-6.46,2.48-3.75,0-8.09-4.09-8.38-7.82a23,23,0,0,0-1.07-5.4c-1.06-2.64,4.23-7.6,9.73-9.12s16.7-9.36,18.61-13A35.56,35.56,0,0,1,711.7,66c2.67-2.39,4.85-4.87,4.85-5.51s2.52-2.07,5.61-3.17,8.26-3.1,11.51-4.43c4-1.65,9-2.52,15.36-2.68,11.14-.29,18.43,1.19,24.45,5,3,1.88,5.4,2.53,7.68,2.07,4.08-.81,25.81,5.92,26.72,8.28s-5.32,4.62-10.69,3.84c-2.46-.35-7.54-1.3-11.29-2.1-5-1.08-7.17-1.11-8.15-.13s-.49,1.71,1.89,2.8a12.26,12.26,0,0,1,4.93,4.76c2.39,4.63,10,8.4,14,6.9,3.8-1.45,3.77-1.9-.24-4.08-3.7-2-2-2.44,2.66-.67,3.72,1.41,7.93-.35,7-2.9-.46-1.2.83-2.06,4.47-3,7.79-2,8.36-2.29,7.72-3.87-2.45-6-2.48-5.8,1.07-5.39,1.9.21,3.29,1,3.13,1.83s.83,2,2.2,2.76c2.05,1.1,3.67.71,9.3-2.24,8.27-4.34,14.7-5.75,17.1-3.76,1.34,1.11,3.56,1.12,10,0,4.55-.77,8.78-1.08,9.41-.69a1.42,1.42,0,0,0,1.92-.54c.93-1.51-1.64-4.92-3-4-1.7,1-7.29-.83-6.08-2.05s34.1,6.44,36.06,8.4c1.33,1.33,5.53-.44,5.53-2.32,0-.64-2.35-2.3-5.21-3.69-8.88-4.32-9.45-11.23-1.1-13.32,4.85-1.22,6.94.18,13.65,9.13,8.71,11.63,8.49,11,5.64,15-2.11,3-2.23,3.65-.77,4.21,2.77,1.07,8.69-2.65,9.53-6,1-3.89-.85-7.21-5.21-9.46-3.42-1.77-5.9-5-5.9-7.73q0-1.39,3.84-.69c3.83.7,7-.69,15.66-6.87a16.72,16.72,0,0,1,8.72-2.42c6.85-.16,9.07-1.31,7.1-3.68-.77-.94-1.16-2-.86-2.25,1.51-1.5,21-4.22,25.43-3.55,4.31.65,5.64.3,9.19-2.41,2.28-1.74,4.14-3.63,4.14-4.2,0-1.45-10.32-1.32-11.22.14-1.23,2-2.84,1.3-2.39-1,.39-2-.61-2.3-9.22-3-23.49-1.83-25.4-2.26-22.58-5.08,2.48-2.47,8.56-2.43,13.64.11a20.59,20.59,0,0,0,7.67,1.89c2.14,0,4.22.53,4.62,1.18s2.47,1.18,4.59,1.18c5.89,0,17.28,2.55,16.57,3.7-.35.57.75,1,2.45,1a17.8,17.8,0,0,1,6.86,2c2.79,1.51,6.7,2,15,2.08,8.92,0,11.88.49,14.47,2.24,1.78,1.2,3.24,2.52,3.23,2.94s-2.74,2.25-6.06,4.08c-8,4.43-6.33,6.35,3.38,3.84,6.28-1.63,7.73-1.64,12.93-.09,4.27,1.26,6.94,1.43,9.83.6s5.86-.65,10.9.65c5.25,1.36,8,1.5,11.3.58,7.6-2.12,17-1.52,22.37,1.42l11,6c6,3.27,6.25,3.31,10.4,1.44,3.48-1.56,5.42-1.69,10.55-.71s7,.86,9.83-.63,3.26-2.16,2.19-3.45c-2.07-2.5,5.28-3.43,14.32-1.81,4.14.74,9.39,1.48,11.67,1.64a36.59,36.59,0,0,1,9.87,2.88c4.81,2.17,8.44,2.66,22.52,3,13.36.37,17.62.91,20.84,2.62s7,2.19,19.4,2.31c11.41.11,16.53.65,19.91,2.11,5.46,2.35,7.65,1.49,4.68-1.84-2.14-2.4-2.13-2.4,6.12-1.58,13.82,1.37,30.41,4.4,36,6.57a62.71,62.71,0,0,0,12.38,2.92,45.93,45.93,0,0,1,12.6,3.67c4.63,2.34,6.13,2.6,9.09,1.57,4.06-1.42,6.7-.4,12.89,5l3.85,3.35-2.9.73c-2.91.73-10.64-1.19-13.31-3.3a2.42,2.42,0,0,0-2.44-.5c-.56.35-3.32-.17-6.14-1.14-6.6-2.27-9.53-1.42-6.52,1.9,2,2.27,2,2.32-1.91,2-7.32-.51-5.31,1.65,5.44,5.84,5.85,2.28,10.88,4.39,11.19,4.69,1.11,1.07-2.55,2.4-5.21,1.89-2.92-.56-10.11,2.58-10.11,4.41,0,.61-1.14,2.16-2.53,3.46-2.32,2.16-2.8,2.21-5.9.6-2.91-1.5-3.84-1.52-6.63-.11a38.27,38.27,0,0,1-6.78,2.49,15.63,15.63,0,0,0-5,2.07c-2.38,2,1.81,7.71,7.72,10.57,3.21,1.56,5.54,3.64,6.23,5.59a50.5,50.5,0,0,0,2.86,6.22c1.58,2.8,1.56,3.2-.13,3.85-1.24.48-1.6,1.43-1.06,2.78a23.07,23.07,0,0,1,1.13,5,20.62,20.62,0,0,0,1.16,4.91c.6,1.41.1,2.2-1.76,2.79-2.07.66-3.47-.13-6.87-3.9a70.51,70.51,0,0,0-8.72-8,60.27,60.27,0,0,1-9.73-10.25c-5.12-6.82-5.23-7.14-3.53-10.43a17,17,0,0,0,1.8-6.1,14.51,14.51,0,0,1,1.66-5.65c1.71-3.08,1-5.54-2.6-9.73-2.39-2.74-6.65-.68-5.58,2.7,1,3.12-2,4.13-5.54,1.84a24.22,24.22,0,0,0-7.74-2.6c-4.72-.75-5.07-.6-6.29,2.6a14.1,14.1,0,0,0-.66,6.56c.54,2.71.16,3.27-2.63,3.88-1.89.42-5.14-.08-7.79-1.18-2.91-1.22-5.65-1.59-7.63-1-1.69.49-7.42.92-12.73,1-8.4.08-10,.45-12.58,2.85-1.61,1.51-3.55,5.23-4.3,8.26a34.26,34.26,0,0,1-3.08,8.15c-1.62,2.5-1.46,2.75,3.17,5.11,5,2.56,10.5,3.24,14.65,1.81,3.2-1.11,13,6.51,16,12.49,1.25,2.45,3.32,5,4.59,5.69,4.83,2.58,5.81,19.52,1.77,30.6-2.79,7.67-5.91,10.17-10.51,8.43a29.32,29.32,0,0,0-3.58-1.21c-.22,0-1.53,2.18-2.92,4.84-1.82,3.5-2.18,5.26-1.28,6.35,1.72,2.07.45,4.77-3,6.34-1.59.72-2.89,1.83-2.89,2.46s3.7,3.68,8.21,6.79c5.75,4,8.82,7,10.23,10.12,1.1,2.45,1.79,4.65,1.53,4.89s-2.68,1.54-5.37,2.9l-4.88,2.46-2.94-6.75c-3.29-7.55-6.11-10.58-11.08-11.92-2.51-.67-3.38-1.63-3.38-3.7,0-1.89-1.22-3.5-3.83-5-3.79-2.22-3.86-2.22-7.9.28s-4.08,2.49-5.32.18a10.94,10.94,0,0,1-1.25-4.15,4.11,4.11,0,0,0-2.21-3c-1.8-1-2.94-.38-6.26,3.21a38.71,38.71,0,0,1-6.35,5.69c-2,1.11-2.06,1.58-.71,3.21a31,31,0,0,0,6.67,4.75c4.46,2.49,5.31,2.63,6.81,1.13s2.59-1.48,6.9-.31l5.19,1.41-2.89,1.93c-5.36,3.58-7,5.46-7.81,8.69-.63,2.65-.26,3.45,2.12,4.54,1.59.72,4,3.61,5.37,6.42s4.09,6.05,6,7.21c4.33,2.55,5.58,5.26,3.08,6.66-2.32,1.3-1.21,3.25,1.86,3.25,3.68,0,3.7,2.2.14,14.86-4.3,15.34-8.19,20.45-18.36,24.17a51.18,51.18,0,0,1-10.82,2.86c-4.53.26-8,2.17-11.11,6.07l-2.43,3.09-1.14-3c-1.48-3.89-4.87-4.87-9.74-2.81-4.47,1.89-7.41,4.9-8.6,8.79-1.06,3.49,2.7,9.62,8.93,14.55,5.11,4.05,10.85,14.21,12.19,21.61,1.18,6.43-.9,10.65-6.47,13.16-2.54,1.15-4.91,3-5.27,4.17-.88,2.76-6.12,6.2-7.09,4.64a4.88,4.88,0,0,1,0-3.36,7.35,7.35,0,0,0,0-4.11c-.58-1.51-1.23-1.65-3.1-.65s-2.69.78-4.25-1.5c-3.86-5.59-15-14.57-18.13-14.57-1.09,0-1.51,1.31-1.32,4.13a42.75,42.75,0,0,1-1,9.86c-1.17,5.12-1,6.06,1.15,9a22,22,0,0,1,3.2,6.29c.41,1.66,3.83,5.44,7.74,8.57,6.51,5.23,7.19,6.26,9.93,14.93a105.15,105.15,0,0,1,2.95,10.44c0,2-2.47,1.19-7.62-2.51-5.32-3.82-8.72-9.87-11.56-20.56-1.23-4.64-2.58-6.63-6.41-9.45-4.7-3.45-4.84-3.75-4.46-9.47.22-3.25.75-7.85,1.18-10.23.62-3.35.11-5.75-2.24-10.63a73.48,73.48,0,0,1-4.39-11.83c-1.67-6.8-4-7.94-8.17-4-1.71,1.64-3.45,3-3.85,3-1.88,0-4.47-4-3.85-5.95,1.13-3.55-5.79-15.91-9.84-17.58-2.21-.92-4.24-3.15-5.6-6.15-2.35-5.23-5-7.23-7.63-5.78a49.13,49.13,0,0,1-8.52,2.34c-6.84,1.4-9.29,3.47-8.35,7.05.34,1.32-.85,2.59-3.72,4-2.32,1.11-4.83,3.34-5.57,4.95a7.36,7.36,0,0,1-3.6,3.66c-1.24.4-3.17,2.2-4.27,4a35.93,35.93,0,0,1-7.3,7.36c-4,3.07-5.23,4.78-5,6.93,1.16,12.6-.62,23.14-5,29.39s-4.52,6.28-8.1,4.65c-2-.9-3.19-2.65-3.69-5.33-.41-2.19-2.79-8.37-5.28-13.73-15.11-32.44-17.34-38.63-16-44.49.87-3.95-1.22-9.93-3.23-9.25a2.43,2.43,0,0,0-1.5,2.16c-.1,5.39-6.16,6.22-10.89,1.49l-3.14-3.13,2.7-1c3-1.12,2.76-4.15-.33-3.6-1.1.2-3.61-1-5.58-2.65s-4-3-4.59-3-1.35-1.07-1.77-2.38c-1.09-3.42-7.35-6.41-10.49-5-2.83,1.27-28.46,1-32.76-.34-1.54-.49-4.4-2.71-6.35-4.94-3.52-4-3.58-4-8.86-2.62-5,1.35-5.73,1.22-12.47-2.18-5.83-3-7.57-4.53-9.37-8.52-2.3-5.09-7.39-8.77-10.49-7.58-1,.37-2.12,2.23-2.53,4.13-.6,2.73,0,4.5,2.91,8.44a35.51,35.51,0,0,1,4.88,9.5c1.43,5.33,4.27,6.92,6.62,3.71,1.42-2,1.8-2,2.76-.49a4.31,4.31,0,0,1,.74,2.95c-.66,2,6.16,5.4,9.34,4.6,1.61-.41,5-3.14,7.63-6.08,4.08-4.64,5.5-4.95,4.81-1.06-.47,2.62,1.59,5.69,5,7.45,5.27,2.73,12.61,8.8,12.61,10.43,0,.75-1.38,2.66-3.06,4.23a32.2,32.2,0,0,0-5.4,7.41c-3.11,6.07-12.13,14.94-15.19,14.94-3.53,0-8.78,3-10.87,6.17a17.17,17.17,0,0,1-5.78,4.74c-11.23,5.61-24.74,11.29-28.55,12-4.06.76-4.39.58-6.55-3.67a41.57,41.57,0,0,1-3.14-11c-.63-4.65-1.85-7.6-4.28-10.37-1.87-2.14-3.4-4.4-3.4-5s-2.13-3.34-4.73-6a26.41,26.41,0,0,1-6.66-11.52A35.29,35.29,0,0,0,831.48,290c-10.84-13.46-14.05-18.21-15.66-23.16-2.14-6.57-4-7.63-4.79-2.81l-.59,3.43-4-5.05c-6.16-7.77-6.93-4.24-1.15,5.25,2.73,4.49,7.09,12.42,9.69,17.62a114.37,114.37,0,0,0,7.47,13.1,14.38,14.38,0,0,1,2.75,7.46c0,4.45,1.33,7.23,6.55,13.69,2.1,2.6,4.17,6.39,4.6,8.43.56,2.61,2.84,5.35,7.74,9.28,7.45,6,12.28,12.21,13.48,17.4a8.33,8.33,0,0,0,4.31,5.08c3.3,1.7,4.45,1.65,14.86-.6,6.21-1.35,12.79-3.22,14.62-4.17l3.33-1.72.79,4.68c.72,4.25-.06,6.29-8.47,22.42-9,17.34-9.46,17.91-18.45,25-5.06,4-10.35,8.88-11.76,10.86s-5.93,7.34-10,11.9c-12,13.32-13.62,25-5.67,40.72,2,4,2.81,7,2.33,8.91-.4,1.59-.14,5.59.57,8.91,1.12,5.21,1,6.6-1,10.39-2.79,5.48-5,7.44-12.82,11.36-3.41,1.7-6.2,3.61-6.2,4.22s-2.39,3.82-5.31,7.11-5.32,6.52-5.32,7.17a25.87,25.87,0,0,0,2.44,6c4,7.87,1.32,13.58-8.31,17.56-4.06,1.68-5.39,5.12-4.38,11.3.52,3.24.19,4.32-1.65,5.3-1.27.68-3.56,3.21-5.09,5.61-4.84,7.61-18.76,21.06-25.08,24.25-5.28,2.66-6.63,2.9-10.5,1.83-3.42-1-6.18-.8-11.91.64-9.28,2.33-8.3,2.43-11.89-1.17Zm155.56-376.7c3-1.58,3.49-2.45,3.49-6.94,0-3.23-.69-5.71-1.85-6.68a19.37,19.37,0,0,1-3.66-5c-1.65-3.19-1.65-3.44.07-2.78,2.28.87,5.44-.18,5.44-1.8,0-.64-1.1-2.71-2.44-4.6-2-2.84-2.84-3.22-4.73-2.21-1.53.82-2.28.83-2.28,0s-2.11-2.28-4.69-3.59c-5.7-2.91-7.73-6.13-5.95-9.46,1.35-2.51,6.16-4.27,8.21-3,2.77,1.71,3.58-.82,1.3-4-5.54-7.78-13.25-7.27-22.82,1.51-6.17,5.67-6.71,7.17-3.21,9,1.29.7,2.36,2.06,2.36,3s2.1,4,4.67,6.82c5.91,6.42,7,9.35,6.26,16.94l-.59,6.12,8.12,4.16c4.46,2.29,8.27,4.19,8.47,4.22a23.8,23.8,0,0,0,3.83-1.74ZM860.05,551.39c-3.34-1.89-3.81-2.89-4.68-9.86-.7-5.57-.41-6.78,2.92-12.2s3.63-6.56,2.89-12.54c-1.08-8.64.75-13.17,5.77-14.27,4.73-1,15-10.07,17.41-15.37l1.87-4,1.3,2.85c3.28,7.19,3,10.35-2.75,26.12-3,8.43-6.32,18.53-7.27,22.42-3,12.48-4.76,15.48-9.74,17-5.3,1.59-4.78,1.6-7.72-.07Zm581.79-20.54c-3.77-4.12-6-7.66-6-9.44,0-4,.63-3.62,4,2.19a46.55,46.55,0,0,0,6.55,8.49c2,1.89,3.58,3.87,3.58,4.4,0,2.27-2.51.53-8.15-5.64ZM915,529.18a1.18,1.18,0,1,1,1.18,1.18A1.18,1.18,0,0,1,915,529.18Zm622-2.16a1.47,1.47,0,0,1,.52-2c1.75-1.09,2.38-.22,1.2,1.67-.62,1-1.23,1.14-1.72.34Zm-613.7-1.91c0-.28.53-.84,1.18-1.25s1.19-.16,1.19.52a1.24,1.24,0,0,1-1.19,1.26C923.76,525.64,923.23,525.4,923.23,525.11Zm583-12c-1.15-3,.31-4.05,3.57-2.57,2.81,1.28,2.87,1.48.91,2.91C1508,515.47,1507.09,515.41,1506.21,513.13Zm7.49-5.26c-2.31-1.42-.71-2.56,3-2.11,2.88.36,2.94.49.89,1.76a3.89,3.89,0,0,1-3.85.35Zm-55.15-4.33c-2.42-5.22-1.57-7.23.94-2.2,2.61,5.23,2.65,5.4,1.43,5.39C1460.43,506.72,1459.37,505.29,1458.55,503.54Zm4.53-.84c-.06-1.24.22-1.94.62-1.55a2.4,2.4,0,0,1,.09,2.27c-.38.94-.66.66-.71-.72Zm96.15-11.34c-1.08-1.75-.06-2.64,2.46-2.15,1.85.36,1.87.55.2,1.94-1.33,1.1-2.08,1.16-2.66.21Zm-698-5.88c-.4-.65-.17-1.18.52-1.18a1.22,1.22,0,0,1,1.25,1.18c0,.65-.24,1.18-.52,1.18S861.63,486.13,861.23,485.48Zm518.49-11.1c-7.48-2.35-10.87-4.54-13.81-8.92-3.36-5-9.51-8.77-12.65-7.77-1.27.4-3.41,2.59-4.75,4.86-2.28,3.88-2.72,4.09-6.87,3.35a17.56,17.56,0,0,1-7.58-3.71c-2.19-2-3.87-2.69-5.58-2.15a6.32,6.32,0,0,1-4.34-.28c-1.62-.9-1.47-1.33,1.13-3,3-2,3-2,1-6.23-1.63-3.4-3.86-5.17-11.17-8.85-5-2.53-10.72-4.6-12.64-4.6-4.39,0-6.2-4-2.89-6.46,2-1.44,1.68-1.8-3.46-4.29-5.45-2.65-5.53-2.76-2.92-4.21a13.39,13.39,0,0,1,5.26-1.53c2.77,0,6.27,3.95,6.27,7.15,0,1.07,1.15,3.4,2.55,5.18,2.52,3.2,2.58,3.22,4.43.91,1-1.29,4.33-3.75,7.32-5.47l5.45-3.12,7.54,3.41c4.15,1.87,10,4.3,13.1,5.4a83.58,83.58,0,0,1,13.56,7.26c8.42,5.53,12.07,10.19,10,12.72-1.71,2.06,5,11.44,11.95,16.71,7.64,5.78,7.51,6.32-.88,3.67Zm51.4-.09c-.93-1.13-1-1.8-.24-1.8,1.43,0,3.09,2.24,2.27,3.06-.3.29-1.21-.27-2-1.26Zm-198.45-4.81c-1.71-1-2.2-1.64-1.18-1.66,2.11,0,5.49,1.94,4.69,2.73C1235.87,470.86,1234.3,470.38,1232.67,469.48Zm20-1.56c3.35-4.7,8.59-6.72,13.44-5.16,3.53,1.13,3.58,1.23.78,1.34-1.66.07-5.53,1.71-8.6,3.66-7,4.45-8.71,4.5-5.62.16ZM1424,469.53c-1.6-1.92-1.22-2.16,1.67-1,1,.39,1.87,1.19,1.87,1.77C1427.55,471.88,1425.64,471.5,1424,469.53Zm5.53-1a12.46,12.46,0,0,1-.73-4.07c0-1.31.46-1,1.21.88a8.13,8.13,0,0,1,.73,4.07c-.22.68-.77.28-1.21-.88Zm91.32,1.11c0-.28.53-.85,1.18-1.25s1.18-.16,1.18.52a1.22,1.22,0,0,1-1.18,1.25C1521.39,470.12,1520.86,469.89,1520.86,469.6Zm-302.07-5c-.82-.34-1.18-1.11-.82-1.7.91-1.46,8.47-1.38,9.39.1.4.65,0,1.19-.82,1.2a23.61,23.61,0,0,0-3.91.52,7.7,7.7,0,0,1-3.84-.12Zm17.53-.88c-2.14-2.59.33-3.38,5.89-1.88s5.59,1.75-.22,2.8C1239,465.22,1237.31,465,1236.32,463.76Zm177.33-.72c-.82-1.31-1-2.36-.32-2.36s1.71,1.06,2.41,2.36.84,2.36.33,2.36S1414.46,464.34,1413.65,463Zm7.4-1.19c-3.16-3.49-1.47-4,1.78-.58,1.52,1.62,2.23,3,1.57,3s-2.17-1.07-3.35-2.37Zm-221.45-.2a94.12,94.12,0,0,1-13.23-2.89c-3-1-6.65-1.47-8-1.05-2.71.86-14.21-2.52-14.21-4.17,0-3.78,10.59-4.07,16.22-.44,2.1,1.35,3.75,1.44,8.19.44,4.92-1.1,6-1,8.84,1.18,1.8,1.32,3.8,2.41,4.46,2.41,2.33,0,9.42,3.95,8.82,4.92a2.23,2.23,0,0,1-2,.82c-.78-.09-4.86-.64-9.09-1.22Zm212-5.7c-1.18-1.3-1.61-2.36-1-2.36s2.14,1.06,3.32,2.36,1.6,2.36,1,2.36-2.14-1.06-3.31-2.36Zm-7.45-1.49a14.79,14.79,0,0,1-2-5c-.68-3.13-.6-3.27.66-1.18a39,39,0,0,0,3.1,4.32c1,1.13,1.22,2.24.56,2.64A2,2,0,0,1,1404.16,454.46Zm-25-3.76-2.93-1.62,4.55-.86a21.51,21.51,0,0,0,8.54-4.36c2.4-2.1,4-2.87,4-1.91,0,2.4-1.48,4.25-5.89,7.51-4.61,3.4-4.4,3.37-8.25,1.24Zm-221.55-4.6c-4.34-2.47-12.16-12-14.71-18a66.43,66.43,0,0,0-7-11.73,83.33,83.33,0,0,1-6.31-9.45,41.13,41.13,0,0,0-6.74-8.27c-5.7-5.48-9.21-11.24-6.82-11.19,3.1,0,11.08,4.48,14.5,8.06,9.44,9.85,11.37,11.6,15.83,14.35,4.3,2.65,6.34,5.41,6.54,8.86,0,.65,1.26,2.51,2.72,4.13s4.2,4.68,6.11,6.79a20.19,20.19,0,0,1,4.22,7.31c1.37,6.26-3.67,11.78-8.34,9.12Zm-237.9-.78a1.18,1.18,0,1,1,1.18,1.18A1.18,1.18,0,0,1,919.69,445.32Zm312.39,0a5.12,5.12,0,0,1,0-3.49,7,7,0,0,0-1.08-5.07c-1.65-2.51-1.63-3,.17-5.6,1.09-1.55,2.37-5.73,2.85-9.28.6-4.38,1.77-7.35,3.66-9.24,2.57-2.57,3.22-2.69,9-1.59,5,.94,6.93.83,9.64-.57,4.53-2.35,4.86-2.24,3.36,1.06-1.92,4.2-5.74,5.55-9.78,3.43-7.2-3.77-16.75,1.84-11.71,6.88,1.85,1.85,2.88,2,6.31,1,5.88-1.69,8.2-1.38,4.55.6-4.14,2.25-4.92,4.74-2.79,8.87a17,17,0,0,1,1.76,6.46c0,2.69-.28,2.9-2.36,1.79-1.3-.7-3.18-3.21-4.17-5.59-1.79-4.28-1.82-4.3-4.11-2-2,2-2.15,2.91-1.05,6.89,1,3.6.93,4.79-.31,5.58-2.09,1.32-3.06,1.28-4-.16Zm162-6.3a17.59,17.59,0,0,0-5.67-5c-2-1-3.37-2.15-3-2.47,1.84-1.84,12.09,6.5,11.21,9.12-.26.81-1.33.09-2.49-1.68Zm-185.47-3.93c-1.78-.93-4.18-1.4-5.34-1-2.93.93-14.61-1.44-15.76-3.21-.92-1.4-3.63-10.06-5.07-16.23a6.92,6.92,0,0,1,.92-5.16c1.36-1.85,2.06-2,4.2-.85s2.73,1,4-1.71c.78-1.7,3.36-4.09,5.74-5.3a13.18,13.18,0,0,0,5.79-5.76,8.38,8.38,0,0,1,5.5-4.88,17.84,17.84,0,0,0,7.1-5.37c1.7-2.22,3.71-4,4.48-4s3.1,1.76,5.18,3.9l3.78,3.9-3,4.08c-3.44,4.62-3.26,8.6.64,14.08l2.36,3.31-2.94,1.93c-1.62,1.06-2.94,2.58-2.94,3.38,0,2.7-7.56,18.3-9.46,19.48-1.32.83-2.85.67-5.12-.52Zm68.61,0c-2.45-.64-2.78-2.73-.44-2.73a39.6,39.6,0,0,1,5.55.79c3.33.66,3.58.92,1.62,1.69-2.56,1-3.7,1-6.73.25ZM1465.34,420c0-.29.54-.85,1.19-1.25s1.18-.17,1.18.52a1.22,1.22,0,0,1-1.18,1.25C1465.88,420.52,1465.34,420.29,1465.34,420Zm-192.22-3.2c-.94-.95-1-2-.18-3.57.65-1.22.87-2.72.48-3.34-1.06-1.72,1.6-5.91,3.77-5.91,1.73,0,1.73.21-.08,2.2-1.56,1.73-1.73,2.87-.8,5.31,1.87,4.93-.17,8.33-3.19,5.31Zm-593.19-3.89c0-.28.53-.85,1.18-1.25s1.18-.17,1.18.52a1.22,1.22,0,0,1-1.18,1.25C680.46,413.43,679.93,413.2,679.93,412.91Zm819.08-3c-.41-.65-.17-1.18.52-1.18a1.22,1.22,0,0,1,1.25,1.18c0,.65-.24,1.18-.52,1.18S1499.41,410.54,1499,409.89ZM687,398.74c0-.29.53-.85,1.18-1.25s1.18-.17,1.18.52a1.22,1.22,0,0,1-1.18,1.25C687.55,399.26,687,399,687,398.74ZM1255.13,381c-2.26-5.25-2.56-5.49-6-4.73s-3.58.67-2.29-1.75c1.08-2,2.07-2.4,4.61-1.84s4,0,6.42-2.23c1.74-1.62,3.18-3.9,3.2-5.07,0-3,4.42,7,5.42,12.36.76,4.06.66,4.28-1.18,2.75-2.74-2.27-5.38.09-3.13,2.8.9,1.08,1,1.82.28,1.82a11,11,0,0,0-3.08.71c-1.38.53-2.48-.74-4.23-4.82Zm-215.35,2.09c-1.32-2.15-2.07-11.77-1.11-14.32,1-2.71,1.08-2.68,4.09,1.77,3.61,5.33,4.76,8.75,3.57,10.57s-5.82,3.16-6.55,2ZM1303.54,377a2.58,2.58,0,0,1,1.18-1.91c.65-.4,1.18-.2,1.18.45a2.58,2.58,0,0,1-1.18,1.91C1304.07,377.81,1303.54,377.61,1303.54,377Zm185.43-.14c0-.65.23-1.18.52-1.18s.85.53,1.25,1.18.17,1.18-.52,1.18A1.22,1.22,0,0,1,1489,376.82ZM1220.86,370c0-.51,2.37-3.56,5.26-6.79,4.25-4.74,5.28-5.41,5.32-3.45,0,1.33-1.75,4.39-4,6.79C1223.77,370.62,1220.86,372.13,1220.86,370Zm25.58-3.15a5.09,5.09,0,0,1,.2-3.79c.83-1.49,1.18-1.5,2.34-.1s1,2.16-.19,3.79C1247.32,368.75,1247.18,368.76,1246.44,366.85ZM342,362.24c.72-.87,1-1.93.54-2.36s.32-.78,1.67-.78c1.87,0,2.3.57,1.83,2.37a3.15,3.15,0,0,1-3,2.36c-1.84,0-2.08-.35-1.05-1.59Zm912.38-.31a32.25,32.25,0,0,0-1.28-3.12c-.26-.49,0-.89.64-.89,1.17,0,2.83,4.85,2,5.73C1255.4,363.93,1254.81,363.16,1254.37,361.93Zm-12-3.08a2.58,2.58,0,0,1,2.44-4.29c1.55.35,1.61.84.36,3.15S1243.48,360.15,1242.4,358.85Zm14-4.06c-1.35-1.72-2.26-3.33-2-3.57,1-1,4.28,1.15,6.05,3.85C1263.1,359.21,1259.66,359,1256.36,354.79ZM1237,350.22A6.36,6.36,0,0,1,1235,347c0-.75,1.16-.2,2.59,1.23s2.28,2.9,1.91,3.27S1238,351.27,1237,350.22Zm-927.09-.17a3.27,3.27,0,0,1-.78-2c0-.74.55-.67,1.39.18s1.13,1.67.79,2A1,1,0,0,1,309.86,350.05Zm-6.69-1.58c0-.65.23-1.18.52-1.18s.85.53,1.25,1.18.17,1.19-.52,1.19A1.23,1.23,0,0,1,303.17,348.47Zm55.51-2.36c0-.65.24-1.18.52-1.18s.85.53,1.25,1.18.17,1.18-.52,1.18A1.22,1.22,0,0,1,358.68,346.11Zm890.15-.18a7.87,7.87,0,0,0-5-.5c-2.29.57-3.86-.35-8.14-4.75-6-6.22-7.23-8.85-5.45-12.16a15.07,15.07,0,0,0,1.24-5.88c0-6.41,4.3-6.15,7.44.45,1.75,3.65,1.76,4.44.12,8.36-1.76,4.22-1.73,4.41,1.42,7.7,2.27,2.37,4,3.18,5.77,2.73a4,4,0,0,1,4,1.16c2.13,2.57,1.2,4.4-1.46,2.89Zm-897.24-7.42c0-.29.54-.85,1.19-1.26s1.18-.16,1.18.53a1.22,1.22,0,0,1-1.18,1.25C352.13,339,351.59,338.79,351.59,338.51ZM537,334.3a1.18,1.18,0,1,1,1.18,1.18A1.18,1.18,0,0,1,537,334.3Zm-189-4.58a2.58,2.58,0,0,1,1.18-1.91c.65-.41,1.18-.2,1.18.45a2.58,2.58,0,0,1-1.18,1.91C348.58,330.57,348.05,330.37,348.05,329.72Zm-10-4.85c-.41-.67.06-.87,1.11-.47,2.05.79,2.42,1.63.72,1.63A2.51,2.51,0,0,1,338,324.87Zm187.78,0c-.4-.65-.16-1.18.52-1.18a1.22,1.22,0,0,1,1.25,1.18c0,.65-.23,1.18-.52,1.18S526.2,325.5,525.8,324.85Zm-183.06-2.36c-.41-.65-.17-1.18.52-1.18a1.22,1.22,0,0,1,1.25,1.18c0,.65-.24,1.18-.52,1.18S343.14,323.14,342.74,322.49Zm5.31,0c0-.65.24-1.18.52-1.18s.85.53,1.25,1.18.17,1.18-.52,1.18A1.22,1.22,0,0,1,348.05,322.49Zm-81.2-3.14a2.25,2.25,0,0,1-1.47-1.68c0-1.7,5.21-1.27,7.74.65,2.18,1.65,2.12,1.73-1.25,1.68A19.25,19.25,0,0,1,266.85,319.35Zm29.89-.67a8.76,8.76,0,0,0-5.2-.36,12.39,12.39,0,0,1-6.16-.44c-2.55-1-2.32-1.13,1.95-1,6.28.14,8-.88,6.35-3.88-1.14-2.13-.79-2.29,4.84-2.29,5.45,0,13.31,2.5,14.65,4.66.88,1.43-14.32,4.52-16.43,3.34Zm22.65.74c-1.4-1.4.34-2.83,3.44-2.83,1.85,0,2.79.55,2.49,1.47C324.78,319.72,320.64,320.67,319.39,319.42Zm854.48-1.87c-3.13-3.13,0-6.87,5.69-6.87,2.53,0,2.53,0,.36,3.74C1177.38,318.76,1175.87,319.54,1173.87,317.55Zm-844.72-.25c0-.25.8-.77,1.78-1.14s1.77-.17,1.77.46-.8,1.15-1.77,1.15S329.15,317.56,329.15,317.3Zm-51-8.46c-.37-.37-2.86-.7-5.54-.73-3.7-.06-4.59-.42-3.68-1.51s-.39-2.47-4.73-5.28c-8.51-5.52-13.26-6.6-19-4.31-5.37,2.15-5.78,2.21-5.78.86,0-2.47,9.4-5.19,16.17-4.68,6.47.49,10.1,1.87,22.81,8.67,10.44,5.59,10.46,5.6,7.08,6.56C281.63,309.51,278.93,309.67,278.1,308.84Zm8.54-10c2.29-1.48,3.54-1.48,3.54,0,0,.65-1.2,1.17-2.66,1.16C285.37,300,285.2,299.8,286.64,298.87Zm940.6-2.1a12,12,0,0,1-2.73-3.57c-1.19-2.25-1.06-3.35.72-6.4,2.75-4.72,4.61-5.31,5.51-1.74.94,3.74-1.78,12.85-3.5,11.71ZM294.39,295.2c.79-1.28,5.24-1.42,5.24-.17,0,.49-1.33,1-2.95,1.06s-2.65-.31-2.29-.89ZM271,283.82c-1.88-2.17-1.61-5,.49-5,.67,0,1,1,.62,2.31s0,2.52.74,2.79,1,.82.66,1.24S272,285,271,283.82Zm6.87-9.28c-.42-1.1-.5-2.26-.18-2.58s.94.3,1.36,1.4.5,2.26.17,2.58S278.32,275.63,277.9,274.54Zm-7.41-1.06a2.07,2.07,0,0,1,2.25-1.78c2,0,2.06.2.48,1.78a7.61,7.61,0,0,1-2.25,1.77C270.71,275.25,270.49,274.45,270.49,273.48ZM1261,247.58c0-.92-1.29-3.21-2.87-5.08-3.74-4.45-2.41-7.42,2-4.52,3.18,2.09,4.85,6.36,3.67,9.42C1263,249.72,1261,249.85,1261,247.58Zm-916.51-7.1c0-.29.53-.85,1.18-1.25s1.18-.17,1.18.52a1.22,1.22,0,0,1-1.18,1.25C345,241,344.51,240.76,344.51,240.48ZM1267.6,239c-.76-2,1-3.88,3.75-3.91,1.88,0,1.92,2.62.06,4.47s-2.91,1.78-3.81-.56Zm10.79-4.31c-2.29-3.5-5.53-4-13-1.92-3,.84-5.09.85-6.49,0-1.14-.66-1.44-1.22-.68-1.24s3-1.38,5-3c2.52-2.12,4.37-2.78,6.37-2.28s4.39-.49,9.19-4.09c9.34-7,10.19-9.24,6.39-16.74-3.65-7.2-2.63-9.52,2.77-6.33,3.94,2.33,7.64,9,6.57,11.79-.39,1,.19,4.18,1.28,7,1.55,4.05,1.7,5.76.66,7.69-1.51,2.83-5.73,4.73-10.53,4.73-2.69,0-3.5.69-4.38,3.75l-1.07,3.76-2.08-3.17Zm-478.46-4c-1.41-1.41-.66-2.67,1.58-2.67a4,4,0,0,0,3-1.19c1.09-1.77,3-1.42,2.26.43s-5.85,4.46-6.87,3.43Zm-40.28-2L756.11,227l4.73-.08c5.88-.1,10.21,1,9.36,2.38-1,1.54-6.48,1.18-10.55-.68Zm-47.71-11.78c-4.72-2.42-5-2.73-2.48-3.37,3-.77,9.5.19,9.36,1.38a15.2,15.2,0,0,1-.88,2.69C717.21,219.33,716.64,219.26,711.94,216.86Zm-23.67-12.78c-1-2.93-.94-4.06.39-5.38,2.4-2.41,4.26-.72,4.26,3.86,0,5.4-3,6.37-4.65,1.52Zm-27.69,1c.83-2.18,4.43-2.55,3.7-.38a3.43,3.43,0,0,1-2.45,1.86c-1.37.26-1.75-.18-1.25-1.48Zm617.11-13.48c-2.16-3-2.22-3.6-.63-5.88s1.57-2.91,0-6c-2.66-5.14-2.28-5.45,2.32-1.93a37.34,37.34,0,0,0,10,4.89q10,3,4.79,4.62c-1.31.42-2.38,1.53-2.38,2.47,0,1.29-.82,1.51-3.25.89-6.23-1.6-8-1.21-7.6,1.67.49,3.52-.31,3.35-3.19-.7ZM690.17,193a2.65,2.65,0,0,1,1-4.37c1.28-.49,1.77.13,1.77,2.24C692.92,193.67,691.77,194.57,690.17,193Zm580-24.9a62.85,62.85,0,0,1-5.36-9.16c-1.95-3.9-7.11-11.06-11.46-15.91-4.86-5.42-7.33-9-6.41-9.32s2.6,1,4,2.74c3.24,4.33,7.25,8.09,13.56,12.74,5.23,3.86,7.82,7.43,4.44,6.13-3.89-1.49-2.92,2.05,2.12,7.73,2.94,3.3,5.34,6.26,5.34,6.56,0,1.44-4.56.32-6.18-1.51ZM405.92,166c0-1,.52-1.77,1.15-1.77s.84.79.46,1.77-.89,1.77-1.14,1.77S405.92,167,405.92,166Zm-6.17-3.81-4.4-.46,8.28-8.2c4.56-4.51,8.88-8.2,9.6-8.2s.54.87-.54,2.07c-2.46,2.71-.79,5.77,3.71,6.75a7.11,7.11,0,0,1,4.67,3.6c1.21,2.66,1,2.93-3.09,4.07-4.29,1.19-9.41,1.29-18.23.37ZM112,153.71c-4.09-3.82-4.55-5.43-1.83-6.47,2.43-.93,6.91,2.11,8.61,5.84,1.78,3.91,1.75,4.06-.87,4.06C116.64,157.14,114,155.6,112,153.71Zm520.14-6c1.3-.64,3.85-1.7,5.68-2.36,4-1.45,3.36-3-1.73-4-3.49-.7-3.61-.88-1.62-2.34,1.19-.87,1.82-2.14,1.39-2.82s.79-1.79,2.78-2.48,3.54-1.76,3.54-2.4c0-2.73-2.46-7.32-3.83-7.14-3.15.41-4.62-.15-4.11-1.57a5.37,5.37,0,0,0-.53-3.54c-1.52-3,2-9.07,5.22-9.13.49,0,.75.63.59,1.43s.95,1.63,2.48,1.87l2.77.42-2.65,2.81-2.65,2.82,3,1.14c3.2,1.22,6.29,5.19,9.44,12.13,1.5,3.33,2.49,4.2,4.25,3.74,3.61-.95,4,1.5.65,3.72-2.29,1.5-2.72,2.35-1.72,3.35s-1,1.68-7.85,2.67c-5.05.73-11.05,1.67-13.32,2.09-3.16.59-3.58.49-1.77-.4Zm-19.92-6.52c-.4-1.05.06-3.45,1-5.32,1.11-2.14,1.32-3.67.58-4.12-2-1.27-1.28-2.88,1.73-3.64a9.43,9.43,0,0,0,4.27-2.38c1.58-1.9,8.85-2.25,10-.48.4.65-.1,2.36-1.12,3.81a11.83,11.83,0,0,0-1.84,5.76c0,2.64-.81,3.42-5,4.89-2.76.95-5.88,2.11-6.93,2.57A1.79,1.79,0,0,1,612.18,141.19Zm21.69-11.73c0-.29.53-.85,1.18-1.26s1.18-.16,1.18.53a1.22,1.22,0,0,1-1.18,1.25C634.4,130,633.87,129.74,633.87,129.46Zm-524.16-5.7c-1.16-1.39-1.08-2,.37-3.24,2.4-2,3.59-.64,2.19,2.49-1,2.16-1.31,2.26-2.56.75Zm-1.85-8.88c-.4-.64.07-1.83,1-2.63,1.92-1.59,2.32-.34.7,2.2C109,115.43,108.3,115.59,107.86,114.88Zm-76.34-.75c0-.83,3.59-2.29,8.67-3.52,1.92-.46,3.06-.35,2.68.27s-2.14,1.37-3.94,1.74a40.43,40.43,0,0,0-5.34,1.46c-1.14.44-2.07.46-2.07,0Zm701.86-13.28c-2.18-.88-1.8-2.24.68-2.42,1.2-.09,2.17.59,2.17,1.52,0,1.76-.41,1.88-2.85.9Zm-259.54-6c-7.48-4.07-11-10.34-8.89-15.56,1-2.48,1.06-4,.12-5.79-2-3.66.6-7.94,7.12-11.95,3.1-1.91,6.2-4.51,6.88-5.79,1.89-3.54.21-9.59-3.09-11.09-1.66-.76-2.57-2-2.2-2.92.84-2.19-3.1-9.65-7-13.31-2.88-2.69-4.12-2.95-14-3-13.44-.09-15.95-.83-15.73-4.69.1-1.6.45-2.91.79-2.91s5.13-.56,10.63-1.24a74.68,74.68,0,0,0,21.17-6c12.13-5.18,13.05-5.28,42-4.6A141.92,141.92,0,0,0,540,3.68C550,2,557.43,1.35,561.43,1.83a34.66,34.66,0,0,0,11.09-.61c6.44-1.73,23.17.35,29.76,3.71,3.89,2,6,2.25,12.51,1.6,7.09-.71,7.63-.62,5.5,1-1.3.95-5.29,2.12-8.86,2.59-7.75,1-14.88,6.55-13,10.07.82,1.53.23,2.82-2.4,5.35-1.91,1.83-3.76,4.21-4.1,5.29-.82,2.59-11.27,7.41-16.44,7.59-5.75.2-6.35,1.43-1.91,3.87a66.93,66.93,0,0,1,6.82,4.39l3,2.27-2.71,1c-2.07.77-3.76.28-7.21-2.12-4.69-3.24-9.73-3.26-7,0,1,1.27.8,1.76-1.17,2.27-4.38,1.15-1.28,3.42,3.56,2.6,3.08-.52,4.81-.25,5.78.91,1.14,1.39-.35,2-9,3.83a111,111,0,0,1-16.83,2.27c-6.63.1-11.42,2-18.45,7.35-2.3,1.75-7.17,3.47-12.88,4.57-11.92,2.28-15.95,4.92-23.14,15.15C488.59,94.93,485.11,98,481.51,98c-1,0-4.43-1.44-7.67-3.21Zm-83.75-7.9a25.4,25.4,0,0,1-6.91-6.46c-2.46-3.89-4.73-4.38-11.39-2.48-2.25.65-4.78.71-5.79.15-3.5-2,2.82-3.89,9.86-3,5.35.67,6.54.48,7.16-1.14,1.26-3.27,7-5.61,10.18-4.16,2,.9,3.75.87,6.26-.09,3.38-1.28,3.42-1.4,1.22-3a8.87,8.87,0,0,0-3.2-1.68c-.5,0-2.3-2.38-4-5.28A26,26,0,0,0,386.41,52c-3.73-2.31-4.22-2.35-7.56-.62-2.91,1.5-4.6,1.61-9.21.57a29.58,29.58,0,0,0-9.63-.52c-3.81.71-10.78-1.15-10.78-2.88,0-3.17,10-10.29,15.95-11.35l4.72-.84L366.52,40c-4.65,5-2.9,7.25,2.16,2.8a20.89,20.89,0,0,1,8.24-4.24c3.64-.68,5.21-.23,9.79,2.8,6.09,4,6.56,4.14,10,2.3,2.06-1.1,2.83-.8,5.08,2,1.55,2,5,4.07,8.41,5.14,5.39,1.71,5.76,2.08,5.76,5.8,0,2.79.81,4.55,2.7,5.91,7.93,5.66,7.76,5.43,6,8.18-2.35,3.76-4.21,4-9.41,1.38-3.62-1.85-5.21-2.1-7-1.12-2.23,1.19-2.25,1.44-.46,4.92,1.48,2.85,1.61,4.28.61,6.48-1.23,2.71-1.43,2.75-4.78,1-6.59-3.41-11-1.17-4.88,2.46,1.93,1.14,3.23,2.5,2.91,3-1.15,1.85-7,.86-11.57-2Zm242.6,1.53c0-.54.8-1,1.77-1s1.77.44,1.77,1-.79,1-1.77,1S632.69,89,632.69,88.44ZM345.56,82.09c-2.33-1.22-4.14-1.33-7.4-.43-5.54,1.53-7.48.41-4.67-2.7,3.6-4,6.05-4.76,10.39-3.33,4.89,1.62,7.06,4,5.74,6.35C348.78,83.47,348.21,83.48,345.56,82.09Zm234.57-.54c-2-1.28-4.43-2-5.51-1.7-1.49.47-1.82.06-1.37-1.69.71-2.69,11.08-6.57,14.59-5.45,1.23.38,4.35.06,6.95-.71,4.08-1.23,5.16-1.13,7.92.67l3.19,2.09L603.05,77c-2.4,1.87-6.85,3.49-17.6,6.42C584.47,83.67,582.08,82.83,580.13,81.55Zm-320.66-22a47.41,47.41,0,0,1-8.79-3.08l-5.84-2.62,8.2-.59c4.51-.33,8.2-1.13,8.2-1.78s-3.19-1.46-7.08-1.81c-5.15-.46-6.12-.78-3.55-1.18,4.31-.67,4.62-2.53.59-3.55-2.9-.73-2.88-.78,1.2-2.53a31.32,31.32,0,0,1,21.28-1.65c5.48,1.62,6.33,1.62,8.92-.08,1.82-1.19,2.91-1.39,3-.55s.22,1.94.3,2.69c.27,2.56,2.63,2.23,5.44-.76,2.6-2.77,7.11-4.1,7.1-2.09a19.58,19.58,0,0,1-2.33,4.71l-2.33,3.82,3.81,2,3.81,2-6.26,2.85c-5.65,2.58-6.8,2.73-11.87,1.51-4.9-1.17-6.31-1-11.26,1.08-5.58,2.39-6.76,2.55-12.54,1.63Zm47.37-.83c-1.07-1.28-.63-1.92,2.13-3.06a10.68,10.68,0,0,1,6.15-.59c2.55.81,2.5.94-1.39,3-5,2.64-5.21,2.67-6.89.64Zm325.85-5.46c2.29-1.48,3.54-1.48,3.54,0,0,.65-1.19,1.17-2.65,1.16C631.43,54.35,631.26,54.13,632.69,53.21Zm216.73-3.28c-6-2.39-5.92-2.25-4.16-4.37.82-1,1-1.82.46-1.84s0-.84,1.33-1.82,2.37-2.16,2.39-2.62c0-1.75,4.85-6.36,8.24-7.9,2-.89,7-1.89,11.22-2.23s9.88-.95,12.57-1.36c2.86-.44,5.2-.26,5.63.43.84,1.36-.76,1.93-9.93,3.58S862.61,36,859,40.26c-3.8,4.51-3.92,7.36-.44,9.79l2.66,1.85-3.55,0a28.91,28.91,0,0,1-8.26-1.92ZM230.84,46.51c-1.91-1.91-1.48-2.32,7.66-7.33,10.71-5.86,16.09-6.64,25.7-3.71l5.31,1.62-7.09,1.4c-5.79,1.15-18.07,5.26-27.77,9.29C233.66,48.19,232,47.62,230.84,46.51ZM316.16,45c0-.63-1.46-2-3.25-3l-3.24-1.87,4.35.69c3.09.48,4.62.2,5.31-1,.82-1.42,8.33-4.27,11.33-4.29.5,0,.09,1.58-.91,3.53-2.37,4.58-13.59,9.49-13.59,5.95Zm18.39-3.45c-1.69-2.74,9.87-7,14.77-5.42,3.58,1.14,1.19,3.09-5.05,4.12a43.2,43.2,0,0,0-7,1.68c-1.08.45-2.29.28-2.7-.38Zm37.71-8.7c-7.79-.62-14.32-1.26-14.49-1.43-1.06-1,1.57-4.17,4.41-5.34s4.07-1,7.89.94,6.11,2.21,13,1.71c4.66-.34,10-.23,11.81.24l3.35.84L394.11,32c-2.27,1.22-4.93,2.15-5.9,2.08s-8.15-.63-15.95-1.25ZM712.15,28c-5.8-3-6.36-4.31-1.81-4.34a10.35,10.35,0,0,0,5-1.29c1.54-1.1,1.52-1.19-.15-.67a3.55,3.55,0,0,1-3.29-.76c-1-1-1.59-1-2.28.08s-1.92,1.14-4.38.41c-6.22-1.87-7.61-2.7-7.61-4.55,0-1.56,1.56-1.71,11.22-1,7.35.52,11.22.38,11.22-.41,0-2.33,3.28-1.18,4.14,1.45l.88,2.66.53-2.66c.28-1.46,1.28-2.66,2.21-2.66a1.58,1.58,0,0,0,1.69-1.42c0-1.1.31-1.1,1.41,0,.83.83,4.78,1.42,9.45,1.42,8.45,0,10.43,1.51,4.8,3.65-2.93,1.11-8,.8-13.6-.84-1.13-.33-2.06-.17-2.06.36,0,1.09,6.65,5.1,8.44,5.1a5.42,5.42,0,0,1,2.83,1.66c1.42,1.42,1.41,1.75-.08,2.32-1,.37-1.74.09-1.74-.61s-1.51-1-4.25-.47c-3,.55-4,.4-3.45-.52a2.91,2.91,0,0,0-.61-3c-1.52-1.83-5.87-2.39-5.87-.76,0,.53-1.72,2.88-3.84,5.21l-3.83,4.25-5-2.56ZM398.84,25.41c-2-1.21-4.95-1.55-9.45-1.14-4.21.39-7.45.05-9.2-.95-2.42-1.38-1.83-1.54,5.55-1.48,9.22.08,13.27-1.9,8.28-4-2.38-1-2-1.11,2-.55,5.31.74,7.37-.68,4.48-3.09-3.09-2.56.31-3.35,11.28-2.64q10.2.66,12.81-.74c3.34-1.79,2-4.07-1.79-3.11-2.64.66-21-.42-20.19-1.2.55-.55,26.52-3,43.56-4,8.85-.56,18.68-1.34,21.85-1.73L473.84,0l-9.53,4.58c-8.93,4.29-23.46,8.47-29.43,8.47-1.45,0-5.63,1.59-9.28,3.54s-7.37,3.55-8.27,3.55-4.76,1.58-8.58,3.52-7,3.52-7,3.51-1.33-.81-3-1.76Zm-23-10.79c-5.73-1.27-5.94-1.75-1.73-3.93,6.13-3.18,11.93-4,14.57-2,2.09,1.54,2,1.78-2.13,4.2C382.24,15.37,380.51,15.66,375.81,14.62Z"/></g></g></g></svg>