<svg id="e790r69m5rnl1" xmlns="http://www.w3.org/2000/svg" xmlns:xlink="http://www.w3.org/1999/xlink" viewBox="150 140 225 261" shape-rendering="geometricPrecision" text-rendering="geometricPrecision"><style><![CDATA[#e790r69m5rnl34_tr {animation: e790r69m5rnl34_tr__tr 2000ms linear infinite normal forwards}@keyframes e790r69m5rnl34_tr__tr { 0% {transform: translate(262.500793px,245.500628px) rotate(0deg)} 100% {transform: translate(262.500793px,245.500628px) rotate(36deg)} }#e790r69m5rnl66_tr {animation: e790r69m5rnl66_tr__tr 2000ms linear infinite normal forwards}@keyframes e790r69m5rnl66_tr__tr { 0% {transform: translate(262.499821px,254.999800px) rotate(0deg)} 100% {transform: translate(262.499821px,254.999800px) rotate(36deg)} }#e790r69m5rnl67_tr {animation: e790r69m5rnl67_tr__tr 2000ms linear infinite normal forwards}@keyframes e790r69m5rnl67_tr__tr { 0% {transform: translate(262.499516px,163.780469px) rotate(0deg)} 100% {transform: translate(262.499516px,163.780469px) rotate(-36deg)} }#e790r69m5rnl75_tr {animation: e790r69m5rnl75_tr__tr 2000ms linear infinite normal forwards}@keyframes e790r69m5rnl75_tr__tr { 0% {transform: translate(207.363720px,181.690823px) rotate(0deg)} 100% {transform: translate(207.363720px,181.690823px) rotate(-36deg)} }#e790r69m5rnl83_tr {animation: e790r69m5rnl83_tr__tr 2000ms linear infinite normal forwards}@keyframes e790r69m5rnl83_tr__tr { 0% {transform: translate(173.865232px,228.146976px) rotate(0deg)} 100% {transform: translate(173.865232px,228.146976px) rotate(-36deg)} }#e790r69m5rnl91_tr {animation: e790r69m5rnl91_tr__tr 2000ms linear infinite normal forwards}@keyframes e790r69m5rnl91_tr__tr { 0% {transform: translate(173.865213px,285.744976px) rotate(0deg)} 100% {transform: translate(173.865213px,285.744976px) rotate(-36deg)} }#e790r69m5rnl99_tr {animation: e790r69m5rnl99_tr__tr 2000ms linear infinite normal forwards}@keyframes e790r69m5rnl99_tr__tr { 0% {transform: translate(207.720613px,332.307395px) rotate(0deg)} 100% {transform: translate(207.720613px,332.307395px) rotate(-36deg)} }#e790r69m5rnl107_tr {animation: e790r69m5rnl107_tr__tr 2000ms linear infinite normal forwards}@keyframes e790r69m5rnl107_tr__tr { 0% {transform: translate(262.543165px,350.141976px) rotate(0deg)} 100% {transform: translate(262.543165px,350.141976px) rotate(-36deg)} }#e790r69m5rnl115_tr {animation: e790r69m5rnl115_tr__tr 2000ms linear infinite normal forwards}@keyframes e790r69m5rnl115_tr__tr { 0% {transform: translate(317.223117px,332.307395px) rotate(0deg)} 100% {transform: translate(317.223117px,332.307395px) rotate(-36deg)} }#e790r69m5rnl123_tr {animation: e790r69m5rnl123_tr__tr 2000ms linear infinite normal forwards}@keyframes e790r69m5rnl123_tr__tr { 0% {transform: translate(351.134113px,285.744976px) rotate(0deg)} 100% {transform: translate(351.134113px,285.744976px) rotate(-36deg)} }#e790r69m5rnl131_tr {animation: e790r69m5rnl131_tr__tr 2000ms linear infinite normal forwards}@keyframes e790r69m5rnl131_tr__tr { 0% {transform: translate(351.134132px,228.146976px) rotate(0deg)} 100% {transform: translate(351.134132px,228.146976px) rotate(-36deg)} }#e790r69m5rnl139_tr {animation: e790r69m5rnl139_tr__tr 2000ms linear infinite normal forwards}@keyframes e790r69m5rnl139_tr__tr { 0% {transform: translate(317.223136px,181.471898px) rotate(0deg)} 100% {transform: translate(317.223136px,181.471898px) rotate(-36deg)} }#e790r69m5rnl147 {animation: e790r69m5rnl147_c_o 2000ms linear infinite normal forwards}@keyframes e790r69m5rnl147_c_o { 0% {opacity: 1;animation-timing-function: step-start} 50% {opacity: 0;animation-timing-function: step-start} 75% {opacity: 1} 100% {opacity: 1} }#e790r69m5rnl148 {animation: e790r69m5rnl148_c_o 2000ms linear infinite normal forwards}@keyframes e790r69m5rnl148_c_o { 0% {opacity: 0} 25% {opacity: 0;animation-timing-function: step-end} 50% {opacity: 1;animation-timing-function: step-end} 75% {opacity: 0} 100% {opacity: 0} }#e790r69m5rnl149 {animation: e790r69m5rnl149_c_o 2000ms linear infinite normal forwards}@keyframes e790r69m5rnl149_c_o { 0% {opacity: 0} 50% {opacity: 0;animation-timing-function: step-end} 75% {opacity: 1;animation-timing-function: step-end} 100% {opacity: 0} }]]></style><defs><clipPath id="e790r69m5rnl2"><circle id="e790r69m5rnl3" r="137.500000" transform="matrix(1 0 0 1 283.50000000000000 328.50000000000000)" clip-rule="evenodd" fill="rgb(0,0,0)" fill-rule="evenodd" stroke="none" stroke-width="1" stroke-linecap="round" stroke-linejoin="round" stroke-miterlimit="1.500000"/></clipPath><clipPath id="e790r69m5rnl4"><circle id="e790r69m5rnl5" r="137.500000" transform="matrix(1 0 0 1 283.50000000000000 328.50000000000000)" clip-rule="evenodd" fill="rgb(0,0,0)" fill-rule="evenodd" stroke="none" stroke-width="1" stroke-linecap="round" stroke-linejoin="round" stroke-miterlimit="1.500000"/></clipPath><clipPath id="e790r69m5rnl6"><path id="e790r69m5rnl7" d="M489,249.250000C489,238.626000,480.374000,230,469.750000,230L431.250000,230C420.626000,230,412,238.626000,412,249.250000L412,302.750000C412,313.374000,420.626000,322,431.250000,322L469.750000,322C480.374000,322,489,313.374000,489,302.750000L489,249.250000Z" clip-rule="evenodd" fill="rgb(0,0,0)" fill-rule="evenodd" stroke="none" stroke-width="1" stroke-linecap="round" stroke-linejoin="round" stroke-miterlimit="1.500000"/></clipPath><clipPath id="e790r69m5rnl8"><path id="e790r69m5rnl9" d="M489,249.250000C489,238.626000,480.374000,230,469.750000,230L431.250000,230C420.626000,230,412,238.626000,412,249.250000L412,302.750000C412,313.374000,420.626000,322,431.250000,322L469.750000,322C480.374000,322,489,313.374000,489,302.750000L489,249.250000Z" clip-rule="evenodd" fill="rgb(0,0,0)" fill-rule="evenodd" stroke="none" stroke-width="1" stroke-linejoin="round" stroke-miterlimit="1.500000"/></clipPath><clipPath id="e790r69m5rnl10"><path id="e790r69m5rnl11" d="M489,249.250000C489,238.626000,480.374000,230,469.750000,230L431.250000,230C420.626000,230,412,238.626000,412,249.250000L412,302.750000C412,313.374000,420.626000,322,431.250000,322L469.750000,322C480.374000,322,489,313.374000,489,302.750000L489,249.250000Z" clip-rule="evenodd" fill="rgb(0,0,0)" fill-rule="evenodd" stroke="none" stroke-width="1" stroke-linejoin="round" stroke-miterlimit="1.500000"/></clipPath><clipPath id="e790r69m5rnl12"><path id="e790r69m5rnl13" d="M489,249.250000C489,238.626000,480.374000,230,469.750000,230L431.250000,230C420.626000,230,412,238.626000,412,249.250000L412,302.750000C412,313.374000,420.626000,322,431.250000,322L469.750000,322C480.374000,322,489,313.374000,489,302.750000L489,249.250000Z" clip-rule="evenodd" fill="rgb(0,0,0)" fill-rule="evenodd" stroke="none" stroke-width="1" stroke-linejoin="round" stroke-miterlimit="1.500000"/></clipPath><clipPath id="e790r69m5rnl14"><path id="e790r69m5rnl15" d="M489,249.250000C489,238.626000,480.374000,230,469.750000,230L431.250000,230C420.626000,230,412,238.626000,412,249.250000L412,302.750000C412,313.374000,420.626000,322,431.250000,322L469.750000,322C480.374000,322,489,313.374000,489,302.750000L489,249.250000Z" clip-rule="evenodd" fill="rgb(0,0,0)" fill-rule="evenodd" stroke="none" stroke-width="1" stroke-linejoin="round" stroke-miterlimit="1.500000"/></clipPath><clipPath id="e790r69m5rnl16"><path id="e790r69m5rnl17" d="M489,249.250000C489,238.626000,480.374000,230,469.750000,230L431.250000,230C420.626000,230,412,238.626000,412,249.250000L412,302.750000C412,313.374000,420.626000,322,431.250000,322L469.750000,322C480.374000,322,489,313.374000,489,302.750000L489,249.250000Z" clip-rule="evenodd" fill="rgb(0,0,0)" fill-rule="evenodd" stroke="none" stroke-width="1" stroke-linejoin="round" stroke-miterlimit="1.500000"/></clipPath><clipPath id="e790r69m5rnl18"><path id="e790r69m5rnl19" d="M489,249.250000C489,238.626000,480.374000,230,469.750000,230L431.250000,230C420.626000,230,412,238.626000,412,249.250000L412,302.750000C412,313.374000,420.626000,322,431.250000,322L469.750000,322C480.374000,322,489,313.374000,489,302.750000L489,249.250000Z" clip-rule="evenodd" fill="rgb(0,0,0)" fill-rule="evenodd" stroke="none" stroke-width="1" stroke-linejoin="round" stroke-miterlimit="1.500000"/></clipPath><clipPath id="e790r69m5rnl20"><path id="e790r69m5rnl21" d="M489,249.250000C489,238.626000,480.374000,230,469.750000,230L431.250000,230C420.626000,230,412,238.626000,412,249.250000L412,302.750000C412,313.374000,420.626000,322,431.250000,322L469.750000,322C480.374000,322,489,313.374000,489,302.750000L489,249.250000Z" clip-rule="evenodd" fill="rgb(0,0,0)" fill-rule="evenodd" stroke="none" stroke-width="1" stroke-linejoin="round" stroke-miterlimit="1.500000"/></clipPath><clipPath id="e790r69m5rnl22"><path id="e790r69m5rnl23" d="M489,249.250000C489,238.626000,480.374000,230,469.750000,230L431.250000,230C420.626000,230,412,238.626000,412,249.250000L412,302.750000C412,313.374000,420.626000,322,431.250000,322L469.750000,322C480.374000,322,489,313.374000,489,302.750000L489,249.250000Z" clip-rule="evenodd" fill="rgb(0,0,0)" fill-rule="evenodd" stroke="none" stroke-width="1" stroke-linejoin="round" stroke-miterlimit="1.500000"/></clipPath><clipPath id="e790r69m5rnl24"><path id="e790r69m5rnl25" d="M489,249.250000C489,238.626000,480.374000,230,469.750000,230L431.250000,230C420.626000,230,412,238.626000,412,249.250000L412,302.750000C412,313.374000,420.626000,322,431.250000,322L469.750000,322C480.374000,322,489,313.374000,489,302.750000L489,249.250000Z" clip-rule="evenodd" fill="rgb(0,0,0)" fill-rule="evenodd" stroke="none" stroke-width="1" stroke-linejoin="round" stroke-miterlimit="1.500000"/></clipPath><clipPath id="e790r69m5rnl26"><path id="e790r69m5rnl27" d="M489,249.250000C489,238.626000,480.374000,230,469.750000,230L431.250000,230C420.626000,230,412,238.626000,412,249.250000L412,302.750000C412,313.374000,420.626000,322,431.250000,322L469.750000,322C480.374000,322,489,313.374000,489,302.750000L489,249.250000Z" clip-rule="evenodd" fill="rgb(0,0,0)" fill-rule="evenodd" stroke="none" stroke-width="1" stroke-linejoin="round" stroke-miterlimit="1.500000"/></clipPath><clipPath id="e790r69m5rnl28"><path id="e790r69m5rnl29" d="M489,249.250000C489,238.626000,480.374000,230,469.750000,230L431.250000,230C420.626000,230,412,238.626000,412,249.250000L412,302.750000C412,313.374000,420.626000,322,431.250000,322L469.750000,322C480.374000,322,489,313.374000,489,302.750000L489,249.250000Z" clip-rule="evenodd" fill="rgb(0,0,0)" fill-rule="evenodd" stroke="none" stroke-width="1" stroke-linejoin="round" stroke-miterlimit="1.500000"/></clipPath><clipPath id="e790r69m5rnl30"><path id="e790r69m5rnl31" d="M489,249.250000C489,238.626000,480.374000,230,469.750000,230L431.250000,230C420.626000,230,412,238.626000,412,249.250000L412,302.750000C412,313.374000,420.626000,322,431.250000,322L469.750000,322C480.374000,322,489,313.374000,489,302.750000L489,249.250000Z" clip-rule="evenodd" fill="rgb(0,0,0)" fill-rule="evenodd" stroke="none" stroke-width="1" stroke-linejoin="round" stroke-miterlimit="1.500000"/></clipPath><clipPath id="e790r69m5rnl32"><path id="e790r69m5rnl33" d="M489,249.250000C489,238.626000,480.374000,230,469.750000,230L431.250000,230C420.626000,230,412,238.626000,412,249.250000L412,302.750000C412,313.374000,420.626000,322,431.250000,322L469.750000,322C480.374000,322,489,313.374000,489,302.750000L489,249.250000Z" clip-rule="evenodd" fill="rgb(0,0,0)" fill-rule="evenodd" stroke="none" stroke-width="1" stroke-linejoin="round" stroke-miterlimit="1.500000"/></clipPath></defs><g id="e790r69m5rnl34_tr" transform="translate(262.500793,245.500628) rotate(0)"><g id="e790r69m5rnl34" transform="scale(0.694545,0.694545) translate(-283.501275,-328.501145)" clip-rule="evenodd"><circle id="e790r69m5rnl35" r="137.500000" transform="matrix(1 0 0 1 283.50000000000000 328.50000000000000)" clip-rule="evenodd" fill="rgb(0,0,0)" fill-rule="evenodd" stroke="none" stroke-width="1" stroke-linecap="round" stroke-linejoin="round" stroke-miterlimit="1.500000"/><g id="e790r69m5rnl36" clip-path="url(#e790r69m5rnl2)" clip-rule="evenodd"><g id="e790r69m5rnl37" transform="matrix(1.45439000000000 0 0 1.45439000000000 -98.27610000000000 -28.55160000000000)" clip-rule="evenodd"><circle id="e790r69m5rnl38" r="15.500000" transform="matrix(1 0 0 1 262.50000000000000 245.50000000000000)" clip-rule="evenodd" fill="rgb(0,0,0)" fill-rule="evenodd" stroke="rgb(255,255,255)" stroke-width="0.990000" stroke-linecap="round" stroke-linejoin="round" stroke-miterlimit="1.500000"/></g><g id="e790r69m5rnl39" transform="matrix(0.88245200000000 0 0 0.88245200000000 51.85630000000000 111.85800000000000)" clip-rule="evenodd"><circle id="e790r69m5rnl40" r="15.500000" transform="matrix(1 0 0 1 262.50000000000000 245.50000000000000)" clip-rule="evenodd" fill="rgb(255,255,255)" fill-rule="evenodd" stroke="none" stroke-width="1" stroke-linecap="round" stroke-linejoin="round" stroke-miterlimit="1.500000"/></g><g id="e790r69m5rnl41" transform="matrix(1.43979000000000 0 0 1.43979000000000 -94.44499999999999 -24.96860000000000)" clip-rule="evenodd"><path id="e790r69m5rnl42" d="M262.500000,229.843000L262.500000,150" clip-rule="evenodd" fill="none" fill-rule="evenodd" stroke="rgb(255,255,255)" stroke-width="1.500000" stroke-linejoin="round" stroke-miterlimit="1.500000"/></g><g id="e790r69m5rnl43" transform="matrix(1.16482000000000 -0.84628800000000 0.84628800000000 1.16482000000000 -230.02799999999999 264.68799999999999)" clip-rule="evenodd"><path id="e790r69m5rnl44" d="M262.500000,229.843000L262.500000,150" clip-rule="evenodd" fill="none" fill-rule="evenodd" stroke="rgb(255,255,255)" stroke-width="1.500000" stroke-linejoin="round" stroke-miterlimit="1.500000"/></g><g id="e790r69m5rnl45" transform="matrix(0.44492000000000 -1.36932000000000 1.36932000000000 0.44492000000000 -169.46000000000001 578.71900000000005)" clip-rule="evenodd"><path id="e790r69m5rnl46" d="M262.500000,229.843000L262.500000,150" clip-rule="evenodd" fill="none" fill-rule="evenodd" stroke="rgb(255,255,255)" stroke-width="1.500000" stroke-linejoin="round" stroke-miterlimit="1.500000"/></g><g id="e790r69m5rnl47" transform="matrix(-0.44492000000000 -1.36932000000000 1.36932000000000 -0.44492000000000 64.12280000000000 797.17499999999995)" clip-rule="evenodd"><path id="e790r69m5rnl48" d="M262.500000,229.843000L262.500000,150" clip-rule="evenodd" fill="none" fill-rule="evenodd" stroke="rgb(255,255,255)" stroke-width="1.500000" stroke-linejoin="round" stroke-miterlimit="1.500000"/></g><g id="e790r69m5rnl49" transform="matrix(-1.16482000000000 -0.84628800000000 0.84628800000000 -1.16482000000000 381.50000000000000 836.61300000000006)" clip-rule="evenodd"><path id="e790r69m5rnl50" d="M262.500000,229.843000L262.500000,150" clip-rule="evenodd" fill="none" fill-rule="evenodd" stroke="rgb(255,255,255)" stroke-width="1.500000" stroke-linejoin="round" stroke-miterlimit="1.500000"/></g><g id="e790r69m5rnl51" transform="matrix(-1.43979000000000 0 -0 -1.43979000000000 661.44500000000005 681.96900000000005)" clip-rule="evenodd"><path id="e790r69m5rnl52" d="M262.500000,229.843000L262.500000,150" clip-rule="evenodd" fill="none" fill-rule="evenodd" stroke="rgb(255,255,255)" stroke-width="1.500000" stroke-linejoin="round" stroke-miterlimit="1.500000"/></g><g id="e790r69m5rnl53" transform="matrix(-1.16482000000000 0.84628800000000 -0.84628800000000 -1.16482000000000 797.02800000000002 392.31200000000001)" clip-rule="evenodd"><path id="e790r69m5rnl54" d="M262.500000,229.843000L262.500000,150" clip-rule="evenodd" fill="none" fill-rule="evenodd" stroke="rgb(255,255,255)" stroke-width="1.500000" stroke-linejoin="round" stroke-miterlimit="1.500000"/></g><g id="e790r69m5rnl55" transform="matrix(-0.44492000000000 1.36932000000000 -1.36932000000000 -0.44492000000000 736.46000000000004 78.28070000000000)" clip-rule="evenodd"><path id="e790r69m5rnl56" d="M262.500000,229.843000L262.500000,150" clip-rule="evenodd" fill="none" fill-rule="evenodd" stroke="rgb(255,255,255)" stroke-width="1.500000" stroke-linejoin="round" stroke-miterlimit="1.500000"/></g><g id="e790r69m5rnl57" transform="matrix(0.44492000000000 1.36932000000000 -1.36932000000000 0.44492000000000 502.87700000000001 -140.17500000000001)" clip-rule="evenodd"><path id="e790r69m5rnl58" d="M262.500000,229.843000L262.500000,150" clip-rule="evenodd" fill="none" fill-rule="evenodd" stroke="rgb(255,255,255)" stroke-width="1.500000" stroke-linejoin="round" stroke-miterlimit="1.500000"/></g><g id="e790r69m5rnl59" transform="matrix(1.16482000000000 0.84628800000000 -0.84628800000000 1.16482000000000 185.50000000000000 -179.61300000000000)" clip-rule="evenodd"><path id="e790r69m5rnl60" d="M262.500000,229.843000L262.500000,150" clip-rule="evenodd" fill="none" fill-rule="evenodd" stroke="rgb(255,255,255)" stroke-width="1.500000" stroke-linejoin="round" stroke-miterlimit="1.500000"/></g></g><circle id="e790r69m5rnl61" r="137.500000" transform="matrix(1 0 0 1 283.50000000000000 328.50000000000000)" clip-rule="evenodd" fill="none" fill-rule="evenodd" stroke="rgb(255,255,255)" stroke-width="5.760000" stroke-linecap="round" stroke-linejoin="round" stroke-miterlimit="1.500000"/></g></g><g id="e790r69m5rnl62" transform="matrix(1 0 0 0.90353700000000 0 38.68170000000000)" clip-rule="evenodd"><path id="e790r69m5rnl63" d="M262.500000,245.500000L181,401L206,401L262.500000,245.500000Z" clip-rule="evenodd" fill="rgb(255,255,255)" fill-rule="evenodd" stroke="none" stroke-width="1" stroke-linecap="round" stroke-linejoin="round" stroke-miterlimit="1.500000"/></g><g id="e790r69m5rnl64" transform="matrix(-1 0 0 0.90353700000000 525 38.68170000000000)" clip-rule="evenodd"><path id="e790r69m5rnl65" d="M262.500000,245.500000L181,401L206,401L262.500000,245.500000Z" clip-rule="evenodd" fill="rgb(255,255,255)" fill-rule="evenodd" stroke="none" stroke-width="1" stroke-linecap="round" stroke-linejoin="round" stroke-miterlimit="1.500000"/></g><g id="e790r69m5rnl66_tr" transform="translate(262.499821,254.999800) rotate(0)"><g id="e790r69m5rnl66" transform="translate(-262.499516,-256.557160)" clip-rule="evenodd"><g id="e790r69m5rnl67_tr" transform="translate(262.499516,163.780469) rotate(0)"><g id="e790r69m5rnl67" transform="scale(0.248826,0.248826) translate(-450.324657,-276)" clip-rule="evenodd"><path id="e790r69m5rnl68" d="M489,249.250000C489,238.626000,480.374000,230,469.750000,230L431.250000,230C420.626000,230,412,238.626000,412,249.250000L412,302.750000C412,313.374000,420.626000,322,431.250000,322L469.750000,322C480.374000,322,489,313.374000,489,302.750000L489,249.250000Z" clip-rule="evenodd" fill="none" fill-rule="evenodd" stroke="none" stroke-width="1" stroke-linejoin="round" stroke-miterlimit="1.500000"/><g id="e790r69m5rnl69" clip-path="url(#e790r69m5rnl14)" clip-rule="evenodd"><g id="e790r69m5rnl70" transform="matrix(0.84615400000000 0 0 0.71153800000000 69.30770000000000 82.21150000000000)" clip-rule="evenodd"><rect id="e790r69m5rnl71" width="91" height="52" rx="0" ry="0" transform="matrix(1 0 0 1 405 285)" clip-rule="evenodd" fill="rgb(255,255,255)" fill-rule="evenodd" stroke="none" stroke-width="1" stroke-linejoin="round" stroke-miterlimit="1.500000"/></g><g id="e790r69m5rnl72" transform="matrix(1 0 0 1 0.50000000000000 0)" clip-rule="evenodd"><path id="e790r69m5rnl73" d="M482,230.750000C482,228.680000,480.320000,227,478.250000,227L421.750000,227C419.680000,227,418,228.680000,418,230.750000L418,238.250000C418,240.320000,419.680000,242,421.750000,242L478.250000,242C480.320000,242,482,240.320000,482,238.250000L482,230.750000Z" clip-rule="evenodd" fill="rgb(255,255,255)" fill-rule="evenodd" stroke="none" stroke-width="1" stroke-linejoin="round" stroke-miterlimit="1.500000"/></g></g><path id="e790r69m5rnl74" d="M489,249.250000C489,238.626000,480.374000,230,469.750000,230L431.250000,230C420.626000,230,412,238.626000,412,249.250000L412,302.750000C412,313.374000,420.626000,322,431.250000,322L469.750000,322C480.374000,322,489,313.374000,489,302.750000L489,249.250000Z" clip-rule="evenodd" fill="none" fill-rule="evenodd" stroke="rgb(255,255,255)" stroke-width="8.040000" stroke-linejoin="round" stroke-miterlimit="1.500000"/></g></g><g id="e790r69m5rnl75_tr" transform="translate(207.363720,181.690823) rotate(0)"><g id="e790r69m5rnl75" transform="scale(0.248826,0.248826) translate(-449.065693,-276.570067)" clip-rule="evenodd"><path id="e790r69m5rnl76" d="M489,249.250000C489,238.626000,480.374000,230,469.750000,230L431.250000,230C420.626000,230,412,238.626000,412,249.250000L412,302.750000C412,313.374000,420.626000,322,431.250000,322L469.750000,322C480.374000,322,489,313.374000,489,302.750000L489,249.250000Z" clip-rule="evenodd" fill="none" fill-rule="evenodd" stroke="none" stroke-width="1" stroke-linejoin="round" stroke-miterlimit="1.500000"/><g id="e790r69m5rnl77" clip-path="url(#e790r69m5rnl16)" clip-rule="evenodd"><g id="e790r69m5rnl78" transform="matrix(0.84615400000000 0 0 0.71153800000000 69.30770000000000 82.21150000000000)" clip-rule="evenodd"><rect id="e790r69m5rnl79" width="91" height="52" rx="0" ry="0" transform="matrix(1 0 0 1 405 285)" clip-rule="evenodd" fill="rgb(255,255,255)" fill-rule="evenodd" stroke="none" stroke-width="1" stroke-linejoin="round" stroke-miterlimit="1.500000"/></g><g id="e790r69m5rnl80" transform="matrix(1 0 0 1 0.50000000000000 0)" clip-rule="evenodd"><path id="e790r69m5rnl81" d="M482,230.750000C482,228.680000,480.320000,227,478.250000,227L421.750000,227C419.680000,227,418,228.680000,418,230.750000L418,238.250000C418,240.320000,419.680000,242,421.750000,242L478.250000,242C480.320000,242,482,240.320000,482,238.250000L482,230.750000Z" clip-rule="evenodd" fill="rgb(255,255,255)" fill-rule="evenodd" stroke="none" stroke-width="1" stroke-linejoin="round" stroke-miterlimit="1.500000"/></g></g><path id="e790r69m5rnl82" d="M489,249.250000C489,238.626000,480.374000,230,469.750000,230L431.250000,230C420.626000,230,412,238.626000,412,249.250000L412,302.750000C412,313.374000,420.626000,322,431.250000,322L469.750000,322C480.374000,322,489,313.374000,489,302.750000L489,249.250000Z" clip-rule="evenodd" fill="none" fill-rule="evenodd" stroke="rgb(255,255,255)" stroke-width="8.040000" stroke-linejoin="round" stroke-miterlimit="1.500000"/></g></g><g id="e790r69m5rnl83_tr" transform="translate(173.865232,228.146976) rotate(0)"><g id="e790r69m5rnl83" transform="scale(0.248826,0.248826) translate(-450.500077,-276)" clip-rule="evenodd"><path id="e790r69m5rnl84" d="M489,249.250000C489,238.626000,480.374000,230,469.750000,230L431.250000,230C420.626000,230,412,238.626000,412,249.250000L412,302.750000C412,313.374000,420.626000,322,431.250000,322L469.750000,322C480.374000,322,489,313.374000,489,302.750000L489,249.250000Z" clip-rule="evenodd" fill="none" fill-rule="evenodd" stroke="none" stroke-width="1" stroke-linejoin="round" stroke-miterlimit="1.500000"/><g id="e790r69m5rnl85" clip-path="url(#e790r69m5rnl18)" clip-rule="evenodd"><g id="e790r69m5rnl86" transform="matrix(0.84615400000000 0 0 0.71153800000000 69.30770000000000 82.21150000000000)" clip-rule="evenodd"><rect id="e790r69m5rnl87" width="91" height="52" rx="0" ry="0" transform="matrix(1 0 0 1 405 285)" clip-rule="evenodd" fill="rgb(255,255,255)" fill-rule="evenodd" stroke="none" stroke-width="1" stroke-linejoin="round" stroke-miterlimit="1.500000"/></g><g id="e790r69m5rnl88" transform="matrix(1 0 0 1 0.50000000000000 0)" clip-rule="evenodd"><path id="e790r69m5rnl89" d="M482,230.750000C482,228.680000,480.320000,227,478.250000,227L421.750000,227C419.680000,227,418,228.680000,418,230.750000L418,238.250000C418,240.320000,419.680000,242,421.750000,242L478.250000,242C480.320000,242,482,240.320000,482,238.250000L482,230.750000Z" clip-rule="evenodd" fill="rgb(255,255,255)" fill-rule="evenodd" stroke="none" stroke-width="1" stroke-linejoin="round" stroke-miterlimit="1.500000"/></g></g><path id="e790r69m5rnl90" d="M489,249.250000C489,238.626000,480.374000,230,469.750000,230L431.250000,230C420.626000,230,412,238.626000,412,249.250000L412,302.750000C412,313.374000,420.626000,322,431.250000,322L469.750000,322C480.374000,322,489,313.374000,489,302.750000L489,249.250000Z" clip-rule="evenodd" fill="none" fill-rule="evenodd" stroke="rgb(255,255,255)" stroke-width="8.040000" stroke-linejoin="round" stroke-miterlimit="1.500000"/></g></g><g id="e790r69m5rnl91_tr" transform="translate(173.865213,285.744976) rotate(0)"><g id="e790r69m5rnl91" transform="scale(0.248826,0.248826) translate(-450.500000,-276)" clip-rule="evenodd"><path id="e790r69m5rnl92" d="M489,249.250000C489,238.626000,480.374000,230,469.750000,230L431.250000,230C420.626000,230,412,238.626000,412,249.250000L412,302.750000C412,313.374000,420.626000,322,431.250000,322L469.750000,322C480.374000,322,489,313.374000,489,302.750000L489,249.250000Z" clip-rule="evenodd" fill="none" fill-rule="evenodd" stroke="none" stroke-width="1" stroke-linejoin="round" stroke-miterlimit="1.500000"/><g id="e790r69m5rnl93" clip-path="url(#e790r69m5rnl20)" clip-rule="evenodd"><g id="e790r69m5rnl94" transform="matrix(0.84615400000000 0 0 0.71153800000000 69.30770000000000 82.21150000000000)" clip-rule="evenodd"><rect id="e790r69m5rnl95" width="91" height="52" rx="0" ry="0" transform="matrix(1 0 0 1 405 285)" clip-rule="evenodd" fill="rgb(255,255,255)" fill-rule="evenodd" stroke="none" stroke-width="1" stroke-linejoin="round" stroke-miterlimit="1.500000"/></g><g id="e790r69m5rnl96" transform="matrix(1 0 0 1 0.50000000000000 0)" clip-rule="evenodd"><path id="e790r69m5rnl97" d="M482,230.750000C482,228.680000,480.320000,227,478.250000,227L421.750000,227C419.680000,227,418,228.680000,418,230.750000L418,238.250000C418,240.320000,419.680000,242,421.750000,242L478.250000,242C480.320000,242,482,240.320000,482,238.250000L482,230.750000Z" clip-rule="evenodd" fill="rgb(255,255,255)" fill-rule="evenodd" stroke="none" stroke-width="1" stroke-linejoin="round" stroke-miterlimit="1.500000"/></g></g><path id="e790r69m5rnl98" d="M489,249.250000C489,238.626000,480.374000,230,469.750000,230L431.250000,230C420.626000,230,412,238.626000,412,249.250000L412,302.750000C412,313.374000,420.626000,322,431.250000,322L469.750000,322C480.374000,322,489,313.374000,489,302.750000L489,249.250000Z" clip-rule="evenodd" fill="none" fill-rule="evenodd" stroke="rgb(255,255,255)" stroke-width="8.040000" stroke-linejoin="round" stroke-miterlimit="1.500000"/></g></g><g id="e790r69m5rnl99_tr" transform="translate(207.720613,332.307395) rotate(0)"><g id="e790r69m5rnl99" transform="scale(0.248826,0.248826) translate(-450.500000,-275.857006)" clip-rule="evenodd"><path id="e790r69m5rnl100" d="M489,249.250000C489,238.626000,480.374000,230,469.750000,230L431.250000,230C420.626000,230,412,238.626000,412,249.250000L412,302.750000C412,313.374000,420.626000,322,431.250000,322L469.750000,322C480.374000,322,489,313.374000,489,302.750000L489,249.250000Z" clip-rule="evenodd" fill="none" fill-rule="evenodd" stroke="none" stroke-width="1" stroke-linejoin="round" stroke-miterlimit="1.500000"/><g id="e790r69m5rnl101" clip-path="url(#e790r69m5rnl22)" clip-rule="evenodd"><g id="e790r69m5rnl102" transform="matrix(0.84615400000000 0 0 0.71153800000000 69.30770000000000 82.21150000000000)" clip-rule="evenodd"><rect id="e790r69m5rnl103" width="91" height="52" rx="0" ry="0" transform="matrix(1 0 0 1 405 285)" clip-rule="evenodd" fill="rgb(255,255,255)" fill-rule="evenodd" stroke="none" stroke-width="1" stroke-linejoin="round" stroke-miterlimit="1.500000"/></g><g id="e790r69m5rnl104" transform="matrix(1 0 0 1 0.50000000000000 0)" clip-rule="evenodd"><path id="e790r69m5rnl105" d="M482,230.750000C482,228.680000,480.320000,227,478.250000,227L421.750000,227C419.680000,227,418,228.680000,418,230.750000L418,238.250000C418,240.320000,419.680000,242,421.750000,242L478.250000,242C480.320000,242,482,240.320000,482,238.250000L482,230.750000Z" clip-rule="evenodd" fill="rgb(255,255,255)" fill-rule="evenodd" stroke="none" stroke-width="1" stroke-linejoin="round" stroke-miterlimit="1.500000"/></g></g><path id="e790r69m5rnl106" d="M489,249.250000C489,238.626000,480.374000,230,469.750000,230L431.250000,230C420.626000,230,412,238.626000,412,249.250000L412,302.750000C412,313.374000,420.626000,322,431.250000,322L469.750000,322C480.374000,322,489,313.374000,489,302.750000L489,249.250000Z" clip-rule="evenodd" fill="none" fill-rule="evenodd" stroke="rgb(255,255,255)" stroke-width="8.040000" stroke-linejoin="round" stroke-miterlimit="1.500000"/></g></g><g id="e790r69m5rnl107_tr" transform="translate(262.543165,350.141976) rotate(0)"><g id="e790r69m5rnl107" transform="scale(0.248826,0.248826) translate(-450.673020,-276)" clip-rule="evenodd"><path id="e790r69m5rnl108" d="M489,249.250000C489,238.626000,480.374000,230,469.750000,230L431.250000,230C420.626000,230,412,238.626000,412,249.250000L412,302.750000C412,313.374000,420.626000,322,431.250000,322L469.750000,322C480.374000,322,489,313.374000,489,302.750000L489,249.250000Z" clip-rule="evenodd" fill="none" fill-rule="evenodd" stroke="none" stroke-width="1" stroke-linejoin="round" stroke-miterlimit="1.500000"/><g id="e790r69m5rnl109" clip-path="url(#e790r69m5rnl24)" clip-rule="evenodd"><g id="e790r69m5rnl110" transform="matrix(0.84615400000000 0 0 0.71153800000000 69.30770000000000 82.21150000000000)" clip-rule="evenodd"><rect id="e790r69m5rnl111" width="91" height="52" rx="0" ry="0" transform="matrix(1 0 0 1 405 285)" clip-rule="evenodd" fill="rgb(255,255,255)" fill-rule="evenodd" stroke="none" stroke-width="1" stroke-linejoin="round" stroke-miterlimit="1.500000"/></g><g id="e790r69m5rnl112" transform="matrix(1 0 0 1 0.50000000000000 0)" clip-rule="evenodd"><path id="e790r69m5rnl113" d="M482,230.750000C482,228.680000,480.320000,227,478.250000,227L421.750000,227C419.680000,227,418,228.680000,418,230.750000L418,238.250000C418,240.320000,419.680000,242,421.750000,242L478.250000,242C480.320000,242,482,240.320000,482,238.250000L482,230.750000Z" clip-rule="evenodd" fill="rgb(255,255,255)" fill-rule="evenodd" stroke="none" stroke-width="1" stroke-linejoin="round" stroke-miterlimit="1.500000"/></g></g><path id="e790r69m5rnl114" d="M489,249.250000C489,238.626000,480.374000,230,469.750000,230L431.250000,230C420.626000,230,412,238.626000,412,249.250000L412,302.750000C412,313.374000,420.626000,322,431.250000,322L469.750000,322C480.374000,322,489,313.374000,489,302.750000L489,249.250000Z" clip-rule="evenodd" fill="none" fill-rule="evenodd" stroke="rgb(255,255,255)" stroke-width="8.040000" stroke-linejoin="round" stroke-miterlimit="1.500000"/></g></g><g id="e790r69m5rnl115_tr" transform="translate(317.223117,332.307395) rotate(0)"><g id="e790r69m5rnl115" transform="scale(0.248826,0.248826) translate(-450.274959,-275.857006)" clip-rule="evenodd"><path id="e790r69m5rnl116" d="M489,249.250000C489,238.626000,480.374000,230,469.750000,230L431.250000,230C420.626000,230,412,238.626000,412,249.250000L412,302.750000C412,313.374000,420.626000,322,431.250000,322L469.750000,322C480.374000,322,489,313.374000,489,302.750000L489,249.250000Z" clip-rule="evenodd" fill="none" fill-rule="evenodd" stroke="none" stroke-width="1" stroke-linejoin="round" stroke-miterlimit="1.500000"/><g id="e790r69m5rnl117" clip-path="url(#e790r69m5rnl26)" clip-rule="evenodd"><g id="e790r69m5rnl118" transform="matrix(0.84615400000000 0 0 0.71153800000000 69.30770000000000 82.21150000000000)" clip-rule="evenodd"><rect id="e790r69m5rnl119" width="91" height="52" rx="0" ry="0" transform="matrix(1 0 0 1 405 285)" clip-rule="evenodd" fill="rgb(255,255,255)" fill-rule="evenodd" stroke="none" stroke-width="1" stroke-linejoin="round" stroke-miterlimit="1.500000"/></g><g id="e790r69m5rnl120" transform="matrix(1 0 0 1 0.50000000000000 0)" clip-rule="evenodd"><path id="e790r69m5rnl121" d="M482,230.750000C482,228.680000,480.320000,227,478.250000,227L421.750000,227C419.680000,227,418,228.680000,418,230.750000L418,238.250000C418,240.320000,419.680000,242,421.750000,242L478.250000,242C480.320000,242,482,240.320000,482,238.250000L482,230.750000Z" clip-rule="evenodd" fill="rgb(255,255,255)" fill-rule="evenodd" stroke="none" stroke-width="1" stroke-linejoin="round" stroke-miterlimit="1.500000"/></g></g><path id="e790r69m5rnl122" d="M489,249.250000C489,238.626000,480.374000,230,469.750000,230L431.250000,230C420.626000,230,412,238.626000,412,249.250000L412,302.750000C412,313.374000,420.626000,322,431.250000,322L469.750000,322C480.374000,322,489,313.374000,489,302.750000L489,249.250000Z" clip-rule="evenodd" fill="none" fill-rule="evenodd" stroke="rgb(255,255,255)" stroke-width="8.040000" stroke-linejoin="round" stroke-miterlimit="1.500000"/></g></g><g id="e790r69m5rnl123_tr" transform="translate(351.134113,285.744976) rotate(0)"><g id="e790r69m5rnl123" transform="scale(0.248826,0.248826) translate(-450.500000,-276)" clip-rule="evenodd"><path id="e790r69m5rnl124" d="M489,249.250000C489,238.626000,480.374000,230,469.750000,230L431.250000,230C420.626000,230,412,238.626000,412,249.250000L412,302.750000C412,313.374000,420.626000,322,431.250000,322L469.750000,322C480.374000,322,489,313.374000,489,302.750000L489,249.250000Z" clip-rule="evenodd" fill="none" fill-rule="evenodd" stroke="none" stroke-width="1" stroke-linejoin="round" stroke-miterlimit="1.500000"/><g id="e790r69m5rnl125" clip-path="url(#e790r69m5rnl28)" clip-rule="evenodd"><g id="e790r69m5rnl126" transform="matrix(0.84615400000000 0 0 0.71153800000000 69.30770000000000 82.21150000000000)" clip-rule="evenodd"><rect id="e790r69m5rnl127" width="91" height="52" rx="0" ry="0" transform="matrix(1 0 0 1 405 285)" clip-rule="evenodd" fill="rgb(255,255,255)" fill-rule="evenodd" stroke="none" stroke-width="1" stroke-linejoin="round" stroke-miterlimit="1.500000"/></g><g id="e790r69m5rnl128" transform="matrix(1 0 0 1 0.50000000000000 0)" clip-rule="evenodd"><path id="e790r69m5rnl129" d="M482,230.750000C482,228.680000,480.320000,227,478.250000,227L421.750000,227C419.680000,227,418,228.680000,418,230.750000L418,238.250000C418,240.320000,419.680000,242,421.750000,242L478.250000,242C480.320000,242,482,240.320000,482,238.250000L482,230.750000Z" clip-rule="evenodd" fill="rgb(255,255,255)" fill-rule="evenodd" stroke="none" stroke-width="1" stroke-linejoin="round" stroke-miterlimit="1.500000"/></g></g><path id="e790r69m5rnl130" d="M489,249.250000C489,238.626000,480.374000,230,469.750000,230L431.250000,230C420.626000,230,412,238.626000,412,249.250000L412,302.750000C412,313.374000,420.626000,322,431.250000,322L469.750000,322C480.374000,322,489,313.374000,489,302.750000L489,249.250000Z" clip-rule="evenodd" fill="none" fill-rule="evenodd" stroke="rgb(255,255,255)" stroke-width="8.040000" stroke-linejoin="round" stroke-miterlimit="1.500000"/></g></g><g id="e790r69m5rnl131_tr" transform="translate(351.134132,228.146976) rotate(0)"><g id="e790r69m5rnl131" transform="scale(0.248826,0.248826) translate(-450.500077,-276)" clip-rule="evenodd"><path id="e790r69m5rnl132" d="M489,249.250000C489,238.626000,480.374000,230,469.750000,230L431.250000,230C420.626000,230,412,238.626000,412,249.250000L412,302.750000C412,313.374000,420.626000,322,431.250000,322L469.750000,322C480.374000,322,489,313.374000,489,302.750000L489,249.250000Z" clip-rule="evenodd" fill="none" fill-rule="evenodd" stroke="none" stroke-width="1" stroke-linejoin="round" stroke-miterlimit="1.500000"/><g id="e790r69m5rnl133" clip-path="url(#e790r69m5rnl30)" clip-rule="evenodd"><g id="e790r69m5rnl134" transform="matrix(0.84615400000000 0 0 0.71153800000000 69.30770000000000 82.21150000000000)" clip-rule="evenodd"><rect id="e790r69m5rnl135" width="91" height="52" rx="0" ry="0" transform="matrix(1 0 0 1 405 285)" clip-rule="evenodd" fill="rgb(255,255,255)" fill-rule="evenodd" stroke="none" stroke-width="1" stroke-linejoin="round" stroke-miterlimit="1.500000"/></g><g id="e790r69m5rnl136" transform="matrix(1 0 0 1 0.50000000000000 0)" clip-rule="evenodd"><path id="e790r69m5rnl137" d="M482,230.750000C482,228.680000,480.320000,227,478.250000,227L421.750000,227C419.680000,227,418,228.680000,418,230.750000L418,238.250000C418,240.320000,419.680000,242,421.750000,242L478.250000,242C480.320000,242,482,240.320000,482,238.250000L482,230.750000Z" clip-rule="evenodd" fill="rgb(255,255,255)" fill-rule="evenodd" stroke="none" stroke-width="1" stroke-linejoin="round" stroke-miterlimit="1.500000"/></g></g><path id="e790r69m5rnl138" d="M489,249.250000C489,238.626000,480.374000,230,469.750000,230L431.250000,230C420.626000,230,412,238.626000,412,249.250000L412,302.750000C412,313.374000,420.626000,322,431.250000,322L469.750000,322C480.374000,322,489,313.374000,489,302.750000L489,249.250000Z" clip-rule="evenodd" fill="none" fill-rule="evenodd" stroke="rgb(255,255,255)" stroke-width="8.040000" stroke-linejoin="round" stroke-miterlimit="1.500000"/></g></g><g id="e790r69m5rnl139_tr" transform="translate(317.223136,181.471898) rotate(0)"><g id="e790r69m5rnl139" transform="scale(0.248826,0.248826) translate(-450.500077,-275.617162)" clip-rule="evenodd"><path id="e790r69m5rnl140" d="M489,249.250000C489,238.626000,480.374000,230,469.750000,230L431.250000,230C420.626000,230,412,238.626000,412,249.250000L412,302.750000C412,313.374000,420.626000,322,431.250000,322L469.750000,322C480.374000,322,489,313.374000,489,302.750000L489,249.250000Z" clip-rule="evenodd" fill="none" fill-rule="evenodd" stroke="none" stroke-width="1" stroke-linejoin="round" stroke-miterlimit="1.500000"/><g id="e790r69m5rnl141" clip-path="url(#e790r69m5rnl32)" clip-rule="evenodd"><g id="e790r69m5rnl142" transform="matrix(0.84615400000000 0 0 0.71153800000000 69.30770000000000 82.21150000000000)" clip-rule="evenodd"><rect id="e790r69m5rnl143" width="91" height="52" rx="0" ry="0" transform="matrix(1 0 0 1 405 285)" clip-rule="evenodd" fill="rgb(255,255,255)" fill-rule="evenodd" stroke="none" stroke-width="1" stroke-linejoin="round" stroke-miterlimit="1.500000"/></g><g id="e790r69m5rnl144" transform="matrix(1 0 0 1 0.50000000000000 0)" clip-rule="evenodd"><path id="e790r69m5rnl145" d="M482,230.750000C482,228.680000,480.320000,227,478.250000,227L421.750000,227C419.680000,227,418,228.680000,418,230.750000L418,238.250000C418,240.320000,419.680000,242,421.750000,242L478.250000,242C480.320000,242,482,240.320000,482,238.250000L482,230.750000Z" clip-rule="evenodd" fill="rgb(255,255,255)" fill-rule="evenodd" stroke="none" stroke-width="1" stroke-linejoin="round" stroke-miterlimit="1.500000"/></g></g><path id="e790r69m5rnl146" d="M489,249.250000C489,238.626000,480.374000,230,469.750000,230L431.250000,230C420.626000,230,412,238.626000,412,249.250000L412,302.750000C412,313.374000,420.626000,322,431.250000,322L469.750000,322C480.374000,322,489,313.374000,489,302.750000L489,249.250000Z" clip-rule="evenodd" fill="none" fill-rule="evenodd" stroke="rgb(255,255,255)" stroke-width="8.040000" stroke-linejoin="round" stroke-miterlimit="1.500000"/></g></g></g></g><polygon id="e790r69m5rnl147" points="50,22.570000 59.890000,42.600000 82,45.820000 66,61.410000 69.780000,83.430000 50,73.040000 30.220000,83.430000 34,61.410000 18,45.820000 40.110000,42.600000 50,22.570000" transform="matrix(0.16178515841105 0 0 0.16178515841105 254.41056275944766 236.92598890466911)" fill="rgb(0,0,0)" stroke="none" stroke-width="1"/><rect id="e790r69m5rnl148" width="46" height="46" rx="0" ry="0" transform="matrix(3.57280998427081 0 0 0.08339716795088 180.32519104007241 382.71073188212966)" opacity="0" fill="rgb(0,0,0)" stroke="none" stroke-width="1"/><rect id="e790r69m5rnl149" width="46" height="46" rx="0" ry="0" transform="matrix(3.57280998427081 0 0 0.08339716795088 180.32519104007241 368.30453688212970)" opacity="0" fill="rgb(0,0,0)" stroke="none" stroke-width="1"/></svg>