<svg xmlns="http://www.w3.org/2000/svg" viewBox="0 0 368.16 204.74"><defs><style>.cls-1{fill:none;}.cls-2,.cls-3{fill:#fff;}.cls-2{stroke:#fff;stroke-miterlimit:10;}</style></defs><g id="Layer_2" data-name="Layer 2"><g id="Layer_1-2" data-name="Layer 1"><rect class="cls-1" width="368.16" height="204.74"/><path class="cls-2" d="M44,39.3a7.28,7.28,0,0,1-2.15-5.15,8,8,0,0,1,15.86-.79Zm88.25-11.14c0-2.5-1.62-4.54-3.62-4.54H92.43a3.16,3.16,0,0,1-.68-.08c-.79-.19-3-.7-6.07-1.39l1.38,5.73-8.79,3.34,4.18-4.6L80.51,21c-12.67-2.64-33.17-6.35-48.27-6.35a16.55,16.55,0,0,0-4.89.71l-1.81,4.1-2.12-2.23a16.49,16.49,0,0,0-4.85,5.18l.28,5.43H16.21c-.2.68-.37,1.37-.52,2.07C14.6,35.21,14.9,40.64,15.21,46a8.23,8.23,0,0,0,1.08,4.39,8.34,8.34,0,0,0,3.07,2.29L40.73,63.91c10.79,5.67,25.39,3.31,37.35,3.31h50.56c2,0,3.62-2,3.62-4.55,0-2.22-1.29-4.12-3-4.48a92.28,92.28,0,0,0-10.1-1.39L118.87,53l-5.43,3.35h0c-2.86-.2-5.71-.4-8.49-.7l8,.65-7.84-.8-1.67-4.19L96.87,55l-.43.23c-2.14-.07-4.3-.18-6.36-.41h0l-.12-.38-1.21-4L86,54.12a17.05,17.05,0,0,1-1.67-.49c-3.77-1.32-5.58-6.68-2-9.44a6.29,6.29,0,0,1,3.59-.93L91.38,43l-.14,3.26h2.84l3-2.69v-.78l.91,0,6.4-.22v0l-.19,3.54,4.17-2.38V42.42l.47,0,5.26-.23L116.68,46l2.55-4.09c3.23-.17,6.45-.4,9.66-.67,1.9-.17,3.37-2.14,3.37-4.53V35h-2.93l-1.67-4.6,4.6-1Z"/><line class="cls-2" x1="108.4" y1="43.77" x2="104.23" y2="46.15"/><polygon class="cls-3" points="151.31 173.43 151.13 175.1 150.93 176.94 149.29 175.41 148.34 174.53 151.31 173.43"/><polygon class="cls-3" points="157.11 172.62 156.25 174.5 155.24 176.69 154.07 174.72 153.43 173.65 157.11 172.62"/><path class="cls-3" d="M165.22,173.85l-2.15,3-1.43-2.76Z"/><path class="cls-3" d="M173.53,173.52l-1.21,3.58-1.52-3.49H171l1,0Z"/><path class="cls-3" d="M180.84,173.39l-1.31,3.05-1.79-3h3.1Z"/><path class="cls-3" d="M151.13,175.11l-.2,1.84-1.64-1.53C149.87,175.31,150.48,175.2,151.13,175.11Z"/><path class="cls-3" d="M156.24,174.5l-1,2.2-1.18-2C154.77,174.64,155.5,174.57,156.24,174.5Z"/><path class="cls-3" d="M165.22,173.85l-2.15,3-1.43-2.76Z"/><path class="cls-3" d="M173.53,173.52l-1.21,3.58-1.52-3.49H171l1,0Z"/><path class="cls-3" d="M180.84,173.39l-1.31,3.05-1.79-3h3.1Z"/><polygon class="cls-3" points="151.31 173.43 151.13 175.1 150.93 176.94 149.29 175.41 148.34 174.53 151.31 173.43"/><polygon class="cls-3" points="157.11 172.62 156.25 174.5 155.24 176.69 154.07 174.72 153.43 173.65 157.11 172.62"/><polygon class="cls-3" points="166.43 172.19 165.22 173.85 163.08 176.81 161.64 174.06 160.71 172.28 166.43 172.19"/><polygon class="cls-3" points="174.42 170.9 173.53 173.53 172.33 177.09 170.8 173.6 170.03 171.85 174.42 170.9"/><polygon class="cls-3" points="180.88 173.31 180.84 173.38 179.53 176.44 177.74 173.43 177.72 173.4 180.88 173.31"/><path class="cls-3" d="M170,171.86l.77,1.75H171l1,0,1.55,0,.89-2.63Zm7.69,1.54,0,0h.52l.93,0h1.65l0-.08Zm-17-1.11.93,1.78,3.58-.21,1.21-1.67Z"/><path class="cls-3" d="M182.86,191.35,181.61,189l3-3.88c.27-.34-.38-2.47-.47-2.92a20,20,0,0,0-.73-2.94,94.36,94.36,0,0,1-18.94.31c-3.45-.21-6.89-.48-10.33-.79s-7-.61-10.42-1.11c.51-.7,4.64-3,5.53-2.21l-.95-.89,3-1.1-.18,1.68c.93-.13,1.91-.27,2.94-.38l-.64-1.08,3.68-1-.86,1.88c1.74-.17,3.56-.31,5.39-.43l-.93-1.78,5.72-.1-1.21,1.67c1.93-.1,3.81-.18,5.58-.25l-.77-1.75,4.39-1-.89,2.63h.29l1.29,0,2.63-.06,0,0,3.16-.09,0,.08h.53a24.35,24.35,0,0,0-9.4-10.64l-2,1-3-3.27a30.82,30.82,0,0,0-6.69-1.43l-14-22.2s-6.58-9.94-22.46-12.45l-5.68,1-4.08-1.56a60.77,60.77,0,0,0-6.78.68,12.85,12.85,0,0,0-10.67,14.65l2.65,2.15-1.34,2.44,1.51,4.72a12.84,12.84,0,0,0,10.83,8.85,23.65,23.65,0,0,0,4.4,5.41,119.66,119.66,0,0,0,.6,13.93c1.08,9.92,3.92,20,11,20.8,10.5,1.12,37.74.87,51,.67a7.91,7.91,0,0,0,7.7-6.61ZM136.75,151.4a8.1,8.1,0,0,1-.79-4.59c.4-3.71,2.93-6.47,5.66-6.18s4.61,3.53,4.22,7.23a9,9,0,0,1-.55,2.26,10.26,10.26,0,0,0-2-.44A8.91,8.91,0,0,0,136.75,151.4Z"/><path class="cls-3" d="M235.24,116.73h5.3a3.63,3.63,0,0,0,3.53-2.81l5.53-24.28a3.62,3.62,0,0,1,1-1.75l4.27-4.27a3.57,3.57,0,0,0,.93-1.62L259,69.88a3.57,3.57,0,0,0-.44-2.88l-3.17-5a3.63,3.63,0,0,1-.35-3.17l1.29-3.6a3.62,3.62,0,0,0-2.18-4.63l-.22-.07-8.07-2.34a3.85,3.85,0,0,0-1-.14H227.69a3.22,3.22,0,0,0-.88.11l-9.92,2.47A3.62,3.62,0,0,0,214.26,55a3.57,3.57,0,0,0,.1.35l1.25,3.46a3.63,3.63,0,0,1-.35,3.17l-3.18,5a3.65,3.65,0,0,0-.44,2.88L214.89,82a3.69,3.69,0,0,0,.94,1.62l4.27,4.27a3.62,3.62,0,0,1,1,1.75l5.53,24.28a3.62,3.62,0,0,0,3.53,2.81h5.11Z"/><polygon class="cls-3" points="213.39 76.39 217.28 70.12 215.5 61.94 213.39 76.39"/><polygon class="cls-3" points="257.28 76.39 254.28 69.06 255.7 61.94 257.28 76.39"/><polygon class="cls-3" points="230.44 97.87 235.42 105.7 240.4 97.87 240.4 85.07 235.42 79.37 230.8 85.07 230.44 97.87"/><path class="cls-3" d="M279.36,27.61s6.29,31.24-24.3,31.24l.64-7.58s23.66,1.07,23.66-23.66"/><path class="cls-3" d="M191.84,27.64S184.9,58.76,215.5,58.76V51.29s-23.66,1.07-23.66-23.65"/><path class="cls-3" d="M76.12,113.53a7.46,7.46,0,0,1-14.38-.86l-28.1-9.35a7.47,7.47,0,1,1,2.26-7.5l28.52,9.49a7.47,7.47,0,0,1,11.7,8.22Z"/><path class="cls-3" d="M71.57,91.6a7.46,7.46,0,0,1-10.78,9.57L34.32,114.42a7.46,7.46,0,1,1-3.71-6.91L57.49,94.06A7.46,7.46,0,0,1,71.57,91.6Z"/><path class="cls-3" d="M288.5,177.44a7.6,7.6,0,0,1-14.65-.87L245.24,167a7.6,7.6,0,1,1,2.3-7.64l29,9.67a7.6,7.6,0,0,1,11.91,8.37Z"/><path class="cls-3" d="M283.87,155.11a7.6,7.6,0,0,1-11,9.74l-27,13.5a7.6,7.6,0,1,1-3.78-7l27.38-13.7a7.6,7.6,0,0,1,14.34-2.51Z"/><path class="cls-3" d="M356.05,73a6.54,6.54,0,0,1-12.62-.75L318.78,64a6.55,6.55,0,1,1,2-6.58l25,8.33A6.55,6.55,0,0,1,356.05,73Z"/><path class="cls-3" d="M352.06,53.71a6.54,6.54,0,0,1-9.46,8.39L319.37,73.73a6.52,6.52,0,1,1-3.25-6.06l23.59-11.8a6.54,6.54,0,0,1,12.35-2.16Z"/><path class="cls-3" d="M318.2,153.14l28.49-22.52,2.68-4.72a4.7,4.7,0,0,1,7.76-.59h0a4.69,4.69,0,0,1-.77,6.58,4.61,4.61,0,0,1-1.24.7l-4.67,1.79-29.37,22.41Z"/><path class="cls-3" d="M34.8,186.61l31.66-25,3-5.25a5.2,5.2,0,0,1,8.61-.66h0a5.2,5.2,0,0,1-2.23,8.1l-5.19,2L38,190.66Z"/></g></g></svg>