<svg id="emcgrzv9a0181" xmlns="http://www.w3.org/2000/svg" xmlns:xlink="http://www.w3.org/1999/xlink" viewBox="0 0 1500 340" shape-rendering="geometricPrecision" text-rendering="geometricPrecision"><style><![CDATA[#emcgrzv9a0184 {animation: emcgrzv9a0184_c_o 8000ms linear infinite normal forwards}@keyframes emcgrzv9a0184_c_o { 0% {opacity: 1} 8.750000% {opacity: 0.900000} 36.250000% {opacity: 0} 87.500000% {opacity: 0} 100% {opacity: 1} }#emcgrzv9a01823 {animation: emcgrzv9a01823_c_o 8000ms linear infinite normal forwards}@keyframes emcgrzv9a01823_c_o { 0% {opacity: 1} 36.250000% {opacity: 1} 55% {opacity: 0} 87.500000% {opacity: 0} 100% {opacity: 1} }#emcgrzv9a01850 {animation: emcgrzv9a01850_c_o 8000ms linear infinite normal forwards}@keyframes emcgrzv9a01850_c_o { 0% {opacity: 1} 55% {opacity: 1} 75% {opacity: 0} 87.500000% {opacity: 0} 100% {opacity: 1} }#emcgrzv9a01856 {animation: emcgrzv9a01856_c_o 8000ms linear infinite normal forwards}@keyframes emcgrzv9a01856_c_o { 0% {opacity: 1} 55% {opacity: 1} 75% {opacity: 0} 87.500000% {opacity: 0} 100% {opacity: 1} }]]></style><g id="emcgrzv9a0182" transform="matrix(0.81002002849402 0 0 0.81002002849402 12.92323996528017 8.41060354503662)"><g id="emcgrzv9a0183"><g id="emcgrzv9a0184"><path id="emcgrzv9a0185" d="M535.060000,272C535.060000,286.550000,516.770000,297.480000,511.450000,310.460000C506.130000,323.440000,511.670000,343.920000,501.940000,354.560000C492.590000,364.790000,471.490000,361.420000,458.940000,368.720000C447,375.660000,439.810000,395.770000,425.690000,399.430000C412.330000,402.870000,396.180000,389,381.540000,389C366.900000,389,350.750000,402.890000,337.420000,399.430000C323.300000,395.770000,316.120000,375.660000,304.170000,368.720000C291.590000,361.420000,270.490000,364.790000,261.170000,354.560000C251.440000,343.920000,256.990000,323.470000,251.660000,310.460000C246.330000,297.450000,228,286.530000,228,272C228,257.470000,246.290000,246.530000,251.610000,233.550000C256.930000,220.570000,251.390000,200.080000,261.120000,189.450000C270.470000,179.220000,291.570000,182.590000,304.120000,175.280000C316.070000,168.350000,323.250000,148.280000,337.370000,144.570000C350.750000,141.100000,366.900000,155,381.540000,155C396.180000,155,412.330000,141.120000,425.660000,144.570000C439.780000,148.230000,446.970000,168.350000,458.910000,175.280000C471.490000,182.590000,492.590000,179.220000,501.910000,189.450000C511.640000,200.080000,506.090000,220.540000,511.420000,233.550000C516.750000,246.560000,535.060000,257.440000,535.060000,272Z" fill="rgb(119,69,255)" stroke="none" stroke-width="1"/><path id="emcgrzv9a0186" d="M535.060000,272C535.060000,286.550000,516.770000,297.480000,511.450000,310.460000C506.130000,323.440000,511.670000,343.920000,501.940000,354.560000C492.590000,364.790000,471.490000,361.420000,458.940000,368.720000C447,375.660000,439.810000,395.770000,425.690000,399.430000C412.330000,402.870000,396.180000,389,381.540000,389C366.900000,389,350.750000,402.890000,337.420000,399.430000C323.300000,395.770000,316.120000,375.660000,304.170000,368.720000C291.590000,361.420000,270.490000,364.790000,261.170000,354.560000C251.440000,343.920000,256.990000,323.470000,251.660000,310.460000C246.330000,297.450000,228,286.530000,228,272C228,257.470000,246.290000,246.530000,251.610000,233.550000C256.930000,220.570000,251.390000,200.080000,261.120000,189.450000C270.470000,179.220000,291.570000,182.590000,304.120000,175.280000C316.070000,168.350000,323.250000,148.280000,337.370000,144.570000C350.750000,141.100000,366.900000,155,381.540000,155C396.180000,155,412.330000,141.120000,425.660000,144.570000C439.780000,148.230000,446.970000,168.350000,458.910000,175.280000C471.490000,182.590000,492.590000,179.220000,501.910000,189.450000C511.640000,200.080000,506.090000,220.540000,511.420000,233.550000C516.750000,246.560000,535.060000,257.440000,535.060000,272Z" transform="matrix(1 0 0 1 -193.93999999860489 -25.53211403729208)" fill="rgb(119,69,255)" stroke="none" stroke-width="1"/><path id="emcgrzv9a0187" d="M535.060000,272C535.060000,286.550000,516.770000,297.480000,511.450000,310.460000C506.130000,323.440000,511.670000,343.920000,501.940000,354.560000C492.590000,364.790000,471.490000,361.420000,458.940000,368.720000C447,375.660000,439.810000,395.770000,425.690000,399.430000C412.330000,402.870000,396.180000,389,381.540000,389C366.900000,389,350.750000,402.890000,337.420000,399.430000C323.300000,395.770000,316.120000,375.660000,304.170000,368.720000C291.590000,361.420000,270.490000,364.790000,261.170000,354.560000C251.440000,343.920000,256.990000,323.470000,251.660000,310.460000C246.330000,297.450000,228,286.530000,228,272C228,257.470000,246.290000,246.530000,251.610000,233.550000C256.930000,220.570000,251.390000,200.080000,261.120000,189.450000C270.470000,179.220000,291.570000,182.590000,304.120000,175.280000C316.070000,168.350000,323.250000,148.280000,337.370000,144.570000C350.750000,141.100000,366.900000,155,381.540000,155C396.180000,155,412.330000,141.120000,425.660000,144.570000C439.780000,148.230000,446.970000,168.350000,458.910000,175.280000C471.490000,182.590000,492.590000,179.220000,501.910000,189.450000C511.640000,200.080000,506.090000,220.540000,511.420000,233.550000C516.750000,246.560000,535.060000,257.440000,535.060000,272Z" transform="matrix(1 0 0 1 243.79000000425106 6.44086712855738)" fill="rgb(119,69,255)" stroke="none" stroke-width="1"/><path id="emcgrzv9a0188" d="M535.060000,272C535.060000,286.550000,516.770000,297.480000,511.450000,310.460000C506.130000,323.440000,511.670000,343.920000,501.940000,354.560000C492.590000,364.790000,471.490000,361.420000,458.940000,368.720000C447,375.660000,439.810000,395.770000,425.690000,399.430000C412.330000,402.870000,396.180000,389,381.540000,389C366.900000,389,350.750000,402.890000,337.420000,399.430000C323.300000,395.770000,316.120000,375.660000,304.170000,368.720000C291.590000,361.420000,270.490000,364.790000,261.170000,354.560000C251.440000,343.920000,256.990000,323.470000,251.660000,310.460000C246.330000,297.450000,228,286.530000,228,272C228,257.470000,246.290000,246.530000,251.610000,233.550000C256.930000,220.570000,251.390000,200.080000,261.120000,189.450000C270.470000,179.220000,291.570000,182.590000,304.120000,175.280000C316.070000,168.350000,323.250000,148.280000,337.370000,144.570000C350.750000,141.100000,366.900000,155,381.540000,155C396.180000,155,412.330000,141.120000,425.660000,144.570000C439.780000,148.230000,446.970000,168.350000,458.910000,175.280000C471.490000,182.590000,492.590000,179.220000,501.910000,189.450000C511.640000,200.080000,506.090000,220.540000,511.420000,233.550000C516.750000,246.560000,535.060000,257.440000,535.060000,272Z" transform="matrix(1 0 0 1 332.56910841555759 -125.00598315853547)" fill="rgb(119,69,255)" stroke="none" stroke-width="1"/><path id="emcgrzv9a0189" d="M535.060000,272C535.060000,286.550000,516.770000,297.480000,511.450000,310.460000C506.130000,323.440000,511.670000,343.920000,501.940000,354.560000C492.590000,364.790000,471.490000,361.420000,458.940000,368.720000C447,375.660000,439.810000,395.770000,425.690000,399.430000C412.330000,402.870000,396.180000,389,381.540000,389C366.900000,389,350.750000,402.890000,337.420000,399.430000C323.300000,395.770000,316.120000,375.660000,304.170000,368.720000C291.590000,361.420000,270.490000,364.790000,261.170000,354.560000C251.440000,343.920000,256.990000,323.470000,251.660000,310.460000C246.330000,297.450000,228,286.530000,228,272C228,257.470000,246.290000,246.530000,251.610000,233.550000C256.930000,220.570000,251.390000,200.080000,261.120000,189.450000C270.470000,179.220000,291.570000,182.590000,304.120000,175.280000C316.070000,168.350000,323.250000,148.280000,337.370000,144.570000C350.750000,141.100000,366.900000,155,381.540000,155C396.180000,155,412.330000,141.120000,425.660000,144.570000C439.780000,148.230000,446.970000,168.350000,458.910000,175.280000C471.490000,182.590000,492.590000,179.220000,501.910000,189.450000C511.640000,200.080000,506.090000,220.540000,511.420000,233.550000C516.750000,246.560000,535.060000,257.440000,535.060000,272Z" transform="matrix(1 0 0 1 462.62939494435915 -25.53211403729201)" fill="rgb(119,69,255)" stroke="none" stroke-width="1"/><path id="emcgrzv9a01810" d="M535.060000,272C535.060000,286.550000,516.770000,297.480000,511.450000,310.460000C506.130000,323.440000,511.670000,343.920000,501.940000,354.560000C492.590000,364.790000,471.490000,361.420000,458.940000,368.720000C447,375.660000,439.810000,395.770000,425.690000,399.430000C412.330000,402.870000,396.180000,389,381.540000,389C366.900000,389,350.750000,402.890000,337.420000,399.430000C323.300000,395.770000,316.120000,375.660000,304.170000,368.720000C291.590000,361.420000,270.490000,364.790000,261.170000,354.560000C251.440000,343.920000,256.990000,323.470000,251.660000,310.460000C246.330000,297.450000,228,286.530000,228,272C228,257.470000,246.290000,246.530000,251.610000,233.550000C256.930000,220.570000,251.390000,200.080000,261.120000,189.450000C270.470000,179.220000,291.570000,182.590000,304.120000,175.280000C316.070000,168.350000,323.250000,148.280000,337.370000,144.570000C350.750000,141.100000,366.900000,155,381.540000,155C396.180000,155,412.330000,141.120000,425.660000,144.570000C439.780000,148.230000,446.970000,168.350000,458.910000,175.280000C471.490000,182.590000,492.590000,179.220000,501.910000,189.450000C511.640000,200.080000,506.090000,220.540000,511.420000,233.550000C516.750000,246.560000,535.060000,257.440000,535.060000,272Z" transform="matrix(1 0 0 1 544.11294680506160 -118.50194182045288)" fill="rgb(119,69,255)" stroke="none" stroke-width="1"/><path id="emcgrzv9a01811" d="M535.060000,272C535.060000,286.550000,516.770000,297.480000,511.450000,310.460000C506.130000,323.440000,511.670000,343.920000,501.940000,354.560000C492.590000,364.790000,471.490000,361.420000,458.940000,368.720000C447,375.660000,439.810000,395.770000,425.690000,399.430000C412.330000,402.870000,396.180000,389,381.540000,389C366.900000,389,350.750000,402.890000,337.420000,399.430000C323.300000,395.770000,316.120000,375.660000,304.170000,368.720000C291.590000,361.420000,270.490000,364.790000,261.170000,354.560000C251.440000,343.920000,256.990000,323.470000,251.660000,310.460000C246.330000,297.450000,228,286.530000,228,272C228,257.470000,246.290000,246.530000,251.610000,233.550000C256.930000,220.570000,251.390000,200.080000,261.120000,189.450000C270.470000,179.220000,291.570000,182.590000,304.120000,175.280000C316.070000,168.350000,323.250000,148.280000,337.370000,144.570000C350.750000,141.100000,366.900000,155,381.540000,155C396.180000,155,412.330000,141.120000,425.660000,144.570000C439.780000,148.230000,446.970000,168.350000,458.910000,175.280000C471.490000,182.590000,492.590000,179.220000,501.910000,189.450000C511.640000,200.080000,506.090000,220.540000,511.420000,233.550000C516.750000,246.560000,535.060000,257.440000,535.060000,272Z" transform="matrix(1 0 0 1 738.41987930477103 -121.54404676640247)" fill="rgb(119,69,255)" stroke="none" stroke-width="1"/><path id="emcgrzv9a01812" d="M535.060000,272C535.060000,286.550000,516.770000,297.480000,511.450000,310.460000C506.130000,323.440000,511.670000,343.920000,501.940000,354.560000C492.590000,364.790000,471.490000,361.420000,458.940000,368.720000C447,375.660000,439.810000,395.770000,425.690000,399.430000C412.330000,402.870000,396.180000,389,381.540000,389C366.900000,389,350.750000,402.890000,337.420000,399.430000C323.300000,395.770000,316.120000,375.660000,304.170000,368.720000C291.590000,361.420000,270.490000,364.790000,261.170000,354.560000C251.440000,343.920000,256.990000,323.470000,251.660000,310.460000C246.330000,297.450000,228,286.530000,228,272C228,257.470000,246.290000,246.530000,251.610000,233.550000C256.930000,220.570000,251.390000,200.080000,261.120000,189.450000C270.470000,179.220000,291.570000,182.590000,304.120000,175.280000C316.070000,168.350000,323.250000,148.280000,337.370000,144.570000C350.750000,141.100000,366.900000,155,381.540000,155C396.180000,155,412.330000,141.120000,425.660000,144.570000C439.780000,148.230000,446.970000,168.350000,458.910000,175.280000C471.490000,182.590000,492.590000,179.220000,501.910000,189.450000C511.640000,200.080000,506.090000,220.540000,511.420000,233.550000C516.750000,246.560000,535.060000,257.440000,535.060000,272Z" transform="matrix(1 0 0 1 703.94606999425719 -11.40053283888392)" fill="rgb(119,69,255)" stroke="none" stroke-width="1"/><path id="emcgrzv9a01813" d="M535.060000,272C535.060000,286.550000,516.770000,297.480000,511.450000,310.460000C506.130000,323.440000,511.670000,343.920000,501.940000,354.560000C492.590000,364.790000,471.490000,361.420000,458.940000,368.720000C447,375.660000,439.810000,395.770000,425.690000,399.430000C412.330000,402.870000,396.180000,389,381.540000,389C366.900000,389,350.750000,402.890000,337.420000,399.430000C323.300000,395.770000,316.120000,375.660000,304.170000,368.720000C291.590000,361.420000,270.490000,364.790000,261.170000,354.560000C251.440000,343.920000,256.990000,323.470000,251.660000,310.460000C246.330000,297.450000,228,286.530000,228,272C228,257.470000,246.290000,246.530000,251.610000,233.550000C256.930000,220.570000,251.390000,200.080000,261.120000,189.450000C270.470000,179.220000,291.570000,182.590000,304.120000,175.280000C316.070000,168.350000,323.250000,148.280000,337.370000,144.570000C350.750000,141.100000,366.900000,155,381.540000,155C396.180000,155,412.330000,141.120000,425.660000,144.570000C439.780000,148.230000,446.970000,168.350000,458.910000,175.280000C471.490000,182.590000,492.590000,179.220000,501.910000,189.450000C511.640000,200.080000,506.090000,220.540000,511.420000,233.550000C516.750000,246.560000,535.060000,257.440000,535.060000,272Z" transform="matrix(1 0 0 1 901.38698549525054 -131.51702792838606)" fill="rgb(119,69,255)" stroke="none" stroke-width="1"/><path id="emcgrzv9a01814" d="M535.060000,272C535.060000,286.550000,516.770000,297.480000,511.450000,310.460000C506.130000,323.440000,511.670000,343.920000,501.940000,354.560000C492.590000,364.790000,471.490000,361.420000,458.940000,368.720000C447,375.660000,439.810000,395.770000,425.690000,399.430000C412.330000,402.870000,396.180000,389,381.540000,389C366.900000,389,350.750000,402.890000,337.420000,399.430000C323.300000,395.770000,316.120000,375.660000,304.170000,368.720000C291.590000,361.420000,270.490000,364.790000,261.170000,354.560000C251.440000,343.920000,256.990000,323.470000,251.660000,310.460000C246.330000,297.450000,228,286.530000,228,272C228,257.470000,246.290000,246.530000,251.610000,233.550000C256.930000,220.570000,251.390000,200.080000,261.120000,189.450000C270.470000,179.220000,291.570000,182.590000,304.120000,175.280000C316.070000,168.350000,323.250000,148.280000,337.370000,144.570000C350.750000,141.100000,366.900000,155,381.540000,155C396.180000,155,412.330000,141.120000,425.660000,144.570000C439.780000,148.230000,446.970000,168.350000,458.910000,175.280000C471.490000,182.590000,492.590000,179.220000,501.910000,189.450000C511.640000,200.080000,506.090000,220.540000,511.420000,233.550000C516.750000,246.560000,535.060000,257.440000,535.060000,272Z" transform="matrix(1 0 0 1 944.83067918443692 -4.02211954074356)" fill="rgb(119,69,255)" stroke="none" stroke-width="1"/><path id="emcgrzv9a01815" d="M535.060000,272C535.060000,286.550000,516.770000,297.480000,511.450000,310.460000C506.130000,323.440000,511.670000,343.920000,501.940000,354.560000C492.590000,364.790000,471.490000,361.420000,458.940000,368.720000C447,375.660000,439.810000,395.770000,425.690000,399.430000C412.330000,402.870000,396.180000,389,381.540000,389C366.900000,389,350.750000,402.890000,337.420000,399.430000C323.300000,395.770000,316.120000,375.660000,304.170000,368.720000C291.590000,361.420000,270.490000,364.790000,261.170000,354.560000C251.440000,343.920000,256.990000,323.470000,251.660000,310.460000C246.330000,297.450000,228,286.530000,228,272C228,257.470000,246.290000,246.530000,251.610000,233.550000C256.930000,220.570000,251.390000,200.080000,261.120000,189.450000C270.470000,179.220000,291.570000,182.590000,304.120000,175.280000C316.070000,168.350000,323.250000,148.280000,337.370000,144.570000C350.750000,141.100000,366.900000,155,381.540000,155C396.180000,155,412.330000,141.120000,425.660000,144.570000C439.780000,148.230000,446.970000,168.350000,458.910000,175.280000C471.490000,182.590000,492.590000,179.220000,501.910000,189.450000C511.640000,200.080000,506.090000,220.540000,511.420000,233.550000C516.750000,246.560000,535.060000,257.440000,535.060000,272Z" transform="matrix(1 0 0 1 1113.39221000713792 -118.50194182045257)" fill="rgb(119,69,255)" stroke="none" stroke-width="1"/><path id="emcgrzv9a01816" d="M535.060000,272C535.060000,286.550000,516.770000,297.480000,511.450000,310.460000C506.130000,323.440000,511.670000,343.920000,501.940000,354.560000C492.590000,364.790000,471.490000,361.420000,458.940000,368.720000C447,375.660000,439.810000,395.770000,425.690000,399.430000C412.330000,402.870000,396.180000,389,381.540000,389C366.900000,389,350.750000,402.890000,337.420000,399.430000C323.300000,395.770000,316.120000,375.660000,304.170000,368.720000C291.590000,361.420000,270.490000,364.790000,261.170000,354.560000C251.440000,343.920000,256.990000,323.470000,251.660000,310.460000C246.330000,297.450000,228,286.530000,228,272C228,257.470000,246.290000,246.530000,251.610000,233.550000C256.930000,220.570000,251.390000,200.080000,261.120000,189.450000C270.470000,179.220000,291.570000,182.590000,304.120000,175.280000C316.070000,168.350000,323.250000,148.280000,337.370000,144.570000C350.750000,141.100000,366.900000,155,381.540000,155C396.180000,155,412.330000,141.120000,425.660000,144.570000C439.780000,148.230000,446.970000,168.350000,458.910000,175.280000C471.490000,182.590000,492.590000,179.220000,501.910000,189.450000C511.640000,200.080000,506.090000,220.540000,511.420000,233.550000C516.750000,246.560000,535.060000,257.440000,535.060000,272Z" transform="matrix(1 0 0 1 1177.68887572888525 -9.73377144718044)" fill="rgb(119,69,255)" stroke="none" stroke-width="1"/><path id="emcgrzv9a01817" d="M535.060000,272C535.060000,286.550000,516.770000,297.480000,511.450000,310.460000C506.130000,323.440000,511.670000,343.920000,501.940000,354.560000C492.590000,364.790000,471.490000,361.420000,458.940000,368.720000C447,375.660000,439.810000,395.770000,425.690000,399.430000C412.330000,402.870000,396.180000,389,381.540000,389C366.900000,389,350.750000,402.890000,337.420000,399.430000C323.300000,395.770000,316.120000,375.660000,304.170000,368.720000C291.590000,361.420000,270.490000,364.790000,261.170000,354.560000C251.440000,343.920000,256.990000,323.470000,251.660000,310.460000C246.330000,297.450000,228,286.530000,228,272C228,257.470000,246.290000,246.530000,251.610000,233.550000C256.930000,220.570000,251.390000,200.080000,261.120000,189.450000C270.470000,179.220000,291.570000,182.590000,304.120000,175.280000C316.070000,168.350000,323.250000,148.280000,337.370000,144.570000C350.750000,141.100000,366.900000,155,381.540000,155C396.180000,155,412.330000,141.120000,425.660000,144.570000C439.780000,148.230000,446.970000,168.350000,458.910000,175.280000C471.490000,182.590000,492.590000,179.220000,501.910000,189.450000C511.640000,200.080000,506.090000,220.540000,511.420000,233.550000C516.750000,246.560000,535.060000,257.440000,535.060000,272Z" transform="matrix(1 0 0 1 1275.00274974080685 -86.05192395624074)" fill="rgb(119,69,255)" stroke="none" stroke-width="1"/><path id="emcgrzv9a01818" d="M535.060000,272C535.060000,286.550000,516.770000,297.480000,511.450000,310.460000C506.130000,323.440000,511.670000,343.920000,501.940000,354.560000C492.590000,364.790000,471.490000,361.420000,458.940000,368.720000C447,375.660000,439.810000,395.770000,425.690000,399.430000C412.330000,402.870000,396.180000,389,381.540000,389C366.900000,389,350.750000,402.890000,337.420000,399.430000C323.300000,395.770000,316.120000,375.660000,304.170000,368.720000C291.590000,361.420000,270.490000,364.790000,261.170000,354.560000C251.440000,343.920000,256.990000,323.470000,251.660000,310.460000C246.330000,297.450000,228,286.530000,228,272C228,257.470000,246.290000,246.530000,251.610000,233.550000C256.930000,220.570000,251.390000,200.080000,261.120000,189.450000C270.470000,179.220000,291.570000,182.590000,304.120000,175.280000C316.070000,168.350000,323.250000,148.280000,337.370000,144.570000C350.750000,141.100000,366.900000,155,381.540000,155C396.180000,155,412.330000,141.120000,425.660000,144.570000C439.780000,148.230000,446.970000,168.350000,458.910000,175.280000C471.490000,182.590000,492.590000,179.220000,501.910000,189.450000C511.640000,200.080000,506.090000,220.540000,511.420000,233.550000C516.750000,246.560000,535.060000,257.440000,535.060000,272Z" transform="matrix(1 0 0 1 -193.93999999860489 -25.53211403729208)" fill="rgb(119,69,255)" stroke="none" stroke-width="1"/><path id="emcgrzv9a01819" d="M535.060000,272C535.060000,286.550000,516.770000,297.480000,511.450000,310.460000C506.130000,323.440000,511.670000,343.920000,501.940000,354.560000C492.590000,364.790000,471.490000,361.420000,458.940000,368.720000C447,375.660000,439.810000,395.770000,425.690000,399.430000C412.330000,402.870000,396.180000,389,381.540000,389C366.900000,389,350.750000,402.890000,337.420000,399.430000C323.300000,395.770000,316.120000,375.660000,304.170000,368.720000C291.590000,361.420000,270.490000,364.790000,261.170000,354.560000C251.440000,343.920000,256.990000,323.470000,251.660000,310.460000C246.330000,297.450000,228,286.530000,228,272C228,257.470000,246.290000,246.530000,251.610000,233.550000C256.930000,220.570000,251.390000,200.080000,261.120000,189.450000C270.470000,179.220000,291.570000,182.590000,304.120000,175.280000C316.070000,168.350000,323.250000,148.280000,337.370000,144.570000C350.750000,141.100000,366.900000,155,381.540000,155C396.180000,155,412.330000,141.120000,425.660000,144.570000C439.780000,148.230000,446.970000,168.350000,458.910000,175.280000C471.490000,182.590000,492.590000,179.220000,501.910000,189.450000C511.640000,200.080000,506.090000,220.540000,511.420000,233.550000C516.750000,246.560000,535.060000,257.440000,535.060000,272Z" transform="matrix(1 0 0 1 -193.93999999860489 -25.53211403729208)" fill="rgb(119,69,255)" stroke="none" stroke-width="1"/><path id="emcgrzv9a01820" d="M307,140C307,154.550000,288.710000,165.480000,283.390000,178.460000C278.070000,191.440000,283.610000,211.920000,273.880000,222.560000C264.530000,232.790000,243.430000,229.420000,230.880000,236.720000C218.940000,243.660000,211.750000,263.770000,197.630000,267.430000C184.310000,270.870000,168.160000,257,153.520000,257C138.880000,257,122.730000,270.890000,109.400000,267.430000C95.280000,263.770000,88.100000,243.660000,76.150000,236.720000C63.570000,229.420000,42.470000,232.790000,33.150000,222.560000C23.420000,211.920000,28.970000,191.470000,23.640000,178.460000C18.310000,165.450000,0,154.530000,0,140C0,125.470000,18.290000,114.530000,23.610000,101.550000C28.930000,88.570000,23.390000,68.080000,33.120000,57.450000C42.480000,47.220000,63.570000,50.590000,76.120000,43.280000C88.070000,36.350000,95.250000,16.280000,109.370000,12.570000C122.730000,9.100000,138.880000,23,153.520000,23C168.160000,23,184.310000,9.100000,197.640000,12.550000C211.760000,16.210000,218.950000,36.330000,230.890000,43.260000C243.470000,50.570000,264.570000,47.200000,273.890000,57.430000C283.620000,68.060000,278.080000,88.520000,283.400000,101.530000C288.720000,114.540000,307,125.440000,307,140Z" fill="rgb(119,69,255)" stroke="none" stroke-width="1"/><path id="emcgrzv9a01821" d="M441.100000,128C441.100000,142.550000,422.800000,153.480000,417.490000,166.460000C412.180000,179.440000,417.700000,199.920000,407.980000,210.560000C398.620000,220.790000,377.520000,217.420000,364.980000,224.720000C353.030000,231.660000,345.840000,251.770000,331.730000,255.430000C318.360000,258.870000,302.220000,245,287.570000,245C272.920000,245,256.780000,258.890000,243.450000,255.430000C229.340000,251.770000,222.150000,231.660000,210.200000,224.720000C197.620000,217.420000,176.530000,220.790000,167.200000,210.560000C157.470000,199.920000,163.020000,179.470000,157.690000,166.460000C152.360000,153.450000,134.050000,142.530000,134.050000,128C134.050000,113.470000,152.350000,102.530000,157.660000,89.550000C162.970000,76.570000,157.440000,56.080000,167.170000,45.450000C176.530000,35.220000,197.620000,38.590000,210.170000,31.280000C222.170000,24.350000,229.310000,4.280000,243.420000,0.570000C256.780000,-2.900000,272.930000,11,287.570000,11C302.210000,11,318.360000,-2.900000,331.690000,0.550000C345.810000,4.210000,353,24.330000,365,31.260000C377.570000,38.570000,398.670000,35.200000,408,45.430000C417.720000,56.060000,412.180000,76.520000,417.510000,89.530000C422.840000,102.540000,441.100000,113.440000,441.100000,128Z" fill="rgb(119,69,255)" stroke="none" stroke-width="1"/><path id="emcgrzv9a01822" d="M626.100000,128C626.100000,142.550000,607.800000,153.480000,602.490000,166.460000C597.180000,179.440000,602.700000,199.920000,592.980000,210.560000C583.620000,220.790000,562.520000,217.420000,549.980000,224.720000C537.980000,231.660000,530.840000,251.770000,516.730000,255.430000C503.360000,258.870000,487.220000,245,472.570000,245C457.920000,245,441.780000,258.890000,428.450000,255.430000C414.340000,251.770000,407.150000,231.660000,395.200000,224.720000C382.620000,217.420000,361.530000,220.790000,352.200000,210.560000C342.470000,199.920000,348.020000,179.470000,342.690000,166.460000C337.360000,153.450000,319.050000,142.530000,319.050000,128C319.050000,113.470000,337.350000,102.530000,342.660000,89.550000C347.970000,76.570000,342.440000,56.080000,352.170000,45.450000C361.530000,35.220000,382.620000,38.590000,395.170000,31.280000C407.120000,24.350000,414.310000,4.280000,428.420000,0.570000C441.780000,-2.900000,457.930000,11,472.570000,11C487.210000,11,503.360000,-2.900000,516.690000,0.550000C530.810000,4.210000,538,24.330000,550,31.260000C562.570000,38.570000,583.670000,35.200000,593,45.430000C602.720000,56.060000,597.180000,76.520000,602.510000,89.530000C607.840000,102.540000,626.100000,113.440000,626.100000,128Z" fill="rgb(119,69,255)" stroke="none" stroke-width="1"/></g><g id="emcgrzv9a01823"><path id="emcgrzv9a01824" d="M445,168.480000C445,176.120000,437.700000,182.300000,434.900000,189.110000C432.100000,195.920000,432.990000,205.410000,427.900000,210.980000C422.980000,216.340000,413.390000,216.390000,406.780000,220.220000C400.500000,223.840000,395.780000,232.220000,388.400000,234.110000C381.400000,235.920000,373.230000,230.980000,365.540000,230.980000C357.850000,230.980000,349.680000,235.920000,342.680000,234.110000C335.270000,232.200000,330.580000,223.840000,324.300000,220.220000C317.690000,216.390000,308.100000,216.340000,303.180000,210.980000C298.050000,205.410000,298.950000,195.980000,296.180000,189.110000C293.410000,182.240000,286.080000,176.110000,286.080000,168.480000C286.080000,160.850000,293.380000,154.660000,296.180000,147.850000C298.980000,141.040000,298.090000,131.560000,303.180000,125.980000C308.100000,120.630000,317.690000,120.570000,324.300000,116.750000C330.580000,113.120000,335.300000,104.750000,342.680000,102.850000C349.680000,101.050000,357.850000,105.980000,365.540000,105.980000C373.230000,105.980000,381.400000,101.050000,388.400000,102.850000C395.810000,104.770000,400.500000,113.120000,406.780000,116.750000C413.390000,120.570000,422.980000,120.630000,427.910000,125.980000C433.030000,131.560000,432.130000,140.980000,434.910000,147.850000C437.690000,154.720000,445,160.850000,445,168.480000Z" fill="rgb(158,131,255)" stroke="none" stroke-width="1"/><path id="emcgrzv9a01825" d="M453,281.480000C453,289.120000,445.700000,295.300000,442.900000,302.110000C440.100000,308.920000,440.990000,318.410000,435.900000,323.980000C430.980000,329.340000,421.390000,329.390000,414.780000,333.220000C408.500000,336.840000,403.780000,345.220000,396.400000,347.110000C389.400000,348.920000,381.230000,343.980000,373.540000,343.980000C365.850000,343.980000,357.680000,348.920000,350.680000,347.110000C343.270000,345.200000,338.580000,336.840000,332.300000,333.220000C325.690000,329.390000,316.100000,329.340000,311.180000,323.980000C306.050000,318.410000,306.950000,308.930000,304.180000,302.110000C301.410000,295.290000,294.080000,289.110000,294.080000,281.480000C294.080000,273.850000,301.380000,267.660000,304.180000,260.850000C306.980000,254.040000,306.090000,244.560000,311.180000,238.980000C316.100000,233.630000,325.690000,233.570000,332.300000,229.750000C338.580000,226.120000,343.300000,217.750000,350.680000,215.850000C357.680000,214.050000,365.850000,218.980000,373.540000,218.980000C381.230000,218.980000,389.400000,214.050000,396.400000,215.850000C403.810000,217.770000,408.500000,226.120000,414.780000,229.750000C421.390000,233.570000,430.980000,233.630000,435.910000,238.980000C441.030000,244.560000,440.130000,254.030000,442.910000,260.850000C445.690000,267.670000,453,273.850000,453,281.480000Z" fill="rgb(158,131,255)" stroke="none" stroke-width="1"/><path id="emcgrzv9a01826" d="M453,281.480000C453,289.120000,445.700000,295.300000,442.900000,302.110000C440.100000,308.920000,440.990000,318.410000,435.900000,323.980000C430.980000,329.340000,421.390000,329.390000,414.780000,333.220000C408.500000,336.840000,403.780000,345.220000,396.400000,347.110000C389.400000,348.920000,381.230000,343.980000,373.540000,343.980000C365.850000,343.980000,357.680000,348.920000,350.680000,347.110000C343.270000,345.200000,338.580000,336.840000,332.300000,333.220000C325.690000,329.390000,316.100000,329.340000,311.180000,323.980000C306.050000,318.410000,306.950000,308.930000,304.180000,302.110000C301.410000,295.290000,294.080000,289.110000,294.080000,281.480000C294.080000,273.850000,301.380000,267.660000,304.180000,260.850000C306.980000,254.040000,306.090000,244.560000,311.180000,238.980000C316.100000,233.630000,325.690000,233.570000,332.300000,229.750000C338.580000,226.120000,343.300000,217.750000,350.680000,215.850000C357.680000,214.050000,365.850000,218.980000,373.540000,218.980000C381.230000,218.980000,389.400000,214.050000,396.400000,215.850000C403.810000,217.770000,408.500000,226.120000,414.780000,229.750000C421.390000,233.570000,430.980000,233.630000,435.910000,238.980000C441.030000,244.560000,440.130000,254.030000,442.910000,260.850000C445.690000,267.670000,453,273.850000,453,281.480000Z" transform="matrix(1 0 0 1 147.02000000099906 -15.96648917316913)" fill="rgb(158,131,255)" stroke="none" stroke-width="1"/><path id="emcgrzv9a01827" d="M453,281.480000C453,289.120000,445.700000,295.300000,442.900000,302.110000C440.100000,308.920000,440.990000,318.410000,435.900000,323.980000C430.980000,329.340000,421.390000,329.390000,414.780000,333.220000C408.500000,336.840000,403.780000,345.220000,396.400000,347.110000C389.400000,348.920000,381.230000,343.980000,373.540000,343.980000C365.850000,343.980000,357.680000,348.920000,350.680000,347.110000C343.270000,345.200000,338.580000,336.840000,332.300000,333.220000C325.690000,329.390000,316.100000,329.340000,311.180000,323.980000C306.050000,318.410000,306.950000,308.930000,304.180000,302.110000C301.410000,295.290000,294.080000,289.110000,294.080000,281.480000C294.080000,273.850000,301.380000,267.660000,304.180000,260.850000C306.980000,254.040000,306.090000,244.560000,311.180000,238.980000C316.100000,233.630000,325.690000,233.570000,332.300000,229.750000C338.580000,226.120000,343.300000,217.750000,350.680000,215.850000C357.680000,214.050000,365.850000,218.980000,373.540000,218.980000C381.230000,218.980000,389.400000,214.050000,396.400000,215.850000C403.810000,217.770000,408.500000,226.120000,414.780000,229.750000C421.390000,233.570000,430.980000,233.630000,435.910000,238.980000C441.030000,244.560000,440.130000,254.030000,442.910000,260.850000C445.690000,267.670000,453,273.850000,453,281.480000Z" transform="matrix(1 0 0 1 257.91999999484312 -15.96648917316921)" fill="rgb(158,131,255)" stroke="none" stroke-width="1"/><path id="emcgrzv9a01828" d="M453,281.480000C453,289.120000,445.700000,295.300000,442.900000,302.110000C440.100000,308.920000,440.990000,318.410000,435.900000,323.980000C430.980000,329.340000,421.390000,329.390000,414.780000,333.220000C408.500000,336.840000,403.780000,345.220000,396.400000,347.110000C389.400000,348.920000,381.230000,343.980000,373.540000,343.980000C365.850000,343.980000,357.680000,348.920000,350.680000,347.110000C343.270000,345.200000,338.580000,336.840000,332.300000,333.220000C325.690000,329.390000,316.100000,329.340000,311.180000,323.980000C306.050000,318.410000,306.950000,308.930000,304.180000,302.110000C301.410000,295.290000,294.080000,289.110000,294.080000,281.480000C294.080000,273.850000,301.380000,267.660000,304.180000,260.850000C306.980000,254.040000,306.090000,244.560000,311.180000,238.980000C316.100000,233.630000,325.690000,233.570000,332.300000,229.750000C338.580000,226.120000,343.300000,217.750000,350.680000,215.850000C357.680000,214.050000,365.850000,218.980000,373.540000,218.980000C381.230000,218.980000,389.400000,214.050000,396.400000,215.850000C403.810000,217.770000,408.500000,226.120000,414.780000,229.750000C421.390000,233.570000,430.980000,233.630000,435.910000,238.980000C441.030000,244.560000,440.130000,254.030000,442.910000,260.850000C445.690000,267.670000,453,273.850000,453,281.480000Z" transform="matrix(1 0 0 1 187.02910842422298 -85.24376237137680)" fill="rgb(158,131,255)" stroke="none" stroke-width="1"/><path id="emcgrzv9a01829" d="M453,281.480000C453,289.120000,445.700000,295.300000,442.900000,302.110000C440.100000,308.920000,440.990000,318.410000,435.900000,323.980000C430.980000,329.340000,421.390000,329.390000,414.780000,333.220000C408.500000,336.840000,403.780000,345.220000,396.400000,347.110000C389.400000,348.920000,381.230000,343.980000,373.540000,343.980000C365.850000,343.980000,357.680000,348.920000,350.680000,347.110000C343.270000,345.200000,338.580000,336.840000,332.300000,333.220000C325.690000,329.390000,316.100000,329.340000,311.180000,323.980000C306.050000,318.410000,306.950000,308.930000,304.180000,302.110000C301.410000,295.290000,294.080000,289.110000,294.080000,281.480000C294.080000,273.850000,301.380000,267.660000,304.180000,260.850000C306.980000,254.040000,306.090000,244.560000,311.180000,238.980000C316.100000,233.630000,325.690000,233.570000,332.300000,229.750000C338.580000,226.120000,343.300000,217.750000,350.680000,215.850000C357.680000,214.050000,365.850000,218.980000,373.540000,218.980000C381.230000,218.980000,389.400000,214.050000,396.400000,215.850000C403.810000,217.770000,408.500000,226.120000,414.780000,229.750000C421.390000,233.570000,430.980000,233.630000,435.910000,238.980000C441.030000,244.560000,440.130000,254.030000,442.910000,260.850000C445.690000,267.670000,453,273.850000,453,281.480000Z" transform="matrix(1 0 0 1 360.17807675993083 -72.53106019394399)" fill="rgb(158,131,255)" stroke="none" stroke-width="1"/><path id="emcgrzv9a01830" d="M453,281.480000C453,289.120000,445.700000,295.300000,442.900000,302.110000C440.100000,308.920000,440.990000,318.410000,435.900000,323.980000C430.980000,329.340000,421.390000,329.390000,414.780000,333.220000C408.500000,336.840000,403.780000,345.220000,396.400000,347.110000C389.400000,348.920000,381.230000,343.980000,373.540000,343.980000C365.850000,343.980000,357.680000,348.920000,350.680000,347.110000C343.270000,345.200000,338.580000,336.840000,332.300000,333.220000C325.690000,329.390000,316.100000,329.340000,311.180000,323.980000C306.050000,318.410000,306.950000,308.930000,304.180000,302.110000C301.410000,295.290000,294.080000,289.110000,294.080000,281.480000C294.080000,273.850000,301.380000,267.660000,304.180000,260.850000C306.980000,254.040000,306.090000,244.560000,311.180000,238.980000C316.100000,233.630000,325.690000,233.570000,332.300000,229.750000C338.580000,226.120000,343.300000,217.750000,350.680000,215.850000C357.680000,214.050000,365.850000,218.980000,373.540000,218.980000C381.230000,218.980000,389.400000,214.050000,396.400000,215.850000C403.810000,217.770000,408.500000,226.120000,414.780000,229.750000C421.390000,233.570000,430.980000,233.630000,435.910000,238.980000C441.030000,244.560000,440.130000,254.030000,442.910000,260.850000C445.690000,267.670000,453,273.850000,453,281.480000Z" transform="matrix(1 0 0 1 472.64294680687289 -111.56191487389525)" fill="rgb(158,131,255)" stroke="none" stroke-width="1"/><path id="emcgrzv9a01831" d="M453,281.480000C453,289.120000,445.700000,295.300000,442.900000,302.110000C440.100000,308.920000,440.990000,318.410000,435.900000,323.980000C430.980000,329.340000,421.390000,329.390000,414.780000,333.220000C408.500000,336.840000,403.780000,345.220000,396.400000,347.110000C389.400000,348.920000,381.230000,343.980000,373.540000,343.980000C365.850000,343.980000,357.680000,348.920000,350.680000,347.110000C343.270000,345.200000,338.580000,336.840000,332.300000,333.220000C325.690000,329.390000,316.100000,329.340000,311.180000,323.980000C306.050000,318.410000,306.950000,308.930000,304.180000,302.110000C301.410000,295.290000,294.080000,289.110000,294.080000,281.480000C294.080000,273.850000,301.380000,267.660000,304.180000,260.850000C306.980000,254.040000,306.090000,244.560000,311.180000,238.980000C316.100000,233.630000,325.690000,233.570000,332.300000,229.750000C338.580000,226.120000,343.300000,217.750000,350.680000,215.850000C357.680000,214.050000,365.850000,218.980000,373.540000,218.980000C381.230000,218.980000,389.400000,214.050000,396.400000,215.850000C403.810000,217.770000,408.500000,226.120000,414.780000,229.750000C421.390000,233.570000,430.980000,233.630000,435.910000,238.980000C441.030000,244.560000,440.130000,254.030000,442.910000,260.850000C445.690000,267.670000,453,273.850000,453,281.480000Z" transform="matrix(1 0 0 1 456.94880880681023 -16.78787717173144)" fill="rgb(158,131,255)" stroke="none" stroke-width="1"/><path id="emcgrzv9a01832" d="M453,281.480000C453,289.120000,445.700000,295.300000,442.900000,302.110000C440.100000,308.920000,440.990000,318.410000,435.900000,323.980000C430.980000,329.340000,421.390000,329.390000,414.780000,333.220000C408.500000,336.840000,403.780000,345.220000,396.400000,347.110000C389.400000,348.920000,381.230000,343.980000,373.540000,343.980000C365.850000,343.980000,357.680000,348.920000,350.680000,347.110000C343.270000,345.200000,338.580000,336.840000,332.300000,333.220000C325.690000,329.390000,316.100000,329.340000,311.180000,323.980000C306.050000,318.410000,306.950000,308.930000,304.180000,302.110000C301.410000,295.290000,294.080000,289.110000,294.080000,281.480000C294.080000,273.850000,301.380000,267.660000,304.180000,260.850000C306.980000,254.040000,306.090000,244.560000,311.180000,238.980000C316.100000,233.630000,325.690000,233.570000,332.300000,229.750000C338.580000,226.120000,343.300000,217.750000,350.680000,215.850000C357.680000,214.050000,365.850000,218.980000,373.540000,218.980000C381.230000,218.980000,389.400000,214.050000,396.400000,215.850000C403.810000,217.770000,408.500000,226.120000,414.780000,229.750000C421.390000,233.570000,430.980000,233.630000,435.910000,238.980000C441.030000,244.560000,440.130000,254.030000,442.910000,260.850000C445.690000,267.670000,453,273.850000,453,281.480000Z" transform="matrix(1 0 0 1 583.95735335017469 -61.95789504527099)" fill="rgb(158,131,255)" stroke="none" stroke-width="1"/><path id="emcgrzv9a01833" d="M453,281.480000C453,289.120000,445.700000,295.300000,442.900000,302.110000C440.100000,308.920000,440.990000,318.410000,435.900000,323.980000C430.980000,329.340000,421.390000,329.390000,414.780000,333.220000C408.500000,336.840000,403.780000,345.220000,396.400000,347.110000C389.400000,348.920000,381.230000,343.980000,373.540000,343.980000C365.850000,343.980000,357.680000,348.920000,350.680000,347.110000C343.270000,345.200000,338.580000,336.840000,332.300000,333.220000C325.690000,329.390000,316.100000,329.340000,311.180000,323.980000C306.050000,318.410000,306.950000,308.930000,304.180000,302.110000C301.410000,295.290000,294.080000,289.110000,294.080000,281.480000C294.080000,273.850000,301.380000,267.660000,304.180000,260.850000C306.980000,254.040000,306.090000,244.560000,311.180000,238.980000C316.100000,233.630000,325.690000,233.570000,332.300000,229.750000C338.580000,226.120000,343.300000,217.750000,350.680000,215.850000C357.680000,214.050000,365.850000,218.980000,373.540000,218.980000C381.230000,218.980000,389.400000,214.050000,396.400000,215.850000C403.810000,217.770000,408.500000,226.120000,414.780000,229.750000C421.390000,233.570000,430.980000,233.630000,435.910000,238.980000C441.030000,244.560000,440.130000,254.030000,442.910000,260.850000C445.690000,267.670000,453,273.850000,453,281.480000Z" transform="matrix(1 0 0 1 624.14939494762586 -127.98491388878728)" fill="rgb(158,131,255)" stroke="none" stroke-width="1"/><path id="emcgrzv9a01834" d="M453,281.480000C453,289.120000,445.700000,295.300000,442.900000,302.110000C440.100000,308.920000,440.990000,318.410000,435.900000,323.980000C430.980000,329.340000,421.390000,329.390000,414.780000,333.220000C408.500000,336.840000,403.780000,345.220000,396.400000,347.110000C389.400000,348.920000,381.230000,343.980000,373.540000,343.980000C365.850000,343.980000,357.680000,348.920000,350.680000,347.110000C343.270000,345.200000,338.580000,336.840000,332.300000,333.220000C325.690000,329.390000,316.100000,329.340000,311.180000,323.980000C306.050000,318.410000,306.950000,308.930000,304.180000,302.110000C301.410000,295.290000,294.080000,289.110000,294.080000,281.480000C294.080000,273.850000,301.380000,267.660000,304.180000,260.850000C306.980000,254.040000,306.090000,244.560000,311.180000,238.980000C316.100000,233.630000,325.690000,233.570000,332.300000,229.750000C338.580000,226.120000,343.300000,217.750000,350.680000,215.850000C357.680000,214.050000,365.850000,218.980000,373.540000,218.980000C381.230000,218.980000,389.400000,214.050000,396.400000,215.850000C403.810000,217.770000,408.500000,226.120000,414.780000,229.750000C421.390000,233.570000,430.980000,233.630000,435.910000,238.980000C441.030000,244.560000,440.130000,254.030000,442.910000,260.850000C445.690000,267.670000,453,273.850000,453,281.480000Z" transform="matrix(1 0 0 1 694.78137601897083 -29.50787718105965)" fill="rgb(158,131,255)" stroke="none" stroke-width="1"/><path id="emcgrzv9a01835" d="M453,281.480000C453,289.120000,445.700000,295.300000,442.900000,302.110000C440.100000,308.920000,440.990000,318.410000,435.900000,323.980000C430.980000,329.340000,421.390000,329.390000,414.780000,333.220000C408.500000,336.840000,403.780000,345.220000,396.400000,347.110000C389.400000,348.920000,381.230000,343.980000,373.540000,343.980000C365.850000,343.980000,357.680000,348.920000,350.680000,347.110000C343.270000,345.200000,338.580000,336.840000,332.300000,333.220000C325.690000,329.390000,316.100000,329.340000,311.180000,323.980000C306.050000,318.410000,306.950000,308.930000,304.180000,302.110000C301.410000,295.290000,294.080000,289.110000,294.080000,281.480000C294.080000,273.850000,301.380000,267.660000,304.180000,260.850000C306.980000,254.040000,306.090000,244.560000,311.180000,238.980000C316.100000,233.630000,325.690000,233.570000,332.300000,229.750000C338.580000,226.120000,343.300000,217.750000,350.680000,215.850000C357.680000,214.050000,365.850000,218.980000,373.540000,218.980000C381.230000,218.980000,389.400000,214.050000,396.400000,215.850000C403.810000,217.770000,408.500000,226.120000,414.780000,229.750000C421.390000,233.570000,430.980000,233.630000,435.910000,238.980000C441.030000,244.560000,440.130000,254.030000,442.910000,260.850000C445.690000,267.670000,453,273.850000,453,281.480000Z" transform="matrix(1 0 0 1 746.40987931382404 -116.66676138946596)" fill="rgb(158,131,255)" stroke="none" stroke-width="1"/><path id="emcgrzv9a01836" d="M453,281.480000C453,289.120000,445.700000,295.300000,442.900000,302.110000C440.100000,308.920000,440.990000,318.410000,435.900000,323.980000C430.980000,329.340000,421.390000,329.390000,414.780000,333.220000C408.500000,336.840000,403.780000,345.220000,396.400000,347.110000C389.400000,348.920000,381.230000,343.980000,373.540000,343.980000C365.850000,343.980000,357.680000,348.920000,350.680000,347.110000C343.270000,345.200000,338.580000,336.840000,332.300000,333.220000C325.690000,329.390000,316.100000,329.340000,311.180000,323.980000C306.050000,318.410000,306.950000,308.930000,304.180000,302.110000C301.410000,295.290000,294.080000,289.110000,294.080000,281.480000C294.080000,273.850000,301.380000,267.660000,304.180000,260.850000C306.980000,254.040000,306.090000,244.560000,311.180000,238.980000C316.100000,233.630000,325.690000,233.570000,332.300000,229.750000C338.580000,226.120000,343.300000,217.750000,350.680000,215.850000C357.680000,214.050000,365.850000,218.980000,373.540000,218.980000C381.230000,218.980000,389.400000,214.050000,396.400000,215.850000C403.810000,217.770000,408.500000,226.120000,414.780000,229.750000C421.390000,233.570000,430.980000,233.630000,435.910000,238.980000C441.030000,244.560000,440.130000,254.030000,442.910000,260.850000C445.690000,267.670000,453,273.850000,453,281.480000Z" transform="matrix(1 0 0 1 829.91698549706177 -61.95789503909833)" fill="rgb(158,131,255)" stroke="none" stroke-width="1"/><path id="emcgrzv9a01837" d="M453,281.480000C453,289.120000,445.700000,295.300000,442.900000,302.110000C440.100000,308.920000,440.990000,318.410000,435.900000,323.980000C430.980000,329.340000,421.390000,329.390000,414.780000,333.220000C408.500000,336.840000,403.780000,345.220000,396.400000,347.110000C389.400000,348.920000,381.230000,343.980000,373.540000,343.980000C365.850000,343.980000,357.680000,348.920000,350.680000,347.110000C343.270000,345.200000,338.580000,336.840000,332.300000,333.220000C325.690000,329.390000,316.100000,329.340000,311.180000,323.980000C306.050000,318.410000,306.950000,308.930000,304.180000,302.110000C301.410000,295.290000,294.080000,289.110000,294.080000,281.480000C294.080000,273.850000,301.380000,267.660000,304.180000,260.850000C306.980000,254.040000,306.090000,244.560000,311.180000,238.980000C316.100000,233.630000,325.690000,233.570000,332.300000,229.750000C338.580000,226.120000,343.300000,217.750000,350.680000,215.850000C357.680000,214.050000,365.850000,218.980000,373.540000,218.980000C381.230000,218.980000,389.400000,214.050000,396.400000,215.850000C403.810000,217.770000,408.500000,226.120000,414.780000,229.750000C421.390000,233.570000,430.980000,233.630000,435.910000,238.980000C441.030000,244.560000,440.130000,254.030000,442.910000,260.850000C445.690000,267.670000,453,273.850000,453,281.480000Z" transform="matrix(1 0 0 1 929.21681010700865 -3.04210494594972)" fill="rgb(158,131,255)" stroke="none" stroke-width="1"/><path id="emcgrzv9a01838" d="M453,281.480000C453,289.120000,445.700000,295.300000,442.900000,302.110000C440.100000,308.920000,440.990000,318.410000,435.900000,323.980000C430.980000,329.340000,421.390000,329.390000,414.780000,333.220000C408.500000,336.840000,403.780000,345.220000,396.400000,347.110000C389.400000,348.920000,381.230000,343.980000,373.540000,343.980000C365.850000,343.980000,357.680000,348.920000,350.680000,347.110000C343.270000,345.200000,338.580000,336.840000,332.300000,333.220000C325.690000,329.390000,316.100000,329.340000,311.180000,323.980000C306.050000,318.410000,306.950000,308.930000,304.180000,302.110000C301.410000,295.290000,294.080000,289.110000,294.080000,281.480000C294.080000,273.850000,301.380000,267.660000,304.180000,260.850000C306.980000,254.040000,306.090000,244.560000,311.180000,238.980000C316.100000,233.630000,325.690000,233.570000,332.300000,229.750000C338.580000,226.120000,343.300000,217.750000,350.680000,215.850000C357.680000,214.050000,365.850000,218.980000,373.540000,218.980000C381.230000,218.980000,389.400000,214.050000,396.400000,215.850000C403.810000,217.770000,408.500000,226.120000,414.780000,229.750000C421.390000,233.570000,430.980000,233.630000,435.910000,238.980000C441.030000,244.560000,440.130000,254.030000,442.910000,260.850000C445.690000,267.670000,453,273.850000,453,281.480000Z" transform="matrix(1 0 0 1 952.68887573648317 -101.04210496148788)" fill="rgb(158,131,255)" stroke="none" stroke-width="1"/><path id="emcgrzv9a01839" d="M453,281.480000C453,289.120000,445.700000,295.300000,442.900000,302.110000C440.100000,308.920000,440.990000,318.410000,435.900000,323.980000C430.980000,329.340000,421.390000,329.390000,414.780000,333.220000C408.500000,336.840000,403.780000,345.220000,396.400000,347.110000C389.400000,348.920000,381.230000,343.980000,373.540000,343.980000C365.850000,343.980000,357.680000,348.920000,350.680000,347.110000C343.270000,345.200000,338.580000,336.840000,332.300000,333.220000C325.690000,329.390000,316.100000,329.340000,311.180000,323.980000C306.050000,318.410000,306.950000,308.930000,304.180000,302.110000C301.410000,295.290000,294.080000,289.110000,294.080000,281.480000C294.080000,273.850000,301.380000,267.660000,304.180000,260.850000C306.980000,254.040000,306.090000,244.560000,311.180000,238.980000C316.100000,233.630000,325.690000,233.570000,332.300000,229.750000C338.580000,226.120000,343.300000,217.750000,350.680000,215.850000C357.680000,214.050000,365.850000,218.980000,373.540000,218.980000C381.230000,218.980000,389.400000,214.050000,396.400000,215.850000C403.810000,217.770000,408.500000,226.120000,414.780000,229.750000C421.390000,233.570000,430.980000,233.630000,435.910000,238.980000C441.030000,244.560000,440.130000,254.030000,442.910000,260.850000C445.690000,267.670000,453,273.850000,453,281.480000Z" transform="matrix(1 0 0 1 899.93987930803814 -137.46788596329415)" fill="rgb(158,131,255)" stroke="none" stroke-width="1"/><path id="emcgrzv9a01840" d="M453,281.480000C453,289.120000,445.700000,295.300000,442.900000,302.110000C440.100000,308.920000,440.990000,318.410000,435.900000,323.980000C430.980000,329.340000,421.390000,329.390000,414.780000,333.220000C408.500000,336.840000,403.780000,345.220000,396.400000,347.110000C389.400000,348.920000,381.230000,343.980000,373.540000,343.980000C365.850000,343.980000,357.680000,348.920000,350.680000,347.110000C343.270000,345.200000,338.580000,336.840000,332.300000,333.220000C325.690000,329.390000,316.100000,329.340000,311.180000,323.980000C306.050000,318.410000,306.950000,308.930000,304.180000,302.110000C301.410000,295.290000,294.080000,289.110000,294.080000,281.480000C294.080000,273.850000,301.380000,267.660000,304.180000,260.850000C306.980000,254.040000,306.090000,244.560000,311.180000,238.980000C316.100000,233.630000,325.690000,233.570000,332.300000,229.750000C338.580000,226.120000,343.300000,217.750000,350.680000,215.850000C357.680000,214.050000,365.850000,218.980000,373.540000,218.980000C381.230000,218.980000,389.400000,214.050000,396.400000,215.850000C403.810000,217.770000,408.500000,226.120000,414.780000,229.750000C421.390000,233.570000,430.980000,233.630000,435.910000,238.980000C441.030000,244.560000,440.130000,254.030000,442.910000,260.850000C445.690000,267.670000,453,273.850000,453,281.480000Z" transform="matrix(1 0 0 1 1063.42618787031779 -127.98491388261445)" fill="rgb(158,131,255)" stroke="none" stroke-width="1"/><path id="emcgrzv9a01841" d="M453,281.480000C453,289.120000,445.700000,295.300000,442.900000,302.110000C440.100000,308.920000,440.990000,318.410000,435.900000,323.980000C430.980000,329.340000,421.390000,329.390000,414.780000,333.220000C408.500000,336.840000,403.780000,345.220000,396.400000,347.110000C389.400000,348.920000,381.230000,343.980000,373.540000,343.980000C365.850000,343.980000,357.680000,348.920000,350.680000,347.110000C343.270000,345.200000,338.580000,336.840000,332.300000,333.220000C325.690000,329.390000,316.100000,329.340000,311.180000,323.980000C306.050000,318.410000,306.950000,308.930000,304.180000,302.110000C301.410000,295.290000,294.080000,289.110000,294.080000,281.480000C294.080000,273.850000,301.380000,267.660000,304.180000,260.850000C306.980000,254.040000,306.090000,244.560000,311.180000,238.980000C316.100000,233.630000,325.690000,233.570000,332.300000,229.750000C338.580000,226.120000,343.300000,217.750000,350.680000,215.850000C357.680000,214.050000,365.850000,218.980000,373.540000,218.980000C381.230000,218.980000,389.400000,214.050000,396.400000,215.850000C403.810000,217.770000,408.500000,226.120000,414.780000,229.750000C421.390000,233.570000,430.980000,233.630000,435.910000,238.980000C441.030000,244.560000,440.130000,254.030000,442.910000,260.850000C445.690000,267.670000,453,273.850000,453,281.480000Z" transform="matrix(1 0 0 1 1063.42618786414482 -46.97298115670103)" fill="rgb(158,131,255)" stroke="none" stroke-width="1"/><path id="emcgrzv9a01842" d="M453,281.480000C453,289.120000,445.700000,295.300000,442.900000,302.110000C440.100000,308.920000,440.990000,318.410000,435.900000,323.980000C430.980000,329.340000,421.390000,329.390000,414.780000,333.220000C408.500000,336.840000,403.780000,345.220000,396.400000,347.110000C389.400000,348.920000,381.230000,343.980000,373.540000,343.980000C365.850000,343.980000,357.680000,348.920000,350.680000,347.110000C343.270000,345.200000,338.580000,336.840000,332.300000,333.220000C325.690000,329.390000,316.100000,329.340000,311.180000,323.980000C306.050000,318.410000,306.950000,308.930000,304.180000,302.110000C301.410000,295.290000,294.080000,289.110000,294.080000,281.480000C294.080000,273.850000,301.380000,267.660000,304.180000,260.850000C306.980000,254.040000,306.090000,244.560000,311.180000,238.980000C316.100000,233.630000,325.690000,233.570000,332.300000,229.750000C338.580000,226.120000,343.300000,217.750000,350.680000,215.850000C357.680000,214.050000,365.850000,218.980000,373.540000,218.980000C381.230000,218.980000,389.400000,214.050000,396.400000,215.850000C403.810000,217.770000,408.500000,226.120000,414.780000,229.750000C421.390000,233.570000,430.980000,233.630000,435.910000,238.980000C441.030000,244.560000,440.130000,254.030000,442.910000,260.850000C445.690000,267.670000,453,273.850000,453,281.480000Z" transform="matrix(1 0 0 1 1185.67887573176472 -79.04210496379437)" fill="rgb(158,131,255)" stroke="none" stroke-width="1"/><path id="emcgrzv9a01843" d="M453,281.480000C453,289.120000,445.700000,295.300000,442.900000,302.110000C440.100000,308.920000,440.990000,318.410000,435.900000,323.980000C430.980000,329.340000,421.390000,329.390000,414.780000,333.220000C408.500000,336.840000,403.780000,345.220000,396.400000,347.110000C389.400000,348.920000,381.230000,343.980000,373.540000,343.980000C365.850000,343.980000,357.680000,348.920000,350.680000,347.110000C343.270000,345.200000,338.580000,336.840000,332.300000,333.220000C325.690000,329.390000,316.100000,329.340000,311.180000,323.980000C306.050000,318.410000,306.950000,308.930000,304.180000,302.110000C301.410000,295.290000,294.080000,289.110000,294.080000,281.480000C294.080000,273.850000,301.380000,267.660000,304.180000,260.850000C306.980000,254.040000,306.090000,244.560000,311.180000,238.980000C316.100000,233.630000,325.690000,233.570000,332.300000,229.750000C338.580000,226.120000,343.300000,217.750000,350.680000,215.850000C357.680000,214.050000,365.850000,218.980000,373.540000,218.980000C381.230000,218.980000,389.400000,214.050000,396.400000,215.850000C403.810000,217.770000,408.500000,226.120000,414.780000,229.750000C421.390000,233.570000,430.980000,233.630000,435.910000,238.980000C441.030000,244.560000,440.130000,254.030000,442.910000,260.850000C445.690000,267.670000,453,273.850000,453,281.480000Z" transform="matrix(1 0 0 1 1274.91221001040549 -104.56139996620539)" fill="rgb(158,131,255)" stroke="none" stroke-width="1"/><path id="emcgrzv9a01844" d="M453,281.480000C453,289.120000,445.700000,295.300000,442.900000,302.110000C440.100000,308.920000,440.990000,318.410000,435.900000,323.980000C430.980000,329.340000,421.390000,329.390000,414.780000,333.220000C408.500000,336.840000,403.780000,345.220000,396.400000,347.110000C389.400000,348.920000,381.230000,343.980000,373.540000,343.980000C365.850000,343.980000,357.680000,348.920000,350.680000,347.110000C343.270000,345.200000,338.580000,336.840000,332.300000,333.220000C325.690000,329.390000,316.100000,329.340000,311.180000,323.980000C306.050000,318.410000,306.950000,308.930000,304.180000,302.110000C301.410000,295.290000,294.080000,289.110000,294.080000,281.480000C294.080000,273.850000,301.380000,267.660000,304.180000,260.850000C306.980000,254.040000,306.090000,244.560000,311.180000,238.980000C316.100000,233.630000,325.690000,233.570000,332.300000,229.750000C338.580000,226.120000,343.300000,217.750000,350.680000,215.850000C357.680000,214.050000,365.850000,218.980000,373.540000,218.980000C381.230000,218.980000,389.400000,214.050000,396.400000,215.850000C403.810000,217.770000,408.500000,226.120000,414.780000,229.750000C421.390000,233.570000,430.980000,233.630000,435.910000,238.980000C441.030000,244.560000,440.130000,254.030000,442.910000,260.850000C445.690000,267.670000,453,273.850000,453,281.480000Z" transform="matrix(1 0 0 1 -87.45999999125110 -64.99999999122099)" fill="rgb(158,131,255)" stroke="none" stroke-width="1"/><path id="emcgrzv9a01845" d="M504,216.480000C504,224.120000,496.700000,230.300000,493.900000,237.110000C491.100000,243.920000,491.990000,253.410000,486.900000,258.980000C481.980000,264.340000,472.390000,264.390000,465.780000,268.220000C459.500000,271.840000,454.780000,280.220000,447.400000,282.110000C440.400000,283.920000,432.230000,278.980000,424.540000,278.980000C416.850000,278.980000,408.680000,283.920000,401.680000,282.110000C394.270000,280.200000,389.580000,271.840000,383.300000,268.220000C376.690000,264.390000,367.100000,264.340000,362.180000,258.980000C357.050000,253.410000,357.950000,243.930000,355.180000,237.110000C352.410000,230.290000,345.080000,224.110000,345.080000,216.480000C345.080000,208.850000,352.380000,202.660000,355.180000,195.850000C357.980000,189.040000,357.090000,179.560000,362.180000,173.980000C367.100000,168.630000,376.690000,168.570000,383.300000,164.750000C389.580000,161.120000,394.300000,152.750000,401.680000,150.850000C408.680000,149.050000,416.850000,153.980000,424.540000,153.980000C432.230000,153.980000,440.400000,149.050000,447.400000,150.850000C454.810000,152.770000,459.500000,161.120000,465.780000,164.750000C472.390000,168.570000,481.980000,168.630000,486.910000,173.980000C492.030000,179.560000,491.130000,189.030000,493.910000,195.850000C496.690000,202.670000,504,208.850000,504,216.480000Z" fill="rgb(158,131,255)" stroke="none" stroke-width="1"/><path id="emcgrzv9a01846" d="M552,118.480000C552,126.120000,544.700000,132.300000,541.900000,139.110000C539.100000,145.920000,539.990000,155.410000,534.900000,160.980000C529.980000,166.340000,520.390000,166.390000,513.780000,170.220000C507.500000,173.840000,502.780000,182.220000,495.400000,184.110000C488.400000,185.920000,480.230000,180.980000,472.540000,180.980000C464.850000,180.980000,456.680000,185.920000,449.680000,184.110000C442.270000,182.200000,437.580000,173.840000,431.300000,170.220000C424.690000,166.390000,415.100000,166.340000,410.180000,160.980000C405.050000,155.410000,405.950000,145.980000,403.180000,139.110000C400.410000,132.240000,393.080000,126.110000,393.080000,118.480000C393.080000,110.850000,400.380000,104.660000,403.180000,97.850000C405.980000,91.040000,405.090000,81.560000,410.180000,75.980000C415.100000,70.630000,424.690000,70.570000,431.300000,66.750000C437.580000,63.120000,442.300000,54.750000,449.680000,52.850000C456.680000,51.050000,464.850000,55.980000,472.540000,55.980000C480.230000,55.980000,488.400000,51.050000,495.400000,52.850000C502.810000,54.770000,507.500000,63.120000,513.780000,66.750000C520.390000,70.570000,529.980000,70.630000,534.910000,75.980000C540.030000,81.560000,539.130000,90.980000,541.910000,97.850000C544.690000,104.720000,552,110.850000,552,118.480000Z" fill="rgb(158,131,255)" stroke="none" stroke-width="1"/><path id="emcgrzv9a01847" d="M427,128.480000C427,136.120000,419.700000,142.300000,416.900000,149.110000C414.100000,155.920000,414.990000,165.410000,409.900000,170.980000C404.980000,176.340000,395.390000,176.390000,388.780000,180.220000C382.500000,183.840000,377.780000,192.220000,370.400000,194.110000C363.400000,195.920000,355.230000,190.980000,347.540000,190.980000C339.850000,190.980000,331.680000,195.920000,324.680000,194.110000C317.270000,192.200000,312.580000,183.840000,306.300000,180.220000C299.690000,176.390000,290.100000,176.340000,285.180000,170.980000C280.050000,165.410000,280.950000,155.980000,278.180000,149.110000C275.410000,142.240000,268.080000,136.110000,268.080000,128.480000C268.080000,120.850000,275.380000,114.660000,278.180000,107.850000C280.980000,101.040000,280.090000,91.560000,285.180000,85.980000C290.100000,80.630000,299.690000,80.570000,306.300000,76.750000C312.580000,73.120000,317.300000,64.750000,324.680000,62.850000C331.680000,61.050000,339.850000,65.980000,347.540000,65.980000C355.230000,65.980000,363.400000,61.050000,370.400000,62.850000C377.810000,64.770000,382.500000,73.120000,388.780000,76.750000C395.390000,80.570000,404.980000,80.630000,409.910000,85.980000C415.030000,91.560000,414.130000,100.980000,416.910000,107.850000C419.690000,114.720000,427,120.850000,427,128.480000Z" fill="rgb(158,131,255)" stroke="none" stroke-width="1"/><path id="emcgrzv9a01848" d="M310,140.480000C310,148.120000,302.700000,154.300000,299.900000,161.110000C297.100000,167.920000,297.990000,177.410000,292.900000,182.980000C287.980000,188.340000,278.390000,188.390000,271.780000,192.220000C265.500000,195.840000,260.780000,204.220000,253.400000,206.110000C246.400000,207.920000,238.230000,202.980000,230.540000,202.980000C222.850000,202.980000,214.680000,207.920000,207.680000,206.110000C200.270000,204.200000,195.580000,195.840000,189.300000,192.220000C182.690000,188.390000,173.100000,188.340000,168.180000,182.980000C163.050000,177.410000,163.950000,167.980000,161.180000,161.110000C158.410000,154.240000,151.080000,148.110000,151.080000,140.480000C151.080000,132.850000,158.380000,126.660000,161.180000,119.850000C163.980000,113.040000,163.090000,103.560000,168.180000,97.980000C173.100000,92.630000,182.690000,92.570000,189.300000,88.750000C195.580000,85.120000,200.300000,76.750000,207.680000,74.850000C214.680000,73.050000,222.850000,77.980000,230.540000,77.980000C238.230000,77.980000,246.400000,73.050000,253.400000,74.850000C260.810000,76.770000,265.500000,85.120000,271.780000,88.750000C278.390000,92.570000,287.980000,92.630000,292.910000,97.980000C298.030000,103.560000,297.130000,112.980000,299.910000,119.850000C302.690000,126.720000,310,132.850000,310,140.480000Z" fill="rgb(158,131,255)" stroke="none" stroke-width="1"/><path id="emcgrzv9a01849" d="M242,162.480000C242,170.120000,234.700000,176.300000,231.900000,183.110000C229.100000,189.920000,229.990000,199.410000,224.900000,204.980000C219.980000,210.340000,210.390000,210.390000,203.780000,214.220000C197.500000,217.840000,192.780000,226.220000,185.400000,228.110000C178.400000,229.920000,170.230000,224.980000,162.540000,224.980000C154.850000,224.980000,146.680000,229.920000,139.680000,228.110000C132.270000,226.200000,127.580000,217.840000,121.300000,214.220000C114.690000,210.390000,105.100000,210.340000,100.180000,204.980000C95.050000,199.410000,95.950000,189.980000,93.180000,183.110000C90.410000,176.240000,83,170.120000,83,162.480000C83,154.840000,90.300000,148.660000,93.100000,141.850000C95.900000,135.040000,95.010000,125.560000,100.100000,119.980000C105.020000,114.630000,114.610000,114.570000,121.220000,110.750000C127.500000,107.120000,132.220000,98.750000,139.600000,96.850000C146.600000,95.050000,154.770000,99.980000,162.460000,99.980000C170.150000,99.980000,178.320000,95.050000,185.320000,96.850000C192.730000,98.770000,197.420000,107.120000,203.700000,110.750000C210.310000,114.570000,219.900000,114.630000,224.830000,119.980000C229.950000,125.560000,229.050000,134.980000,231.830000,141.850000C234.610000,148.720000,242,154.850000,242,162.480000Z" fill="rgb(158,131,255)" stroke="none" stroke-width="1"/></g><g id="emcgrzv9a01850"><path id="emcgrzv9a01851" d="M422.390000,147C422.390000,152.460000,413.700000,156.440000,412.040000,161.360000C410.380000,166.280000,414.790000,174.840000,411.600000,179.050000C408.410000,183.260000,399.070000,181.300000,394.700000,184.360000C390.330000,187.420000,389.110000,196.840000,383.970000,198.440000C379,200,372.570000,193,367.100000,193C361.630000,193,355.170000,200,350.230000,198.440000C345.090000,196.830000,343.790000,187.360000,339.500000,184.360000C335.210000,181.360000,325.790000,183.270000,322.600000,179.050000C319.410000,174.830000,323.870000,166.430000,322.160000,161.360000C320.450000,156.290000,311.810000,152.460000,311.810000,147C311.810000,141.540000,320.500000,137.560000,322.160000,132.650000C323.870000,127.570000,319.420000,119.170000,322.600000,114.950000C325.780000,110.730000,335.130000,112.710000,339.500000,109.650000C343.870000,106.590000,345.090000,97.170000,350.230000,95.560000C355.170000,94,361.630000,101,367.100000,101C372.570000,101,379,94,384,95.540000C389.140000,97.150000,390.440000,106.620000,394.730000,109.630000C399.020000,112.640000,408.440000,110.710000,411.630000,114.940000C414.820000,119.170000,410.360000,127.550000,412.070000,132.630000C413.700000,137.540000,422.390000,141.520000,422.390000,147Z" fill="rgb(215,210,255)" stroke="none" stroke-width="1"/><path id="emcgrzv9a01852" d="M471.790000,184.280000C471.790000,189.740000,463.100000,193.720000,461.440000,198.640000C459.730000,203.710000,464.190000,212.120000,461,216.330000C457.810000,220.540000,448.470000,218.570000,444.100000,221.640000C439.730000,224.710000,438.510000,234.110000,433.370000,235.720000C428.430000,237.270000,421.970000,230.280000,416.500000,230.280000C411.030000,230.280000,404.580000,237.280000,399.630000,235.720000C394.490000,234.110000,393.190000,224.640000,388.900000,221.640000C384.610000,218.640000,375.190000,220.550000,372,216.330000C368.810000,212.110000,373.270000,203.710000,371.560000,198.640000C369.900000,193.720000,361.220000,189.740000,361.220000,184.280000C361.220000,178.820000,369.900000,174.840000,371.560000,169.920000C373.220000,165,368.820000,156.440000,372,152.230000C375.180000,148.020000,384.530000,149.990000,388.900000,146.930000C393.270000,143.870000,394.490000,134.450000,399.640000,132.840000C404.580000,131.300000,411.040000,138.280000,416.500000,138.280000C421.960000,138.280000,428.430000,131.280000,433.370000,132.840000C438.510000,134.450000,439.810000,143.920000,444.100000,146.930000C448.390000,149.940000,457.810000,148.010000,461,152.230000C464.190000,156.450000,459.730000,164.850000,461.440000,169.920000C463.150000,174.990000,471.790000,178.820000,471.790000,184.280000Z" fill="rgb(215,210,255)" stroke="none" stroke-width="1"/><path id="emcgrzv9a01853" d="M505.790000,134.280000C505.790000,139.740000,497.100000,143.720000,495.440000,148.640000C493.730000,153.710000,498.190000,162.120000,495,166.330000C491.810000,170.540000,482.470000,168.570000,478.100000,171.640000C473.730000,174.710000,472.510000,184.110000,467.370000,185.720000C462.430000,187.270000,455.970000,180.280000,450.500000,180.280000C445.030000,180.280000,438.580000,187.280000,433.630000,185.720000C428.490000,184.110000,427.190000,174.640000,422.900000,171.640000C418.610000,168.640000,409.190000,170.550000,406,166.330000C402.810000,162.110000,407.270000,153.710000,405.560000,148.640000C403.900000,143.720000,395.220000,139.740000,395.220000,134.280000C395.220000,128.820000,403.900000,124.840000,405.560000,119.920000C407.270000,114.850000,402.820000,106.440000,406,102.230000C409.180000,98.020000,418.530000,99.990000,422.900000,96.930000C427.270000,93.870000,428.490000,84.450000,433.640000,82.840000C438.580000,81.300000,445.040000,88.280000,450.500000,88.280000C455.960000,88.280000,462.430000,81.280000,467.370000,82.840000C472.510000,84.450000,473.810000,93.920000,478.100000,96.930000C482.390000,99.940000,491.810000,98.010000,495,102.230000C498.190000,106.450000,493.730000,114.850000,495.440000,119.920000C497.100000,124.840000,505.790000,128.820000,505.790000,134.280000Z" fill="rgb(215,210,255)" stroke="none" stroke-width="1"/><path id="emcgrzv9a01854" d="M451.690000,244.170000C451.690000,249.630000,443.010000,253.610000,441.350000,258.520000C439.640000,263.600000,444.090000,272,440.910000,276.220000C437.730000,280.440000,428.380000,278.460000,424.010000,281.520000C419.640000,284.580000,418.420000,294,413.280000,295.610000C408.330000,297.150000,401.880000,290.170000,396.410000,290.170000C390.940000,290.170000,384.480000,297.170000,379.540000,295.610000C374.400000,294,373.100000,284.530000,368.810000,281.520000C364.520000,278.510000,355.100000,280.440000,351.910000,276.210000C348.720000,271.980000,353.180000,263.600000,351.470000,258.520000C349.810000,253.600000,341.120000,249.630000,341.120000,244.170000C341.120000,238.710000,349.810000,234.730000,351.470000,229.810000C353.180000,224.740000,348.720000,216.330000,351.910000,212.120000C355.100000,207.910000,364.440000,209.870000,368.810000,206.810000C373.180000,203.750000,374.400000,194.330000,379.540000,192.730000C384.480000,191.180000,390.940000,198.170000,396.410000,198.170000C401.880000,198.170000,408.340000,191.170000,413.280000,192.730000C418.420000,194.330000,419.720000,203.810000,424.010000,206.810000C428.300000,209.810000,437.720000,207.900000,440.910000,212.120000C444.100000,216.340000,439.640000,224.740000,441.350000,229.810000C443,234.730000,451.690000,238.710000,451.690000,244.170000Z" fill="rgb(215,210,255)" stroke="none" stroke-width="1"/><path id="emcgrzv9a01855" d="M217.380000,162.510000C217.380000,167.970000,208.690000,171.940000,207.030000,176.860000C205.320000,181.940000,209.780000,190.340000,206.600000,194.550000C203.420000,198.760000,194.060000,196.800000,189.700000,199.860000C185.340000,202.920000,184.100000,212.340000,179,214C174.060000,215.540000,167.600000,208.560000,162.130000,208.560000C156.660000,208.560000,150.210000,215.560000,145.270000,214C140.130000,212.390000,138.830000,202.920000,134.530000,199.910000C130.230000,196.900000,120.820000,198.820000,117.630000,194.600000C114.440000,190.380000,118.910000,181.990000,117.200000,176.910000C115.540000,171.990000,106.850000,168.020000,106.850000,162.560000C106.850000,157.100000,115.540000,153.120000,117.200000,148.200000C118.910000,143.130000,114.450000,134.720000,117.630000,130.510000C120.810000,126.300000,130.160000,128.260000,134.530000,125.200000C138.900000,122.140000,140.130000,112.720000,145.270000,111.120000C150.210000,109.570000,156.670000,116.560000,162.130000,116.560000C167.590000,116.560000,174.060000,109.560000,179,111.120000C184.140000,112.720000,185.440000,122.190000,189.740000,125.200000C194.040000,128.210000,203.450000,126.290000,206.640000,130.510000C209.830000,134.730000,205.360000,143.130000,207.070000,148.200000C208.690000,153.070000,217.380000,157.050000,217.380000,162.510000Z" fill="rgb(215,210,255)" stroke="none" stroke-width="1"/></g><g id="emcgrzv9a01856"><path id="emcgrzv9a01857" d="M422.390000,147C422.390000,152.460000,413.700000,156.440000,412.040000,161.360000C410.380000,166.280000,414.790000,174.840000,411.600000,179.050000C408.410000,183.260000,399.070000,181.300000,394.700000,184.360000C390.330000,187.420000,389.110000,196.840000,383.970000,198.440000C379,200,372.570000,193,367.100000,193C361.630000,193,355.170000,200,350.230000,198.440000C345.090000,196.830000,343.790000,187.360000,339.500000,184.360000C335.210000,181.360000,325.790000,183.270000,322.600000,179.050000C319.410000,174.830000,323.870000,166.430000,322.160000,161.360000C320.450000,156.290000,311.810000,152.460000,311.810000,147C311.810000,141.540000,320.500000,137.560000,322.160000,132.650000C323.870000,127.570000,319.420000,119.170000,322.600000,114.950000C325.780000,110.730000,335.130000,112.710000,339.500000,109.650000C343.870000,106.590000,345.090000,97.170000,350.230000,95.560000C355.170000,94,361.630000,101,367.100000,101C372.570000,101,379,94,384,95.540000C389.140000,97.150000,390.440000,106.620000,394.730000,109.630000C399.020000,112.640000,408.440000,110.710000,411.630000,114.940000C414.820000,119.170000,410.360000,127.550000,412.070000,132.630000C413.700000,137.540000,422.390000,141.520000,422.390000,147Z" fill="rgb(239,238,255)" stroke="none" stroke-width="1"/><path id="emcgrzv9a01858" d="M422.390000,147C422.390000,152.460000,413.700000,156.440000,412.040000,161.360000C410.380000,166.280000,414.790000,174.840000,411.600000,179.050000C408.410000,183.260000,399.070000,181.300000,394.700000,184.360000C390.330000,187.420000,389.110000,196.840000,383.970000,198.440000C379,200,372.570000,193,367.100000,193C361.630000,193,355.170000,200,350.230000,198.440000C345.090000,196.830000,343.790000,187.360000,339.500000,184.360000C335.210000,181.360000,325.790000,183.270000,322.600000,179.050000C319.410000,174.830000,323.870000,166.430000,322.160000,161.360000C320.450000,156.290000,311.810000,152.460000,311.810000,147C311.810000,141.540000,320.500000,137.560000,322.160000,132.650000C323.870000,127.570000,319.420000,119.170000,322.600000,114.950000C325.780000,110.730000,335.130000,112.710000,339.500000,109.650000C343.870000,106.590000,345.090000,97.170000,350.230000,95.560000C355.170000,94,361.630000,101,367.100000,101C372.570000,101,379,94,384,95.540000C389.140000,97.150000,390.440000,106.620000,394.730000,109.630000C399.020000,112.640000,408.440000,110.710000,411.630000,114.940000C414.820000,119.170000,410.360000,127.550000,412.070000,132.630000C413.700000,137.540000,422.390000,141.520000,422.390000,147Z" transform="matrix(1 0 0 1 202.93000000334399 65.41983143740417)" fill="rgb(239,238,255)" stroke="none" stroke-width="1"/><path id="emcgrzv9a01859" d="M422.390000,147C422.390000,152.460000,413.700000,156.440000,412.040000,161.360000C410.380000,166.280000,414.790000,174.840000,411.600000,179.050000C408.410000,183.260000,399.070000,181.300000,394.700000,184.360000C390.330000,187.420000,389.110000,196.840000,383.970000,198.440000C379,200,372.570000,193,367.100000,193C361.630000,193,355.170000,200,350.230000,198.440000C345.090000,196.830000,343.790000,187.360000,339.500000,184.360000C335.210000,181.360000,325.790000,183.270000,322.600000,179.050000C319.410000,174.830000,323.870000,166.430000,322.160000,161.360000C320.450000,156.290000,311.810000,152.460000,311.810000,147C311.810000,141.540000,320.500000,137.560000,322.160000,132.650000C323.870000,127.570000,319.420000,119.170000,322.600000,114.950000C325.780000,110.730000,335.130000,112.710000,339.500000,109.650000C343.870000,106.590000,345.090000,97.170000,350.230000,95.560000C355.170000,94,361.630000,101,367.100000,101C372.570000,101,379,94,384,95.540000C389.140000,97.150000,390.440000,106.620000,394.730000,109.630000C399.020000,112.640000,408.440000,110.710000,411.630000,114.940000C414.820000,119.170000,410.360000,127.550000,412.070000,132.630000C413.700000,137.540000,422.390000,141.520000,422.390000,147Z" transform="matrix(0.74606989228459 0 0 0.74606989228459 570.27713749385748 58.28938698380290)" fill="rgb(239,238,255)" stroke="none" stroke-width="1"/><path id="emcgrzv9a01860" d="M422.390000,147C422.390000,152.460000,413.700000,156.440000,412.040000,161.360000C410.380000,166.280000,414.790000,174.840000,411.600000,179.050000C408.410000,183.260000,399.070000,181.300000,394.700000,184.360000C390.330000,187.420000,389.110000,196.840000,383.970000,198.440000C379,200,372.570000,193,367.100000,193C361.630000,193,355.170000,200,350.230000,198.440000C345.090000,196.830000,343.790000,187.360000,339.500000,184.360000C335.210000,181.360000,325.790000,183.270000,322.600000,179.050000C319.410000,174.830000,323.870000,166.430000,322.160000,161.360000C320.450000,156.290000,311.810000,152.460000,311.810000,147C311.810000,141.540000,320.500000,137.560000,322.160000,132.650000C323.870000,127.570000,319.420000,119.170000,322.600000,114.950000C325.780000,110.730000,335.130000,112.710000,339.500000,109.650000C343.870000,106.590000,345.090000,97.170000,350.230000,95.560000C355.170000,94,361.630000,101,367.100000,101C372.570000,101,379,94,384,95.540000C389.140000,97.150000,390.440000,106.620000,394.730000,109.630000C399.020000,112.640000,408.440000,110.710000,411.630000,114.940000C414.820000,119.170000,410.360000,127.550000,412.070000,132.630000C413.700000,137.540000,422.390000,141.520000,422.390000,147Z" transform="matrix(1 0 0 1 645.93137600901275 21.48895523282589)" fill="rgb(239,238,255)" stroke="none" stroke-width="1"/><path id="emcgrzv9a01861" d="M422.390000,147C422.390000,152.460000,413.700000,156.440000,412.040000,161.360000C410.380000,166.280000,414.790000,174.840000,411.600000,179.050000C408.410000,183.260000,399.070000,181.300000,394.700000,184.360000C390.330000,187.420000,389.110000,196.840000,383.970000,198.440000C379,200,372.570000,193,367.100000,193C361.630000,193,355.170000,200,350.230000,198.440000C345.090000,196.830000,343.790000,187.360000,339.500000,184.360000C335.210000,181.360000,325.790000,183.270000,322.600000,179.050000C319.410000,174.830000,323.870000,166.430000,322.160000,161.360000C320.450000,156.290000,311.810000,152.460000,311.810000,147C311.810000,141.540000,320.500000,137.560000,322.160000,132.650000C323.870000,127.570000,319.420000,119.170000,322.600000,114.950000C325.780000,110.730000,335.130000,112.710000,339.500000,109.650000C343.870000,106.590000,345.090000,97.170000,350.230000,95.560000C355.170000,94,361.630000,101,367.100000,101C372.570000,101,379,94,384,95.540000C389.140000,97.150000,390.440000,106.620000,394.730000,109.630000C399.020000,112.640000,408.440000,110.710000,411.630000,114.940000C414.820000,119.170000,410.360000,127.550000,412.070000,132.630000C413.700000,137.540000,422.390000,141.520000,422.390000,147Z" transform="matrix(1 0 0 1 685.87939494276816 85.12090948317758)" fill="rgb(239,238,255)" stroke="none" stroke-width="1"/><path id="emcgrzv9a01862" d="M422.390000,147C422.390000,152.460000,413.700000,156.440000,412.040000,161.360000C410.380000,166.280000,414.790000,174.840000,411.600000,179.050000C408.410000,183.260000,399.070000,181.300000,394.700000,184.360000C390.330000,187.420000,389.110000,196.840000,383.970000,198.440000C379,200,372.570000,193,367.100000,193C361.630000,193,355.170000,200,350.230000,198.440000C345.090000,196.830000,343.790000,187.360000,339.500000,184.360000C335.210000,181.360000,325.790000,183.270000,322.600000,179.050000C319.410000,174.830000,323.870000,166.430000,322.160000,161.360000C320.450000,156.290000,311.810000,152.460000,311.810000,147C311.810000,141.540000,320.500000,137.560000,322.160000,132.650000C323.870000,127.570000,319.420000,119.170000,322.600000,114.950000C325.780000,110.730000,335.130000,112.710000,339.500000,109.650000C343.870000,106.590000,345.090000,97.170000,350.230000,95.560000C355.170000,94,361.630000,101,367.100000,101C372.570000,101,379,94,384,95.540000C389.140000,97.150000,390.440000,106.620000,394.730000,109.630000C399.020000,112.640000,408.440000,110.710000,411.630000,114.940000C414.820000,119.170000,410.360000,127.550000,412.070000,132.630000C413.700000,137.540000,422.390000,141.520000,422.390000,147Z" transform="matrix(1 0 0 1 467.03999999648715 82.81489602142059)" fill="rgb(239,238,255)" stroke="none" stroke-width="1"/><path id="emcgrzv9a01863" d="M422.390000,147C422.390000,152.460000,413.700000,156.440000,412.040000,161.360000C410.380000,166.280000,414.790000,174.840000,411.600000,179.050000C408.410000,183.260000,399.070000,181.300000,394.700000,184.360000C390.330000,187.420000,389.110000,196.840000,383.970000,198.440000C379,200,372.570000,193,367.100000,193C361.630000,193,355.170000,200,350.230000,198.440000C345.090000,196.830000,343.790000,187.360000,339.500000,184.360000C335.210000,181.360000,325.790000,183.270000,322.600000,179.050000C319.410000,174.830000,323.870000,166.430000,322.160000,161.360000C320.450000,156.290000,311.810000,152.460000,311.810000,147C311.810000,141.540000,320.500000,137.560000,322.160000,132.650000C323.870000,127.570000,319.420000,119.170000,322.600000,114.950000C325.780000,110.730000,335.130000,112.710000,339.500000,109.650000C343.870000,106.590000,345.090000,97.170000,350.230000,95.560000C355.170000,94,361.630000,101,367.100000,101C372.570000,101,379,94,384,95.540000C389.140000,97.150000,390.440000,106.620000,394.730000,109.630000C399.020000,112.640000,408.440000,110.710000,411.630000,114.940000C414.820000,119.170000,410.360000,127.550000,412.070000,132.630000C413.700000,137.540000,422.390000,141.520000,422.390000,147Z" transform="matrix(1 0 0 1 879.66887572491999 68.46193638952701)" fill="rgb(239,238,255)" stroke="none" stroke-width="1"/><path id="emcgrzv9a01864" d="M422.390000,147C422.390000,152.460000,413.700000,156.440000,412.040000,161.360000C410.380000,166.280000,414.790000,174.840000,411.600000,179.050000C408.410000,183.260000,399.070000,181.300000,394.700000,184.360000C390.330000,187.420000,389.110000,196.840000,383.970000,198.440000C379,200,372.570000,193,367.100000,193C361.630000,193,355.170000,200,350.230000,198.440000C345.090000,196.830000,343.790000,187.360000,339.500000,184.360000C335.210000,181.360000,325.790000,183.270000,322.600000,179.050000C319.410000,174.830000,323.870000,166.430000,322.160000,161.360000C320.450000,156.290000,311.810000,152.460000,311.810000,147C311.810000,141.540000,320.500000,137.560000,322.160000,132.650000C323.870000,127.570000,319.420000,119.170000,322.600000,114.950000C325.780000,110.730000,335.130000,112.710000,339.500000,109.650000C343.870000,106.590000,345.090000,97.170000,350.230000,95.560000C355.170000,94,361.630000,101,367.100000,101C372.570000,101,379,94,384,95.540000C389.140000,97.150000,390.440000,106.620000,394.730000,109.630000C399.020000,112.640000,408.440000,110.710000,411.630000,114.940000C414.820000,119.170000,410.360000,127.550000,412.070000,132.630000C413.700000,137.540000,422.390000,141.520000,422.390000,147Z" transform="matrix(1 0 0 1 990.94681010215174 58.17810056205091)" fill="rgb(239,238,255)" stroke="none" stroke-width="1"/><path id="emcgrzv9a01865" d="M422.390000,147C422.390000,152.460000,413.700000,156.440000,412.040000,161.360000C410.380000,166.280000,414.790000,174.840000,411.600000,179.050000C408.410000,183.260000,399.070000,181.300000,394.700000,184.360000C390.330000,187.420000,389.110000,196.840000,383.970000,198.440000C379,200,372.570000,193,367.100000,193C361.630000,193,355.170000,200,350.230000,198.440000C345.090000,196.830000,343.790000,187.360000,339.500000,184.360000C335.210000,181.360000,325.790000,183.270000,322.600000,179.050000C319.410000,174.830000,323.870000,166.430000,322.160000,161.360000C320.450000,156.290000,311.810000,152.460000,311.810000,147C311.810000,141.540000,320.500000,137.560000,322.160000,132.650000C323.870000,127.570000,319.420000,119.170000,322.600000,114.950000C325.780000,110.730000,335.130000,112.710000,339.500000,109.650000C343.870000,106.590000,345.090000,97.170000,350.230000,95.560000C355.170000,94,361.630000,101,367.100000,101C372.570000,101,379,94,384,95.540000C389.140000,97.150000,390.440000,106.620000,394.730000,109.630000C399.020000,112.640000,408.440000,110.710000,411.630000,114.940000C414.820000,119.170000,410.360000,127.550000,412.070000,132.630000C413.700000,137.540000,422.390000,141.520000,422.390000,147Z" transform="matrix(1 0 0 1 943.78994803539752 90.62811841391715)" fill="rgb(239,238,255)" stroke="none" stroke-width="1"/><path id="emcgrzv9a01866" d="M422.390000,147C422.390000,152.460000,413.700000,156.440000,412.040000,161.360000C410.380000,166.280000,414.790000,174.840000,411.600000,179.050000C408.410000,183.260000,399.070000,181.300000,394.700000,184.360000C390.330000,187.420000,389.110000,196.840000,383.970000,198.440000C379,200,372.570000,193,367.100000,193C361.630000,193,355.170000,200,350.230000,198.440000C345.090000,196.830000,343.790000,187.360000,339.500000,184.360000C335.210000,181.360000,325.790000,183.270000,322.600000,179.050000C319.410000,174.830000,323.870000,166.430000,322.160000,161.360000C320.450000,156.290000,311.810000,152.460000,311.810000,147C311.810000,141.540000,320.500000,137.560000,322.160000,132.650000C323.870000,127.570000,319.420000,119.170000,322.600000,114.950000C325.780000,110.730000,335.130000,112.710000,339.500000,109.650000C343.870000,106.590000,345.090000,97.170000,350.230000,95.560000C355.170000,94,361.630000,101,367.100000,101C372.570000,101,379,94,384,95.540000C389.140000,97.150000,390.440000,106.620000,394.730000,109.630000C399.020000,112.640000,408.440000,110.710000,411.630000,114.940000C414.820000,119.170000,410.360000,127.550000,412.070000,132.630000C413.700000,137.540000,422.390000,141.520000,422.390000,147Z" transform="matrix(1 0 0 1 728.67987931406867 48.68783066182075)" fill="rgb(239,238,255)" stroke="none" stroke-width="1"/><path id="emcgrzv9a01867" d="M422.390000,147C422.390000,152.460000,413.700000,156.440000,412.040000,161.360000C410.380000,166.280000,414.790000,174.840000,411.600000,179.050000C408.410000,183.260000,399.070000,181.300000,394.700000,184.360000C390.330000,187.420000,389.110000,196.840000,383.970000,198.440000C379,200,372.570000,193,367.100000,193C361.630000,193,355.170000,200,350.230000,198.440000C345.090000,196.830000,343.790000,187.360000,339.500000,184.360000C335.210000,181.360000,325.790000,183.270000,322.600000,179.050000C319.410000,174.830000,323.870000,166.430000,322.160000,161.360000C320.450000,156.290000,311.810000,152.460000,311.810000,147C311.810000,141.540000,320.500000,137.560000,322.160000,132.650000C323.870000,127.570000,319.420000,119.170000,322.600000,114.950000C325.780000,110.730000,335.130000,112.710000,339.500000,109.650000C343.870000,106.590000,345.090000,97.170000,350.230000,95.560000C355.170000,94,361.630000,101,367.100000,101C372.570000,101,379,94,384,95.540000C389.140000,97.150000,390.440000,106.620000,394.730000,109.630000C399.020000,112.640000,408.440000,110.710000,411.630000,114.940000C414.820000,119.170000,410.360000,127.550000,412.070000,132.630000C413.700000,137.540000,422.390000,141.520000,422.390000,147Z" transform="matrix(1 0 0 1 919.00221001201760 19.09389064583397)" fill="rgb(239,238,255)" stroke="none" stroke-width="1"/><path id="emcgrzv9a01868" d="M422.390000,147C422.390000,152.460000,413.700000,156.440000,412.040000,161.360000C410.380000,166.280000,414.790000,174.840000,411.600000,179.050000C408.410000,183.260000,399.070000,181.300000,394.700000,184.360000C390.330000,187.420000,389.110000,196.840000,383.970000,198.440000C379,200,372.570000,193,367.100000,193C361.630000,193,355.170000,200,350.230000,198.440000C345.090000,196.830000,343.790000,187.360000,339.500000,184.360000C335.210000,181.360000,325.790000,183.270000,322.600000,179.050000C319.410000,174.830000,323.870000,166.430000,322.160000,161.360000C320.450000,156.290000,311.810000,152.460000,311.810000,147C311.810000,141.540000,320.500000,137.560000,322.160000,132.650000C323.870000,127.570000,319.420000,119.170000,322.600000,114.950000C325.780000,110.730000,335.130000,112.710000,339.500000,109.650000C343.870000,106.590000,345.090000,97.170000,350.230000,95.560000C355.170000,94,361.630000,101,367.100000,101C372.570000,101,379,94,384,95.540000C389.140000,97.150000,390.440000,106.620000,394.730000,109.630000C399.020000,112.640000,408.440000,110.710000,411.630000,114.940000C414.820000,119.170000,410.360000,127.550000,412.070000,132.630000C413.700000,137.540000,422.390000,141.520000,422.390000,147Z" transform="matrix(1 0 0 1 1069.34698550036728 33.44685027772776)" fill="rgb(239,238,255)" stroke="none" stroke-width="1"/><path id="emcgrzv9a01869" d="M422.390000,147C422.390000,152.460000,413.700000,156.440000,412.040000,161.360000C410.380000,166.280000,414.790000,174.840000,411.600000,179.050000C408.410000,183.260000,399.070000,181.300000,394.700000,184.360000C390.330000,187.420000,389.110000,196.840000,383.970000,198.440000C379,200,372.570000,193,367.100000,193C361.630000,193,355.170000,200,350.230000,198.440000C345.090000,196.830000,343.790000,187.360000,339.500000,184.360000C335.210000,181.360000,325.790000,183.270000,322.600000,179.050000C319.410000,174.830000,323.870000,166.430000,322.160000,161.360000C320.450000,156.290000,311.810000,152.460000,311.810000,147C311.810000,141.540000,320.500000,137.560000,322.160000,132.650000C323.870000,127.570000,319.420000,119.170000,322.600000,114.950000C325.780000,110.730000,335.130000,112.710000,339.500000,109.650000C343.870000,106.590000,345.090000,97.170000,350.230000,95.560000C355.170000,94,361.630000,101,367.100000,101C372.570000,101,379,94,384,95.540000C389.140000,97.150000,390.440000,106.620000,394.730000,109.630000C399.020000,112.640000,408.440000,110.710000,411.630000,114.940000C414.820000,119.170000,410.360000,127.550000,412.070000,132.630000C413.700000,137.540000,422.390000,141.520000,422.390000,147Z" transform="matrix(1 0 0 1 1072.53221000623148 67.24135703318906)" fill="rgb(239,238,255)" stroke="none" stroke-width="1"/><path id="emcgrzv9a01870" d="M471.790000,184.280000C471.790000,189.740000,463.100000,193.720000,461.440000,198.640000C459.730000,203.710000,464.190000,212.120000,461,216.330000C457.810000,220.540000,448.470000,218.570000,444.100000,221.640000C439.730000,224.710000,438.510000,234.110000,433.370000,235.720000C428.430000,237.270000,421.970000,230.280000,416.500000,230.280000C411.030000,230.280000,404.580000,237.280000,399.630000,235.720000C394.490000,234.110000,393.190000,224.640000,388.900000,221.640000C384.610000,218.640000,375.190000,220.550000,372,216.330000C368.810000,212.110000,373.270000,203.710000,371.560000,198.640000C369.900000,193.720000,361.220000,189.740000,361.220000,184.280000C361.220000,178.820000,369.900000,174.840000,371.560000,169.920000C373.220000,165,368.820000,156.440000,372,152.230000C375.180000,148.020000,384.530000,149.990000,388.900000,146.930000C393.270000,143.870000,394.490000,134.450000,399.640000,132.840000C404.580000,131.300000,411.040000,138.280000,416.500000,138.280000C421.960000,138.280000,428.430000,131.280000,433.370000,132.840000C438.510000,134.450000,439.810000,143.920000,444.100000,146.930000C448.390000,149.940000,457.810000,148.010000,461,152.230000C464.190000,156.450000,459.730000,164.850000,461.440000,169.920000C463.150000,174.990000,471.790000,178.820000,471.790000,184.280000Z" fill="rgb(239,238,255)" stroke="none" stroke-width="1"/><path id="emcgrzv9a01871" d="M505.790000,134.280000C505.790000,139.740000,497.100000,143.720000,495.440000,148.640000C493.730000,153.710000,498.190000,162.120000,495,166.330000C491.810000,170.540000,482.470000,168.570000,478.100000,171.640000C473.730000,174.710000,472.510000,184.110000,467.370000,185.720000C462.430000,187.270000,455.970000,180.280000,450.500000,180.280000C445.030000,180.280000,438.580000,187.280000,433.630000,185.720000C428.490000,184.110000,427.190000,174.640000,422.900000,171.640000C418.610000,168.640000,409.190000,170.550000,406,166.330000C402.810000,162.110000,407.270000,153.710000,405.560000,148.640000C403.900000,143.720000,395.220000,139.740000,395.220000,134.280000C395.220000,128.820000,403.900000,124.840000,405.560000,119.920000C407.270000,114.850000,402.820000,106.440000,406,102.230000C409.180000,98.020000,418.530000,99.990000,422.900000,96.930000C427.270000,93.870000,428.490000,84.450000,433.640000,82.840000C438.580000,81.300000,445.040000,88.280000,450.500000,88.280000C455.960000,88.280000,462.430000,81.280000,467.370000,82.840000C472.510000,84.450000,473.810000,93.920000,478.100000,96.930000C482.390000,99.940000,491.810000,98.010000,495,102.230000C498.190000,106.450000,493.730000,114.850000,495.440000,119.920000C497.100000,124.840000,505.790000,128.820000,505.790000,134.280000Z" fill="rgb(239,238,255)" stroke="none" stroke-width="1"/><path id="emcgrzv9a01872" d="M451.690000,244.170000C451.690000,249.630000,443.010000,253.610000,441.350000,258.520000C439.640000,263.600000,444.090000,272,440.910000,276.220000C437.730000,280.440000,428.380000,278.460000,424.010000,281.520000C419.640000,284.580000,418.420000,294,413.280000,295.610000C408.330000,297.150000,401.880000,290.170000,396.410000,290.170000C390.940000,290.170000,384.480000,297.170000,379.540000,295.610000C374.400000,294,373.100000,284.530000,368.810000,281.520000C364.520000,278.510000,355.100000,280.440000,351.910000,276.210000C348.720000,271.980000,353.180000,263.600000,351.470000,258.520000C349.810000,253.600000,341.120000,249.630000,341.120000,244.170000C341.120000,238.710000,349.810000,234.730000,351.470000,229.810000C353.180000,224.740000,348.720000,216.330000,351.910000,212.120000C355.100000,207.910000,364.440000,209.870000,368.810000,206.810000C373.180000,203.750000,374.400000,194.330000,379.540000,192.730000C384.480000,191.180000,390.940000,198.170000,396.410000,198.170000C401.880000,198.170000,408.340000,191.170000,413.280000,192.730000C418.420000,194.330000,419.720000,203.810000,424.010000,206.810000C428.300000,209.810000,437.720000,207.900000,440.910000,212.120000C444.100000,216.340000,439.640000,224.740000,441.350000,229.810000C443,234.730000,451.690000,238.710000,451.690000,244.170000Z" fill="rgb(239,238,255)" stroke="none" stroke-width="1"/><path id="emcgrzv9a01873" d="M217.380000,162.510000C217.380000,167.970000,208.690000,171.940000,207.030000,176.860000C205.320000,181.940000,209.780000,190.340000,206.600000,194.550000C203.420000,198.760000,194.060000,196.800000,189.700000,199.860000C185.340000,202.920000,184.100000,212.340000,179,214C174.060000,215.540000,167.600000,208.560000,162.130000,208.560000C156.660000,208.560000,150.210000,215.560000,145.270000,214C140.130000,212.390000,138.830000,202.920000,134.530000,199.910000C130.230000,196.900000,120.820000,198.820000,117.630000,194.600000C114.440000,190.380000,118.910000,181.990000,117.200000,176.910000C115.540000,171.990000,106.850000,168.020000,106.850000,162.560000C106.850000,157.100000,115.540000,153.120000,117.200000,148.200000C118.910000,143.130000,114.450000,134.720000,117.630000,130.510000C120.810000,126.300000,130.160000,128.260000,134.530000,125.200000C138.900000,122.140000,140.130000,112.720000,145.270000,111.120000C150.210000,109.570000,156.670000,116.560000,162.130000,116.560000C167.590000,116.560000,174.060000,109.560000,179,111.120000C184.140000,112.720000,185.440000,122.190000,189.740000,125.200000C194.040000,128.210000,203.450000,126.290000,206.640000,130.510000C209.830000,134.730000,205.360000,143.130000,207.070000,148.200000C208.690000,153.070000,217.380000,157.050000,217.380000,162.510000Z" fill="rgb(239,238,255)" stroke="none" stroke-width="1"/><path id="emcgrzv9a01874" d="M217.380000,162.510000C217.380000,167.970000,208.690000,171.940000,207.030000,176.860000C205.320000,181.940000,209.780000,190.340000,206.600000,194.550000C203.420000,198.760000,194.060000,196.800000,189.700000,199.860000C185.340000,202.920000,184.100000,212.340000,179,214C174.060000,215.540000,167.600000,208.560000,162.130000,208.560000C156.660000,208.560000,150.210000,215.560000,145.270000,214C140.130000,212.390000,138.830000,202.920000,134.530000,199.910000C130.230000,196.900000,120.820000,198.820000,117.630000,194.600000C114.440000,190.380000,118.910000,181.990000,117.200000,176.910000C115.540000,171.990000,106.850000,168.020000,106.850000,162.560000C106.850000,157.100000,115.540000,153.120000,117.200000,148.200000C118.910000,143.130000,114.450000,134.720000,117.630000,130.510000C120.810000,126.300000,130.160000,128.260000,134.530000,125.200000C138.900000,122.140000,140.130000,112.720000,145.270000,111.120000C150.210000,109.570000,156.670000,116.560000,162.130000,116.560000C167.590000,116.560000,174.060000,109.560000,179,111.120000C184.140000,112.720000,185.440000,122.190000,189.740000,125.200000C194.040000,128.210000,203.450000,126.290000,206.640000,130.510000C209.830000,134.730000,205.360000,143.130000,207.070000,148.200000C208.690000,153.070000,217.380000,157.050000,217.380000,162.510000Z" transform="matrix(1 0 0 1 65.88500000329813 -18.54622855181771)" fill="rgb(239,238,255)" stroke="none" stroke-width="1"/><path id="emcgrzv9a01875" d="M217.380000,162.510000C217.380000,167.970000,208.690000,171.940000,207.030000,176.860000C205.320000,181.940000,209.780000,190.340000,206.600000,194.550000C203.420000,198.760000,194.060000,196.800000,189.700000,199.860000C185.340000,202.920000,184.100000,212.340000,179,214C174.060000,215.540000,167.600000,208.560000,162.130000,208.560000C156.660000,208.560000,150.210000,215.560000,145.270000,214C140.130000,212.390000,138.830000,202.920000,134.530000,199.910000C130.230000,196.900000,120.820000,198.820000,117.630000,194.600000C114.440000,190.380000,118.910000,181.990000,117.200000,176.910000C115.540000,171.990000,106.850000,168.020000,106.850000,162.560000C106.850000,157.100000,115.540000,153.120000,117.200000,148.200000C118.910000,143.130000,114.450000,134.720000,117.630000,130.510000C120.810000,126.300000,130.160000,128.260000,134.530000,125.200000C138.900000,122.140000,140.130000,112.720000,145.270000,111.120000C150.210000,109.570000,156.670000,116.560000,162.130000,116.560000C167.590000,116.560000,174.060000,109.560000,179,111.120000C184.140000,112.720000,185.440000,122.190000,189.740000,125.200000C194.040000,128.210000,203.450000,126.290000,206.640000,130.510000C209.830000,134.730000,205.360000,143.130000,207.070000,148.200000C208.690000,153.070000,217.380000,157.050000,217.380000,162.510000Z" transform="matrix(1 0 0 1 203.15000000795072 53.92165742025558)" fill="rgb(239,238,255)" stroke="none" stroke-width="1"/></g></g></g></svg>