<svg id="Layer_1" data-name="Layer 1" xmlns="http://www.w3.org/2000/svg" xmlns:xlink="http://www.w3.org/1999/xlink" viewBox="0 0 612 353.92"><defs><style>.cls-1{fill:none;}.cls-2{fill:#5596ff;}.cls-3{clip-path:url(#clip-path);}.cls-4{clip-path:url(#clip-path-2);}.cls-5{fill:#b3ff69;}</style><clipPath id="clip-path"><polygon class="cls-1" points="612 353.92 0 353.92 0 -30.08 612 -32.08 612 353.92"/></clipPath><clipPath id="clip-path-2"><circle class="cls-2" cx="306" cy="320.92" r="306"/></clipPath></defs><g class="cls-3"><circle class="cls-2" cx="306" cy="320.92" r="306"/><g class="cls-4"><g id="layer1"><path id="path2830" class="cls-5" d="M154.07,518.5c-3.76-1.41-4.81-2.78-3.92-5.13.42-1.09,1.21-2,1.77-2s3,1.29,5.41,2.85a47.3,47.3,0,0,0,6.58,3.64l2.18.79-2.68.06a47.59,47.59,0,0,0-4.8.36,11.12,11.12,0,0,1-4.54-.59Zm-8.53-7.22a3.83,3.83,0,0,0-2.61-.29c-.93.29-1.64-.14-2.33-1.42a5.17,5.17,0,0,0-2.16-2.25c-1.48-.51-4.59-5.55-6.32-10.24a8.85,8.85,0,0,0-3.44-4.81c-2.48-1.4-2.66-2-.74-2.65,2.19-.7,2.6-4.56.76-7.15-.89-1.24-1.35-2.69-1.08-3.38s-.55-2.25-2.65-4.38c-2.64-2.69-3.13-3.67-3.24-6.51a9.8,9.8,0,0,0-1-4.36c-.59-.72-.71-3.28-.39-8.34a46.12,46.12,0,0,0-.81-13.58c-1.42-7-2.14-20.06-1.77-32a31.78,31.78,0,0,0-.73-7.75c-1.18-4.19-6.57-9.49-13.23-13-4.76-2.5-5.43-3.14-7.29-7a52.06,52.06,0,0,0-4.79-7.73,25.72,25.72,0,0,1-3.64-6.29c-1.58-4.85-4.35-9.73-6.24-11a7.67,7.67,0,0,1-2.55-3.81c-.64-2.32-.47-3,1.54-5.89,2.18-3.16,2.2-3.29.73-3.67-3.61-.95-2.09-5.78,4.39-14,4.31-5.44,5.58-9.59,4.38-14.38-.45-1.82-.86-3.73-.9-4.24s-.37-.92-.72-.92-.29-.67.15-1.48c.67-1.26.5-1.62-1.11-2.35-2.36-1.07-5.91,0-5.92,1.76,0,2.14-1,2.29-4,.68A16,16,0,0,0,74,307.4c-.45,0-2.19-1.18-3.86-2.62s-3.46-2.95-4-3.36a3.47,3.47,0,0,1-.92-2.43,4.78,4.78,0,0,0-1.45-3,10.51,10.51,0,0,1-2.3-3.88c-.61-1.85-1.07-2.34-1.66-1.75-1.21,1.21-3,1-7.39-.95a15.31,15.31,0,0,1-5.62-4.08,13.21,13.21,0,0,0-3.86-3.46c-2-1-2.51-1-5.42.09l-3.22,1.22-9.85-4.77c-6.07-2.94-10.77-5.75-12.23-7.29-2.26-2.39-2.34-2.65-1.58-5.61.68-2.71.57-3.55-.93-6.65a32.89,32.89,0,0,0-4.58-6.65c-1.58-1.71-2.69-3.4-2.47-3.75s-.89-2.74-2.46-5.3a23.7,23.7,0,0,1-3.37-8.31c-.4-2.93-.87-3.82-2.36-4.5s-2-.62-2.91.61c-1.27,1.73-.91,3.56,1.9,9.62a36.2,36.2,0,0,1,2.61,8.11,25.27,25.27,0,0,0,2,6.42c1.86,3.64.66,3.57-2.26-.12-1.73-2.17-2.19-3.37-1.85-4.73s0-2.16-1.79-3.49c-2.71-2-3.29-3.3-2.29-5.17.58-1.08.31-2.28-1.16-5.2s-1.82-4.39-1.45-6.59c.61-3.6-1-6.85-4-8.1-1.74-.72-2.34-1.52-2.69-3.62-.25-1.47-.73-3.76-1.07-5.08s-.32-2.57.06-2.81.13-1.24-.53-2.25c-1-1.49-1-2.2-.35-3.72A3.77,3.77,0,0,0-21,201.6c-.25-.41.38-1.63,1.4-2.72a19,19,0,0,0,3-4.81,28.29,28.29,0,0,1,4.39-6.42,34.56,34.56,0,0,0,5-7.69c1.35-3.12,2.15-4.09,3.35-4.1.87,0,1.54.4,1.48.91-.23,2.11,1.44,1.46,3.32-1.3,1.11-1.62,1.71-3.06,1.33-3.2a1.48,1.48,0,0,1-.69-1.36c0-.61-1.53-2.6-3.4-4.42-3.1-3-3.3-3.41-2.27-4.55a1.91,1.91,0,0,0,.38-2.6c-1-1.75.57-5.66,2.24-5.68.69,0,.89-.24.47-.56-1-.7-1.39-2.29-1.26-4.6.22-3.7-.59-5.25-3.34-6.4a27.09,27.09,0,0,1-5-2.91,8.61,8.61,0,0,0-3.62-1.78,56.77,56.77,0,0,1-7.14-1.49c-5.18-1.33-6.1-1.38-7.89-.46-3.72,1.92-7.65,2.7-9.26,1.84-1.2-.65-2.52-.25-7.1,2.15a46.94,46.94,0,0,1-8.21,3.5,31.17,31.17,0,0,0-6.05,2.3c-5.4,2.72-13.15,5.47-15.29,5.42-1.38,0-.44-.64,3.23-2.09,6.25-2.48,12.67-5.71,13.27-6.67.73-1.18-.86-1.61-2.77-.74-1.4.64-2.27.58-3.89-.27l-2.08-1.09,2.27-1.17c2.56-1.33,3.36-2.83,2.78-5.17s2.57-3.95,9.34-5a20.28,20.28,0,0,0,8.27-2.73c3.29-2.23,2.72-3.92-.82-2.46-1.68.7-2.9.71-5.38,0-3-.82-3.12-.93-1.77-1.92,2.25-1.65,6.92-2.64,10-2.12a7.84,7.84,0,0,0,5.17-.75l2.36-1.22-1.56-1.65a7.3,7.3,0,0,1-1.55-2.09c0-.69,4.45-2.06,6.68-2.06a28,28,0,0,0,6.76-1.78,78.62,78.62,0,0,1,13.38-3c7.71-1.06,9.34-1.07,15.12-.12,3.56.6,8.47,1.3,10.91,1.57a75.49,75.49,0,0,1,9.59,1.91c6.59,1.8,10.88,1.78,18.24-.1,3.26-.83,6.54-1.31,7.31-1.06a4.31,4.31,0,0,0,2.89-.37c1.13-.6,2-.53,3.63.31a9.71,9.71,0,0,0,5.74.68,17.44,17.44,0,0,1,8.19,1.14,30.6,30.6,0,0,0,6.24,1.55c1.6,0,1.61,0,.21,1.06s-1.38,1.08-.09,1.57a18.65,18.65,0,0,0,5.72.07c4.34-.45,4.37-.44,5.58,1.9l1.22,2.35,1.58-2a11.47,11.47,0,0,1,5.08-3c3-.92,4-.91,7,0a16.46,16.46,0,0,0,6.66.62c2.46-.35,3.6-.13,5.2,1,2,1.44,2.08,1.44,3.88,0a15.7,15.7,0,0,1,4.58-2.18c3.63-1,4.86-3.17,2.68-4.7-1.54-1.08-1.47-1.16,2.58-3.15,3-1.48,4.39-1.82,5-1.23s.58,1.24,0,2.37c-1,1.93.25,4.84,1.86,4.22a3.52,3.52,0,0,1,2.13,0c.93.36.92.67-.11,2.24-2.84,4.33,3.53,3.1,7.84-1.52a6.36,6.36,0,0,1,7-1.47c1.64.63,1.49,1.15-1.23,4.14-3.25,3.56-4.91,4.28-9.79,4.28a16.77,16.77,0,0,0-6.43,1.18c-1.79.93-2.67,1-4.08.36-2.64-1.2-3.56-.2-1.67,1.82l1.62,1.72-3.22.91a33.19,33.19,0,0,1-6.55,1c-2.65.09-3.33.38-3.33,1.43,0,.89-1.3,1.84-4.07,3-9,3.67-16.59,10.29-13.84,12a7.11,7.11,0,0,1,1.83,2.61,4.08,4.08,0,0,0,2.94,2.42,37.54,37.54,0,0,1,6.49,2.6,39.85,39.85,0,0,0,6.65,2.66c3.36.73,3.39.81,1.83,4.78-1.34,3.39-1.37,3.88-.33,5.88.62,1.2,1.53,2.17,2,2.16,2.42-.07,4.69-2.31,6.11-6,1.34-3.53,2-4.18,5.81-6.25,5.7-3,8.07-6,7.44-9.4-.41-2.19-.2-2.71,1.68-4a13,13,0,0,0,3.47-4.48c1.64-3.62,4.26-4.88,8.69-4.16,3.93.65,8.57,3.14,9.13,4.91a4.35,4.35,0,0,1-.43,2.89c-.7,1.31-.57,1.87.8,3.32l1.64,1.74,2.67-1.38a46.23,46.23,0,0,0,5.24-3.31l2.57-1.92.6,1.63a4.59,4.59,0,0,1,.21,2.66,3.53,3.53,0,0,0,.37,2.46,2.74,2.74,0,0,1,.1,2.63c-.47.83-.16,2.11,1,4.2,1.71,3,1.71,3,.21,4-2,1.38-.7,2.84,1.46,1.69a5.37,5.37,0,0,1,6.12.37c2.24,2,.37,4.45-5.57,7.25-6.47,3-9.35,3.64-17.79,3.72-6.24.05-7.06.25-13.12,3.16-3.56,1.7-6.47,3.39-6.47,3.75,0,1.52,1.12,1.39,5.42-.64a22.22,22.22,0,0,1,7.36-2.16c2.65,0,2.75.08,1.92,1.63a11.06,11.06,0,0,1-2.3,2.79c-1.24,1-1.31,1.42-.54,3.12,1.16,2.55,4.19,3.77,7.82,3.16l2.86-.48-2.2,1.52a14.86,14.86,0,0,1-4.43,2,30.94,30.94,0,0,0-5.61,2.18c-1.88,1-3.78,1.45-4.28,1.14-1.17-.72.06-1.81,3.86-3.4,3.38-1.41,2.84-2.91-.8-2.22a73.8,73.8,0,0,0-10.23,3.85c-6.56,2.89-7.7,3.65-8.09,5.39-.46,2.14-2.07,3.15-7.7,4.86a14.45,14.45,0,0,0-5.17,2.94,29.2,29.2,0,0,1-4.47,3.55,7.37,7.37,0,0,0-3,3.45c-.39,1.67-.48,1.71-1,.43-.92-2.41-2.31-.06-2.39,4.05s-2.22,7.07-6.89,9.26S91.37,229,90,231.51c-1.22,2.27-1.28,3.15-.52,9,.7,5.43.66,6.8-.27,8.58-.69,1.33-1.49,2-2.16,1.71-1.58-.61-3.52-7.13-3-10,.38-2,.13-2.78-1.37-4.18-1.21-1.14-2.33-1.57-3.28-1.27-.79.25-3-.23-5-1.06-3-1.28-3.94-1.39-6.07-.68A6,6,0,0,0,65,236.18c-.69,1.54-1.16,1.73-3.09,1.32A20.9,20.9,0,0,1,57.67,236c-2.71-1.38-4.22-1.28-7.26.46-1.41.82-4.3,2.38-6.42,3.47-2.43,1.25-4.1,2.68-4.54,3.87s-1.75,5.11-3,9L34.08,260l1.2,4.6c2.19,8.46,5.24,11,11.59,9.63,4.79-1,7.67-3.11,8.72-6.31.68-2,1.4-2.71,3.57-3.31,3.26-.91,4.62-.94,5.88-.14,1,.65.67,1.73-4,11.76-3.18,6.88-2.95,7.49,2.49,6.71,5-.72,9.5-.17,10,1.21.2.54-.13,4.17-.75,8.07-1.1,7-1.1,7.13.49,9.7a11.7,11.7,0,0,0,3.7,3.69c1.83.95,2.41.95,4.71,0,3.66-1.53,5.65-1.36,8.19.67,2,1.63,2.32,1.67,3.92.63a10.36,10.36,0,0,0,2.87-3.43c1.43-2.84,3.84-4.84,5.86-4.86a5.9,5.9,0,0,0,3.27-1.86c1.93-2.07,5.35-2.74,3.68-.73-1.4,1.69-2.2,7.12-1.3,8.8.75,1.41.81,1.4,2.18-.29,1-1.2,1.17-2,.64-2.51-1.27-1.27-.89-2.32,1.47-4.07s4.35-1.62,6.47.64c1.55,1.65,9.84,3.9,12.21,3.3,3.62-.91,13.39,5,17.06,10.37,1.75,2.54,7.33,5.1,9.79,4.48,5.05-1.26,12,3.8,13.59,9.94.48,1.83,1.21,3.53,1.62,3.79,1.08.67-.54,3.32-4.07,6.68-2.26,2.15-2.8,3.07-2.16,3.71s1.68.07,4.18-2.23c3.65-3.36,4.86-3.7,6.69-1.88,1.11,1.11,1.07,1.34-.45,3a5.79,5.79,0,0,1-2.81,1.8c-.68,0-.4.35.65.77,1.44.58,2.19.41,3.69-.8,3.9-3.15,4.82-3.3,8.29-1.36,2.25,1.25,3.15,2.21,3,3.23-.31,2.81.35,3.44,2.3,2.16,1.56-1,2.62-1.07,7.82-.36,5.53.76,6.25,1.06,8.9,3.71a15.63,15.63,0,0,0,7,4.08c3.73,1.08,4.14,1.41,4.81,3.93,1,3.65-.16,7.69-3.28,11.54a37.49,37.49,0,0,0-3.62,5.36,20.07,20.07,0,0,1-3.13,4.29c-1.79,1.8-1.89,2.25-1.44,6.5.87,8.32-3.2,23.83-7.12,27.15-1.28,1.08-2.37,1.33-4.4,1-1.66-.26-2.89-.09-3.22.43a11.27,11.27,0,0,1-3.58,2.2,26.9,26.9,0,0,0-5.57,3.49c-2.39,2-2.47,2.26-1.67,4.7a10.19,10.19,0,0,1-1.68,9,7.22,7.22,0,0,0-1.17,3.47,8.61,8.61,0,0,1-1.71,4.08c-.94,1.26-2.76,4.14-4,6.4-3.15,5.56-5,6.53-9.61,4.89-4-1.42-6.07-1.59-6.07-.49,0,.42.79,1.12,1.75,1.56a9.88,9.88,0,0,1,3.35,4c1.3,2.6,1.44,3.5.76,5-1,2.31-5.07,4.24-8.8,4.24-3.3,0-4.12.81-3,2.94.7,1.32.23,3.44-1.13,5.06a6.67,6.67,0,0,1-2.57-1C147.07,471,146,472,147.54,475a6,6,0,0,0,2.71,2.74c1.45.46,1.47.56.29,1.87a2.94,2.94,0,0,0-.8,2.58c.27.7-.33,2.22-1.48,3.72-1.85,2.43-1.88,2.6-.69,4.42a6.88,6.88,0,0,0,2.36,2.32c2.23.85,2.6,3.77.9,7.1s-2,6.67-.65,8.26c1.2,1.44-2.83,4.25-4.64,3.23ZM91.07,191.17c2-4.12,5.65-7.2,8.61-7.2,2.13,0,2.16.35.21,2.83l-1.54,1.95L99.93,190c1.27,1,1.92,1.12,3.36.46a4.54,4.54,0,0,0,2.25-2.25c.34-1.07.89-1.32,2.19-1a1.92,1.92,0,0,0,2.46-.84c1.5-2.68-2.32-6.12-5.13-4.61-2,1.08-4.65-1.07-4.09-3.33a4.58,4.58,0,0,0-1-3.27c-1.53-2-3.85-2.23-8.94-.82a22,22,0,0,1-4.63.87c-.72,0-1.12.27-.88.65s.16.7-.17.71A7.83,7.83,0,0,0,83,178l-1.84,1.41,2.07.79c1.61.61,2.57.52,4.36-.4,2.11-1.09,2.5-1.09,4.8,0a7.67,7.67,0,0,0,4.23.76c1-.24,1.94-.1,2.19.3s-.79.94-2.38,1.21c-4.33.73-6.57,2.54-9.71,7.79-2.62,4.38-2.77,4.91-1.73,6.07s1.31,1.16,2.72.17a15.94,15.94,0,0,0,3.41-5Zm13.43,4.57c2.63-1.35,2.89-1.68,2-2.61s-1.51-.87-4.53.47c-3.54,1.56-4.67,3.68-2,3.68A14.16,14.16,0,0,0,104.5,195.74Zm13.11-5.59c1.54-1.08,1.59-1.29.51-1.9-1.6-.89-6.35.65-6.35,2.06S115.44,191.67,117.61,190.15Zm55.5,319.18a2.89,2.89,0,0,1,.89-1.48c.49-.49.61-.89.27-.89s-1,.55-1.51,1.21c-.7,1-1.18,1-2.3.39-.8-.46-1-.83-.44-.84s.76-.35.51-.76c-.49-.78.78-1,4.43-.74,3.26.22,3.59.69,1.57,2.28-1.87,1.47-3.42,1.85-3.42.83Zm617.25-18.55q-3.18-2,13.21-8.88A57.15,57.15,0,0,0,813.89,476c4.47-3.38,4.84-3.53,5.73-2.26,1.34,1.92.55,3.31-2.74,4.79a15.12,15.12,0,0,0-4.38,3.05,5,5,0,0,1-3,1.76c-.82,0-2.73,1.12-4.26,2.49-5.22,4.68-11.84,6.9-14.87,5Zm-51.73-9.61c-.76-.48-.81-1-.18-2.15a9.77,9.77,0,0,0,.81-3.84c0-2.08.17-2.26,1.67-1.73a17.65,17.65,0,0,0,4.25.68c1.42.05,2.84.14,3.15.2,1.23.23-2,4-5,5.68-3.5,2.06-3.36,2-4.71,1.16ZM824,474.71c-.26-.26.35-1.11,1.35-1.9,1.51-1.19,1.69-1.69,1-2.92-1-1.78.46-3.69,3.74-5.05,2.54-1.06,3.19-3.19,2.5-8.35-.47-3.55-.41-3.77.74-2.83.89.75,1.11,1.68.79,3.39-.35,1.87,0,2.84,1.53,4.69,1.68,2,2.18,2.22,3.49,1.52s1.46-.63,1,.44a8.9,8.9,0,0,0-.48,1.54,8.52,8.52,0,0,1-2.4,1.52,41.21,41.21,0,0,0-5.73,4c-3,2.45-6,4.44-6.85,4.44a1.56,1.56,0,0,1-.76-.47Zm-78.16-9.54c-1.55-1.66-1.84-1.73-3.34-.75-1.9,1.25-5.48.52-8.35-1.7-1.53-1.18-1.64-1.57-.85-3a3.39,3.39,0,0,0,.09-3.48,9.54,9.54,0,0,1-.82-3.23c0-1.79-1.16-1.88-2.12-.16-.4.71-.94,1.08-1.19.82s.59-1.69,1.9-3.17c3.21-3.66,2-4.65-2.29-1.81a14.79,14.79,0,0,0-3.58,3c-.15.41-1-.86-2-2.81a13.94,13.94,0,0,0-4.32-5.29c-2.34-1.55-3.14-1.68-7.65-1.23-6.62.66-13,2.29-17.18,4.39a28.63,28.63,0,0,1-8.46,2.23,48.49,48.49,0,0,0-9.88,2.34c-4,1.52-5.19,1.68-7.23,1-2.75-.91-3.89-2.77-2.11-3.45.64-.25,1.81-1.95,2.59-3.77,1.25-2.93,1.32-3.84.58-7.61-.62-3.13-.63-6.09-.06-10.9.42-3.63.59-7.32.36-8.19a10.42,10.42,0,0,1,.79-4.76c1.18-3.07,1.46-3.27,9.39-6.63,4.5-1.91,9.1-3.46,10.23-3.46,3.05,0,6.84-2.91,8.92-6.86,1.29-2.44,2.19-3.37,3-3.07,2.16.83,2.58.67,2.42-.93a1.77,1.77,0,0,1,1.21-2.06,8.81,8.81,0,0,0,3.13-3,11.65,11.65,0,0,1,4.61-3.7c2.7-1.09,3-1.07,4.44.26,2.7,2.46,4.62,3.18,5.54,2.08.44-.54.6-1.19.34-1.45-.85-.84,3-5.7,4.92-6.17a28.34,28.34,0,0,0,4.63-1.85c2.4-1.2,3.24-1.28,5.92-.56,5.77,1.55,6,1.81,3.82,5.05-2.77,4.18-2,5.81,4.75,10.59,3.13,2.2,6.08,3.87,6.56,3.71s2-1.85,3.38-3.75a13.52,13.52,0,0,0,2.91-7.52c.43-4.33,2.5-10.35,3.56-10.35.35,0,1.16,1.78,1.79,4a15.1,15.1,0,0,0,3,5.64c2.3,2.17,3.64,8.23,2.61,11.81-.69,2.37-.56,2.75,1.8,5.17a34.34,34.34,0,0,1,4.91,7.79,57.64,57.64,0,0,0,5.22,8.95l2.85,3.77-.81,5.83a26.45,26.45,0,0,1-3.32,10.27c-2.78,4.93-7,9.64-9.14,10.34-.79.25-2.62,2.1-4.07,4.11s-3,3.66-3.35,3.66-2.09,1.73-3.76,3.84c-2.78,3.52-3.29,3.84-6.19,3.9a9.06,9.06,0,0,0-5.76,2l-2.59,2-1.71-1.81Zm-360.4-15.54c-1.56-1.57-1.82-2.37-1.47-4.53s0-3.22-1.39-5.29a11.78,11.78,0,0,1-1.82-3.47c0-.44-1.31-2.56-2.9-4.7-2.47-3.31-3-4.63-3.39-8.82a58.59,58.59,0,0,0-6.24-21.18,34,34,0,0,1-3.33-8.22c-.58-3.55.87-8.85,4.16-15.27l2.2-4.26-1.23-3.72a13,13,0,0,1-.77-5.58,5.61,5.61,0,0,0-.95-4.21,32.27,32.27,0,0,1-2.59-6.41,15,15,0,0,0-4.47-7.32c-4.68-4.6-5.29-6.41-3.84-11.41,3-10.18-.24-16.11-8.05-14.94-3,.45-3.15.4-3.58-1.75-.33-1.65-1.23-2.62-3.47-3.76-2.92-1.49-4.16-1.5-7.74,0-.82.33-4.14,1.48-7.39,2.55-4.89,1.61-6.36,1.82-8.49,1.2s-3.72-.43-7.84.7-5.81,1.3-8.12.66c-4.8-1.33-13.06-8.77-14.24-12.84-.91-3.14-6.56-10.47-8.48-11-1.23-.34-1.38-.6-.63-1.08s.62-.73-.55-1c-1.87-.49-2.06-2-.25-2,1.11,0,1.13-.11.19-.73-.7-.45-.78-.72-.21-.72s.36-.92-.65-2.63c-1.42-2.4-1.45-2.72-.36-3.92,3.3-3.65,4-11.52,1.52-16.47-1.2-2.37-.43-5.64,2.13-9a67,67,0,0,0,4.18-6.92c2.34-4.41,7.55-10.56,9-10.56,1.56,0,6.6-5.41,6.6-7.09a12.17,12.17,0,0,1,6-9.93A19.59,19.59,0,0,0,312.1,219c1.76-2.84,2-2.93,4-1.51a13.32,13.32,0,0,0,4.43,1.51c2.49.42,3.68.12,7.39-1.86,6.38-3.42,10.32-4.27,17.63-3.81,4.81.3,7,.11,9.31-.83,3.44-1.37,6.41-.56,5.61,1.54a2.31,2.31,0,0,0,.33,2.07c.53.64.53,1.56,0,3-.67,1.78-.52,2.32,1.16,4.07a9.65,9.65,0,0,0,4.23,2.48c5.94,1.19,7.63,2,8.86,4a5.31,5.31,0,0,0,4,2.66A21.93,21.93,0,0,1,384,234c2,1,2.25,1,3.91-.56,1.12-1,1.63-2.16,1.37-3a4.27,4.27,0,0,1,.38-2.82c1.15-2.14,4.4-1.93,9.46.61,5.53,2.76,16,4.74,19.71,3.71a9,9,0,0,1,5.07,0c5.11,1.57,7.72.34,8.42-3.95.23-1.43.63-2.6.88-2.6.48,0,.73-2.14.8-6.83,0-1.53.38-2.77.8-2.77s.47-.54-.07-1.56c-.91-1.7-2.76-1.66-7.17.15-2.09.86-2.67.83-4.55-.28-2.43-1.44-4.92-1.65-5.64-.49-.54.87-4.31.26-6.36-1a7.74,7.74,0,0,1-2.85-5.67,3.84,3.84,0,0,0-1.67-2.57c-1.41-1-1.49-1.28-.55-1.9a4.19,4.19,0,0,1,2.79-.33c1.17.28,2.26-.18,3.62-1.55a6.9,6.9,0,0,1,4.61-2.09,11.25,11.25,0,0,0,4.7-1.49c2.44-1.61,8-1.16,12.29,1,5.8,2.91,10.95,2.73,13-.43,1.07-1.65,1.08-2,.06-3.56-.63-1-3.62-3.14-6.66-4.87L434.84,186l1-2c.57-1.11.85-2.19.62-2.42s-.14-.85.19-1.39a5.75,5.75,0,0,0,.75-1.92c.17-1.12-1-.82-6.9,1.78-3.41,1.51-3.91,2-3.16,2.89a3.75,3.75,0,0,0,2.48,1.12c1.21,0,.92.37-1.26,1.52-2.65,1.4-3,1.42-4.67.29-1.47-1-1.67-1.42-1-2.26s.59-1.15-.5-1.56a5.68,5.68,0,0,1-2.17-1.58c-2.12-2.82-8.83,4.6-10.79,11.92-.91,3.44-.88,3.62.84,4.92l1.79,1.35-3.28.68a14.46,14.46,0,0,1-5.42.1c-2.16-.59-4.89.29-4.89,1.59,0,.38-.5.49-1.12.26a2.43,2.43,0,0,0-2.17.44c-.9.74-.79,1.35.69,4.15,1.61,3,1.66,3.44.66,5.46-1.26,2.52-2.43,2.33-4.21-.68-1.24-2.1-1.23-2.15.41-2.38,2.07-.29,2.2-1.61.2-1.93-4.58-.73-7-3.15-7-6.94,0-3-2.74-6.22-6.07-7.22a9.26,9.26,0,0,1-4.17-2.41,10,10,0,0,0-3.7-2.59,10,10,0,0,1-3.64-2.51c-.77-1.11-1.28-1.24-2.42-.63a2.61,2.61,0,0,0-1.43,1.82c0,1.92,9.42,10.6,14,12.93,4.88,2.46,5.64,3.34,2.25,2.6-3-.67-3.85,0-2.81,2.27.72,1.59.6,2.08-.86,3.48l-1.7,1.63.39-2.2c.61-3.49-4-8.51-7.82-8.51-1.4,0-6.78-5.22-8.19-8-1.51-2.91-3.18-3.48-5.56-1.87-3.57,2.43-6.26,3.25-9.06,2.78-3.73-.63-6.07.67-5.48,3,.31,1.24.14,1.79-.56,1.79a7.68,7.68,0,0,0-3.15,1.85,9.63,9.63,0,0,1-2.72,1.84c-.91,0-3.49,4.67-3.49,6.33s-2.9,4.72-5.69,6.15a12.31,12.31,0,0,1-4.59.83c-2.25,0-3.18.37-3.8,1.53-.81,1.51-.83,1.51-2.72-.39s-2.8-2.22-6.39-2.78c-1.89-.29-2.2-4.55-.79-10.63a20.29,20.29,0,0,0,.65-6.47c-.7-2.79,1.49-4.43,5.16-3.87,8.47,1.3,13.43,1.37,14.59.21,1.59-1.59,2.31-6.86,1.34-9.81-.64-1.92-1.51-2.71-4.12-3.7-3.83-1.47-3.91-2.88-.16-2.92a10,10,0,0,0,4.57-1.32c1.09-.72,2.3-1.11,2.68-.87,1,.64,5-1.64,6.32-3.64a5.7,5.7,0,0,1,2.77-2.18c.9-.23,3.29-2,5.32-3.85,2.89-2.69,4.4-3.53,6.87-3.82,3.06-.37,6.14-2.89,4.69-3.84-.9-.6-1.65-4.18-1.15-5.48a6.93,6.93,0,0,1,2.33-2.36l1.89-1.25-.48,3c-.42,2.64-.32,3,.81,2.82a11.58,11.58,0,0,0,3-1.14c1.4-.77,1.74-.73,2.11.23.64,1.65-1.12,3.59-2.34,2.58-.67-.55-1.1-.53-1.47.07s-.69.6-1.14-.12c-.33-.54-.77-.81-1-.61s.38,1.33,1.31,2.5c1.57,2,1.87,2.06,4.1,1.28a4.65,4.65,0,0,1,4.46.22c1.84.95,2.46.91,6-.44,3.1-1.17,4.32-1.32,5.69-.7a3.43,3.43,0,0,0,3.36,0c3.33-1.72,4.25-3,3.84-5.39-.61-3.53.51-4.68,3.46-3.57,2,.76,2.59.73,3.5-.18s.88-1.31-.7-3-1.62-2-.7-2.64c.6-.4,2.85-.55,5-.32,3.93.42,8.82-1.12,8-2.5-.75-1.2-5.25-1.55-9.07-.7-3.39.76-4.27.7-6.87-.47-4-1.82-4.5-3.94-1.74-7.8,3.56-5,4.21-6.54,3.2-7.76-1.51-1.81-3-1.22-6.41,2.56a21.69,21.69,0,0,1-5.48,4.54,7.71,7.71,0,0,0-3.32,3.08c-1,1.94-1,2.35,0,3.9A6,6,0,0,0,379.3,137c2.27.72,1.82,2.08-1.42,4.29a10.6,10.6,0,0,0-3,4.29,8.37,8.37,0,0,1-3.85,4.62c-2.63,1.52-2.75,1.53-4.21.21a7.55,7.55,0,0,1-1.94-3.38,13.49,13.49,0,0,0-2.47-4.45l-2-2.42-2.56,1.56a10.31,10.31,0,0,1-4.05,1.55,6,6,0,0,1-5.24-4.89,14.09,14.09,0,0,0-.67-3.37c-.66-1.66,2.65-4.76,6.09-5.71s10.45-5.86,11.64-8.17a22.11,22.11,0,0,1,4-4.57c1.67-1.5,3-3,3-3.45s1.58-1.3,3.51-2,5.18-1.93,7.21-2.77A27.14,27.14,0,0,1,393,106.7c7-.17,11.53.75,15.3,3.11,1.89,1.18,3.38,1.58,4.8,1.3,2.56-.52,16.16,3.7,16.73,5.18s-3.34,2.88-6.69,2.4c-1.54-.22-4.72-.81-7.07-1.32-3.16-.67-4.48-.69-5.1-.08s-.31,1.07,1.19,1.75a7.76,7.76,0,0,1,3.08,3c1.5,2.89,6.29,5.25,8.76,4.31s2.36-1.19-.15-2.55c-2.31-1.26-1.24-1.53,1.67-.42,2.32.88,5-.22,4.34-1.82-.29-.74.52-1.29,2.8-1.87,4.88-1.25,5.23-1.43,4.83-2.42-1.53-3.74-1.55-3.63.67-3.37,1.19.13,2.06.64,2,1.14s.52,1.28,1.38,1.73c1.28.69,2.29.45,5.82-1.4,5.17-2.71,9.2-3.6,10.7-2.35.84.69,2.23.7,6.25,0,2.84-.48,5.49-.67,5.88-.43a.89.89,0,0,0,1.2-.34c.59-.94-1-3.08-1.91-2.53-1.06.65-4.56-.53-3.8-1.29s21.34,4,22.57,5.26c.83.83,3.46-.27,3.46-1.45,0-.4-1.47-1.44-3.26-2.31-5.56-2.7-5.92-7-.69-8.34,3-.76,4.34.12,8.54,5.72,5.45,7.27,5.31,6.9,3.53,9.4-1.32,1.86-1.4,2.29-.48,2.64,1.73.66,5.44-1.66,6-3.74.61-2.44-.53-4.52-3.26-5.93-2.14-1.1-3.69-3.14-3.69-4.83,0-.58.8-.73,2.4-.43,2.4.43,4.38-.44,9.8-4.3A10.37,10.37,0,0,1,516,98.61c4.29-.1,5.68-.82,4.44-2.3-.48-.59-.73-1.22-.54-1.41,1-.94,13.11-2.64,15.92-2.22s3.53.19,5.75-1.51c1.42-1.09,2.59-2.27,2.59-2.63,0-.9-6.46-.82-7,.09-.77,1.25-1.78.82-1.5-.65.24-1.24-.38-1.44-5.77-1.86C515.15,85,514,84.71,515.72,83c1.55-1.56,5.36-1.53,8.54.06a12.84,12.84,0,0,0,4.8,1.19c1.34,0,2.64.33,2.89.73s1.54.74,2.87.74c3.69,0,10.82,1.6,10.37,2.32-.22.35.47.64,1.53.64A11.21,11.21,0,0,1,551,89.9c1.74.94,4.19,1.28,9.38,1.3,5.58,0,7.44.31,9.06,1.4,1.11.76,2,1.59,2,1.84s-1.71,1.41-3.79,2.56c-5,2.77-4,4,2.11,2.4,3.93-1,4.84-1,8.09-.06,2.68.8,4.35.9,6.16.38s3.66-.41,6.81.41,5,.94,7.08.36c4.75-1.32,10.6-.95,14,.89l6.91,3.76c3.75,2,3.91,2.07,6.51.9,2.18-1,3.39-1.06,6.6-.44s4.36.53,6.15-.4,2-1.35,1.37-2.16c-1.29-1.56,3.31-2.14,9-1.13,2.59.46,5.87.93,7.3,1a22.72,22.72,0,0,1,6.17,1.8c3,1.36,5.29,1.66,14.1,1.9,8.36.23,11,.57,13,1.64s4.38,1.37,12.14,1.45c7.14.07,10.34.41,12.46,1.32,3.42,1.47,4.79.93,2.92-1.16-1.33-1.5-1.33-1.5,3.84-1,8.65.86,19,2.75,22.54,4.11a39.39,39.39,0,0,0,7.75,1.83,28.49,28.49,0,0,1,7.88,2.29c2.89,1.47,3.83,1.63,5.69,1,2.54-.88,4.19-.25,8.07,3.12l2.41,2.1-1.82.45c-1.82.46-6.66-.74-8.33-2.06a1.51,1.51,0,0,0-1.53-.31c-.35.21-2.08-.11-3.84-.71-4.13-1.43-6-.89-4.08,1.19,1.28,1.41,1.26,1.44-1.19,1.27-4.59-.32-3.33,1,3.4,3.66,3.66,1.43,6.81,2.75,7,2.93.7.67-1.59,1.51-3.26,1.19-1.82-.35-6.33,1.61-6.33,2.76a5.11,5.11,0,0,1-1.58,2.16c-1.45,1.35-1.75,1.38-3.69.38s-2.4-.95-4.15-.07a24.78,24.78,0,0,1-4.24,1.56A9.75,9.75,0,0,0,738,139c-1.49,1.24,1.14,4.83,4.83,6.62,2,1,3.47,2.28,3.9,3.49a31.38,31.38,0,0,0,1.79,3.9c1,1.75,1,2-.08,2.41a1.17,1.17,0,0,0-.66,1.74,14.78,14.78,0,0,1,.71,3.13,12.7,12.7,0,0,0,.72,3.08c.38.88.07,1.37-1.1,1.74s-2.17-.08-4.3-2.44a42.91,42.91,0,0,0-5.46-5,37.15,37.15,0,0,1-6.08-6.42C729,147,729,146.84,730,144.78a10.63,10.63,0,0,0,1.12-3.82,9,9,0,0,1,1-3.54c1.07-1.93.66-3.46-1.62-6.08-1.5-1.72-4.17-.43-3.5,1.68.62,2-1.28,2.59-3.46,1.16a15.36,15.36,0,0,0-4.85-1.63c-2.95-.47-3.17-.38-3.93,1.63a8.72,8.72,0,0,0-.42,4.1c.34,1.7.1,2.05-1.64,2.43a9.43,9.43,0,0,1-4.88-.74,7.66,7.66,0,0,0-4.77-.64,47.25,47.25,0,0,1-8,.61c-5.26.05-6.27.28-7.87,1.78a12.61,12.61,0,0,0-2.7,5.18,21.14,21.14,0,0,1-1.92,5.09c-1,1.56-.92,1.72,2,3.2,3.14,1.6,6.57,2,9.17,1.13,2-.69,8.12,4.08,10,7.82a9.82,9.82,0,0,0,2.87,3.56c3,1.62,3.63,12.22,1.11,19.15-1.75,4.8-3.71,6.37-6.58,5.27a20.84,20.84,0,0,0-2.24-.76,15.26,15.26,0,0,0-1.83,3c-1.14,2.19-1.36,3.29-.8,4,1.08,1.3.28,3-1.87,4-1,.45-1.81,1.14-1.81,1.53s2.31,2.31,5.14,4.26c3.59,2.47,5.52,4.37,6.4,6.33.69,1.53,1.12,2.91,1,3.06s-1.68,1-3.36,1.81l-3.06,1.54-1.84-4.22c-2.06-4.72-3.82-6.62-6.93-7.46-1.57-.42-2.11-1-2.11-2.31s-.77-2.2-2.4-3.15c-2.37-1.39-2.42-1.39-4.94.17s-2.56,1.56-3.34.11a6.8,6.8,0,0,1-.78-2.59,2.55,2.55,0,0,0-1.38-1.87c-1.13-.61-1.84-.24-3.92,2a24,24,0,0,1-4,3.57c-1.23.69-1.29,1-.45,2a19.65,19.65,0,0,0,4.18,3c2.79,1.56,3.32,1.64,4.26.7s1.62-.92,4.32-.19l3.24.88-1.8,1.21c-3.36,2.24-4.41,3.42-4.89,5.44-.4,1.66-.16,2.16,1.33,2.84a9.78,9.78,0,0,1,3.36,4,12.29,12.29,0,0,0,3.79,4.52c2.7,1.6,3.49,3.29,1.92,4.17s-.76,2,1.16,2c2.31,0,2.32,1.37.09,9.3-2.69,9.6-5.12,12.8-11.49,15.13a33,33,0,0,1-6.77,1.79,9,9,0,0,0-6.95,3.79L661,267.66l-.71-1.87c-.93-2.44-3-3.05-6.1-1.76a8.82,8.82,0,0,0-5.38,5.51c-.67,2.18,1.69,6,5.59,9.1,3.19,2.53,6.78,8.89,7.63,13.52.73,4-.57,6.67-4.05,8.24-1.59.71-3.08,1.89-3.31,2.61-.54,1.72-3.82,3.87-4.43,2.9a3,3,0,0,1,0-2.1,4.58,4.58,0,0,0,0-2.57c-.37-.95-.77-1-1.94-.41s-1.68.48-2.67-.94c-2.41-3.5-9.4-9.12-11.34-9.12-.68,0-.94.82-.83,2.59a26,26,0,0,1-.64,6.16c-.73,3.21-.66,3.8.72,5.66a13.78,13.78,0,0,1,2,3.93c.26,1,2.4,3.41,4.84,5.37,4.08,3.27,4.51,3.91,6.22,9.34a63.79,63.79,0,0,1,1.84,6.53c0,1.26-1.54.75-4.76-1.56s-5.46-6.18-7.23-12.87a8.91,8.91,0,0,0-4-5.91c-2.94-2.17-3-2.35-2.79-5.93.14-2,.47-4.92.74-6.4.39-2.1.07-3.6-1.4-6.66a45.26,45.26,0,0,1-2.75-7.4c-1-4.25-2.51-5-5.11-2.48a9.06,9.06,0,0,1-2.41,1.87c-1.18,0-2.79-2.5-2.41-3.72.71-2.22-3.62-10-6.16-11a7.31,7.31,0,0,1-3.5-3.85c-1.47-3.27-3.13-4.52-4.78-3.62a30.64,30.64,0,0,1-5.33,1.47c-4.28.88-5.81,2.17-5.22,4.41.21.82-.54,1.62-2.33,2.48a8.06,8.06,0,0,0-3.48,3.1,4.65,4.65,0,0,1-2.26,2.29,6.3,6.3,0,0,0-2.67,2.51,22.75,22.75,0,0,1-4.57,4.61c-2.49,1.92-3.27,3-3.15,4.34.73,7.88-.39,14.47-3.1,18.39s-2.83,3.92-5.07,2.9a4.19,4.19,0,0,1-2.31-3.33A53.47,53.47,0,0,0,559,295.4c-9.45-20.3-10.84-24.18-10-27.84.55-2.48-.76-6.22-2-5.79a1.53,1.53,0,0,0-.94,1.35c-.06,3.37-3.85,3.89-6.81.93l-2-2,1.69-.62c1.9-.71,1.73-2.6-.2-2.25-.69.12-2.26-.63-3.5-1.67a9.59,9.59,0,0,0-2.87-1.88c-.35,0-.85-.67-1.1-1.49-.69-2.15-4.61-4-6.57-3.13-1.77.8-17.81.63-20.5-.21a11.65,11.65,0,0,1-4-3.09c-2.21-2.52-2.24-2.53-5.55-1.64-3.13.84-3.59.76-7.8-1.37-3.65-1.84-4.74-2.83-5.87-5.33-1.43-3.18-4.62-5.48-6.56-4.74a4,4,0,0,0-1.59,2.59c-.37,1.7,0,2.81,1.82,5.28a21.86,21.86,0,0,1,3.06,5.94c.9,3.34,2.67,4.33,4.14,2.32.89-1.21,1.13-1.26,1.73-.3a2.66,2.66,0,0,1,.46,1.84c-.41,1.28,3.86,3.38,5.85,2.88,1-.25,3.15-2,4.77-3.81,2.56-2.9,3.45-3.09,3-.66-.29,1.64,1,3.57,3.13,4.67,3.3,1.7,7.9,5.5,7.9,6.52a6.23,6.23,0,0,1-1.92,2.65,20,20,0,0,0-3.38,4.64c-1.95,3.79-7.59,9.35-9.5,9.35a9.76,9.76,0,0,0-6.81,3.86,10.74,10.74,0,0,1-3.62,3c-7,3.51-15.48,7.07-17.86,7.51-2.55.48-2.75.37-4.1-2.29a26.06,26.06,0,0,1-2-6.87,11.25,11.25,0,0,0-2.67-6.49,10.23,10.23,0,0,1-2.13-3.14c0-.39-1.33-2.09-3-3.77a16.48,16.48,0,0,1-4.17-7.2,22,22,0,0,0-3-6.37c-6.79-8.43-8.8-11.4-9.81-14.5-1.34-4.11-2.47-4.77-3-1.76l-.37,2.15-2.5-3.16c-3.86-4.86-4.34-2.65-.73,3.29,1.72,2.81,4.44,7.77,6.07,11a71.83,71.83,0,0,0,4.67,8.2,9,9,0,0,1,1.73,4.67c0,2.78.83,4.52,4.09,8.56a16,16,0,0,1,2.88,5.28c.35,1.63,1.78,3.34,4.85,5.8,4.66,3.74,7.68,7.65,8.43,10.9a5.22,5.22,0,0,0,2.7,3.17c2.06,1.07,2.79,1,9.3-.37a56.46,56.46,0,0,0,9.15-2.61l2.08-1.08.49,2.93c.45,2.66,0,3.94-5.29,14-5.66,10.85-5.92,11.21-11.55,15.65a51.46,51.46,0,0,0-7.36,6.8c-.89,1.24-3.71,4.59-6.28,7.45-7.51,8.33-8.53,15.66-3.55,25.48,1.26,2.49,1.76,4.38,1.46,5.57a16.52,16.52,0,0,0,.35,5.58c.7,3.26.62,4.13-.59,6.5-1.75,3.43-3.14,4.66-8,7.11-2.13,1.07-3.88,2.26-3.88,2.64s-1.5,2.39-3.33,4.45-3.32,4.08-3.32,4.49a16,16,0,0,0,1.52,3.73c2.51,4.92.83,8.49-5.2,11-2.54,1.05-3.37,3.2-2.74,7.07.33,2,.12,2.7-1,3.31a12.41,12.41,0,0,0-3.19,3.52c-3,4.75-11.74,13.17-15.69,15.17-3.31,1.66-4.15,1.81-6.58,1.14-2.13-.59-3.86-.5-7.45.41-5.8,1.45-5.19,1.51-7.44-.73Zm97.35-235.74c1.91-1,2.18-1.53,2.18-4.35,0-2-.43-3.57-1.15-4.17a12.41,12.41,0,0,1-2.3-3.16c-1-2-1-2.15.05-1.74,1.42.55,3.4-.11,3.4-1.12a8.74,8.74,0,0,0-1.52-2.88c-1.27-1.78-1.78-2-3-1.38-1,.51-1.43.51-1.43,0s-1.32-1.42-2.93-2.24c-3.57-1.82-4.84-3.84-3.73-5.92.85-1.57,3.86-2.68,5.14-1.88,1.73,1.07,2.24-.51.81-2.52-3.46-4.87-8.29-4.55-14.27,1-3.87,3.55-4.2,4.49-2,5.66a2.68,2.68,0,0,1,1.48,1.89c0,.6,1.31,2.52,2.92,4.27,3.7,4,4.38,5.85,3.92,10.6l-.37,3.82,5.08,2.61c2.79,1.43,5.18,2.62,5.3,2.64a14.9,14.9,0,0,0,2.4-1.09ZM462.47,420.34c-2.09-1.18-2.38-1.81-2.93-6.17-.43-3.49-.25-4.24,1.83-7.63s2.28-4.11,1.81-7.85c-.68-5.41.47-8.24,3.61-8.93,3-.65,9.36-6.3,10.9-9.62l1.17-2.53.81,1.78c2.05,4.5,1.84,6.48-1.72,16.35-1.91,5.27-4,11.59-4.55,14-1.9,7.8-3,9.69-6.09,10.62-3.32,1-3,1-4.84-.05Zm364.08-12.85c-2.36-2.58-3.77-4.79-3.77-5.91,0-2.48.4-2.26,2.53,1.37a29.65,29.65,0,0,0,4.1,5.32,9.1,9.1,0,0,1,2.24,2.75c0,1.42-1.57.33-5.1-3.53Zm-329.71-1.05a.74.74,0,1,1,.74.74A.74.74,0,0,1,496.84,406.44Zm389.22-1.35a.91.91,0,0,1,.32-1.26c1.1-.68,1.49-.14.76,1.05-.4.64-.78.71-1.08.21ZM502,403.9c0-.18.34-.53.74-.78s.74-.11.74.32a.77.77,0,0,1-.74.79C502.35,404.23,502,404.08,502,403.9Zm364.82-7.5c-.72-1.88.2-2.54,2.24-1.61,1.75.8,1.79.93.57,1.82C867.92,397.87,867.38,397.82,866.83,396.4Zm4.69-3.29c-1.45-.89-.45-1.6,1.85-1.32,1.8.22,1.84.3.56,1.1a2.45,2.45,0,0,1-2.41.22ZM837,390.4c-1.52-3.27-1-4.53.58-1.38s1.67,3.38.9,3.37C838.18,392.39,837.52,391.49,837,390.4Zm2.83-.53c0-.77.14-1.21.39-1a1.52,1.52,0,0,1,.06,1.42c-.24.59-.42.42-.45-.45ZM900,382.78c-.68-1.1,0-1.66,1.54-1.35,1.16.23,1.17.35.13,1.21-.83.69-1.3.73-1.67.14Zm-436.8-3.68c-.25-.41-.1-.74.33-.74a.76.76,0,0,1,.78.74c0,.4-.15.73-.33.73S463.46,379.5,463.21,379.1Zm324.46-7c-4.67-1.47-6.79-2.84-8.63-5.58-2.11-3.12-6-5.49-7.92-4.87a7.71,7.71,0,0,0-3,3.05c-1.43,2.42-1.71,2.56-4.31,2.1a11.11,11.11,0,0,1-4.74-2.33c-1.37-1.28-2.42-1.68-3.49-1.34a3.92,3.92,0,0,1-2.72-.18c-1-.56-.91-.83.71-1.9,1.89-1.23,1.89-1.25.63-3.89-1-2.13-2.42-3.24-7-5.54-3.15-1.58-6.71-2.88-7.91-2.88-2.75,0-3.88-2.53-1.81-4,1.23-.91,1.05-1.13-2.16-2.69-3.42-1.66-3.47-1.73-1.84-2.63a8.65,8.65,0,0,1,3.3-1c1.73,0,3.92,2.47,3.92,4.47a7.32,7.32,0,0,0,1.6,3.25c1.57,2,1.61,2,2.77.56a20.85,20.85,0,0,1,4.58-3.41l3.41-2,4.72,2.13c2.6,1.18,6.29,2.7,8.2,3.38a52.36,52.36,0,0,1,8.48,4.55c5.27,3.46,7.56,6.38,6.25,8-1.07,1.29,3.13,7.16,7.48,10.45,4.78,3.62,4.7,4-.56,2.3Zm32.17-.06c-.58-.7-.64-1.12-.15-1.12.89,0,1.94,1.4,1.42,1.91-.18.19-.76-.17-1.27-.79Zm-124.18-3c-1.07-.59-1.38-1-.74-1,1.32,0,3.43,1.21,2.93,1.71C697.66,370,696.67,369.65,695.66,369.08Zm12.49-1c2.1-2.95,5.38-4.21,8.41-3.23,2.21.71,2.25.77.49.84a15.11,15.11,0,0,0-5.38,2.29c-4.39,2.78-5.45,2.81-3.52.1Zm107.24,1c-1-1.21-.76-1.36,1.05-.66.64.24,1.17.74,1.17,1.11C817.61,370.59,816.41,370.35,815.39,369.12Zm3.46-.65a7.91,7.91,0,0,1-.46-2.55c0-.82.29-.63.76.55a5.09,5.09,0,0,1,.46,2.55c-.14.42-.48.17-.76-.55Zm57.15.69c0-.18.33-.53.74-.78s.74-.11.74.32a.77.77,0,0,1-.74.79C876.33,369.49,876,369.34,876,369.16Zm-189-3.1c-.51-.22-.74-.7-.51-1.07.56-.91,5.3-.86,5.87.06.25.41,0,.75-.51.75a16.87,16.87,0,0,0-2.45.33,4.86,4.86,0,0,1-2.4-.07Zm11-.56c-1.34-1.62.21-2.11,3.69-1.17s3.49,1.09-.14,1.75C699.6,366.42,698.56,366.25,697.94,365.5Zm111-.45c-.51-.82-.6-1.48-.2-1.48s1.07.67,1.51,1.48.52,1.48.2,1.48S809.42,365.87,808.91,365.05Zm4.63-.74c-2-2.18-.92-2.53,1.11-.36,1,1,1.4,1.84,1,1.84a4.53,4.53,0,0,1-2.09-1.48ZM675,364.18a59.8,59.8,0,0,1-8.28-1.8c-1.91-.63-4.16-.93-5-.66-1.69.54-8.89-1.58-8.89-2.61,0-2.37,6.62-2.55,10.15-.28,1.31.85,2.35.9,5.13.28,3.07-.69,3.72-.6,5.52.73a8.15,8.15,0,0,0,2.8,1.52c1.46,0,5.89,2.47,5.52,3.08a1.39,1.39,0,0,1-1.26.51c-.49-.06-3-.4-5.69-.77Zm132.67-3.56c-.74-.81-1-1.48-.6-1.48a4.51,4.51,0,0,1,2.08,1.48c.73.81,1,1.48.6,1.48a4.51,4.51,0,0,1-2.08-1.48Zm-4.66-.94a9,9,0,0,1-1.24-3.13c-.42-2-.37-2.05.41-.74a23,23,0,0,0,2,2.7c.61.71.76,1.4.35,1.66A1.26,1.26,0,0,1,803,359.68Zm-15.65-2.35-1.84-1,2.85-.54a13.4,13.4,0,0,0,5.34-2.73c1.51-1.32,2.5-1.79,2.49-1.19,0,1.5-.92,2.66-3.69,4.7s-2.75,2.11-5.15.77Zm-138.65-2.88c-2.71-1.54-7.61-7.53-9.2-11.25a43,43,0,0,0-4.39-7.34,54.17,54.17,0,0,1-4-5.91,25.76,25.76,0,0,0-4.21-5.18c-3.57-3.43-5.76-7-4.27-7,1.94,0,6.93,2.81,9.07,5,5.91,6.17,7.12,7.27,9.91,9s4,3.39,4.09,5.55a7.59,7.59,0,0,0,1.7,2.58l3.83,4.25a12.7,12.7,0,0,1,2.64,4.58c.86,3.92-2.3,7.37-5.22,5.7ZM499.8,354a.74.74,0,1,1,1.47,0,.74.74,0,1,1-1.47,0Zm195.48,0a3.21,3.21,0,0,1,0-2.18,4.44,4.44,0,0,0-.68-3.18c-1-1.57-1-1.9.1-3.5a16.69,16.69,0,0,0,1.79-5.81c.37-2.74,1.11-4.6,2.29-5.78,1.61-1.61,2-1.68,5.64-1,3.11.59,4.34.52,6-.36,2.84-1.46,3-1.4,2.11.67a4.15,4.15,0,0,1-6.12,2.15c-4.51-2.36-10.49,1.15-7.33,4.3,1.16,1.16,1.8,1.27,3.95.65,3.68-1.06,5.13-.86,2.84.38-2.58,1.41-3.08,3-1.74,5.55a10.57,10.57,0,0,1,1.1,4c0,1.68-.17,1.82-1.48,1.12a8.27,8.27,0,0,1-2.61-3.49c-1.12-2.69-1.14-2.7-2.57-1.26-1.26,1.26-1.34,1.81-.65,4.31.62,2.25.58,3-.2,3.49-1.31.83-1.91.8-2.47-.1ZM796.69,350a10.85,10.85,0,0,0-3.55-3.11c-1.25-.65-2.11-1.35-1.91-1.55,1.15-1.15,7.57,4.07,7,5.71-.17.5-.84.05-1.56-1.05Zm-116.07-2.46a5.34,5.34,0,0,0-3.34-.65c-1.83.59-9.14-.9-9.86-2-.58-.88-2.27-6.29-3.18-10.15a4.31,4.31,0,0,1,.58-3.23c.85-1.16,1.29-1.25,2.63-.53s1.71.63,2.49-1.08a8.93,8.93,0,0,1,3.58-3.31,8.24,8.24,0,0,0,3.63-3.6,5.26,5.26,0,0,1,3.44-3.06,11.24,11.24,0,0,0,4.45-3.36c1.06-1.39,2.32-2.52,2.8-2.52s1.94,1.09,3.24,2.44l2.36,2.43-1.89,2.55c-2.15,2.9-2,5.39.4,8.82l1.48,2.07-1.85,1.21c-1,.66-1.83,1.61-1.83,2.11,0,1.69-4.73,11.45-5.92,12.19-.83.52-1.79.42-3.21-.32Zm42.94,0c-1.53-.4-1.74-1.7-.28-1.7a25.62,25.62,0,0,1,3.48.49c2.08.42,2.24.58,1,1.06a5.44,5.44,0,0,1-4.21.15Zm117.7-9.42c0-.18.33-.53.74-.78s.74-.11.74.32a.78.78,0,0,1-.74.79C841.59,338.45,841.26,338.3,841.26,338.12Zm-120.29-2c-.59-.59-.63-1.27-.12-2.23a2.58,2.58,0,0,0,.31-2.09c-.67-1.07,1-3.69,2.35-3.69,1.09,0,1.09.13,0,1.37-1,1.08-1.09,1.8-.51,3.32,1.17,3.09-.1,5.22-2,3.32Zm-371.21-2.43c0-.17.33-.53.74-.78s.74-.1.74.33a.77.77,0,0,1-.74.78C350.09,334,349.76,333.86,349.76,333.68Zm512.56-1.89c-.25-.4-.1-.74.33-.74a.77.77,0,0,1,.78.74c0,.41-.14.74-.32.74S862.57,332.2,862.32,331.79Zm-508.13-7c0-.18.34-.54.74-.79s.74-.1.74.33a.76.76,0,0,1-.74.78C354.53,325.14,354.19,325,354.19,324.82ZM709.71,313.7c-1.41-3.29-1.6-3.43-3.77-3s-2.24.42-1.43-1.09c.67-1.26,1.3-1.51,2.89-1.16s2.51,0,4-1.39a6.16,6.16,0,0,0,2-3.17c0-1.87,2.77,4.39,3.4,7.73.47,2.54.41,2.68-.74,1.72-1.72-1.42-3.37.06-2,1.75.56.68.63,1.14.18,1.14a6.71,6.71,0,0,0-1.94.45c-.85.33-1.55-.46-2.64-3ZM575,315c-.83-1.34-1.3-7.37-.7-9s.68-1.68,2.56,1.1c2.26,3.34,3,5.48,2.24,6.62s-3.65,2-4.1,1.24Zm165-3.82a1.64,1.64,0,0,1,.74-1.2c.41-.25.74-.12.74.28a1.61,1.61,0,0,1-.74,1.2C740.34,311.72,740,311.59,740,311.19Zm116-.09c0-.41.15-.74.33-.74s.53.33.78.74.1.74-.33.74A.76.76,0,0,1,856,311.1Zm-167.77-4.27a21.86,21.86,0,0,1,3.29-4.25c2.65-3,3.3-3.38,3.32-2.16,0,.84-1.09,2.75-2.46,4.25C690.08,307.22,688.27,308.16,688.27,306.83Zm16-2a3.17,3.17,0,0,1,.13-2.37c.52-.93.73-.94,1.46-.06s.63,1.35-.12,2.37C704.82,306.05,704.73,306.05,704.27,304.86Zm-566-2.88c.45-.55.6-1.21.34-1.48s.2-.49,1-.49c1.17,0,1.44.35,1.15,1.48a2,2,0,0,1-1.87,1.48c-1.16,0-1.3-.22-.66-1Zm571-.2a16.77,16.77,0,0,0-.8-1.95c-.16-.31,0-.56.4-.56.74,0,1.78,3,1.23,3.59C709.88,303,709.51,302.55,709.23,301.78Zm-7.49-1.93a1.61,1.61,0,0,1,1.53-2.68c1,.22,1,.52.23,2S702.42,300.67,701.74,299.85Zm8.74-2.54c-.85-1.08-1.42-2.08-1.27-2.23.6-.6,2.68.72,3.79,2.41C714.7,300.08,712.54,299.93,710.48,297.31Zm-12.15-2.86a3.94,3.94,0,0,1-1.19-2.05c0-.46.72-.12,1.62.78s1.43,1.81,1.19,2S699,295.11,698.33,294.45Zm-580.16-.1a2.07,2.07,0,0,1-.49-1.26c0-.46.35-.42.88.11s.7,1.05.49,1.26A.64.64,0,0,1,118.17,294.35Zm-4.18-1c0-.41.14-.74.32-.74s.53.33.78.74.11.74-.32.74A.76.76,0,0,1,114,293.36Zm34.73-1.48c0-.4.15-.74.33-.74s.53.34.78.74.11.74-.32.74A.77.77,0,0,1,148.72,291.88Zm557.05-.11a4.9,4.9,0,0,0-3.13-.31c-1.43.35-2.41-.22-5.09-3-3.79-3.89-4.52-5.53-3.41-7.61a9.35,9.35,0,0,0,.78-3.68c0-4,2.68-3.85,4.65.28,1.1,2.29,1.1,2.78.08,5.24-1.11,2.64-1.09,2.76.88,4.81,1.43,1.49,2.49,2,3.62,1.71a2.53,2.53,0,0,1,2.53.73c1.33,1.61.75,2.75-.91,1.81Zm-561.48-4.65c0-.18.33-.53.74-.78s.74-.11.74.32a.77.77,0,0,1-.74.79C144.62,287.45,144.29,287.3,144.29,287.12Zm116-2.63a.74.74,0,1,1,.74.74A.74.74,0,0,1,260.33,284.49Zm-118.26-2.87a1.61,1.61,0,0,1,.74-1.19c.41-.26.74-.13.74.28a1.59,1.59,0,0,1-.74,1.19C142.4,282.16,142.07,282,142.07,281.62Zm-6.28-3c-.25-.42,0-.55.7-.29,1.28.49,1.51,1,.45,1A1.59,1.59,0,0,1,135.79,278.59Zm117.52,0c-.26-.41-.11-.74.32-.74a.76.76,0,0,1,.78.74c0,.4-.14.74-.32.74S253.56,279,253.31,278.58ZM138.75,277.1c-.26-.41-.11-.74.32-.74a.76.76,0,0,1,.78.74c0,.41-.14.74-.32.74S139,277.51,138.75,277.1Zm3.32,0c0-.41.15-.74.33-.74s.53.33.78.74.1.74-.33.74A.76.76,0,0,1,142.07,277.1Zm-50.81-2a1.4,1.4,0,0,1-.93-1.05c0-1.06,3.27-.79,4.85.41,1.37,1,1.33,1.08-.78,1.05A11.67,11.67,0,0,1,91.26,275.13Zm18.7-.42a5.52,5.52,0,0,0-3.25-.22,7.83,7.83,0,0,1-3.86-.27c-1.59-.64-1.45-.72,1.22-.65,3.93.09,5-.55,4-2.43-.71-1.33-.5-1.43,3-1.43s8.33,1.56,9.16,2.91c.56.9-9,2.83-10.28,2.09Zm14.18.47c-.88-.88.21-1.78,2.15-1.78,1.16,0,1.75.35,1.56.93C127.51,275.36,124.92,276,124.14,275.18ZM658.86,274c-2-2,0-4.3,3.56-4.3,1.58,0,1.58,0,.22,2.34C661.06,274.77,660.11,275.26,658.86,274Zm-528.61-.16c0-.16.5-.48,1.1-.71s1.11-.11,1.11.29-.5.71-1.11.71S130.25,274,130.25,273.85ZM98.3,268.56a9.4,9.4,0,0,0-3.47-.46c-2.32,0-2.87-.26-2.3-1s-.24-1.54-3-3.3c-5.33-3.45-8.3-4.13-11.88-2.69-3.36,1.34-3.62,1.38-3.62.53,0-1.55,5.89-3.25,10.12-2.92,4,.3,6.32,1.17,14.27,5.42,6.54,3.5,6.55,3.5,4.44,4.11C100.5,269,98.82,269.07,98.3,268.56Zm5.34-6.24c1.43-.93,2.22-.93,2.22,0,0,.4-.75.73-1.67.73C102.85,263,102.74,262.9,103.64,262.32ZM692.26,261a7.34,7.34,0,0,1-1.71-2.24c-.75-1.41-.67-2.09.45-4,1.72-2.95,2.89-3.32,3.45-1.09s-1.12,8.05-2.19,7.34Zm-583.77-1c.49-.8,3.28-.89,3.28-.1,0,.3-.83.6-1.84.66s-1.66-.19-1.44-.56ZM93.88,252.9c-1.19-1.36-1-3.15.3-3.15.42,0,.59.65.38,1.45s0,1.58.47,1.74.65.52.41.78S94.5,253.61,93.88,252.9Zm4.29-5.81c-.26-.68-.31-1.41-.11-1.61s.59.19.85.87.31,1.42.11,1.62S98.43,247.78,98.17,247.09Zm-4.63-.66A1.29,1.29,0,0,1,95,245.32c1.25,0,1.28.12.29,1.11a4.9,4.9,0,0,1-1.4,1.11C93.67,247.54,93.54,247,93.54,246.43ZM713.4,230.22a7.64,7.64,0,0,0-1.8-3.18c-2.34-2.78-1.51-4.64,1.26-2.82,2,1.3,3,4,2.3,5.89C714.61,231.56,713.4,231.64,713.4,230.22Zm-573.55-4.44c0-.18.34-.53.74-.79s.74-.1.74.33a.76.76,0,0,1-.74.78C140.19,226.1,139.85,226,139.85,225.78Zm577.66-.91c-.47-1.25.66-2.43,2.35-2.45,1.18,0,1.2,1.64,0,2.8s-1.82,1.11-2.39-.35Zm6.76-2.7c-1.44-2.19-3.46-2.49-8.11-1.2-1.88.52-3.18.53-4.06,0-.71-.42-.9-.77-.42-.78a8.78,8.78,0,0,0,3.09-1.89c1.58-1.33,2.74-1.75,4-1.44s2.75-.3,5.75-2.56c5.85-4.39,6.38-5.77,4-10.47-2.29-4.51-1.65-6,1.73-4,2.47,1.46,4.79,5.62,4.11,7.38-.24.63.12,2.62.81,4.41,1,2.54,1.06,3.6.41,4.81-1,1.78-3.59,3-6.59,3-1.69,0-2.19.43-2.74,2.35l-.68,2.35-1.29-2Zm-299.42-2.52c-.88-.88-.41-1.68,1-1.68a2.44,2.44,0,0,0,1.89-.74c.69-1.11,1.86-.89,1.42.27s-3.66,2.79-4.3,2.15Zm-25.2-1.28-2.22-1,3,0c3.68-.06,6.39.63,5.86,1.5s-4.06.73-6.6-.43ZM369.79,211c-3-1.52-3.1-1.71-1.55-2.11,1.85-.49,5.94.12,5.86.86a9.94,9.94,0,0,1-.56,1.69C373.09,212.54,372.73,212.5,369.79,211ZM355,203c-.64-1.84-.59-2.54.24-3.37,1.5-1.5,2.67-.45,2.67,2.42,0,3.38-1.86,4-2.91.95Zm-17.33.61c.52-1.36,2.77-1.59,2.32-.23a2.18,2.18,0,0,1-1.54,1.16c-.86.16-1.1-.12-.78-.93Zm386.18-8.43c-1.36-1.9-1.39-2.25-.4-3.68s1-1.82,0-3.78c-1.66-3.21-1.43-3.41,1.46-1.21a23.05,23.05,0,0,0,6.25,3.07q6.24,1.84,3,2.89c-.82.26-1.49,1-1.49,1.55,0,.8-.51.94-2,.55-3.9-1-5-.76-4.76,1,.31,2.21-.19,2.1-2-.43Zm-367.67.87a1.67,1.67,0,0,1,.62-2.74c.8-.3,1.11.09,1.11,1.4C357.89,196.49,357.17,197.05,356.16,196.05Zm363-15.59a38.6,38.6,0,0,1-3.36-5.73,57.27,57.27,0,0,0-7.17-9.95c-3-3.4-4.59-5.64-4-5.84s1.63.6,2.47,1.72a38.46,38.46,0,0,0,8.48,8c3.28,2.41,4.9,4.65,2.79,3.84-2.44-.94-1.83,1.28,1.32,4.83a33.34,33.34,0,0,1,3.34,4.11c0,.9-2.85.2-3.86-.95Zm-540.85-1.29c0-.61.32-1.11.71-1.11s.53.5.29,1.11-.55,1.11-.71,1.11S178.29,179.78,178.29,179.17Zm-3.86-2.39-2.76-.28,5.18-5.13c2.85-2.83,5.56-5.13,6-5.13s.34.54-.34,1.29c-1.54,1.7-.49,3.61,2.32,4.23a4.46,4.46,0,0,1,2.93,2.25c.75,1.66.63,1.83-1.93,2.54s-5.9.81-11.41.23Zm-180.1-5.3c-2.56-2.39-2.85-3.4-1.15-4,1.52-.58,4.33,1.32,5.39,3.65s1.1,2.55-.54,2.55C-2.74,173.63-4.41,172.66-5.67,171.48Zm325.5-3.75c.81-.4,2.41-1.07,3.55-1.48,2.52-.91,2.1-1.88-1.08-2.51-2.19-.44-2.26-.55-1-1.47.74-.54,1.13-1.33.87-1.76s.49-1.12,1.73-1.56,2.22-1.1,2.22-1.5c0-1.7-1.54-4.58-2.4-4.46-2,.25-2.89-.09-2.57-1a3.39,3.39,0,0,0-.33-2.22c-.95-1.85,1.23-5.67,3.26-5.72.31,0,.48.4.37.9s.6,1,1.55,1.17l1.74.26-1.66,1.77-1.66,1.76,1.87.71c2,.76,3.94,3.25,5.91,7.59.94,2.08,1.56,2.63,2.66,2.34,2.26-.59,2.53.94.41,2.33-1.43.94-1.71,1.47-1.08,2.1s-.61,1.05-4.91,1.67c-3.16.45-6.91,1-8.34,1.31-2,.36-2.24.3-1.1-.25Zm-12.47-4.09a5.21,5.21,0,0,1,.64-3.32c.7-1.35.83-2.3.37-2.59-1.28-.79-.8-1.8,1.08-2.27a5.86,5.86,0,0,0,2.67-1.49c1-1.19,5.54-1.41,6.23-.3.25.41-.07,1.48-.7,2.38a7.46,7.46,0,0,0-1.15,3.61c0,1.65-.51,2.14-3.14,3.06-1.73.6-3.68,1.32-4.34,1.6A1.11,1.11,0,0,1,307.36,163.64Zm13.57-7.34c0-.18.34-.53.74-.78s.74-.11.74.32a.77.77,0,0,1-.74.79C321.27,156.63,320.93,156.48,320.93,156.3Zm-328-3.56c-.72-.87-.68-1.28.23-2,1.5-1.25,2.25-.4,1.37,1.56-.6,1.35-.82,1.41-1.6.47Zm-1.15-5.56c-.25-.4,0-1.14.64-1.65,1.2-1,1.46-.21.44,1.38C-7.53,147.52-8,147.63-8.23,147.18ZM-56,146.71c0-.52,2.24-1.43,5.42-2.2,1.21-.29,1.92-.22,1.68.17a4.75,4.75,0,0,1-2.46,1.08,24.9,24.9,0,0,0-3.34.92c-.71.27-1.3.29-1.3,0ZM383.2,138.4c-1.36-.55-1.12-1.4.43-1.52.75,0,1.36.38,1.36,1,0,1.1-.26,1.18-1.79.56Zm-162.41-3.78c-4.68-2.55-6.92-6.47-5.56-9.74a3.78,3.78,0,0,0,.07-3.62c-1.22-2.29.37-5,4.46-7.48a15.21,15.21,0,0,0,4.3-3.62c1.19-2.21.13-6-1.93-6.94-1-.48-1.61-1.23-1.38-1.83.53-1.37-1.94-6-4.39-8.33-1.8-1.68-2.58-1.85-8.75-1.89-8.41,0-10-.52-9.84-2.93.06-1,.28-1.83.49-1.83s3.21-.34,6.65-.77a46.74,46.74,0,0,0,13.25-3.74c7.59-3.24,8.17-3.3,26.28-2.88a88.58,88.58,0,0,0,17.74-1.43c6.29-1.06,10.92-1.46,13.42-1.15a21.85,21.85,0,0,0,6.94-.39c4-1.08,14.5.23,18.62,2.33,2.44,1.24,3.73,1.4,7.83,1,4.44-.44,4.78-.38,3.44.6a15.59,15.59,0,0,1-5.54,1.62c-4.85.64-9.31,4.1-8.13,6.31.51.95.15,1.76-1.5,3.34a11.92,11.92,0,0,0-2.57,3.31c-.51,1.62-7.05,4.64-10.29,4.75-3.59.13-4,.89-1.19,2.43a39.81,39.81,0,0,1,4.27,2.74l1.87,1.42-1.69.63c-1.3.48-2.36.17-4.52-1.33-2.93-2-6.09-2-4.4,0,.65.79.5,1.1-.73,1.42-2.75.72-.81,2.14,2.22,1.62,1.93-.32,3-.15,3.62.58s-.22,1.26-5.6,2.39a69.64,69.64,0,0,1-10.53,1.42c-4.15.06-7.15,1.26-11.55,4.6-1.44,1.09-4.49,2.18-8.06,2.86-7.46,1.43-10,3.08-14.48,9.48-3.61,5.14-5.79,7.06-8,7.08a17.9,17.9,0,0,1-4.8-2Zm-52.41-4.94a15.93,15.93,0,0,1-4.32-4c-1.54-2.44-3-2.75-7.13-1.55a5.87,5.87,0,0,1-3.62.08c-2.19-1.22,1.76-2.43,6.16-1.87,3.35.41,4.1.29,4.49-.72.78-2,4.37-3.51,6.37-2.6a4.61,4.61,0,0,0,3.91-.06c2.12-.8,2.14-.88.77-1.89a5.55,5.55,0,0,0-2-1c-.31,0-1.43-1.49-2.5-3.3a16.1,16.1,0,0,0-4.43-4.84c-2.33-1.45-2.64-1.47-4.72-.39-1.83.94-2.88,1-5.77.36a18.49,18.49,0,0,0-6-.33c-2.38.45-6.74-.72-6.74-1.8,0-2,6.26-6.44,10-7.1l3-.53-2.12,2.25c-2.91,3.11-1.82,4.54,1.35,1.76a13,13,0,0,1,5.16-2.66c2.28-.42,3.26-.15,6.12,1.75,3.81,2.53,4.11,2.6,6.26,1.45,1.29-.7,1.77-.51,3.18,1.26a12,12,0,0,0,5.26,3.21c3.38,1.07,3.61,1.31,3.61,3.63a4,4,0,0,0,1.69,3.7c5,3.55,4.85,3.4,3.78,5.12-1.47,2.35-2.64,2.53-5.89.86-2.27-1.15-3.26-1.31-4.4-.7-1.39.75-1.41.91-.29,3.08.93,1.78,1,2.68.38,4.06-.77,1.69-.89,1.72-3,.63-4.12-2.13-6.9-.72-3,1.55,1.2.71,2,1.56,1.82,1.89-.72,1.16-4.38.55-7.24-1.21Zm151.81,1c0-.34.5-.62,1.11-.62s1.11.28,1.11.62-.5.61-1.11.61S320.19,131,320.19,130.64Zm-179.68-4c-1.45-.77-2.59-.83-4.63-.27-3.47,1-4.68.26-2.92-1.69,2.26-2.49,3.78-3,6.5-2.08,3.06,1,4.42,2.51,3.59,4C142.53,127.52,142.17,127.53,140.51,126.66Zm146.79-.34c-1.21-.8-2.77-1.28-3.44-1.06-.94.29-1.15,0-.86-1.06.44-1.68,6.93-4.11,9.13-3.41a9.87,9.87,0,0,0,4.35-.45c2.55-.76,3.23-.7,4.95.43l2,1.31-1.78,1.38c-1.5,1.17-4.29,2.19-11,4A5.66,5.66,0,0,1,287.3,126.32ZM86.64,112.53a29.94,29.94,0,0,1-5.5-1.93L77.48,109l5.14-.37c2.82-.21,5.13-.71,5.13-1.11s-2-.92-4.44-1.14c-3.22-.29-3.82-.49-2.21-.74,2.69-.41,2.89-1.58.37-2.22-1.82-.46-1.81-.48.75-1.58a19.61,19.61,0,0,1,13.31-1c3.43,1,4,1,5.58,0,1.14-.75,1.82-.88,1.88-.35s.14,1.21.19,1.69c.17,1.6,1.64,1.39,3.4-.48S111,99,111,100.27a12.38,12.38,0,0,1-1.46,3l-1.46,2.39,2.38,1.24,2.39,1.25L109,109.88c-3.53,1.62-4.26,1.71-7.42,1s-4-.65-7.05.67c-3.5,1.5-4.23,1.6-7.85,1Zm29.64-.52c-.67-.81-.39-1.2,1.34-1.92a6.64,6.64,0,0,1,3.84-.37c1.6.51,1.57.59-.87,1.89-3.1,1.65-3.26,1.66-4.31.4Zm203.91-3.42c1.44-.93,2.22-.93,2.22,0,0,.4-.75.73-1.66.72C319.4,109.3,319.3,109.17,320.19,108.59Zm135.63-2c-3.78-1.5-3.7-1.42-2.6-2.74.51-.62.64-1.14.29-1.15s0-.53.83-1.14,1.48-1.35,1.49-1.64c0-1.09,3-4,5.16-5a27.59,27.59,0,0,1,7-1.39c2.65-.21,6.19-.59,7.87-.85s3.25-.16,3.52.27c.52.85-.48,1.21-6.21,2.24s-9.12,2.62-11.37,5.3-2.45,4.6-.27,6.12l1.66,1.16-2.22,0a18.36,18.36,0,0,1-5.17-1.2Zm-387.1-2.15c-1.19-1.19-.92-1.45,4.8-4.58,6.7-3.67,10.07-4.15,16.08-2.33l3.32,1-4.43.88a118,118,0,0,0-17.38,5.81A2.53,2.53,0,0,1,68.72,104.39Zm53.4-1c0-.4-.92-1.24-2-1.89l-2-1.16,2.72.42c1.94.31,2.9.13,3.33-.62s5.21-2.67,7.09-2.69c.31,0,.06,1-.57,2.21-1.49,2.87-8.5,6-8.5,3.73Zm11.5-2.16c-1.06-1.72,6.18-4.37,9.25-3.39,2.24.71.74,1.93-3.16,2.58a26.43,26.43,0,0,0-4.4,1,1.43,1.43,0,0,1-1.69-.24Zm23.6-5.44c-4.87-.39-9-.79-9.07-.9-.66-.61,1-2.61,2.76-3.34s2.55-.63,4.94.59,3.83,1.38,8.15,1.07a33.18,33.18,0,0,1,7.39.14l2.09.53-2.58,1.39a10.29,10.29,0,0,1-3.7,1.3l-10-.78Zm212.7-3c-3.63-1.85-4-2.7-1.13-2.71a6.5,6.5,0,0,0,3.14-.81c1-.69.95-.75-.09-.42a2.24,2.24,0,0,1-2.07-.48c-.65-.65-1-.64-1.42,0s-1.2.72-2.74.26c-3.9-1.17-4.76-1.69-4.76-2.84,0-1,1-1.07,7-.65,4.6.32,7,.23,7-.26,0-1.46,2.05-.74,2.59.91l.55,1.66.33-1.66c.18-.92.8-1.66,1.38-1.66a1,1,0,0,0,1.06-.89c0-.69.2-.69.89,0,.51.51,3,.89,5.91.89,5.28,0,6.53.94,3,2.28-1.83.7-5,.5-8.51-.53-.71-.21-1.29-.1-1.28.23,0,.68,4.15,3.19,5.28,3.19a3.46,3.46,0,0,1,1.77,1c.89.89.88,1.09-.06,1.45-.6.23-1.09.06-1.09-.38s-.94-.62-2.66-.3-2.5.26-2.15-.32a1.83,1.83,0,0,0-.39-1.89c-.94-1.14-3.67-1.49-3.67-.47a12.62,12.62,0,0,1-2.4,3.26L373,94.41l-3.12-1.6ZM173.85,91.19c-1.28-.75-3.09-1-5.91-.71-2.63.24-4.66,0-5.76-.6-1.51-.86-1.14-1,3.48-.92,5.77,0,8.3-1.19,5.18-2.53-1.49-.63-1.27-.69,1.27-.34,3.33.46,4.62-.43,2.81-1.93s.19-2.1,7.06-1.66q6.38.42,8-.46c2.1-1.12,1.28-2.54-1.12-1.94-1.65.41-13.12-.27-12.63-.75.34-.35,16.59-1.85,27.26-2.53,5.53-.35,11.69-.84,13.67-1.08l3.62-.45-6,2.86c-5.59,2.69-14.68,5.31-18.41,5.31a19.1,19.1,0,0,0-5.81,2.21,22.15,22.15,0,0,1-5.17,2.22,24.31,24.31,0,0,0-5.38,2.21l-4.35,2.19s-.83-.5-1.85-1.1Zm-14.41-6.75c-3.58-.8-3.71-1.09-1.08-2.46,3.84-2,7.47-2.5,9.12-1.28,1.3,1,1.23,1.11-1.34,2.63S162.38,85.09,159.44,84.44Z"/></g></g></g></svg>