<svg xmlns="http://www.w3.org/2000/svg" viewBox="0 0 727.01 260.97"><defs><style>.cls-1{fill:#d48e44;}.cls-2{fill:#eb9d4b;}.cls-3{fill:#b5793a;}.cls-4{fill:#58d354;}.cls-5{fill:#f4a4ff;}.cls-6,.cls-7{fill:none;stroke:#4cb548;}.cls-6{stroke-miterlimit:10;}.cls-7{stroke-miterlimit:10;}.cls-8{fill:#fff;}.cls-9{fill:#ffd7a6;}.cls-10{fill:#785027;}.cls-11{fill:#b0753a;}</style></defs><g id="Layer_2" data-name="Layer 2"><g id="Layer_1-2" data-name="Layer 1"><g id="Layer_2-2" data-name="Layer 2"><g id="Layer_1-2-2" data-name="Layer 1-2"><path class="cls-1" d="M3,225.41l4.8-20.23a19.63,19.63,0,0,1,9-12.75L60.49,168.1c14.85-8.3,28.05-20.95,38.19-36.58L141,66.23c13.62-21,31.93-35.85,52.93-43l.64-.22.44.51C221.8,54,236.54,94.6,236.54,137.76A178,178,0,0,1,214.73,224l-.32.58-1.22-.13-100-11.56a164.68,164.68,0,0,0-48.45,1.59l-60.36,11Z"/><path class="cls-2" d="M235.56,137.73a176.59,176.59,0,0,1-21.7,85.7l-.56-.06-100-11.56a165.68,165.68,0,0,0-48.75,1.6l-60.27,11h0l4.51-19c1.28-5.37,4.4-9.79,8.53-12.1L61,169c15-8.39,28.22-21,38.54-36.91l42.39-65.29c13.45-20.71,31.81-35.59,52.42-42.63C219.79,53.2,235.56,93.36,235.56,137.73Z"/><g id="Layer_2-2-2" data-name="Layer 2-2"><g id="Layer_1-2-2-2" data-name="Layer 1-2-2"><path class="cls-3" d="M559.11,232.36a259.58,259.58,0,0,1-38.79-2.91L406.89,212.27c-1.43-.23-2.87-.41-4.41-.58a118.65,118.65,0,0,0-25.83-.06L258.49,224.51a197.26,197.26,0,0,1-22,1.2,199.3,199.3,0,0,1-22.78-1.29l-1.48-.17L213,223a175.88,175.88,0,0,0,21.58-85.21c0-42.68-14.56-82.78-41-112.92l-1-1.13,1.41-.48c2.16-.74,4.32-1.39,6.44-1.93l73.1-18.87a76.76,76.76,0,0,1,49.85,4l114.31,49,.35.14a11.67,11.67,0,0,0,4.37.84H538.7a46.61,46.61,0,0,1,5.28.31c13.17,1.57,25.43,9,34.52,20.81L615,125.17a14.89,14.89,0,0,0,3.37,3.26l78.85,55.65a18.62,18.62,0,0,1,5.48,6.26l19.14,34.88h.41v2h-1l-153.88,5C564.67,232.31,561.87,232.36,559.11,232.36Z"/><path class="cls-3" d="M721.28,226.22h0l-153.88,5a257.62,257.62,0,0,1-46.93-2.77l-64.58-9.78L407,211.28c-1.48-.23-3-.42-4.45-.58a118.79,118.79,0,0,0-26.05-.06L258.38,223.52a200.22,200.22,0,0,1-44.52-.09,176.59,176.59,0,0,0,21.7-85.7c0-44.37-15.77-84.53-41.25-113.58,2.1-.72,4.22-1.35,6.36-1.91l73.1-18.87A75.72,75.72,0,0,1,323,7.28l114.36,49.1.37.15a12.61,12.61,0,0,0,4.74.91H538.7a44.52,44.52,0,0,1,5.16.31c12.85,1.53,24.89,8.74,33.85,20.42l6.29,8.2L588.35,92l25.88,33.74a16.14,16.14,0,0,0,3.58,3.47l11.62,8.2,2.24,1.58,43.54,30.73,21.46,15.14a17.58,17.58,0,0,1,5.17,5.91l6.07,11.06,13.36,24.35Z"/><path class="cls-4" d="M702.81,203c-31,0-58.94-11.79-71.41-30.07-22.3-3-41.29-12.25-52.24-25.35-26.7-2.35-49.89-13.67-60.77-29.66-1.84.09-3.67.13-5.58.13-43,0-78-22.66-78-50.5a33.77,33.77,0,0,1,2-11.34l.34-1,1,.38a11.87,11.87,0,0,0,4.37.84h96.26a46.61,46.61,0,0,1,5.28.31c13.17,1.57,25.43,9,34.52,20.81L615,125.17a15.56,15.56,0,0,0,3.37,3.26l12.31,8.69-.37.77c-.13.26-.26.52-.38.78l1.33-.55.51-.21,65.45,46.19a18.91,18.91,0,0,1,5.48,6.25l6.84,12.45-1.61.07C706.19,203,704.46,203,702.81,203Z"/><path class="cls-4" d="M707.91,201.87c-1.68.07-3.38.11-5.1.11C671,202,643.74,189.6,632,172c-22.73-3-41.77-12.54-52.31-25.38-27.43-2.31-50.3-13.91-60.76-29.72-2,.1-4,.15-6.1.15-42.53,0-77-22.16-77-49.5a32.54,32.54,0,0,1,1.89-11,12.84,12.84,0,0,0,4.74.91h96.26a44.52,44.52,0,0,1,5.16.31c12.85,1.53,24.89,8.74,33.85,20.42l6.29,8.2L588.4,92l25.88,33.74a16.14,16.14,0,0,0,3.58,3.47l11.62,8.2a32.62,32.62,0,0,0-1.32,3c1.21-.44,2.39-.91,3.56-1.4l43.54,30.73L696.67,185a17.58,17.58,0,0,1,5.17,5.91Z"/><path class="cls-4" d="M627.18,140.06c.39-1,.85-2,1.35-3.07l.5-1,4.66,3.33-2,.85c-1,.44-2.13.9-3.24,1.27l-2,.66Z"/><path class="cls-4" d="M631.67,139c-1.17.49-2.35,1-3.56,1.4a32.62,32.62,0,0,1,1.32-3Z"/><path class="cls-4" d="M627.18,140.06c.39-1,.85-2,1.35-3.07l.5-1,4.66,3.33-2,.85c-1,.44-2.13.9-3.24,1.27l-2,.66Z"/><path class="cls-4" d="M631.67,139c-1.17.49-2.35,1-3.56,1.4a32.62,32.62,0,0,1,1.32-3Z"/><path class="cls-4" d="M627.18,140.06c.39-1,.85-2,1.35-3.07l.5-1,4.66,3.33-2,.85c-1,.44-2.13.9-3.24,1.27l-2,.66Z"/><path class="cls-4" d="M631.67,139c-1.17.49-2.35,1-3.56,1.4a32.62,32.62,0,0,1,1.32-3Z"/><path class="cls-5" d="M485.33,83.81a2.33,2.33,0,0,1-1.77-.67c-.45-.45-1.09-1.5-.31-3.51A11.41,11.41,0,0,1,485.81,76c1.8-1.8,3.89-2.91,5.45-2.91a2.41,2.41,0,0,1,1.77.67c1.64,1.63.11,4.87-2.25,7.22C489,82.69,486.89,83.81,485.33,83.81Z"/><ellipse class="cls-5" cx="488.29" cy="78.41" rx="5.7" ry="2.52" transform="translate(87.57 368.24) rotate(-45)"/><path class="cls-5" d="M491.24,83.65c-1.51,0-3.54-1.1-5.31-2.88-2.3-2.29-3.8-5.42-2.25-7a2.34,2.34,0,0,1,1.67-.63c1.5,0,3.54,1.1,5.31,2.87a11.73,11.73,0,0,1,2.5,3.58c.78,2,.18,3-.26,3.4A2.21,2.21,0,0,1,491.24,83.65Z"/><ellipse class="cls-5" cx="488.29" cy="78.41" rx="2.35" ry="5.52" transform="translate(87.57 368.24) rotate(-45)"/><rect class="cls-6" x="481.75" y="84.05" width="13.03" height="2" transform="translate(394.2 571.66) rotate(-88.94)"/><line class="cls-7" x1="488.42" y1="78.53" x2="488.18" y2="91.56"/><path class="cls-8" d="M488.42,81.9a3.37,3.37,0,1,1,3.37-3.37h0A3.37,3.37,0,0,1,488.42,81.9Z"/><circle class="cls-8" cx="488.42" cy="78.53" r="2.37"/><path class="cls-9" d="M522.33,72.82a2.37,2.37,0,0,1-1.77-.67c-.45-.45-1.08-1.5-.3-3.51A11.42,11.42,0,0,1,522.81,65c1.8-1.8,3.89-2.92,5.46-2.92a2.48,2.48,0,0,1,1.77.67c1.63,1.64.1,4.88-2.25,7.23C526,71.7,523.9,72.82,522.33,72.82Z"/><ellipse class="cls-9" cx="525.29" cy="67.42" rx="5.7" ry="2.52" transform="translate(106.18 391.19) rotate(-45)"/><path class="cls-9" d="M528.24,72.66c-1.5,0-3.54-1.11-5.31-2.88-2.29-2.29-3.8-5.42-2.24-7a2.34,2.34,0,0,1,1.67-.63c1.5,0,3.53,1.1,5.31,2.87a11.53,11.53,0,0,1,2.49,3.58c.79,2,.18,3-.25,3.4A2.23,2.23,0,0,1,528.24,72.66Z"/><ellipse class="cls-9" cx="525.29" cy="67.42" rx="2.35" ry="5.52" transform="translate(106.18 391.19) rotate(-45)"/><rect class="cls-6" x="518.75" y="73.04" width="13.03" height="2" transform="translate(441.52 597.84) rotate(-88.94)"/><line class="cls-7" x1="525.42" y1="67.53" x2="525.18" y2="80.56"/><path class="cls-8" d="M525.42,70.9a3.37,3.37,0,1,1,3.37-3.37h0A3.37,3.37,0,0,1,525.42,70.9Z"/><circle class="cls-8" cx="525.42" cy="67.53" r="2.37"/><path class="cls-9" d="M571.33,117.81a2.37,2.37,0,0,1-1.77-.67c-1.63-1.63-.11-4.87,2.25-7.22,1.8-1.81,3.89-2.92,5.46-2.92a2.44,2.44,0,0,1,1.76.67c.45.44,1.09,1.49.31,3.5a11.12,11.12,0,0,1-2.55,3.72C575,116.69,572.89,117.81,571.33,117.81Z"/><ellipse class="cls-9" cx="574.3" cy="112.4" rx="5.7" ry="2.52" transform="translate(88.73 439.01) rotate(-45)"/><path class="cls-9" d="M577.24,117.65c-1.5,0-3.54-1.1-5.31-2.88-2.29-2.29-3.8-5.42-2.24-7a2.3,2.3,0,0,1,1.66-.63c1.51,0,3.54,1.1,5.32,2.88a11.26,11.26,0,0,1,2.49,3.58c.79,2,.18,3-.25,3.39A2.28,2.28,0,0,1,577.24,117.65Z"/><ellipse class="cls-9" cx="574.3" cy="112.4" rx="2.35" ry="5.52" transform="translate(88.73 439.01) rotate(-45)"/><rect class="cls-6" x="567.75" y="118.04" width="13.03" height="2" transform="translate(444.62 691) rotate(-88.94)"/><line class="cls-7" x1="574.42" y1="112.53" x2="574.18" y2="125.56"/><path class="cls-8" d="M574.42,115.9a3.37,3.37,0,1,1,3.37-3.37h0A3.37,3.37,0,0,1,574.42,115.9Z"/><circle class="cls-8" cx="574.42" cy="112.53" r="2.37"/><path class="cls-9" d="M681.33,179.82a2.37,2.37,0,0,1-1.77-.67c-.45-.45-1.08-1.5-.3-3.51a11.43,11.43,0,0,1,2.55-3.72c1.8-1.8,3.89-2.92,5.46-2.92a2.42,2.42,0,0,1,1.77.68c.45.44,1.08,1.49.3,3.5a11.12,11.12,0,0,1-2.55,3.72C685,178.7,682.9,179.82,681.33,179.82Z"/><ellipse class="cls-9" cx="684.29" cy="174.42" rx="5.7" ry="2.52" transform="translate(77.09 534.96) rotate(-45)"/><path class="cls-9" d="M687.24,179.66c-1.5,0-3.54-1.1-5.31-2.88-2.29-2.29-3.8-5.42-2.24-7a2.34,2.34,0,0,1,1.67-.63c1.5,0,3.54,1.1,5.31,2.87a11.53,11.53,0,0,1,2.49,3.58c.79,2,.18,3-.25,3.4A2.23,2.23,0,0,1,687.24,179.66Z"/><ellipse class="cls-9" cx="684.29" cy="174.42" rx="2.35" ry="5.52" transform="translate(77.09 534.96) rotate(-45)"/><rect class="cls-6" x="677.74" y="180.04" width="13.03" height="2" transform="translate(490.59 861.83) rotate(-88.94)"/><line class="cls-7" x1="684.42" y1="174.53" x2="684.18" y2="187.56"/><circle class="cls-8" cx="684.42" cy="174.53" r="3.37"/><circle class="cls-8" cx="684.42" cy="174.53" r="2.37"/><path class="cls-9" d="M560.32,81.81a2.35,2.35,0,0,1-1.76-.67c-1.64-1.63-.11-4.87,2.24-7.22,1.8-1.8,3.9-2.92,5.46-2.92a2.47,2.47,0,0,1,1.77.67c.45.45,1.08,1.5.31,3.51a11.4,11.4,0,0,1-2.56,3.72C564,80.7,561.89,81.81,560.32,81.81Z"/><ellipse class="cls-9" cx="563.29" cy="76.42" rx="5.7" ry="2.52" transform="translate(110.95 420.69) rotate(-45)"/><path class="cls-9" d="M566.24,81.65c-1.51,0-3.54-1.1-5.32-2.88-2.29-2.29-3.79-5.42-2.24-7a2.29,2.29,0,0,1,1.67-.64c1.5,0,3.54,1.1,5.31,2.88,2.29,2.29,3.8,5.42,2.24,7A2.19,2.19,0,0,1,566.24,81.65Z"/><ellipse class="cls-9" cx="563.29" cy="76.42" rx="2.35" ry="5.52" transform="translate(110.95 420.69) rotate(-45)"/><rect class="cls-6" x="556.75" y="82.04" width="13.03" height="2" transform="translate(469.81 644.67) rotate(-88.94)"/><line class="cls-7" x1="563.42" y1="76.53" x2="563.18" y2="89.56"/><path class="cls-8" d="M563.42,79.9a3.37,3.37,0,1,1,3.37-3.37h0A3.37,3.37,0,0,1,563.42,79.9Z"/><circle class="cls-8" cx="563.42" cy="76.53" r="2.37"/><path class="cls-5" d="M610.33,146.82a2.37,2.37,0,0,1-1.77-.67c-.45-.45-1.08-1.5-.3-3.51a11.43,11.43,0,0,1,2.55-3.72c1.8-1.8,3.89-2.92,5.46-2.92a2.42,2.42,0,0,1,1.77.68c1.63,1.63.1,4.87-2.25,7.22C614,145.7,611.9,146.82,610.33,146.82Z"/><ellipse class="cls-5" cx="613.3" cy="141.42" rx="5.7" ry="2.52" transform="translate(79.63 475.09) rotate(-45)"/><path class="cls-5" d="M616.24,146.66c-1.5,0-3.54-1.1-5.31-2.88a11.15,11.15,0,0,1-2.49-3.58c-.79-2-.18-3,.25-3.4a2.34,2.34,0,0,1,1.67-.63c1.5,0,3.54,1.1,5.31,2.87a11.53,11.53,0,0,1,2.49,3.58c.79,2,.18,3-.25,3.4A2.23,2.23,0,0,1,616.24,146.66Z"/><ellipse class="cls-5" cx="613.3" cy="141.42" rx="2.35" ry="5.52" transform="translate(79.63 475.09) rotate(-45)"/><rect class="cls-6" x="606.74" y="147.04" width="13.03" height="2" transform="translate(453.89 758.46) rotate(-88.94)"/><line class="cls-7" x1="613.42" y1="141.53" x2="613.18" y2="154.56"/><circle class="cls-8" cx="613.42" cy="141.53" r="3.37"/><circle class="cls-8" cx="613.42" cy="141.53" r="2.37"/><path class="cls-5" d="M539.33,106.82a2.37,2.37,0,0,1-1.77-.67c-1.63-1.63-.1-4.87,2.25-7.23,1.8-1.8,3.89-2.91,5.46-2.91a2.47,2.47,0,0,1,1.77.67c.45.44,1.08,1.49.3,3.5a11.12,11.12,0,0,1-2.55,3.72C543,105.7,540.9,106.82,539.33,106.82Z"/><ellipse class="cls-5" cx="542.3" cy="101.42" rx="5.7" ry="2.52" transform="translate(87.12 413.17) rotate(-45)"/><path class="cls-5" d="M545.24,106.66c-1.5,0-3.53-1.1-5.31-2.88-2.29-2.29-3.79-5.42-2.24-7a2.34,2.34,0,0,1,1.67-.63c1.5,0,3.54,1.1,5.31,2.87,2.29,2.29,3.8,5.43,2.24,7A2.23,2.23,0,0,1,545.24,106.66Z"/><ellipse class="cls-5" cx="542.3" cy="101.42" rx="2.35" ry="5.52" transform="translate(87.12 413.17) rotate(-45)"/><rect class="cls-6" x="535.75" y="107.04" width="13.03" height="2" transform="translate(424.21 648.21) rotate(-88.94)"/><line class="cls-7" x1="542.42" y1="101.53" x2="542.18" y2="114.56"/><path class="cls-8" d="M542.42,104.9a3.37,3.37,0,1,1,3.37-3.37h0A3.37,3.37,0,0,1,542.42,104.9Z"/><circle class="cls-8" cx="542.42" cy="101.53" r="2.37"/><path class="cls-5" d="M455.33,61.82a2.37,2.37,0,0,1-1.77-.67c-1.64-1.64-.11-4.87,2.25-7.23,1.8-1.8,3.89-2.92,5.45-2.92a2.48,2.48,0,0,1,1.77.67c.45.45,1.09,1.5.31,3.51a11.15,11.15,0,0,1-2.56,3.72C459,60.7,456.89,61.82,455.33,61.82Z"/><ellipse class="cls-5" cx="458.29" cy="56.42" rx="5.7" ry="2.52" transform="translate(94.33 340.59) rotate(-45)"/><path class="cls-5" d="M461.24,61.65c-1.51,0-3.54-1.1-5.31-2.87a11.07,11.07,0,0,1-2.5-3.58c-.78-2-.18-3,.25-3.4a2.34,2.34,0,0,1,1.67-.63c1.51,0,3.54,1.1,5.31,2.87,2.29,2.29,3.8,5.42,2.25,7A2.3,2.3,0,0,1,461.24,61.65Z"/><ellipse class="cls-5" cx="458.29" cy="56.42" rx="2.35" ry="5.52" transform="translate(94.33 340.59) rotate(-45)"/><rect class="cls-6" x="451.75" y="62.05" width="13.03" height="2" transform="translate(386.75 520.07) rotate(-88.94)"/><line class="cls-7" x1="458.42" y1="56.53" x2="458.18" y2="69.56"/><path class="cls-8" d="M458.42,59.9a3.37,3.37,0,1,1,3.37-3.37h0A3.37,3.37,0,0,1,458.42,59.9Z"/><circle class="cls-8" cx="458.42" cy="56.53" r="2.37"/><path class="cls-5" d="M654.33,157.82a2.37,2.37,0,0,1-1.77-.67c-.44-.45-1.08-1.5-.3-3.51a11.18,11.18,0,0,1,2.55-3.72c1.8-1.8,3.89-2.92,5.46-2.92a2.47,2.47,0,0,1,1.77.67c1.63,1.64.1,4.87-2.25,7.23C658,156.7,655.9,157.82,654.33,157.82Z"/><ellipse class="cls-5" cx="657.3" cy="152.41" rx="5.7" ry="2.52" transform="translate(84.75 509.42) rotate(-45)"/><path class="cls-5" d="M660.24,157.65c-1.5,0-3.54-1.1-5.31-2.87a11.3,11.3,0,0,1-2.49-3.58c-.79-2-.18-3,.25-3.4a2.34,2.34,0,0,1,1.67-.63c1.5,0,3.54,1.1,5.31,2.87a11.42,11.42,0,0,1,2.49,3.58c.79,2,.18,3-.25,3.4A2.26,2.26,0,0,1,660.24,157.65Z"/><ellipse class="cls-5" cx="657.3" cy="152.41" rx="2.35" ry="5.52" transform="translate(84.75 509.42) rotate(-45)"/><rect class="cls-6" x="650.74" y="158.05" width="13.03" height="2" transform="translate(486.08 813.25) rotate(-88.94)"/><line class="cls-7" x1="657.42" y1="152.53" x2="657.18" y2="165.56"/><circle class="cls-8" cx="657.42" cy="152.53" r="3.37"/><circle class="cls-8" cx="657.42" cy="152.53" r="2.37"/><path class="cls-5" d="M594.33,110.82a2.37,2.37,0,0,1-1.77-.67c-1.63-1.64-.1-4.87,2.25-7.23,1.8-1.8,3.89-2.92,5.46-2.92a2.48,2.48,0,0,1,1.77.67c.45.45,1.08,1.5.3,3.51a11.12,11.12,0,0,1-2.55,3.72C598,109.7,595.9,110.82,594.33,110.82Z"/><ellipse class="cls-5" cx="597.3" cy="105.42" rx="5.7" ry="2.52" transform="translate(100.4 453.23) rotate(-45)"/><path class="cls-5" d="M600.24,110.65c-1.5,0-3.54-1.1-5.31-2.87-2.29-2.29-3.79-5.42-2.24-7a2.34,2.34,0,0,1,1.67-.63c1.5,0,3.54,1.1,5.31,2.87,2.29,2.29,3.8,5.43,2.24,7A2.26,2.26,0,0,1,600.24,110.65Z"/><ellipse class="cls-5" cx="597.3" cy="105.42" rx="2.35" ry="5.52" transform="translate(100.4 453.23) rotate(-45)"/><rect class="cls-6" x="590.74" y="111.05" width="13.03" height="2" transform="translate(474.18 707.13) rotate(-88.94)"/><line class="cls-7" x1="597.42" y1="105.53" x2="597.18" y2="118.56"/><path class="cls-8" d="M597.42,108.9a3.37,3.37,0,1,1,3.37-3.37h0A3.37,3.37,0,0,1,597.42,108.9Z"/><circle class="cls-8" cx="597.42" cy="105.53" r="2.37"/><path class="cls-9" d="M543.33,60.34a2.35,2.35,0,0,1-1.76-.67c-1.64-1.64-.11-4.88,2.24-7.23,1.81-1.8,3.9-2.92,5.46-2.92a2.41,2.41,0,0,1,1.77.67c.45.45,1.08,1.5.31,3.51a11.4,11.4,0,0,1-2.56,3.72C547,59.22,544.9,60.34,543.33,60.34Z"/><ellipse class="cls-9" cx="546.3" cy="54.93" rx="5.7" ry="2.52" transform="translate(121.16 402.38) rotate(-45)"/><path class="cls-9" d="M549.25,60.17c-1.51,0-3.54-1.1-5.32-2.87a11.3,11.3,0,0,1-2.49-3.58c-.79-1.95-.18-3,.25-3.4a2.34,2.34,0,0,1,1.67-.63c1.5,0,3.54,1.1,5.31,2.87,2.29,2.29,3.8,5.42,2.24,7A2.19,2.19,0,0,1,549.25,60.17Z"/><ellipse class="cls-9" cx="546.3" cy="54.93" rx="2.35" ry="5.52" transform="translate(121.16 402.38) rotate(-45)"/><rect class="cls-6" x="539.75" y="60.55" width="13.03" height="2" transform="matrix(0.02, -1, 1, 0.02, 474.62, 606.58)"/><line class="cls-7" x1="546.42" y1="55.04" x2="546.18" y2="68.07"/><circle class="cls-8" cx="546.42" cy="55.04" r="3.37"/><circle class="cls-8" cx="546.42" cy="55.04" r="2.37"/><path class="cls-4" d="M496.47,46.22c.09-8.94,4-10.81,7.28-10.81,3.54,0,10,3.23,10,4.61v1.63L512.3,41a10.94,10.94,0,0,0-4.9-1.32c-6.06,0-9,7-9,7Z"/><path class="cls-4" d="M497.47,46.23s4.75-11.61,15.29-6.21C512.76,40,497.65,28.7,497.47,46.23Z"/><path class="cls-4" d="M495.52,46.06c-1.14-5-4.26-7.56-9.28-7.56a15,15,0,0,0-4,.55l-.94-1.73c3-2.48,5.75-3.73,8.09-3.73,7.38,0,8.1,11.69,8.13,12.19Z"/><path class="cls-4" d="M481.92,38.1s11.95-3.8,14.58,7.74C496.5,45.84,495.48,27,481.92,38.1Z"/><path class="cls-4" d="M496.2,46.07c-1.89-5.68-1.84-10,.15-12.73s5.46-3.36,8-3.36a17.06,17.06,0,0,1,3.19.3l-.2,2a7.56,7.56,0,0,0-5.54,2.26c-3.72,3.81-3.65,11.15-3.65,11.22Z"/><path class="cls-4" d="M497.15,45.76s-.23-14.4,10.18-14.5C507.33,31.26,491.15,27.74,497.15,45.76Z"/><polygon class="cls-10" points="494.95 47.3 494.58 41.65 499.09 42.7 500.29 47.48 494.95 47.3"/><polygon class="cls-10" points="499 46.44 495.89 46.34 495.67 42.92 498.27 43.53 499 46.44"/><polygon class="cls-10" points="494.9 46.6 500.13 46.78 501.82 53.59 495.37 53.8 494.9 46.6"/><polygon class="cls-10" points="500.55 52.63 496.31 52.77 495.97 47.65 499.34 47.77 500.55 52.63"/><polygon class="cls-10" points="495.4 54.31 501.75 53.3 504.14 62.74 496.1 65.03 495.4 54.31"/><polygon class="cls-10" points="502.93 62.05 497.02 63.73 496.46 55.16 501.01 54.44 502.93 62.05"/><polygon class="cls-10" points="496.18 66.27 504.65 64.88 507.01 74.22 496.81 75.94 496.18 66.27"/><polygon class="cls-10" points="505.78 73.42 497.74 74.77 497.24 67.11 503.91 66.02 505.78 73.42"/><polygon class="cls-11" points="495.24 51.8 501.32 51.6 502.25 55.24 495.53 56.33 495.24 51.8"/><polygon class="cls-11" points="501.01 54.44 496.46 55.16 496.31 52.77 500.55 52.63 501.01 54.44"/><polygon class="cls-11" points="495.97 62.99 503.65 60.8 505.14 66.83 496.31 68.27 495.97 62.99"/><polygon class="cls-11" points="503.91 66.02 497.24 67.11 497.02 63.73 502.93 62.05 503.91 66.02"/><polygon class="cls-11" points="495.03 48.62 494.82 45.3 499.78 45.45 500.64 48.8 495.03 48.62"/><polygon class="cls-11" points="499.34 47.77 495.97 47.65 495.89 46.34 499 46.44 499.34 47.77"/><path class="cls-10" d="M16.62,261A15.09,15.09,0,0,1,4.71,254.8a23.24,23.24,0,0,1-4-19.73l2.75-11.55L64.37,212.4a166.68,166.68,0,0,1,49-1.61l100,11.56.47.05a199,199,0,0,0,22.64,1.29,197.61,197.61,0,0,0,21.75-1.19l118.2-12.86a121.43,121.43,0,0,1,26.27.06c1.34.15,2.79.34,4.44.59l113.48,17.17a255.59,255.59,0,0,0,38.49,2.89c2.74,0,5.52,0,8.26-.13l154.9-5V226l1.88,3.5a23.79,23.79,0,0,1-.31,23.17c-3.13,5.3-8,8.34-13.41,8.34Z"/><path class="cls-10" d="M710.44,260H16.62C6.23,260-1.25,247.64,1.68,235.32l2.6-10.91,60.27-11a165.68,165.68,0,0,1,48.75-1.6l100,11.56.56.06a200.82,200.82,0,0,0,44.52.09l118.16-12.88a118.17,118.17,0,0,1,26,.06c1.47.16,2.94.36,4.4.58l48.9,7.4,64.58,9.77a257.62,257.62,0,0,0,46.93,2.77l153.87-5h0l2,3.72C730.34,242.73,722.93,260,710.44,260Z"/><polygon class="cls-10" points="143.84 186.09 161.61 161.41 157.56 127.05 205.27 107.75 206.21 109.52 169.69 134.19 172.69 169.19 145.2 187.51 143.84 186.09"/><polygon class="cls-10" points="144.65 186.69 162.65 161.69 158.65 127.69 205.65 108.69 168.65 133.69 171.65 168.69 144.65 186.69"/><polygon class="cls-10" points="357.81 147.19 357.81 110.58 333.09 84.88 334.42 83.39 369.95 110.81 359.77 147.46 357.81 147.19"/><polygon class="cls-10" points="333.81 84.19 358.81 110.19 358.81 147.19 368.81 111.19 333.81 84.19"/><polygon class="cls-10" points="479.48 190.24 479.71 188.25 523.07 190.85 566.43 181.31 566.98 183.24 524.97 198.12 479.48 190.24"/><polygon class="cls-10" points="566.65 182.29 524.89 197.09 479.65 189.25 523.15 191.87 566.65 182.29"/><polygon class="cls-10" points="284.55 185.99 269.54 189.96 244.46 196.63 243.63 194.84 261.94 182.13 285.96 165.47 293.92 196.72 292.11 197.53 284.55 185.99"/><polygon class="cls-10" points="292.95 196.97 284.99 184.84 269.29 189 244.2 195.66 262.51 182.96 285.35 167.13 292.95 196.97"/></g></g></g></g></g></g></svg>