<svg id="e5il8ds8usjk1" xmlns="http://www.w3.org/2000/svg" xmlns:xlink="http://www.w3.org/1999/xlink" viewBox="0 0 437 468" shape-rendering="geometricPrecision" text-rendering="geometricPrecision"><style><![CDATA[#e5il8ds8usjk4 {animation: e5il8ds8usjk4_c_o 4000ms linear infinite normal forwards}@keyframes e5il8ds8usjk4_c_o { 0% {opacity: 0.100000} 37.500000% {opacity: 0.320000} 100% {opacity: 0.100000} }#e5il8ds8usjk7_ts {animation: e5il8ds8usjk7_ts__ts 4000ms linear infinite normal forwards}@keyframes e5il8ds8usjk7_ts__ts { 0% {transform: translate(218.500000px,239.500000px) scale(0.750162,1)} 37.500000% {transform: translate(218.500000px,239.500000px) scale(0.858522,1)} 100% {transform: translate(218.500000px,239.500000px) scale(0.750162,1)} }#e5il8ds8usjk9_ts {animation: e5il8ds8usjk9_ts__ts 4000ms linear infinite normal forwards}@keyframes e5il8ds8usjk9_ts__ts { 0% {transform: translate(218px,237px) scale(1,1)} 37.500000% {transform: translate(218px,237px) scale(1.065191,1.065191)} 100% {transform: translate(218px,237px) scale(1,1)} }#e5il8ds8usjk12_ts {animation: e5il8ds8usjk12_ts__ts 4000ms linear infinite normal forwards}@keyframes e5il8ds8usjk12_ts__ts { 0% {transform: translate(206.500000px,73.500000px) scale(1,1)} 37.500000% {transform: translate(206.500000px,73.500000px) scale(1.427311,1)} 100% {transform: translate(206.500000px,73.500000px) scale(1,1)} }#e5il8ds8usjk13_ts {animation: e5il8ds8usjk13_ts__ts 4000ms linear infinite normal forwards}@keyframes e5il8ds8usjk13_ts__ts { 0% {transform: translate(221px,397.500000px) scale(1,1)} 37.500000% {transform: translate(221px,397.500000px) scale(1.262452,1)} 100% {transform: translate(221px,397.500000px) scale(1,1)} }#e5il8ds8usjk14_ts {animation: e5il8ds8usjk14_ts__ts 4000ms linear infinite normal forwards}@keyframes e5il8ds8usjk14_ts__ts { 0% {transform: translate(222px,239.500000px) scale(1,1)} 37.500000% {transform: translate(222px,239.500000px) scale(1.301656,1)} 100% {transform: translate(222px,239.500000px) scale(1,1)} }#e5il8ds8usjk15_tr {animation: e5il8ds8usjk15_tr__tr 4000ms linear infinite normal forwards}@keyframes e5il8ds8usjk15_tr__tr { 0% {transform: translate(215.970000px,237px) rotate(360deg)} 100% {transform: translate(215.970000px,237px) rotate(540deg)} }#e5il8ds8usjk15_ts {animation: e5il8ds8usjk15_ts__ts 4000ms linear infinite normal forwards}@keyframes e5il8ds8usjk15_ts__ts { 0% {transform: scale(0.654307,0.654307)} 37.500000% {transform: scale(1.190138,1.190138)} 100% {transform: scale(0.654307,0.654307)} }]]></style><g id="e5il8ds8usjk2" transform="matrix(1.27443410475118 0 0 1.27443410475118 35.63757417770810 71.00706536682685)" opacity="0.34"><g id="e5il8ds8usjk3"><path id="e5il8ds8usjk4" d="M283,132.500000C283,147,270.870000,159.350000,266.430000,172.410000C261.860000,185.870000,263.840000,203.010000,255.350000,214.170000C246.860000,225.330000,229.740000,228.050000,218.100000,236.170000C206.680000,244.110000,198.290000,259.270000,184.620000,263.520000C171.490000,267.590000,156.020000,260.020000,141.500000,260.020000C126.980000,260.020000,111.500000,267.590000,98.380000,263.520000C84.710000,259.270000,76.320000,244.110000,64.900000,236.170000C53.260000,228.070000,36.160000,225.370000,27.650000,214.170000C19.140000,202.970000,21.140000,185.870000,16.570000,172.410000C12.130000,159.350000,0,147,0,132.500000C0,118,12.130000,105.650000,16.570000,92.590000C21.140000,79.130000,19.160000,62,27.650000,50.830000C36.140000,39.660000,53.260000,37,64.900000,28.850000C76.320000,20.910000,84.710000,5.750000,98.380000,1.500000C111.510000,-2.570000,127,5,141.500000,5C156,5,171.500000,-2.570000,184.620000,1.500000C198.290000,5.750000,206.680000,20.910000,218.100000,28.850000C229.740000,36.950000,246.840000,39.650000,255.350000,50.850000C263.860000,62.050000,261.860000,79.150000,266.430000,92.610000C270.870000,105.650000,283,118,283,132.500000Z" transform="matrix(1 0 0 1 0 -0.29999870923103)" opacity="0.1" fill="rgb(255,168,123)" stroke="none" stroke-width="1"/></g></g><g id="e5il8ds8usjk5"><g id="e5il8ds8usjk6"><g id="e5il8ds8usjk7_ts" transform="translate(218.500000,239.500000) scale(0.750162,1)"><ellipse id="e5il8ds8usjk7" rx="218.500000" ry="77" transform="translate(0,-0.500000)" fill="rgb(92,37,18)" stroke="none" stroke-width="1"/></g><ellipse id="e5il8ds8usjk8" rx="136.500000" ry="132.500000" transform="matrix(1 0 0 1 218.50000000000000 239.50000000000000)" fill="rgb(92,37,18)" stroke="none" stroke-width="1"/><g id="e5il8ds8usjk9_ts" transform="translate(218,237) scale(1,1)"><circle id="e5il8ds8usjk9" r="93" transform="translate(0,0)" fill="rgb(255,102,51)" stroke="none" stroke-width="1"/></g><path id="e5il8ds8usjk10" d="M200,147L174.410000,12.670000C173.813608,9.544647,174.643109,6.316197,176.672203,3.865423C178.701297,1.414649,181.718254,-0.002719,184.900000,0L218.400000,0C221.377866,0.012178,224.215421,1.267089,226.227999,3.461938C228.240578,5.656788,229.245394,8.592237,229,11.560000L218,144" fill="rgb(255,255,255)" stroke="none" stroke-width="1"/><path id="e5il8ds8usjk11" d="M223.190000,321L247,445.830000C248.044537,451.303003,246.590057,456.956510,243.033944,461.245902C239.477832,465.535293,234.191774,468.012239,228.620000,468L213.480000,468C208.257297,467.998439,203.273749,465.810528,199.737849,461.966828C196.201949,458.123127,194.436638,452.974692,194.870000,447.770000L205.190000,324" transform="matrix(1 0 0 1 -0.06834446500000 -0.00004514000000)" fill="rgb(255,255,255)" stroke="none" stroke-width="1"/><g id="e5il8ds8usjk12_ts" transform="translate(206.500000,73.500000) scale(1,1)"><ellipse id="e5il8ds8usjk12" rx="44.500000" ry="14.500000" transform="translate(-0,0)" fill="rgb(255,255,255)" stroke="none" stroke-width="1"/></g><g id="e5il8ds8usjk13_ts" transform="translate(221,397.500000) scale(1,1)"><ellipse id="e5il8ds8usjk13" rx="39" ry="12.500000" transform="translate(0,0)" fill="rgb(255,255,255)" stroke="none" stroke-width="1"/></g><g id="e5il8ds8usjk14_ts" transform="translate(222,239.500000) scale(1,1)"><ellipse id="e5il8ds8usjk14" rx="122" ry="8" transform="translate(0,-0.500000)" fill="rgb(255,102,51)" stroke="none" stroke-width="1"/></g><g id="e5il8ds8usjk15_tr" transform="translate(215.970000,237) rotate(360)"><g id="e5il8ds8usjk15_ts" transform="scale(0.654307,0.654307)"><path id="e5il8ds8usjk15" d="M277,237C277,230.100000,281.760000,222.520000,279.740000,216.290000C277.640000,209.830000,269.270000,206.520000,265.360000,201.140000C261.450000,195.760000,260.810000,186.740000,255.360000,182.790000C249.910000,178.840000,241.280000,181.070000,234.830000,178.970000C228.600000,176.970000,222.830000,169.970000,215.970000,169.970000C209.110000,169.970000,203.340000,176.920000,197.110000,178.970000C190.660000,181.070000,181.960000,178.880000,176.580000,182.790000C171.200000,186.700000,170.580000,195.720000,166.580000,201.150000C162.580000,206.580000,154.300000,209.830000,152.200000,216.290000C150.200000,222.520000,154.940000,230.100000,154.940000,237C154.940000,243.900000,150.180000,251.480000,152.200000,257.710000C154.300000,264.170000,162.670000,267.480000,166.580000,272.860000C170.490000,278.240000,171.130000,287.260000,176.580000,291.210000C182.030000,295.160000,190.660000,292.930000,197.110000,295.030000C203.340000,297.030000,209.110000,304.030000,215.970000,304.030000C222.830000,304.030000,228.600000,297.080000,234.830000,295.030000C241.280000,292.930000,249.980000,295.120000,255.360000,291.210000C260.740000,287.300000,261.360000,278.280000,265.360000,272.850000C269.360000,267.420000,277.640000,264.170000,279.740000,257.710000C281.760000,251.480000,277,243.900000,277,237Z" transform="translate(-215.970000,-237)" fill="rgb(255,255,255)" stroke="none" stroke-width="1"/></g></g></g></g></svg>