<svg id="e7npjbugayd1" xmlns="http://www.w3.org/2000/svg" xmlns:xlink="http://www.w3.org/1999/xlink" viewBox="0 0 596 596" shape-rendering="geometricPrecision" text-rendering="geometricPrecision"><style><![CDATA[#e7npjbugayd10 {animation: e7npjbugayd10_c_o 3000ms linear infinite normal forwards}@keyframes e7npjbugayd10_c_o { 0% {opacity: 1} 46.666667% {opacity: 1;animation-timing-function: cubic-bezier(0.420000,0,0.580000,1)} 56.666667% {opacity: 0;animation-timing-function: cubic-bezier(0.420000,0,0.580000,1)} 66.666667% {opacity: 1} 100% {opacity: 1} }#e7npjbugayd15 {animation: e7npjbugayd15_c_o 3000ms linear infinite normal forwards}@keyframes e7npjbugayd15_c_o { 0% {opacity: 1} 30% {opacity: 1;animation-timing-function: cubic-bezier(0.420000,0,0.580000,1)} 40% {opacity: 0;animation-timing-function: cubic-bezier(0.420000,0,0.580000,1)} 50% {opacity: 1} 100% {opacity: 1} }#e7npjbugayd19 {animation: e7npjbugayd19_c_o 3000ms linear infinite normal forwards}@keyframes e7npjbugayd19_c_o { 0% {opacity: 1} 33.333333% {opacity: 1} 46.666667% {opacity: 0.460000} 56.666667% {opacity: 1} 100% {opacity: 1} }#e7npjbugayd26 {animation: e7npjbugayd26_c_o 3000ms linear infinite normal forwards}@keyframes e7npjbugayd26_c_o { 0% {opacity: 1} 20% {opacity: 1} 33.333333% {opacity: 0.460000} 43.333333% {opacity: 1} 100% {opacity: 1} }#e7npjbugayd32 {animation: e7npjbugayd32_c_o 3000ms linear infinite normal forwards}@keyframes e7npjbugayd32_c_o { 0% {opacity: 1;animation-timing-function: cubic-bezier(0.420000,0,0.580000,1)} 16.666667% {opacity: 0.340000;animation-timing-function: cubic-bezier(0.420000,0,0.580000,1)} 26.666667% {opacity: 1} 100% {opacity: 1} }#e7npjbugayd47 {animation: e7npjbugayd47_c_o 3000ms linear infinite normal forwards}@keyframes e7npjbugayd47_c_o { 0% {opacity: 1} 53.333333% {opacity: 1} 66.666667% {opacity: 0.340000} 80% {opacity: 1} 100% {opacity: 1} }#e7npjbugayd67 {animation: e7npjbugayd67_c_o 3000ms linear infinite normal forwards}@keyframes e7npjbugayd67_c_o { 0% {opacity: 1} 80% {opacity: 1;animation-timing-function: cubic-bezier(0.420000,0,0.580000,1)} 93.333333% {opacity: 0.320000;animation-timing-function: cubic-bezier(0.420000,0,0.580000,1)} 100% {opacity: 1} }#e7npjbugayd116 {animation: e7npjbugayd116_c_o 3000ms linear infinite normal forwards}@keyframes e7npjbugayd116_c_o { 0% {opacity: 1} 26.666667% {opacity: 1;animation-timing-function: cubic-bezier(0.420000,0,0.580000,1)} 36.666667% {opacity: 0.340000;animation-timing-function: cubic-bezier(0.420000,0,0.580000,1)} 43.333333% {opacity: 1} 100% {opacity: 1} }#e7npjbugayd117 {animation: e7npjbugayd117_c_o 3000ms linear infinite normal forwards}@keyframes e7npjbugayd117_c_o { 0% {opacity: 1} 33.333333% {opacity: 1;animation-timing-function: cubic-bezier(0.420000,0,0.580000,1)} 43.333333% {opacity: 0.460000} 50% {opacity: 1} 100% {opacity: 1} }#e7npjbugayd119 {animation: e7npjbugayd119_c_o 3000ms linear infinite normal forwards}@keyframes e7npjbugayd119_c_o { 0% {opacity: 1} 50% {opacity: 1;animation-timing-function: cubic-bezier(0.420000,0,0.580000,1)} 60% {opacity: 0.240000} 70% {opacity: 1} 100% {opacity: 1} }#e7npjbugayd120 {animation: e7npjbugayd120_c_o 3000ms linear infinite normal forwards}@keyframes e7npjbugayd120_c_o { 0% {opacity: 1;animation-timing-function: cubic-bezier(0.420000,0,0.580000,1)} 13.333333% {opacity: 0.400000;animation-timing-function: cubic-bezier(0.420000,0,0.580000,1)} 23.333333% {opacity: 1} 100% {opacity: 1} }#e7npjbugayd129 {animation: e7npjbugayd129_c_o 3000ms linear infinite normal forwards}@keyframes e7npjbugayd129_c_o { 0% {opacity: 1} 83.333333% {opacity: 1;animation-timing-function: cubic-bezier(0.420000,0,0.580000,1)} 93.333333% {opacity: 0.480000;animation-timing-function: cubic-bezier(0.420000,0,0.580000,1)} 100% {opacity: 1} }#e7npjbugayd146 {animation: e7npjbugayd146_c_o 3000ms linear infinite normal forwards}@keyframes e7npjbugayd146_c_o { 0% {opacity: 1} 76.666667% {opacity: 1;animation-timing-function: cubic-bezier(0.420000,0,0.580000,1)} 86.666667% {opacity: 0;animation-timing-function: cubic-bezier(0.420000,0,0.580000,1)} 93.333333% {opacity: 1} 100% {opacity: 1} }#e7npjbugayd162 {animation: e7npjbugayd162_c_o 3000ms linear infinite normal forwards}@keyframes e7npjbugayd162_c_o { 0% {opacity: 1} 46.666667% {opacity: 1;animation-timing-function: cubic-bezier(0.420000,0,0.580000,1)} 56.666667% {opacity: 0;animation-timing-function: cubic-bezier(0.420000,0,0.580000,1)} 66.666667% {opacity: 1} 100% {opacity: 1} }#e7npjbugayd167 {animation: e7npjbugayd167_c_o 3000ms linear infinite normal forwards}@keyframes e7npjbugayd167_c_o { 0% {opacity: 1} 30% {opacity: 1;animation-timing-function: cubic-bezier(0.420000,0,0.580000,1)} 40% {opacity: 0;animation-timing-function: cubic-bezier(0.420000,0,0.580000,1)} 50% {opacity: 1} 100% {opacity: 1} }#e7npjbugayd171 {animation: e7npjbugayd171_c_o 3000ms linear infinite normal forwards}@keyframes e7npjbugayd171_c_o { 0% {opacity: 1} 33.333333% {opacity: 1} 46.666667% {opacity: 0.460000} 56.666667% {opacity: 1} 100% {opacity: 1} }#e7npjbugayd178 {animation: e7npjbugayd178_c_o 3000ms linear infinite normal forwards}@keyframes e7npjbugayd178_c_o { 0% {opacity: 1} 20% {opacity: 1} 33.333333% {opacity: 0.460000} 43.333333% {opacity: 1} 100% {opacity: 1} }#e7npjbugayd184 {animation: e7npjbugayd184_c_o 3000ms linear infinite normal forwards}@keyframes e7npjbugayd184_c_o { 0% {opacity: 1;animation-timing-function: cubic-bezier(0.420000,0,0.580000,1)} 16.666667% {opacity: 0.340000;animation-timing-function: cubic-bezier(0.420000,0,0.580000,1)} 26.666667% {opacity: 1} 100% {opacity: 1} }#e7npjbugayd199 {animation: e7npjbugayd199_c_o 3000ms linear infinite normal forwards}@keyframes e7npjbugayd199_c_o { 0% {opacity: 1} 53.333333% {opacity: 1} 66.666667% {opacity: 0.340000} 80% {opacity: 1} 100% {opacity: 1} }#e7npjbugayd219 {animation: e7npjbugayd219_c_o 3000ms linear infinite normal forwards}@keyframes e7npjbugayd219_c_o { 0% {opacity: 1} 80% {opacity: 1;animation-timing-function: cubic-bezier(0.420000,0,0.580000,1)} 93.333333% {opacity: 0.320000;animation-timing-function: cubic-bezier(0.420000,0,0.580000,1)} 100% {opacity: 1} }#e7npjbugayd268 {animation: e7npjbugayd268_c_o 3000ms linear infinite normal forwards}@keyframes e7npjbugayd268_c_o { 0% {opacity: 1} 26.666667% {opacity: 1;animation-timing-function: cubic-bezier(0.420000,0,0.580000,1)} 36.666667% {opacity: 0.340000;animation-timing-function: cubic-bezier(0.420000,0,0.580000,1)} 43.333333% {opacity: 1} 100% {opacity: 1} }#e7npjbugayd269 {animation: e7npjbugayd269_c_o 3000ms linear infinite normal forwards}@keyframes e7npjbugayd269_c_o { 0% {opacity: 1} 33.333333% {opacity: 1;animation-timing-function: cubic-bezier(0.420000,0,0.580000,1)} 43.333333% {opacity: 0.460000} 50% {opacity: 1} 100% {opacity: 1} }#e7npjbugayd271 {animation: e7npjbugayd271_c_o 3000ms linear infinite normal forwards}@keyframes e7npjbugayd271_c_o { 0% {opacity: 1} 50% {opacity: 1;animation-timing-function: cubic-bezier(0.420000,0,0.580000,1)} 60% {opacity: 0.240000} 70% {opacity: 1} 100% {opacity: 1} }#e7npjbugayd272 {animation: e7npjbugayd272_c_o 3000ms linear infinite normal forwards}@keyframes e7npjbugayd272_c_o { 0% {opacity: 1;animation-timing-function: cubic-bezier(0.420000,0,0.580000,1)} 13.333333% {opacity: 0.400000;animation-timing-function: cubic-bezier(0.420000,0,0.580000,1)} 23.333333% {opacity: 1} 100% {opacity: 1} }#e7npjbugayd281 {animation: e7npjbugayd281_c_o 3000ms linear infinite normal forwards}@keyframes e7npjbugayd281_c_o { 0% {opacity: 1} 83.333333% {opacity: 1;animation-timing-function: cubic-bezier(0.420000,0,0.580000,1)} 93.333333% {opacity: 0.480000;animation-timing-function: cubic-bezier(0.420000,0,0.580000,1)} 100% {opacity: 1} }#e7npjbugayd298 {animation: e7npjbugayd298_c_o 3000ms linear infinite normal forwards}@keyframes e7npjbugayd298_c_o { 0% {opacity: 1} 76.666667% {opacity: 1;animation-timing-function: cubic-bezier(0.420000,0,0.580000,1)} 86.666667% {opacity: 0;animation-timing-function: cubic-bezier(0.420000,0,0.580000,1)} 93.333333% {opacity: 1} 100% {opacity: 1} }]]></style><g id="e7npjbugayd2"><g id="e7npjbugayd3"><rect id="e7npjbugayd4" width="298" height="298" rx="0" ry="0" fill="rgb(0,0,0)" stroke="none" stroke-width="1"/><circle id="e7npjbugayd5" r="5" transform="matrix(1 0 0 1 38 48)" fill="rgb(255,255,255)" stroke="none" stroke-width="1"/><circle id="e7npjbugayd6" r="3.500000" transform="matrix(1 0 0 1 119.50000000000000 18.50000000000000)" fill="rgb(255,255,255)" stroke="none" stroke-width="1"/><circle id="e7npjbugayd7" r="6" transform="matrix(1 0 0 1 122 47)" fill="rgb(255,255,255)" stroke="none" stroke-width="1"/><polygon id="e7npjbugayd8" points="157.730000,87.440000 154.660000,84.560000 150.540000,85.450000 152.330000,81.640000 150.210000,78.010000 154.380000,78.530000 157.190000,75.390000 157.980000,79.520000 161.840000,81.220000 158.150000,83.250000 157.730000,87.440000" fill="rgb(255,255,255)" stroke="none" stroke-width="1"/><polygon id="e7npjbugayd9" points="153.730000,112.440000 150.660000,109.560000 146.540000,110.450000 148.330000,106.640000 146.210000,103.010000 150.380000,103.530000 153.190000,100.390000 153.980000,104.520000 157.840000,106.220000 154.150000,108.250000 153.730000,112.440000" fill="rgb(255,255,255)" stroke="none" stroke-width="1"/><polygon id="e7npjbugayd10" points="133.200000,128 128.710000,123.790000 122.690000,125.090000 125.310000,119.520000 122.210000,114.220000 128.300000,114.980000 132.410000,110.390000 133.560000,116.430000 139.210000,118.910000 133.810000,121.880000 133.200000,128" fill="rgb(255,255,255)" stroke="none" stroke-width="1"/><polygon id="e7npjbugayd11" points="96.200000,138 91.710000,133.790000 85.690000,135.090000 88.310000,129.520000 85.210000,124.220000 91.300000,124.980000 95.410000,120.390000 96.560000,126.430000 102.210000,128.910000 96.810000,131.880000 96.200000,138" fill="rgb(255,255,255)" stroke="none" stroke-width="1"/><polygon id="e7npjbugayd12" points="34.730000,137.440000 31.660000,134.560000 27.540000,135.450000 29.330000,131.640000 27.210000,128.010000 31.380000,128.530000 34.190000,125.390000 34.980000,129.520000 38.840000,131.220000 35.150000,133.250000 34.730000,137.440000" fill="rgb(255,255,255)" stroke="none" stroke-width="1"/><polygon id="e7npjbugayd13" points="50,186.560000 46.530000,186.760000 44.730000,189.740000 43.470000,186.500000 40.080000,185.710000 42.770000,183.500000 42.480000,180.040000 45.400000,181.910000 48.610000,180.570000 47.730000,183.930000 50,186.560000" fill="rgb(255,255,255)" stroke="none" stroke-width="1"/><polygon id="e7npjbugayd14" points="101.490000,184.740000 97.920000,184.940000 96.070000,188 94.780000,184.670000 91.300000,183.860000 94.060000,181.600000 93.760000,178.040000 96.770000,179.970000 100.060000,178.580000 99.160000,182.030000 101.490000,184.740000" transform="matrix(1 0 0 1 0.09554971289614 0.00497395694410)" fill="rgb(255,255,255)" stroke="none" stroke-width="1"/><polygon id="e7npjbugayd15" points="63.490000,263.170000 58.100000,263.480000 55.300000,268.100000 53.340000,263.070000 48.080000,261.840000 52.260000,258.420000 51.800000,253.040000 56.350000,255.950000 61.330000,253.860000 59.960000,259.080000 63.490000,263.170000" fill="rgb(255,255,255)" stroke="none" stroke-width="1"/><polygon id="e7npjbugayd16" points="71.490000,286.170000 66.100000,286.480000 63.300000,291.100000 61.340000,286.070000 56.080000,284.840000 60.260000,281.420000 59.800000,276.040000 64.350000,278.950000 69.330000,276.860000 67.960000,282.080000 71.490000,286.170000" fill="rgb(255,255,255)" stroke="none" stroke-width="1"/><polygon id="e7npjbugayd17" points="25.490000,249.170000 20.100000,249.480000 17.300000,254.100000 15.340000,249.070000 10.080000,247.840000 14.260000,244.420000 13.800000,239.040000 18.350000,241.950000 23.330000,239.860000 21.960000,245.080000 25.490000,249.170000" fill="rgb(255,255,255)" stroke="none" stroke-width="1"/><polygon id="e7npjbugayd18" points="25.490000,209.170000 20.100000,209.480000 17.300000,214.100000 15.340000,209.070000 10.080000,207.840000 14.260000,204.420000 13.800000,199.040000 18.350000,201.950000 23.330000,199.860000 21.960000,205.080000 25.490000,209.170000" fill="rgb(255,255,255)" stroke="none" stroke-width="1"/><polygon id="e7npjbugayd19" points="254.820000,246.150000 251.380000,240.290000 244.610000,239.810000 249.110000,234.720000 247.480000,228.140000 253.710000,230.850000 259.460000,227.260000 258.820000,234.010000 264,238.400000 257.380000,239.860000 254.820000,246.150000" transform="matrix(1 0 0 1 -0.61000000000001 0.16000000000000)" fill="rgb(255,255,255)" stroke="none" stroke-width="1"/><polygon id="e7npjbugayd20" points="151.590000,153.070000 144.840000,155.430000 142.940000,162.310000 138.620000,156.620000 131.480000,156.950000 135.560000,151.080000 133.040000,144.380000 139.890000,146.450000 145.470000,142 145.620000,149.140000 151.590000,153.070000" fill="rgb(255,255,255)" stroke="none" stroke-width="1"/><polygon id="e7npjbugayd21" points="112.390000,239.920000 107.720000,241.550000 106.410000,246.310000 103.420000,242.370000 98.480000,242.600000 101.300000,238.540000 99.560000,233.910000 104.300000,235.340000 108.160000,232.260000 108.260000,237.200000 112.390000,239.920000" fill="rgb(255,255,255)" stroke="none" stroke-width="1"/><polygon id="e7npjbugayd22" points="69.390000,149.920000 64.720000,151.550000 63.410000,156.310000 60.420000,152.370000 55.480000,152.600000 58.300000,148.540000 56.560000,143.910000 61.300000,145.340000 65.160000,142.260000 65.260000,147.200000 69.390000,149.920000" fill="rgb(255,255,255)" stroke="none" stroke-width="1"/><polygon id="e7npjbugayd23" points="25.390000,169.920000 20.720000,171.550000 19.410000,176.310000 16.420000,172.370000 11.480000,172.600000 14.300000,168.540000 12.560000,163.910000 17.300000,165.340000 21.160000,162.260000 21.260000,167.200000 25.390000,169.920000" fill="rgb(255,255,255)" stroke="none" stroke-width="1"/><polygon id="e7npjbugayd24" points="89.390000,67.920000 84.720000,69.550000 83.410000,74.310000 80.420000,70.370000 75.480000,70.600000 78.300000,66.540000 76.560000,61.910000 81.300000,63.340000 85.160000,60.260000 85.260000,65.200000 89.390000,67.920000" fill="rgb(255,255,255)" stroke="none" stroke-width="1"/><polygon id="e7npjbugayd25" points="122.390000,71.920000 117.720000,73.550000 116.410000,78.310000 113.420000,74.370000 108.480000,74.600000 111.300000,70.540000 109.560000,65.910000 114.300000,67.340000 118.160000,64.260000 118.260000,69.200000 122.390000,71.920000" fill="rgb(255,255,255)" stroke="none" stroke-width="1"/><polygon id="e7npjbugayd26" points="274.700000,84.570000 279.840000,88.100000 285.650000,85.890000 283.870000,91.860000 287.790000,96.700000 281.560000,96.860000 278.160000,102.080000 276.080000,96.200000 270.070000,94.570000 275.020000,90.790000 274.700000,84.570000" fill="rgb(255,255,255)" stroke="none" stroke-width="1"/><polygon id="e7npjbugayd27" points="290.110000,124.350000 285.200000,124.970000 282.930000,129.360000 280.820000,124.890000 275.940000,124.090000 279.540000,120.700000 278.800000,115.810000 283.140000,118.190000 287.560000,115.980000 286.630000,120.830000 290.110000,124.350000" fill="rgb(255,255,255)" stroke="none" stroke-width="1"/><polygon id="e7npjbugayd28" points="285.390000,16.920000 280.720000,18.550000 279.410000,23.310000 276.420000,19.370000 271.480000,19.600000 274.300000,15.540000 272.560000,10.910000 277.300000,12.340000 281.160000,9.260000 281.260000,14.200000 285.390000,16.920000" fill="rgb(255,255,255)" stroke="none" stroke-width="1"/><polygon id="e7npjbugayd29" points="183.890000,119.790000 180.150000,125.580000 182.790000,131.940000 176.120000,130.170000 170.890000,134.660000 170.510000,127.780000 164.630000,124.180000 171.070000,121.690000 172.670000,114.990000 177.010000,120.340000 183.890000,119.790000" fill="rgb(255,255,255)" stroke="none" stroke-width="1"/><polygon id="e7npjbugayd30" points="70.390000,90.920000 65.720000,92.550000 64.410000,97.310000 61.420000,93.370000 56.480000,93.600000 59.300000,89.540000 57.560000,84.910000 62.300000,86.340000 66.160000,83.260000 66.260000,88.200000 70.390000,90.920000" fill="rgb(255,255,255)" stroke="none" stroke-width="1"/><polygon id="e7npjbugayd31" points="69,114.360000 63.450000,116.290000 61.900000,121.950000 58.350000,117.270000 52.480000,117.540000 55.830000,112.720000 53.760000,107.220000 59.390000,108.920000 63.980000,105.260000 64.090000,111.130000 69,114.360000" fill="rgb(255,255,255)" stroke="none" stroke-width="1"/><polygon id="e7npjbugayd32" points="24.390000,20.920000 19.720000,22.550000 18.410000,27.310000 15.420000,23.370000 10.480000,23.600000 13.300000,19.540000 11.560000,14.910000 16.300000,16.340000 20.160000,13.260000 20.260000,18.200000 24.390000,20.920000" fill="rgb(255,255,255)" stroke="none" stroke-width="1"/><polygon id="e7npjbugayd33" points="75,41.460000 68.780000,43.630000 67.040000,49.970000 63.060000,44.720000 56.480000,45.030000 60.230000,39.620000 57.920000,33.460000 64.230000,35.360000 69.370000,31.260000 69.500000,37.840000 75,41.460000" fill="rgb(255,255,255)" stroke="none" stroke-width="1"/><polygon id="e7npjbugayd34" points="25.390000,90.920000 20.720000,92.550000 19.410000,97.310000 16.420000,93.370000 11.480000,93.600000 14.300000,89.540000 12.560000,84.910000 17.300000,86.340000 21.160000,83.260000 21.260000,88.200000 25.390000,90.920000" fill="rgb(255,255,255)" stroke="none" stroke-width="1"/><polygon id="e7npjbugayd35" points="157.390000,272.920000 152.720000,274.550000 151.410000,279.310000 148.420000,275.370000 143.480000,275.600000 146.300000,271.540000 144.560000,266.910000 149.300000,268.340000 153.160000,265.260000 153.260000,270.200000 157.390000,272.920000" fill="rgb(255,255,255)" stroke="none" stroke-width="1"/><polygon id="e7npjbugayd36" points="195.390000,283.920000 190.720000,285.550000 189.410000,290.310000 186.420000,286.370000 181.480000,286.600000 184.300000,282.540000 182.560000,277.910000 187.300000,279.340000 191.160000,276.260000 191.260000,281.200000 195.390000,283.920000" fill="rgb(255,255,255)" stroke="none" stroke-width="1"/><polygon id="e7npjbugayd37" points="242,30.570000 240.870000,28.080000 238.170000,27.610000 240.180000,25.760000 239.790000,23.060000 242.180000,24.390000 244.630000,23.190000 244.090000,25.870000 246,27.830000 243.280000,28.150000 242,30.570000" fill="rgb(255,255,255)" stroke="none" stroke-width="1"/><polygon id="e7npjbugayd38" points="276.310000,61.090000 274.490000,57.110000 270.170000,56.360000 273.390000,53.390000 272.770000,49.060000 276.590000,51.200000 280.530000,49.270000 279.660000,53.570000 282.720000,56.710000 278.360000,57.220000 276.310000,61.090000" fill="rgb(255,255,255)" stroke="none" stroke-width="1"/><polygon id="e7npjbugayd39" points="207.310000,22.090000 205.490000,18.110000 201.170000,17.360000 204.390000,14.390000 203.770000,10.060000 207.590000,12.200000 211.530000,10.270000 210.660000,14.570000 213.720000,17.710000 209.360000,18.220000 207.310000,22.090000" fill="rgb(255,255,255)" stroke="none" stroke-width="1"/><polygon id="e7npjbugayd40" points="213.310000,61.090000 211.490000,57.110000 207.170000,56.360000 210.390000,53.390000 209.770000,49.060000 213.590000,51.200000 217.530000,49.270000 216.660000,53.570000 219.720000,56.710000 215.360000,57.220000 213.310000,61.090000" fill="rgb(255,255,255)" stroke="none" stroke-width="1"/><polygon id="e7npjbugayd41" points="218.880000,130.490000 214.800000,130.290000 212.320000,133.540000 211.250000,129.600000 207.390000,128.250000 210.810000,126.010000 210.910000,121.920000 214.090000,124.480000 218,123.310000 216.550000,127.130000 218.880000,130.490000" fill="rgb(255,255,255)" stroke="none" stroke-width="1"/><polygon id="e7npjbugayd42" points="292,210.070000 284.680000,209.710000 280.230000,215.540000 278.310000,208.470000 271.390000,206.050000 277.520000,202.030000 277.700000,194.700000 283.410000,199.290000 290.420000,197.190000 287.820000,204.040000 292,210.070000" fill="rgb(255,255,255)" stroke="none" stroke-width="1"/><circle id="e7npjbugayd43" r="4.500000" transform="matrix(1 0 0 1 86.50000000000000 110.50000000000000)" fill="rgb(255,255,255)" stroke="none" stroke-width="1"/><circle id="e7npjbugayd44" r="6" transform="matrix(1 0 0 1 156 233)" fill="rgb(255,255,255)" stroke="none" stroke-width="1"/><circle id="e7npjbugayd45" r="6" transform="matrix(1 0 0 1 91 262)" fill="rgb(255,255,255)" stroke="none" stroke-width="1"/><circle id="e7npjbugayd46" r="12.500000" transform="matrix(1 0 0 1 243.50000000000000 188.50000000000000)" fill="rgb(255,255,255)" stroke="none" stroke-width="1"/><circle id="e7npjbugayd47" r="6" transform="matrix(1 0 0 1 134 192)" fill="rgb(255,255,255)" stroke="none" stroke-width="1"/><circle id="e7npjbugayd48" r="6" transform="matrix(1 0 0 1 194 151)" fill="rgb(255,255,255)" stroke="none" stroke-width="1"/><circle id="e7npjbugayd49" r="6" transform="matrix(1 0 0 1 128 233)" fill="rgb(255,255,255)" stroke="none" stroke-width="1"/><circle id="e7npjbugayd50" r="6" transform="matrix(1 0 0 1 75 229)" fill="rgb(255,255,255)" stroke="none" stroke-width="1"/><circle id="e7npjbugayd51" r="6" transform="matrix(1 0 0 1 45 213)" fill="rgb(255,255,255)" stroke="none" stroke-width="1"/><circle id="e7npjbugayd52" r="6" transform="matrix(1 0 0 1 225 268)" fill="rgb(255,255,255)" stroke="none" stroke-width="1"/><circle id="e7npjbugayd53" r="6" transform="matrix(1 0 0 1 112 288)" fill="rgb(255,255,255)" stroke="none" stroke-width="1"/><circle id="e7npjbugayd54" r="6" transform="matrix(1 0 0 1 182 61)" fill="rgb(255,255,255)" stroke="none" stroke-width="1"/><circle id="e7npjbugayd55" r="6" transform="matrix(1 0 0 1 176 96)" fill="rgb(255,255,255)" stroke="none" stroke-width="1"/><circle id="e7npjbugayd56" r="8" transform="matrix(1 0 0 1 123 92)" fill="rgb(255,255,255)" stroke="none" stroke-width="1"/><circle id="e7npjbugayd57" r="6" transform="matrix(1 0 0 1 75 15)" fill="rgb(255,255,255)" stroke="none" stroke-width="1"/><circle id="e7npjbugayd58" r="6" transform="matrix(1 0 0 1 244 84)" fill="rgb(255,255,255)" stroke="none" stroke-width="1"/><circle id="e7npjbugayd59" r="6" transform="matrix(1 0 0 1 243 53)" fill="rgb(255,255,255)" stroke="none" stroke-width="1"/><circle id="e7npjbugayd60" r="6" transform="matrix(1 0 0 1 213 90)" fill="rgb(255,255,255)" stroke="none" stroke-width="1"/><circle id="e7npjbugayd61" r="4.500000" transform="matrix(1 0 0 1 22.50000000000000 287.50000000000000)" fill="rgb(255,255,255)" stroke="none" stroke-width="1"/><circle id="e7npjbugayd62" r="4.500000" transform="matrix(1 0 0 1 287.50000000000000 161.50000000000000)" fill="rgb(255,255,255)" stroke="none" stroke-width="1"/><circle id="e7npjbugayd63" r="6" transform="matrix(1 0 0 1 143 53)" fill="rgb(255,255,255)" stroke="none" stroke-width="1"/><circle id="e7npjbugayd64" r="3.500000" transform="matrix(1 0 0 1 280.50000000000000 244.50000000000000)" fill="rgb(255,255,255)" stroke="none" stroke-width="1"/><circle id="e7npjbugayd65" r="9" transform="matrix(1 0 0 1 262 160)" fill="rgb(255,255,255)" stroke="none" stroke-width="1"/><circle id="e7npjbugayd66" r="8" transform="matrix(1 0 0 1 164 23)" fill="rgb(255,255,255)" stroke="none" stroke-width="1"/><circle id="e7npjbugayd67" r="6" transform="matrix(1 0 0 1 232 106)" fill="rgb(255,255,255)" stroke="none" stroke-width="1"/><circle id="e7npjbugayd68" r="6" transform="matrix(1 0 0 1 270 272)" fill="rgb(255,255,255)" stroke="none" stroke-width="1"/><circle id="e7npjbugayd69" r="6" transform="matrix(1 0 0 1 256 131)" fill="rgb(255,255,255)" stroke="none" stroke-width="1"/><circle id="e7npjbugayd70" r="6" transform="matrix(1 0 0 1 219 163)" fill="rgb(255,255,255)" stroke="none" stroke-width="1"/><circle id="e7npjbugayd71" r="6" transform="matrix(1 0 0 1 172.38000000000000 188.13999999999999)" fill="rgb(255,255,255)" stroke="none" stroke-width="1"/><circle id="e7npjbugayd72" r="6" transform="matrix(1 0 0 1 178.38000000000000 219.13999999999999)" fill="rgb(255,255,255)" stroke="none" stroke-width="1"/><circle id="e7npjbugayd73" r="3.930000" transform="matrix(1 0 0 1 198.31000000000000 184.06999999999999)" fill="rgb(255,255,255)" stroke="none" stroke-width="1"/><circle id="e7npjbugayd74" r="3.930000" transform="matrix(1 0 0 1 63.31000000000000 198.06999999999999)" fill="rgb(255,255,255)" stroke="none" stroke-width="1"/><circle id="e7npjbugayd75" r="9.310000" transform="matrix(1 0 0 1 216.69000000000000 222.44999999999999)" fill="rgb(255,255,255)" stroke="none" stroke-width="1"/><circle id="e7npjbugayd76" r="6" transform="matrix(1 0 0 1 194.38000000000000 253.13999999999999)" fill="rgb(255,255,255)" stroke="none" stroke-width="1"/><circle id="e7npjbugayd77" r="9.310000" transform="matrix(1 0 0 1 102.69000000000000 158.83000000000001)" fill="rgb(255,255,255)" stroke="none" stroke-width="1"/><circle id="e7npjbugayd78" r="6" transform="matrix(1 0 0 1 97.38000000000000 210.13999999999999)" fill="rgb(255,255,255)" stroke="none" stroke-width="1"/></g><g id="e7npjbugayd79" transform="matrix(1 0 0 1 297.99999999999994 0.00000000000002)"><rect id="e7npjbugayd80" width="298" height="298" rx="0" ry="0" fill="rgb(0,0,0)" stroke="none" stroke-width="1"/><circle id="e7npjbugayd81" r="5" transform="matrix(1 0 0 1 38 48)" fill="rgb(255,255,255)" stroke="none" stroke-width="1"/><circle id="e7npjbugayd82" r="3.500000" transform="matrix(1 0 0 1 119.50000000000000 18.50000000000000)" fill="rgb(255,255,255)" stroke="none" stroke-width="1"/><circle id="e7npjbugayd83" r="6" transform="matrix(1 0 0 1 122 47)" fill="rgb(255,255,255)" stroke="none" stroke-width="1"/><polygon id="e7npjbugayd84" points="157.730000,87.440000 154.660000,84.560000 150.540000,85.450000 152.330000,81.640000 150.210000,78.010000 154.380000,78.530000 157.190000,75.390000 157.980000,79.520000 161.840000,81.220000 158.150000,83.250000 157.730000,87.440000" fill="rgb(255,255,255)" stroke="none" stroke-width="1"/><polygon id="e7npjbugayd85" points="153.730000,112.440000 150.660000,109.560000 146.540000,110.450000 148.330000,106.640000 146.210000,103.010000 150.380000,103.530000 153.190000,100.390000 153.980000,104.520000 157.840000,106.220000 154.150000,108.250000 153.730000,112.440000" fill="rgb(255,255,255)" stroke="none" stroke-width="1"/><polygon id="e7npjbugayd86" points="133.200000,128 128.710000,123.790000 122.690000,125.090000 125.310000,119.520000 122.210000,114.220000 128.300000,114.980000 132.410000,110.390000 133.560000,116.430000 139.210000,118.910000 133.810000,121.880000 133.200000,128" fill="rgb(255,255,255)" stroke="none" stroke-width="1"/><polygon id="e7npjbugayd87" points="96.200000,138 91.710000,133.790000 85.690000,135.090000 88.310000,129.520000 85.210000,124.220000 91.300000,124.980000 95.410000,120.390000 96.560000,126.430000 102.210000,128.910000 96.810000,131.880000 96.200000,138" fill="rgb(255,255,255)" stroke="none" stroke-width="1"/><polygon id="e7npjbugayd88" points="34.730000,137.440000 31.660000,134.560000 27.540000,135.450000 29.330000,131.640000 27.210000,128.010000 31.380000,128.530000 34.190000,125.390000 34.980000,129.520000 38.840000,131.220000 35.150000,133.250000 34.730000,137.440000" fill="rgb(255,255,255)" stroke="none" stroke-width="1"/><polygon id="e7npjbugayd89" points="50,186.560000 46.530000,186.760000 44.730000,189.740000 43.470000,186.500000 40.080000,185.710000 42.770000,183.500000 42.480000,180.040000 45.400000,181.910000 48.610000,180.570000 47.730000,183.930000 50,186.560000" fill="rgb(255,255,255)" stroke="none" stroke-width="1"/><polygon id="e7npjbugayd90" points="101.490000,184.740000 97.920000,184.940000 96.070000,188 94.780000,184.670000 91.300000,183.860000 94.060000,181.600000 93.760000,178.040000 96.770000,179.970000 100.060000,178.580000 99.160000,182.030000 101.490000,184.740000" transform="matrix(1 0 0 1 0.09554971289614 0.00497395694410)" fill="rgb(255,255,255)" stroke="none" stroke-width="1"/><polygon id="e7npjbugayd91" points="63.490000,263.170000 58.100000,263.480000 55.300000,268.100000 53.340000,263.070000 48.080000,261.840000 52.260000,258.420000 51.800000,253.040000 56.350000,255.950000 61.330000,253.860000 59.960000,259.080000 63.490000,263.170000" fill="rgb(255,255,255)" stroke="none" stroke-width="1"/><polygon id="e7npjbugayd92" points="71.490000,286.170000 66.100000,286.480000 63.300000,291.100000 61.340000,286.070000 56.080000,284.840000 60.260000,281.420000 59.800000,276.040000 64.350000,278.950000 69.330000,276.860000 67.960000,282.080000 71.490000,286.170000" fill="rgb(255,255,255)" stroke="none" stroke-width="1"/><polygon id="e7npjbugayd93" points="25.490000,249.170000 20.100000,249.480000 17.300000,254.100000 15.340000,249.070000 10.080000,247.840000 14.260000,244.420000 13.800000,239.040000 18.350000,241.950000 23.330000,239.860000 21.960000,245.080000 25.490000,249.170000" fill="rgb(255,255,255)" stroke="none" stroke-width="1"/><polygon id="e7npjbugayd94" points="25.490000,209.170000 20.100000,209.480000 17.300000,214.100000 15.340000,209.070000 10.080000,207.840000 14.260000,204.420000 13.800000,199.040000 18.350000,201.950000 23.330000,199.860000 21.960000,205.080000 25.490000,209.170000" fill="rgb(255,255,255)" stroke="none" stroke-width="1"/><polygon id="e7npjbugayd95" points="254.820000,246.150000 251.380000,240.290000 244.610000,239.810000 249.110000,234.720000 247.480000,228.140000 253.710000,230.850000 259.460000,227.260000 258.820000,234.010000 264,238.400000 257.380000,239.860000 254.820000,246.150000" transform="matrix(1 0 0 1 -0.61000000000001 0.16000000000000)" fill="rgb(255,255,255)" stroke="none" stroke-width="1"/><polygon id="e7npjbugayd96" points="151.590000,153.070000 144.840000,155.430000 142.940000,162.310000 138.620000,156.620000 131.480000,156.950000 135.560000,151.080000 133.040000,144.380000 139.890000,146.450000 145.470000,142 145.620000,149.140000 151.590000,153.070000" fill="rgb(255,255,255)" stroke="none" stroke-width="1"/><polygon id="e7npjbugayd97" points="112.390000,239.920000 107.720000,241.550000 106.410000,246.310000 103.420000,242.370000 98.480000,242.600000 101.300000,238.540000 99.560000,233.910000 104.300000,235.340000 108.160000,232.260000 108.260000,237.200000 112.390000,239.920000" fill="rgb(255,255,255)" stroke="none" stroke-width="1"/><polygon id="e7npjbugayd98" points="69.390000,149.920000 64.720000,151.550000 63.410000,156.310000 60.420000,152.370000 55.480000,152.600000 58.300000,148.540000 56.560000,143.910000 61.300000,145.340000 65.160000,142.260000 65.260000,147.200000 69.390000,149.920000" fill="rgb(255,255,255)" stroke="none" stroke-width="1"/><polygon id="e7npjbugayd99" points="25.390000,169.920000 20.720000,171.550000 19.410000,176.310000 16.420000,172.370000 11.480000,172.600000 14.300000,168.540000 12.560000,163.910000 17.300000,165.340000 21.160000,162.260000 21.260000,167.200000 25.390000,169.920000" fill="rgb(255,255,255)" stroke="none" stroke-width="1"/><polygon id="e7npjbugayd100" points="89.390000,67.920000 84.720000,69.550000 83.410000,74.310000 80.420000,70.370000 75.480000,70.600000 78.300000,66.540000 76.560000,61.910000 81.300000,63.340000 85.160000,60.260000 85.260000,65.200000 89.390000,67.920000" fill="rgb(255,255,255)" stroke="none" stroke-width="1"/><polygon id="e7npjbugayd101" points="122.390000,71.920000 117.720000,73.550000 116.410000,78.310000 113.420000,74.370000 108.480000,74.600000 111.300000,70.540000 109.560000,65.910000 114.300000,67.340000 118.160000,64.260000 118.260000,69.200000 122.390000,71.920000" fill="rgb(255,255,255)" stroke="none" stroke-width="1"/><polygon id="e7npjbugayd102" points="274.700000,84.570000 279.840000,88.100000 285.650000,85.890000 283.870000,91.860000 287.790000,96.700000 281.560000,96.860000 278.160000,102.080000 276.080000,96.200000 270.070000,94.570000 275.020000,90.790000 274.700000,84.570000" fill="rgb(255,255,255)" stroke="none" stroke-width="1"/><polygon id="e7npjbugayd103" points="290.110000,124.350000 285.200000,124.970000 282.930000,129.360000 280.820000,124.890000 275.940000,124.090000 279.540000,120.700000 278.800000,115.810000 283.140000,118.190000 287.560000,115.980000 286.630000,120.830000 290.110000,124.350000" fill="rgb(255,255,255)" stroke="none" stroke-width="1"/><polygon id="e7npjbugayd104" points="285.390000,16.920000 280.720000,18.550000 279.410000,23.310000 276.420000,19.370000 271.480000,19.600000 274.300000,15.540000 272.560000,10.910000 277.300000,12.340000 281.160000,9.260000 281.260000,14.200000 285.390000,16.920000" fill="rgb(255,255,255)" stroke="none" stroke-width="1"/><polygon id="e7npjbugayd105" points="183.890000,119.790000 180.150000,125.580000 182.790000,131.940000 176.120000,130.170000 170.890000,134.660000 170.510000,127.780000 164.630000,124.180000 171.070000,121.690000 172.670000,114.990000 177.010000,120.340000 183.890000,119.790000" fill="rgb(255,255,255)" stroke="none" stroke-width="1"/><polygon id="e7npjbugayd106" points="70.390000,90.920000 65.720000,92.550000 64.410000,97.310000 61.420000,93.370000 56.480000,93.600000 59.300000,89.540000 57.560000,84.910000 62.300000,86.340000 66.160000,83.260000 66.260000,88.200000 70.390000,90.920000" fill="rgb(255,255,255)" stroke="none" stroke-width="1"/><polygon id="e7npjbugayd107" points="69,114.360000 63.450000,116.290000 61.900000,121.950000 58.350000,117.270000 52.480000,117.540000 55.830000,112.720000 53.760000,107.220000 59.390000,108.920000 63.980000,105.260000 64.090000,111.130000 69,114.360000" fill="rgb(255,255,255)" stroke="none" stroke-width="1"/><polygon id="e7npjbugayd108" points="24.390000,20.920000 19.720000,22.550000 18.410000,27.310000 15.420000,23.370000 10.480000,23.600000 13.300000,19.540000 11.560000,14.910000 16.300000,16.340000 20.160000,13.260000 20.260000,18.200000 24.390000,20.920000" fill="rgb(255,255,255)" stroke="none" stroke-width="1"/><polygon id="e7npjbugayd109" points="75,41.460000 68.780000,43.630000 67.040000,49.970000 63.060000,44.720000 56.480000,45.030000 60.230000,39.620000 57.920000,33.460000 64.230000,35.360000 69.370000,31.260000 69.500000,37.840000 75,41.460000" fill="rgb(255,255,255)" stroke="none" stroke-width="1"/><polygon id="e7npjbugayd110" points="25.390000,90.920000 20.720000,92.550000 19.410000,97.310000 16.420000,93.370000 11.480000,93.600000 14.300000,89.540000 12.560000,84.910000 17.300000,86.340000 21.160000,83.260000 21.260000,88.200000 25.390000,90.920000" fill="rgb(255,255,255)" stroke="none" stroke-width="1"/><polygon id="e7npjbugayd111" points="157.390000,272.920000 152.720000,274.550000 151.410000,279.310000 148.420000,275.370000 143.480000,275.600000 146.300000,271.540000 144.560000,266.910000 149.300000,268.340000 153.160000,265.260000 153.260000,270.200000 157.390000,272.920000" fill="rgb(255,255,255)" stroke="none" stroke-width="1"/><polygon id="e7npjbugayd112" points="195.390000,283.920000 190.720000,285.550000 189.410000,290.310000 186.420000,286.370000 181.480000,286.600000 184.300000,282.540000 182.560000,277.910000 187.300000,279.340000 191.160000,276.260000 191.260000,281.200000 195.390000,283.920000" fill="rgb(255,255,255)" stroke="none" stroke-width="1"/><polygon id="e7npjbugayd113" points="242,30.570000 240.870000,28.080000 238.170000,27.610000 240.180000,25.760000 239.790000,23.060000 242.180000,24.390000 244.630000,23.190000 244.090000,25.870000 246,27.830000 243.280000,28.150000 242,30.570000" fill="rgb(255,255,255)" stroke="none" stroke-width="1"/><polygon id="e7npjbugayd114" points="276.310000,61.090000 274.490000,57.110000 270.170000,56.360000 273.390000,53.390000 272.770000,49.060000 276.590000,51.200000 280.530000,49.270000 279.660000,53.570000 282.720000,56.710000 278.360000,57.220000 276.310000,61.090000" fill="rgb(255,255,255)" stroke="none" stroke-width="1"/><polygon id="e7npjbugayd115" points="207.310000,22.090000 205.490000,18.110000 201.170000,17.360000 204.390000,14.390000 203.770000,10.060000 207.590000,12.200000 211.530000,10.270000 210.660000,14.570000 213.720000,17.710000 209.360000,18.220000 207.310000,22.090000" fill="rgb(255,255,255)" stroke="none" stroke-width="1"/><polygon id="e7npjbugayd116" points="213.310000,61.090000 211.490000,57.110000 207.170000,56.360000 210.390000,53.390000 209.770000,49.060000 213.590000,51.200000 217.530000,49.270000 216.660000,53.570000 219.720000,56.710000 215.360000,57.220000 213.310000,61.090000" fill="rgb(255,255,255)" stroke="none" stroke-width="1"/><polygon id="e7npjbugayd117" points="218.880000,130.490000 214.800000,130.290000 212.320000,133.540000 211.250000,129.600000 207.390000,128.250000 210.810000,126.010000 210.910000,121.920000 214.090000,124.480000 218,123.310000 216.550000,127.130000 218.880000,130.490000" fill="rgb(255,255,255)" stroke="none" stroke-width="1"/><polygon id="e7npjbugayd118" points="292,210.070000 284.680000,209.710000 280.230000,215.540000 278.310000,208.470000 271.390000,206.050000 277.520000,202.030000 277.700000,194.700000 283.410000,199.290000 290.420000,197.190000 287.820000,204.040000 292,210.070000" fill="rgb(255,255,255)" stroke="none" stroke-width="1"/><circle id="e7npjbugayd119" r="4.500000" transform="matrix(1 0 0 1 86.50000000000000 110.50000000000000)" fill="rgb(255,255,255)" stroke="none" stroke-width="1"/><circle id="e7npjbugayd120" r="6" transform="matrix(1 0 0 1 156 233)" fill="rgb(255,255,255)" stroke="none" stroke-width="1"/><circle id="e7npjbugayd121" r="6" transform="matrix(1 0 0 1 91 262)" fill="rgb(255,255,255)" stroke="none" stroke-width="1"/><circle id="e7npjbugayd122" r="12.500000" transform="matrix(1 0 0 1 243.50000000000000 188.50000000000000)" fill="rgb(255,255,255)" stroke="none" stroke-width="1"/><circle id="e7npjbugayd123" r="6" transform="matrix(1 0 0 1 134 192)" fill="rgb(255,255,255)" stroke="none" stroke-width="1"/><circle id="e7npjbugayd124" r="6" transform="matrix(1 0 0 1 194 151)" fill="rgb(255,255,255)" stroke="none" stroke-width="1"/><circle id="e7npjbugayd125" r="6" transform="matrix(1 0 0 1 128 233)" fill="rgb(255,255,255)" stroke="none" stroke-width="1"/><circle id="e7npjbugayd126" r="6" transform="matrix(1 0 0 1 75 229)" fill="rgb(255,255,255)" stroke="none" stroke-width="1"/><circle id="e7npjbugayd127" r="6" transform="matrix(1 0 0 1 45 213)" fill="rgb(255,255,255)" stroke="none" stroke-width="1"/><circle id="e7npjbugayd128" r="6" transform="matrix(1 0 0 1 225 268)" fill="rgb(255,255,255)" stroke="none" stroke-width="1"/><circle id="e7npjbugayd129" r="6" transform="matrix(1 0 0 1 112 288)" fill="rgb(255,255,255)" stroke="none" stroke-width="1"/><circle id="e7npjbugayd130" r="6" transform="matrix(1 0 0 1 182 61)" fill="rgb(255,255,255)" stroke="none" stroke-width="1"/><circle id="e7npjbugayd131" r="6" transform="matrix(1 0 0 1 176 96)" fill="rgb(255,255,255)" stroke="none" stroke-width="1"/><circle id="e7npjbugayd132" r="8" transform="matrix(1 0 0 1 123 92)" fill="rgb(255,255,255)" stroke="none" stroke-width="1"/><circle id="e7npjbugayd133" r="6" transform="matrix(1 0 0 1 75 15)" fill="rgb(255,255,255)" stroke="none" stroke-width="1"/><circle id="e7npjbugayd134" r="6" transform="matrix(1 0 0 1 244 84)" fill="rgb(255,255,255)" stroke="none" stroke-width="1"/><circle id="e7npjbugayd135" r="6" transform="matrix(1 0 0 1 243 53)" fill="rgb(255,255,255)" stroke="none" stroke-width="1"/><circle id="e7npjbugayd136" r="6" transform="matrix(1 0 0 1 213 90)" fill="rgb(255,255,255)" stroke="none" stroke-width="1"/><circle id="e7npjbugayd137" r="4.500000" transform="matrix(1 0 0 1 22.50000000000000 287.50000000000000)" fill="rgb(255,255,255)" stroke="none" stroke-width="1"/><circle id="e7npjbugayd138" r="4.500000" transform="matrix(1 0 0 1 287.50000000000000 161.50000000000000)" fill="rgb(255,255,255)" stroke="none" stroke-width="1"/><circle id="e7npjbugayd139" r="6" transform="matrix(1 0 0 1 143 53)" fill="rgb(255,255,255)" stroke="none" stroke-width="1"/><circle id="e7npjbugayd140" r="3.500000" transform="matrix(1 0 0 1 280.50000000000000 244.50000000000000)" fill="rgb(255,255,255)" stroke="none" stroke-width="1"/><circle id="e7npjbugayd141" r="9" transform="matrix(1 0 0 1 262 160)" fill="rgb(255,255,255)" stroke="none" stroke-width="1"/><circle id="e7npjbugayd142" r="8" transform="matrix(1 0 0 1 164 23)" fill="rgb(255,255,255)" stroke="none" stroke-width="1"/><circle id="e7npjbugayd143" r="6" transform="matrix(1 0 0 1 232 106)" fill="rgb(255,255,255)" stroke="none" stroke-width="1"/><circle id="e7npjbugayd144" r="6" transform="matrix(1 0 0 1 270 272)" fill="rgb(255,255,255)" stroke="none" stroke-width="1"/><circle id="e7npjbugayd145" r="6" transform="matrix(1 0 0 1 256 131)" fill="rgb(255,255,255)" stroke="none" stroke-width="1"/><circle id="e7npjbugayd146" r="6" transform="matrix(1 0 0 1 219 163)" fill="rgb(255,255,255)" stroke="none" stroke-width="1"/><circle id="e7npjbugayd147" r="6" transform="matrix(1 0 0 1 172.38000000000000 188.13999999999999)" fill="rgb(255,255,255)" stroke="none" stroke-width="1"/><circle id="e7npjbugayd148" r="6" transform="matrix(1 0 0 1 178.38000000000000 219.13999999999999)" fill="rgb(255,255,255)" stroke="none" stroke-width="1"/><circle id="e7npjbugayd149" r="3.930000" transform="matrix(1 0 0 1 198.31000000000000 184.06999999999999)" fill="rgb(255,255,255)" stroke="none" stroke-width="1"/><circle id="e7npjbugayd150" r="3.930000" transform="matrix(1 0 0 1 63.31000000000000 198.06999999999999)" fill="rgb(255,255,255)" stroke="none" stroke-width="1"/><circle id="e7npjbugayd151" r="9.310000" transform="matrix(1 0 0 1 216.69000000000000 222.44999999999999)" fill="rgb(255,255,255)" stroke="none" stroke-width="1"/><circle id="e7npjbugayd152" r="6" transform="matrix(1 0 0 1 194.38000000000000 253.13999999999999)" fill="rgb(255,255,255)" stroke="none" stroke-width="1"/><circle id="e7npjbugayd153" r="9.310000" transform="matrix(1 0 0 1 102.69000000000000 158.83000000000001)" fill="rgb(255,255,255)" stroke="none" stroke-width="1"/><circle id="e7npjbugayd154" r="6" transform="matrix(1 0 0 1 97.38000000000000 210.13999999999999)" fill="rgb(255,255,255)" stroke="none" stroke-width="1"/></g><g id="e7npjbugayd155" transform="matrix(1 0 0 1 297.99999999999898 298)"><rect id="e7npjbugayd156" width="298" height="298" rx="0" ry="0" fill="rgb(0,0,0)" stroke="none" stroke-width="1"/><circle id="e7npjbugayd157" r="5" transform="matrix(1 0 0 1 38 48)" fill="rgb(255,255,255)" stroke="none" stroke-width="1"/><circle id="e7npjbugayd158" r="3.500000" transform="matrix(1 0 0 1 119.50000000000000 18.50000000000000)" fill="rgb(255,255,255)" stroke="none" stroke-width="1"/><circle id="e7npjbugayd159" r="6" transform="matrix(1 0 0 1 122 47)" fill="rgb(255,255,255)" stroke="none" stroke-width="1"/><polygon id="e7npjbugayd160" points="157.730000,87.440000 154.660000,84.560000 150.540000,85.450000 152.330000,81.640000 150.210000,78.010000 154.380000,78.530000 157.190000,75.390000 157.980000,79.520000 161.840000,81.220000 158.150000,83.250000 157.730000,87.440000" fill="rgb(255,255,255)" stroke="none" stroke-width="1"/><polygon id="e7npjbugayd161" points="153.730000,112.440000 150.660000,109.560000 146.540000,110.450000 148.330000,106.640000 146.210000,103.010000 150.380000,103.530000 153.190000,100.390000 153.980000,104.520000 157.840000,106.220000 154.150000,108.250000 153.730000,112.440000" fill="rgb(255,255,255)" stroke="none" stroke-width="1"/><polygon id="e7npjbugayd162" points="133.200000,128 128.710000,123.790000 122.690000,125.090000 125.310000,119.520000 122.210000,114.220000 128.300000,114.980000 132.410000,110.390000 133.560000,116.430000 139.210000,118.910000 133.810000,121.880000 133.200000,128" fill="rgb(255,255,255)" stroke="none" stroke-width="1"/><polygon id="e7npjbugayd163" points="96.200000,138 91.710000,133.790000 85.690000,135.090000 88.310000,129.520000 85.210000,124.220000 91.300000,124.980000 95.410000,120.390000 96.560000,126.430000 102.210000,128.910000 96.810000,131.880000 96.200000,138" fill="rgb(255,255,255)" stroke="none" stroke-width="1"/><polygon id="e7npjbugayd164" points="34.730000,137.440000 31.660000,134.560000 27.540000,135.450000 29.330000,131.640000 27.210000,128.010000 31.380000,128.530000 34.190000,125.390000 34.980000,129.520000 38.840000,131.220000 35.150000,133.250000 34.730000,137.440000" fill="rgb(255,255,255)" stroke="none" stroke-width="1"/><polygon id="e7npjbugayd165" points="50,186.560000 46.530000,186.760000 44.730000,189.740000 43.470000,186.500000 40.080000,185.710000 42.770000,183.500000 42.480000,180.040000 45.400000,181.910000 48.610000,180.570000 47.730000,183.930000 50,186.560000" fill="rgb(255,255,255)" stroke="none" stroke-width="1"/><polygon id="e7npjbugayd166" points="101.490000,184.740000 97.920000,184.940000 96.070000,188 94.780000,184.670000 91.300000,183.860000 94.060000,181.600000 93.760000,178.040000 96.770000,179.970000 100.060000,178.580000 99.160000,182.030000 101.490000,184.740000" transform="matrix(1 0 0 1 0.09554971289614 0.00497395694410)" fill="rgb(255,255,255)" stroke="none" stroke-width="1"/><polygon id="e7npjbugayd167" points="63.490000,263.170000 58.100000,263.480000 55.300000,268.100000 53.340000,263.070000 48.080000,261.840000 52.260000,258.420000 51.800000,253.040000 56.350000,255.950000 61.330000,253.860000 59.960000,259.080000 63.490000,263.170000" fill="rgb(255,255,255)" stroke="none" stroke-width="1"/><polygon id="e7npjbugayd168" points="71.490000,286.170000 66.100000,286.480000 63.300000,291.100000 61.340000,286.070000 56.080000,284.840000 60.260000,281.420000 59.800000,276.040000 64.350000,278.950000 69.330000,276.860000 67.960000,282.080000 71.490000,286.170000" fill="rgb(255,255,255)" stroke="none" stroke-width="1"/><polygon id="e7npjbugayd169" points="25.490000,249.170000 20.100000,249.480000 17.300000,254.100000 15.340000,249.070000 10.080000,247.840000 14.260000,244.420000 13.800000,239.040000 18.350000,241.950000 23.330000,239.860000 21.960000,245.080000 25.490000,249.170000" fill="rgb(255,255,255)" stroke="none" stroke-width="1"/><polygon id="e7npjbugayd170" points="25.490000,209.170000 20.100000,209.480000 17.300000,214.100000 15.340000,209.070000 10.080000,207.840000 14.260000,204.420000 13.800000,199.040000 18.350000,201.950000 23.330000,199.860000 21.960000,205.080000 25.490000,209.170000" fill="rgb(255,255,255)" stroke="none" stroke-width="1"/><polygon id="e7npjbugayd171" points="254.820000,246.150000 251.380000,240.290000 244.610000,239.810000 249.110000,234.720000 247.480000,228.140000 253.710000,230.850000 259.460000,227.260000 258.820000,234.010000 264,238.400000 257.380000,239.860000 254.820000,246.150000" transform="matrix(1 0 0 1 -0.61000000000001 0.16000000000000)" fill="rgb(255,255,255)" stroke="none" stroke-width="1"/><polygon id="e7npjbugayd172" points="151.590000,153.070000 144.840000,155.430000 142.940000,162.310000 138.620000,156.620000 131.480000,156.950000 135.560000,151.080000 133.040000,144.380000 139.890000,146.450000 145.470000,142 145.620000,149.140000 151.590000,153.070000" fill="rgb(255,255,255)" stroke="none" stroke-width="1"/><polygon id="e7npjbugayd173" points="112.390000,239.920000 107.720000,241.550000 106.410000,246.310000 103.420000,242.370000 98.480000,242.600000 101.300000,238.540000 99.560000,233.910000 104.300000,235.340000 108.160000,232.260000 108.260000,237.200000 112.390000,239.920000" fill="rgb(255,255,255)" stroke="none" stroke-width="1"/><polygon id="e7npjbugayd174" points="69.390000,149.920000 64.720000,151.550000 63.410000,156.310000 60.420000,152.370000 55.480000,152.600000 58.300000,148.540000 56.560000,143.910000 61.300000,145.340000 65.160000,142.260000 65.260000,147.200000 69.390000,149.920000" fill="rgb(255,255,255)" stroke="none" stroke-width="1"/><polygon id="e7npjbugayd175" points="25.390000,169.920000 20.720000,171.550000 19.410000,176.310000 16.420000,172.370000 11.480000,172.600000 14.300000,168.540000 12.560000,163.910000 17.300000,165.340000 21.160000,162.260000 21.260000,167.200000 25.390000,169.920000" fill="rgb(255,255,255)" stroke="none" stroke-width="1"/><polygon id="e7npjbugayd176" points="89.390000,67.920000 84.720000,69.550000 83.410000,74.310000 80.420000,70.370000 75.480000,70.600000 78.300000,66.540000 76.560000,61.910000 81.300000,63.340000 85.160000,60.260000 85.260000,65.200000 89.390000,67.920000" fill="rgb(255,255,255)" stroke="none" stroke-width="1"/><polygon id="e7npjbugayd177" points="122.390000,71.920000 117.720000,73.550000 116.410000,78.310000 113.420000,74.370000 108.480000,74.600000 111.300000,70.540000 109.560000,65.910000 114.300000,67.340000 118.160000,64.260000 118.260000,69.200000 122.390000,71.920000" fill="rgb(255,255,255)" stroke="none" stroke-width="1"/><polygon id="e7npjbugayd178" points="274.700000,84.570000 279.840000,88.100000 285.650000,85.890000 283.870000,91.860000 287.790000,96.700000 281.560000,96.860000 278.160000,102.080000 276.080000,96.200000 270.070000,94.570000 275.020000,90.790000 274.700000,84.570000" fill="rgb(255,255,255)" stroke="none" stroke-width="1"/><polygon id="e7npjbugayd179" points="290.110000,124.350000 285.200000,124.970000 282.930000,129.360000 280.820000,124.890000 275.940000,124.090000 279.540000,120.700000 278.800000,115.810000 283.140000,118.190000 287.560000,115.980000 286.630000,120.830000 290.110000,124.350000" fill="rgb(255,255,255)" stroke="none" stroke-width="1"/><polygon id="e7npjbugayd180" points="285.390000,16.920000 280.720000,18.550000 279.410000,23.310000 276.420000,19.370000 271.480000,19.600000 274.300000,15.540000 272.560000,10.910000 277.300000,12.340000 281.160000,9.260000 281.260000,14.200000 285.390000,16.920000" fill="rgb(255,255,255)" stroke="none" stroke-width="1"/><polygon id="e7npjbugayd181" points="183.890000,119.790000 180.150000,125.580000 182.790000,131.940000 176.120000,130.170000 170.890000,134.660000 170.510000,127.780000 164.630000,124.180000 171.070000,121.690000 172.670000,114.990000 177.010000,120.340000 183.890000,119.790000" fill="rgb(255,255,255)" stroke="none" stroke-width="1"/><polygon id="e7npjbugayd182" points="70.390000,90.920000 65.720000,92.550000 64.410000,97.310000 61.420000,93.370000 56.480000,93.600000 59.300000,89.540000 57.560000,84.910000 62.300000,86.340000 66.160000,83.260000 66.260000,88.200000 70.390000,90.920000" fill="rgb(255,255,255)" stroke="none" stroke-width="1"/><polygon id="e7npjbugayd183" points="69,114.360000 63.450000,116.290000 61.900000,121.950000 58.350000,117.270000 52.480000,117.540000 55.830000,112.720000 53.760000,107.220000 59.390000,108.920000 63.980000,105.260000 64.090000,111.130000 69,114.360000" fill="rgb(255,255,255)" stroke="none" stroke-width="1"/><polygon id="e7npjbugayd184" points="24.390000,20.920000 19.720000,22.550000 18.410000,27.310000 15.420000,23.370000 10.480000,23.600000 13.300000,19.540000 11.560000,14.910000 16.300000,16.340000 20.160000,13.260000 20.260000,18.200000 24.390000,20.920000" fill="rgb(255,255,255)" stroke="none" stroke-width="1"/><polygon id="e7npjbugayd185" points="75,41.460000 68.780000,43.630000 67.040000,49.970000 63.060000,44.720000 56.480000,45.030000 60.230000,39.620000 57.920000,33.460000 64.230000,35.360000 69.370000,31.260000 69.500000,37.840000 75,41.460000" fill="rgb(255,255,255)" stroke="none" stroke-width="1"/><polygon id="e7npjbugayd186" points="25.390000,90.920000 20.720000,92.550000 19.410000,97.310000 16.420000,93.370000 11.480000,93.600000 14.300000,89.540000 12.560000,84.910000 17.300000,86.340000 21.160000,83.260000 21.260000,88.200000 25.390000,90.920000" fill="rgb(255,255,255)" stroke="none" stroke-width="1"/><polygon id="e7npjbugayd187" points="157.390000,272.920000 152.720000,274.550000 151.410000,279.310000 148.420000,275.370000 143.480000,275.600000 146.300000,271.540000 144.560000,266.910000 149.300000,268.340000 153.160000,265.260000 153.260000,270.200000 157.390000,272.920000" fill="rgb(255,255,255)" stroke="none" stroke-width="1"/><polygon id="e7npjbugayd188" points="195.390000,283.920000 190.720000,285.550000 189.410000,290.310000 186.420000,286.370000 181.480000,286.600000 184.300000,282.540000 182.560000,277.910000 187.300000,279.340000 191.160000,276.260000 191.260000,281.200000 195.390000,283.920000" fill="rgb(255,255,255)" stroke="none" stroke-width="1"/><polygon id="e7npjbugayd189" points="242,30.570000 240.870000,28.080000 238.170000,27.610000 240.180000,25.760000 239.790000,23.060000 242.180000,24.390000 244.630000,23.190000 244.090000,25.870000 246,27.830000 243.280000,28.150000 242,30.570000" fill="rgb(255,255,255)" stroke="none" stroke-width="1"/><polygon id="e7npjbugayd190" points="276.310000,61.090000 274.490000,57.110000 270.170000,56.360000 273.390000,53.390000 272.770000,49.060000 276.590000,51.200000 280.530000,49.270000 279.660000,53.570000 282.720000,56.710000 278.360000,57.220000 276.310000,61.090000" fill="rgb(255,255,255)" stroke="none" stroke-width="1"/><polygon id="e7npjbugayd191" points="207.310000,22.090000 205.490000,18.110000 201.170000,17.360000 204.390000,14.390000 203.770000,10.060000 207.590000,12.200000 211.530000,10.270000 210.660000,14.570000 213.720000,17.710000 209.360000,18.220000 207.310000,22.090000" fill="rgb(255,255,255)" stroke="none" stroke-width="1"/><polygon id="e7npjbugayd192" points="213.310000,61.090000 211.490000,57.110000 207.170000,56.360000 210.390000,53.390000 209.770000,49.060000 213.590000,51.200000 217.530000,49.270000 216.660000,53.570000 219.720000,56.710000 215.360000,57.220000 213.310000,61.090000" fill="rgb(255,255,255)" stroke="none" stroke-width="1"/><polygon id="e7npjbugayd193" points="218.880000,130.490000 214.800000,130.290000 212.320000,133.540000 211.250000,129.600000 207.390000,128.250000 210.810000,126.010000 210.910000,121.920000 214.090000,124.480000 218,123.310000 216.550000,127.130000 218.880000,130.490000" fill="rgb(255,255,255)" stroke="none" stroke-width="1"/><polygon id="e7npjbugayd194" points="292,210.070000 284.680000,209.710000 280.230000,215.540000 278.310000,208.470000 271.390000,206.050000 277.520000,202.030000 277.700000,194.700000 283.410000,199.290000 290.420000,197.190000 287.820000,204.040000 292,210.070000" fill="rgb(255,255,255)" stroke="none" stroke-width="1"/><circle id="e7npjbugayd195" r="4.500000" transform="matrix(1 0 0 1 86.50000000000000 110.50000000000000)" fill="rgb(255,255,255)" stroke="none" stroke-width="1"/><circle id="e7npjbugayd196" r="6" transform="matrix(1 0 0 1 156 233)" fill="rgb(255,255,255)" stroke="none" stroke-width="1"/><circle id="e7npjbugayd197" r="6" transform="matrix(1 0 0 1 91 262)" fill="rgb(255,255,255)" stroke="none" stroke-width="1"/><circle id="e7npjbugayd198" r="12.500000" transform="matrix(1 0 0 1 243.50000000000000 188.50000000000000)" fill="rgb(255,255,255)" stroke="none" stroke-width="1"/><circle id="e7npjbugayd199" r="6" transform="matrix(1 0 0 1 134 192)" fill="rgb(255,255,255)" stroke="none" stroke-width="1"/><circle id="e7npjbugayd200" r="6" transform="matrix(1 0 0 1 194 151)" fill="rgb(255,255,255)" stroke="none" stroke-width="1"/><circle id="e7npjbugayd201" r="6" transform="matrix(1 0 0 1 128 233)" fill="rgb(255,255,255)" stroke="none" stroke-width="1"/><circle id="e7npjbugayd202" r="6" transform="matrix(1 0 0 1 75 229)" fill="rgb(255,255,255)" stroke="none" stroke-width="1"/><circle id="e7npjbugayd203" r="6" transform="matrix(1 0 0 1 45 213)" fill="rgb(255,255,255)" stroke="none" stroke-width="1"/><circle id="e7npjbugayd204" r="6" transform="matrix(1 0 0 1 225 268)" fill="rgb(255,255,255)" stroke="none" stroke-width="1"/><circle id="e7npjbugayd205" r="6" transform="matrix(1 0 0 1 112 288)" fill="rgb(255,255,255)" stroke="none" stroke-width="1"/><circle id="e7npjbugayd206" r="6" transform="matrix(1 0 0 1 182 61)" fill="rgb(255,255,255)" stroke="none" stroke-width="1"/><circle id="e7npjbugayd207" r="6" transform="matrix(1 0 0 1 176 96)" fill="rgb(255,255,255)" stroke="none" stroke-width="1"/><circle id="e7npjbugayd208" r="8" transform="matrix(1 0 0 1 123 92)" fill="rgb(255,255,255)" stroke="none" stroke-width="1"/><circle id="e7npjbugayd209" r="6" transform="matrix(1 0 0 1 75 15)" fill="rgb(255,255,255)" stroke="none" stroke-width="1"/><circle id="e7npjbugayd210" r="6" transform="matrix(1 0 0 1 244 84)" fill="rgb(255,255,255)" stroke="none" stroke-width="1"/><circle id="e7npjbugayd211" r="6" transform="matrix(1 0 0 1 243 53)" fill="rgb(255,255,255)" stroke="none" stroke-width="1"/><circle id="e7npjbugayd212" r="6" transform="matrix(1 0 0 1 213 90)" fill="rgb(255,255,255)" stroke="none" stroke-width="1"/><circle id="e7npjbugayd213" r="4.500000" transform="matrix(1 0 0 1 22.50000000000000 287.50000000000000)" fill="rgb(255,255,255)" stroke="none" stroke-width="1"/><circle id="e7npjbugayd214" r="4.500000" transform="matrix(1 0 0 1 287.50000000000000 161.50000000000000)" fill="rgb(255,255,255)" stroke="none" stroke-width="1"/><circle id="e7npjbugayd215" r="6" transform="matrix(1 0 0 1 143 53)" fill="rgb(255,255,255)" stroke="none" stroke-width="1"/><circle id="e7npjbugayd216" r="3.500000" transform="matrix(1 0 0 1 280.50000000000000 244.50000000000000)" fill="rgb(255,255,255)" stroke="none" stroke-width="1"/><circle id="e7npjbugayd217" r="9" transform="matrix(1 0 0 1 262 160)" fill="rgb(255,255,255)" stroke="none" stroke-width="1"/><circle id="e7npjbugayd218" r="8" transform="matrix(1 0 0 1 164 23)" fill="rgb(255,255,255)" stroke="none" stroke-width="1"/><circle id="e7npjbugayd219" r="6" transform="matrix(1 0 0 1 232 106)" fill="rgb(255,255,255)" stroke="none" stroke-width="1"/><circle id="e7npjbugayd220" r="6" transform="matrix(1 0 0 1 270 272)" fill="rgb(255,255,255)" stroke="none" stroke-width="1"/><circle id="e7npjbugayd221" r="6" transform="matrix(1 0 0 1 256 131)" fill="rgb(255,255,255)" stroke="none" stroke-width="1"/><circle id="e7npjbugayd222" r="6" transform="matrix(1 0 0 1 219 163)" fill="rgb(255,255,255)" stroke="none" stroke-width="1"/><circle id="e7npjbugayd223" r="6" transform="matrix(1 0 0 1 172.38000000000000 188.13999999999999)" fill="rgb(255,255,255)" stroke="none" stroke-width="1"/><circle id="e7npjbugayd224" r="6" transform="matrix(1 0 0 1 178.38000000000000 219.13999999999999)" fill="rgb(255,255,255)" stroke="none" stroke-width="1"/><circle id="e7npjbugayd225" r="3.930000" transform="matrix(1 0 0 1 198.31000000000000 184.06999999999999)" fill="rgb(255,255,255)" stroke="none" stroke-width="1"/><circle id="e7npjbugayd226" r="3.930000" transform="matrix(1 0 0 1 63.31000000000000 198.06999999999999)" fill="rgb(255,255,255)" stroke="none" stroke-width="1"/><circle id="e7npjbugayd227" r="9.310000" transform="matrix(1 0 0 1 216.69000000000000 222.44999999999999)" fill="rgb(255,255,255)" stroke="none" stroke-width="1"/><circle id="e7npjbugayd228" r="6" transform="matrix(1 0 0 1 194.38000000000000 253.13999999999999)" fill="rgb(255,255,255)" stroke="none" stroke-width="1"/><circle id="e7npjbugayd229" r="9.310000" transform="matrix(1 0 0 1 102.69000000000000 158.83000000000001)" fill="rgb(255,255,255)" stroke="none" stroke-width="1"/><circle id="e7npjbugayd230" r="6" transform="matrix(1 0 0 1 97.38000000000000 210.13999999999999)" fill="rgb(255,255,255)" stroke="none" stroke-width="1"/></g><g id="e7npjbugayd231" transform="matrix(1 0 0 1 0.00000000000006 298.00000000000011)"><rect id="e7npjbugayd232" width="298" height="298" rx="0" ry="0" fill="rgb(0,0,0)" stroke="none" stroke-width="1"/><circle id="e7npjbugayd233" r="5" transform="matrix(1 0 0 1 38 48)" fill="rgb(255,255,255)" stroke="none" stroke-width="1"/><circle id="e7npjbugayd234" r="3.500000" transform="matrix(1 0 0 1 119.50000000000000 18.50000000000000)" fill="rgb(255,255,255)" stroke="none" stroke-width="1"/><circle id="e7npjbugayd235" r="6" transform="matrix(1 0 0 1 122 47)" fill="rgb(255,255,255)" stroke="none" stroke-width="1"/><polygon id="e7npjbugayd236" points="157.730000,87.440000 154.660000,84.560000 150.540000,85.450000 152.330000,81.640000 150.210000,78.010000 154.380000,78.530000 157.190000,75.390000 157.980000,79.520000 161.840000,81.220000 158.150000,83.250000 157.730000,87.440000" fill="rgb(255,255,255)" stroke="none" stroke-width="1"/><polygon id="e7npjbugayd237" points="153.730000,112.440000 150.660000,109.560000 146.540000,110.450000 148.330000,106.640000 146.210000,103.010000 150.380000,103.530000 153.190000,100.390000 153.980000,104.520000 157.840000,106.220000 154.150000,108.250000 153.730000,112.440000" fill="rgb(255,255,255)" stroke="none" stroke-width="1"/><polygon id="e7npjbugayd238" points="133.200000,128 128.710000,123.790000 122.690000,125.090000 125.310000,119.520000 122.210000,114.220000 128.300000,114.980000 132.410000,110.390000 133.560000,116.430000 139.210000,118.910000 133.810000,121.880000 133.200000,128" fill="rgb(255,255,255)" stroke="none" stroke-width="1"/><polygon id="e7npjbugayd239" points="96.200000,138 91.710000,133.790000 85.690000,135.090000 88.310000,129.520000 85.210000,124.220000 91.300000,124.980000 95.410000,120.390000 96.560000,126.430000 102.210000,128.910000 96.810000,131.880000 96.200000,138" fill="rgb(255,255,255)" stroke="none" stroke-width="1"/><polygon id="e7npjbugayd240" points="34.730000,137.440000 31.660000,134.560000 27.540000,135.450000 29.330000,131.640000 27.210000,128.010000 31.380000,128.530000 34.190000,125.390000 34.980000,129.520000 38.840000,131.220000 35.150000,133.250000 34.730000,137.440000" fill="rgb(255,255,255)" stroke="none" stroke-width="1"/><polygon id="e7npjbugayd241" points="50,186.560000 46.530000,186.760000 44.730000,189.740000 43.470000,186.500000 40.080000,185.710000 42.770000,183.500000 42.480000,180.040000 45.400000,181.910000 48.610000,180.570000 47.730000,183.930000 50,186.560000" fill="rgb(255,255,255)" stroke="none" stroke-width="1"/><polygon id="e7npjbugayd242" points="101.490000,184.740000 97.920000,184.940000 96.070000,188 94.780000,184.670000 91.300000,183.860000 94.060000,181.600000 93.760000,178.040000 96.770000,179.970000 100.060000,178.580000 99.160000,182.030000 101.490000,184.740000" transform="matrix(1 0 0 1 0.09554971289614 0.00497395694410)" fill="rgb(255,255,255)" stroke="none" stroke-width="1"/><polygon id="e7npjbugayd243" points="63.490000,263.170000 58.100000,263.480000 55.300000,268.100000 53.340000,263.070000 48.080000,261.840000 52.260000,258.420000 51.800000,253.040000 56.350000,255.950000 61.330000,253.860000 59.960000,259.080000 63.490000,263.170000" fill="rgb(255,255,255)" stroke="none" stroke-width="1"/><polygon id="e7npjbugayd244" points="71.490000,286.170000 66.100000,286.480000 63.300000,291.100000 61.340000,286.070000 56.080000,284.840000 60.260000,281.420000 59.800000,276.040000 64.350000,278.950000 69.330000,276.860000 67.960000,282.080000 71.490000,286.170000" fill="rgb(255,255,255)" stroke="none" stroke-width="1"/><polygon id="e7npjbugayd245" points="25.490000,249.170000 20.100000,249.480000 17.300000,254.100000 15.340000,249.070000 10.080000,247.840000 14.260000,244.420000 13.800000,239.040000 18.350000,241.950000 23.330000,239.860000 21.960000,245.080000 25.490000,249.170000" fill="rgb(255,255,255)" stroke="none" stroke-width="1"/><polygon id="e7npjbugayd246" points="25.490000,209.170000 20.100000,209.480000 17.300000,214.100000 15.340000,209.070000 10.080000,207.840000 14.260000,204.420000 13.800000,199.040000 18.350000,201.950000 23.330000,199.860000 21.960000,205.080000 25.490000,209.170000" fill="rgb(255,255,255)" stroke="none" stroke-width="1"/><polygon id="e7npjbugayd247" points="254.820000,246.150000 251.380000,240.290000 244.610000,239.810000 249.110000,234.720000 247.480000,228.140000 253.710000,230.850000 259.460000,227.260000 258.820000,234.010000 264,238.400000 257.380000,239.860000 254.820000,246.150000" transform="matrix(1 0 0 1 -0.61000000000001 0.16000000000000)" fill="rgb(255,255,255)" stroke="none" stroke-width="1"/><polygon id="e7npjbugayd248" points="151.590000,153.070000 144.840000,155.430000 142.940000,162.310000 138.620000,156.620000 131.480000,156.950000 135.560000,151.080000 133.040000,144.380000 139.890000,146.450000 145.470000,142 145.620000,149.140000 151.590000,153.070000" fill="rgb(255,255,255)" stroke="none" stroke-width="1"/><polygon id="e7npjbugayd249" points="112.390000,239.920000 107.720000,241.550000 106.410000,246.310000 103.420000,242.370000 98.480000,242.600000 101.300000,238.540000 99.560000,233.910000 104.300000,235.340000 108.160000,232.260000 108.260000,237.200000 112.390000,239.920000" fill="rgb(255,255,255)" stroke="none" stroke-width="1"/><polygon id="e7npjbugayd250" points="69.390000,149.920000 64.720000,151.550000 63.410000,156.310000 60.420000,152.370000 55.480000,152.600000 58.300000,148.540000 56.560000,143.910000 61.300000,145.340000 65.160000,142.260000 65.260000,147.200000 69.390000,149.920000" fill="rgb(255,255,255)" stroke="none" stroke-width="1"/><polygon id="e7npjbugayd251" points="25.390000,169.920000 20.720000,171.550000 19.410000,176.310000 16.420000,172.370000 11.480000,172.600000 14.300000,168.540000 12.560000,163.910000 17.300000,165.340000 21.160000,162.260000 21.260000,167.200000 25.390000,169.920000" fill="rgb(255,255,255)" stroke="none" stroke-width="1"/><polygon id="e7npjbugayd252" points="89.390000,67.920000 84.720000,69.550000 83.410000,74.310000 80.420000,70.370000 75.480000,70.600000 78.300000,66.540000 76.560000,61.910000 81.300000,63.340000 85.160000,60.260000 85.260000,65.200000 89.390000,67.920000" fill="rgb(255,255,255)" stroke="none" stroke-width="1"/><polygon id="e7npjbugayd253" points="122.390000,71.920000 117.720000,73.550000 116.410000,78.310000 113.420000,74.370000 108.480000,74.600000 111.300000,70.540000 109.560000,65.910000 114.300000,67.340000 118.160000,64.260000 118.260000,69.200000 122.390000,71.920000" fill="rgb(255,255,255)" stroke="none" stroke-width="1"/><polygon id="e7npjbugayd254" points="274.700000,84.570000 279.840000,88.100000 285.650000,85.890000 283.870000,91.860000 287.790000,96.700000 281.560000,96.860000 278.160000,102.080000 276.080000,96.200000 270.070000,94.570000 275.020000,90.790000 274.700000,84.570000" fill="rgb(255,255,255)" stroke="none" stroke-width="1"/><polygon id="e7npjbugayd255" points="290.110000,124.350000 285.200000,124.970000 282.930000,129.360000 280.820000,124.890000 275.940000,124.090000 279.540000,120.700000 278.800000,115.810000 283.140000,118.190000 287.560000,115.980000 286.630000,120.830000 290.110000,124.350000" fill="rgb(255,255,255)" stroke="none" stroke-width="1"/><polygon id="e7npjbugayd256" points="285.390000,16.920000 280.720000,18.550000 279.410000,23.310000 276.420000,19.370000 271.480000,19.600000 274.300000,15.540000 272.560000,10.910000 277.300000,12.340000 281.160000,9.260000 281.260000,14.200000 285.390000,16.920000" fill="rgb(255,255,255)" stroke="none" stroke-width="1"/><polygon id="e7npjbugayd257" points="183.890000,119.790000 180.150000,125.580000 182.790000,131.940000 176.120000,130.170000 170.890000,134.660000 170.510000,127.780000 164.630000,124.180000 171.070000,121.690000 172.670000,114.990000 177.010000,120.340000 183.890000,119.790000" fill="rgb(255,255,255)" stroke="none" stroke-width="1"/><polygon id="e7npjbugayd258" points="70.390000,90.920000 65.720000,92.550000 64.410000,97.310000 61.420000,93.370000 56.480000,93.600000 59.300000,89.540000 57.560000,84.910000 62.300000,86.340000 66.160000,83.260000 66.260000,88.200000 70.390000,90.920000" fill="rgb(255,255,255)" stroke="none" stroke-width="1"/><polygon id="e7npjbugayd259" points="69,114.360000 63.450000,116.290000 61.900000,121.950000 58.350000,117.270000 52.480000,117.540000 55.830000,112.720000 53.760000,107.220000 59.390000,108.920000 63.980000,105.260000 64.090000,111.130000 69,114.360000" fill="rgb(255,255,255)" stroke="none" stroke-width="1"/><polygon id="e7npjbugayd260" points="24.390000,20.920000 19.720000,22.550000 18.410000,27.310000 15.420000,23.370000 10.480000,23.600000 13.300000,19.540000 11.560000,14.910000 16.300000,16.340000 20.160000,13.260000 20.260000,18.200000 24.390000,20.920000" fill="rgb(255,255,255)" stroke="none" stroke-width="1"/><polygon id="e7npjbugayd261" points="75,41.460000 68.780000,43.630000 67.040000,49.970000 63.060000,44.720000 56.480000,45.030000 60.230000,39.620000 57.920000,33.460000 64.230000,35.360000 69.370000,31.260000 69.500000,37.840000 75,41.460000" fill="rgb(255,255,255)" stroke="none" stroke-width="1"/><polygon id="e7npjbugayd262" points="25.390000,90.920000 20.720000,92.550000 19.410000,97.310000 16.420000,93.370000 11.480000,93.600000 14.300000,89.540000 12.560000,84.910000 17.300000,86.340000 21.160000,83.260000 21.260000,88.200000 25.390000,90.920000" fill="rgb(255,255,255)" stroke="none" stroke-width="1"/><polygon id="e7npjbugayd263" points="157.390000,272.920000 152.720000,274.550000 151.410000,279.310000 148.420000,275.370000 143.480000,275.600000 146.300000,271.540000 144.560000,266.910000 149.300000,268.340000 153.160000,265.260000 153.260000,270.200000 157.390000,272.920000" fill="rgb(255,255,255)" stroke="none" stroke-width="1"/><polygon id="e7npjbugayd264" points="195.390000,283.920000 190.720000,285.550000 189.410000,290.310000 186.420000,286.370000 181.480000,286.600000 184.300000,282.540000 182.560000,277.910000 187.300000,279.340000 191.160000,276.260000 191.260000,281.200000 195.390000,283.920000" fill="rgb(255,255,255)" stroke="none" stroke-width="1"/><polygon id="e7npjbugayd265" points="242,30.570000 240.870000,28.080000 238.170000,27.610000 240.180000,25.760000 239.790000,23.060000 242.180000,24.390000 244.630000,23.190000 244.090000,25.870000 246,27.830000 243.280000,28.150000 242,30.570000" fill="rgb(255,255,255)" stroke="none" stroke-width="1"/><polygon id="e7npjbugayd266" points="276.310000,61.090000 274.490000,57.110000 270.170000,56.360000 273.390000,53.390000 272.770000,49.060000 276.590000,51.200000 280.530000,49.270000 279.660000,53.570000 282.720000,56.710000 278.360000,57.220000 276.310000,61.090000" fill="rgb(255,255,255)" stroke="none" stroke-width="1"/><polygon id="e7npjbugayd267" points="207.310000,22.090000 205.490000,18.110000 201.170000,17.360000 204.390000,14.390000 203.770000,10.060000 207.590000,12.200000 211.530000,10.270000 210.660000,14.570000 213.720000,17.710000 209.360000,18.220000 207.310000,22.090000" fill="rgb(255,255,255)" stroke="none" stroke-width="1"/><polygon id="e7npjbugayd268" points="213.310000,61.090000 211.490000,57.110000 207.170000,56.360000 210.390000,53.390000 209.770000,49.060000 213.590000,51.200000 217.530000,49.270000 216.660000,53.570000 219.720000,56.710000 215.360000,57.220000 213.310000,61.090000" fill="rgb(255,255,255)" stroke="none" stroke-width="1"/><polygon id="e7npjbugayd269" points="218.880000,130.490000 214.800000,130.290000 212.320000,133.540000 211.250000,129.600000 207.390000,128.250000 210.810000,126.010000 210.910000,121.920000 214.090000,124.480000 218,123.310000 216.550000,127.130000 218.880000,130.490000" fill="rgb(255,255,255)" stroke="none" stroke-width="1"/><polygon id="e7npjbugayd270" points="292,210.070000 284.680000,209.710000 280.230000,215.540000 278.310000,208.470000 271.390000,206.050000 277.520000,202.030000 277.700000,194.700000 283.410000,199.290000 290.420000,197.190000 287.820000,204.040000 292,210.070000" fill="rgb(255,255,255)" stroke="none" stroke-width="1"/><circle id="e7npjbugayd271" r="4.500000" transform="matrix(1 0 0 1 86.50000000000000 110.50000000000000)" fill="rgb(255,255,255)" stroke="none" stroke-width="1"/><circle id="e7npjbugayd272" r="6" transform="matrix(1 0 0 1 156 233)" fill="rgb(255,255,255)" stroke="none" stroke-width="1"/><circle id="e7npjbugayd273" r="6" transform="matrix(1 0 0 1 91 262)" fill="rgb(255,255,255)" stroke="none" stroke-width="1"/><circle id="e7npjbugayd274" r="12.500000" transform="matrix(1 0 0 1 243.50000000000000 188.50000000000000)" fill="rgb(255,255,255)" stroke="none" stroke-width="1"/><circle id="e7npjbugayd275" r="6" transform="matrix(1 0 0 1 134 192)" fill="rgb(255,255,255)" stroke="none" stroke-width="1"/><circle id="e7npjbugayd276" r="6" transform="matrix(1 0 0 1 194 151)" fill="rgb(255,255,255)" stroke="none" stroke-width="1"/><circle id="e7npjbugayd277" r="6" transform="matrix(1 0 0 1 128 233)" fill="rgb(255,255,255)" stroke="none" stroke-width="1"/><circle id="e7npjbugayd278" r="6" transform="matrix(1 0 0 1 75 229)" fill="rgb(255,255,255)" stroke="none" stroke-width="1"/><circle id="e7npjbugayd279" r="6" transform="matrix(1 0 0 1 45 213)" fill="rgb(255,255,255)" stroke="none" stroke-width="1"/><circle id="e7npjbugayd280" r="6" transform="matrix(1 0 0 1 225 268)" fill="rgb(255,255,255)" stroke="none" stroke-width="1"/><circle id="e7npjbugayd281" r="6" transform="matrix(1 0 0 1 112 288)" fill="rgb(255,255,255)" stroke="none" stroke-width="1"/><circle id="e7npjbugayd282" r="6" transform="matrix(1 0 0 1 182 61)" fill="rgb(255,255,255)" stroke="none" stroke-width="1"/><circle id="e7npjbugayd283" r="6" transform="matrix(1 0 0 1 176 96)" fill="rgb(255,255,255)" stroke="none" stroke-width="1"/><circle id="e7npjbugayd284" r="8" transform="matrix(1 0 0 1 123 92)" fill="rgb(255,255,255)" stroke="none" stroke-width="1"/><circle id="e7npjbugayd285" r="6" transform="matrix(1 0 0 1 75 15)" fill="rgb(255,255,255)" stroke="none" stroke-width="1"/><circle id="e7npjbugayd286" r="6" transform="matrix(1 0 0 1 244 84)" fill="rgb(255,255,255)" stroke="none" stroke-width="1"/><circle id="e7npjbugayd287" r="6" transform="matrix(1 0 0 1 243 53)" fill="rgb(255,255,255)" stroke="none" stroke-width="1"/><circle id="e7npjbugayd288" r="6" transform="matrix(1 0 0 1 213 90)" fill="rgb(255,255,255)" stroke="none" stroke-width="1"/><circle id="e7npjbugayd289" r="4.500000" transform="matrix(1 0 0 1 22.50000000000000 287.50000000000000)" fill="rgb(255,255,255)" stroke="none" stroke-width="1"/><circle id="e7npjbugayd290" r="4.500000" transform="matrix(1 0 0 1 287.50000000000000 161.50000000000000)" fill="rgb(255,255,255)" stroke="none" stroke-width="1"/><circle id="e7npjbugayd291" r="6" transform="matrix(1 0 0 1 143 53)" fill="rgb(255,255,255)" stroke="none" stroke-width="1"/><circle id="e7npjbugayd292" r="3.500000" transform="matrix(1 0 0 1 280.50000000000000 244.50000000000000)" fill="rgb(255,255,255)" stroke="none" stroke-width="1"/><circle id="e7npjbugayd293" r="9" transform="matrix(1 0 0 1 262 160)" fill="rgb(255,255,255)" stroke="none" stroke-width="1"/><circle id="e7npjbugayd294" r="8" transform="matrix(1 0 0 1 164 23)" fill="rgb(255,255,255)" stroke="none" stroke-width="1"/><circle id="e7npjbugayd295" r="6" transform="matrix(1 0 0 1 232 106)" fill="rgb(255,255,255)" stroke="none" stroke-width="1"/><circle id="e7npjbugayd296" r="6" transform="matrix(1 0 0 1 270 272)" fill="rgb(255,255,255)" stroke="none" stroke-width="1"/><circle id="e7npjbugayd297" r="6" transform="matrix(1 0 0 1 256 131)" fill="rgb(255,255,255)" stroke="none" stroke-width="1"/><circle id="e7npjbugayd298" r="6" transform="matrix(1 0 0 1 219 163)" fill="rgb(255,255,255)" stroke="none" stroke-width="1"/><circle id="e7npjbugayd299" r="6" transform="matrix(1 0 0 1 172.38000000000000 188.13999999999999)" fill="rgb(255,255,255)" stroke="none" stroke-width="1"/><circle id="e7npjbugayd300" r="6" transform="matrix(1 0 0 1 178.38000000000000 219.13999999999999)" fill="rgb(255,255,255)" stroke="none" stroke-width="1"/><circle id="e7npjbugayd301" r="3.930000" transform="matrix(1 0 0 1 198.31000000000000 184.06999999999999)" fill="rgb(255,255,255)" stroke="none" stroke-width="1"/><circle id="e7npjbugayd302" r="3.930000" transform="matrix(1 0 0 1 63.31000000000000 198.06999999999999)" fill="rgb(255,255,255)" stroke="none" stroke-width="1"/><circle id="e7npjbugayd303" r="9.310000" transform="matrix(1 0 0 1 216.69000000000000 222.44999999999999)" fill="rgb(255,255,255)" stroke="none" stroke-width="1"/><circle id="e7npjbugayd304" r="6" transform="matrix(1 0 0 1 194.38000000000000 253.13999999999999)" fill="rgb(255,255,255)" stroke="none" stroke-width="1"/><circle id="e7npjbugayd305" r="9.310000" transform="matrix(1 0 0 1 102.69000000000000 158.83000000000001)" fill="rgb(255,255,255)" stroke="none" stroke-width="1"/><circle id="e7npjbugayd306" r="6" transform="matrix(1 0 0 1 97.38000000000000 210.13999999999999)" fill="rgb(255,255,255)" stroke="none" stroke-width="1"/></g></g></svg>