<svg xmlns="http://www.w3.org/2000/svg" viewBox="0 0 411 411.09"><defs><style>.cls-1{fill:#d1663b;}.cls-2{fill:#ff7c48;}.cls-3{fill:#ffab8a;}.cls-4{opacity:0.12;}</style></defs><g id="Layer_2" data-name="Layer 2"><g id="Layer_1-2" data-name="Layer 1"><path class="cls-1" d="M205.5,411.09A205.44,205.44,0,0,1,5.81,254.33c-1-4.25-1.92-8.55-2.68-12.79l-.18-1,1-.13a623.31,623.31,0,0,1,75.9-5c32.65,0,62.09,3.17,87.49,9.41a218,218,0,0,1,39,13.35c24.42,11.22,53,16.91,84.83,16.91,34.2,0,71.86-6.41,111.94-19.06l1.72-.55-.45,1.75a205.4,205.4,0,0,1-199,153.86Z"/><path class="cls-1" d="M403.49,257A204.56,204.56,0,0,1,6.78,254.09q-1.52-6.28-2.66-12.72c49.33-6.09,110.3-8.53,163,4.43A216.24,216.24,0,0,1,206,259.09C270.15,288.56,348.65,274.29,403.49,257Z"/><path class="cls-2" d="M291.25,277.09c-32.16,0-61-5.75-85.67-17.09a215.52,215.52,0,0,0-38.67-13.23c-25.24-6.2-54.52-9.35-87-9.35a621.46,621.46,0,0,0-75.66,4.94l-.94.12-.17-.94A207.71,207.71,0,0,1,4,165.15,204.51,204.51,0,0,1,48.31,73.22,205.2,205.2,0,0,1,205.5.09,205.64,205.64,0,0,1,397,130.86a204.12,204.12,0,0,1,11.83,44.67,206.91,206.91,0,0,1-4.35,81.7l-.14.54-.53.16C363.52,270.64,325.65,277.09,291.25,277.09Z"/><path class="cls-2" d="M410,205.59a206.49,206.49,0,0,1-1.87,27.75A202.43,202.43,0,0,1,403.49,257c-54.84,17.31-133.34,31.58-197.49,2.11a216.24,216.24,0,0,0-38.85-13.29c-52.73-13-113.7-10.52-163-4.43a206.57,206.57,0,0,1,.84-76A204.61,204.61,0,0,1,205.5,1.09,204.25,204.25,0,0,1,396.05,131.22a202.48,202.48,0,0,1,11.77,44.45A205,205,0,0,1,410,205.59Z"/><path class="cls-3" d="M64.55,177.82A125.88,125.88,0,0,1,48,176.6,222.35,222.35,0,0,1,4.63,166.29L3.81,166l.17-.86A202.31,202.31,0,0,1,9.55,143.5l.25-.8.83.11c2,.26,4.06.51,6.36.76a323.54,323.54,0,0,0,34.49,1.77c13.38,0,27.24-.71,42.39-2.19,25.82-2.5,51.87-6.85,77.06-11.06,22.5-3.76,45.76-7.64,68.82-10.2a526.26,526.26,0,0,1,58.08-3.32c35.25,0,68.37,3.93,98.47,11.68l.49.13.19.48a204.12,204.12,0,0,1,11.83,44.67l.16,1.06-1.08.08c-9.82.69-19.68,1-29.31,1a366.27,366.27,0,0,1-91.33-11.2c-8.6-2.22-17.31-4.83-25.74-7.35-22.9-6.86-46.58-13.94-70.42-13.94-2.39,0-4.78.07-7.11.21-23.56,1.42-46.19,10.31-68.07,18.92-3.47,1.36-6.93,2.72-10.39,4.05-9.79,3.77-20.26,7.55-31.21,8.86A82.44,82.44,0,0,1,64.55,177.82Z"/><path class="cls-3" d="M407.82,175.67c-40.42,2.84-81.14,0-120.32-10.13-34.3-8.85-68.22-23.25-103.58-21.11-27.42,1.65-53.12,13.18-78.76,23-10,3.86-20.28,7.52-31,8.8a104.18,104.18,0,0,1-26.1-.66A222.45,222.45,0,0,1,5,165.35,202.46,202.46,0,0,1,10.5,143.8q3.18.42,6.38.76c25.6,2.76,51.49,2.08,77.09-.41,48.92-4.74,97-15.84,145.89-21.27,51.91-5.77,105.92-4.61,156.19,8.34A202.48,202.48,0,0,1,407.82,175.67Z"/><path class="cls-3" d="M205.5,411.09a203.28,203.28,0,0,1-92.38-21.89l-2-1,2-.84c25.82-10.66,56.71-16.29,89.31-16.29,33.61,0,66.48,6.28,92.56,17.67l2,.87-1.95.95A203.46,203.46,0,0,1,205.5,411.09Z"/><path class="cls-3" d="M294.66,389.68a204.93,204.93,0,0,1-181.09-1.37c24.66-10.18,55.48-16.22,88.93-16.22C237.43,372.09,269.49,378.68,294.66,389.68Z"/><path class="cls-3" d="M63.08,75.46c-4.86,0-9.6-.2-14.1-.59l-1.92-.17,1.25-1.48A205.2,205.2,0,0,1,205.5.09,207.29,207.29,0,0,1,244.56,3.8l2,.38L245,5.53c-21.57,19-49.8,35.71-81.63,48.47C128.86,67.84,93.23,75.46,63.08,75.46Z"/><path class="cls-3" d="M244.37,4.78C223.77,22.88,195.7,40,163,53.07c-41.81,16.75-82.7,23.54-114,20.8A204.85,204.85,0,0,1,244.37,4.78Z"/><path class="cls-4" d="M205.59,411A205.44,205.44,0,0,1,5.9,254.24c-1-4.25-1.92-8.55-2.67-12.79a207.41,207.41,0,0,1,.84-76.39A204.51,204.51,0,0,1,48.4,73.13,205.8,205.8,0,0,1,240.74,3V5A203.78,203.78,0,0,0,75.19,241.11c.75,4.19,1.64,8.45,2.65,12.66A203.42,203.42,0,0,0,240.78,406v2A207.32,207.32,0,0,1,205.59,411Z"/><path class="cls-4" d="M240.61,407A204.53,204.53,0,0,1,6.87,254q-1.51-6.28-2.66-12.72a206.57,206.57,0,0,1,.84-76A204.61,204.61,0,0,1,205.59,1a204.62,204.62,0,0,1,35,3A204.74,204.74,0,0,0,74.21,241.28q1.14,6.43,2.66,12.72A205,205,0,0,0,183.66,388.22,202.49,202.49,0,0,0,240.61,407Z"/></g></g></svg>