<svg xmlns="http://www.w3.org/2000/svg" viewBox="0 0 650 411.09"><defs><style>.cls-1{fill:#a6918d;}.cls-2{fill:#d1663b;}.cls-3{fill:#ff7c48;}.cls-4{fill:#ffab8a;}.cls-5{opacity:0.12;}.cls-6{fill:#baa39d;}</style></defs><g id="Layer_2" data-name="Layer 2"><g id="Layer_1-2" data-name="Layer 1"><path class="cls-1" d="M586.31,204.57a23.92,23.92,0,0,0,.85-6.2c0-20.59-27-40.06-76.15-54.82-49.47-14.87-115.27-23.06-185.28-23.06-143.93,0-261.2,34.89-261.42,77.76v1h-1c-11.43-.05-22.62-.07-33.27-.07q-14.52,0-29,.06H0v-1c.1-30.89,34.09-59.82,95.69-81.47C157,95.23,238.41,83.37,325,83.37s168.13,11.88,229.43,33.44C616.06,138.5,650,167.46,650,198.37a43.24,43.24,0,0,1-.46,6.17l-.13.84-.85,0c-19.41.23-39.46.38-61.28.43H586Z"/><path class="cls-1" d="M63.31,198.25c.22-43.51,117.62-78.76,262.42-78.76s262.43,35.31,262.43,78.88a25,25,0,0,1-.88,6.46q30.63-.08,61.27-.43a42,42,0,0,0,.45-6c0-63-145.07-114-324-114S1.21,135.33,1,198.24Q32.17,198.11,63.31,198.25Z"/><path class="cls-2" d="M526,255.48l-.45,1.75-.14.54A205.32,205.32,0,0,1,418.12,389.62c-.64.33-1.28.64-1.93,1a205.92,205.92,0,0,1-182-1.38l-1-.49-1-.5A205.11,205.11,0,0,1,126.9,254.33c-1-3.94-1.8-7.92-2.51-11.85l-.17-.94-.18-1h.11l.89-.11h.11a632.27,632.27,0,0,1,69.21-4.9c.34,0,.68,0,1,0,1.88,0,3.76,0,5.62,0,32.65,0,62.09,3.17,87.49,9.41a218,218,0,0,1,39,13.35c24.42,11.22,53,16.91,84.83,16.91,34.2,0,71.86-6.41,111.94-19.06l.59-.19,1.12-.36Z"/><path class="cls-2" d="M524.58,257a204.56,204.56,0,0,1-396.71-2.89q-1.52-6.28-2.66-12.72c49.33-6.09,110.3-8.53,163,4.43a216.24,216.24,0,0,1,38.85,13.29C391.24,288.56,469.74,274.29,524.58,257Z"/><path class="cls-3" d="M532.09,205.59a206.15,206.15,0,0,1-6.1,49.89c-.14.59-.29,1.17-.44,1.75l-.14.54-.53.17-.61.19c-40,12.58-77.7,19-111.93,19-32.16,0-61-5.75-85.67-17.09A215.52,215.52,0,0,0,288,246.77c-25.24-6.2-54.52-9.35-87-9.35l-5.31,0h-1a631.88,631.88,0,0,0-69.18,4.88h-.16l-.83.11h-.11l-.17-.94-.18-1a207.8,207.8,0,0,1,.86-74.5l.17-.85a204.21,204.21,0,0,1,5.56-21.66l.26-.8a203.8,203.8,0,0,1,35.35-65.62c.53-.67,1.07-1.32,1.61-2l.32-.4,1.22-1.47q1.19-1.41,2.4-2.79c.47-.54.94-1.07,1.42-1.6s1-1.17,1.58-1.76l.22-.24.67-.72c.47-.52.95-1,1.43-1.54,1.27-1.35,2.55-2.68,3.86-4,.5-.51,1-1,1.51-1.5.29-.3.58-.59.88-.87l1-1,1.46-1.39c.38-.36.75-.71,1.13-1l2.08-1.9q2.68-2.43,5.45-4.74c.54-.46,1.09-.92,1.64-1.36q2.77-2.3,5.62-4.47l1.59-1.2c1.78-1.34,3.57-2.64,5.39-3.91L211,35.67q2.55-1.74,5.15-3.39c.61-.39,1.22-.78,1.84-1.16,1.09-.68,2.19-1.35,3.29-2,.64-.38,1.27-.76,1.92-1.13q4.19-2.44,8.47-4.67c.57-.3,1.14-.6,1.71-.88q4.69-2.4,9.5-4.54c.61-.28,1.22-.55,1.84-.81l1.47-.63,1.94-.82q4.44-1.83,8.95-3.45c.73-.27,1.47-.53,2.21-.78l2.18-.75A207.26,207.26,0,0,1,284.16,4.5L286.45,4l1.73-.34,2.26-.41c.82-.15,1.63-.29,2.45-.42s1.84-.3,2.77-.44,1.85-.28,2.77-.4,2.14-.29,3.22-.42c.78-.1,1.57-.19,2.36-.27s1.86-.2,2.8-.29L309,.84l.84-.07c1.58-.13,3.17-.24,4.75-.33l1.89-.1.83,0,1.26-.06,2-.06c1.05,0,2.11-.06,3.17-.07l2.84,0c2.22,0,4.43,0,6.65.11l2.18.08h.06l2.19.11c1.48.07,2.95.17,4.42.28l2.21.18,2.21.2c1.47.14,2.94.3,4.4.47l2.11.26c1.5.19,3,.4,4.48.62l2.16.34,2.17.36c1.28.22,2.55.46,3.82.7l2,.4a205.93,205.93,0,0,1,142,107.9,200,200,0,0,1,8.27,18.28l.19.48a204.42,204.42,0,0,1,11.83,44.67l.15,1.06A206.87,206.87,0,0,1,532.09,205.59Z"/><path class="cls-3" d="M531.09,205.59a206.49,206.49,0,0,1-1.87,27.75A202.43,202.43,0,0,1,524.58,257c-54.84,17.31-133.34,31.58-197.49,2.11a216.24,216.24,0,0,0-38.85-13.29c-52.73-13-113.7-10.52-163-4.43a206.57,206.57,0,0,1,.84-76A204.61,204.61,0,0,1,326.59,1.09,204.25,204.25,0,0,1,517.14,131.22a202.48,202.48,0,0,1,11.77,44.45A205,205,0,0,1,531.09,205.59Z"/><path class="cls-4" d="M530.05,176.59l-1,.07H529c-9.82.69-19.68,1-29.32,1a366.25,366.25,0,0,1-91.32-11.2c-8.6-2.22-17.31-4.83-25.74-7.35-22.9-6.85-46.58-13.94-70.42-13.94-2.39,0-4.78.07-7.11.21-23.57,1.42-46.19,10.32-68.08,18.92-3.46,1.36-6.92,2.72-10.38,4.05-9.79,3.77-20.27,7.55-31.21,8.86l-.28,0c-.34,0-.68.08-1,.1a79.55,79.55,0,0,1-8.46.43,125.88,125.88,0,0,1-16.59-1.22,222.3,222.3,0,0,1-43.12-10.23l-.07,0-.14,0L125,166l-.07,0,.17-.85a204.21,204.21,0,0,1,5.56-21.66l.26-.8H131l.77.1.18,0H132c1.91.25,3.91.49,6.12.73a323.47,323.47,0,0,0,34.49,1.78c9.31,0,18.87-.35,28.93-1.06l1.07-.08c4-.29,8.16-.64,12.39-1.05,25.82-2.51,51.87-6.86,77.06-11.06,22.5-3.76,45.76-7.65,68.82-10.21a528.71,528.71,0,0,1,58.08-3.32c35,0,67.85,3.87,97.76,11.5l.71.18.49.13.19.48a204.42,204.42,0,0,1,11.83,44.67Z"/><path class="cls-4" d="M528.91,175.67c-40.42,2.84-81.14,0-120.32-10.13-34.3-8.85-68.22-23.25-103.58-21.11-27.42,1.65-53.12,13.18-78.76,23-10,3.86-20.28,7.52-31,8.8a104.18,104.18,0,0,1-26.1-.66,222.45,222.45,0,0,1-43.13-10.26,202.46,202.46,0,0,1,5.54-21.55q3.18.42,6.38.76c25.6,2.76,51.49,2.08,77.09-.41,48.92-4.74,97-15.84,145.89-21.27,51.91-5.77,105.92-4.61,156.19,8.34A202.48,202.48,0,0,1,528.91,175.67Z"/><path class="cls-4" d="M326.59,411.09a203.28,203.28,0,0,1-92.38-21.89l-2-1,2-.84c25.82-10.66,56.71-16.29,89.31-16.29,33.61,0,66.48,6.28,92.56,17.67l2,.87-1.95.95A203.49,203.49,0,0,1,326.59,411.09Z"/><path class="cls-4" d="M415.75,389.68a204.93,204.93,0,0,1-181.09-1.37c24.66-10.18,55.48-16.22,88.93-16.22C358.52,372.09,390.58,378.68,415.75,389.68Z"/><path class="cls-4" d="M184.17,75.46c-4.86,0-9.61-.2-14.1-.59l-1.92-.17,1.24-1.48A205.85,205.85,0,0,1,365.65,3.8l2,.38-1.53,1.35c-21.57,19-49.8,35.71-81.63,48.47C250,67.84,214.32,75.46,184.17,75.46Z"/><path class="cls-4" d="M365.46,4.78c-20.6,18.1-48.67,35.2-81.34,48.29-41.81,16.75-82.7,23.54-114,20.8A204.85,204.85,0,0,1,365.46,4.78Z"/><path class="cls-5" d="M326.68,411A205.44,205.44,0,0,1,127,254.24c-1-4.25-1.93-8.55-2.68-12.79a207.71,207.71,0,0,1,.85-76.39A205.72,205.72,0,0,1,361.83,3V5A203.78,203.78,0,0,0,196.28,241.11c.75,4.19,1.64,8.45,2.65,12.66A203.42,203.42,0,0,0,361.87,406v2A207.32,207.32,0,0,1,326.68,411Z"/><path class="cls-5" d="M361.7,407A204.53,204.53,0,0,1,128,254q-1.51-6.28-2.66-12.72a206.57,206.57,0,0,1,.84-76A204.61,204.61,0,0,1,326.68,1a204.62,204.62,0,0,1,35,3A204.74,204.74,0,0,0,195.3,241.28q1.14,6.43,2.66,12.72A205,205,0,0,0,304.75,388.22,202.49,202.49,0,0,0,361.7,407Z"/><path class="cls-6" d="M325,313.37c-86.65,0-168.13-11.88-229.43-33.45C33.94,258.24,0,229.28,0,198.37l.05-1.07,1-.06q14.52-.06,29-.06c10.65,0,21.85,0,33.28.07h1v1.12c0,20.59,27,40.06,76.15,54.82,49.47,14.87,115.27,23.05,185.27,23.05,135.28,0,249.74-31.48,260.58-71.67l.2-.74h.76c21.82-.05,41.86-.2,61.27-.43l1.17,0-.17,1.16C640.5,265.57,498,313.37,325,313.37Z"/><path class="cls-6" d="M587.28,204.83c-10.94,40.54-123.85,72.41-261.55,72.41-144.93,0-262.42-35.31-262.42-78.87v-.12q-31.14-.13-62.31,0v.13c0,63,145.07,114,324,114,173.19,0,314.64-47.81,323.55-108Q617.91,204.78,587.28,204.83Z"/></g></g></svg>