<?xml version="1.0" encoding="UTF-8" standalone="no"?>
<!DOCTYPE svg PUBLIC "-//W3C//DTD SVG 1.1//EN" "http://www.w3.org/Graphics/SVG/1.1/DTD/svg11.dtd">
<svg width="100%" height="100%" viewBox="0 0 411 412" version="1.1" xmlns="http://www.w3.org/2000/svg" xmlns:xlink="http://www.w3.org/1999/xlink" xml:space="preserve" xmlns:serif="http://www.serif.com/" style="fill-rule:evenodd;clip-rule:evenodd;stroke-linejoin:round;stroke-miterlimit:2;">
    <g transform="matrix(1,0,0,1,-136.125,-94.455)">
        <g transform="matrix(1,0,0,1,34.0363,-425.177)">
            <g transform="matrix(1,0,0,1,307.588,755.053)">
                <path d="M0,175.669C-32.492,175.669 -63.573,168.305 -92.38,153.781C-146.341,126.576 -185.455,77.416 -199.692,18.905C-200.715,14.659 -201.614,10.359 -202.365,6.123L-202.549,5.085L-201.503,4.956C-174.866,1.668 -149.329,0 -125.6,0C-92.945,0 -63.51,3.165 -38.111,9.408C-23.971,12.868 -10.839,17.36 0.917,22.76C25.341,33.981 53.882,39.67 85.747,39.67C119.95,39.67 157.613,33.255 197.689,20.606L199.41,20.062L198.958,21.81C183.854,80.167 143.994,128.771 89.596,155.158C61.565,168.769 31.421,175.669 0,175.669" style="fill:rgb(163,175,25);fill-rule:nonzero;"/>
                <clipPath id="_clip1">
                    <path d="M0,175.669C-32.492,175.669 -63.573,168.305 -92.38,153.781C-146.341,126.576 -185.455,77.416 -199.692,18.905C-200.715,14.659 -201.614,10.359 -202.365,6.123L-202.549,5.085L-201.503,4.956C-174.866,1.668 -149.329,0 -125.6,0C-92.945,0 -63.51,3.165 -38.111,9.408C-23.971,12.868 -10.839,17.36 0.917,22.76C25.341,33.981 53.882,39.67 85.747,39.67C119.95,39.67 157.613,33.255 197.689,20.606L199.41,20.062L198.958,21.81C183.854,80.167 143.994,128.771 89.596,155.158C61.565,168.769 31.421,175.669 0,175.669" clip-rule="nonzero"/>
                </clipPath>
                <g clip-path="url(#_clip1)">
                    <g transform="matrix(0.436974,0,0,0.436974,-99.7244,69.4489)">
                        <path d="M441.188,74.742C440.494,72.43 440.121,69.979 440.121,67.442C440.121,53.442 451.487,42.075 465.488,42.075C473.025,42.075 479.798,45.369 484.447,50.595C487.349,48.887 490.729,47.907 494.337,47.907C505.119,47.907 513.873,56.66 513.873,67.442C513.873,70.023 513.372,72.487 512.461,74.742L441.188,74.742Z" style="fill:rgb(205,201,17);"/>
                    </g>
                </g>
            </g>
            <g transform="matrix(1,0,0,1,393.335,519.722)">
                <path d="M0,277.001C-32.155,277.001 -60.977,271.25 -85.665,259.908C-97.306,254.562 -110.316,250.111 -124.335,246.682C-149.578,240.477 -178.853,237.331 -211.347,237.331C-234.994,237.331 -260.449,238.993 -287.005,242.272L-287.947,242.388L-288.112,241.453C-290.192,229.662 -291.247,217.565 -291.247,205.5C-291.247,191.881 -289.908,178.275 -287.268,165.063C-285.826,157.815 -283.953,150.529 -281.701,143.408C-273.527,117.593 -260.486,93.949 -242.942,73.135C-203.763,26.656 -146.467,0 -85.747,0C-72.618,0 -59.477,1.247 -46.688,3.707C-12.612,10.267 19.519,25.575 46.229,47.978C72.668,70.152 93.245,98.78 105.734,130.767C111.347,145.125 115.327,160.154 117.562,175.436C119.015,185.282 119.752,195.397 119.752,205.5C119.752,214.812 119.121,224.192 117.874,233.385C116.784,241.42 115.215,249.413 113.21,257.141L113.072,257.677L112.543,257.844C72.272,270.555 34.407,277.001 0,277.001" style="fill:rgb(205,201,17);fill-rule:nonzero;"/>
            </g>
            <g transform="matrix(1,0,0,1,166.637,638.199)">
                <path d="M0,59.254C-4.988,59.254 -10.415,58.855 -16.59,58.033C-31.091,56.112 -46.073,52.549 -59.917,47.727L-60.739,47.441L-60.569,46.587C-59.127,39.338 -57.254,32.052 -55.002,24.931L-54.749,24.131L-53.917,24.241C-51.937,24.503 -49.857,24.751 -47.562,24.998C-36.612,26.179 -25.007,26.776 -13.069,26.776C0.308,26.776 14.174,26.061 29.325,24.587C55.146,22.085 81.192,17.733 106.38,13.526C128.878,9.768 152.143,5.882 175.201,3.318C195.012,1.116 214.555,0 233.286,0C268.527,0 301.655,3.931 331.751,11.684L332.247,11.812L332.433,12.288C338.046,26.648 342.025,41.677 344.261,56.958L344.417,58.025L343.342,58.1C333.524,58.79 323.662,59.14 314.027,59.14C282.255,59.14 251.528,55.372 222.702,47.941C214.102,45.722 205.39,43.114 196.964,40.592C174.062,33.736 150.381,26.649 126.539,26.649C124.15,26.649 121.759,26.72 119.432,26.86C95.868,28.278 73.24,37.177 51.358,45.781C47.892,47.145 44.43,48.505 40.97,49.836C31.181,53.6 20.708,57.384 9.76,58.695C6.674,59.066 3.39,59.254 0,59.254" style="fill:rgb(254,195,172);fill-rule:nonzero;"/>
            </g>
            <g transform="matrix(1,0,0,1,509.908,639.581)">
                <path d="M0,55.721C-40.42,58.561 -81.14,55.691 -120.32,45.591C-154.62,36.741 -188.54,22.341 -223.9,24.481C-251.32,26.131 -277.02,37.66 -302.66,47.521C-312.7,51.381 -322.94,55.04 -333.63,56.321C-342.29,57.361 -351.08,56.811 -359.73,55.66C-373.09,53.891 -388.16,50.521 -402.86,45.401C-401.4,38.061 -399.54,30.87 -397.32,23.851C-395.2,24.131 -393.07,24.381 -390.94,24.611C-365.34,27.37 -339.45,26.691 -313.85,24.2C-264.93,19.46 -216.81,8.361 -167.96,2.931C-116.05,-2.84 -62.04,-1.679 -11.77,11.271C-6.25,25.391 -2.26,40.271 0,55.721" style="fill:rgb(254,195,172);fill-rule:nonzero;"/>
            </g>
            <g transform="matrix(1,0,0,1,307.588,890.722)">
                <path d="M0,40C-32.492,40 -63.573,32.636 -92.38,18.112L-94.332,17.129L-92.312,16.295C-66.487,5.635 -35.603,0 -3,0C30.61,0 63.482,6.276 89.56,17.674L91.547,18.542L89.597,19.489C61.565,33.1 31.421,40 0,40" style="fill:rgb(255,171,138);fill-rule:nonzero;"/>
            </g>
            <g transform="matrix(0.00756508,-0.999971,-0.999971,-0.00756508,305.478,820.168)">
                <path d="M-88.45,-91.942C-101.733,-65.101 -109.292,-34.908 -109.534,-2.939C-109.784,30.13 -102.171,61.419 -88.45,89.153C-78.084,64.571 -71.811,33.798 -71.558,0.349C-71.294,-34.58 -77.641,-66.689 -88.45,-91.942" style="fill:rgb(255,171,138);fill-rule:nonzero;"/>
            </g>
            <g transform="matrix(1,0,0,1,165.165,519.722)">
                <path d="M0,75.369C-4.86,75.369 -9.602,75.169 -14.094,74.775L-16.013,74.607L-14.771,73.135C24.408,26.656 81.703,0 142.423,0C155.552,0 168.693,1.247 181.482,3.707L183.487,4.093L181.953,5.44C160.382,24.394 132.156,41.154 100.325,53.908C65.78,67.747 30.15,75.369 0,75.369" style="fill:rgb(255,171,138);fill-rule:nonzero;"/>
            </g>
            <g transform="matrix(-0.333509,-0.942747,-0.942747,0.333509,184.121,477.785)">
                <path d="M-98.097,-137.493C-108.292,-112.035 -115.05,-79.87 -116.495,-44.704C-118.342,0.298 -111.106,41.112 -98.097,69.668C-68.649,19.452 -60.725,-42.912 -81.656,-102.078C-86.088,-114.607 -91.62,-126.44 -98.097,-137.493" style="fill:rgb(255,171,138);fill-rule:nonzero;"/>
            </g>
            <g opacity="0.12">
                <g transform="matrix(1,0,0,1,307.678,519.632)">
                    <path d="M0,411C-32.491,411 -63.572,403.636 -92.38,389.112C-146.341,361.907 -185.455,312.747 -199.692,254.236C-200.716,249.987 -201.615,245.688 -202.365,241.454C-204.445,229.662 -205.5,217.565 -205.5,205.5C-205.5,191.881 -204.161,178.276 -201.521,165.063C-200.079,157.815 -198.206,150.529 -195.954,143.408C-187.78,117.594 -174.74,93.95 -157.195,73.135C-118.016,26.656 -60.72,0 0,0C11.829,0 23.655,1.011 35.151,3.004L35.15,4.975C-11.836,13.076 -54.743,37.74 -85.666,74.424C-103.04,95.037 -115.953,118.449 -124.047,144.012C-126.277,151.063 -128.131,158.277 -129.559,165.455C-132.174,178.539 -133.5,192.012 -133.5,205.5C-133.5,217.449 -132.456,229.429 -130.395,241.105C-129.652,245.299 -128.762,249.559 -127.748,253.766C-113.65,311.704 -74.917,360.386 -21.48,387.327C-3.587,396.349 15.479,402.64 35.189,406.024L35.19,407.995C23.671,409.989 11.831,411 0,411" style="fill-rule:nonzero;"/>
                </g>
            </g>
        </g>
        <g transform="matrix(0.4064,0,0,0.4064,250.107,281.183)">
            <path d="M173.874,70.653C173.874,70.653 186.302,45.797 191.295,35.811C191.681,35.038 192.471,34.55 193.335,34.55C194.199,34.55 194.989,35.038 195.375,35.811L202.559,50.18L209.744,35.811C210.13,35.038 210.92,34.55 211.784,34.55C212.648,34.55 213.438,35.038 213.824,35.811L221.009,50.18L228.193,35.811C228.58,35.038 229.37,34.55 230.234,34.55C231.098,34.55 231.887,35.038 232.274,35.811C237.267,45.797 249.694,70.653 249.694,70.653L173.874,70.653Z" style="fill:rgb(163,175,25);"/>
        </g>
        <g transform="matrix(0.4064,0,0,0.4064,190.124,354.313)">
            <path d="M173.874,70.653C173.874,70.653 186.302,45.797 191.295,35.811C191.681,35.038 192.471,34.55 193.335,34.55C194.199,34.55 194.989,35.038 195.375,35.811L202.559,50.18L209.744,35.811C210.13,35.038 210.92,34.55 211.784,34.55C212.648,34.55 213.438,35.038 213.824,35.811L221.009,50.18L228.193,35.811C228.58,35.038 229.37,34.55 230.234,34.55C231.098,34.55 231.887,35.038 232.274,35.811C237.267,45.797 249.694,70.653 249.694,70.653L173.874,70.653Z" style="fill:rgb(205,201,17);"/>
        </g>
        <g transform="matrix(0.4064,0,0,0.4064,111.168,354.549)">
            <path d="M173.874,70.653C173.874,70.653 186.302,45.797 191.295,35.811C191.681,35.038 192.471,34.55 193.335,34.55C194.199,34.55 194.989,35.038 195.375,35.811L202.559,50.18L209.744,35.811C210.13,35.038 210.92,34.55 211.784,34.55C212.648,34.55 213.438,35.038 213.824,35.811L221.009,50.18L228.193,35.811C228.58,35.038 229.37,34.55 230.234,34.55C231.098,34.55 231.887,35.038 232.274,35.811C237.267,45.797 249.694,70.653 249.694,70.653L173.874,70.653Z" style="fill:rgb(111,118,28);"/>
        </g>
        <g transform="matrix(0.4064,0,0,0.4064,254.17,383.893)">
            <path d="M173.874,70.653C173.874,70.653 186.302,45.797 191.295,35.811C191.681,35.038 192.471,34.55 193.335,34.55C194.199,34.55 194.989,35.038 195.375,35.811L202.559,50.18L209.744,35.811C210.13,35.038 210.92,34.55 211.784,34.55C212.648,34.55 213.438,35.038 213.824,35.811L221.009,50.18L228.193,35.811C228.58,35.038 229.37,34.55 230.234,34.55C231.098,34.55 231.887,35.038 232.274,35.811C237.267,45.797 249.694,70.653 249.694,70.653L173.874,70.653Z" style="fill:rgb(205,201,17);"/>
        </g>
        <g transform="matrix(0.4064,0,0,0.4064,388.885,369.221)">
            <path d="M173.874,70.653C173.874,70.653 186.302,45.797 191.295,35.811C191.681,35.038 192.471,34.55 193.335,34.55C194.199,34.55 194.989,35.038 195.375,35.811L202.559,50.18L209.744,35.811C210.13,35.038 210.92,34.55 211.784,34.55C212.648,34.55 213.438,35.038 213.824,35.811L221.009,50.18L228.193,35.811C228.58,35.038 229.37,34.55 230.234,34.55C231.098,34.55 231.887,35.038 232.274,35.811C237.267,45.797 249.694,70.653 249.694,70.653L173.874,70.653Z" style="fill:rgb(205,201,17);"/>
        </g>
        <g transform="matrix(0.4064,0,0,0.4064,313.931,417.418)">
            <path d="M173.874,70.653C173.874,70.653 186.302,45.797 191.295,35.811C191.681,35.038 192.471,34.55 193.335,34.55C194.199,34.55 194.989,35.038 195.375,35.811L202.559,50.18L209.744,35.811C210.13,35.038 210.92,34.55 211.784,34.55C212.648,34.55 213.438,35.038 213.824,35.811L221.009,50.18L228.193,35.811C228.58,35.038 229.37,34.55 230.234,34.55C231.098,34.55 231.887,35.038 232.274,35.811C237.267,45.797 249.694,70.653 249.694,70.653L173.874,70.653Z" style="fill:rgb(205,201,17);"/>
        </g>
        <g transform="matrix(0.4064,0,0,0.4064,322.198,264.751)">
            <path d="M173.874,70.653C173.874,70.653 186.302,45.797 191.295,35.811C191.681,35.038 192.471,34.55 193.335,34.55C194.199,34.55 194.989,35.038 195.375,35.811L202.559,50.18L209.744,35.811C210.13,35.038 210.92,34.55 211.784,34.55C212.648,34.55 213.438,35.038 213.824,35.811L221.009,50.18L228.193,35.811C228.58,35.038 229.37,34.55 230.234,34.55C231.098,34.55 231.887,35.038 232.274,35.811C237.267,45.797 249.694,70.653 249.694,70.653L173.874,70.653Z" style="fill:rgb(163,175,25);"/>
        </g>
        <g transform="matrix(0.4064,0,0,0.4064,329.089,312.458)">
            <path d="M173.874,70.653C173.874,70.653 186.302,45.797 191.295,35.811C191.681,35.038 192.471,34.55 193.335,34.55C194.199,34.55 194.989,35.038 195.375,35.811L202.559,50.18L209.744,35.811C210.13,35.038 210.92,34.55 211.784,34.55C212.648,34.55 213.438,35.038 213.824,35.811L221.009,50.18L228.193,35.811C228.58,35.038 229.37,34.55 230.234,34.55C231.098,34.55 231.887,35.038 232.274,35.811C237.267,45.797 249.694,70.653 249.694,70.653L173.874,70.653Z" style="fill:rgb(163,175,25);"/>
        </g>
        <g transform="matrix(0.4064,0,0,0.4064,418.143,283.834)">
            <path d="M173.874,70.653C173.874,70.653 186.302,45.797 191.295,35.811C191.681,35.038 192.471,34.55 193.335,34.55C194.199,34.55 194.989,35.038 195.375,35.811L202.559,50.18L209.744,35.811C210.13,35.038 210.92,34.55 211.784,34.55C212.648,34.55 213.438,35.038 213.824,35.811L221.009,50.18L228.193,35.811C228.58,35.038 229.37,34.55 230.234,34.55C231.098,34.55 231.887,35.038 232.274,35.811C237.267,45.797 249.694,70.653 249.694,70.653L173.874,70.653Z" style="fill:rgb(163,175,25);"/>
        </g>
        <g transform="matrix(0.4064,0,0,0.4064,175.365,263.16)">
            <path d="M173.874,70.653C173.874,70.653 186.302,45.797 191.295,35.811C191.681,35.038 192.471,34.55 193.335,34.55C194.199,34.55 194.989,35.038 195.375,35.811L202.559,50.18L209.744,35.811C210.13,35.038 210.92,34.55 211.784,34.55C212.648,34.55 213.438,35.038 213.824,35.811L221.009,50.18L228.193,35.811C228.58,35.038 229.37,34.55 230.234,34.55C231.098,34.55 231.887,35.038 232.274,35.811C237.267,45.797 249.694,70.653 249.694,70.653L173.874,70.653Z" style="fill:rgb(163,175,25);"/>
        </g>
        <g transform="matrix(0.4064,0,0,0.4064,185.395,193.648)">
            <path d="M173.874,70.653C173.874,70.653 186.302,45.797 191.295,35.811C191.681,35.038 192.471,34.55 193.335,34.55C194.199,34.55 194.989,35.038 195.375,35.811L202.559,50.18L209.744,35.811C210.13,35.038 210.92,34.55 211.784,34.55C212.648,34.55 213.438,35.038 213.824,35.811L221.009,50.18L228.193,35.811C228.58,35.038 229.37,34.55 230.234,34.55C231.098,34.55 231.887,35.038 232.274,35.811C237.267,45.797 249.694,70.653 249.694,70.653L173.874,70.653Z" style="fill:rgb(163,175,25);"/>
        </g>
        <g transform="matrix(0.4064,0,0,0.4064,111.168,179.733)">
            <path d="M173.874,70.653C173.874,70.653 186.302,45.797 191.295,35.811C191.681,35.038 192.471,34.55 193.335,34.55C194.199,34.55 194.989,35.038 195.375,35.811L202.559,50.18L209.744,35.811C210.13,35.038 210.92,34.55 211.784,34.55C212.648,34.55 213.438,35.038 213.824,35.811L221.009,50.18L228.193,35.811C228.58,35.038 229.37,34.55 230.234,34.55C231.098,34.55 231.887,35.038 232.274,35.811C237.267,45.797 249.694,70.653 249.694,70.653L173.874,70.653Z" style="fill:rgb(134,130,9);"/>
        </g>
        <g transform="matrix(0.4064,0,0,0.4064,91.4148,278.623)">
            <path d="M173.874,70.653C173.874,70.653 186.302,45.797 191.295,35.811C191.681,35.038 192.471,34.55 193.335,34.55C194.199,34.55 194.989,35.038 195.375,35.811L202.559,50.18L209.744,35.811C210.13,35.038 210.92,34.55 211.784,34.55C212.648,34.55 213.438,35.038 213.824,35.811L221.009,50.18L228.193,35.811C228.58,35.038 229.37,34.55 230.234,34.55C231.098,34.55 231.887,35.038 232.274,35.811C237.267,45.797 249.694,70.653 249.694,70.653L173.874,70.653Z" style="fill:rgb(134,130,9);"/>
        </g>
        <g transform="matrix(0.4064,0,0,0.4064,275.419,139.916)">
            <path d="M173.874,70.653C173.874,70.653 186.302,45.797 191.295,35.811C191.681,35.038 192.471,34.55 193.335,34.55C194.199,34.55 194.989,35.038 195.375,35.811L202.559,50.18L209.744,35.811C210.13,35.038 210.92,34.55 211.784,34.55C212.648,34.55 213.438,35.038 213.824,35.811L221.009,50.18L228.193,35.811C228.58,35.038 229.37,34.55 230.234,34.55C231.098,34.55 231.887,35.038 232.274,35.811C237.267,45.797 249.694,70.653 249.694,70.653L173.874,70.653Z" style="fill:rgb(163,175,25);"/>
        </g>
        <g transform="matrix(0.4064,0,0,0.4064,340.354,167.083)">
            <path d="M173.874,70.653C173.874,70.653 186.302,45.797 191.295,35.811C191.681,35.038 192.471,34.55 193.335,34.55C194.199,34.55 194.989,35.038 195.375,35.811L202.559,50.18L209.744,35.811C210.13,35.038 210.92,34.55 211.784,34.55C212.648,34.55 213.438,35.038 213.824,35.811L221.009,50.18L228.193,35.811C228.58,35.038 229.37,34.55 230.234,34.55C231.098,34.55 231.887,35.038 232.274,35.811C237.267,45.797 249.694,70.653 249.694,70.653L173.874,70.653Z" style="fill:rgb(163,175,25);"/>
        </g>
        <g transform="matrix(0.436974,0,0,0.436974,276.519,162.431)">
            <path d="M441.188,74.742C440.494,72.43 440.121,69.979 440.121,67.442C440.121,53.442 451.487,42.075 465.488,42.075C473.025,42.075 479.798,45.369 484.447,50.595C487.349,48.887 490.729,47.907 494.337,47.907C505.119,47.907 513.873,56.66 513.873,67.442C513.873,70.023 513.372,72.487 512.461,74.742L441.188,74.742Z" style="fill:rgb(163,175,25);"/>
        </g>
        <g transform="matrix(0.436974,0,0,0.436974,201.985,119.693)">
            <path d="M441.188,74.742C440.494,72.43 440.121,69.979 440.121,67.442C440.121,53.442 451.487,42.075 465.488,42.075C473.025,42.075 479.798,45.369 484.447,50.595C487.349,48.887 490.729,47.907 494.337,47.907C505.119,47.907 513.873,56.66 513.873,67.442C513.873,70.023 513.372,72.487 512.461,74.742L441.188,74.742Z" style="fill:rgb(163,175,25);"/>
        </g>
        <g transform="matrix(0.436974,0,0,0.436974,142.579,167.987)">
            <path d="M441.188,74.742C440.494,72.43 440.121,69.979 440.121,67.442C440.121,53.442 451.487,42.075 465.488,42.075C473.025,42.075 479.798,45.369 484.447,50.595C487.349,48.887 490.729,47.907 494.337,47.907C505.119,47.907 513.873,56.66 513.873,67.442C513.873,70.023 513.372,72.487 512.461,74.742L441.188,74.742Z" style="fill:rgb(163,175,25);"/>
        </g>
        <g transform="matrix(0.436974,0,0,0.436974,116.321,240.926)">
            <path d="M441.188,74.742C440.494,72.43 440.121,69.979 440.121,67.442C440.121,53.442 451.487,42.075 465.488,42.075C473.025,42.075 479.798,45.369 484.447,50.595C487.349,48.887 490.729,47.907 494.337,47.907C505.119,47.907 513.873,56.66 513.873,67.442C513.873,70.023 513.372,72.487 512.461,74.742L441.188,74.742Z" style="fill:rgb(163,175,25);"/>
        </g>
        <g transform="matrix(0.436974,0,0,0.436974,75.8646,286.051)">
            <path d="M441.188,74.742C440.494,72.43 440.121,69.979 440.121,67.442C440.121,53.442 451.487,42.075 465.488,42.075C473.025,42.075 479.798,45.369 484.447,50.595C487.349,48.887 490.729,47.907 494.337,47.907C505.119,47.907 513.873,56.66 513.873,67.442C513.873,70.023 513.372,72.487 512.461,74.742L441.188,74.742Z" style="fill:rgb(163,175,25);"/>
        </g>
        <g transform="matrix(0.436974,0,0,0.436974,153.083,310.947)">
            <path d="M441.188,74.742C440.494,72.43 440.121,69.979 440.121,67.442C440.121,53.442 451.487,42.075 465.488,42.075C473.025,42.075 479.798,45.369 484.447,50.595C487.349,48.887 490.729,47.907 494.337,47.907C505.119,47.907 513.873,56.66 513.873,67.442C513.873,70.023 513.372,72.487 512.461,74.742L441.188,74.742Z" style="fill:rgb(163,175,25);"/>
        </g>
        <g transform="matrix(0.436974,0,0,0.436974,176.485,366.217)">
            <path d="M441.188,74.742C440.494,72.43 440.121,69.979 440.121,67.442C440.121,53.442 451.487,42.075 465.488,42.075C473.025,42.075 479.798,45.369 484.447,50.595C487.349,48.887 490.729,47.907 494.337,47.907C505.119,47.907 513.873,56.66 513.873,67.442C513.873,70.023 513.372,72.487 512.461,74.742L441.188,74.742Z" style="fill:rgb(205,201,17);"/>
        </g>
        <g transform="matrix(0.436974,0,0,0.436974,111.256,410.533)">
            <path d="M441.188,74.742C440.494,72.43 440.121,69.979 440.121,67.442C440.121,53.442 451.487,42.075 465.488,42.075C473.025,42.075 479.798,45.369 484.447,50.595C487.349,48.887 490.729,47.907 494.337,47.907C505.119,47.907 513.873,56.66 513.873,67.442C513.873,70.023 513.372,72.487 512.461,74.742L441.188,74.742Z" style="fill:rgb(205,201,17);"/>
        </g>
        <g transform="matrix(0.436974,0,0,0.436974,34.208,421.411)">
            <path d="M441.188,74.742C440.494,72.43 440.121,69.979 440.121,67.442C440.121,53.442 451.487,42.075 465.488,42.075C473.025,42.075 479.798,45.369 484.447,50.595C487.349,48.887 490.729,47.907 494.337,47.907C505.119,47.907 513.873,56.66 513.873,67.442C513.873,70.023 513.372,72.487 512.461,74.742L441.188,74.742Z" style="fill:rgb(111,118,28);"/>
        </g>
        <g transform="matrix(0.436974,0,0,0.436974,277.954,309.78)">
            <path d="M441.188,74.742C440.494,72.43 440.121,69.979 440.121,67.442C440.121,53.442 451.487,42.075 465.488,42.075C473.025,42.075 479.798,45.369 484.447,50.595C487.349,48.887 490.729,47.907 494.337,47.907C505.119,47.907 513.873,56.66 513.873,67.442C513.873,70.023 513.372,72.487 512.461,74.742L441.188,74.742Z" style="fill:rgb(163,175,25);"/>
        </g>
        <g transform="matrix(0.436974,0,0,0.436974,78.4354,153.712)">
            <path d="M441.188,74.742C440.494,72.43 440.121,69.979 440.121,67.442C440.121,53.442 451.487,42.075 465.488,42.075C473.025,42.075 479.798,45.369 484.447,50.595C487.349,48.887 490.729,47.907 494.337,47.907C505.119,47.907 513.873,56.66 513.873,67.442C513.873,70.023 513.372,72.487 512.461,74.742L441.188,74.742Z" style="fill:rgb(163,175,25);"/>
        </g>
    </g>
</svg>
