<svg id="ezxmqwa23hdd1" xmlns="http://www.w3.org/2000/svg" xmlns:xlink="http://www.w3.org/1999/xlink" viewBox="0 -20 550 230" shape-rendering="geometricPrecision" text-rendering="geometricPrecision"><style><![CDATA[#ezxmqwa23hdd2_ts {animation: ezxmqwa23hdd2_ts__ts 2000ms linear infinite alternate-reverse forwards}@keyframes ezxmqwa23hdd2_ts__ts { 0% {transform: translate(275.321507px,101.966883px) scale(0,0)} 50% {transform: translate(275.321507px,101.966883px) scale(0,0);animation-timing-function: cubic-bezier(0.420000,0,1,1)} 60% {transform: translate(275.321507px,101.966883px) scale(0.110900,3.733476)} 100% {transform: translate(275.321507px,101.966883px) scale(0.110900,3.733476)} }#ezxmqwa23hdd5_to {animation: ezxmqwa23hdd5_to__to 2000ms linear infinite alternate-reverse forwards}@keyframes ezxmqwa23hdd5_to__to { 0% {transform: translate(0px,0px);animation-timing-function: cubic-bezier(0.420000,0,1,1)} 50% {transform: translate(81.999988px,0.965665px)} 100% {transform: translate(81.999988px,0.965665px)} }#ezxmqwa23hdd7 {animation: ezxmqwa23hdd7_c_o 2000ms linear infinite alternate-reverse forwards}@keyframes ezxmqwa23hdd7_c_o { 0% {opacity: 0} 50% {opacity: 0;animation-timing-function: cubic-bezier(0.420000,0,1,1)} 60% {opacity: 1} 100% {opacity: 1} }#ezxmqwa23hdd14_to {animation: ezxmqwa23hdd14_to__to 2000ms linear infinite alternate-reverse forwards}@keyframes ezxmqwa23hdd14_to__to { 0% {transform: translate(163.999969px,-1.020681px);animation-timing-function: cubic-bezier(0.420000,0,1,1)} 50% {transform: translate(82.041507px,-0.991865px)} 100% {transform: translate(82.041507px,-0.991865px)} }#ezxmqwa23hdd16 {animation: ezxmqwa23hdd16_c_o 2000ms linear infinite alternate-reverse forwards}@keyframes ezxmqwa23hdd16_c_o { 0% {opacity: 0} 50% {opacity: 0;animation-timing-function: cubic-bezier(0.420000,0,1,1)} 60% {opacity: 1} 100% {opacity: 1} }]]></style><g id="ezxmqwa23hdd2_ts" transform="translate(275.321507,101.966883) scale(0.110900,3.733476)"><circle id="ezxmqwa23hdd2" r="27.500000" transform="translate(-0,0)" fill="rgb(255,255,255)" stroke="none" stroke-width="1"/></g><g id="ezxmqwa23hdd3"><g id="ezxmqwa23hdd4"><g id="ezxmqwa23hdd5_to" transform="translate(81.999988,0.965665)"><g id="ezxmqwa23hdd5" transform="translate(0,0)"><path id="ezxmqwa23hdd6" d="M193,96.500000C193.019161,141.769790,161.570147,180.968983,117.372827,190.764454C73.175508,200.559926,28.109450,178.318801,9,137.280000C5.987954,130.827935,3.707105,124.059181,2.200000,117.100000C-5.681691,80.990661,7.751025,43.551326,36.790949,20.688952C65.830874,-2.173422,105.377195,-6.443098,138.627754,9.693993C171.878313,25.831084,192.992706,59.540491,193,96.500000Z" fill="rgb(211,211,211)" stroke="none" stroke-width="1"/><g id="ezxmqwa23hdd7"><polygon id="ezxmqwa23hdd8" points="160,73 129,56 99,62 90,41 104,53 126,50 160,73" fill="rgb(168,168,168)" stroke="none" stroke-width="1"/><polygon id="ezxmqwa23hdd9" points="193,91 175,80 167,97 136,89 109,101 139,95 155,107 176,99 177,89 193,91" fill="rgb(168,168,168)" stroke="none" stroke-width="1"/><polygon id="ezxmqwa23hdd10" points="173,123 147,136 116,148 104,173 123,152 147,140 173,123" fill="rgb(168,168,168)" stroke="none" stroke-width="1"/></g><path id="ezxmqwa23hdd11" d="M74,101C74,112.920000,67.490000,123.580000,57.240000,130.740000C48.174840,136.883845,37.450382,140.114440,26.500000,140C20.560393,140.013090,14.655425,139.095289,9,137.280000C5.987954,130.827935,3.707105,124.059181,2.200000,117.100000C-1.461659,100.227816,-0.553748,82.684072,4.830000,66.280000C11.695973,63.423612,19.063634,61.968440,26.500000,62C52.730000,62,74,79.460000,74,101Z" fill="rgb(196,196,196)" stroke="none" stroke-width="1"/><path id="ezxmqwa23hdd12" d="M61,147C61.000523,159.386055,54.803379,170.950804,44.490000,177.810000C29.070427,167.921997,16.765822,153.869992,9,137.280000C5.987954,130.827935,3.707105,124.059181,2.200000,117.100000C11.038331,110.667689,22.268595,108.472760,32.878372,111.103985C43.488149,113.735210,52.391434,120.923259,57.200000,130.740000C59.696866,135.796861,60.997055,141.360303,61,147Z" fill="rgb(196,196,196)" stroke="none" stroke-width="1"/><path id="ezxmqwa23hdd13" d="M179.450000,47.160000C176.621552,48.371495,173.576984,48.997417,170.500000,49C155.310000,49,143,33.780000,143,15C143,14,143,13,143.110000,12C158.121645,20.297212,170.661952,32.430322,179.450000,47.160000Z" fill="rgb(196,196,196)" stroke="none" stroke-width="1"/></g></g><g id="ezxmqwa23hdd14_to" transform="translate(82.041507,-0.991865)"><g id="ezxmqwa23hdd14" transform="translate(0,0)"><path id="ezxmqwa23hdd15" d="M386,98.500000C386.021193,141.859219,357.126331,179.911224,315.354072,191.534506C273.581814,203.157788,229.185324,185.499367,206.807743,148.360894C184.430162,111.222421,189.564156,63.719682,219.360000,32.220000Q222.360000,29.030000,225.670000,26.130000C254.110638,1.011963,294.634383,-5.100970,329.218893,10.509839C363.803402,26.120648,386.024626,60.555500,386,98.500000Z" fill="rgb(249,220,162)" stroke="none" stroke-width="1"/><g id="ezxmqwa23hdd16"><path id="ezxmqwa23hdd17" d="M225.670000,26.130000L223,40L203,55.750000L218.100000,34.880000L219.360000,32.220000Q222.380000,29,225.670000,26.130000Z" fill="rgb(191,170,124)" stroke="none" stroke-width="1"/><polygon id="ezxmqwa23hdd18" points="210,73 241,42 266,65 241,57 210,73" fill="rgb(191,170,124)" stroke="none" stroke-width="1"/><polygon id="ezxmqwa23hdd19" points="193.280000,91.130000 221,83 252,106 283,98 250,110 215,93 193.280000,91.130000" fill="rgb(191,170,124)" stroke="none" stroke-width="1"/><polygon id="ezxmqwa23hdd20" points="211,107 215,131 238,135 245,153 266,155 249,148 244,133 221,127 211,107" fill="rgb(191,170,124)" stroke="none" stroke-width="1"/></g><path id="ezxmqwa23hdd21" d="M385.190000,86C374.060747,91.358281,361.851617,94.094987,349.500000,94C312.770000,94,283,70.940000,283,42.500000C283,26.880000,292,12.890000,306.150000,3.440000C347.708581,10.728476,379.718051,44.163469,385.190000,86Z" fill="rgb(235,207,153)" stroke="none" stroke-width="1"/><path id="ezxmqwa23hdd22" d="M346.600000,176.300000C313.638858,200.484684,269.018086,201.285847,235.210000,178.300000C246.780000,170.300000,268.110000,165.010000,292.500000,165.010000C314.800000,165,334.540000,169.460000,346.600000,176.300000Z" fill="rgb(235,207,153)" stroke="none" stroke-width="1"/></g></g></g></g><g id="ezxmqwa23hdd23" transform="matrix(1 0 0 1 251.22865217999976 -9.71449552999999)"><g id="ezxmqwa23hdd24"/></g></svg>