<?xml version="1.0" encoding="UTF-8" standalone="no"?>
<!DOCTYPE svg PUBLIC "-//W3C//DTD SVG 1.1//EN" "http://www.w3.org/Graphics/SVG/1.1/DTD/svg11.dtd">
<svg preserveAspectRatio="none" width="100%" height="100%" viewBox="0 0 678 381" version="1.1" xmlns="http://www.w3.org/2000/svg" xmlns:xlink="http://www.w3.org/1999/xlink" xml:space="preserve" xmlns:serif="http://www.serif.com/" style="fill-rule:evenodd;clip-rule:evenodd;stroke-linejoin:round;stroke-miterlimit:2;">
    <g transform="matrix(1,0,0,1,-89.4728,-69.8774)">
        <g transform="matrix(1,0,0,1,11,-17.803)">
            <path d="M155.536,113.088C159.092,105.137 168.387,99 179,99C189.613,99 198.908,105.137 202.464,113.088C209.755,108.322 220.892,108.184 229.82,113.922C238.748,119.66 243.25,129.848 241.943,138.459C250.653,138.392 260.097,144.297 264.505,153.951C268.914,163.605 267.193,174.609 261.438,181.147C268.802,185.799 273.554,195.873 272.043,206.378C270.533,216.883 263.135,225.209 254.76,227.598C258.439,235.493 256.99,246.536 250.04,254.557C243.09,262.578 232.366,265.583 224.028,263.065C222.855,271.695 215.666,280.202 205.483,283.192C195.3,286.182 184.653,282.912 179,276.286C173.347,282.912 162.7,286.182 152.517,283.192C142.334,280.202 135.145,271.695 133.972,263.065C125.634,265.583 114.91,262.578 107.96,254.557C101.01,246.536 99.561,235.493 103.24,227.598C94.865,225.209 87.467,216.883 85.957,206.378C84.446,195.873 89.198,185.799 96.562,181.147C90.807,174.609 89.086,163.605 93.495,153.951C97.903,144.297 107.347,138.392 116.057,138.459C114.75,129.848 119.252,119.66 128.18,113.922C137.108,108.184 148.245,108.322 155.536,113.088Z" style="fill:rgb(206,206,206);fill-opacity:0.5;"/>
        </g>
        <g transform="matrix(0.414894,0,0,0.414894,139.205,297.72)">
            <path d="M155.536,113.088C159.092,105.137 168.387,99 179,99C189.613,99 198.908,105.137 202.464,113.088C209.755,108.322 220.892,108.184 229.82,113.922C238.748,119.66 243.25,129.848 241.943,138.459C250.653,138.392 260.097,144.297 264.505,153.951C268.914,163.605 267.193,174.609 261.438,181.147C268.802,185.799 273.554,195.873 272.043,206.378C270.533,216.883 263.135,225.209 254.76,227.598C258.439,235.493 256.99,246.536 250.04,254.557C243.09,262.578 232.366,265.583 224.028,263.065C222.855,271.695 215.666,280.202 205.483,283.192C195.3,286.182 184.653,282.912 179,276.286C173.347,282.912 162.7,286.182 152.517,283.192C142.334,280.202 135.145,271.695 133.972,263.065C125.634,265.583 114.91,262.578 107.96,254.557C101.01,246.536 99.561,235.493 103.24,227.598C94.865,225.209 87.467,216.883 85.957,206.378C84.446,195.873 89.198,185.799 96.562,181.147C90.807,174.609 89.086,163.605 93.495,153.951C97.903,144.297 107.347,138.392 116.057,138.459C114.75,129.848 119.252,119.66 128.18,113.922C137.108,108.184 148.245,108.322 155.536,113.088Z" style="fill:rgb(206,206,206);fill-opacity:0.5;"/>
        </g>
        <g transform="matrix(0.414894,0,0,0.414894,278.896,314.423)">
            <path d="M155.536,113.088C159.092,105.137 168.387,99 179,99C189.613,99 198.908,105.137 202.464,113.088C209.755,108.322 220.892,108.184 229.82,113.922C238.748,119.66 243.25,129.848 241.943,138.459C250.653,138.392 260.097,144.297 264.505,153.951C268.914,163.605 267.193,174.609 261.438,181.147C268.802,185.799 273.554,195.873 272.043,206.378C270.533,216.883 263.135,225.209 254.76,227.598C258.439,235.493 256.99,246.536 250.04,254.557C243.09,262.578 232.366,265.583 224.028,263.065C222.855,271.695 215.666,280.202 205.483,283.192C195.3,286.182 184.653,282.912 179,276.286C173.347,282.912 162.7,286.182 152.517,283.192C142.334,280.202 135.145,271.695 133.972,263.065C125.634,265.583 114.91,262.578 107.96,254.557C101.01,246.536 99.561,235.493 103.24,227.598C94.865,225.209 87.467,216.883 85.957,206.378C84.446,195.873 89.198,185.799 96.562,181.147C90.807,174.609 89.086,163.605 93.495,153.951C97.903,144.297 107.347,138.392 116.057,138.459C114.75,129.848 119.252,119.66 128.18,113.922C137.108,108.184 148.245,108.322 155.536,113.088Z" style="fill:rgb(206,206,206);fill-opacity:0.5;"/>
        </g>
        <g transform="matrix(0.414894,0,0,0.414894,327.485,289.369)">
            <path d="M155.536,113.088C159.092,105.137 168.387,99 179,99C189.613,99 198.908,105.137 202.464,113.088C209.755,108.322 220.892,108.184 229.82,113.922C238.748,119.66 243.25,129.848 241.943,138.459C250.653,138.392 260.097,144.297 264.505,153.951C268.914,163.605 267.193,174.609 261.438,181.147C268.802,185.799 273.554,195.873 272.043,206.378C270.533,216.883 263.135,225.209 254.76,227.598C258.439,235.493 256.99,246.536 250.04,254.557C243.09,262.578 232.366,265.583 224.028,263.065C222.855,271.695 215.666,280.202 205.483,283.192C195.3,286.182 184.653,282.912 179,276.286C173.347,282.912 162.7,286.182 152.517,283.192C142.334,280.202 135.145,271.695 133.972,263.065C125.634,265.583 114.91,262.578 107.96,254.557C101.01,246.536 99.561,235.493 103.24,227.598C94.865,225.209 87.467,216.883 85.957,206.378C84.446,195.873 89.198,185.799 96.562,181.147C90.807,174.609 89.086,163.605 93.495,153.951C97.903,144.297 107.347,138.392 116.057,138.459C114.75,129.848 119.252,119.66 128.18,113.922C137.108,108.184 148.245,108.322 155.536,113.088Z" style="fill:rgb(206,206,206);fill-opacity:0.5;"/>
        </g>
        <g transform="matrix(0.414894,0,0,0.414894,296.358,254.446)">
            <path d="M155.536,113.088C159.092,105.137 168.387,99 179,99C189.613,99 198.908,105.137 202.464,113.088C209.755,108.322 220.892,108.184 229.82,113.922C238.748,119.66 243.25,129.848 241.943,138.459C250.653,138.392 260.097,144.297 264.505,153.951C268.914,163.605 267.193,174.609 261.438,181.147C268.802,185.799 273.554,195.873 272.043,206.378C270.533,216.883 263.135,225.209 254.76,227.598C258.439,235.493 256.99,246.536 250.04,254.557C243.09,262.578 232.366,265.583 224.028,263.065C222.855,271.695 215.666,280.202 205.483,283.192C195.3,286.182 184.653,282.912 179,276.286C173.347,282.912 162.7,286.182 152.517,283.192C142.334,280.202 135.145,271.695 133.972,263.065C125.634,265.583 114.91,262.578 107.96,254.557C101.01,246.536 99.561,235.493 103.24,227.598C94.865,225.209 87.467,216.883 85.957,206.378C84.446,195.873 89.198,185.799 96.562,181.147C90.807,174.609 89.086,163.605 93.495,153.951C97.903,144.297 107.347,138.392 116.057,138.459C114.75,129.848 119.252,119.66 128.18,113.922C137.108,108.184 148.245,108.322 155.536,113.088Z" style="fill:rgb(206,206,206);fill-opacity:0.5;"/>
        </g>
        <g transform="matrix(0.414894,0,0,0.414894,215.124,81.3503)">
            <path d="M155.536,113.088C159.092,105.137 168.387,99 179,99C189.613,99 198.908,105.137 202.464,113.088C209.755,108.322 220.892,108.184 229.82,113.922C238.748,119.66 243.25,129.848 241.943,138.459C250.653,138.392 260.097,144.297 264.505,153.951C268.914,163.605 267.193,174.609 261.438,181.147C268.802,185.799 273.554,195.873 272.043,206.378C270.533,216.883 263.135,225.209 254.76,227.598C258.439,235.493 256.99,246.536 250.04,254.557C243.09,262.578 232.366,265.583 224.028,263.065C222.855,271.695 215.666,280.202 205.483,283.192C195.3,286.182 184.653,282.912 179,276.286C173.347,282.912 162.7,286.182 152.517,283.192C142.334,280.202 135.145,271.695 133.972,263.065C125.634,265.583 114.91,262.578 107.96,254.557C101.01,246.536 99.561,235.493 103.24,227.598C94.865,225.209 87.467,216.883 85.957,206.378C84.446,195.873 89.198,185.799 96.562,181.147C90.807,174.609 89.086,163.605 93.495,153.951C97.903,144.297 107.347,138.392 116.057,138.459C114.75,129.848 119.252,119.66 128.18,113.922C137.108,108.184 148.245,108.322 155.536,113.088Z" style="fill:rgb(206,206,206);fill-opacity:0.5;"/>
        </g>
        <g transform="matrix(0.414894,0,0,0.414894,346.465,82.8687)">
            <path d="M155.536,113.088C159.092,105.137 168.387,99 179,99C189.613,99 198.908,105.137 202.464,113.088C209.755,108.322 220.892,108.184 229.82,113.922C238.748,119.66 243.25,129.848 241.943,138.459C250.653,138.392 260.097,144.297 264.505,153.951C268.914,163.605 267.193,174.609 261.438,181.147C268.802,185.799 273.554,195.873 272.043,206.378C270.533,216.883 263.135,225.209 254.76,227.598C258.439,235.493 256.99,246.536 250.04,254.557C243.09,262.578 232.366,265.583 224.028,263.065C222.855,271.695 215.666,280.202 205.483,283.192C195.3,286.182 184.653,282.912 179,276.286C173.347,282.912 162.7,286.182 152.517,283.192C142.334,280.202 135.145,271.695 133.972,263.065C125.634,265.583 114.91,262.578 107.96,254.557C101.01,246.536 99.561,235.493 103.24,227.598C94.865,225.209 87.467,216.883 85.957,206.378C84.446,195.873 89.198,185.799 96.562,181.147C90.807,174.609 89.086,163.605 93.495,153.951C97.903,144.297 107.347,138.392 116.057,138.459C114.75,129.848 119.252,119.66 128.18,113.922C137.108,108.184 148.245,108.322 155.536,113.088Z" style="fill:rgb(206,206,206);fill-opacity:0.5;"/>
        </g>
        <g transform="matrix(0.414894,0,0,0.414894,88.339,72.9992)">
            <path d="M155.536,113.088C159.092,105.137 168.387,99 179,99C189.613,99 198.908,105.137 202.464,113.088C209.755,108.322 220.892,108.184 229.82,113.922C238.748,119.66 243.25,129.848 241.943,138.459C250.653,138.392 260.097,144.297 264.505,153.951C268.914,163.605 267.193,174.609 261.438,181.147C268.802,185.799 273.554,195.873 272.043,206.378C270.533,216.883 263.135,225.209 254.76,227.598C258.439,235.493 256.99,246.536 250.04,254.557C243.09,262.578 232.366,265.583 224.028,263.065C222.855,271.695 215.666,280.202 205.483,283.192C195.3,286.182 184.653,282.912 179,276.286C173.347,282.912 162.7,286.182 152.517,283.192C142.334,280.202 135.145,271.695 133.972,263.065C125.634,265.583 114.91,262.578 107.96,254.557C101.01,246.536 99.561,235.493 103.24,227.598C94.865,225.209 87.467,216.883 85.957,206.378C84.446,195.873 89.198,185.799 96.562,181.147C90.807,174.609 89.086,163.605 93.495,153.951C97.903,144.297 107.347,138.392 116.057,138.459C114.75,129.848 119.252,119.66 128.18,113.922C137.108,108.184 148.245,108.322 155.536,113.088Z" style="fill:rgb(206,206,206);fill-opacity:0.5;"/>
        </g>
        <g transform="matrix(0.414894,0,0,0.414894,147.556,101.089)">
            <path d="M155.536,113.088C159.092,105.137 168.387,99 179,99C189.613,99 198.908,105.137 202.464,113.088C209.755,108.322 220.892,108.184 229.82,113.922C238.748,119.66 243.25,129.848 241.943,138.459C250.653,138.392 260.097,144.297 264.505,153.951C268.914,163.605 267.193,174.609 261.438,181.147C268.802,185.799 273.554,195.873 272.043,206.378C270.533,216.883 263.135,225.209 254.76,227.598C258.439,235.493 256.99,246.536 250.04,254.557C243.09,262.578 232.366,265.583 224.028,263.065C222.855,271.695 215.666,280.202 205.483,283.192C195.3,286.182 184.653,282.912 179,276.286C173.347,282.912 162.7,286.182 152.517,283.192C142.334,280.202 135.145,271.695 133.972,263.065C125.634,265.583 114.91,262.578 107.96,254.557C101.01,246.536 99.561,235.493 103.24,227.598C94.865,225.209 87.467,216.883 85.957,206.378C84.446,195.873 89.198,185.799 96.562,181.147C90.807,174.609 89.086,163.605 93.495,153.951C97.903,144.297 107.347,138.392 116.057,138.459C114.75,129.848 119.252,119.66 128.18,113.922C137.108,108.184 148.245,108.322 155.536,113.088Z" style="fill:rgb(206,206,206);fill-opacity:0.5;"/>
        </g>
        <g transform="matrix(0.414894,0,0,0.414894,620.198,292)">
            <path d="M155.536,113.088C159.092,105.137 168.387,99 179,99C189.613,99 198.908,105.137 202.464,113.088C209.755,108.322 220.892,108.184 229.82,113.922C238.748,119.66 243.25,129.848 241.943,138.459C250.653,138.392 260.097,144.297 264.505,153.951C268.914,163.605 267.193,174.609 261.438,181.147C268.802,185.799 273.554,195.873 272.043,206.378C270.533,216.883 263.135,225.209 254.76,227.598C258.439,235.493 256.99,246.536 250.04,254.557C243.09,262.578 232.366,265.583 224.028,263.065C222.855,271.695 215.666,280.202 205.483,283.192C195.3,286.182 184.653,282.912 179,276.286C173.347,282.912 162.7,286.182 152.517,283.192C142.334,280.202 135.145,271.695 133.972,263.065C125.634,265.583 114.91,262.578 107.96,254.557C101.01,246.536 99.561,235.493 103.24,227.598C94.865,225.209 87.467,216.883 85.957,206.378C84.446,195.873 89.198,185.799 96.562,181.147C90.807,174.609 89.086,163.605 93.495,153.951C97.903,144.297 107.347,138.392 116.057,138.459C114.75,129.848 119.252,119.66 128.18,113.922C137.108,108.184 148.245,108.322 155.536,113.088Z" style="fill:rgb(206,206,206);fill-opacity:0.5;"/>
        </g>
        <g transform="matrix(0.414894,0,0,0.414894,579.421,304.974)">
            <path d="M155.536,113.088C159.092,105.137 168.387,99 179,99C189.613,99 198.908,105.137 202.464,113.088C209.755,108.322 220.892,108.184 229.82,113.922C238.748,119.66 243.25,129.848 241.943,138.459C250.653,138.392 260.097,144.297 264.505,153.951C268.914,163.605 267.193,174.609 261.438,181.147C268.802,185.799 273.554,195.873 272.043,206.378C270.533,216.883 263.135,225.209 254.76,227.598C258.439,235.493 256.99,246.536 250.04,254.557C243.09,262.578 232.366,265.583 224.028,263.065C222.855,271.695 215.666,280.202 205.483,283.192C195.3,286.182 184.653,282.912 179,276.286C173.347,282.912 162.7,286.182 152.517,283.192C142.334,280.202 135.145,271.695 133.972,263.065C125.634,265.583 114.91,262.578 107.96,254.557C101.01,246.536 99.561,235.493 103.24,227.598C94.865,225.209 87.467,216.883 85.957,206.378C84.446,195.873 89.198,185.799 96.562,181.147C90.807,174.609 89.086,163.605 93.495,153.951C97.903,144.297 107.347,138.392 116.057,138.459C114.75,129.848 119.252,119.66 128.18,113.922C137.108,108.184 148.245,108.322 155.536,113.088Z" style="fill:rgb(206,206,206);fill-opacity:0.5;"/>
        </g>
        <g transform="matrix(0.414894,0,0,0.414894,581.275,254.93)">
            <path d="M155.536,113.088C159.092,105.137 168.387,99 179,99C189.613,99 198.908,105.137 202.464,113.088C209.755,108.322 220.892,108.184 229.82,113.922C238.748,119.66 243.25,129.848 241.943,138.459C250.653,138.392 260.097,144.297 264.505,153.951C268.914,163.605 267.193,174.609 261.438,181.147C268.802,185.799 273.554,195.873 272.043,206.378C270.533,216.883 263.135,225.209 254.76,227.598C258.439,235.493 256.99,246.536 250.04,254.557C243.09,262.578 232.366,265.583 224.028,263.065C222.855,271.695 215.666,280.202 205.483,283.192C195.3,286.182 184.653,282.912 179,276.286C173.347,282.912 162.7,286.182 152.517,283.192C142.334,280.202 135.145,271.695 133.972,263.065C125.634,265.583 114.91,262.578 107.96,254.557C101.01,246.536 99.561,235.493 103.24,227.598C94.865,225.209 87.467,216.883 85.957,206.378C84.446,195.873 89.198,185.799 96.562,181.147C90.807,174.609 89.086,163.605 93.495,153.951C97.903,144.297 107.347,138.392 116.057,138.459C114.75,129.848 119.252,119.66 128.18,113.922C137.108,108.184 148.245,108.322 155.536,113.088Z" style="fill:rgb(206,206,206);fill-opacity:0.5;"/>
        </g>
        <g transform="matrix(0.414894,0,0,0.414894,414.46,301.267)">
            <path d="M155.536,113.088C159.092,105.137 168.387,99 179,99C189.613,99 198.908,105.137 202.464,113.088C209.755,108.322 220.892,108.184 229.82,113.922C238.748,119.66 243.25,129.848 241.943,138.459C250.653,138.392 260.097,144.297 264.505,153.951C268.914,163.605 267.193,174.609 261.438,181.147C268.802,185.799 273.554,195.873 272.043,206.378C270.533,216.883 263.135,225.209 254.76,227.598C258.439,235.493 256.99,246.536 250.04,254.557C243.09,262.578 232.366,265.583 224.028,263.065C222.855,271.695 215.666,280.202 205.483,283.192C195.3,286.182 184.653,282.912 179,276.286C173.347,282.912 162.7,286.182 152.517,283.192C142.334,280.202 135.145,271.695 133.972,263.065C125.634,265.583 114.91,262.578 107.96,254.557C101.01,246.536 99.561,235.493 103.24,227.598C94.865,225.209 87.467,216.883 85.957,206.378C84.446,195.873 89.198,185.799 96.562,181.147C90.807,174.609 89.086,163.605 93.495,153.951C97.903,144.297 107.347,138.392 116.057,138.459C114.75,129.848 119.252,119.66 128.18,113.922C137.108,108.184 148.245,108.322 155.536,113.088Z" style="fill:rgb(206,206,206);fill-opacity:0.5;"/>
        </g>
        <g transform="matrix(0.414894,0,0,0.414894,507.135,332.777)">
            <path d="M155.536,113.088C159.092,105.137 168.387,99 179,99C189.613,99 198.908,105.137 202.464,113.088C209.755,108.322 220.892,108.184 229.82,113.922C238.748,119.66 243.25,129.848 241.943,138.459C250.653,138.392 260.097,144.297 264.505,153.951C268.914,163.605 267.193,174.609 261.438,181.147C268.802,185.799 273.554,195.873 272.043,206.378C270.533,216.883 263.135,225.209 254.76,227.598C258.439,235.493 256.99,246.536 250.04,254.557C243.09,262.578 232.366,265.583 224.028,263.065C222.855,271.695 215.666,280.202 205.483,283.192C195.3,286.182 184.653,282.912 179,276.286C173.347,282.912 162.7,286.182 152.517,283.192C142.334,280.202 135.145,271.695 133.972,263.065C125.634,265.583 114.91,262.578 107.96,254.557C101.01,246.536 99.561,235.493 103.24,227.598C94.865,225.209 87.467,216.883 85.957,206.378C84.446,195.873 89.198,185.799 96.562,181.147C90.807,174.609 89.086,163.605 93.495,153.951C97.903,144.297 107.347,138.392 116.057,138.459C114.75,129.848 119.252,119.66 128.18,113.922C137.108,108.184 148.245,108.322 155.536,113.088Z" style="fill:rgb(206,206,206);fill-opacity:0.5;"/>
        </g>
        <g transform="matrix(0.414894,0,0,0.414894,546.058,267.904)">
            <path d="M155.536,113.088C159.092,105.137 168.387,99 179,99C189.613,99 198.908,105.137 202.464,113.088C209.755,108.322 220.892,108.184 229.82,113.922C238.748,119.66 243.25,129.848 241.943,138.459C250.653,138.392 260.097,144.297 264.505,153.951C268.914,163.605 267.193,174.609 261.438,181.147C268.802,185.799 273.554,195.873 272.043,206.378C270.533,216.883 263.135,225.209 254.76,227.598C258.439,235.493 256.99,246.536 250.04,254.557C243.09,262.578 232.366,265.583 224.028,263.065C222.855,271.695 215.666,280.202 205.483,283.192C195.3,286.182 184.653,282.912 179,276.286C173.347,282.912 162.7,286.182 152.517,283.192C142.334,280.202 135.145,271.695 133.972,263.065C125.634,265.583 114.91,262.578 107.96,254.557C101.01,246.536 99.561,235.493 103.24,227.598C94.865,225.209 87.467,216.883 85.957,206.378C84.446,195.873 89.198,185.799 96.562,181.147C90.807,174.609 89.086,163.605 93.495,153.951C97.903,144.297 107.347,138.392 116.057,138.459C114.75,129.848 119.252,119.66 128.18,113.922C137.108,108.184 148.245,108.322 155.536,113.088Z" style="fill:rgb(206,206,206);fill-opacity:0.5;"/>
        </g>
        <g transform="matrix(0.414894,0,0,0.414894,653.561,204.885)">
            <path d="M155.536,113.088C159.092,105.137 168.387,99 179,99C189.613,99 198.908,105.137 202.464,113.088C209.755,108.322 220.892,108.184 229.82,113.922C238.748,119.66 243.25,129.848 241.943,138.459C250.653,138.392 260.097,144.297 264.505,153.951C268.914,163.605 267.193,174.609 261.438,181.147C268.802,185.799 273.554,195.873 272.043,206.378C270.533,216.883 263.135,225.209 254.76,227.598C258.439,235.493 256.99,246.536 250.04,254.557C243.09,262.578 232.366,265.583 224.028,263.065C222.855,271.695 215.666,280.202 205.483,283.192C195.3,286.182 184.653,282.912 179,276.286C173.347,282.912 162.7,286.182 152.517,283.192C142.334,280.202 135.145,271.695 133.972,263.065C125.634,265.583 114.91,262.578 107.96,254.557C101.01,246.536 99.561,235.493 103.24,227.598C94.865,225.209 87.467,216.883 85.957,206.378C84.446,195.873 89.198,185.799 96.562,181.147C90.807,174.609 89.086,163.605 93.495,153.951C97.903,144.297 107.347,138.392 116.057,138.459C114.75,129.848 119.252,119.66 128.18,113.922C137.108,108.184 148.245,108.322 155.536,113.088Z" style="fill:rgb(206,206,206);fill-opacity:0.5;"/>
        </g>
        <g transform="matrix(0.414894,0,0,0.414894,623.905,28.8029)">
            <path d="M155.536,113.088C159.092,105.137 168.387,99 179,99C189.613,99 198.908,105.137 202.464,113.088C209.755,108.322 220.892,108.184 229.82,113.922C238.748,119.66 243.25,129.848 241.943,138.459C250.653,138.392 260.097,144.297 264.505,153.951C268.914,163.605 267.193,174.609 261.438,181.147C268.802,185.799 273.554,195.873 272.043,206.378C270.533,216.883 263.135,225.209 254.76,227.598C258.439,235.493 256.99,246.536 250.04,254.557C243.09,262.578 232.366,265.583 224.028,263.065C222.855,271.695 215.666,280.202 205.483,283.192C195.3,286.182 184.653,282.912 179,276.286C173.347,282.912 162.7,286.182 152.517,283.192C142.334,280.202 135.145,271.695 133.972,263.065C125.634,265.583 114.91,262.578 107.96,254.557C101.01,246.536 99.561,235.493 103.24,227.598C94.865,225.209 87.467,216.883 85.957,206.378C84.446,195.873 89.198,185.799 96.562,181.147C90.807,174.609 89.086,163.605 93.495,153.951C97.903,144.297 107.347,138.392 116.057,138.459C114.75,129.848 119.252,119.66 128.18,113.922C137.108,108.184 148.245,108.322 155.536,113.088Z" style="fill:rgb(206,206,206);fill-opacity:0.5;"/>
        </g>
        <g transform="matrix(0.414894,0,0,0.414894,505.281,45.4844)">
            <path d="M155.536,113.088C159.092,105.137 168.387,99 179,99C189.613,99 198.908,105.137 202.464,113.088C209.755,108.322 220.892,108.184 229.82,113.922C238.748,119.66 243.25,129.848 241.943,138.459C250.653,138.392 260.097,144.297 264.505,153.951C268.914,163.605 267.193,174.609 261.438,181.147C268.802,185.799 273.554,195.873 272.043,206.378C270.533,216.883 263.135,225.209 254.76,227.598C258.439,235.493 256.99,246.536 250.04,254.557C243.09,262.578 232.366,265.583 224.028,263.065C222.855,271.695 215.666,280.202 205.483,283.192C195.3,286.182 184.653,282.912 179,276.286C173.347,282.912 162.7,286.182 152.517,283.192C142.334,280.202 135.145,271.695 133.972,263.065C125.634,265.583 114.91,262.578 107.96,254.557C101.01,246.536 99.561,235.493 103.24,227.598C94.865,225.209 87.467,216.883 85.957,206.378C84.446,195.873 89.198,185.799 96.562,181.147C90.807,174.609 89.086,163.605 93.495,153.951C97.903,144.297 107.347,138.392 116.057,138.459C114.75,129.848 119.252,119.66 128.18,113.922C137.108,108.184 148.245,108.322 155.536,113.088Z" style="fill:rgb(206,206,206);fill-opacity:0.5;"/>
        </g>
        <g transform="matrix(0.414894,0,0,0.414894,429.288,45.4844)">
            <path d="M155.536,113.088C159.092,105.137 168.387,99 179,99C189.613,99 198.908,105.137 202.464,113.088C209.755,108.322 220.892,108.184 229.82,113.922C238.748,119.66 243.25,129.848 241.943,138.459C250.653,138.392 260.097,144.297 264.505,153.951C268.914,163.605 267.193,174.609 261.438,181.147C268.802,185.799 273.554,195.873 272.043,206.378C270.533,216.883 263.135,225.209 254.76,227.598C258.439,235.493 256.99,246.536 250.04,254.557C243.09,262.578 232.366,265.583 224.028,263.065C222.855,271.695 215.666,280.202 205.483,283.192C195.3,286.182 184.653,282.912 179,276.286C173.347,282.912 162.7,286.182 152.517,283.192C142.334,280.202 135.145,271.695 133.972,263.065C125.634,265.583 114.91,262.578 107.96,254.557C101.01,246.536 99.561,235.493 103.24,227.598C94.865,225.209 87.467,216.883 85.957,206.378C84.446,195.873 89.198,185.799 96.562,181.147C90.807,174.609 89.086,163.605 93.495,153.951C97.903,144.297 107.347,138.392 116.057,138.459C114.75,129.848 119.252,119.66 128.18,113.922C137.108,108.184 148.245,108.322 155.536,113.088Z" style="fill:rgb(206,206,206);fill-opacity:0.5;"/>
        </g>
        <g transform="matrix(0.414894,0,0,0.414894,284.715,47.3379)">
            <path d="M155.536,113.088C159.092,105.137 168.387,99 179,99C189.613,99 198.908,105.137 202.464,113.088C209.755,108.322 220.892,108.184 229.82,113.922C238.748,119.66 243.25,129.848 241.943,138.459C250.653,138.392 260.097,144.297 264.505,153.951C268.914,163.605 267.193,174.609 261.438,181.147C268.802,185.799 273.554,195.873 272.043,206.378C270.533,216.883 263.135,225.209 254.76,227.598C258.439,235.493 256.99,246.536 250.04,254.557C243.09,262.578 232.366,265.583 224.028,263.065C222.855,271.695 215.666,280.202 205.483,283.192C195.3,286.182 184.653,282.912 179,276.286C173.347,282.912 162.7,286.182 152.517,283.192C142.334,280.202 135.145,271.695 133.972,263.065C125.634,265.583 114.91,262.578 107.96,254.557C101.01,246.536 99.561,235.493 103.24,227.598C94.865,225.209 87.467,216.883 85.957,206.378C84.446,195.873 89.198,185.799 96.562,181.147C90.807,174.609 89.086,163.605 93.495,153.951C97.903,144.297 107.347,138.392 116.057,138.459C114.75,129.848 119.252,119.66 128.18,113.922C137.108,108.184 148.245,108.322 155.536,113.088Z" style="fill:rgb(206,206,206);fill-opacity:0.5;"/>
        </g>
        <g transform="matrix(0.414894,0,0,0.414894,151.263,54.7519)">
            <path d="M155.536,113.088C159.092,105.137 168.387,99 179,99C189.613,99 198.908,105.137 202.464,113.088C209.755,108.322 220.892,108.184 229.82,113.922C238.748,119.66 243.25,129.848 241.943,138.459C250.653,138.392 260.097,144.297 264.505,153.951C268.914,163.605 267.193,174.609 261.438,181.147C268.802,185.799 273.554,195.873 272.043,206.378C270.533,216.883 263.135,225.209 254.76,227.598C258.439,235.493 256.99,246.536 250.04,254.557C243.09,262.578 232.366,265.583 224.028,263.065C222.855,271.695 215.666,280.202 205.483,283.192C195.3,286.182 184.653,282.912 179,276.286C173.347,282.912 162.7,286.182 152.517,283.192C142.334,280.202 135.145,271.695 133.972,263.065C125.634,265.583 114.91,262.578 107.96,254.557C101.01,246.536 99.561,235.493 103.24,227.598C94.865,225.209 87.467,216.883 85.957,206.378C84.446,195.873 89.198,185.799 96.562,181.147C90.807,174.609 89.086,163.605 93.495,153.951C97.903,144.297 107.347,138.392 116.057,138.459C114.75,129.848 119.252,119.66 128.18,113.922C137.108,108.184 148.245,108.322 155.536,113.088Z" style="fill:rgb(206,206,206);fill-opacity:0.5;"/>
        </g>
        <g transform="matrix(0.414894,0,0,0.414894,362.562,191.911)">
            <path d="M155.536,113.088C159.092,105.137 168.387,99 179,99C189.613,99 198.908,105.137 202.464,113.088C209.755,108.322 220.892,108.184 229.82,113.922C238.748,119.66 243.25,129.848 241.943,138.459C250.653,138.392 260.097,144.297 264.505,153.951C268.914,163.605 267.193,174.609 261.438,181.147C268.802,185.799 273.554,195.873 272.043,206.378C270.533,216.883 263.135,225.209 254.76,227.598C258.439,235.493 256.99,246.536 250.04,254.557C243.09,262.578 232.366,265.583 224.028,263.065C222.855,271.695 215.666,280.202 205.483,283.192C195.3,286.182 184.653,282.912 179,276.286C173.347,282.912 162.7,286.182 152.517,283.192C142.334,280.202 135.145,271.695 133.972,263.065C125.634,265.583 114.91,262.578 107.96,254.557C101.01,246.536 99.561,235.493 103.24,227.598C94.865,225.209 87.467,216.883 85.957,206.378C84.446,195.873 89.198,185.799 96.562,181.147C90.807,174.609 89.086,163.605 93.495,153.951C97.903,144.297 107.347,138.392 116.057,138.459C114.75,129.848 119.252,119.66 128.18,113.922C137.108,108.184 148.245,108.322 155.536,113.088Z" style="fill:rgb(206,206,206);fill-opacity:0.5;"/>
        </g>
        <g transform="matrix(0.414894,0,0,0.414894,210.575,325.363)">
            <path d="M155.536,113.088C159.092,105.137 168.387,99 179,99C189.613,99 198.908,105.137 202.464,113.088C209.755,108.322 220.892,108.184 229.82,113.922C238.748,119.66 243.25,129.848 241.943,138.459C250.653,138.392 260.097,144.297 264.505,153.951C268.914,163.605 267.193,174.609 261.438,181.147C268.802,185.799 273.554,195.873 272.043,206.378C270.533,216.883 263.135,225.209 254.76,227.598C258.439,235.493 256.99,246.536 250.04,254.557C243.09,262.578 232.366,265.583 224.028,263.065C222.855,271.695 215.666,280.202 205.483,283.192C195.3,286.182 184.653,282.912 179,276.286C173.347,282.912 162.7,286.182 152.517,283.192C142.334,280.202 135.145,271.695 133.972,263.065C125.634,265.583 114.91,262.578 107.96,254.557C101.01,246.536 99.561,235.493 103.24,227.598C94.865,225.209 87.467,216.883 85.957,206.378C84.446,195.873 89.198,185.799 96.562,181.147C90.807,174.609 89.086,163.605 93.495,153.951C97.903,144.297 107.347,138.392 116.057,138.459C114.75,129.848 119.252,119.66 128.18,113.922C137.108,108.184 148.245,108.322 155.536,113.088Z" style="fill:rgb(206,206,206);fill-opacity:0.5;"/>
        </g>
        <g transform="matrix(1,0,0,1,3.79597,85.4092)">
            <path d="M155.536,113.088C159.092,105.137 168.387,99 179,99C189.613,99 198.908,105.137 202.464,113.088C209.755,108.322 220.892,108.184 229.82,113.922C238.748,119.66 243.25,129.848 241.943,138.459C250.653,138.392 260.097,144.297 264.505,153.951C268.914,163.605 267.193,174.609 261.438,181.147C268.802,185.799 273.554,195.873 272.043,206.378C270.533,216.883 263.135,225.209 254.76,227.598C258.439,235.493 256.99,246.536 250.04,254.557C243.09,262.578 232.366,265.583 224.028,263.065C222.855,271.695 215.666,280.202 205.483,283.192C195.3,286.182 184.653,282.912 179,276.286C173.347,282.912 162.7,286.182 152.517,283.192C142.334,280.202 135.145,271.695 133.972,263.065C125.634,265.583 114.91,262.578 107.96,254.557C101.01,246.536 99.561,235.493 103.24,227.598C94.865,225.209 87.467,216.883 85.957,206.378C84.446,195.873 89.198,185.799 96.562,181.147C90.807,174.609 89.086,163.605 93.495,153.951C97.903,144.297 107.347,138.392 116.057,138.459C114.75,129.848 119.252,119.66 128.18,113.922C137.108,108.184 148.245,108.322 155.536,113.088Z" style="fill:rgb(206,206,206);fill-opacity:0.5;"/>
        </g>
        <g transform="matrix(1,0,0,1,27.0213,164.81)">
            <path d="M155.536,113.088C159.092,105.137 168.387,99 179,99C189.613,99 198.908,105.137 202.464,113.088C209.755,108.322 220.892,108.184 229.82,113.922C238.748,119.66 243.25,129.848 241.943,138.459C250.653,138.392 260.097,144.297 264.505,153.951C268.914,163.605 267.193,174.609 261.438,181.147C268.802,185.799 273.554,195.873 272.043,206.378C270.533,216.883 263.135,225.209 254.76,227.598C258.439,235.493 256.99,246.536 250.04,254.557C243.09,262.578 232.366,265.583 224.028,263.065C222.855,271.695 215.666,280.202 205.483,283.192C195.3,286.182 184.653,282.912 179,276.286C173.347,282.912 162.7,286.182 152.517,283.192C142.334,280.202 135.145,271.695 133.972,263.065C125.634,265.583 114.91,262.578 107.96,254.557C101.01,246.536 99.561,235.493 103.24,227.598C94.865,225.209 87.467,216.883 85.957,206.378C84.446,195.873 89.198,185.799 96.562,181.147C90.807,174.609 89.086,163.605 93.495,153.951C97.903,144.297 107.347,138.392 116.057,138.459C114.75,129.848 119.252,119.66 128.18,113.922C137.108,108.184 148.245,108.322 155.536,113.088Z" style="fill:rgb(206,206,206);fill-opacity:0.5;"/>
        </g>
        <g transform="matrix(1,0,0,1,139.502,67.3784)">
            <path d="M155.536,113.088C159.092,105.137 168.387,99 179,99C189.613,99 198.908,105.137 202.464,113.088C209.755,108.322 220.892,108.184 229.82,113.922C238.748,119.66 243.25,129.848 241.943,138.459C250.653,138.392 260.097,144.297 264.505,153.951C268.914,163.605 267.193,174.609 261.438,181.147C268.802,185.799 273.554,195.873 272.043,206.378C270.533,216.883 263.135,225.209 254.76,227.598C258.439,235.493 256.99,246.536 250.04,254.557C243.09,262.578 232.366,265.583 224.028,263.065C222.855,271.695 215.666,280.202 205.483,283.192C195.3,286.182 184.653,282.912 179,276.286C173.347,282.912 162.7,286.182 152.517,283.192C142.334,280.202 135.145,271.695 133.972,263.065C125.634,265.583 114.91,262.578 107.96,254.557C101.01,246.536 99.561,235.493 103.24,227.598C94.865,225.209 87.467,216.883 85.957,206.378C84.446,195.873 89.198,185.799 96.562,181.147C90.807,174.609 89.086,163.605 93.495,153.951C97.903,144.297 107.347,138.392 116.057,138.459C114.75,129.848 119.252,119.66 128.18,113.922C137.108,108.184 148.245,108.322 155.536,113.088Z" style="fill:rgb(206,206,206);fill-opacity:0.5;"/>
        </g>
        <g transform="matrix(1,0,0,1,115.777,-8.54092)">
            <path d="M155.536,113.088C159.092,105.137 168.387,99 179,99C189.613,99 198.908,105.137 202.464,113.088C209.755,108.322 220.892,108.184 229.82,113.922C238.748,119.66 243.25,129.848 241.943,138.459C250.653,138.392 260.097,144.297 264.505,153.951C268.914,163.605 267.193,174.609 261.438,181.147C268.802,185.799 273.554,195.873 272.043,206.378C270.533,216.883 263.135,225.209 254.76,227.598C258.439,235.493 256.99,246.536 250.04,254.557C243.09,262.578 232.366,265.583 224.028,263.065C222.855,271.695 215.666,280.202 205.483,283.192C195.3,286.182 184.653,282.912 179,276.286C173.347,282.912 162.7,286.182 152.517,283.192C142.334,280.202 135.145,271.695 133.972,263.065C125.634,265.583 114.91,262.578 107.96,254.557C101.01,246.536 99.561,235.493 103.24,227.598C94.865,225.209 87.467,216.883 85.957,206.378C84.446,195.873 89.198,185.799 96.562,181.147C90.807,174.609 89.086,163.605 93.495,153.951C97.903,144.297 107.347,138.392 116.057,138.459C114.75,129.848 119.252,119.66 128.18,113.922C137.108,108.184 148.245,108.322 155.536,113.088Z" style="fill:rgb(206,206,206);fill-opacity:0.5;"/>
        </g>
        <g transform="matrix(1,0,0,1,182.689,163.464)">
            <path d="M155.536,113.088C159.092,105.137 168.387,99 179,99C189.613,99 198.908,105.137 202.464,113.088C209.755,108.322 220.892,108.184 229.82,113.922C238.748,119.66 243.25,129.848 241.943,138.459C250.653,138.392 260.097,144.297 264.505,153.951C268.914,163.605 267.193,174.609 261.438,181.147C268.802,185.799 273.554,195.873 272.043,206.378C270.533,216.883 263.135,225.209 254.76,227.598C258.439,235.493 256.99,246.536 250.04,254.557C243.09,262.578 232.366,265.583 224.028,263.065C222.855,271.695 215.666,280.202 205.483,283.192C195.3,286.182 184.653,282.912 179,276.286C173.347,282.912 162.7,286.182 152.517,283.192C142.334,280.202 135.145,271.695 133.972,263.065C125.634,265.583 114.91,262.578 107.96,254.557C101.01,246.536 99.561,235.493 103.24,227.598C94.865,225.209 87.467,216.883 85.957,206.378C84.446,195.873 89.198,185.799 96.562,181.147C90.807,174.609 89.086,163.605 93.495,153.951C97.903,144.297 107.347,138.392 116.057,138.459C114.75,129.848 119.252,119.66 128.18,113.922C137.108,108.184 148.245,108.322 155.536,113.088Z" style="fill:rgb(206,206,206);fill-opacity:0.5;"/>
        </g>
        <g transform="matrix(1,0,0,1,268.505,64.1162)">
            <path d="M155.536,113.088C159.092,105.137 168.387,99 179,99C189.613,99 198.908,105.137 202.464,113.088C209.755,108.322 220.892,108.184 229.82,113.922C238.748,119.66 243.25,129.848 241.943,138.459C250.653,138.392 260.097,144.297 264.505,153.951C268.914,163.605 267.193,174.609 261.438,181.147C268.802,185.799 273.554,195.873 272.043,206.378C270.533,216.883 263.135,225.209 254.76,227.598C258.439,235.493 256.99,246.536 250.04,254.557C243.09,262.578 232.366,265.583 224.028,263.065C222.855,271.695 215.666,280.202 205.483,283.192C195.3,286.182 184.653,282.912 179,276.286C173.347,282.912 162.7,286.182 152.517,283.192C142.334,280.202 135.145,271.695 133.972,263.065C125.634,265.583 114.91,262.578 107.96,254.557C101.01,246.536 99.561,235.493 103.24,227.598C94.865,225.209 87.467,216.883 85.957,206.378C84.446,195.873 89.198,185.799 96.562,181.147C90.807,174.609 89.086,163.605 93.495,153.951C97.903,144.297 107.347,138.392 116.057,138.459C114.75,129.848 119.252,119.66 128.18,113.922C137.108,108.184 148.245,108.322 155.536,113.088Z" style="fill:rgb(206,206,206);fill-opacity:0.5;"/>
        </g>
        <g transform="matrix(1,0,0,1,238.849,-17.4377)">
            <path d="M155.536,113.088C159.092,105.137 168.387,99 179,99C189.613,99 198.908,105.137 202.464,113.088C209.755,108.322 220.892,108.184 229.82,113.922C238.748,119.66 243.25,129.848 241.943,138.459C250.653,138.392 260.097,144.297 264.505,153.951C268.914,163.605 267.193,174.609 261.438,181.147C268.802,185.799 273.554,195.873 272.043,206.378C270.533,216.883 263.135,225.209 254.76,227.598C258.439,235.493 256.99,246.536 250.04,254.557C243.09,262.578 232.366,265.583 224.028,263.065C222.855,271.695 215.666,280.202 205.483,283.192C195.3,286.182 184.653,282.912 179,276.286C173.347,282.912 162.7,286.182 152.517,283.192C142.334,280.202 135.145,271.695 133.972,263.065C125.634,265.583 114.91,262.578 107.96,254.557C101.01,246.536 99.561,235.493 103.24,227.598C94.865,225.209 87.467,216.883 85.957,206.378C84.446,195.873 89.198,185.799 96.562,181.147C90.807,174.609 89.086,163.605 93.495,153.951C97.903,144.297 107.347,138.392 116.057,138.459C114.75,129.848 119.252,119.66 128.18,113.922C137.108,108.184 148.245,108.322 155.536,113.088Z" style="fill:rgb(206,206,206);fill-opacity:0.5;"/>
        </g>
        <g transform="matrix(1,0,0,1,366.37,-7.05812)">
            <path d="M155.536,113.088C159.092,105.137 168.387,99 179,99C189.613,99 198.908,105.137 202.464,113.088C209.755,108.322 220.892,108.184 229.82,113.922C238.748,119.66 243.25,129.848 241.943,138.459C250.653,138.392 260.097,144.297 264.505,153.951C268.914,163.605 267.193,174.609 261.438,181.147C268.802,185.799 273.554,195.873 272.043,206.378C270.533,216.883 263.135,225.209 254.76,227.598C258.439,235.493 256.99,246.536 250.04,254.557C243.09,262.578 232.366,265.583 224.028,263.065C222.855,271.695 215.666,280.202 205.483,283.192C195.3,286.182 184.653,282.912 179,276.286C173.347,282.912 162.7,286.182 152.517,283.192C142.334,280.202 135.145,271.695 133.972,263.065C125.634,265.583 114.91,262.578 107.96,254.557C101.01,246.536 99.561,235.493 103.24,227.598C94.865,225.209 87.467,216.883 85.957,206.378C84.446,195.873 89.198,185.799 96.562,181.147C90.807,174.609 89.086,163.605 93.495,153.951C97.903,144.297 107.347,138.392 116.057,138.459C114.75,129.848 119.252,119.66 128.18,113.922C137.108,108.184 148.245,108.322 155.536,113.088Z" style="fill:rgb(206,206,206);fill-opacity:0.5;"/>
        </g>
        <g transform="matrix(1,0,0,1,369.336,84.8754)">
            <path d="M155.536,113.088C159.092,105.137 168.387,99 179,99C189.613,99 198.908,105.137 202.464,113.088C209.755,108.322 220.892,108.184 229.82,113.922C238.748,119.66 243.25,129.848 241.943,138.459C250.653,138.392 260.097,144.297 264.505,153.951C268.914,163.605 267.193,174.609 261.438,181.147C268.802,185.799 273.554,195.873 272.043,206.378C270.533,216.883 263.135,225.209 254.76,227.598C258.439,235.493 256.99,246.536 250.04,254.557C243.09,262.578 232.366,265.583 224.028,263.065C222.855,271.695 215.666,280.202 205.483,283.192C195.3,286.182 184.653,282.912 179,276.286C173.347,282.912 162.7,286.182 152.517,283.192C142.334,280.202 135.145,271.695 133.972,263.065C125.634,265.583 114.91,262.578 107.96,254.557C101.01,246.536 99.561,235.493 103.24,227.598C94.865,225.209 87.467,216.883 85.957,206.378C84.446,195.873 89.198,185.799 96.562,181.147C90.807,174.609 89.086,163.605 93.495,153.951C97.903,144.297 107.347,138.392 116.057,138.459C114.75,129.848 119.252,119.66 128.18,113.922C137.108,108.184 148.245,108.322 155.536,113.088Z" style="fill:rgb(206,206,206);fill-opacity:0.5;"/>
        </g>
        <g transform="matrix(1,0,0,1,334.99,164.81)">
            <path d="M155.536,113.088C159.092,105.137 168.387,99 179,99C189.613,99 198.908,105.137 202.464,113.088C209.755,108.322 220.892,108.184 229.82,113.922C238.748,119.66 243.25,129.848 241.943,138.459C250.653,138.392 260.097,144.297 264.505,153.951C268.914,163.605 267.193,174.609 261.438,181.147C268.802,185.799 273.554,195.873 272.043,206.378C270.533,216.883 263.135,225.209 254.76,227.598C258.439,235.493 256.99,246.536 250.04,254.557C243.09,262.578 232.366,265.583 224.028,263.065C222.855,271.695 215.666,280.202 205.483,283.192C195.3,286.182 184.653,282.912 179,276.286C173.347,282.912 162.7,286.182 152.517,283.192C142.334,280.202 135.145,271.695 133.972,263.065C125.634,265.583 114.91,262.578 107.96,254.557C101.01,246.536 99.561,235.493 103.24,227.598C94.865,225.209 87.467,216.883 85.957,206.378C84.446,195.873 89.198,185.799 96.562,181.147C90.807,174.609 89.086,163.605 93.495,153.951C97.903,144.297 107.347,138.392 116.057,138.459C114.75,129.848 119.252,119.66 128.18,113.922C137.108,108.184 148.245,108.322 155.536,113.088Z" style="fill:rgb(206,206,206);fill-opacity:0.5;"/>
        </g>
        <g transform="matrix(1,0,0,1,474.614,166.157)">
            <path d="M155.536,113.088C159.092,105.137 168.387,99 179,99C189.613,99 198.908,105.137 202.464,113.088C209.755,108.322 220.892,108.184 229.82,113.922C238.748,119.66 243.25,129.848 241.943,138.459C250.653,138.392 260.097,144.297 264.505,153.951C268.914,163.605 267.193,174.609 261.438,181.147C268.802,185.799 273.554,195.873 272.043,206.378C270.533,216.883 263.135,225.209 254.76,227.598C258.439,235.493 256.99,246.536 250.04,254.557C243.09,262.578 232.366,265.583 224.028,263.065C222.855,271.695 215.666,280.202 205.483,283.192C195.3,286.182 184.653,282.912 179,276.286C173.347,282.912 162.7,286.182 152.517,283.192C142.334,280.202 135.145,271.695 133.972,263.065C125.634,265.583 114.91,262.578 107.96,254.557C101.01,246.536 99.561,235.493 103.24,227.598C94.865,225.209 87.467,216.883 85.957,206.378C84.446,195.873 89.198,185.799 96.562,181.147C90.807,174.609 89.086,163.605 93.495,153.951C97.903,144.297 107.347,138.392 116.057,138.459C114.75,129.848 119.252,119.66 128.18,113.922C137.108,108.184 148.245,108.322 155.536,113.088Z" style="fill:rgb(206,206,206);fill-opacity:0.5;"/>
        </g>
        <g transform="matrix(1,0,0,1,474.614,28.5291)">
            <path d="M155.536,113.088C159.092,105.137 168.387,99 179,99C189.613,99 198.908,105.137 202.464,113.088C209.755,108.322 220.892,108.184 229.82,113.922C238.748,119.66 243.25,129.848 241.943,138.459C250.653,138.392 260.097,144.297 264.505,153.951C268.914,163.605 267.193,174.609 261.438,181.147C268.802,185.799 273.554,195.873 272.043,206.378C270.533,216.883 263.135,225.209 254.76,227.598C258.439,235.493 256.99,246.536 250.04,254.557C243.09,262.578 232.366,265.583 224.028,263.065C222.855,271.695 215.666,280.202 205.483,283.192C195.3,286.182 184.653,282.912 179,276.286C173.347,282.912 162.7,286.182 152.517,283.192C142.334,280.202 135.145,271.695 133.972,263.065C125.634,265.583 114.91,262.578 107.96,254.557C101.01,246.536 99.561,235.493 103.24,227.598C94.865,225.209 87.467,216.883 85.957,206.378C84.446,195.873 89.198,185.799 96.562,181.147C90.807,174.609 89.086,163.605 93.495,153.951C97.903,144.297 107.347,138.392 116.057,138.459C114.75,129.848 119.252,119.66 128.18,113.922C137.108,108.184 148.245,108.322 155.536,113.088Z" style="fill:rgb(206,206,206);fill-opacity:0.5;"/>
        </g>
        <g transform="matrix(1,0,0,1,474.614,-19.1496)">
            <path d="M155.536,113.088C159.092,105.137 168.387,99 179,99C189.613,99 198.908,105.137 202.464,113.088C209.755,108.322 220.892,108.184 229.82,113.922C238.748,119.66 243.25,129.848 241.943,138.459C250.653,138.392 260.097,144.297 264.505,153.951C268.914,163.605 267.193,174.609 261.438,181.147C268.802,185.799 273.554,195.873 272.043,206.378C270.533,216.883 263.135,225.209 254.76,227.598C258.439,235.493 256.99,246.536 250.04,254.557C243.09,262.578 232.366,265.583 224.028,263.065C222.855,271.695 215.666,280.202 205.483,283.192C195.3,286.182 184.653,282.912 179,276.286C173.347,282.912 162.7,286.182 152.517,283.192C142.334,280.202 135.145,271.695 133.972,263.065C125.634,265.583 114.91,262.578 107.96,254.557C101.01,246.536 99.561,235.493 103.24,227.598C94.865,225.209 87.467,216.883 85.957,206.378C84.446,195.873 89.198,185.799 96.562,181.147C90.807,174.609 89.086,163.605 93.495,153.951C97.903,144.297 107.347,138.392 116.057,138.459C114.75,129.848 119.252,119.66 128.18,113.922C137.108,108.184 148.245,108.322 155.536,113.088Z" style="fill:rgb(206,206,206);fill-opacity:0.5;"/>
        </g>
    </g>
</svg>
