<?xml version="1.0" encoding="UTF-8" standalone="no"?>
<!DOCTYPE svg PUBLIC "-//W3C//DTD SVG 1.1//EN" "http://www.w3.org/Graphics/SVG/1.1/DTD/svg11.dtd">
<svg width="100%" height="100%" viewBox="0 0 600 45" version="1.1" xmlns="http://www.w3.org/2000/svg" xmlns:xlink="http://www.w3.org/1999/xlink" xml:space="preserve" xmlns:serif="http://www.serif.com/" style="fill-rule:evenodd;clip-rule:evenodd;stroke-linejoin:round;stroke-miterlimit:2;">
    <g transform="matrix(1,0,0,1,0,-83.1086)">
        <g transform="matrix(1,0,0,1,-80,-375.667)">
            <g transform="matrix(1,0,0,1,80,375.667)">
                <rect x="0" y="95" width="600" height="33" style="fill:white;"/>
            </g>
        </g>
        <g transform="matrix(1,0,0,1,-80,-375.667)">
            <g transform="matrix(1,0,0,1,80,375.667)">
                <path d="M35.363,89.441C36.61,86.546 38.78,84.628 41.246,84.628C44.48,84.628 47.204,87.925 48.006,92.397C51.631,92.792 54.493,97.334 54.493,102.87C54.493,108.666 51.357,113.372 47.493,113.372C44.26,113.372 41.535,110.075 40.733,105.603C40.089,105.533 39.468,105.331 38.884,105.016C37.637,107.911 35.466,109.829 33,109.829C29.137,109.829 26,105.124 26,99.328C26,93.532 29.137,88.827 33,88.827C33.829,88.827 34.625,89.044 35.363,89.441Z" style="fill:white;"/>
            </g>
        </g>
        <g transform="matrix(1,0,0,1,-80,-375.667)">
            <g transform="matrix(1,0,0,1,253.259,374.147)">
                <path d="M35.363,89.441C36.61,86.546 38.78,84.628 41.246,84.628C44.48,84.628 47.204,87.925 48.006,92.397C51.631,92.792 54.493,97.334 54.493,102.87C54.493,108.666 51.357,113.372 47.493,113.372C44.26,113.372 41.535,110.075 40.733,105.603C40.089,105.533 39.468,105.331 38.884,105.016C37.637,107.911 35.466,109.829 33,109.829C29.137,109.829 26,105.124 26,99.328C26,93.532 29.137,88.827 33,88.827C33.829,88.827 34.625,89.044 35.363,89.441Z" style="fill:white;"/>
            </g>
        </g>
    </g>
</svg>
