<svg xmlns="http://www.w3.org/2000/svg" viewBox="0 0 380 369.56"><defs><style>.cls-1{fill:#ba9991;}.cls-2{fill:#baa39d;}.cls-3{fill:#877771;}.cls-4{fill:#705c57;}</style></defs><g id="Layer_2" data-name="Layer 2"><g id="Layer_1-2" data-name="Layer 1"><path class="cls-1" d="M289.26,202.61c-38.41,0-70.06-9.54-106.72-20.6l-6-1.81c-25.46-7.65-53.69-11.53-83.92-11.53-28.39,0-59,3.41-91,10.15l-1.29.27.08-1.31a190,190,0,0,1,10.15-50.45l.26-.76.8.1a24.26,24.26,0,0,0,2.92.16A27.54,27.54,0,0,0,42,99.33a27.37,27.37,0,0,0-6.91-18.21l-.53-.59.46-.65A191.91,191.91,0,0,1,97.87,23.63,187.68,187.68,0,0,1,181.36,0l.7,0,.26.65A82.8,82.8,0,0,0,259,51.83a82.77,82.77,0,0,0,45-13.21l.59-.38.56.43a191.48,191.48,0,0,1,54.51,65.47A188,188,0,0,1,380,189.83c0,1.15,0,2.3,0,3.44l0,.8-.8.15a493.59,493.59,0,0,1-89.27,8.39Z"/><path class="cls-1" d="M379,189.83c0,1.14,0,2.28,0,3.41a492.45,492.45,0,0,1-89.09,8.37c-40.66.11-74.57-10.8-113.07-22.37-56-16.82-117.75-13.54-175.43-1.4a188.63,188.63,0,0,1,10.09-50.18,25.46,25.46,0,0,0,3,.17A28.5,28.5,0,0,0,43,99.33a28.31,28.31,0,0,0-7.16-18.87A188.77,188.77,0,0,1,181.4,1,84,84,0,0,0,259,52.83a83.63,83.63,0,0,0,45.5-13.37A188.66,188.66,0,0,1,379,189.83Z"/><path class="cls-2" d="M127.45,369.29A189.83,189.83,0,0,1,.06,194.46c0-1.53-.06-3.08-.06-4.63,0-3.92.13-8,.37-12.05l0-.76.74-.16c32.14-6.76,62.9-10.19,91.43-10.19,30.42,0,58.85,3.91,84.5,11.61l6,1.81c36.52,11,68.05,20.52,106.16,20.52h.61a492.48,492.48,0,0,0,88.91-8.35L380,192l0,1.23a190.15,190.15,0,0,1-4.29,37.08,188.14,188.14,0,0,1-27.22,64.37,191.37,191.37,0,0,1-65.89,61.08l-.7.39-.53-.59a96,96,0,0,0-152.7,13.29l-.43.68Z"/><path class="cls-2" d="M379,193.24a188.95,188.95,0,0,1-96.89,161.68,97,97,0,0,0-154.29,13.43A188.84,188.84,0,0,1,1.06,194.44c0-1.53-.06-3.07-.06-4.61q0-6,.37-12c57.68-12.14,119.45-15.42,175.43,1.4,38.5,11.57,72.41,22.48,113.07,22.37A492.45,492.45,0,0,0,379,193.24Z"/><path class="cls-3" d="M26.5,262.83a39.66,39.66,0,0,1-12.39-2l-.45-.15-.17-.43A188.87,188.87,0,0,1,.06,194.46V194l.35-.31a39.5,39.5,0,1,1,26.1,69.14Z"/><path class="cls-3" d="M65,223.33A38.54,38.54,0,0,1,14.42,259.9,188.12,188.12,0,0,1,1.06,194.44,38.49,38.49,0,0,1,65,223.33Z"/><circle class="cls-4" cx="139" cy="106.83" r="37"/><circle class="cls-4" cx="139" cy="106.83" r="36"/><path class="cls-3" d="M347.43,295.14a36.5,36.5,0,1,1,27.83-65.83l.55.38-.14.65a188.14,188.14,0,0,1-27.22,64.37l-.37.56Z"/><path class="cls-3" d="M374.69,230.13a187.9,187.9,0,0,1-27.07,64,35.5,35.5,0,1,1,27.07-64Z"/><circle class="cls-3" cx="234" cy="237.83" r="37"/><circle class="cls-3" cx="234" cy="237.83" r="36"/></g></g></svg>