<svg xmlns="http://www.w3.org/2000/svg" viewBox="0 0 916.761 358.005"><g id="fa36b878-6f27-4f98-928b-a82ca63778cf" data-name="Layer 2"><g id="bcd4434f-00c9-4132-a2df-fa6fe35664b4" data-name="Layer 1"><path d="M126.261,353.005v-209s-6-69,43-69" fill="none" stroke="#c9e28d" stroke-miterlimit="10" stroke-width="5"/><path d="M11.2,136.388s82.466-29.74,115.189,92.237C126.384,228.625,44.709,260.456,11.2,136.388Z" fill="#c9e28d"/><path d="M126.384,228.625s-89.123-69.62-96.123-80.62" fill="none" stroke="#9cb06e" stroke-miterlimit="10"/><path d="M35.761,172.505s15,2,21-20" fill="none" stroke="#9cb06e" stroke-miterlimit="10"/><path d="M56.761,197.505s32,7,27-25" fill="none" stroke="#9cb06e" stroke-miterlimit="10"/><path d="M89.761,214.505s21,6,17-14" fill="none" stroke="#9cb06e" stroke-miterlimit="10"/><path d="M252.07,109.443s.684,87.661-125.239,78.047C126.831,187.49,123.911,99.88,252.07,109.443Z" fill="#c9e28d"/><path d="M126.831,187.49s95.253-60.966,107.953-63.918" fill="none" stroke="#9cb06e" stroke-miterlimit="10"/><path d="M209.847,120.629s-6.865,13.486,11.9,26.447" fill="none" stroke="#9cb06e" stroke-miterlimit="10"/><path d="M179.294,132.142s-17.223,27.863,14.622,33.766" fill="none" stroke="#9cb06e" stroke-miterlimit="10"/><path d="M0,32.913s74.947-45.475,131.167,67.61C131.167,100.523,57.409,147.892,0,32.913Z" fill="#c9e28d"/><path d="M131.167,100.523s-101.141-50.6-110.18-60" fill="none" stroke="#9cb06e" stroke-miterlimit="10"/><path d="M31.228,63.452s15.1-1.008,16.626-23.761" fill="none" stroke="#9cb06e" stroke-miterlimit="10"/><path d="M56.762,83.8s32.752.527,21.517-29.85" fill="none" stroke="#9cb06e" stroke-miterlimit="10"/><path d="M277.953.729s.684,87.662-125.239,78.048C152.714,78.777,149.794-8.833,277.953.729Z" fill="#c9e28d"/><path d="M152.714,78.777s95.253-60.966,107.953-63.919" fill="none" stroke="#9cb06e" stroke-miterlimit="10"/><path d="M235.73,11.916s-6.865,13.486,11.9,26.447" fill="none" stroke="#9cb06e" stroke-miterlimit="10"/><path d="M205.177,23.428S187.954,51.291,219.8,57.2" fill="none" stroke="#9cb06e" stroke-miterlimit="10"/><path d="M462.261,354.005v-209s-6-69,43-69" fill="none" stroke="#c9e28d" stroke-miterlimit="10" stroke-width="5"/><path d="M316.04,203.374S366.94,132,463.246,213.7C463.246,213.7,414.186,286.34,316.04,203.374Z" fill="#dde38e"/><path d="M463.246,213.7s-112.9-6.551-124.918-11.615" fill="none" stroke="#9cb06e" stroke-miterlimit="10"/><path d="M356.79,219.1s13.474-6.889,5.892-28.4" fill="none" stroke="#9cb06e" stroke-miterlimit="10"/><path d="M388.283,227.713s30.3-12.448,7.982-35.92" fill="none" stroke="#9cb06e" stroke-miterlimit="10"/><path d="M610.006,166.279S558.479,237.2,462.9,154.659C462.9,154.659,512.6,82.45,610.006,166.279Z" fill="#dde38e"/><path d="M462.9,154.659s112.84,7.546,124.81,12.716" fill="none" stroke="#9cb06e" stroke-miterlimit="10"/><path d="M569.4,150.193s-13.534,6.77-6.142,28.342" fill="none" stroke="#9cb06e" stroke-miterlimit="10"/><path d="M537.981,141.3s-30.408,12.181-8.3,35.849" fill="none" stroke="#9cb06e" stroke-miterlimit="10"/><path d="M323.658,76.9S380.84,10.45,469.314,100.569C469.314,100.569,413.849,168.449,323.658,76.9Z" fill="#dde38e"/><path d="M469.314,100.569s-111.838-16.8-123.343-22.931" fill="none" stroke="#9cb06e" stroke-miterlimit="10"/><path d="M362.808,96.266s14.045-5.634,8.451-27.741" fill="none" stroke="#9cb06e" stroke-miterlimit="10"/><path d="M393.387,107.708s31.306-9.64,11.217-35.045" fill="none" stroke="#9cb06e" stroke-miterlimit="10"/><path d="M650.1,74.031s-.688,1.184-2.093,3.116a73.356,73.356,0,0,1-6.4,7.6c-17.233,17.93-61.4,47-139.03-7.266,0,0,38.639-70.627,134.673-11.863Q643.509,69.449,650.1,74.031Z" fill="#dde38e"/><path d="M502.572,77.479s113.021-4,125.456-.083" fill="none" stroke="#9cb06e" stroke-miterlimit="10"/><path d="M608.06,62.172s-12.773,8.115-3.219,28.821" fill="none" stroke="#9cb06e" stroke-miterlimit="10"/><path d="M575.9,56.534s-29.006,15.219-4.6,36.508" fill="none" stroke="#9cb06e" stroke-miterlimit="10"/><path d="M807.487,221.514a2.15,2.15,0,0,1-.5,4.167c-23,2.778-81.54,13.851-85.231,54.8-.195,2.161-2.318,2.53-2.86.488C711.682,253.814,701.577,182.937,807.487,221.514Z" fill="#b29559"/><path d="M812.309,103.769a2.076,2.076,0,0,1-.252,4.129c-26.074,1.138-65.268,8.784-64.684,44.534C748.2,203.33,677.1,81.431,812.309,103.769Z" fill="#b29559"/><path d="M810.614,160.767c18.791,1.458,59.39,9.287,84.485,48.525,2.078,3.249,7.482,2.372,8.229-1.327,4.523-22.379,4.132-70.931-92.908-49.79A1.3,1.3,0,0,0,810.614,160.767Z" fill="#b29559"/><path d="M855.92,83.005s45.405,8.748,59.126,38.3c.42.9,1.9.5,1.695-.462-4.109-19.222-17.557-53.595-60.821-44.838" fill="#b29559"/><path d="M809.261,358.005v-209s-6-69,43-69" fill="none" stroke="#c9e28d" stroke-miterlimit="10" stroke-width="5"/></g></g></svg>