<svg xmlns="http://www.w3.org/2000/svg" viewBox="0 0 391.25 526.5"><defs><style>.cls-1,.cls-4{fill:#664e38;}.cls-2{fill:#ab825f;}.cls-3{fill:#f4d3a4;}.cls-4{opacity:0.38;}.cls-5{fill:#ff593e;}.cls-6{fill:#fff;}.cls-7{fill:#5fffcd;}.cls-8{fill:#5ac0ff;}.cls-9{fill:none;stroke:#ff593e;stroke-miterlimit:10;stroke-width:5px;}.cls-10{fill:#fff364;}</style></defs><g id="Layer_2" data-name="Layer 2"><g id="Layer_1-2" data-name="Layer 1"><path class="cls-1" d="M195.5,526.25a194.06,194.06,0,0,1-78.93-16.59c-1.51-.67-2.88-1.29-4.18-1.91A197.09,197.09,0,0,1,11.81,397.81,194.8,194.8,0,0,1,0,330.75l1.91-.49c.8,1.74,1.54,3.31,2.27,4.79l.71,1.43c.38.76.76,1.5,1.15,2.25s.66,1.26,1,1.89c1,1.94,2,3.68,3,5.32.29.5.57,1,.86,1.47l.08.13.74,1.25c.63,1,1.28,2.07,1.92,3.1.47.76.91,1.44,1.36,2.12.11.18.21.34.32.49.56.87,1.09,1.67,1.63,2.46s1.16,1.7,1.75,2.55,1.18,1.67,1.79,2.5c1.3,1.8,2.51,3.41,3.69,4.92.63.83,1.26,1.62,1.91,2.42s1.29,1.61,1.95,2.4l.28.33c.45.55.93,1.11,1.4,1.67l.12.14c.54.64,1.08,1.27,1.64,1.9,1.13,1.3,2.38,2.69,3.81,4.23.13.15.25.27.36.38,2,2.16,4,4.21,6,6.13l.08.07c.53.52,1.06,1,1.6,1.55s.93.9,1.39,1.33l1.3,1.21,1.35,1.25c1.47,1.34,2.92,2.61,4.32,3.8.76.65,1.45,1.25,2.15,1.83s1.46,1.2,2.19,1.79c.58.47,1.09.89,1.62,1.3,3.65,2.91,7.47,5.74,11.38,8.43l1.64,1.11c.86.59,1.72,1.16,2.59,1.72l2.07,1.34A210.21,210.21,0,0,0,93.62,423.7l2.28,1.13c.85.41,1.62.79,2.4,1.15s1.61.77,2.41,1.13l.22.1c.73.33,1.47.67,2.21,1s1.47.65,2.21,1l.25.11c3.16,1.37,6.51,2.71,10,4l2.52.93c.86.31,1.71.61,2.55.89l2.57.87,1.86.61,2.25.71,2.14.65,1.54.45,2.62.74c2.46.67,4.89,1.3,7.23,1.87,1.71.41,3.43.8,5.18,1.17,6.81,1.48,13.78,2.65,20.71,3.48l.39,0c1.22.15,2.41.28,3.59.4,2.32.24,4.79.45,7.55.64,1.55.11,3.1.2,4.67.27l2.56.11,2,.06.59,0,2.5.05,3.47,0c1.39,0,2.79,0,4.18,0s2.52,0,3.77-.1l.8,0c1.25,0,2.49-.1,3.72-.17,1.38-.07,2.75-.16,4.12-.26,1.12-.08,2.25-.17,3.37-.27.63-.05,1.25-.1,1.86-.17l2.6-.26.48-.05c1-.11,2-.22,3-.35,1.61-.19,3.28-.41,5.09-.68,1.16-.17,2.28-.34,3.41-.53.32,0,.6-.09.88-.14,1-.16,2-.32,2.93-.5q1.2-.21,2.37-.45c1.87-.34,3.7-.72,5.48-1.11l2.77-.61.06,0H245l.11,0,1.09-.25.56-.13c.74-.17,1.5-.36,2.25-.55l0,0,.3-.07c.48-.1.95-.23,1.42-.36,1-.26,2-.51,3-.79l.47-.13.48-.13c1.14-.31,2.24-.63,3.34-1l.16,0,3.45-1.05.41.92-.32-1a1.52,1.52,0,0,1,.2-.06c1.16-.37,2.39-.77,3.6-1.18s2.32-.79,3.47-1.19l.32-.11c1.18-.42,2.38-.86,3.58-1.31.94-.34,1.87-.7,2.8-1.07l2.24-.89c2.37-1,4.5-1.86,6.51-2.75.7-.3,1.37-.61,2.05-.92,1.35-.61,2.69-1.23,4-1.88l1.45-.71,1.38-.67.67-.34,1-.52c1.63-.82,3.3-1.7,5.13-2.7l.09-.05,1.88-1,.76-.43c.67-.37,1.33-.75,2-1.12.79-.45,1.57-.9,2.34-1.36l2-1.22.28-.17c.77-.46,1.52-.94,2.28-1.41,1.67-1.05,3.13-2,4.49-2.91.64-.41,1.25-.83,1.86-1.25.26-.16.47-.31.68-.46,1.94-1.33,3.95-2.76,6.2-4.42l.17-.13c.64-.49,1.3-1,1.94-1.47,1.52-1.14,2.87-2.2,4.14-3.23v0l.1-.08c.76-.61,1.52-1.21,2.26-1.83l.18-.15c.68-.57,1.37-1.14,2-1.72a3.46,3.46,0,0,0,.4-.35c.74-.63,1.41-1.2,2.07-1.79,1.86-1.63,3.7-3.32,5.49-5,.59-.56,1.17-1.11,1.73-1.66.39-.38.78-.76,1.15-1.14.72-.71,1.44-1.42,2.15-2.14.55-.57,1.06-1.08,1.54-1.6,1.82-1.88,3.63-3.84,5.41-5.85l1.29-1.47c.62-.72,1.23-1.43,1.82-2.14s1.21-1.43,1.78-2.15c.44-.52.84-1,1.23-1.52,1.06-1.31,2.12-2.67,3.25-4.16.52-.69,1-1.37,1.54-2.07.15-.18.26-.34.37-.5.43-.58.82-1.13,1.21-1.68l.08-.1c.25-.34.48-.67.7-1l1.13-1.6,1.66-2.46.14-.22c.59-.88,1.17-1.77,1.75-2.66a2.2,2.2,0,0,1,.15-.24c.57-.91,1.19-1.89,1.78-2.88.5-.79,1-1.58,1.44-2.38s.78-1.31,1.15-2,.91-1.59,1.33-2.37,1-1.75,1.43-2.61l.19-.35c.51-1,1-1.91,1.5-2.88.1-.21.23-.46.35-.7.41-.82.83-1.67,1.24-2.51.17-.35.32-.68.48-1,.37-.74.7-1.46,1-2.18.14-.3.28-.6.4-.89.39-.83.76-1.65,1.11-2.48l.06-.13q.11-.27.24-.54c.44-1,.89-2.1,1.32-3.18l1.93.34c.08,2.25.12,4.53.12,6.8a195.36,195.36,0,0,1-195.5,195.5Z"/><path class="cls-1" d="M390,330.75a194.59,194.59,0,0,1-273,178c-1.39-.61-2.78-1.24-4.15-1.89A194.3,194.3,0,0,1,1,330.75v-.07c.74,1.61,1.5,3.22,2.28,4.81L4,336.93c.38.76.76,1.51,1.15,2.26s.67,1.27,1,1.9c1,1.8,1.95,3.59,3,5.35.28.5.57,1,.87,1.49s.54.92.82,1.38c.64,1.07,1.3,2.12,2,3.17.43.7.88,1.39,1.33,2.08l.36.55c.53.81,1.06,1.62,1.61,2.42s1.16,1.7,1.75,2.55,1.19,1.68,1.8,2.52c1.21,1.67,2.44,3.32,3.71,4.95.63.82,1.27,1.62,1.92,2.43s1.3,1.61,2,2.41l.27.32c.5.61,1,1.22,1.54,1.83s1.09,1.28,1.65,1.91c1.25,1.44,2.53,2.85,3.83,4.25.12.14.25.28.38.41q2.91,3.12,6,6.13c.56.55,1.12,1.1,1.69,1.64s.93.89,1.4,1.33l1.31,1.22,1.35,1.25C48,394,49.49,395.25,51,396.5c.72.62,1.44,1.24,2.17,1.84s1.46,1.21,2.2,1.81c.54.44,1.08.88,1.63,1.3q5.53,4.43,11.42,8.46L70,411c.86.59,1.73,1.17,2.61,1.73l2.07,1.34a211.25,211.25,0,0,0,18.46,10.49c.77.39,1.53.77,2.3,1.14l2.41,1.16c.8.39,1.61.77,2.42,1.13l2.44,1.1,2.46,1.08q4.93,2.13,10,4c.85.32,1.69.63,2.54.93l2.56.9q1.29.45,2.58.87l1.87.61,2.3.73,2.11.64,1.54.45,2.64.74q3.6,1,7.25,1.88c1.73.41,3.46.81,5.21,1.18q10.22,2.22,20.8,3.49l.44.05c1.18.14,2.37.27,3.56.39,2.51.26,5,.47,7.58.65,1.56.11,3.12.2,4.69.27l2.58.11c.66,0,1.31.05,2,.06l.61,0,2.49.05,3.48,0c1.4,0,2.8,0,4.2,0s2.53,0,3.79-.1l.8,0c1.25,0,2.5-.1,3.74-.17s2.76-.16,4.13-.26q1.69-.12,3.39-.27c.63-.05,1.26-.11,1.88-.18.87-.07,1.74-.16,2.6-.26l.5-.05c1-.11,2-.22,3-.35,1.71-.2,3.41-.43,5.11-.68,1.14-.17,2.28-.34,3.42-.53l.89-.14c1-.16,2-.33,2.94-.51.8-.14,1.6-.29,2.39-.45q2.76-.51,5.49-1.11l2.78-.62a1.55,1.55,0,0,0,.31-.07c.53-.11,1-.24,1.58-.36l2.49-.62a.1.1,0,0,0,.07,0c.5-.11,1-.24,1.49-.38,1-.25,2-.51,3-.79l.67-.18.3-.08c1.12-.31,2.23-.63,3.34-1s2.42-.72,3.62-1.1l.23-.07c1.23-.39,2.46-.79,3.68-1.2s2.41-.82,3.61-1.24l.17-.06c1.21-.43,2.42-.87,3.62-1.32l2.82-1.08,2.24-.89c2.2-.89,4.39-1.81,6.55-2.77l2.05-.92c1.36-.61,2.71-1.24,4.06-1.89l1.53-.74,1.32-.65,1.7-.86c1.73-.87,3.45-1.78,5.15-2.71l2-1.09.77-.43,2-1.13c.78-.44,1.56-.9,2.34-1.36l2.31-1.4c.77-.46,1.53-.94,2.29-1.42q2.28-1.43,4.52-2.92c.63-.41,1.25-.83,1.87-1.26.24-.15.47-.31.7-.48,2.1-1.43,4.16-2.91,6.2-4.42l2.13-1.6q2.11-1.61,4.19-3.28a.17.17,0,0,0,.08-.07c.76-.61,1.52-1.22,2.27-1.84l.08-.07c.72-.6,1.44-1.2,2.15-1.81a5.47,5.47,0,0,0,.46-.4c.68-.58,1.36-1.16,2-1.76q2.81-2.46,5.51-5c.59-.55,1.17-1.11,1.74-1.67l1.16-1.14,2.15-2.15c.53-.54,1.06-1.08,1.56-1.62q2.79-2.88,5.43-5.87l1.29-1.47c.62-.72,1.24-1.44,1.84-2.16s1.21-1.44,1.79-2.16c.43-.51.84-1,1.24-1.53,1.11-1.38,2.19-2.77,3.26-4.18.52-.69,1-1.38,1.55-2.08.14-.18.27-.35.39-.53.43-.58.85-1.17,1.27-1.76q.38-.51.72-1l1.12-1.59c.56-.82,1.12-1.65,1.67-2.48.65-1,1.3-2,1.93-2.94a.57.57,0,0,1,.08-.13c.62-1,1.24-2,1.84-3,.49-.79,1-1.59,1.44-2.39s.79-1.33,1.16-2,.91-1.58,1.34-2.37c.56-1,1.09-2,1.62-3s1-1.92,1.51-2.89l.35-.7c.42-.84.84-1.69,1.25-2.54.17-.35.33-.69.49-1,.36-.73.7-1.46,1-2.19.14-.3.28-.6.41-.9.38-.82.75-1.65,1.11-2.48.09-.21.18-.43.28-.64.46-1.07.91-2.15,1.35-3.23C390,326.23,390,328.49,390,330.75Z"/><path class="cls-2" d="M194,449.25a223.83,223.83,0,0,1-95-20.74A208.64,208.64,0,0,1,26.46,373l-.74-.9,1-.6A174.68,174.68,0,0,0,105,270.58l.24-.81.84.1A299.16,299.16,0,0,0,140.35,272c19.5,0,37.46-2.24,53.38-6.66,21.59-6,47.74-9,77.72-9,40.8,0,81.39,5.66,108.24,10.41l.58.1.2.55A195,195,0,0,1,390.88,324v.21l-.08.2c-14.81,36.3-41,67.36-75.78,89.81C279.51,437.12,237.65,449.25,194,449.25Z"/><path class="cls-2" d="M389.88,324C360.27,396.57,283.74,448.25,194,448.25c-68.11,0-128.61-29.77-166.77-75.86a176.45,176.45,0,0,0,78.68-101.53c29.2,3.4,60.05,3.18,88.09-4.61,58.9-16.36,137.94-7,185.52,1.39A193.55,193.55,0,0,1,389.88,324Z"/><path class="cls-3" d="M195.5,526.25a194.06,194.06,0,0,1-78.93-16.59c-1.51-.67-2.88-1.29-4.18-1.91l-.48-.23-.08-.53a83.72,83.72,0,0,1-.83-11.74,82.21,82.21,0,0,1,17.13-50.49c1.39-1.82,2.89-3.62,4.46-5.35a83.15,83.15,0,0,1,10.58-9.78,82.9,82.9,0,0,1,107.54,5c1.66,1.54,3.24,3.14,4.69,4.75s2.78,3.17,4.08,4.83A83.2,83.2,0,0,1,276,508.49l-.09.53-.49.22A194,194,0,0,1,195.5,526.25Z"/><path class="cls-3" d="M276,495.25a81.77,81.77,0,0,1-1,13.08,195,195,0,0,1-158,.41c-1.39-.61-2.78-1.24-4.15-1.89a82.06,82.06,0,0,1,16.1-61.48q2.1-2.75,4.41-5.29h0A81.88,81.88,0,0,1,250,435.39q2.41,2.24,4.64,4.69t4,4.78A81.61,81.61,0,0,1,276,495.25Z"/><circle class="cls-3" cx="186" cy="398.25" r="75"/><circle class="cls-3" cx="186" cy="398.25" r="74"/><ellipse class="cls-3" cx="276" cy="398.25" rx="57" ry="50"/><ellipse class="cls-3" cx="276" cy="398.25" rx="56" ry="49"/><path class="cls-3" d="M80,267.92a473.4,473.4,0,0,1-62.17-16.24l-1.06-.35.46-1a196,196,0,0,1,63-77.51l2.57-1.87-1,3a147,147,0,0,0-.66,92.68l.53,1.6Z"/><path class="cls-3" d="M73,221.25a146.67,146.67,0,0,0,7.22,45.69,476.31,476.31,0,0,1-62-16.21,194.87,194.87,0,0,1,62.7-77.11A146.09,146.09,0,0,0,73,221.25Z"/><path class="cls-3" d="M140.35,274a298.88,298.88,0,0,1-34.56-2.1c-8.38-1-17.05-2.3-25.75-3.93l-.59-.11-.18-.56a149.08,149.08,0,0,1,.66-94L80,173l.25-.19a195.52,195.52,0,0,1,226.38-2.89,197.07,197.07,0,0,1,73.8,97.4l.55,1.6-1.67-.3c-23.94-4.22-47.24-7.2-69.24-8.84-13.44-1-26.47-1.53-38.71-1.53-29.77,0-55.73,3-77.13,9C178.17,271.68,160,274,140.35,274Z"/><path class="cls-3" d="M379.52,267.64c-19.14-3.38-43.37-6.92-69.34-8.86-38.58-2.91-81-2.31-116.18,7.47-28,7.79-58.89,8-88.09,4.61-8.75-1-17.36-2.36-25.69-3.92a148,148,0,0,1,.66-93.32,190.8,190.8,0,0,1,21.21-13.51A194.59,194.59,0,0,1,379.52,267.64Z"/><path class="cls-2" d="M26.46,373A188.28,188.28,0,0,1,.09,331.09L0,330.9v-.22a194,194,0,0,1,17.27-80.36l.37-.82.86.28c20.92,7,53.08,16.09,87.53,20.09l1.17.13-.33,1.14A176.69,176.69,0,0,1,27.74,373.25l-.73.44Z"/><path class="cls-2" d="M105.91,270.86A176.45,176.45,0,0,1,27.23,372.39,187.17,187.17,0,0,1,1,330.68a193.84,193.84,0,0,1,17.18-80C40.58,258.18,72.13,266.94,105.91,270.86Z"/><path class="cls-1" d="M116.57,509.66c-1.51-.67-2.88-1.29-4.18-1.91A197.09,197.09,0,0,1,11.81,397.81l-.21-.56.41-.45a77.09,77.09,0,0,1,21.51-16.7l.54-.29a77.69,77.69,0,0,1,35.44-8.56,77.51,77.51,0,0,1,77.3,71.81c.13,1.91.2,3.82.2,5.69a78.7,78.7,0,0,1-.83,11.38,77.19,77.19,0,0,1-28.58,49.39l-.47.38Z"/><path class="cls-1" d="M146,448.75a77.11,77.11,0,0,1-.82,11.23A76.41,76.41,0,0,1,117,508.74c-1.39-.61-2.78-1.24-4.15-1.89A195.06,195.06,0,0,1,12.75,397.47a76.29,76.29,0,0,1,21.77-16.76h0a76.53,76.53,0,0,1,109.26,49.72,75.86,75.86,0,0,1,2,12.71h0C145.93,445,146,446.86,146,448.75Z"/><path class="cls-4" d="M195.5,526.5a195.47,195.47,0,0,1-63.74-10.61l.3-1.95c94.12-2.41,170.69-85.6,170.69-185.44,0-96.37-68.17-175.77-158.58-184.69l-.16-2A195.83,195.83,0,0,1,195.5,135c107.94,0,195.75,87.81,195.75,195.75S303.44,526.5,195.5,526.5Z"/><path class="cls-4" d="M390.25,330.75c0,107.56-87.19,194.75-194.75,194.75a194.5,194.5,0,0,1-63.41-10.56c95.2-2.44,171.66-85,171.66-186.44,0-97.1-70-176.86-159.48-185.69A194.92,194.92,0,0,1,195.5,136C303.06,136,390.25,223.19,390.25,330.75Z"/><path class="cls-5" d="M243.45,147l-99.74.25a1.17,1.17,0,0,1-1.13-1.51l6.24-20.48c9.42,6.46,25,10.68,42.52,10.68,18.63,0,35-4.74,44.15-11.88l9,21.31A1.17,1.17,0,0,1,243.45,147Z"/><path class="cls-6" d="M235.49,124.07C226.31,131.21,210,136,191.34,136c-17.57,0-33.1-4.22-42.52-10.68L159.27,91l25-82.21a1.17,1.17,0,0,1,2.2-.12l23.59,55.61L217.65,82l3.44,8.13Z"/><circle class="cls-7" cx="176.41" cy="106.64" r="13.27"/><path class="cls-8" d="M217.65,82a11.61,11.61,0,1,1-9.72-18,11.12,11.12,0,0,1,2.18.21Z"/><path class="cls-8" d="M192,8.19c0-.78,1.83-1.83,1.6-2.53s-2.34-.5-2.78-1.11.42-2.54-.19-3-2.18,1-2.9.74S186.59,0,185.81,0s-1.21,2.07-1.91,2.3-2.3-1.18-2.9-.74.25,2.38-.2,3-2.54.38-2.78,1.11,1.6,1.75,1.6,2.53S177.79,10,178,10.72s2.34.5,2.78,1.11-.41,2.54.2,3,2.17-1,2.9-.74,1.14,2.3,1.91,2.3,1.22-2.07,1.92-2.3,2.29,1.17,2.9.74-.25-2.38.19-3,2.55-.38,2.78-1.11S192,9,192,8.19Z"/><path class="cls-9" d="M171.51,50.79a51.62,51.62,0,0,0,16.79,2.75A52.1,52.1,0,0,0,204.49,51"/><polygon class="cls-10" points="212.52 108.98 208.44 109.25 206.36 112.77 204.84 108.98 200.85 108.08 203.98 105.46 203.6 101.4 207.06 103.57 210.81 101.95 209.82 105.91 212.52 108.98"/><polygon class="cls-10" points="178.37 80.9 176.82 77.38 173.04 76.66 175.91 74.09 175.43 70.28 178.75 72.22 182.23 70.58 181.41 74.34 184.04 77.14 180.22 77.53 178.37 80.9"/></g></g></svg>