<svg id="elawwcj16v71" xmlns="http://www.w3.org/2000/svg" xmlns:xlink="http://www.w3.org/1999/xlink" viewBox="0 0 484.730000 353" shape-rendering="geometricPrecision" text-rendering="geometricPrecision"><style><![CDATA[#elawwcj16v716 {animation: elawwcj16v716_c_o 4000ms linear infinite normal forwards}@keyframes elawwcj16v716_c_o { 0% {opacity: 1} 12.500000% {opacity: 1} 37.500000% {opacity: 0} 62.500000% {opacity: 0} 87.500000% {opacity: 1} 100% {opacity: 1} }]]></style><g id="elawwcj16v72" transform="matrix(1 0 0 1 -0.00000000000006 -0.00079155000000)"><g id="elawwcj16v73"><path id="elawwcj16v74" d="M245.360000,353C205.680763,353.148290,167.134322,339.777482,136.070000,315.090000L136.990000,313.360000C169.660000,323.740000,204.940000,329,241.860000,329C283,329,323.390000,322.180000,358.690000,309.280000L359.690000,310.980000C327.774662,338.111429,287.249178,353.005865,245.360000,353Z" fill="rgb(214,171,72)" stroke="none" stroke-width="1"/><path id="elawwcj16v75" d="M359,310.220000C295.310414,364.348895,202.287167,366.060004,136.650000,314.310000C168.280000,324.350000,204,330,241.860000,330C284.580000,330,324.610000,322.800000,359,310.220000Z" fill="rgb(214,171,72)" stroke="none" stroke-width="1"/><path id="elawwcj16v76" d="M241.860000,331C204.740000,331,169.250000,325.710000,136.380000,315.260000L136.210000,315.210000L136.070000,315.090000C116.718033,299.781991,100.757450,280.620438,89.200000,258.820000L88.200000,257L90.200000,257.370000C119.550000,262.710000,153.320000,263.800000,195.010000,263.800000Q205.590000,263.800000,216.200000,263.750000Q226.810000,263.700000,237.360000,263.690000C250.190000,263.690000,260.510000,263.790000,269.830000,264C302.950000,264.740000,342.250000,270.090000,386.630000,279.890000L388.140000,280.230000L387.220000,281.470000C379.189806,292.326076,369.950372,302.233138,359.680000,311L359.550000,311.120000L359.380000,311.180000C323.860000,324.140000,283.230000,331,241.860000,331Z" fill="rgb(249,216,143)" stroke="none" stroke-width="1"/><path id="elawwcj16v77" d="M386.470000,280.870000C378.459640,291.666456,369.243346,301.513497,359,310.220000C324.610000,322.800000,284.580000,330,241.860000,330C204.020000,330,168.280000,324.350000,136.680000,314.310000C117.410974,299.097736,101.537625,280.022466,90.080000,258.310000C142.190000,267.800000,209.270000,263.600000,269.860000,264.960000C308.770000,265.870000,351.120000,273.060000,386.470000,280.870000Z" fill="rgb(249,216,143)" stroke="none" stroke-width="1"/><path id="elawwcj16v78" d="M406.510000,247.090000C354.270000,246.480000,284.120000,243.890000,246.630000,234.970000C228.130000,230.570000,199.770000,228.330000,162.320000,228.330000C137.520000,228.330000,109.260000,229.330000,78.320000,231.220000L77.540000,231.270000L77.300000,230.530000C68.334224,202.477149,66.485413,172.634997,71.920000,143.690000L72.060000,142.940000L72.830000,142.880000C98.830000,140.970000,124.640000,139.990000,149.680000,139.990000C154.480000,139.990000,159.320000,139.990000,164.080000,140.100000C189.590000,140.480000,215.220000,143.100000,240.010000,145.600000C266.880000,148.330000,294.650000,151.160000,322.370000,151.160000C328.210000,151.160000,333.980000,151.030000,339.500000,150.780000C365.691847,149.600683,391.798399,146.973336,417.700000,142.910000L418.700000,142.760000L418.880000,143.760000C420.886204,154.571122,421.890462,165.544314,421.880000,176.540000C421.931303,200.615995,417.022636,224.444477,407.460000,246.540000L407.200000,247.150000Z" fill="rgb(249,216,143)" stroke="none" stroke-width="1"/><path id="elawwcj16v79" d="M420.860000,176.500000C420.892586,200.433571,416.011854,224.119074,406.520000,246.090000C355.580000,245.500000,284.520000,242.970000,246.860000,234C206.710000,224.440000,129.180000,227.070000,78.240000,230.220000C69.328531,202.328186,67.490075,172.658610,72.890000,143.880000C103.220000,141.640000,133.710000,140.650000,164.050000,141.100000C222.820000,141.970000,280.050000,154.460000,339.530000,151.780000C365.758736,150.600296,391.902062,147.969605,417.840000,143.900000C419.852803,154.649870,420.863803,165.563316,420.860000,176.500000Z" fill="rgb(249,216,143)" stroke="none" stroke-width="1"/><path id="elawwcj16v710" d="M420.720000,186.610000C363.720000,185.810000,287.050000,183.610000,245.190000,177.950000C226.070000,175.340000,199,174,164.680000,174C126.890000,174,89.260000,175.630000,70.190000,176.600000L69.190000,176.600000L68.680000,166.600000L69.680000,166.550000C93.480000,165.330000,129.290000,163.890000,164.680000,163.890000C199.210000,163.890000,226.740000,165.260000,246.530000,167.960000C290.070000,173.890000,374.430000,175.870000,420.840000,176.520000L421.840000,176.520000L421.710000,186.520000Z" fill="rgb(230,183,78)" stroke="none" stroke-width="1"/><path id="elawwcj16v711" d="M420.730000,185.610000C363.790000,184.810000,287.130000,182.670000,245.320000,176.960000C195.890000,170.220000,106.320000,173.780000,70.140000,175.620000L69.730000,167.620000C114.980000,165.310000,198.100000,162.430000,246.410000,169.020000C290,174.960000,374.410000,176.940000,420.840000,177.590000Z" fill="rgb(230,183,78)" stroke="none" stroke-width="1"/><path id="elawwcj16v712" d="M418.490000,209.700000C350.270000,208.120000,261.840000,205,228,198.920000C211.770000,196.030000,187.150000,194.560000,154.820000,194.560000C123.960000,194.560000,92.110000,195.910000,70.820000,197.040000L69.820000,197.100000L69.290000,187.100000L70.290000,187.050000C91.610000,185.910000,123.550000,184.560000,154.640000,184.560000C187.710000,184.560000,212.980000,186.070000,229.750000,189.070000C262.990000,195.010000,350.870000,198.070000,418.750000,199.690000L419.750000,199.690000L419.520000,209.690000Z" fill="rgb(230,183,78)" stroke="none" stroke-width="1"/><path id="elawwcj16v713" d="M418.510000,208.700000C350.330000,207.120000,262,204,228.160000,197.940000C189.560000,191.050000,112.980000,193.800000,70.760000,196.040000L70.330000,188.040000C112.900000,185.770000,190.180000,183.040000,229.570000,190.040000C262.870000,195.990000,350.800000,199.110000,418.700000,200.680000Z" fill="rgb(230,183,78)" stroke="none" stroke-width="1"/><path id="elawwcj16v714" d="M386.260000,281.850000C342,272.070000,302.840000,266.740000,269.840000,266C260.540000,265.790000,250.230000,265.690000,237.420000,265.690000Q226.880000,265.690000,216.270000,265.750000Q205.660000,265.810000,195.070000,265.800000C153.280000,265.800000,119.400000,264.700000,89.910000,259.330000L89.430000,259.250000L89.200000,258.820000C84.406135,249.754961,80.420709,240.284975,77.290000,230.520000L76.900000,229.300000L78.180000,229.220000C109.180000,227.310000,137.480000,226.330000,162.320000,226.330000C199.920000,226.330000,228.440000,228.590000,247.100000,233.030000C284.400000,241.900000,354.390000,244.490000,406.540000,245.090000L408.040000,245.090000L407.440000,246.470000C402.081934,258.869914,395.317623,270.613510,387.280000,281.470000L386.890000,282Z" fill="rgb(230,183,78)" stroke="none" stroke-width="1"/><path id="elawwcj16v715" d="M406.520000,246.090000C401.206183,258.410455,394.495589,270.080179,386.520000,280.870000C351.170000,273.060000,308.820000,265.870000,269.910000,265C209.320000,263.640000,142.240000,267.840000,90.130000,258.350000C85.361282,249.340947,81.399162,239.927565,78.290000,230.220000C129.230000,227.070000,206.760000,224.440000,246.910000,234C284.560000,243,355.580000,245.500000,406.520000,246.090000Z" fill="rgb(230,183,78)" stroke="none" stroke-width="1"/><path id="elawwcj16v716" d="M242.390000,89.500000C108.620000,89.500000,0.150000,123.090000,0,165.500000L0,165.630000C0,228.630000,108.520000,279.630000,242.390000,279.630000C371.950000,279.630000,477.780000,231.820000,484.390000,171.630000Q468.880000,171.890000,453.390000,171.980000C463.730000,171.890000,474.080000,171.750000,484.390000,171.630000C484.618776,169.678384,484.732306,167.714978,484.730000,165.750000C484.770000,123.330000,376.260000,89.500000,242.390000,89.500000ZM242.940000,244.500000C134.510000,244.500000,46.620000,209.190000,46.620000,165.620000L46.620000,165.500000C46.780000,136.170000,134.620000,113.180000,242.940000,113.180000C351.260000,113.180000,439.260000,137,439.260000,166.370000C439.254612,168.298650,439.033232,170.220630,438.600000,172.100000C430.420000,212.640000,346,244.510000,242.940000,244.510000Z" transform="matrix(1 0 0 1 -0.00000000000001 2.37000000000002)" fill="rgb(255,231,179)" stroke="none" stroke-width="1"/><path id="elawwcj16v717" d="M322.060000,136.810000C307.176583,136.968362,292.319836,135.513199,277.750000,132.470000C264.620000,129.600000,251.810000,125.060000,239.410000,120.680000C228.640000,116.860000,217.500000,112.920000,206.240000,110.110000C194.120000,107.110000,180.540000,105.620000,164.720000,105.620000C153.800000,105.620000,142.950000,106.290000,132.860000,107.020000C115.780000,108.240000,98.790000,110.160000,82.350000,112.730000L80.620000,113L81.270000,111.370000C94.642662,77.611817,118.129231,48.815971,148.510000,28.930000L149.040000,28.580000L149.590000,28.920000C173.790000,44.230000,209.790000,53,248.360000,53C285.060000,53,319.930000,44.920000,344.020000,30.830000L344.570000,30.510000L345.090000,30.870000C378.977261,54.095837,403.725879,88.390350,415.090000,127.870000L415.410000,128.990000L414.240000,129.130000C400.790000,130.730000,386.750000,132.260000,372.500000,133.690000C357.250000,135.200000,339.530000,136.810000,322.060000,136.810000Z" fill="rgb(249,216,143)" stroke="none" stroke-width="1"/><path id="elawwcj16v718" d="M414.110000,128.140000Q393.280000,130.620000,372.390000,132.690000C340.930000,135.810000,308.840000,138.250000,277.960000,131.490000C253.490000,126.140000,230.730000,115.200000,206.480000,109.140000C182.480000,103.140000,157.310000,104.260000,132.780000,106.020000C115.920000,107.230000,98.990000,109.120000,82.190000,111.740000C95.543474,78.198854,118.884115,49.572881,149.050000,29.740000C172.430000,44.550000,208.230000,54,248.360000,54C286.730000,54,321.150000,45.360000,344.520000,31.690000C378.220679,54.775630,402.827157,88.879593,414.110000,128.140000Z" fill="rgb(249,216,143)" stroke="none" stroke-width="1"/><path id="elawwcj16v719" d="M322.360000,153.160000C294.540000,153.160000,266.710000,150.330000,239.800000,147.590000C215.050000,145.080000,189.470000,142.480000,164.040000,142.100000C159.290000,142.030000,154.460000,141.990000,149.670000,141.990000C124.670000,141.990000,98.880000,142.990000,72.970000,144.880000L71.670000,144.970000L71.910000,143.700000C73.987566,132.648479,77.121962,121.822089,81.270000,111.370000L81.480000,110.840000L82.040000,110.750000C98.540000,108.180000,115.590000,106.250000,132.710000,105.020000C142.840000,104.300000,153.710000,103.620000,164.710000,103.620000C180.710000,103.620000,194.440000,105.110000,206.710000,108.170000C218.060000,111.010000,229.240000,114.960000,240.060000,118.790000C252.400000,123.160000,265.150000,127.670000,278.160000,130.510000C292.588200,133.525474,307.300892,134.967237,322.040000,134.810000C339.420000,134.810000,357.040000,133.200000,372.280000,131.690000C386.510000,130.270000,400.540000,128.740000,413.980000,127.150000L414.820000,127.050000L415.060000,127.860000C416.520000,132.970000,417.780000,138.310000,418.810000,143.710000L419,144.710000L418,144.870000C392.024906,148.939506,365.845160,151.573505,339.580000,152.760000C334,153,328.230000,153.160000,322.360000,153.160000Z" fill="rgb(230,183,78)" stroke="none" stroke-width="1"/><path id="elawwcj16v720" d="M248.360000,55C209.430000,55,173.030000,46.110000,148.520000,30.620000L147.210000,29.790000L148.500000,28.940000C208.359630,-10.337096,286.013030,-9.574743,345.090000,30.870000L346.390000,31.760000L345.030000,32.550000C320.640000,46.820000,285.410000,55,248.360000,55Z" fill="rgb(214,171,72)" stroke="none" stroke-width="1"/><path id="elawwcj16v721" d="M344.520000,31.690000C321.150000,45.360000,286.730000,54,248.360000,54C208.230000,54,172.430000,44.550000,149.050000,29.770000C208.570069,-9.278715,285.778452,-8.520338,344.520000,31.690000Z" fill="rgb(214,171,72)" stroke="none" stroke-width="1"/></g></g></svg>