<svg id="ej0z8ehwb14e1" xmlns="http://www.w3.org/2000/svg" xmlns:xlink="http://www.w3.org/1999/xlink" viewBox="0 0 323 325" shape-rendering="geometricPrecision" text-rendering="geometricPrecision"><style><![CDATA[#ej0z8ehwb14e2_tr {animation: ej0z8ehwb14e2_tr__tr 12000ms linear infinite normal forwards}@keyframes ej0z8ehwb14e2_tr__tr { 0% {transform: translate(161.496994px,162.497021px) rotate(0deg)} 100% {transform: translate(161.496994px,162.497021px) rotate(360deg)} }#ej0z8ehwb14e6 {animation: ej0z8ehwb14e6_f_p 12000ms linear infinite normal forwards}@keyframes ej0z8ehwb14e6_f_p { 0% {fill: rgb(141,33,255)} 50% {fill: rgb(221,45,251)} 100% {fill: rgb(141,33,255)} }#ej0z8ehwb14e8 {animation: ej0z8ehwb14e8_f_p 12000ms linear infinite normal forwards}@keyframes ej0z8ehwb14e8_f_p { 0% {fill: rgb(174,97,255)} 50% {fill: rgb(205,157,255)} 100% {fill: rgb(174,97,255)} }]]></style><g id="ej0z8ehwb14e2_tr" transform="translate(161.496994,162.497021) rotate(0)"><g id="ej0z8ehwb14e2" transform="translate(-151.552961,-148.856807)"><g id="ej0z8ehwb14e3"><path id="ej0z8ehwb14e4" d="M203.200000,301.293000C197.448000,301.293000,190.829000,298.787000,183.820000,296.132000C176.051000,293.190000,168.020000,290.147000,160.003000,290.147000C151.986000,290.147000,143.955000,293.189000,136.186000,296.131000C129.177000,298.786000,122.557000,301.293000,116.806000,301.293000C115.208107,301.313518,113.617154,301.079246,112.093000,300.599000C105.048000,298.312000,99.972000,290.509000,94.593000,282.249000C90.193000,275.481000,85.638000,268.483000,79.477000,263.998000C73.225000,259.449000,65.092000,257.245000,57.227000,255.113000C47.787000,252.554000,38.869000,250.137000,34.592000,244.260000C30.383000,238.478000,30.822000,229.307000,31.292000,219.598000C31.683000,211.411000,32.092000,202.944000,29.670000,195.498000C27.363000,188.390000,22.176000,181.982000,17.161000,175.786000C10.906000,168.061000,5,160.765000,5,153.147000C5,145.529000,10.906000,138.232000,17.158000,130.508000C22.173000,124.308000,27.358000,117.908000,29.667000,110.796000C32.085000,103.350000,31.680000,94.884000,31.289000,86.696000C30.824000,76.987000,30.389000,67.815000,34.594000,62.032000C38.871000,56.156000,47.794000,53.738000,57.229000,51.179000C65.094000,49.048000,73.229000,46.843000,79.479000,42.294000C85.640000,37.811000,90.192000,30.812000,94.600000,24.044000C99.973000,15.784000,105.049000,7.982000,112.094000,5.694000C113.616110,5.215317,115.204507,4.981074,116.800000,5C122.552000,5,129.171000,7.508000,136.180000,10.162000C143.949000,13.104000,151.980000,16.147000,159.997000,16.147000C168.014000,16.147000,176.044000,13.104000,183.813000,10.162000C190.825000,7.507000,197.445000,5,203.200000,5C204.797870,4.979823,206.388769,5.214087,207.913000,5.694000C214.958000,7.981000,220.034000,15.784000,225.413000,24.044000C229.813000,30.812000,234.368000,37.811000,240.529000,42.295000C246.781000,46.844000,254.913000,49.049000,262.779000,51.180000C272.219000,53.739000,281.137000,56.156000,285.413000,62.033000C289.622000,67.817000,289.184000,76.988000,288.719000,86.697000C288.327000,94.884000,287.919000,103.350000,290.340000,110.797000C292.649000,117.906000,297.834000,124.313000,302.850000,130.510000C309.100000,138.232000,315,145.529000,315,153.147000C315,160.765000,309.100000,168.061000,302.842000,175.786000C297.826000,181.986000,292.642000,188.386000,290.332000,195.498000C287.915000,202.944000,288.319000,211.410000,288.711000,219.598000C289.176000,229.307000,289.611000,238.479000,285.405000,244.261000C281.129000,250.138000,272.211000,252.555000,262.771000,255.114000C254.906000,257.246000,246.771000,259.450000,240.521000,263.999000C234.360000,268.484000,229.808000,275.482000,225.405000,282.250000C220.031000,290.510000,214.955000,298.313000,207.905000,300.600000C206.383379,301.079216,204.795171,301.313144,203.200000,301.293000Z" transform="matrix(1 0 0 1 -8.44703911956397 -4.28971290421411)" fill="rgb(156,236,255)" stroke="none" stroke-width="1"/><path id="ej0z8ehwb14e5" d="M203.200000,0L203.200000,10C204.272498,9.981498,205.341133,10.133389,206.366000,10.450000C211.729000,12.191000,216.551000,19.603000,221.214000,26.771000C225.865000,33.919000,230.673000,41.311000,237.580000,46.338000C244.580000,51.429000,253.161000,53.756000,261.463000,56.006000C269.654000,58.226000,278.123000,60.522000,281.363000,64.976000C284.536000,69.336000,284.120000,78.040000,283.717000,86.458000C283.304000,95.094000,282.877000,104.024000,285.577000,112.340000C288.171000,120.330000,293.654000,127.103000,298.955000,133.653000C304.385000,140.362000,310,147.300000,310,153.147000C310,158.994000,304.385000,165.932000,298.956000,172.640000C293.656000,179.190000,288.171000,185.964000,285.577000,193.954000C282.877000,202.269000,283.304000,211.200000,283.717000,219.836000C284.117000,228.254000,284.536000,236.958000,281.363000,241.318000C278.122000,245.772000,269.653000,248.068000,261.463000,250.288000C253.163000,252.538000,244.577000,254.865000,237.580000,259.956000C230.673000,264.983000,225.865000,272.375000,221.215000,279.523000C216.552000,286.691000,211.730000,294.103000,206.367000,295.844000C205.341115,296.160661,204.271485,296.312549,203.198000,296.294000C198.362000,296.294000,192.157000,293.944000,185.589000,291.456000C177.399000,288.356000,168.930000,285.147000,160.001000,285.147000C151.072000,285.147000,142.601000,288.354000,134.414000,291.456000C127.845000,293.944000,121.640000,296.294000,116.804000,296.294000C115.730842,296.312562,114.661539,296.160672,113.636000,295.844000C108.273000,294.103000,103.451000,286.691000,98.788000,279.523000C94.137000,272.375000,89.329000,264.983000,82.422000,259.956000C75.422000,254.865000,66.841000,252.538000,58.539000,250.288000C50.348000,248.068000,41.879000,245.772000,38.639000,241.318000C35.466000,236.958000,35.882000,228.254000,36.285000,219.836000C36.698000,211.200000,37.125000,202.270000,34.425000,193.954000C31.831000,185.964000,26.348000,179.191000,21.047000,172.641000C15.615000,165.932000,10,159,10,153.147000C10,147.294000,15.615000,140.362000,21.044000,133.654000C26.344000,127.104000,31.829000,120.330000,34.423000,112.340000C37.123000,104.025000,36.696000,95.094000,36.283000,86.458000C35.883000,78.040000,35.464000,69.336000,38.637000,64.976000C41.878000,60.522000,50.347000,58.226000,58.537000,56.006000C66.837000,53.756000,75.423000,51.429000,82.420000,46.338000C89.327000,41.311000,94.135000,33.919000,98.785000,26.771000C103.448000,19.603000,108.270000,12.191000,113.633000,10.450000C114.658246,10.133549,115.727184,9.981663,116.800000,10C121.636000,10,127.841000,12.350000,134.409000,14.838000C142.599000,17.938000,151.068000,21.147000,159.997000,21.147000C168.926000,21.147000,177.397000,17.940000,185.585000,14.838000C192.157000,12.350000,198.361000,10,203.200000,10L203.200000,0M203.200000,0C189.723000,0,174.050000,11.147000,160,11.147000C145.950000,11.147000,130.278000,0,116.800000,0C114.677851,-0.019132,112.566050,0.297790,110.543000,0.939000C95.309000,5.885000,89.213000,29.024000,76.533000,38.252000C63.726000,47.572000,39.869000,46.285000,30.548000,59.091000C21.320000,71.771000,29.855000,94.018000,24.909000,109.252000C20.139000,123.950000,0,136.858000,0,153.147000C0,169.436000,20.139000,182.347000,24.912000,197.047000C29.858000,212.281000,21.323000,234.528000,30.551000,247.207000C39.872000,260.014000,63.729000,258.726000,76.536000,268.047000C89.216000,277.275000,95.313000,300.414000,110.546000,305.360000C112.569085,306.001062,114.680861,306.317981,116.803000,306.299000C130.277000,306.299000,145.950000,295.152000,160.003000,295.152000C174.056000,295.152000,189.725000,306.299000,203.203000,306.299000C205.325149,306.318132,207.436950,306.001210,209.460000,305.360000C224.694000,300.414000,230.790000,277.275000,243.470000,268.047000C256.277000,258.726000,280.134000,260.014000,289.455000,247.208000C298.683000,234.528000,290.148000,212.280000,295.094000,197.047000C299.867000,182.347000,320.006000,169.441000,320.006000,153.147000C320.006000,136.853000,299.867000,123.947000,295.094000,109.252000C290.148000,94.018000,298.683000,71.771000,289.455000,59.091000C280.134000,46.285000,256.277000,47.572000,243.470000,38.252000C230.790000,29.024000,224.693000,5.885000,209.460000,0.939000C207.435958,0.297624,205.323143,-0.019298,203.200000,0Z" transform="matrix(1 0 0 1 -8.44703911956397 -4.28971290421411)" fill="rgb(174,97,255)" stroke="none" stroke-width="1"/><path id="ej0z8ehwb14e6" d="M175.613000,108.419000C175.613000,112.267000,170.733000,114.843000,168.550000,118.187000C166.587000,121.195000,166.659000,126.668000,163.281000,129.044000C160.322000,131.126000,155.022000,129.419000,151.215000,130.864000C147.779000,132.164000,145.089000,137.026000,141.134000,137.702000C137.469000,138.328000,133.281000,134.690000,129.306000,134.690000C125.331000,134.690000,121.145000,138.328000,117.481000,137.702000C113.525000,137.026000,110.835000,132.169000,107.398000,130.864000C103.590000,129.419000,98.290000,131.125000,95.331000,129.044000C91.952000,126.667000,92.025000,121.194000,90.062000,118.186000C87.880000,114.842000,83,112.267000,83,108.419000C83,104.571000,87.880000,101.994000,90.063000,98.650000C92.026000,95.643000,91.953000,90.169000,95.332000,87.793000C98.291000,85.711000,103.590000,87.418000,107.398000,85.973000C110.834000,84.673000,113.524000,79.811000,117.479000,79.136000C121.143000,78.509000,125.332000,82.147000,129.306000,82.147000C133.280000,82.147000,137.468000,78.509000,141.132000,79.135000C145.087000,79.811000,147.778000,84.669000,151.215000,85.973000C155.023000,87.418000,160.323000,85.712000,163.282000,87.794000C166.660000,90.170000,166.588000,95.644000,168.551000,98.651000C170.733000,102,175.613000,104.570000,175.613000,108.419000Z" transform="matrix(1 0 0 1 -8.44703911956397 -4.28971290421411)" fill="rgb(141,33,255)" stroke="none" stroke-width="1"/><path id="ej0z8ehwb14e7" d="M258.318000,181.419000C258.318000,185.919000,253.811000,189.762000,252.750000,193.859000C251.626000,198.197000,253.617000,203.759000,251.487000,207.436000C249.244000,211.301000,243.416000,212.258000,240.273000,215.136000C237.006000,218.126000,235.421000,223.836000,231.425000,225.476000C227.429000,227.116000,222.388000,224.149000,217.919000,224.149000C213.450000,224.149000,208.401000,227.110000,204.413000,225.476000C200.425000,223.842000,198.831000,218.126000,195.564000,215.135000C192.422000,212.259000,186.594000,211.303000,184.351000,207.435000C182.221000,203.763000,184.212000,198.198000,183.088000,193.859000C182.027000,189.759000,177.520000,185.919000,177.520000,181.419000C177.520000,176.919000,182.027000,173.075000,183.088000,168.979000C184.212000,164.640000,182.221000,159.074000,184.351000,155.402000C186.594000,151.536000,192.422000,150.580000,195.565000,147.702000C198.832000,144.712000,200.417000,139.002000,204.413000,137.362000C208.409000,135.722000,213.451000,138.689000,217.919000,138.689000C222.387000,138.689000,227.437000,135.728000,231.426000,137.363000C235.415000,138.998000,237.007000,144.713000,240.274000,147.703000C243.417000,150.579000,249.245000,151.536000,251.487000,155.403000C253.617000,159.075000,251.626000,164.641000,252.750000,168.979000C253.811000,173.075000,258.318000,176.918000,258.318000,181.419000Z" transform="matrix(1 0 0 1 -8.44703911956397 -4.28971290421411)" fill="rgb(139,78,204)" stroke="none" stroke-width="1"/><path id="ej0z8ehwb14e8" d="M155.358000,188.592000C155.358000,192.279000,150.872000,195.212000,149.792000,198.539000C148.672000,201.988000,150.539000,206.990000,148.450000,209.860000C146.340000,212.760000,140.992000,212.519000,138.093000,214.629000C135.223000,216.718000,133.810000,221.890000,130.362000,223.009000C127.035000,224.090000,122.862000,220.771000,119.179000,220.771000C115.496000,220.771000,111.324000,224.090000,107.996000,223.009000C104.548000,221.890000,103.135000,216.717000,100.265000,214.629000C97.365000,212.519000,92.018000,212.759000,89.908000,209.860000C87.819000,206.990000,89.686000,201.987000,88.566000,198.539000C87.486000,195.212000,83,192.279000,83,188.592000C83,184.905000,87.486000,181.972000,88.566000,178.645000C89.686000,175.196000,87.820000,170.194000,89.908000,167.324000C92.018000,164.424000,97.366000,164.665000,100.265000,162.555000C103.135000,160.466000,104.548000,155.294000,107.996000,154.175000C111.323000,153.094000,115.496000,156.413000,119.179000,156.413000C122.862000,156.413000,127.035000,153.094000,130.362000,154.175000C133.810000,155.294000,135.223000,160.467000,138.093000,162.555000C140.993000,164.665000,146.341000,164.426000,148.450000,167.324000C150.539000,170.194000,148.672000,175.197000,149.792000,178.645000C150.872000,181.972000,155.358000,184.905000,155.358000,188.592000Z" transform="matrix(1 0 0 1 -8.44703911956397 -4.28971290421411)" fill="rgb(174,97,255)" stroke="none" stroke-width="1"/></g></g></g></svg>