<svg id="ejvg6h9nitxl1" xmlns="http://www.w3.org/2000/svg" xmlns:xlink="http://www.w3.org/1999/xlink" viewBox="0 0 400 115" shape-rendering="geometricPrecision" text-rendering="geometricPrecision"><style><![CDATA[#ejvg6h9nitxl6_to {animation: ejvg6h9nitxl6_to__to 2000ms linear infinite normal forwards}@keyframes ejvg6h9nitxl6_to__to { 0% {transform: translate(-119.250000px,-248.750000px);animation-timing-function: cubic-bezier(0.420000,0,0.580000,1)} 50% {transform: translate(-100.395119px,-248px);animation-timing-function: cubic-bezier(0.420000,0,0.580000,1)} 100% {transform: translate(-119.250000px,-248.750000px)} }#ejvg6h9nitxl14_tr {animation: ejvg6h9nitxl14_tr__tr 2000ms linear infinite normal forwards}@keyframes ejvg6h9nitxl14_tr__tr { 0% {transform: translate(187.500000px,320.545389px) rotate(-20deg);animation-timing-function: cubic-bezier(0.420000,0,0.580000,1)} 50% {transform: translate(187.500000px,320.545389px) rotate(20deg);animation-timing-function: cubic-bezier(0.420000,0,0.580000,1)} 100% {transform: translate(187.500000px,320.545389px) rotate(-20deg)} }#ejvg6h9nitxl27_ts {animation: ejvg6h9nitxl27_ts__ts 2000ms linear infinite normal forwards}@keyframes ejvg6h9nitxl27_ts__ts { 0% {transform: translate(291px,508.704420px) scale(1,1);animation-timing-function: cubic-bezier(0.420000,0,0.580000,1)} 50% {transform: translate(291px,508.704420px) scale(0.395075,1);animation-timing-function: cubic-bezier(0.420000,0,0.580000,1)} 100% {transform: translate(291px,508.704420px) scale(1,1)} }#ejvg6h9nitxl38_tr {animation: ejvg6h9nitxl38_tr__tr 2000ms linear infinite normal forwards}@keyframes ejvg6h9nitxl38_tr__tr { 0% {transform: translate(180.500000px,273px) rotate(-20deg);animation-timing-function: cubic-bezier(0.420000,0,0.580000,1)} 50% {transform: translate(180.500000px,273px) rotate(20deg);animation-timing-function: cubic-bezier(0.420000,0,0.580000,1)} 100% {transform: translate(180.500000px,273px) rotate(-20deg)} }#ejvg6h9nitxl39 {animation: ejvg6h9nitxl39_s_do 2000ms linear infinite normal forwards}@keyframes ejvg6h9nitxl39_s_do { 0% {stroke-dashoffset: 81.050000} 100% {stroke-dashoffset: 324.200000} }#ejvg6h9nitxl40 {animation: ejvg6h9nitxl40_s_do 2000ms linear infinite normal forwards}@keyframes ejvg6h9nitxl40_s_do { 0% {stroke-dashoffset: 81.050000} 100% {stroke-dashoffset: 324.200000} }#ejvg6h9nitxl41 {animation: ejvg6h9nitxl41_s_do 2000ms linear infinite normal forwards}@keyframes ejvg6h9nitxl41_s_do { 0% {stroke-dashoffset: 81.050000} 100% {stroke-dashoffset: 324.200000} }]]></style><defs><clipPath id="ejvg6h9nitxl2"><path id="ejvg6h9nitxl3" d="M120,239.906000C120,233.831000,121.876000,228.004000,125.215000,223.709000C128.555000,219.413000,133.084000,217,137.807000,217C160.065000,217,197.935000,217,220.193000,217C224.916000,217,229.445000,219.413000,232.785000,223.709000C236.124000,228.004000,238,233.831000,238,239.906000L238,282L400,282L400,337.265000C400,351.478000,391.043000,363,379.993000,363C328.449000,363,191.551000,363,140.007000,363C128.957000,363,120,351.478000,120,337.265000C120,309.691000,120,266.337000,120,239.906000Z" clip-rule="evenodd" fill="rgb(0,0,0)" fill-rule="evenodd" stroke="none" stroke-width="1" stroke-linecap="round" stroke-linejoin="round" stroke-miterlimit="1.500000"/></clipPath><clipPath id="ejvg6h9nitxl4"><path id="ejvg6h9nitxl5" d="M291,499.500000C291,494.809000,287.191000,491,282.500000,491L242.500000,491C237.809000,491,234,494.809000,234,499.500000L234,516.500000C234,521.191000,237.809000,525,242.500000,525L282.500000,525C287.191000,525,291,521.191000,291,516.500000L291,499.500000Z" clip-rule="evenodd" fill="rgb(0,0,0)" fill-rule="evenodd" stroke="none" stroke-width="1" stroke-linecap="round" stroke-linejoin="round" stroke-miterlimit="1.500000"/></clipPath></defs><g id="ejvg6h9nitxl6_to" transform="translate(-119.250000,-248.750000)"><g id="ejvg6h9nitxl6" transform="translate(0,0)" clip-rule="evenodd"><g id="ejvg6h9nitxl7" transform="matrix(1 0 0 0.77739700000000 0 80.80480000000000)" clip-rule="evenodd"><path id="ejvg6h9nitxl8" d="M120,239.906000C120,233.831000,121.876000,228.004000,125.215000,223.709000C128.555000,219.413000,133.084000,217,137.807000,217C160.065000,217,197.935000,217,220.193000,217C224.916000,217,229.445000,219.413000,232.785000,223.709000C236.124000,228.004000,238,233.831000,238,239.906000L238,282L400,282L400,337.265000C400,351.478000,391.043000,363,379.993000,363C328.449000,363,191.551000,363,140.007000,363C128.957000,363,120,351.478000,120,337.265000C120,309.691000,120,266.337000,120,239.906000Z" clip-rule="evenodd" fill="rgb(0,0,0)" fill-rule="evenodd" stroke="none" stroke-width="1" stroke-linecap="round" stroke-linejoin="round" stroke-miterlimit="1.500000"/><g id="ejvg6h9nitxl9" clip-path="url(#ejvg6h9nitxl2)" clip-rule="evenodd"><g id="ejvg6h9nitxl10" transform="matrix(1 0 0 1.28634000000000 0 -111.66100000000000)" clip-rule="evenodd"><rect id="ejvg6h9nitxl11" width="139" height="41" rx="0" ry="0" transform="matrix(1 0 0 1 111 238)" clip-rule="evenodd" fill="rgb(255,255,255)" fill-rule="evenodd" stroke="none" stroke-width="1" stroke-linecap="round" stroke-linejoin="round" stroke-miterlimit="1.500000"/></g></g><path id="ejvg6h9nitxl12" d="M120,239.906000C120,233.831000,121.876000,228.004000,125.215000,223.709000C128.555000,219.413000,133.084000,217,137.807000,217C160.065000,217,197.935000,217,220.193000,217C224.916000,217,229.445000,219.413000,232.785000,223.709000C236.124000,228.004000,238,233.831000,238,239.906000L238,282L400,282L400,337.265000C400,351.478000,391.043000,363,379.993000,363C328.449000,363,191.551000,363,140.007000,363C128.957000,363,120,351.478000,120,337.265000C120,309.691000,120,266.337000,120,239.906000Z" clip-rule="evenodd" fill="none" fill-rule="evenodd" stroke="rgb(255,255,255)" stroke-width="1.670000" stroke-linecap="round" stroke-linejoin="round" stroke-miterlimit="1.500000"/></g><g id="ejvg6h9nitxl13" transform="matrix(-1 0 -0 -0.78571400000000 368 524.85699999999997)" clip-rule="evenodd"><g id="ejvg6h9nitxl14_tr" transform="translate(187.500000,320.545389) rotate(-20)"><path id="ejvg6h9nitxl14" d="M193.562000,300.500000C194.177000,299.436000,194.500000,298.229000,194.500000,297C194.500000,293.137000,191.363000,290,187.500000,290C183.637000,290,180.500000,293.137000,180.500000,297C180.500000,298.229000,180.823000,299.436000,181.438000,300.500000L193.562000,300.500000Z" transform="translate(-187.500000,-320.545389)" clip-rule="evenodd" fill="rgb(255,255,255)" fill-rule="evenodd" stroke="rgb(255,255,255)" stroke-width="1.670000" stroke-linecap="round" stroke-linejoin="round" stroke-miterlimit="1.500000"/></g></g><g id="ejvg6h9nitxl15" transform="matrix(1 0 0 1 -4.67449000000000 1.52757000000000)" clip-rule="evenodd"><path id="ejvg6h9nitxl16" d="M165.550000,323.693000C165.292000,323.672000,165.031000,323.672000,164.772000,323.693000C164.820000,324.257000,164.820000,324.820000,164.772000,325.384000C164.514000,325.418000,164.262000,325.485000,164.021000,325.585000C163.698000,325.121000,163.417000,324.633000,163.176000,324.121000C162.941000,324.232000,162.715000,324.362000,162.502000,324.510000C162.825000,324.975000,163.106000,325.462000,163.347000,325.974000C163.140000,326.133000,162.955000,326.317000,162.797000,326.524000C162.285000,326.283000,161.797000,326.002000,161.333000,325.679000C161.185000,325.892000,161.055000,326.118000,160.944000,326.353000C161.456000,326.594000,161.944000,326.875000,162.408000,327.198000C162.308000,327.439000,162.240000,327.691000,162.206000,327.950000C161.643000,327.997000,161.080000,327.997000,160.516000,327.950000C160.495000,328.208000,160.495000,328.469000,160.516000,328.728000C161.080000,328.680000,161.643000,328.680000,162.206000,328.728000C162.240000,328.986000,162.308000,329.238000,162.408000,329.479000C161.944000,329.802000,161.456000,330.083000,160.944000,330.324000C161.055000,330.559000,161.185000,330.785000,161.333000,330.998000C161.797000,330.675000,162.285000,330.394000,162.797000,330.153000C162.955000,330.360000,163.140000,330.545000,163.347000,330.703000C163.106000,331.215000,162.825000,331.703000,162.502000,332.167000C162.715000,332.315000,162.941000,332.445000,163.176000,332.556000C163.417000,332.044000,163.698000,331.556000,164.021000,331.092000C164.262000,331.192000,164.514000,331.260000,164.772000,331.294000C164.820000,331.857000,164.820000,332.420000,164.772000,332.984000C165.031000,333.005000,165.292000,333.005000,165.550000,332.984000C165.503000,332.420000,165.503000,331.857000,165.550000,331.294000C165.809000,331.260000,166.061000,331.192000,166.302000,331.092000C166.625000,331.556000,166.906000,332.044000,167.147000,332.556000C167.382000,332.445000,167.608000,332.315000,167.821000,332.167000C167.498000,331.703000,167.217000,331.215000,166.976000,330.703000C167.183000,330.545000,167.367000,330.360000,167.526000,330.153000C168.038000,330.394000,168.525000,330.675000,168.990000,330.998000C169.138000,330.785000,169.268000,330.559000,169.379000,330.324000C168.867000,330.083000,168.379000,329.802000,167.915000,329.479000C168.015000,329.238000,168.082000,328.986000,168.116000,328.728000C168.680000,328.680000,169.243000,328.680000,169.807000,328.728000C169.828000,328.469000,169.828000,328.208000,169.807000,327.950000C169.243000,327.997000,168.680000,327.997000,168.116000,327.950000C168.082000,327.691000,168.015000,327.439000,167.915000,327.198000C168.379000,326.875000,168.867000,326.594000,169.379000,326.353000C169.268000,326.118000,169.138000,325.892000,168.990000,325.679000C168.525000,326.002000,168.038000,326.283000,167.526000,326.524000C167.367000,326.317000,167.183000,326.133000,166.976000,325.974000C167.217000,325.462000,167.498000,324.975000,167.821000,324.510000C167.608000,324.362000,167.382000,324.232000,167.147000,324.121000C166.906000,324.633000,166.625000,325.121000,166.302000,325.585000C166.061000,325.485000,165.809000,325.418000,165.550000,325.384000C165.503000,324.820000,165.503000,324.257000,165.550000,323.693000ZM165.161000,327.406000C165.676000,327.406000,166.094000,327.824000,166.094000,328.339000C166.094000,328.853000,165.676000,329.271000,165.161000,329.271000C164.647000,329.271000,164.229000,328.853000,164.229000,328.339000C164.229000,327.824000,164.647000,327.406000,165.161000,327.406000Z" clip-rule="evenodd" fill="rgb(255,255,255)" fill-rule="evenodd" stroke="none" stroke-width="1" stroke-linecap="round" stroke-linejoin="round" stroke-miterlimit="1.500000"/></g><path id="ejvg6h9nitxl17" d="M238,300L238,363" clip-rule="evenodd" fill="none" fill-rule="evenodd" stroke="rgb(255,255,255)" stroke-width="1.500000" stroke-linecap="round" stroke-linejoin="round" stroke-miterlimit="1.500000"/><g id="ejvg6h9nitxl18" transform="matrix(1 0 0 1 67.66810000000000 -176.50000000000000)" clip-rule="evenodd"><path id="ejvg6h9nitxl19" d="M291,499.500000C291,494.809000,287.191000,491,282.500000,491L242.500000,491C237.809000,491,234,494.809000,234,499.500000L234,516.500000C234,521.191000,237.809000,525,242.500000,525L282.500000,525C287.191000,525,291,521.191000,291,516.500000L291,499.500000Z" clip-rule="evenodd" fill="rgb(0,0,0)" fill-rule="evenodd" stroke="none" stroke-width="1" stroke-linecap="round" stroke-linejoin="round" stroke-miterlimit="1.500000"/><g id="ejvg6h9nitxl20" clip-path="url(#ejvg6h9nitxl4)" clip-rule="evenodd"><g id="ejvg6h9nitxl21" transform="matrix(1 0 0 1 -67.66810000000000 176.50000000000000)" clip-rule="evenodd"><circle id="ejvg6h9nitxl22" r="8.500000" transform="matrix(1 0 0 1 301.66800000000001 331.50000000000000)" clip-rule="evenodd" fill="rgb(0,0,0)" fill-rule="evenodd" stroke="rgb(255,255,255)" stroke-width="0.970000" stroke-linecap="round" stroke-linejoin="round" stroke-miterlimit="1.500000"/></g></g><path id="ejvg6h9nitxl23" d="M291,499.500000C291,494.809000,287.191000,491,282.500000,491L242.500000,491C237.809000,491,234,494.809000,234,499.500000L234,516.500000C234,521.191000,237.809000,525,242.500000,525L282.500000,525C287.191000,525,291,521.191000,291,516.500000L291,499.500000Z" clip-rule="evenodd" fill="none" fill-rule="evenodd" stroke="rgb(255,255,255)" stroke-width="1.500000" stroke-linecap="round" stroke-linejoin="round" stroke-miterlimit="1.500000"/></g><g id="ejvg6h9nitxl24" transform="matrix(1 0 0 1 67.66810000000000 -176.50000000000000)" clip-rule="evenodd"><path id="ejvg6h9nitxl25" d="M274,491L274,525" clip-rule="evenodd" fill="none" fill-rule="evenodd" stroke="rgb(255,255,255)" stroke-width="1.500000" stroke-linecap="round" stroke-linejoin="round" stroke-miterlimit="1.500000"/></g><g id="ejvg6h9nitxl26" transform="matrix(1 0 0 1 67.66810000000000 -176.50000000000000)" clip-rule="evenodd"><g id="ejvg6h9nitxl27_ts" transform="translate(291,508.704420) scale(1,1)"><path id="ejvg6h9nitxl27" d="M291,498C291,498,319.745000,495.415000,310,503C302.232000,509.046000,303.899000,509.520000,312,512.500000C322.418000,516.333000,309.114000,520.737000,291,520" transform="translate(-291,-508.704420)" clip-rule="evenodd" fill="rgb(255,255,255)" fill-rule="evenodd" stroke="none" stroke-width="1" stroke-linecap="round" stroke-linejoin="round" stroke-miterlimit="1.500000"/></g></g><g id="ejvg6h9nitxl28" transform="matrix(0.99159700000000 0 0 1 1.00840000000000 0)" clip-rule="evenodd"><path id="ejvg6h9nitxl29" d="M239,343.582000L120,343.582000" clip-rule="evenodd" fill="none" fill-rule="evenodd" stroke="rgb(255,255,255)" stroke-width="1.510000" stroke-linecap="round" stroke-linejoin="round" stroke-miterlimit="1.500000"/></g><g id="ejvg6h9nitxl30" transform="matrix(1 0 0 1 -2 0)" clip-rule="evenodd"><path id="ejvg6h9nitxl31" d="M150,343.582000L150,249.500000" clip-rule="evenodd" fill="none" fill-rule="evenodd" stroke="rgb(255,255,255)" stroke-width="1.500000" stroke-linecap="round" stroke-linejoin="round" stroke-miterlimit="1.500000"/></g><path id="ejvg6h9nitxl32" d="M211,343.582000L211,249.500000" clip-rule="evenodd" fill="none" fill-rule="evenodd" stroke="rgb(255,255,255)" stroke-width="1.500000" stroke-linecap="round" stroke-linejoin="round" stroke-miterlimit="1.500000"/><g id="ejvg6h9nitxl33" transform="matrix(1 0 0 1 5 3.20463000000000)" clip-rule="evenodd"><circle id="ejvg6h9nitxl34" r="4" transform="matrix(1 0 0 1 170 326)" clip-rule="evenodd" fill="rgb(255,255,255)" fill-rule="evenodd" stroke="none" stroke-width="1" stroke-linecap="round" stroke-linejoin="round" stroke-miterlimit="1.500000"/></g><g id="ejvg6h9nitxl35" transform="matrix(0.95974500000000 0 0 1.42211000000000 11.84340000000000 -125.71500000000000)" clip-rule="evenodd"><circle id="ejvg6h9nitxl36" r="4" transform="matrix(1 0 0 1 170 326)" clip-rule="evenodd" fill="rgb(255,255,255)" fill-rule="evenodd" stroke="none" stroke-width="1" stroke-linecap="round" stroke-linejoin="round" stroke-miterlimit="1.500000"/></g><path id="ejvg6h9nitxl37" d="M162.663000,343.420000C162.884000,342.636000,163,341.746000,163,340.840000C163,337.993000,161.874000,335.681000,160.487000,335.681000C159.100000,335.681000,157.974000,337.993000,157.974000,340.840000C157.974000,341.746000,158.090000,342.636000,158.311000,343.420000L162.663000,343.420000Z" clip-rule="evenodd" fill="rgb(255,255,255)" fill-rule="evenodd" stroke="none" stroke-width="1" stroke-linecap="round" stroke-linejoin="round" stroke-miterlimit="1.500000"/><g id="ejvg6h9nitxl38_tr" transform="translate(180.500000,273) rotate(-20)"><path id="ejvg6h9nitxl38" d="M180.500000,273L180.500000,290" transform="translate(-180.500000,-273)" clip-rule="evenodd" fill="none" fill-rule="evenodd" stroke="rgb(255,255,255)" stroke-width="1.500000" stroke-linecap="round" stroke-linejoin="round" stroke-miterlimit="1.500000"/></g></g></g><line id="ejvg6h9nitxl39" x1="22.830000" y1="50" x2="103.883107" y2="50" transform="matrix(-1 -0 0 -1 281.10298099999983 87.91899511000005)" fill="none" stroke="rgb(255,255,255)" stroke-width="2" stroke-linecap="round" stroke-miterlimit="10" stroke-dashoffset="81.050000" stroke-dasharray="20.262500"/><line id="ejvg6h9nitxl40" x1="22.830000" y1="50" x2="103.883107" y2="50" transform="matrix(-1 -0 0 -1 412.05598799999979 108.24993000000003)" fill="none" stroke="rgb(255,255,255)" stroke-width="2" stroke-linecap="round" stroke-miterlimit="10" stroke-dashoffset="81.050000" stroke-dasharray="20.262500"/><line id="ejvg6h9nitxl41" x1="22.830000" y1="50" x2="103.883107" y2="50" transform="matrix(-1 -0 0 -1 412.05598799999979 137.68100000000004)" fill="none" stroke="rgb(255,255,255)" stroke-width="2" stroke-linecap="round" stroke-miterlimit="10" stroke-dashoffset="81.050000" stroke-dasharray="20.262500"/></svg>