<svg id="esov3xttaz1g1" xmlns="http://www.w3.org/2000/svg" xmlns:xlink="http://www.w3.org/1999/xlink" viewBox="0 0 756.010000 168.500000" shape-rendering="geometricPrecision" text-rendering="geometricPrecision"><style><![CDATA[#esov3xttaz1g12_tr {animation: esov3xttaz1g12_tr__tr 2000ms linear infinite alternate-reverse forwards}@keyframes esov3xttaz1g12_tr__tr { 0% {transform: translate(126.090249px,27.769679px) rotate(0deg)} 100% {transform: translate(126.090249px,27.769679px) rotate(7.008562deg)} }]]></style><g id="esov3xttaz1g2"><g id="esov3xttaz1g3"><path id="esov3xttaz1g4" d="M0,168.500000L0,95.210000L0.770000,95C1.450000,94.840000,69.680000,79,177.570000,79C195.660000,79,214.100000,79.450000,232.380000,80.330000L232.500000,80.330000L232.610000,80.330000C233.910000,80.710000,364.610000,118.080000,486.200000,118.080000L486.200000,118.080000C516.950000,118.080000,544.870000,115.690000,569.200000,110.970000L569.290000,110.970000L569.390000,110.970000C680,110.610000,754.060000,95.180000,754.790000,95L756.010000,94.750000L755.490000,168.480000Z" fill="rgb(255,255,255)" stroke="none" stroke-width="1"/><path id="esov3xttaz1g5" d="M755,96L754.500000,167.500000L1,167.500000L1,96C1,96,91.610000,74.540000,232.330000,81.330000C232.330000,81.330000,431.140000,138.810000,569.410000,111.990000C681.350000,111.600000,755,96,755,96Z" fill="rgb(255,255,255)" stroke="none" stroke-width="1"/><path id="esov3xttaz1g6" d="M129.850000,54.750000C128.318598,54.737988,126.928476,53.852659,126.270000,52.470000L119.420000,37.740000L126.570000,34.420000L133.420000,49.150000C133.862207,50.096552,133.909319,51.180224,133.550927,52.161581C133.192534,53.142939,132.458137,53.941203,131.510000,54.380000C130.991727,54.627165,130.424181,54.753666,129.850000,54.750000Z" fill="rgb(255,255,255)" stroke="none" stroke-width="1"/><path id="esov3xttaz1g7" d="M124.310000,36.140000L130.200000,36.140000L130.200000,51.380000C130.200000,53.003717,128.883717,54.320000,127.260000,54.320000L127.260000,54.320000C125.636283,54.320000,124.320000,53.003717,124.320000,51.380000L124.320000,36.140000Z" transform="matrix(0.90660300000000 -0.42198500000000 0.42198500000000 0.90660300000000 -7.20000000000000 57.93000000000000)" fill="rgb(255,255,255)" stroke="none" stroke-width="1"/><polygon id="esov3xttaz1g8" points="119.880000,86.360000 118.010000,85.660000 131.490000,49.540000 137.090000,85.860000 135.110000,86.160000 130.680000,57.420000 119.880000,86.360000" fill="none" stroke="rgb(255,255,255)" stroke-width="3" stroke-miterlimit="10"/><polyline id="esov3xttaz1g9" points="118.940000,86.010000 131.090000,53.480000 136.100000,86.010000" fill="none" stroke="rgb(255,255,255)" stroke-width="3" stroke-miterlimit="10"/><rect id="esov3xttaz1g10" width="2" height="34.580000" rx="0" ry="0" transform="matrix(0.93636600000000 -0.35102500000000 0.35102500000000 0.93636600000000 130.04544780000001 53.99971838999999)" fill="none" stroke="rgb(255,255,255)" stroke-width="3" stroke-miterlimit="10"/><line id="esov3xttaz1g11" x1="130.980000" y1="53.640000" x2="143.120000" y2="86.020000" fill="none" stroke="rgb(255,255,255)" stroke-width="3" stroke-miterlimit="10"/><g id="esov3xttaz1g12_tr" transform="translate(126.090249,27.769679) rotate(7.008562)"><g id="esov3xttaz1g12" transform="translate(-126.090249,-27.769679)"><path id="esov3xttaz1g13" d="M167.720000,28.780000C167.377635,28.780640,167.038272,28.716162,166.720000,28.590000C166.070525,28.340721,165.552991,27.834045,165.290000,27.190000L156.050000,5.820000L155.110000,3.640000C154.545607,2.319979,155.153240,0.791960,156.470000,0.220000C156.784401,0.077904,157.124992,0.002974,157.470000,0C158.510062,0.002741,159.450814,0.618149,159.870000,1.570000L170.070000,25.140000C170.631810,26.457472,170.036116,27.982272,168.730000,28.570000C168.409524,28.702855,168.066873,28.774099,167.720000,28.780000Z" fill="rgb(255,255,255)" stroke="none" stroke-width="1"/><path id="esov3xttaz1g14" d="M168.350000,27.650000C167.955526,27.809572,167.514474,27.809572,167.120000,27.650000C166.723162,27.498313,166.405354,27.191340,166.240000,26.800000L165.330000,24.700000L157,5.420000L156,3.240000C155.778495,2.704102,155.859715,2.090740,156.213064,1.630962C156.566414,1.171184,157.138210,0.934841,157.713064,1.010962C158.287918,1.087082,158.778495,1.464102,159,2L169.200000,25.570000C169.533074,26.379117,169.154414,27.305722,168.350000,27.650000Z" fill="rgb(255,255,255)" stroke="none" stroke-width="0"/><path id="esov3xttaz1g15" d="M87.240000,53.320000C86.557954,53.324855,85.934510,52.935203,85.640000,52.320000L82.350000,44.730000C81.971402,43.846202,82.372124,42.822134,83.250000,42.430000L84.640000,41.830000C84.857151,41.732819,85.092101,41.681743,85.330000,41.680000C85.938993,41.681669,86.503325,41.999816,86.820000,42.520000L103.610000,35.250000L103.110000,34.100000C102.929443,33.668112,102.929443,33.181888,103.110000,32.750000C103.278195,32.320223,103.613898,31.977300,104.040000,31.800000L125.160000,22.650000L124.160000,20.470000C123.787157,19.586119,124.186294,18.566101,125.060000,18.170000L157.450000,4.170000L166.610000,25.290000L134.220000,39.290000C133.999148,39.386625,133.761053,39.437646,133.520000,39.440000C132.819169,39.440342,132.187369,39.017826,131.920000,38.370000L130.920000,36.200000L109.800000,45.350000C108.910767,45.726115,107.884538,45.315623,107.500000,44.430000L107,43.290000L90.310000,50.520000C90.525563,51.358845,90.102441,52.230476,89.310000,52.580000L87.930000,53.180000C87.712114,53.273745,87.477193,53.321410,87.240000,53.320000Z" fill="rgb(255,255,255)" stroke="none" stroke-width="1"/><path id="esov3xttaz1g16" d="M165.330000,24.710000L133.860000,38.330000C133.676355,38.416351,133.465307,38.423495,133.276243,38.349760C133.087180,38.276026,132.936693,38.127883,132.860000,37.940000L131.860000,35.530000C131.781042,35.344022,131.630387,35.197768,131.442151,35.124356C131.253915,35.050944,131.044022,35.056585,130.860000,35.140000L109.500000,44.390000C109.315978,44.473415,109.106085,44.479056,108.917849,44.405644C108.729613,44.332232,108.578958,44.185978,108.500000,44L107.900000,42.620000C107.731132,42.236601,107.283850,42.062162,106.900000,42.230000L89.700000,49.690000C89.512117,49.766693,89.363974,49.917180,89.290240,50.106243C89.216505,50.295307,89.223649,50.506355,89.310000,50.690000C89.477838,51.073850,89.303399,51.521132,88.920000,51.690000L87.540000,52.290000C87.156150,52.457838,86.708868,52.283399,86.540000,51.900000L83.260000,44.320000C83.176585,44.135978,83.170944,43.926085,83.244356,43.737849C83.317768,43.549613,83.464022,43.398958,83.650000,43.320000L85,42.700000C85.185282,42.617158,85.396229,42.612944,85.584671,42.688322C85.773114,42.763699,85.922962,42.912230,86,43.100000C86.168868,43.483399,86.616150,43.657838,87,43.490000L104.230000,36C104.415935,35.920770,104.562653,35.770742,104.637716,35.583086C104.712778,35.395430,104.710001,35.185604,104.630000,35L104.030000,33.620000C103.946585,33.435978,103.940944,33.226085,104.014356,33.037849C104.087768,32.849613,104.234022,32.698958,104.420000,32.620000L125.780000,23.370000C126.163399,23.201132,126.337838,22.753850,126.170000,22.370000L125.170000,19.960000C125.002162,19.576150,125.176601,19.128868,125.560000,18.960000L157,5.420000Z" fill="rgb(255,255,255)" stroke="none" stroke-width="1" stroke-opacity="0.93"/></g></g><path id="esov3xttaz1g17" d="M486.200000,120.120000C364.300000,120.120000,233.360000,82.670000,232.050000,82.290000L232.380000,80.290000C278.220337,82.532597,323.891065,87.444253,369.160000,95C433.890649,105.695854,499.391647,111.047243,565,111L569.420000,111L569.610000,113C545.150000,117.720000,517.090000,120.120000,486.200000,120.120000Z" fill="rgb(255,255,255)" stroke="none" stroke-width="1"/><path id="esov3xttaz1g18" d="M569.410000,112C431.140000,138.810000,232.330000,81.330000,232.330000,81.330000C278.133526,83.553698,323.767974,88.452047,369,96C435.237101,106.938606,502.276386,112.290777,569.410000,112Z" fill="rgb(255,255,255)" stroke="none" stroke-width="1"/><path id="esov3xttaz1g19" d="M316.270000,168.460000C221.150000,141.820000,146.720000,143.220000,101,149.090000C51.500000,155.450000,24.140000,168.280000,23.870000,168.400000L23,166.600000C23.270000,166.470000,50.850000,153.530000,100.630000,147.120000C146.520000,141.210000,221.270000,139.790000,316.770000,166.540000Z" fill="rgb(255,255,255)" stroke="none" stroke-width="1"/><path id="esov3xttaz1g20" d="M23.470000,167.500000C23.470000,167.500000,131.970000,115.800000,316.540000,167.500000" fill="rgb(255,255,255)" stroke="none" stroke-width="1"/><path id="esov3xttaz1g21" d="M620.330000,147.130000L620.330000,146.130000C620.330000,130.690000,629.790000,118.130000,641.420000,118.130000C645.023985,118.178463,648.521798,119.357226,651.420000,121.500000C657.366580,117.006486,665.573420,117.006486,671.520000,121.500000C674.415341,119.351747,677.914977,118.172370,681.520000,118.130000C693.150000,118.130000,702.610000,130.700000,702.610000,146.130000L702.610000,147.130000Z" fill="rgb(255,255,255)" stroke="none" stroke-width="1"/><path id="esov3xttaz1g22" d="M701.690000,146.130000L621.330000,146.130000C621.330000,131.210000,630.330000,119.130000,641.420000,119.130000C645.064872,119.181632,648.586675,120.456525,651.420000,122.750000C657.250631,117.923086,665.689369,117.923086,671.520000,122.750000C674.351773,120.453777,677.874561,119.178528,681.520000,119.130000C692.690000,119.120000,701.690000,131.210000,701.690000,146.130000Z" fill="rgb(255,255,255)" stroke="none" stroke-width="1"/><path id="esov3xttaz1g23" d="M409,114.730000L409,113.730000C409,105.730000,414,99.230000,420.050000,99.230000C421.835507,99.245753,423.575977,99.792260,425.050000,100.800000C428.060389,98.724927,432.039611,98.724927,435.050000,100.800000C436.524023,99.792260,438.264493,99.245753,440.050000,99.230000C446.140000,99.230000,451.050000,105.730000,451.050000,113.730000L451.050000,114.730000Z" fill="rgb(255,255,255)" stroke="none" stroke-width="1"/><path id="esov3xttaz1g24" d="M450.180000,113.730000L410,113.730000C410,106.270000,414.500000,100.230000,420.050000,100.230000C421.873289,100.251134,423.635680,100.889120,425.050000,102.040000C427.954961,99.650098,432.145039,99.650098,435.050000,102.040000C436.464714,100.889814,438.226854,100.251920,440.050000,100.230000C445.680000,100.230000,450.180000,106.270000,450.180000,113.730000Z" fill="rgb(255,255,255)" stroke="none" stroke-width="1"/></g></g></svg>