<svg id="eiiedf1n7a5e1" xmlns="http://www.w3.org/2000/svg" xmlns:xlink="http://www.w3.org/1999/xlink" viewBox="0 0 490 200" shape-rendering="geometricPrecision" text-rendering="geometricPrecision"><style><![CDATA[#eiiedf1n7a5e8_ts {animation: eiiedf1n7a5e8_ts__ts 3000ms linear infinite normal forwards}@keyframes eiiedf1n7a5e8_ts__ts { 0% {transform: translate(275.874297px,108.198697px) scale(1,1)} 33.333333% {transform: translate(275.874297px,108.198697px) scale(1,1);animation-timing-function: cubic-bezier(0.420000,0,0.580000,1)} 66.666667% {transform: translate(275.874297px,108.198697px) scale(-1,1);animation-timing-function: cubic-bezier(0.420000,0,0.580000,1)} 100% {transform: translate(275.874297px,108.198697px) scale(1,1)} }#eiiedf1n7a5e9 {animation: eiiedf1n7a5e9_f_p 3000ms linear infinite normal forwards}@keyframes eiiedf1n7a5e9_f_p { 0% {fill: rgb(192,96,255)} 16.666667% {fill: rgb(192,96,255);animation-timing-function: cubic-bezier(0.470000,0,0.745000,0.715000)} 33.333333% {fill: rgb(236,208,255)} 50% {fill: rgb(192,96,255)} 100% {fill: rgb(192,96,255)} }#eiiedf1n7a5e11_ts {animation: eiiedf1n7a5e11_ts__ts 3000ms linear infinite normal forwards}@keyframes eiiedf1n7a5e11_ts__ts { 0% {transform: translate(28.312388px,168.852253px) scale(1,1);animation-timing-function: cubic-bezier(0.420000,0,0.580000,1)} 33.333333% {transform: translate(28.312388px,168.852253px) scale(-1,1);animation-timing-function: cubic-bezier(0.420000,0,0.580000,1)} 66.666667% {transform: translate(28.312388px,168.852253px) scale(1,1)} 100% {transform: translate(28.312388px,168.852253px) scale(1,1)} }#eiiedf1n7a5e12 {animation: eiiedf1n7a5e12_f_p 3000ms linear infinite normal forwards}@keyframes eiiedf1n7a5e12_f_p { 0% {fill: rgb(192,96,255)} 40% {fill: rgb(192,96,255);animation-timing-function: cubic-bezier(0.470000,0,0.745000,0.715000)} 56.666667% {fill: rgb(236,208,255)} 73.333333% {fill: rgb(192,96,255)} 100% {fill: rgb(192,96,255)} }]]></style><defs><filter id="eiiedf1n7a5e8-filter" x="-400%" width="600%" y="-400%" height="600%"><feGaussianBlur id="eiiedf1n7a5e8-filter-drop-shadow-0-blur" in="SourceAlpha" stdDeviation="4,4"/><feOffset id="eiiedf1n7a5e8-filter-drop-shadow-0-offset" dx="0" dy="0" result="tmp"/><feFlood id="eiiedf1n7a5e8-filter-drop-shadow-0-flood" flood-color="rgb(192,97,255)"/><feComposite id="eiiedf1n7a5e8-filter-drop-shadow-0-composite" operator="in" in2="tmp"/><feMerge id="eiiedf1n7a5e8-filter-drop-shadow-0-merge"><feMergeNode id="eiiedf1n7a5e8-filter-drop-shadow-0-merge-node-1"/><feMergeNode id="eiiedf1n7a5e8-filter-drop-shadow-0-merge-node-2" in="SourceGraphic"/></feMerge></filter><filter id="eiiedf1n7a5e9-filter" x="-400%" width="600%" y="-400%" height="600%"><feGaussianBlur id="eiiedf1n7a5e9-filter-drop-shadow-0-blur" in="SourceAlpha" stdDeviation="4,4"/><feOffset id="eiiedf1n7a5e9-filter-drop-shadow-0-offset" dx="0" dy="0" result="tmp"/><feFlood id="eiiedf1n7a5e9-filter-drop-shadow-0-flood" flood-color="rgb(192,97,255)"/><feComposite id="eiiedf1n7a5e9-filter-drop-shadow-0-composite" operator="in" in2="tmp"/><feMerge id="eiiedf1n7a5e9-filter-drop-shadow-0-merge"><feMergeNode id="eiiedf1n7a5e9-filter-drop-shadow-0-merge-node-1"/><feMergeNode id="eiiedf1n7a5e9-filter-drop-shadow-0-merge-node-2" in="SourceGraphic"/></feMerge></filter><filter id="eiiedf1n7a5e10-filter" x="-400%" width="600%" y="-400%" height="600%"><feGaussianBlur id="eiiedf1n7a5e10-filter-drop-shadow-0-blur" in="SourceAlpha" stdDeviation="4,4"/><feOffset id="eiiedf1n7a5e10-filter-drop-shadow-0-offset" dx="0" dy="0" result="tmp"/><feFlood id="eiiedf1n7a5e10-filter-drop-shadow-0-flood" flood-color="rgb(192,97,255)"/><feComposite id="eiiedf1n7a5e10-filter-drop-shadow-0-composite" operator="in" in2="tmp"/><feMerge id="eiiedf1n7a5e10-filter-drop-shadow-0-merge"><feMergeNode id="eiiedf1n7a5e10-filter-drop-shadow-0-merge-node-1"/><feMergeNode id="eiiedf1n7a5e10-filter-drop-shadow-0-merge-node-2" in="SourceGraphic"/></feMerge></filter><filter id="eiiedf1n7a5e11-filter" x="-400%" width="600%" y="-400%" height="600%"><feGaussianBlur id="eiiedf1n7a5e11-filter-drop-shadow-0-blur" in="SourceAlpha" stdDeviation="4,4"/><feOffset id="eiiedf1n7a5e11-filter-drop-shadow-0-offset" dx="0" dy="0" result="tmp"/><feFlood id="eiiedf1n7a5e11-filter-drop-shadow-0-flood" flood-color="rgb(192,97,255)"/><feComposite id="eiiedf1n7a5e11-filter-drop-shadow-0-composite" operator="in" in2="tmp"/><feMerge id="eiiedf1n7a5e11-filter-drop-shadow-0-merge"><feMergeNode id="eiiedf1n7a5e11-filter-drop-shadow-0-merge-node-1"/><feMergeNode id="eiiedf1n7a5e11-filter-drop-shadow-0-merge-node-2" in="SourceGraphic"/></feMerge></filter><filter id="eiiedf1n7a5e12-filter" x="-400%" width="600%" y="-400%" height="600%"><feGaussianBlur id="eiiedf1n7a5e12-filter-drop-shadow-0-blur" in="SourceAlpha" stdDeviation="4,4"/><feOffset id="eiiedf1n7a5e12-filter-drop-shadow-0-offset" dx="0" dy="0" result="tmp"/><feFlood id="eiiedf1n7a5e12-filter-drop-shadow-0-flood" flood-color="rgb(192,97,255)"/><feComposite id="eiiedf1n7a5e12-filter-drop-shadow-0-composite" operator="in" in2="tmp"/><feMerge id="eiiedf1n7a5e12-filter-drop-shadow-0-merge"><feMergeNode id="eiiedf1n7a5e12-filter-drop-shadow-0-merge-node-1"/><feMergeNode id="eiiedf1n7a5e12-filter-drop-shadow-0-merge-node-2" in="SourceGraphic"/></feMerge></filter><filter id="eiiedf1n7a5e13-filter" x="-400%" width="600%" y="-400%" height="600%"><feGaussianBlur id="eiiedf1n7a5e13-filter-drop-shadow-0-blur" in="SourceAlpha" stdDeviation="4,4"/><feOffset id="eiiedf1n7a5e13-filter-drop-shadow-0-offset" dx="0" dy="0" result="tmp"/><feFlood id="eiiedf1n7a5e13-filter-drop-shadow-0-flood" flood-color="rgb(192,97,255)"/><feComposite id="eiiedf1n7a5e13-filter-drop-shadow-0-composite" operator="in" in2="tmp"/><feMerge id="eiiedf1n7a5e13-filter-drop-shadow-0-merge"><feMergeNode id="eiiedf1n7a5e13-filter-drop-shadow-0-merge-node-1"/><feMergeNode id="eiiedf1n7a5e13-filter-drop-shadow-0-merge-node-2" in="SourceGraphic"/></feMerge></filter></defs><rect id="eiiedf1n7a5e2" width="2" height="144.474468" rx="0" ry="0" transform="matrix(1 0 0 1 27.31190321999992 0)" fill="rgb(255,255,255)" stroke="none" stroke-width="1"/><rect id="eiiedf1n7a5e3" width="2" height="150" rx="0" ry="0" transform="matrix(1 0 0 1 108.42253921999998 -60.65355602000005)" fill="rgb(255,255,255)" stroke="none" stroke-width="1"/><rect id="eiiedf1n7a5e4" width="2" height="160.153465" rx="0" ry="0" transform="matrix(1 0 0 1 186.68149652999998 -10.15346499999999)" fill="rgb(255,255,255)" stroke="none" stroke-width="1"/><rect id="eiiedf1n7a5e5" width="2" height="160.153465" rx="0" ry="0" transform="matrix(1 0 0 1 437.40141352999990 -73.49557920000004)" fill="rgb(255,255,255)" stroke="none" stroke-width="1"/><rect id="eiiedf1n7a5e6" width="2" height="144.474468" rx="0" ry="0" transform="matrix(1 0 0 1 274.87381156999993 -60.65355602000004)" fill="rgb(255,255,255)" stroke="none" stroke-width="1"/><rect id="eiiedf1n7a5e7" width="2" height="150" rx="0" ry="0" transform="matrix(1 0 0 1 359.14245621999999 0.00000000000006)" fill="rgb(255,255,255)" stroke="none" stroke-width="1"/><g id="eiiedf1n7a5e8_ts" transform="translate(275.874297,108.198697) scale(1,1)"><path id="eiiedf1n7a5e8" d="M45.902893,28.218166C42.087192,28.214409,38.321424,29.085526,34.894997,30.764571C41.919551,31.889735,47.564682,37.153910,49.177106,44.082867C50.789530,51.011823,48.048564,58.227511,42.242497,62.338464C36.436431,66.449417,28.719989,66.638037,22.720000,62.815672C27.506328,74.457590,40.184309,80.744290,52.348512,77.507725C64.512715,74.271161,72.390047,62.515250,70.757880,50.034095C69.125714,37.552941,58.490315,28.217949,45.902893,28.218166Z" transform="translate(-46.845703,-53.286273)" filter="url(#eiiedf1n7a5e8-filter)" fill="rgb(192,97,255)" stroke="none" stroke-width="1"/></g><path id="eiiedf1n7a5e9" d="M81.500000,55C63.180000,62.280000,57.280000,68.180000,50,86.500000C42.720000,68.180000,36.820000,62.280000,18.500000,55C36.820000,47.720000,42.720000,41.820000,50,23.500000C57.280000,41.820000,63.180000,47.720000,81.500000,55Z" transform="matrix(1 0 0 1 310.14294121999995 107.42037202000000)" filter="url(#eiiedf1n7a5e9-filter)" fill="rgb(192,96,255)" stroke="none" stroke-width="1"/><polygon id="eiiedf1n7a5e10" points="44.950822,29.147312 51.259711,48.560333 71.665988,48.560333 55.157385,60.554758 61.459424,79.967779 44.950822,67.966504 28.442219,79.967779 34.744258,60.554758 18.235655,48.560333 38.641932,48.560333 44.950822,29.147312" transform="matrix(1 0 0 1 393.45107700000000 50.95259329000000)" filter="url(#eiiedf1n7a5e10-filter)" fill="rgb(192,96,255)" stroke="none" stroke-width="1"/><g id="eiiedf1n7a5e11_ts" transform="translate(28.312388,168.852253) scale(1,1)"><path id="eiiedf1n7a5e11" d="M45.902893,28.218166C42.087192,28.214409,38.321424,29.085526,34.894997,30.764571C41.919551,31.889735,47.564682,37.153910,49.177106,44.082867C50.789530,51.011823,48.048564,58.227511,42.242497,62.338464C36.436431,66.449417,28.719989,66.638037,22.720000,62.815672C27.506328,74.457590,40.184309,80.744290,52.348512,77.507725C64.512715,74.271161,72.390047,62.515250,70.757880,50.034095C69.125714,37.552941,58.490315,28.217949,45.902893,28.218166Z" transform="translate(-46.845703,-53.286273)" filter="url(#eiiedf1n7a5e11-filter)" fill="rgb(192,97,255)" stroke="none" stroke-width="1"/></g><path id="eiiedf1n7a5e12" d="M81.500000,55C63.180000,62.280000,57.280000,68.180000,50,86.500000C42.720000,68.180000,36.820000,62.280000,18.500000,55C36.820000,47.720000,42.720000,41.820000,50,23.500000C57.280000,41.820000,63.180000,47.720000,81.500000,55Z" transform="matrix(1 0 0 1 59.42302421999993 46.76681599999992)" filter="url(#eiiedf1n7a5e12-filter)" fill="rgb(192,96,255)" stroke="none" stroke-width="1"/><polygon id="eiiedf1n7a5e13" points="44.950822,29.147312 51.259711,48.560333 71.665988,48.560333 55.157385,60.554758 61.459424,79.967779 44.950822,67.966504 28.442219,79.967779 34.744258,60.554758 18.235655,48.560333 38.641932,48.560333 44.950822,29.147312" transform="matrix(1 0 0 1 142.73115999999999 114.29470749000001)" filter="url(#eiiedf1n7a5e13-filter)" fill="rgb(192,96,255)" stroke="none" stroke-width="1"/></svg>