<svg xmlns="http://www.w3.org/2000/svg" viewBox="0 0 543.99 550.16"><defs><style>.cls-1,.cls-10,.cls-7,.cls-8{fill:none;}.cls-1,.cls-7,.cls-8{stroke:#ffd473;}.cls-1,.cls-8{stroke-miterlimit:10;}.cls-1,.cls-7{stroke-width:2px;}.cls-2{fill:#b5b5b5;}.cls-3{fill:#fff;}.cls-4{fill:#d4b060;}.cls-5{fill:#ffe4a8;}.cls-6{fill:#ffd473;}.cls-7{stroke-linecap:round;stroke-linejoin:round;}.cls-9{fill:#d1d1d1;}.cls-11{fill:#787878;}</style></defs><g id="Layer_2" data-name="Layer 2"><g id="Layer_1-2" data-name="Layer 1"><rect class="cls-1" x="32.33" y="411.6" width="197.65" height="1" transform="translate(-290.13 509.84) rotate(-85.41)"/><line class="cls-1" x1="139.15" y1="313.6" x2="123.15" y2="510.6"/><polygon class="cls-1" points="231.2 340.45 244.81 322.65 542.63 498.13 532.12 515.99 231.2 340.45"/><polygon class="cls-1" points="231.94 340.3 244.94 323.3 541.94 498.3 531.94 515.3 231.94 340.3"/><path class="cls-2" d="M121,319.1a13.35,13.35,0,0,1-13.34-13.34V175.44A13.35,13.35,0,0,1,121,162.1h33.66v157Z"/><path class="cls-2" d="M154.15,318.6H121a12.84,12.84,0,0,1-12.84-12.84V175.44A12.84,12.84,0,0,1,121,162.6h33.16Z"/><path class="cls-3" d="M197.67,387.63c-.28,0-.57-.09-.85-.14-34.3-13.25-59.13-74.18-59.13-144.89,0-39,7.44-75.85,21-103.62s31.68-43.44,51-43.87l.39,0c15.47,6.19,28.29,23.6,37.14,50.39,8.45,25.59,12.92,58.3,12.92,94.59,0,87.41-25.07,146.69-62.39,147.49h-.07Z"/><path class="cls-3" d="M259.63,240.14c0,80.66-22.44,146.14-61.9,147-.27,0-.55-.08-.82-.13-33.44-12.93-58.72-72.66-58.72-144.4,0-80.63,31.93-146.1,71.5-147l.28,0C241.79,108.39,259.63,168.23,259.63,240.14Z"/><polygon class="cls-1" points="541.83 498.79 478.01 484.44 477.91 484.35 407.61 419.74 295.01 377.64 294.89 377.64 294.74 377.49 248.53 327.89 249.27 327.21 295.37 376.71 407.95 418.8 408.05 418.8 408.21 418.93 478.49 483.52 542.05 497.81 541.83 498.79"/><polyline class="cls-1" points="541.94 498.3 478.25 483.98 407.88 419.31 407.87 419.3 407.86 419.3 295.1 377.14 295.09 377.14 295.08 377.13 253.93 332.95 248.9 327.55"/><rect class="cls-1" x="291.14" y="368.4" width="21.14" height="1" transform="translate(-174.84 372.74) rotate(-51.18)"/><line class="cls-1" x1="308.33" y1="360.65" x2="295.09" y2="377.14"/><polygon class="cls-1" points="391.49 433.57 390.85 432.8 407.55 418.92 408.19 419.69 391.49 433.57"/><line class="cls-1" x1="391.17" y1="433.19" x2="407.87" y2="419.3"/><rect class="cls-1" x="474.97" y="475.97" width="20.46" height="1" transform="translate(-194.06 508.92) rotate(-47.21)"/><line class="cls-1" x1="478.25" y1="483.98" x2="492.15" y2="468.96"/><polygon class="cls-1" points="113.24 165.04 109.62 155.67 61.51 29.32 86.42 18.94 144.18 162.41 143.26 162.79 85.88 20.26 62.79 29.88 110.56 155.31 114.18 164.68 113.24 165.04"/><polyline class="cls-1" points="143.72 162.6 86.15 19.6 62.15 29.6 110.09 155.49 113.71 164.86"/><path class="cls-4" d="M68.9,340.1a11.27,11.27,0,0,1-11.25-11.25V155.35A11.27,11.27,0,0,1,68.9,144.1h5.83v196Z"/><path class="cls-4" d="M74.23,144.6v195H68.9a10.75,10.75,0,0,1-10.75-10.75V155.35A10.75,10.75,0,0,1,68.9,144.6Z"/><polygon class="cls-5" points="73.73 173.62 73.73 144.1 93.3 144.1 121.65 162.33 121.65 173.62 73.73 173.62"/><polygon class="cls-5" points="121.15 162.6 121.15 173.12 74.23 173.12 74.23 144.6 93.15 144.6 110.09 155.49 121.15 162.6"/><polygon class="cls-6" points="73.73 340.1 73.73 172.62 121.65 172.62 121.65 318.83 97.34 340.1 73.73 340.1"/><polygon class="cls-6" points="121.15 173.12 121.15 318.6 97.15 339.6 74.23 339.6 74.23 173.12 121.15 173.12"/><polygon class="cls-6" points="114.65 353.1 114.49 325.39 114.49 318.1 131.65 318.1 131.65 353.1 114.65 353.1"/><polygon class="cls-6" points="114.99 325.39 115.15 352.6 131.15 352.6 131.15 318.6 114.99 318.6 114.99 325.39"/><rect class="cls-4" x="100.65" y="352.1" width="45" height="16" rx="4.91"/><path class="cls-4" d="M112.77,352.6h-7.21a4.42,4.42,0,0,0-4.41,4.41v6.18a4.42,4.42,0,0,0,4.41,4.41h35.18a4.42,4.42,0,0,0,4.41-4.41V357a4.42,4.42,0,0,0-4.41-4.41h-28Z"/><polygon class="cls-7" points="110.45 155.84 109.73 155.14 130.78 133.13 97.34 125.03 119.53 105.61 87.96 100.08 107.31 74.54 74.96 65.65 92.88 38.6 62.02 30.08 62.28 29.12 94.48 38.01 76.56 65.05 108.99 73.96 89.75 99.38 121.76 104.98 99.45 124.52 132.7 132.56 110.45 155.84"/><polyline class="cls-7" points="110.09 155.49 131.74 132.84 98.39 124.77 120.65 105.3 88.85 99.73 108.15 74.25 75.76 65.35 93.68 38.31 62.15 29.6"/><polygon class="cls-7" points="142.75 161.21 104.2 142.46 126.27 122.19 93.84 115.66 114.56 92.86 82.75 86.28 101.52 59.98 68.25 47.84 85.72 19.34 86.58 19.86 69.74 47.32 103.1 59.5 84.46 85.61 116.47 92.23 95.76 115.02 128.39 121.59 105.96 142.2 143.19 160.31 142.75 161.21"/><polyline class="cls-7" points="86.15 19.6 69 47.58 102.31 59.74 83.61 85.94 115.51 92.54 94.8 115.34 127.33 121.89 105.08 142.33 142.97 160.76"/><rect class="cls-1" x="-32.04" y="457.6" width="201.95" height="1" transform="translate(-372.25 316.82) rotate(-63.69)"/><line class="cls-1" x1="113.73" y1="367.6" x2="24.15" y2="548.6"/><path class="cls-6" d="M108.15,82.73a8.48,8.48,0,1,1,8.48-8.48A8.5,8.5,0,0,1,108.15,82.73Z"/><circle class="cls-6" cx="108.15" cy="74.25" r="7.98"/><rect class="cls-6" x="113.83" y="98.48" width="13.64" height="13.64" rx="3.39" transform="translate(225.95 -15.35) rotate(90)"/><rect class="cls-6" x="114.33" y="98.98" width="12.64" height="12.64" rx="2.89"/><path class="cls-6" d="M86.93,101.85a3.36,3.36,0,0,1-2.56-1.17l-4.49-5.19a3.39,3.39,0,0,1,.34-4.78l5.19-4.48a3.36,3.36,0,0,1,2.22-.83,3.4,3.4,0,0,1,2.56,1.17l4.49,5.19a3.38,3.38,0,0,1-.35,4.78L89.15,101A3.42,3.42,0,0,1,86.93,101.85Z"/><rect class="cls-6" x="80.96" y="87.31" width="12.64" height="12.64" rx="2.89" transform="translate(-39.98 79.93) rotate(-40.87)"/><polygon class="cls-8" points="58.02 303.89 0.5 288.85 0.5 276.11 58 257.49 58.3 258.44 1.5 276.83 1.5 288.07 58.28 302.93 58.02 303.89"/><polyline class="cls-8" points="58.15 303.41 1 288.46 1 276.47 58.15 257.97"/><polygon class="cls-8" points="58.02 296.98 17.04 286.27 17.04 277.45 58 264.19 58.3 265.15 18.04 278.17 18.04 285.49 58.28 296.02 58.02 296.98"/><polyline class="cls-8" points="58.15 296.5 17.54 285.88 17.54 277.81 58.15 264.67"/><polygon class="cls-8" points="58.01 215.3 4.47 200.07 6.85 190.41 7.82 190.65 5.67 199.38 58.29 214.34 58.01 215.3"/><polyline class="cls-8" points="58.15 214.82 5.07 199.72 7.34 190.53"/><path class="cls-4" d="M31.47,201.73a4.52,4.52,0,0,1-1.2-.17L10,195.89a4.41,4.41,0,0,1-2.69-2.09,4.46,4.46,0,0,1-.41-3.41l5.66-20.31a4.31,4.31,0,0,1,1.42-2.21l.44-.37,20.73,32.37-.24.28A4.46,4.46,0,0,1,31.47,201.73Z"/><path class="cls-4" d="M34.49,199.83a4,4,0,0,1-4.08,1.25l-20.32-5.67a4,4,0,0,1-2.75-4.88L13,170.21a3.87,3.87,0,0,1,1.26-2Z"/><path class="cls-6" d="M13.6,168.15l.34-.28a4.44,4.44,0,0,1,2.89-1.06A4.38,4.38,0,0,1,18,167l20.32,5.67a4.47,4.47,0,0,1,3.1,5.49l-5.66,20.32a4.49,4.49,0,0,1-.91,1.71l-.44.51Z"/><path class="cls-6" d="M41,178,35.3,198.32a3.94,3.94,0,0,1-.81,1.51L14.26,168.25a4,4,0,0,1,3.63-.8l20.32,5.67A4,4,0,0,1,41,178Z"/><rect class="cls-8" x="26.81" y="203.28" width="5.63" height="1" transform="translate(-174.32 175.3) rotate(-73.78)"/><line class="cls-8" x1="30.41" y1="201.08" x2="28.84" y2="206.48"/><rect class="cls-8" x="34.82" y="163.73" width="26.71" height="1" transform="translate(-97.06 73.69) rotate(-41.71)"/><line class="cls-8" x1="38.21" y1="173.12" x2="58.15" y2="155.34"/><rect class="cls-8" x="36.1" y="166.24" width="30.91" height="1" transform="translate(-105.21 90.02) rotate(-46.74)"/><line class="cls-8" x1="40.96" y1="178" x2="62.15" y2="155.49"/><path class="cls-9" d="M196.82,387.49c-18.07-3.3-34.79-20.08-47.07-47.25s-19.1-62.63-19.1-99.64c0-81.33,32.67-147.5,72.82-147.5a35.36,35.36,0,0,1,13.21,2.55l-.28.95a34.68,34.68,0,0,0-5.89-.5c-39.6,0-71.82,65.72-71.82,146.5,0,70.31,24.56,130.85,58.4,143.93Z"/><path class="cls-9" d="M138.19,242.6c0,71.74,25.28,131.47,58.72,144.4-36.87-6.74-65.76-69.71-65.76-146.4,0-81.19,32.38-147,72.32-147a34.65,34.65,0,0,1,13,2.51,34.81,34.81,0,0,0-6-.51C170.57,95.6,138.19,161.41,138.19,242.6Z"/><path class="cls-9" d="M203.47,388.1a34.63,34.63,0,0,1-5.82-.48l.07-1c18.56-.4,34.22-15.36,45.29-43.25,10.39-26.18,16.12-62.85,16.12-103.24,0-75.49-19.37-132-49.35-144,0,0,0,0,0,0h-.13l0-1h.84a34.78,34.78,0,0,1,6.07.52h0l.05,0c15.39,6.16,28.2,23.57,37,50.36,8.45,25.59,12.92,58.3,12.92,94.59,0,40.81-5.82,77.79-16.4,104.13C238.86,373.1,222.69,388.1,203.47,388.1Z"/><path class="cls-9" d="M266.15,240.6c0,81.19-22.74,147-62.68,147a34.29,34.29,0,0,1-5.74-.47c39.46-.85,61.9-66.33,61.9-147,0-71.91-17.84-131.75-49.66-144.49l-.28,0h.82a34.81,34.81,0,0,1,6,.51C248.31,108.85,266.15,168.69,266.15,240.6Z"/><rect class="cls-10" x="63.16" y="349.35" width="20.56" height="1" transform="translate(-280.99 396.43) rotate(-85.63)"/><line class="cls-10" x1="74.23" y1="339.6" x2="72.65" y2="360.1"/><polygon class="cls-6" points="35.23 41.88 52.5 12.66 89.07 17.32 71.8 46.54 35.23 41.88"/><polygon class="cls-6" points="88.26 17.72 71.54 46 36.04 41.48 52.76 13.2 88.26 17.72"/><path class="cls-6" d="M52.76,26.4a13.21,13.21,0,0,1-13.2-13.2,13,13,0,0,1,1.78-6.6l.43-.75.43.75a12.19,12.19,0,0,0,21.12,0l.43-.75.43.75A13,13,0,0,1,66,13.2,13.21,13.21,0,0,1,52.76,26.4Z"/><path class="cls-6" d="M65.46,13.2A12.7,12.7,0,1,1,41.77,6.85a12.69,12.69,0,0,0,22,0A12.57,12.57,0,0,1,65.46,13.2Z"/><rect class="cls-10" x="73.73" y="339.6" width="1" height="13"/><line class="cls-10" x1="74.23" y1="352.6" x2="74.23" y2="339.6"/><rect class="cls-10" x="73.73" y="142.26" width="1" height="2.34"/><line class="cls-10" x1="74.23" y1="144.6" x2="74.23" y2="142.26"/><path class="cls-5" d="M52.76,13.7A13.21,13.21,0,0,1,41.34,7.1l-.15-.25.15-.25a13.18,13.18,0,0,1,22.84,0l.15.25-.15.25A13.21,13.21,0,0,1,52.76,13.7Z"/><ellipse class="cls-5" cx="52.76" cy="6.85" rx="10.99" ry="6.35"/><rect class="cls-2" x="146.26" y="225.45" width="27.58" height="23.01" rx="4.68"/><rect class="cls-2" x="146.76" y="225.95" width="26.58" height="22.01" rx="4.18"/><path class="cls-2" d="M170.27,244a4.92,4.92,0,0,1-5.12-4.67v-5.41a4.92,4.92,0,0,1,5.12-4.68h7.25V244Z"/><path class="cls-2" d="M177,229.73v13.76h-6.75a4.41,4.41,0,0,1-4.62-4.17v-5.41a4.41,4.41,0,0,1,4.62-4.18Z"/><path class="cls-2" d="M185.34,244V229.23H189a5.15,5.15,0,0,1,4.78,3,4.16,4.16,0,0,1,.34,1.67v5.41a4.43,4.43,0,0,1-.33,1.66,5.18,5.18,0,0,1-4.79,3Z"/><path class="cls-2" d="M193.63,233.91v5.41a4,4,0,0,1-.29,1.47,4.65,4.65,0,0,1-4.33,2.7h-3.17V229.73H189a4.6,4.6,0,0,1,4.31,2.7A3.7,3.7,0,0,1,193.63,233.91Z"/><rect class="cls-2" x="185.34" y="231.93" width="20.84" height="9.36"/><rect class="cls-2" x="185.84" y="232.43" width="19.84" height="8.36"/><rect class="cls-11" x="176.52" y="229.23" width="9.81" height="14.76"/><rect class="cls-11" x="177.02" y="229.73" width="8.81" height="13.76"/><path class="cls-11" d="M205.18,241.29v-9.36h3.08a5.38,5.38,0,0,1,3.61,1.35,4.48,4.48,0,0,1,1.52,3.33,4.93,4.93,0,0,1-5.13,4.68Z"/><path class="cls-11" d="M212.89,236.61a4.42,4.42,0,0,1-4.63,4.18h-2.58v-8.36h2.58a4.9,4.9,0,0,1,3.28,1.22A4,4,0,0,1,212.89,236.61Z"/><path class="cls-6" d="M439.66,441.36a3.55,3.55,0,0,1-1.77-.47l-2.12-1.22a3.57,3.57,0,0,1-1.3-4.85l1.22-2.11a3.57,3.57,0,0,1,4.85-1.3l2.11,1.22a3.57,3.57,0,0,1,1.66,2.16,3.52,3.52,0,0,1-.36,2.69l-1.22,2.11A3.56,3.56,0,0,1,439.66,441.36Z"/><rect class="cls-6" x="434.95" y="431.88" width="8.53" height="8.53" rx="3.05" transform="translate(276.92 -161.17) rotate(30)"/><path d="M112.89,75.41a4.27,4.27,0,0,1-3.3-2.4c-1.12-1.94-1-4,.24-4.75a1.84,1.84,0,0,1,.93-.24,4.27,4.27,0,0,1,3.3,2.41c1.11,1.93,1,4-.24,4.74a1.84,1.84,0,0,1-.93.24Z"/><ellipse cx="111.82" cy="71.72" rx="2.08" ry="3.49" transform="translate(-20.88 65.52) rotate(-30)"/><path d="M52.76,9.32c-2.07,0-3.69-1.08-3.69-2.47s1.62-2.47,3.69-2.47,3.69,1.08,3.69,2.47S54.83,9.32,52.76,9.32Z"/><ellipse cx="52.76" cy="6.85" rx="3.19" ry="1.97"/></g></g></svg>