<?xml version="1.0" encoding="UTF-8" standalone="no"?><!DOCTYPE svg PUBLIC "-//W3C//DTD SVG 1.1//EN" "http://www.w3.org/Graphics/SVG/1.1/DTD/svg11.dtd"><svg width="100%" height="100%" viewBox="0 0 1768 859" version="1.1" xmlns="http://www.w3.org/2000/svg" xmlns:xlink="http://www.w3.org/1999/xlink" xml:space="preserve" xmlns:serif="http://www.serif.com/" style="fill-rule:evenodd;clip-rule:evenodd;stroke-linejoin:round;stroke-miterlimit:2;"><path d="M98.018,596.709c0,11.728 0.978,28.065 2.933,49.009c1.954,20.944 5.864,41.609 11.728,61.994c5.865,20.386 14.242,37.979 25.133,52.78c10.891,14.8 24.994,22.2 42.307,22.2c17.873,0 33.511,-4.887 46.915,-14.661c13.404,-9.774 24.435,-20.525 33.092,-32.254c8.657,-11.728 15.219,-22.48 19.687,-32.253c4.469,-9.774 6.703,-14.661 6.703,-14.661c1.675,-5.027 4.747,-9.076 9.215,-12.148c4.468,-3.072 9.215,-4.608 14.242,-4.608c6.702,0 12.566,2.374 17.593,7.121c5.027,4.748 7.54,10.752 7.54,18.012c-0,3.91 -1.396,9.355 -4.189,16.337c-2.792,6.981 -6.144,13.962 -10.053,20.944c-3.91,6.981 -7.959,13.544 -12.148,19.687c-4.189,6.144 -7.4,10.612 -9.634,13.405c-16.197,21.223 -34.209,37.42 -54.036,48.59c-19.827,11.17 -41.469,16.755 -64.927,16.755c-32.393,0 -60.039,-7.679 -82.938,-23.038c-22.899,-15.359 -41.47,-35.047 -55.712,-59.063c-14.242,-24.016 -24.714,-50.545 -31.416,-79.587c-6.702,-29.043 -10.053,-57.527 -10.053,-85.452c-0,-29.043 3.491,-59.342 10.472,-90.898c6.981,-31.556 18.152,-60.598 33.511,-87.127c15.359,-26.53 35.186,-48.451 59.481,-65.765c24.295,-17.314 53.757,-25.971 88.384,-25.971c6.144,0 14.103,1.117 23.876,3.351c9.774,2.234 19.548,5.585 29.322,10.054c9.774,4.468 18.152,9.773 25.133,15.917c6.982,6.144 10.472,13.125 10.472,20.944c0,6.702 -2.513,12.567 -7.54,17.593c-5.026,5.027 -10.891,7.54 -17.593,7.54c-5.585,0 -10.611,-1.675 -15.08,-5.026c-18.43,-14.522 -35.186,-21.224 -50.265,-20.107c-12.288,0 -23.039,4.608 -32.254,13.823c-9.216,9.216 -17.175,21.084 -23.877,35.605c-6.702,14.522 -12.426,30.579 -17.174,48.172c-4.747,17.593 -8.517,34.767 -11.31,51.522c-2.792,16.756 -4.747,32.394 -5.864,46.915c-1.117,14.521 -1.676,25.971 -1.676,34.349Z" style="fill:#ff9979;fill-rule:nonzero;"/><path d="M596.488,567.387c-0.558,-11.729 -0.977,-23.458 -1.256,-35.186c-0.279,-11.729 -0.419,-23.179 -0.419,-34.349c-0,-11.17 0.14,-24.574 0.419,-40.212c0.279,-15.639 1.117,-31.696 2.513,-48.172c1.396,-16.476 3.351,-32.114 5.864,-46.915c2.514,-14.8 6.284,-26.389 11.31,-34.767c4.468,-8.936 9.774,-14.521 15.918,-16.755c6.143,-2.234 11.17,-3.351 15.08,-3.351c7.819,-0 14.8,3.071 20.944,9.215c2.792,2.793 5.585,7.121 8.377,12.985c2.793,5.865 5.306,15.639 7.54,29.322c2.234,13.684 4.189,32.813 5.865,57.387c1.675,24.575 2.792,56.968 3.351,97.181c0.558,14.521 0.837,29.461 0.837,44.82l0,45.658c0,31.277 -0.139,61.157 -0.418,89.641c-0.28,28.484 -0.699,53.059 -1.257,73.724l-0,45.239c-0,8.377 -1.955,15.498 -5.864,21.363c-3.91,5.864 -10.612,8.796 -20.107,8.796c-3.909,0 -8.657,-1.117 -14.242,-3.351c-5.585,-2.234 -10.891,-7.26 -15.917,-15.079c-5.585,-9.495 -10.472,-23.179 -14.661,-41.051c-4.189,-17.872 -7.819,-37.001 -10.891,-57.387c-3.072,-20.385 -5.306,-40.352 -6.702,-59.9c-1.397,-19.548 -2.653,-35.465 -3.77,-47.753c-23.458,5.585 -47.055,10.333 -70.791,14.242c-23.737,3.91 -47.613,8.099 -71.629,12.567c-0.559,25.133 -1.396,49.986 -2.514,74.561c-1.117,24.574 -3.071,45.239 -5.864,61.995c-0.558,5.026 -1.536,10.611 -2.932,16.755c-1.396,6.143 -3.491,11.729 -6.283,16.755c-2.793,5.027 -6.284,9.216 -10.472,12.567c-4.189,3.351 -9.635,5.026 -16.337,5.026c-3.351,0 -7.679,-0.838 -12.985,-2.513c-5.306,-1.676 -10.472,-6.144 -15.499,-13.404c-6.143,-10.054 -11.03,-25.692 -14.661,-46.915c-3.63,-21.224 -6.283,-43.843 -7.958,-67.859c-1.676,-24.016 -2.793,-47.194 -3.351,-69.535c-0.559,-22.34 -0.838,-39.095 -0.838,-50.266c-0,-15.079 0.139,-33.091 0.419,-54.035c0.279,-20.944 1.256,-42.447 2.932,-64.508c1.675,-22.061 3.909,-43.424 6.702,-64.089c2.793,-20.665 6.702,-38.258 11.729,-52.779c2.792,-9.495 7.4,-18.431 13.823,-26.809c6.423,-8.378 15.219,-12.566 26.389,-12.566c10.612,-0 17.733,4.049 21.363,12.147c3.631,8.099 6.004,16.616 7.121,25.552c1.117,5.027 1.816,11.031 2.095,18.012c0.279,6.981 0.977,15.219 2.094,24.714c2.234,34.069 3.77,68.278 4.608,102.626c0.838,34.349 1.257,68.837 1.257,103.464c23.457,-3.909 46.635,-7.959 69.534,-12.147c22.899,-4.189 46.077,-9.076 69.534,-14.661Z" style="fill:#ff9979;fill-rule:nonzero;"/><path d="M1006.99,834.634c-0.558,6.702 -3.211,12.287 -7.959,16.755c-4.747,4.468 -10.472,6.702 -17.174,6.702c-10.053,0 -18.431,-3.351 -25.133,-10.053c-6.702,-6.702 -12.147,-14.801 -16.336,-24.295c-4.189,-9.495 -7.261,-19.548 -9.216,-30.16c-1.954,-10.611 -3.49,-19.548 -4.607,-26.808c-2.234,-17.873 -3.77,-37.281 -4.608,-58.225c-0.838,-20.944 -1.536,-43.145 -2.094,-66.602c-10.612,1.675 -22.341,3.49 -35.186,5.445c-12.846,1.955 -25.832,3.91 -38.957,5.865c-13.124,1.954 -25.831,3.63 -38.118,5.026c-12.287,1.396 -23.178,2.653 -32.673,3.77c-3.351,33.511 -5.026,65.067 -5.026,94.668c-0,17.313 0.838,33.231 2.513,47.752c0,7.819 -2.234,14.382 -6.702,19.688c-4.468,5.305 -10.612,7.958 -18.431,7.958c-6.143,0 -11.589,-2.094 -16.336,-6.283c-4.748,-4.189 -7.68,-9.634 -8.797,-16.336c-1.675,-15.08 -2.513,-32.673 -2.513,-52.779c-0,-15.08 0.977,-36.443 2.932,-64.089c1.955,-27.647 5.166,-57.806 9.634,-90.479c4.468,-32.673 10.612,-66.044 18.431,-100.113c7.819,-34.069 17.873,-65.066 30.16,-92.992c12.287,-27.925 26.669,-50.685 43.145,-68.278c16.476,-17.593 35.884,-26.389 58.224,-26.389c21.782,-0 40.073,7.26 54.874,21.782c14.8,14.521 26.948,33.231 36.443,56.13c9.494,22.899 16.895,48.451 22.2,76.655c5.306,28.205 9.216,56.27 11.729,84.196c2.513,27.925 3.91,53.756 4.189,77.493c0.279,23.737 0.419,42.866 0.419,57.387c-0,20.106 -0.279,38.956 -0.838,56.549c-0.558,17.593 -1.117,32.812 -1.676,45.658c-0.558,12.846 -1.117,23.318 -1.675,31.416c-0.559,8.099 -0.838,12.427 -0.838,12.986Zm-226.196,-223.683c9.494,-1.118 19.966,-2.374 31.416,-3.77c11.449,-1.397 23.318,-2.933 35.605,-4.608c12.287,-1.676 24.435,-3.63 36.443,-5.864c12.008,-2.235 23.317,-4.189 33.929,-5.865c-0.558,-29.042 -1.536,-57.247 -2.932,-84.614c-1.396,-27.367 -3.77,-52.221 -7.121,-74.561c-0.559,-2.234 -1.536,-6.982 -2.932,-14.242c-1.396,-7.261 -3.212,-14.801 -5.446,-22.62c-2.234,-7.819 -4.887,-14.8 -7.958,-20.944c-3.072,-6.144 -6.284,-9.215 -9.635,-9.215c-9.494,-0 -18.431,5.026 -26.808,15.079c-8.378,10.054 -16.197,23.039 -23.458,38.956c-7.26,15.918 -13.823,33.511 -19.687,52.78c-5.864,19.268 -10.891,38.118 -15.08,56.549c-4.189,18.431 -7.679,35.046 -10.472,49.847c-2.792,14.8 -4.747,25.831 -5.864,33.092Z" style="fill:#ff9979;fill-rule:nonzero;"/><path d="M1036.32,579.953c-0,-30.159 3.91,-60.877 11.729,-92.154c7.819,-31.276 19.966,-59.76 36.442,-85.452c16.476,-25.691 37.281,-46.635 62.414,-62.832c25.133,-16.197 55.292,-24.295 90.478,-24.295c32.394,-0 59.901,7.679 82.52,23.038c22.62,15.359 40.911,34.767 54.874,58.225c13.963,23.457 24.016,49.428 30.159,77.912c6.144,28.484 9.216,56.409 9.216,83.776c-0,27.367 -3.351,57.108 -10.053,89.222c-6.702,32.115 -17.454,61.855 -32.254,89.222c-14.801,27.367 -34.069,50.266 -57.806,68.697c-23.737,18.431 -52.36,27.646 -85.871,27.646c-33.511,0 -62.413,-7.819 -86.709,-23.457c-24.295,-15.639 -44.122,-35.605 -59.481,-59.9c-15.359,-24.296 -26.808,-51.383 -34.348,-81.264c-7.54,-29.88 -11.31,-59.341 -11.31,-88.384Zm201.901,-214.468c-21.782,0 -39.514,8.378 -53.198,25.133c-13.683,16.756 -24.574,36.722 -32.673,59.901c-8.098,23.178 -13.683,46.914 -16.755,71.21c-3.072,24.295 -4.608,44.261 -4.608,59.9c0,13.962 1.397,32.254 4.189,54.873c2.793,22.62 7.68,44.681 14.661,66.184c6.981,21.502 16.895,40.212 29.741,56.13c12.845,15.918 29.321,23.876 49.428,23.876c25.133,0 46.356,-8.098 63.67,-24.295c17.314,-16.197 31.137,-35.884 41.469,-59.062c10.333,-23.178 17.873,-47.613 22.62,-73.305c4.747,-25.691 7.121,-48.311 7.121,-67.859c-0,-19.548 -1.955,-40.492 -5.864,-62.832c-3.91,-22.34 -10.752,-43.145 -20.526,-62.414c-9.774,-19.268 -22.619,-35.325 -38.537,-48.171c-15.917,-12.846 -36.163,-19.269 -60.738,-19.269Z" style="fill:#ff9979;fill-rule:nonzero;"/><path d="M1707.36,381.403c-5.026,-0 -9.773,-1.396 -14.242,-4.189c-12.287,-7.819 -27.925,-11.729 -46.914,-11.729c-18.431,0 -33.79,4.469 -46.077,13.405c-12.288,8.936 -18.431,25.133 -18.431,48.59c-0,26.25 7.679,47.473 23.038,63.67c15.359,16.197 33.371,30.997 54.036,44.402c12.846,8.936 25.692,17.872 38.537,26.808c12.846,8.936 24.575,19.269 35.186,30.997c10.612,11.729 19.129,24.994 25.552,39.794c6.423,14.801 9.635,32.533 9.635,53.198c-0,25.692 -5.167,47.753 -15.499,66.184c-10.333,18.431 -23.597,33.65 -39.794,45.658c-16.197,12.008 -34.348,20.804 -54.455,26.39c-20.106,5.585 -40.212,8.377 -60.319,8.377c-29.601,0 -58.504,-5.445 -86.708,-16.336c-28.205,-10.891 -51.523,-25.831 -69.954,-44.821c-5.026,-5.026 -7.54,-10.891 -7.54,-17.593c0,-7.26 2.514,-13.264 7.54,-18.012c5.027,-4.747 10.891,-7.121 17.593,-7.121c6.702,0 12.567,2.514 17.593,7.54c14.522,13.963 32.673,25.133 54.455,33.511c21.782,8.377 43.843,12.566 66.184,12.566c27.925,0 47.333,-6.981 58.224,-20.944c10.891,-13.963 16.337,-32.114 16.337,-54.455c-0,-15.079 -1.955,-28.763 -5.865,-41.05c-3.909,-12.287 -9.076,-23.178 -15.498,-32.673c-6.423,-9.495 -13.824,-18.151 -22.201,-25.971c-8.378,-7.819 -17.314,-15.079 -26.809,-21.781c-13.404,-9.495 -26.948,-18.571 -40.631,-27.228c-13.684,-8.657 -26.111,-18.151 -37.281,-28.484c-11.17,-10.332 -20.246,-22.061 -27.227,-35.186c-6.981,-13.125 -10.472,-28.903 -10.472,-47.334c-0,-22.899 5.306,-42.586 15.917,-59.062c10.612,-16.476 23.877,-30.16 39.794,-41.051c15.918,-10.89 32.952,-18.989 51.104,-24.295c18.151,-5.306 34.767,-7.958 49.847,-7.958c7.26,-0 16.057,0.698 26.389,2.094c10.333,1.396 20.246,3.63 29.741,6.702c9.495,3.072 17.593,7.261 24.295,12.567c6.702,5.305 10.053,11.868 10.053,19.687c0,6.702 -2.513,12.566 -7.539,17.593c-5.027,5.027 -10.891,7.54 -17.594,7.54Z" style="fill:#ff9979;fill-rule:nonzero;"/><path d="M309.221,0.657l66.753,244.402l-71.164,-0.348l-14.225,-52.997l-73.489,-0.359l-15.815,52.85l-27.715,-0.136l73.431,-243.716l62.224,0.304Zm-85.032,166.235l59.9,0.293l-28.259,-108.318l-31.641,108.025Z" style="fill:#fff;fill-rule:nonzero;"/><path d="M623.025,2.192l-1.193,244.069l-68.304,-0.334l0.83,-169.865l-48.392,169.633l-39.516,-0.194l-47.998,-167.242l-0.816,167.004l-23.781,-0.116l1.193,-244.07l71.88,0.352l41.12,147.54l42.382,-147.132l72.595,0.355Z" style="fill:#fff;fill-rule:nonzero;"/><path d="M663.851,246.467l1.193,-244.07l108.535,0.531c55.907,0.273 83.762,20.377 83.567,60.31c-0.139,28.37 -17.095,46.466 -50.869,54.288c40.609,8.305 60.828,29.98 60.657,65.026c-0.212,43.271 -27.675,64.772 -82.39,64.505l-120.693,-0.59Zm70.906,-19.859l20.205,0.099c26.463,0.129 39.768,-14.945 39.916,-45.223c0.17,-34.688 -13.394,-52.099 -40.692,-52.232l-18.953,-0.093l-0.476,97.449Zm0.575,-117.654l21.814,0.107c20.146,0.098 30.291,-14.753 30.437,-44.554c0.134,-27.536 -10.467,-41.356 -31.804,-41.461l-20.027,-0.097l-0.42,86.005Z" style="fill:#fff;fill-rule:nonzero;"/><path d="M966.153,3.87l-1.194,244.069l-70.807,-0.346l1.194,-244.07l70.807,0.347Z" style="fill:#fff;fill-rule:nonzero;"/><path d="M1166.59,4.85l-0.119,24.496l-87.436,-0.427l-0.361,73.846l73.489,0.36l-0.12,24.496l-73.489,-0.359l-0.473,96.733l102.277,0.5l-0.12,24.497l-173.084,-0.847l1.194,-244.069l158.242,0.774Z" style="fill:#fff;fill-rule:nonzero;"/><path d="M1382.05,5.903l-1.193,244.07l-54.178,-0.265l-101.164,-154.986l-0.756,154.487l-23.781,-0.116l1.194,-244.069l44.88,0.219l110.401,167.369l0.816,-166.825l23.781,0.116Z" style="fill:#fff;fill-rule:nonzero;"/><path d="M1594.12,6.94l-0.12,24.497l-59.899,-0.293l-1.074,219.573l-75.098,-0.368l1.073,-219.573l-60.257,-0.294l0.12,-24.497l195.255,0.955Z" style="fill:#fff;fill-rule:nonzero;"/><g><path d="M1220.18,629.058l41.304,-0.598c0.084,5.798 -9.06,13.004 -20.466,13.17c-11.406,0.164 -20.754,-6.774 -20.838,-12.572Z" style="fill:#fd9a7b;fill-rule:nonzero;"/><path d="M1293.84,610.552l-0.005,-0.019c-7.075,-6.352 -11.582,-15.522 -11.731,-25.779l-0.386,-26.637c-0.256,-17.699 -11.449,-32.676 -27.052,-38.592l-0.136,-9.361c-0.123,-8.499 -7.138,-15.314 -15.637,-15.191c-8.5,0.123 -15.314,7.138 -15.191,15.637l0.136,9.362c-15.426,6.365 -26.18,21.659 -25.924,39.358l0.386,26.638c0.148,10.257 -4.091,19.553 -10.98,26.107l-0.004,0.02c-1.45,1.201 -2.365,3.022 -2.335,5.05c0.015,1.071 0.296,2.075 0.772,2.958c1.103,2.043 3.274,3.42 5.756,3.384l98.47,-1.426c2.482,-0.036 4.612,-1.476 5.655,-3.549c0.451,-0.896 0.702,-1.908 0.686,-2.979c-0.029,-2.029 -0.996,-3.822 -2.48,-4.981Zm-54.639,-94.329c-3.843,0.056 -7.004,-3.015 -7.06,-6.858c-0.055,-3.843 3.015,-7.004 6.858,-7.059c3.843,-0.056 7.004,3.014 7.06,6.858c0.055,3.843 -3.015,7.003 -6.858,7.059Z" style="fill:#fd9a7b;fill-rule:nonzero;"/></g></svg>